<svg xmlns="http://www.w3.org/2000/svg" xmlns:xlink="http://www.w3.org/1999/xlink" viewBox="0 0 365.31 303.92">
    <defs>
        <linearGradient id="Áåçûìÿííûé_ãðàäèåíò_16" x1="146.28" y1="123" x2="154.53" y2="259.06" gradientUnits="userSpaceOnUse">
            <stop offset="0" stop-color="#fff"/>
            <stop offset="1"/>
        </linearGradient>
    </defs>
    <g style="isolation:isolate">
        <g id="Layer_2" data-name="Layer 2">
            <g id="_1" data-name="1">
                <path d="M55.4,192.4a.59.59,0,0,1-.26-.07L.26,160.62a.51.51,0,0,1-.26-.45.54.54,0,0,1,.26-.45L23,146.63a.5.5,0,0,1,.7.19.51.51,0,0,1-.19.7l-22,12.65L55.4,191.28l66.18-38.45a.52.52,0,0,1,.51.9l-66.43,38.6A.59.59,0,0,1,55.4,192.4Z" style="fill:#c7ddfb"/>
                <path d="M47.69,187.79a6.6,6.6,0,0,1-6,0c-1.66-1-1.67-2.5,0-3.46a6.62,6.62,0,0,1,6,0C49.33,185.29,49.34,186.84,47.69,187.79Z" style="fill:#c7ddfb"/>
                <path d="M27.22,149.4a9.35,9.35,0,0,1-8.48,0c-2.35-1.36-2.36-3.55,0-4.9a9.38,9.38,0,0,1,8.48,0C29.54,145.86,29.55,148.06,27.22,149.4Z" style="fill:#c7ddfb"/>
                <path d="M182.37,285.78a6.65,6.65,0,0,1-6,0c-1.65-1-1.66-2.51,0-3.46a6.6,6.6,0,0,1,6,0C184,283.28,184,284.83,182.37,285.78Z" style="fill:#c7ddfb"/>
                <path d="M47.7,274.15a6.65,6.65,0,0,1-6,0c-1.66-1-1.67-2.51,0-3.46a6.62,6.62,0,0,1,6,0C49.34,271.65,49.34,273.19,47.7,274.15Z" style="fill:#c7ddfb"/>
                <path d="M96.91,213a9.35,9.35,0,0,1-8.48,0c-2.35-1.35-2.36-3.54,0-4.89a9.38,9.38,0,0,1,8.48,0C99.23,209.42,99.24,211.61,96.91,213Z" style="fill:#c7ddfb"/>
                <path d="M146.65,303.92a.48.48,0,0,1-.26-.07l-62-35.52-24,13.74a.52.52,0,0,1-.51,0L15.08,256a.51.51,0,0,1,0-.89l77.34-45.2a.52.52,0,0,1,.71.19.51.51,0,0,1-.18.7L16.36,255.58,60.11,281l24-13.75a.52.52,0,0,1,.51,0l62,35.53,65.93-38.7-26.9-15.84a.5.5,0,0,1-.18-.7.51.51,0,0,1,.7-.19l27.66,16.29a.51.51,0,0,1,0,.89l-67,39.29A.48.48,0,0,1,146.65,303.92Z" style="fill:#c7ddfb"/>
                <path d="M287.61,252.15a6.65,6.65,0,0,1-6,0c-1.66-1-1.66-2.51,0-3.46a6.62,6.62,0,0,1,6,0C289.25,249.65,289.26,251.2,287.61,252.15Z" style="fill:#c7ddfb"/>
                <path d="M222.78,196.77a6.6,6.6,0,0,1-6,0c-1.66-1-1.67-2.5,0-3.46a6.6,6.6,0,0,1,6,0C224.42,194.27,224.43,195.82,222.78,196.77Z" style="fill:#c7ddfb"/>
                <path d="M340.49,189.87a9.35,9.35,0,0,1-8.48,0c-2.35-1.35-2.36-3.55,0-4.89a9.38,9.38,0,0,1,8.48,0C342.82,186.33,342.83,188.52,340.49,189.87Z" style="fill:#c7ddfb"/>
                <path d="M266.82,261.09a.48.48,0,0,1-.26-.07l-30.4-17.71a.52.52,0,0,1,0-.89l32.22-18.69L185.9,176.2a.52.52,0,0,1-.26-.45.51.51,0,0,1,.26-.45L237,146a.52.52,0,0,1,.71.2.51.51,0,0,1-.19.7L187.2,175.75l82.47,47.53a.52.52,0,0,1,.26.45.54.54,0,0,1-.26.45l-32.22,18.68L266.82,260l96.93-56-28.22-15.95a.53.53,0,0,1-.19-.71.51.51,0,0,1,.7-.19l29,16.4a.51.51,0,0,1,.26.45.52.52,0,0,1-.26.45l-98,56.57A.58.58,0,0,1,266.82,261.09Z" style="fill:#c7ddfb"/>
                <path d="M328.58,40.57a9.35,9.35,0,0,1-8.48,0c-2.35-1.35-2.37-3.55,0-4.89a9.38,9.38,0,0,1,8.48,0C330.9,37,330.91,39.22,328.58,40.57Z" style="fill:#c7ddfb"/>
                <path d="M309.89,96.74a.5.5,0,0,1-.44-.26.51.51,0,0,1,.18-.7L334.9,81,291.51,57a.51.51,0,0,1-.26-.45.52.52,0,0,1,.26-.45l32.57-18.41a.52.52,0,0,1,.71.19.51.51,0,0,1-.2.7l-31.77,18,43.38,24a.52.52,0,0,1,0,.9l-26,15.23A.54.54,0,0,1,309.89,96.74Z" style="fill:#c7ddfb"/>
                <path d="M107.26,33.31a9.38,9.38,0,0,0,8.48,0c2.35-1.36,2.36-3.55,0-4.9a9.38,9.38,0,0,0-8.48,0C104.94,29.77,104.93,32,107.26,33.31Z" style="fill:#c7ddfb"/>
                <path d="M111.78,31.26a.52.52,0,0,1-.27-.07L68.6,5.86a.53.53,0,0,1-.18-.71A.51.51,0,0,1,69.13,5L112,30.3a.52.52,0,0,1,.18.71A.52.52,0,0,1,111.78,31.26Z" style="fill:#c7ddfb"/>
                <path d="M56.06,62.81a6.65,6.65,0,0,1-6,0c-1.66-1-1.67-2.51,0-3.46a6.62,6.62,0,0,1,6,0C57.69,60.31,57.7,61.86,56.06,62.81Z" style="fill:#c7ddfb"/>
                <path d="M45.61,81.77a.59.59,0,0,1-.26-.07L32,73.87a.53.53,0,0,1-.25-.45A.5.5,0,0,1,32,73L74.31,48.11,54.77,37a.51.51,0,0,1-.2-.7.52.52,0,0,1,.71-.2L75.6,47.66a.51.51,0,0,1,0,.89L33.25,73.42,45.87,80.8a.52.52,0,0,1,.19.71A.54.54,0,0,1,45.61,81.77Z" style="fill:#c7ddfb"/>
                <path d="M256.45,52.87a6.63,6.63,0,0,1-6,0c-1.66-1-1.67-2.51,0-3.46a6.6,6.6,0,0,1,6,0C258.09,50.37,258.1,51.92,256.45,52.87Z" style="fill:#c7ddfb"/>
                <path d="M220.73,5.92a9.35,9.35,0,0,1-8.48,0c-2.35-1.35-2.36-3.55,0-4.89a9.38,9.38,0,0,1,8.48,0C223.05,2.38,223.07,4.57,220.73,5.92Z" style="fill:#c7ddfb"/>
                <path d="M232.45,63.88a.52.52,0,0,1-.26-1l43.17-25.4L216.43,3.84a.5.5,0,0,1-.19-.7.51.51,0,0,1,.7-.19l59.71,34.12a.52.52,0,0,1,0,.89l-44,25.85A.48.48,0,0,1,232.45,63.88Z" style="fill:#c7ddfb"/>
                <path d="M261.07,112.25c-47.45-27.4-124.15-27.54-171.31-.31s-46.92,71.51.53,98.91,124.16,27.53,171.32.31S308.53,139.64,261.07,112.25Z" style="fill:#dfebff"/>
                <path d="M284.7,98.6c-60.59-35-158.51-35.15-218.72-.39s-59.91,91.3.68,126.28,158.52,35.16,218.73.39S345.29,133.58,284.7,98.6ZM71.55,221.67c-57.88-33.42-58.17-87.42-.66-120.62s151.05-33,208.93.37,58.16,87.42.65,120.63S129.42,255.08,71.55,221.67Z" style="fill:#dfebff"/>
                <ellipse cx="271.15" cy="172.33" rx="22.77" ry="39.44" transform="translate(97.35 442.54) rotate(-89.69)" style="fill:#c7ddfb"/>
                <ellipse cx="148.19" cy="254.86" rx="11.06" ry="19.15" transform="translate(-107.48 401.66) rotate(-89.69)" style="fill:#c7ddfb"/>
                <g style="opacity:0.1">
                    <path d="M257.81,112l17,9.79c-.85-.7-1.73-1.4-2.63-2.08l-13.84-8Z" style="fill:#fff"/>
                    <path d="M257.81,111.42l-9.69-5.59c-1.18-.52-2.37-1-3.57-1.5l12.77,7.37Z" style="fill:#fff"/>
                    <polygon points="111.2 219.37 91.52 208 91.03 208.28 110.71 219.65 111.2 219.37" style="fill:#fff"/>
                    <path d="M70.08,195.63l.56.55.2-.12Z" style="fill:#fff"/>
                    <path d="M111.21,219.93l3,1.72,2.23.73-4.71-2.73Z" style="fill:#fff"/>
                    <path d="M91,207.71,71.34,196.35l-.34.19.42.42,19.11,11Z" style="fill:#fff"/>
                    <polygon points="149.76 220.4 130.08 209.04 129.59 209.32 149.28 220.69 149.76 220.4" style="fill:#fff"/>
                    <polygon points="69.05 174.37 88.73 185.73 89.22 185.45 69.54 174.09 69.05 174.37" style="fill:#fff"/>
                    <path d="M149.77,221l17.87,10.32,1.06,0-18.44-10.64Z" style="fill:#fff"/>
                    <polygon points="89.23 186.02 108.92 197.38 109.4 197.1 89.72 185.74 89.23 186.02" style="fill:#fff"/>
                    <path d="M69,173.8l-14.41-8.32.06.6,13.86,8Z" style="fill:#fff"/>
                    <polygon points="129.58 208.75 109.9 197.39 109.41 197.67 129.09 209.03 129.58 208.75" style="fill:#fff"/>
                    <polygon points="87.43 163.75 107.12 175.12 107.61 174.84 87.92 163.47 87.43 163.75" style="fill:#fff"/>
                    <path d="M188.34,222,202,229.88l.8-.1-14-8.05Z" style="fill:#fff"/>
                    <path d="M67.25,151.53l-9.93-5.73c-.06.16-.13.31-.18.46l9.62,5.56Z" style="fill:#fff"/>
                    <polygon points="147.97 198.14 128.28 186.77 127.79 187.06 147.48 198.42 147.97 198.14" style="fill:#fff"/>
                    <polygon points="188.33 221.44 168.64 210.08 168.16 210.36 187.84 221.72 188.33 221.44" style="fill:#fff"/>
                    <polygon points="107.61 175.41 127.3 186.77 127.79 186.49 108.1 175.12 107.61 175.41" style="fill:#fff"/>
                    <polygon points="67.25 152.1 86.94 163.47 87.43 163.19 67.74 151.82 67.25 152.1" style="fill:#fff"/>
                    <polygon points="168.15 209.79 148.46 198.43 147.97 198.71 167.66 210.07 168.15 209.79" style="fill:#fff"/>
                    <polygon points="206.71 210.83 187.03 199.46 186.54 199.75 206.22 211.11 206.71 210.83" style="fill:#fff"/>
                    <polygon points="85.64 141.49 105.32 152.85 105.81 152.57 86.13 141.21 85.64 141.49" style="fill:#fff"/>
                    <path d="M85.63,140.92l-18.7-10.8-.32.38,18.53,10.7Z" style="fill:#fff"/>
                    <polygon points="186.53 199.18 166.85 187.81 166.36 188.09 186.04 199.46 186.53 199.18" style="fill:#fff"/>
                    <polygon points="105.82 153.14 125.5 164.5 125.99 164.22 106.31 152.86 105.82 153.14" style="fill:#fff"/>
                    <polygon points="166.35 187.53 146.67 176.16 146.18 176.44 165.86 187.81 166.35 187.53" style="fill:#fff"/>
                    <path d="M226.9,223.05l2.37,1.37.66-.19-2.54-1.47Z" style="fill:#fff"/>
                    <polygon points="126 164.79 145.68 176.16 146.17 175.87 126.48 164.51 126 164.79" style="fill:#fff"/>
                    <polygon points="226.89 222.48 207.21 211.11 206.72 211.4 226.4 222.76 226.89 222.48" style="fill:#fff"/>
                    <polygon points="104.02 130.88 123.7 142.24 124.19 141.96 104.51 130.59 104.02 130.88" style="fill:#fff"/>
                    <polygon points="124.2 142.53 143.88 153.89 144.37 153.61 124.69 142.25 124.2 142.53" style="fill:#fff"/>
                    <polygon points="144.38 154.18 164.06 165.54 164.55 165.26 144.87 153.9 144.38 154.18" style="fill:#fff"/>
                    <path d="M245.28,212.43l6.48,3.74.55-.24-6.54-3.78Z" style="fill:#fff"/>
                    <polygon points="204.91 188.56 185.23 177.2 184.74 177.48 204.43 188.84 204.91 188.56" style="fill:#fff"/>
                    <polygon points="245.27 211.87 225.59 200.5 225.1 200.78 244.79 212.15 245.27 211.87" style="fill:#fff"/>
                    <polygon points="83.84 119.22 103.52 130.59 104.01 130.31 84.33 118.94 83.84 119.22" style="fill:#fff"/>
                    <path d="M83.83,118.66l-2.49-1.44-.44.31,2.44,1.41Z" style="fill:#fff"/>
                    <polygon points="225.09 200.21 205.41 188.85 204.92 189.13 224.6 200.5 225.09 200.21" style="fill:#fff"/>
                    <polygon points="184.73 176.91 165.05 165.55 164.56 165.83 184.25 177.19 184.73 176.91" style="fill:#fff"/>
                    <path d="M263.66,201.82l6.49,3.74.43-.31-6.43-3.71Z" style="fill:#fff"/>
                    <polygon points="203.12 166.3 183.43 154.93 182.94 155.22 202.63 166.58 203.12 166.3" style="fill:#fff"/>
                    <polygon points="223.3 177.95 203.61 166.59 203.12 166.87 222.81 178.23 223.3 177.95" style="fill:#fff"/>
                    <polygon points="243.48 189.6 223.79 178.24 223.3 178.52 242.99 189.88 243.48 189.6" style="fill:#fff"/>
                    <path d="M102.21,108l-2.37-1.37-.55.25,2.44,1.4Z" style="fill:#fff"/>
                    <polygon points="102.22 108.61 121.91 119.98 122.39 119.69 102.71 108.33 102.22 108.61" style="fill:#fff"/>
                    <polygon points="122.4 120.26 142.09 131.63 142.57 131.34 122.89 119.98 122.4 120.26" style="fill:#fff"/>
                    <polygon points="263.66 201.25 243.97 189.89 243.49 190.17 263.17 201.53 263.66 201.25" style="fill:#fff"/>
                    <polygon points="162.76 143.56 182.45 154.93 182.94 154.65 163.25 143.28 162.76 143.56" style="fill:#fff"/>
                    <polygon points="142.58 131.91 162.27 143.28 162.75 143 143.07 131.63 142.58 131.91" style="fill:#fff"/>
                    <polygon points="282.04 190.64 262.36 179.27 261.87 179.56 281.55 190.92 282.04 190.64" style="fill:#fff"/>
                    <polygon points="160.97 121.3 180.65 132.66 181.14 132.38 161.45 121.02 160.97 121.3" style="fill:#fff"/>
                    <polygon points="140.79 109.65 160.47 121.01 160.96 120.73 141.27 109.37 140.79 109.65" style="fill:#fff"/>
                    <polygon points="181.15 132.95 200.83 144.31 201.32 144.03 181.63 132.67 181.15 132.95" style="fill:#fff"/>
                    <path d="M282.05,191.21l2.4,1.38.31-.38-2.22-1.29Z" style="fill:#fff"/>
                    <polygon points="241.68 167.34 222 155.97 221.51 156.25 241.19 167.62 241.68 167.34" style="fill:#fff"/>
                    <polygon points="261.86 178.99 242.18 167.62 241.69 167.9 261.37 179.27 261.86 178.99" style="fill:#fff"/>
                    <path d="M140.78,109.08,122.43,98.49l-.65.18,18.51,10.69Z" style="fill:#fff"/>
                    <polygon points="221.5 155.69 201.81 144.32 201.33 144.6 221.01 155.97 221.5 155.69" style="fill:#fff"/>
                    <path d="M159.16,98.47l-9.28-5.36-.8.1,9.59,5.54Z" style="fill:#fff"/>
                    <polygon points="179.35 110.69 199.03 122.05 199.52 121.77 179.84 110.4 179.35 110.69" style="fill:#fff"/>
                    <polygon points="159.17 99.03 178.85 110.4 179.34 110.12 159.66 98.75 159.17 99.03" style="fill:#fff"/>
                    <polygon points="280.24 168.37 260.56 157.01 260.07 157.29 279.75 168.66 280.24 168.37" style="fill:#fff"/>
                    <polygon points="260.06 156.72 240.38 145.36 239.89 145.64 259.57 157 260.06 156.72" style="fill:#fff"/>
                    <polygon points="239.88 145.07 220.2 133.71 219.71 133.99 239.39 145.35 239.88 145.07" style="fill:#fff"/>
                    <path d="M280.25,168.94l13.67,7.89c.05-.15.11-.31.16-.47l-13.34-7.7Z" style="fill:#fff"/>
                    <polygon points="199.53 122.34 219.21 133.7 219.7 133.42 200.02 122.06 199.53 122.34" style="fill:#fff"/>
                    <polygon points="217.91 111.72 237.6 123.09 238.09 122.81 218.4 111.44 217.91 111.72" style="fill:#fff"/>
                    <polygon points="278.45 146.11 258.76 134.74 258.27 135.03 277.96 146.39 278.45 146.11" style="fill:#fff"/>
                    <polygon points="197.73 100.07 217.42 111.44 217.91 111.16 198.22 99.79 197.73 100.07" style="fill:#fff"/>
                    <path d="M197.72,99.5l-13.26-7.65-1.05,0,13.83,8Z" style="fill:#fff"/>
                    <polygon points="258.27 134.46 238.58 123.09 238.09 123.38 257.78 134.74 258.27 134.46" style="fill:#fff"/>
                    <path d="M278.45,146.68,296.36,157c0-.2-.06-.4-.08-.61l-17.34-10Z" style="fill:#fff"/>
                    <path d="M84.33,118.94l17.89-10.33.49-.28,14.21-8.2-2.23.71L102.21,108l-.48.28-17.9,10.34-.49.28-13,7.5c-.44.44-.86.87-1.27,1.31l14.76-8.53Z" style="fill:#fff"/>
                    <path d="M67.74,151.82l17.9-10.33.48-.28L104,130.88l.49-.29,17.89-10.33.49-.28,17.9-10.33.48-.28L159.17,99l.49-.28L172,91.64l-1,0-11.8,6.81-.49.28-17.89,10.33-.49.28-17.9,10.33-.48.29L104,130.31l-.49.28L85.63,140.92l-.49.28L67.25,151.53l-.49.29-12.31,7.1,0,.59,12.83-7.41Z" style="fill:#fff"/>
                    <path d="M69.54,174.09l17.89-10.34.49-.28,17.9-10.33.49-.28,17.89-10.33.49-.29,17.89-10.33.49-.28L161,121.3l.48-.28,17.9-10.33.49-.29,17.89-10.33.49-.28,9.58-5.53-.78-.13-9.3,5.37-.48.29-17.9,10.33-.49.28L161,120.73l-.49.28-17.89,10.33-.49.29L124.19,142l-.49.28-17.89,10.33-.49.28L87.43,163.19l-.49.28L69,173.8l-.49.28-9.81,5.67c.07.15.15.29.22.44l10.09-5.82Z" style="fill:#fff"/>
                    <path d="M89.23,186l.49-.28,17.89-10.34.49-.28L126,164.79l.49-.28,17.89-10.33.49-.28,17.89-10.34.49-.28L181.15,133l.48-.28,17.9-10.33.49-.28,17.89-10.34.49-.28,17.74-10.24-.64-.2-17.6,10.16-.48.28-17.9,10.33-.49.28-17.89,10.33-.49.28L162.76,143l-.49.28-17.9,10.33-.49.28L126,164.22l-.49.28-17.89,10.34-.49.28-17.9,10.33-.49.28L70.84,196.06l-.2.12.36.36.34-.19Z" style="fill:#fff"/>
                    <path d="M257.81,111.42l-.49.28-19.23,11.11-.49.28-17.9,10.33-.49.28L201.32,144l-.49.29-17.89,10.33-.49.28-17.9,10.33-.49.28-17.89,10.33-.49.29-17.89,10.33-.49.28L109.4,197.1l-.48.28L91,207.71l-.49.29-2.63,1.52.48.29L91,208.28l.49-.28,17.89-10.33.49-.28,17.89-10.33.49-.29,17.9-10.33.49-.28,17.89-10.33.49-.28,17.89-10.33.49-.29,17.9-10.33.49-.28L219.71,134l.49-.28,17.89-10.34.49-.28L257.81,112l.49-.28.8-.46-.51-.28Z" style="fill:#fff"/>
                    <path d="M257.78,134.74l-17.9,10.33-.49.28L221.5,155.68,221,156,203.12,166.3l-.49.28-17.9,10.33-.49.28-17.89,10.34-.49.28L148,198.14l-.49.28-17.9,10.33-.48.28-17.9,10.34-.49.28-.79.46.61.22.68-.4.49-.28,17.89-10.33.49-.28L148,198.71l.49-.28,17.9-10.34.49-.28,17.89-10.33.49-.28,17.89-10.33.49-.29,17.9-10.33L222,156l17.89-10.33.49-.28L258.27,135l.49-.29L277.35,124l-.39-.35-18.69,10.8Z" style="fill:#fff"/>
                    <path d="M278,146.39l-17.9,10.33-.49.28-17.89,10.34-.49.28L223.3,178l-.49.28-17.9,10.33-.49.28-17.89,10.34-.49.28-17.89,10.33-.49.28-17.9,10.33-.48.29-12.21,7,.75.14,12-6.9.49-.28,17.89-10.33.49-.28,17.9-10.34.49-.28,17.89-10.33.49-.28,17.89-10.33.49-.28,17.9-10.34.49-.28,17.89-10.33.49-.28,17.89-10.33.49-.29,11.48-6.62c-.08-.15-.16-.29-.25-.43l-11.72,6.77Z" style="fill:#fff"/>
                    <path d="M279.75,168.66,261.86,179l-.49.28L243.48,189.6l-.49.28-17.9,10.33-.48.29-17.9,10.33-.49.28-17.89,10.33-.49.28-16.78,9.69,1,0L188.34,222l.48-.28,17.9-10.33.49-.29,17.89-10.33.49-.28,17.89-10.33.49-.28,17.9-10.33.49-.29,17.89-10.33.49-.28,15.84-9.15,0-.55-16.31,9.41Z" style="fill:#fff"/>
                    <path d="M281.55,190.92l-17.89,10.33-.49.28-17.9,10.34-.48.28-17.9,10.33-.49.28L219.15,227l1.59-.35,6.16-3.55.49-.29,17.89-10.33.49-.28,17.89-10.33.49-.28,17.9-10.33.49-.29,5.69-3.28.63-.94L282,190.64Z" style="fill:#fff"/>
                </g>
                <path d="M162.46,81.11H114.12v48.41h0c0,3.59,2.37,7.19,7.13,9.93,9.46,5.46,24.76,5.49,34.16.06,4.77-2.75,7.1-6.37,7-10h0Z" style="fill:#ffa015"/>
                <path d="M160.89,128.32V83.49h-45.2v45.26h0c0,3.39,2.19,6.79,6.67,9.38,8.86,5.11,23.19,5.14,32,.06C159,135.48,161.21,131.88,160.89,128.32Z" style="fill:#46484f"/>
                <ellipse cx="138.31" cy="127.68" rx="11.73" ry="20.32" transform="translate(9.88 265.29) rotate(-89.69)" style="fill:#ffa015"/>
                <rect x="117.99" y="118.19" width="40.63" height="9.94" style="fill:#f9a216"/>
                <ellipse cx="138.31" cy="118.38" rx="11.73" ry="20.32" transform="translate(19.18 256.04) rotate(-89.69)" style="fill:#ffc74a"/>
                <ellipse cx="138.31" cy="114.06" rx="11.73" ry="20.32" transform="translate(23.5 251.75) rotate(-89.69)" style="fill:#ffa015"/>
                <rect x="117.99" y="104.56" width="40.63" height="9.94" style="fill:#f9a216"/>
                <ellipse cx="138.31" cy="104.76" rx="11.73" ry="20.32" transform="translate(32.8 242.5) rotate(-89.69)" style="fill:#ffc74a"/>
                <ellipse cx="138.31" cy="99.74" rx="11.73" ry="20.32" transform="translate(37.82 237.5) rotate(-89.69)" style="fill:#ffa015"/>
                <rect x="117.99" y="90.24" width="40.63" height="9.94" style="fill:#f9a216"/>
                <path d="M152.72,98.76c-7.91,4.57-20.78,4.55-28.74-.05s-8-12-.09-16.6,20.78-4.54,28.74.06S160.64,94.19,152.72,98.76Z" style="fill:#ffc74a"/>
                <path d="M145.44,142.53a30.35,30.35,0,0,0,9.84-3.43c4.76-2.75,7.09-6.37,7-10h0V80.7H145.44s-31.06,2.52-31.06,5.66c2.21,7.44,9.17,10.42,15.83,12.12a41.23,41.23,0,0,0,15.23.71Z" style="fill:#c16d48;opacity:0.4;mix-blend-mode:multiply"/>
                <path d="M120.76,139.15h0c.16.1.31.2.48.29,5.15,3,12,4.33,18.74,4.08V91.42H120.76Z" style="fill:#fff;opacity:0.3;mix-blend-mode:screen"/>
                <path d="M128.94,135.72a12.72,12.72,0,0,1-5.46-2.18V90.65h5.46Z" style="fill:#fff;opacity:0.4;mix-blend-mode:screen"/>
                <path d="M162.46,83.73V68.65H114.12V84.28h0c0,3.59,2.37,7.19,7.14,9.94,9.47,5.48,24.79,5.5,34.21.07C160.48,91.39,162.81,87.54,162.46,83.73Z" style="fill:#393b42"/>
                <ellipse cx="138.31" cy="67.83" rx="13.97" ry="24.19" transform="translate(69.72 205.77) rotate(-89.69)" style="fill:#46484f"/>
                <ellipse cx="138.31" cy="67.83" rx="10.75" ry="18.62" transform="translate(69.72 205.77) rotate(-89.69)" style="fill:#b0b7c9"/>
                <path d="M155.47,77.06c-9.42,5.44-24.74,5.41-34.21-.06-4.61-2.66-7-6.12-7.13-9.59-.15,3.7,2.22,7.44,7.13,10.27,9.47,5.47,24.79,5.5,34.21.06,4.83-2.79,7.17-6.49,7-10.16C162.34,71,160,74.44,155.47,77.06Z" style="fill:#7c8189"/>
                <path d="M147.41,73.05c-5,2.88-13.12,2.86-18.15,0s-5-7.59-.06-10.48,13.13-2.87,18.15,0S152.41,70.16,147.41,73.05Z" style="fill:#868b9b"/>
                <path d="M147.41,71.91c-5,2.88-13.12,2.87-18.15,0s-5-7.6-.06-10.48,13.13-2.87,18.15,0S152.41,69,147.41,71.91Z" style="fill:#cad1e3"/>
                <path d="M143.63,66.37h0a2,2,0,0,0-.09-.33l-.62-2.28h0a2.52,2.52,0,0,0-1.33-1.59,7.27,7.27,0,0,0-6.58,0,2.54,2.54,0,0,0-1.28,1.43h0l-.69,2.5h0c-.3,1,.19,2,1.49,2.74a8.33,8.33,0,0,0,7.56,0A2.47,2.47,0,0,0,143.63,66.37Z" style="fill:#9599a6"/>
                <path d="M141.61,66A7.27,7.27,0,0,1,135,66c-1.82-1-1.83-2.75,0-3.79a7.27,7.27,0,0,1,6.58,0C143.41,63.22,143.42,64.92,141.61,66Z" style="fill:#b0b7c9"/>
                <path d="M125.1,61c7.25-4.19,19-4.17,26.34,0,3.49,2,5.31,4.63,5.47,7.26.2-2.9-1.62-5.85-5.47-8.07-7.3-4.22-19.09-4.24-26.34,0-3.78,2.18-5.58,5.08-5.4,7.95C119.88,65.56,121.68,63,125.1,61Z" style="fill:#868b9b"/>
                <path d="M140.05,63.32a5.88,5.88,0,0,1-4,.71c-1.38-.23-1.84-.92-1-1.54a5.84,5.84,0,0,1,4-.72C140.4,62,140.86,62.69,140.05,63.32Z" style="fill:#dae2f2"/>
                <path d="M134,65.67s-.59,1.41-.36,1.86a4.39,4.39,0,0,0,3.27,1.68c2.32.27,3.82-.2,4-.59a7.06,7.06,0,0,0-.23-1.91C138.88,67.62,135.22,67.07,134,65.67Z" style="fill:#b0b7c9"/>
                <path d="M141.59,62.17a7.38,7.38,0,0,0-6-.3,7.41,7.41,0,0,1,5.69.4c1.82,1,1.83,2.75,0,3.8a4.92,4.92,0,0,1-.61.29,5.56,5.56,0,0,0,.89-.39C143.42,64.92,143.41,63.22,141.59,62.17Z" style="fill:#9599a6"/>
                <path d="M147.41,71.5c-5,2.88-13.12,2.87-18.15,0-2.43-1.41-3.68-3.23-3.77-5.06-.09,2,1.16,4,3.77,5.47,5,2.9,13.15,2.91,18.15,0,2.58-1.49,3.81-3.47,3.71-5.42C151,68.31,149.81,70.11,147.41,71.5Z" style="fill:#dae2f2"/>
                <path d="M121.26,77.68l-.5-.3V93.92c.17.1.33.21.5.3,5.14,3,12,4.34,18.73,4.09V81.77C133.28,82,126.4,80.65,121.26,77.68Z" style="fill:#46484f"/>
                <path d="M141.79,63.28h0c.1,0,.13.13.13.28,0,.77-.61,1.77-1.45,1.77S140.68,63.48,141.79,63.28Z" style="fill:#cad1e3"/>
                <rect x="137.99" y="85.96" width="0.64" height="6.99" style="fill:#fff"/>
                <rect x="137.99" y="85.96" width="0.64" height="6.99" transform="translate(227.77 -48.85) rotate(90)" style="fill:#fff"/>
                <rect x="137.99" y="130.43" width="0.64" height="6.99" transform="translate(272.23 -4.39) rotate(90)" style="fill:#393b42"/>
                <path d="M162.46,83.73V68.65h0c-.29,3.31-2.61,6.57-7,9.09a30.85,30.85,0,0,1-10,3.47V97.75a30.84,30.84,0,0,0,10-3.46C160.48,91.39,162.81,87.54,162.46,83.73Z" style="mix-blend-mode:multiply;fill:#393b42;opacity:0.2"/>
                <path d="M278.35,176a12.38,12.38,0,0,1-11.2,0c-3.1-1.79-3.12-4.69,0-6.47a12.36,12.36,0,0,1,11.19,0C281.41,171.33,281.43,174.23,278.35,176Z" style="fill:#656d7c"/>
                <ellipse cx="272.73" cy="136.91" rx="10" ry="17.33" transform="translate(134.35 408.89) rotate(-89.69)" style="mix-blend-mode:multiply;opacity:0.3;fill:#6aaed3"/>
                <path d="M285,155.24H260.42l.76,14.26v.17h0c.07,1.66,1.19,3.31,3.39,4.58,4.53,2.62,11.85,2.63,16.35,0,2.28-1.31,3.39-3,3.36-4.77Z" style="fill:#888f9e"/>
                <path d="M263.52,160.56c-.2-.12-1.61,12.94,4.31,14s5.56-11.7,5.56-11.7S267.69,163.12,263.52,160.56Z" style="fill:#b8becc"/>
                <path d="M281.3,159.29c-4.7,2.71-12.35,2.7-17.08,0s-4.75-7.15-.05-9.86,12.34-2.7,17.07,0S286,156.57,281.3,159.29Z" style="fill:#a58991"/>
                <path d="M281.33,163.45c-4.72,2.73-12.39,2.71-17.14,0-2.16-1.25-3.33-2.84-3.54-4.47-.25,2,.92,4,3.54,5.51,4.75,2.74,12.42,2.75,17.14,0,2.57-1.49,3.72-3.48,3.48-5.43C284.6,160.66,283.45,162.23,281.33,163.45Z" style="fill:#656d7c"/>
                <path d="M281.18,167.46c-4.64,2.68-12.18,2.66-16.84,0-2.12-1.23-3.27-2.79-3.47-4.39-.26,1.93.9,3.92,3.47,5.41,4.66,2.69,12.2,2.7,16.84,0,2.52-1.46,3.65-3.42,3.42-5.33C284.39,164.72,283.26,166.26,281.18,167.46Z" style="fill:#656d7c"/>
                <ellipse cx="272.73" cy="154.34" rx="6.56" ry="11.37" transform="translate(116.91 426.23) rotate(-89.69)" style="fill:#866a72"/>
                <path d="M263.3,158a9.33,9.33,0,0,0,1.42,1c4.45,2.57,11.65,2.58,16.08,0a9.62,9.62,0,0,0,1.36-1,6,6,0,0,0-2.53-2.51,15.31,15.31,0,0,0-13.84,0A6,6,0,0,0,263.3,158Z" style="fill:#6d5159"/>
                <path d="M281.05,171.47c-4.57,2.63-12,2.62-16.58,0-2.09-1.21-3.22-2.75-3.42-4.32-.25,1.9.89,3.86,3.42,5.32,4.59,2.65,12,2.66,16.58,0,2.48-1.44,3.6-3.36,3.36-5.25C284.21,168.77,283.09,170.29,281.05,171.47Z" style="fill:#656d7c"/>
                <path d="M285.22,83.16c-14-5-25.64-1.9-33.92,5.76l-.15.15c37.66-18.33,53.26,12.08,47.43,43.45C311.33,114.58,303.23,90.63,285.22,83.16Z" style="opacity:0.4;fill:#8cc2f2"/>
                <path d="M268,143.48a132,132,0,0,0-5.69-25.82l.52-.17a131.82,131.82,0,0,1,5.71,25.93Z" style="fill:#6d5159"/>
                <path d="M277.35,143.48l-.54-.06a131.82,131.82,0,0,1,5.71-25.93l.52.17A132,132,0,0,0,277.35,143.48Z" style="fill:#6d5159"/>
                <path d="M273.27,127.36c-.2,0-.67-.11-.67-1.16a7,7,0,0,1,1.74-3.87,1.37,1.37,0,0,0-1.16-.88,2,2,0,0,0-1.47.85,2.3,2.3,0,0,1,.23,1c0,.43-.12,1.16-.56,1.16s-.48-.29-.48-.74a2.92,2.92,0,0,1,.6-1.44,2.14,2.14,0,0,0-1.56-1.14,1.64,1.64,0,0,0-.76.23,2.3,2.3,0,0,1,.32,1.15c0,.4-.25,1.39-.72,1.39s-.76-.66-.76-1.14a1.78,1.78,0,0,1,.9-1.45,2.61,2.61,0,0,0-2.24-1,5.89,5.89,0,0,0-2.9.89l-.09-.15a6,6,0,0,1,3-.92,2.8,2.8,0,0,1,2.4,1.06,1.9,1.9,0,0,1,.86-.26,2.28,2.28,0,0,1,1.68,1.17,2.06,2.06,0,0,1,1.56-.86,1.48,1.48,0,0,1,1.27.92c.62-.72,1.21-1.21,1.49-1.21a.84.84,0,0,1,.74.63,5.89,5.89,0,0,1,3.95-1.37,2.65,2.65,0,0,1,1.33.21l-.13.13a2.64,2.64,0,0,0-1.2-.16,5.53,5.53,0,0,0-3.88,1.37,3,3,0,0,1,.1.7c0,.3,0,1.12-.6,1.12a.53.53,0,0,1-.46-.58,2.16,2.16,0,0,1,.75-1.28c-.12-.33-.31-.59-.6-.59s-.79.49-1.39,1.22a5.66,5.66,0,0,1,.47,2.15C275,126,274,127.36,273.27,127.36Zm1.16-4.83a6.78,6.78,0,0,0-1.65,3.67,1.56,1.56,0,0,0,.15.77.39.39,0,0,0,.34.21c.6,0,1.56-1.21,1.56-2.65A5.53,5.53,0,0,0,274.43,122.53Zm-2.84-.06a2.61,2.61,0,0,0-.51,1.25c0,.09,0,.56.3.56s.38-.6.38-1A2.23,2.23,0,0,0,271.59,122.47Zm-2.57-1a1.61,1.61,0,0,0-.82,1.3c0,.34.2,1,.58,1s.54-.82.54-1.21A2,2,0,0,0,269,121.47Zm7.58.47A2,2,0,0,0,276,123c0,.26.16.4.28.4.29,0,.42-.29.42-.94A2.76,2.76,0,0,0,276.6,121.94Z" style="fill:#6d5159"/>
                <path d="M277.9,159.31H267.41a.16.16,0,0,1-.13-.08.16.16,0,0,1,0-.15,15.67,15.67,0,0,0,.87-5.83,24.68,24.68,0,0,1,.37-4.85,38,38,0,0,1-.52-5.13h0a.06.06,0,0,1,0,0h0a2.67,2.67,0,0,1,1.38-2.19,6.47,6.47,0,0,1,6.53,0,2.71,2.71,0,0,1,1.4,2.25v0a2.85,2.85,0,0,1,0,.29c-.08.89-.29,3.17-.53,4.75a48.81,48.81,0,0,1,.48,4.88c.08,1.58.84,5.83.85,5.87a.15.15,0,0,1,0,.14A.14.14,0,0,1,277.9,159.31ZM267.65,159H277.7c-.15-.86-.75-4.3-.82-5.72a47.57,47.57,0,0,0-.48-4.86v-.06c.24-1.57.45-3.86.54-4.77a2.29,2.29,0,0,0,0-.25h0a2.39,2.39,0,0,0-1.25-2,6.11,6.11,0,0,0-6.17,0,2.37,2.37,0,0,0-1.23,1.92.09.09,0,0,1,0,.05h0a37.79,37.79,0,0,0,.52,5.1.06.06,0,0,1,0,.06,24.52,24.52,0,0,0-.37,4.82A16.73,16.73,0,0,1,267.65,159Z" style="fill:#6d5159"/>
                <path d="M272.66,151.06a5.36,5.36,0,0,1-2.88-.78,2.47,2.47,0,0,1-1.22-1.85.15.15,0,0,1,.15-.17.17.17,0,0,1,.18.15A2.14,2.14,0,0,0,270,150a5.3,5.3,0,0,0,5.36,0,2,2,0,0,0,1.06-1.6c0-.09.09-.17.17-.15a.15.15,0,0,1,.16.17,2.39,2.39,0,0,1-1.21,1.86A5.28,5.28,0,0,1,272.66,151.06Z" style="fill:#6d5159"/>
                <path d="M275.79,144.48a.15.15,0,0,1-.13-.07.17.17,0,0,1,0-.23,2.52,2.52,0,0,0,1.17-1.53.16.16,0,1,1,.32.08,2.85,2.85,0,0,1-1.31,1.73Z" style="fill:#6d5159"/>
                <path d="M275.93,144.23a.16.16,0,0,0-.23,0,6.07,6.07,0,0,1-6.11,0,2.56,2.56,0,0,1-1.19-1.56.16.16,0,0,0-.2-.12.16.16,0,0,0-.13.19,2.87,2.87,0,0,0,1.34,1.76,6,6,0,0,0,3.25.89,6,6,0,0,0,3.22-.87A.17.17,0,0,0,275.93,144.23Z" style="fill:#6d5159"/>
                <path d="M268.23,142.81h0a.16.16,0,0,1-.11-.21,1.75,1.75,0,0,1,.12-.32.17.17,0,0,1,.22-.08.16.16,0,0,1,.08.22,2.33,2.33,0,0,0-.11.28A.16.16,0,0,1,268.23,142.81Z" style="fill:#6d5159"/>
                <path d="M277.21,153.24a48.81,48.81,0,0,0-.48-4.88c.24-1.58.45-3.86.53-4.75a2.85,2.85,0,0,0,0-.29v0a2.71,2.71,0,0,0-1.4-2.25,6.43,6.43,0,0,0-4.3-.81,5.62,5.62,0,0,1,2.25.81,2.71,2.71,0,0,1,1.4,2.25v0a1.43,1.43,0,0,1,0,.29c-.08.89-.29,3.17-.52,4.75-.24,1-2.18,2.25-5.82,1,3.33,2.9,6.06.82,6.08,1.06.11,1.09.17,2.07.21,2.81.08,1.58.85,5.83.85,5.87a.17.17,0,0,1,0,.14.16.16,0,0,1-.13.06h2a.14.14,0,0,0,.12-.06.15.15,0,0,0,0-.14S277.29,154.82,277.21,153.24Z" style="fill:#6d5159"/>
                <path d="M272.72,135.36a2.44,2.44,0,0,1-1.19-.29.89.89,0,0,1-.53-.75.88.88,0,0,1,.52-.75,2.61,2.61,0,0,1,2.37,0,.92.92,0,0,1,.53.76.91.91,0,0,1-.53.75A2.36,2.36,0,0,1,272.72,135.36Zm0-1.83a2.13,2.13,0,0,0-1.06.25.67.67,0,0,0-.4.54.68.68,0,0,0,.41.54,2.36,2.36,0,0,0,2.12,0h0a.67.67,0,0,0,.4-.54.68.68,0,0,0-.4-.55A2.22,2.22,0,0,0,272.7,133.53Z" style="fill:#6d5159"/>
                <path d="M272.72,142.25a2.43,2.43,0,0,1-1.19-.28.87.87,0,0,1-.52-.81v-6.9h3.38V141a.82.82,0,0,1-.49,1A2.36,2.36,0,0,1,272.72,142.25ZM271.25,141h0l0,.15c0,.22.11.44.4.61a2.33,2.33,0,0,0,2.12,0c.33-.19.46-.44.37-.69v-6.56h-2.89Z" style="fill:#6d5159"/>
                <path d="M274.29,134.41a3.52,3.52,0,0,1-3.16,0,1,1,0,0,1,0-1.82,3.52,3.52,0,0,1,3.16,0A1,1,0,0,1,274.29,134.41Z" style="fill:#6d5159"/>
                <path d="M271.17,133.39a.06.06,0,0,1-.06,0,69.73,69.73,0,0,0-2.33-9.89.05.05,0,0,1,0-.07.06.06,0,0,1,.08,0,68.69,68.69,0,0,1,2.34,9.91.06.06,0,0,1-.05.07Z" style="fill:#6d5159"/>
                <path d="M274.63,133.16h0a.06.06,0,0,1-.05-.06c.71-4.27,1.33-7.49,2-10.45a.08.08,0,0,1,.07-.05.06.06,0,0,1,.05.07c-.68,3-1.29,6.18-2,10.45A.07.07,0,0,1,274.63,133.16Z" style="fill:#6d5159"/>
                <path d="M304.8,113.33A34.61,34.61,0,0,1,289,141.5l.28-.32a72.26,72.26,0,0,0-3,8.64c-.23.83-.73,4.81-1.48,4.9l.29-.29c.18,5.68-8.06,7.5-12.33,7.49s-12.43-1.85-12.39-7.48l.3.28c-.78-.12-1.22-4.11-1.44-4.92a52,52,0,0,0-3.06-8.57l.29.33c-18.76-11.78-21.29-38.94-4.38-53.36a32.06,32.06,0,0,1,42.64,1.32C301.35,95.79,304.41,104.36,304.8,113.33Z" style="opacity:0.4;fill:#8cdef4"/>
                <path d="M295.93,91.48a35.66,35.66,0,0,1-34.09,46.85,36.21,36.21,0,0,1-10.78-1.63,32,32,0,0,0,5.76,4.24c.51,1.16,1,2.38,1.37,3.59h.8c11.73,0,21.25,4,21.25,8.87,0,3.28-4.26,6.14-10.6,7.68a18.68,18.68,0,0,0,11.66-1.78c2.32-1.34,3.48-3.1,3.5-4.86h.05a75.55,75.55,0,0,1,3.81-13.5,31.87,31.87,0,0,0,7.27-49.45Z" style="opacity:0.4;mix-blend-mode:multiply;fill:#6b9cd1"/>
                <path d="M304.41,113.34c-.51-9-3.86-17.23-10.77-23.24a32.23,32.23,0,0,0-23.92-7.62c-17.18,1.61-30.51,17.42-28.31,34.73a30.62,30.62,0,0,0,13.09,21.51c1.39.93,2.72,1.49,3.47,3.07,1.78,3.73,2.39,8.55,2.93,12.59l-.28-.25c.35.05.24-.06.34.29a6.1,6.1,0,0,0,2.05,3.43c2.4,2,5.8,2.71,8.83,2.83,3.5.15,7.57-.41,10.43-2.62a6,6,0,0,0,2.24-3.63c.08-.32,0-.26.34-.3l-.29.25a75.68,75.68,0,0,1,2-9c.39-1.37.65-3.54,1.59-4.7.73-.91,2.11-1.39,3.06-2a27,27,0,0,0,3.52-2.8C301.06,129.89,304.1,121.85,304.41,113.34Zm.39,0A34,34,0,0,1,294,137.64c-1.71,1.58-4.39,2.62-5.35,4.78a56.15,56.15,0,0,0-2.53,7.82c-.23.85-.57,4.34-1.36,4.48l.29-.29c.18,5.68-8.06,7.5-12.33,7.49s-12.43-1.85-12.39-7.48l.3.28c-.79-.1-2.15-7.41-2.58-8.67-.9-2.66-1.62-4.43-3.83-6.12-6-4.6-10.46-10.41-12.51-17.84a33.43,33.43,0,0,1,5.39-28.59,32,32,0,0,1,45.63-5.72C300.59,94.13,304.37,103.42,304.8,113.33Z" style="fill:#788da3"/>
                <path d="M289,138.09s3-4.53,5.8-8.24c3.61-4.76,7.11-9.87,7.55-9.79s-1.54,6.45-4.92,11.26S289.25,139.36,289,138.09Z" style="fill:#fff;opacity:0.5"/>
                <path d="M256.65,138.09s-3-4.53-5.8-8.24c-3.61-4.76-7.11-9.87-7.55-9.79s1.54,6.45,4.92,11.26S256.41,139.36,256.65,138.09Z" style="fill:#fff;opacity:0.6"/>
                <path d="M262.16,162.31s4.67,4.19,13.15,3.27C275.31,165.58,267.05,167.55,262.16,162.31Z" style="fill:#979fad"/>
                <path d="M262.16,166.28s4.67,4.19,13.15,3.27C275.31,169.55,267.05,171.52,262.16,166.28Z" style="fill:#979fad"/>
                <path d="M262.16,170.25s4.67,4.2,13.15,3.27C275.31,173.52,267.05,175.49,262.16,170.25Z" style="fill:#979fad"/>
                <path d="M284.7,156.42a6.21,6.21,0,0,1-1.11,1.68,8.63,8.63,0,0,1-1.53,1.3l-.4.26c-.15.1-.29.16-.44.25s-.57.33-.87.45-.59.28-.9.39l-.85.3-.5,9.44c0,1.74-1.06,3.34-3.32,4.39a13.16,13.16,0,0,1-4.92,1.12,17.77,17.77,0,0,0,11.07-1.72c2.28-1.31,3.39-3,3.36-4.77l.75-14.24A4.93,4.93,0,0,1,284.7,156.42Z" style="mix-blend-mode:multiply;fill:#888f9e;opacity:0.5"/>
                <path d="M284.7,156.42a6.21,6.21,0,0,1-1.11,1.68,8.63,8.63,0,0,1-1.53,1.3l-.4.26c-.15.1-.29.16-.44.25s-.57.33-.87.45-.59.28-.9.39l-.93.33c-.62.17-1.25.34-1.89.46-.32.08-.64.11-1,.16s-.65.1-1,.12c-.65.07-1.29.09-1.94.1s-1.3,0-1.95-.11q-.48,0-1-.12c-.32-.05-.65-.09-1-.17-.64-.12-1.27-.29-1.9-.47l-.92-.33c-.31-.11-.61-.26-.91-.4s-.57-.29-.86-.44l-.43-.25c-.14-.09-.28-.17-.41-.27a8.46,8.46,0,0,1-1.52-1.28,5.79,5.79,0,0,1-.5-.61c1.06,1.94,3.72,4.4,10.37,4.74,6.89.36,11-2.14,13.08-4.11l.12-2.32h-.08A5,5,0,0,1,284.7,156.42Z" style="mix-blend-mode:multiply;fill:#888f9e;opacity:0.5"/>
                <path d="M264,159.19a14.09,14.09,0,0,0,10.43,2.2S268.15,161,264,159.19Z" style="fill:#8cadba"/>
                <path d="M245.34,106.83c0-12.35,9.68-22.45,23.27-22.45,8.74,0,11.89,5.45,11.89,14.43,0,16.77-14.09,25.4-22.3,25.4C250.66,124.21,245.34,114.69,245.34,106.83Z" style="fill:#fff;opacity:0.6"/>
                <path d="M259.53,87.93c4.39,0,5.89,3.91,5.89,6.49,0,3.58-3,10.06-11.5,10.63C246.83,105.05,249.17,87.93,259.53,87.93Z" style="fill:#fff"/>
                <ellipse cx="148.46" cy="252.09" rx="5.84" ry="10.11" transform="matrix(0.01, -1, 1, 0.01, -104.43, 399.19)" style="mix-blend-mode:multiply;fill:#226fa5;opacity:0.15"/>
                <polygon points="124.38 138.31 142.05 128.14 152.9 134.45 144.66 175.96 164.43 159.6 171.57 163.67 148.35 237.4 148.26 237.34 148.8 184.04 138.9 204.47 132.55 200.86 124.38 138.31" style="fill:#f9a216"/>
                <polygon points="124.47 138.25 138.23 146.3 152.31 137.45 152.9 134.45 142.05 128.14 124.47 138.25" style="fill:#ffb92c"/>
                <polygon points="153.25 181.01 162.5 175.38 152.27 169.47 144.45 175.94 153.25 181.01" style="fill:#f78c19"/>
                <polygon points="155.67 210.84 157.83 192.46 148.77 187.23 148.57 206.75 155.67 210.84" style="fill:#f78c19"/>
                <polygon points="139.54 184.58 129.68 178.88 132.55 200.85 133.44 201.37 138.9 204.47 140.62 200.92 139.54 184.58" style="fill:#f78c19"/>
                <polygon points="128.2 167.57 138.6 173.57 137.54 161.48 126.58 155.14 128.2 167.57" style="fill:#f78c19"/>
                <polygon points="164.43 159.6 158.77 164.28 169.44 170.45 171.57 163.67 164.43 159.6" style="fill:#f78c19"/>
                <polygon points="135.23 144.61 152.9 134.45 150.67 179.6 171.57 163.67 148.49 237.32 148.35 237.4 154.48 192.47 138.9 204.47 135.23 144.61" style="fill:#ffd13e"/>
                <polygon points="125.58 147.49 136.84 154 136.39 145.29 124.38 138.35 125.58 147.49" style="fill:#f78c19"/>
                <path d="M142.05,128.14l-17.59,10.11,10.77,6.36,17.67-10.16s-15.1,7.91-17.46,7.82-8-3.64-7.55-4.46S142.05,128.14,142.05,128.14Z" style="fill:#ffe878"/>
                <polygon points="136.33 143.98 135.23 144.61 138.9 204.47 136.33 143.98" style="fill:#fff0b0"/>
                <polygon points="155.57 191.62 154.37 192.55 148.35 237.4 148.49 237.32 155.57 191.62" style="fill:#fff0b0"/>
                <polygon points="150.72 179.56 150.67 180.69 171.57 163.67 150.72 179.56" style="fill:#fff0b0"/>
                <g style="opacity:0.3;mix-blend-mode:screen">
                    <polygon points="136.73 169.13 152.53 141.88 152.9 134.45 143.36 139.94 135.75 153.06 136.73 169.13" style="fill:#fff"/>
                    <polygon points="148.35 237.4 148.49 237.32 157.31 209.17 150.63 220.69 148.35 237.4" style="fill:#fff"/>
                    <polygon points="138.9 204.47 154.48 192.47 154.12 195.13 170.66 166.59 171.57 163.67 150.67 179.6 151.78 157.11 137.5 181.73 138.9 204.47" style="fill:#fff"/>
                </g>
                <g style="opacity:0.2;mix-blend-mode:overlay">
                    <polygon points="124.38 138.31 142.05 128.14 152.9 134.45 151.11 170.63 164.43 159.6 171.57 163.67 148.35 237.4 148.26 237.34 148.67 196.95 138.9 204.47 132.55 200.86 124.38 138.31" style="fill:url(#Áåçûìÿííûé_ãðàäèåíò_16)"/>
                </g>
            </g>
        </g>
    </g>
</svg>
