<svg xmlns="http://www.w3.org/2000/svg" viewBox="0 0 365.31 303.92" xmlns:v="https://vecta.io/nano"><defs><linearGradient id="A" x1="146.28" y1="123" x2="154.53" y2="259.06" gradientUnits="userSpaceOnUse"><stop offset="0" stop-color="#fff"/><stop offset="1"/></linearGradient><path id="B" d="M69.05 174.37l19.68 11.36.49-.28-19.68-11.36-.49.28z"/><path id="C" d="M129.58 208.75l-19.68-11.36-.49.28 19.68 11.36.49-.28z"/><path id="D" d="M87.43 163.75l19.69 11.37.49-.28-19.69-11.37-.49.28z"/><path id="E" d="M147.97 198.14l-19.69-11.37-.49.29 19.69 11.36.49-.28z"/><path id="F" d="M188.33 221.44l-19.69-11.36-.48.28 19.68 11.36.49-.28z"/><path id="G" d="M168.15 209.79l-19.69-11.36-.49.28 19.69 11.36.49-.28z"/><path id="H" d="M206.71 210.83l-19.68-11.37-.49.29 19.68 11.36.49-.28z"/><path id="I" d="M186.53 199.18l-19.68-11.37-.49.28 19.68 11.37.49-.28z"/><path id="J" d="M104.02 130.88l19.68 11.36.49-.28-19.68-11.37-.49.29z"/><path id="K" d="M204.91 188.56l-19.68-11.36-.49.28 19.69 11.36.48-.28z"/><path id="L" d="M83.84 119.22l19.68 11.37.49-.28-19.68-11.37-.49.28z"/><path id="M" d="M225.09 200.21l-19.68-11.36-.49.28 19.68 11.37.49-.29z"/><path id="N" d="M102.22 108.61l19.69 11.37.48-.29-19.68-11.36-.49.28z"/><path id="O" d="M160.97 121.3l19.68 11.36.49-.28-19.69-11.36-.48.28z"/><path id="P" d="M117.99 118.19h40.63v9.94h-40.63z"/><path id="Q" d="M262.16 162.31s4.67 4.19 13.15 3.27c0 0-8.26 1.97-13.15-3.27z"/></defs><g fill="#c7ddfb"><path d="M55.4 192.4a.59.59 0 0 1-.26-.07L.26 160.62a.51.51 0 0 1-.26-.45.54.54 0 0 1 .26-.45L23 146.63a.5.5 0 0 1 .7.19.51.51 0 0 1-.19.7l-22 12.65 53.89 31.11 66.18-38.45a.52.52 0 0 1 .51.9l-66.43 38.6a.59.59 0 0 1-.26.07z"/><path d="M47.69 187.79a6.6 6.6 0 0 1-6 0c-1.66-1-1.67-2.5 0-3.46a6.62 6.62 0 0 1 6 0c1.64.96 1.65 2.51 0 3.46zM27.22 149.4a9.35 9.35 0 0 1-8.48 0c-2.35-1.36-2.36-3.55 0-4.9a9.38 9.38 0 0 1 8.48 0c2.32 1.36 2.33 3.56 0 4.9zm155.15 136.38a6.65 6.65 0 0 1-6 0c-1.65-1-1.66-2.51 0-3.46a6.6 6.6 0 0 1 6 0c1.63.96 1.63 2.51 0 3.46zM47.7 274.15a6.65 6.65 0 0 1-6 0c-1.66-1-1.67-2.51 0-3.46a6.62 6.62 0 0 1 6 0c1.64.96 1.64 2.5 0 3.46zM96.91 213a9.35 9.35 0 0 1-8.48 0c-2.35-1.35-2.36-3.54 0-4.89a9.38 9.38 0 0 1 8.48 0c2.32 1.31 2.33 3.5 0 4.89z"/><path d="M146.65 303.92a.48.48 0 0 1-.26-.07l-62-35.52-24 13.74a.52.52 0 0 1-.51 0L15.08 256a.51.51 0 0 1 0-.89l77.34-45.2a.52.52 0 0 1 .71.19.51.51 0 0 1-.18.7l-76.59 44.78L60.11 281l24-13.75a.52.52 0 0 1 .51 0l62 35.53 65.93-38.7-26.9-15.84a.5.5 0 0 1-.18-.7.51.51 0 0 1 .7-.19l27.66 16.29a.51.51 0 0 1 0 .89l-67 39.29a.48.48 0 0 1-.18.1zm140.96-51.77a6.65 6.65 0 0 1-6 0c-1.66-1-1.66-2.51 0-3.46a6.62 6.62 0 0 1 6 0c1.64.96 1.65 2.51 0 3.46zm-64.83-55.38a6.6 6.6 0 0 1-6 0c-1.66-1-1.67-2.5 0-3.46a6.6 6.6 0 0 1 6 0c1.64.96 1.65 2.51 0 3.46zm117.71-6.9a9.35 9.35 0 0 1-8.48 0c-2.35-1.35-2.36-3.55 0-4.89a9.38 9.38 0 0 1 8.48 0c2.33 1.35 2.34 3.54 0 4.89z"/><path d="M266.82 261.09a.48.48 0 0 1-.26-.07l-30.4-17.71a.52.52 0 0 1 0-.89l32.22-18.69-82.48-47.53a.52.52 0 0 1-.26-.45.51.51 0 0 1 .26-.45L237 146a.52.52 0 0 1 .71.2.51.51 0 0 1-.19.7l-50.32 28.85 82.47 47.53a.52.52 0 0 1 .26.45.54.54 0 0 1-.26.45l-32.22 18.68L266.82 260l96.93-56-28.22-15.95a.53.53 0 0 1-.19-.71.51.51 0 0 1 .7-.19l29 16.4a.51.51 0 0 1 .26.45.52.52 0 0 1-.26.45l-98 56.57a.58.58 0 0 1-.22.07zm61.76-220.52a9.35 9.35 0 0 1-8.48 0c-2.35-1.35-2.37-3.55 0-4.89a9.38 9.38 0 0 1 8.48 0c2.32 1.32 2.33 3.54 0 4.89z"/><path d="M309.89 96.74a.5.5 0 0 1-.44-.26.51.51 0 0 1 .18-.7L334.9 81l-43.39-24a.51.51 0 0 1-.26-.45.52.52 0 0 1 .26-.45l32.57-18.41a.52.52 0 0 1 .71.19.51.51 0 0 1-.2.7l-31.77 18 43.38 24a.52.52 0 0 1 0 .9l-26 15.23a.54.54 0 0 1-.31.03zM107.26 33.31a9.38 9.38 0 0 0 8.48 0c2.35-1.36 2.36-3.55 0-4.9a9.38 9.38 0 0 0-8.48 0c-2.32 1.36-2.33 3.59 0 4.9z"/><path d="M111.78 31.26a.52.52 0 0 1-.27-.07L68.6 5.86a.53.53 0 0 1-.18-.71.51.51 0 0 1 .71-.15L112 30.3a.52.52 0 0 1 .18.71.52.52 0 0 1-.4.25zM56.06 62.81a6.65 6.65 0 0 1-6 0c-1.66-1-1.67-2.51 0-3.46a6.62 6.62 0 0 1 6 0c1.63.96 1.64 2.51 0 3.46z"/><path d="M45.61 81.77a.59.59 0 0 1-.26-.07L32 73.87a.53.53 0 0 1-.25-.45A.5.5 0 0 1 32 73l42.31-24.89L54.77 37a.51.51 0 0 1-.2-.7.52.52 0 0 1 .71-.2L75.6 47.66a.51.51 0 0 1 0 .89L33.25 73.42l12.62 7.38a.52.52 0 0 1 .19.71.54.54 0 0 1-.45.26zm210.84-28.9a6.63 6.63 0 0 1-6 0c-1.66-1-1.67-2.51 0-3.46a6.6 6.6 0 0 1 6 0c1.64.96 1.65 2.51 0 3.46zM220.73 5.92a9.35 9.35 0 0 1-8.48 0c-2.35-1.35-2.36-3.55 0-4.89a9.38 9.38 0 0 1 8.48 0c2.32 1.35 2.34 3.54 0 4.89z"/><path d="M232.45 63.88a.52.52 0 0 1-.26-1l43.17-25.4-58.93-33.64a.5.5 0 0 1-.19-.7.51.51 0 0 1 .7-.19l59.71 34.12a.52.52 0 0 1 0 .89l-44 25.85a.48.48 0 0 1-.2.07z"/></g><path d="M261.07 112.25c-47.45-27.4-124.15-27.54-171.31-.31s-46.92 71.51.53 98.91 124.16 27.53 171.32.31 46.92-71.52-.54-98.91zM284.7 98.6c-60.59-35-158.51-35.15-218.72-.39s-59.91 91.3.68 126.28 158.52 35.16 218.73.39 59.9-91.3-.69-126.28zM71.55 221.67c-57.88-33.42-58.17-87.42-.66-120.62s151.05-33 208.93.37 58.16 87.42.65 120.63-151.05 33.03-208.92-.38z" fill="#dfebff"/><g fill="#c7ddfb"><ellipse cx="271.15" cy="172.33" rx="22.77" ry="39.44" transform="matrix(.00541 -.999985 .999985 .00541 97.35 442.54)"/><ellipse cx="148.19" cy="254.86" rx="11.06" ry="19.15" transform="matrix(.00541 -.999985 .999985 .00541 -107.48 401.66)"/></g><g opacity=".1" fill="#fff"><path d="M257.81 112l17 9.79-2.63-2.08-13.84-8zm0-.58l-9.69-5.59-3.57-1.5 12.77 7.37zM111.2 219.37L91.52 208l-.49.28 19.68 11.37.49-.28zm-41.12-23.74l.56.55.2-.12zm41.13 24.3l3 1.72 2.23.73-4.71-2.73zM91 207.71l-19.66-11.36-.34.19.42.42 19.11 11zm58.76 12.69l-19.68-11.36-.49.28 19.69 11.37.48-.29z"/><use href="#B"/><path d="M149.77 221l17.87 10.32h1.06l-18.44-10.64zm-60.54-34.98l19.69 11.36.48-.28-19.68-11.36-.49.28zM69 173.8l-14.41-8.32.06.6 13.86 8z"/><use href="#C"/><use href="#D"/><path d="M188.34 222l13.66 7.88.8-.1-14-8.05zM67.25 151.53l-9.93-5.73-.18.46 9.62 5.56z"/><use href="#E"/><use href="#F"/><path d="M107.61 175.41l19.69 11.36.49-.28-19.69-11.37-.49.29z"/><use href="#D" x="-20.18" y="-11.65"/><use href="#G"/><use href="#H"/><use href="#B" x="16.59" y="-32.88"/><path d="M85.63,140.92l-18.7-10.8-.32.38,18.53,10.7Z"/><use href="#I"/><use href="#B" x="36.77" y="-21.23"/><use href="#I" x="-20.18" y="-11.65"/><path d="M226.9 223.05l2.37 1.37.66-.19-2.54-1.47zM126 164.79l19.68 11.37.49-.29-19.69-11.36-.48.28z"/><use href="#H" x="20.18" y="11.65"/><use href="#J"/><use href="#B" x="55.15" y="-31.84"/><use href="#B" x="75.33" y="-20.19"/><path d="M245.28,212.43l6.48,3.74.55-.24-6.54-3.78Z"/><use href="#K"/><path d="M245.27 211.87l-19.68-11.37-.49.28 19.69 11.37.48-.28z"/><use href="#L"/><path d="M83.83,118.66l-2.49-1.44-.44.31,2.44,1.41Z"/><use href="#M"/><use href="#K" x="-20.18" y="-11.65"/><path d="M263.66,201.82l6.49,3.74.43-.31-6.43-3.71Z"/><use href="#E" x="55.15" y="-31.84"/><use href="#G" x="55.15" y="-31.84"/><use href="#G" x="75.33" y="-20.19"/><path d="M102.21,108l-2.37-1.37-.55.25,2.44,1.4Z"/><use href="#N"/><use href="#N" x="20.18" y="11.65"/><use href="#F" x="75.33" y="-20.19"/><use href="#D" x="75.33" y="-20.19"/><path d="M142.58 131.91l19.69 11.37.48-.28-19.68-11.37-.49.28z"/><use href="#H" x="75.33" y="-20.19"/><use href="#O"/><use href="#O" x="-20.18" y="-11.65"/><use href="#O" x="20.18" y="11.65"/><path d="M282.05 191.21l2.4 1.38.31-.38-2.22-1.29zm-40.37-23.87L222 155.97l-.49.28 19.68 11.37.49-.28z"/><use href="#I" x="75.33" y="-20.19"/><path d="M140.78 109.08l-18.35-10.59-.65.18 18.51 10.69zm80.72 46.61l-19.69-11.37-.48.28 19.68 11.37.49-.28zm-62.34-57.22l-9.28-5.36-.8.1 9.59 5.54z"/><use href="#J" x="75.33" y="-20.19"/><use href="#L" x="75.33" y="-20.19"/><use href="#M" x="55.15" y="-31.84"/><path d="M260.06 156.72l-19.68-11.36-.49.28L259.57 157l.49-.28z"/><use href="#C" x="110.3" y="-63.68"/><path d="M280.25 168.94l13.67 7.89.16-.47-13.34-7.7z"/><use href="#B" x="130.48" y="-52.03"/><use href="#D" x="130.48" y="-52.03"/><use href="#E" x="130.48" y="-52.03"/><use href="#D" x="110.3" y="-63.68"/><path d="M197.72 99.5l-13.26-7.65h-1.05l13.83 8z"/><use href="#E" x="110.3" y="-63.68"/><path d="M278.45 146.68L296.36 157c0-.2-.06-.4-.08-.61l-17.34-10zM84.33 118.94l17.89-10.33.49-.28 14.21-8.2-2.23.71-12.48 7.16-.48.28-17.9 10.34-.49.28-13 7.5-1.27 1.31 14.76-8.53zm-16.59 32.88l17.9-10.33.48-.28L104 130.88l.49-.29 17.89-10.33.49-.28 17.9-10.33.48-.28L159.17 99l.49-.28L172 91.64h-1l-11.8 6.81-.49.28-17.89 10.33-.49.28-17.9 10.33-.48.29L104 130.31l-.49.28-17.88 10.33-.49.28-17.89 10.33-.49.29-12.31 7.1v.59l12.83-7.41zm1.8 22.27l17.89-10.34.49-.28 17.9-10.33.49-.28 17.89-10.33.49-.29 17.89-10.33.49-.28L161 121.3l.48-.28 17.9-10.33.49-.29 17.89-10.33.49-.28 9.58-5.53-.78-.13-9.3 5.37-.48.29-17.9 10.33-.49.28L161 120.73l-.49.28-17.89 10.33-.49.29L124.19 142l-.49.28-17.89 10.33-.49.28-17.89 10.3-.49.28L69 173.8l-.49.28-9.81 5.67.22.44 10.09-5.82zM89.23 186l.49-.28 17.89-10.34.49-.28 17.9-10.31.49-.28 17.89-10.33.49-.28 17.89-10.34.49-.28 17.9-10.28.48-.28 17.9-10.33.49-.28 17.89-10.34.49-.28 17.74-10.24-.64-.2-17.6 10.16-.48.28-17.9 10.33-.49.28-17.89 10.33-.49.28L162.76 143l-.49.28-17.9 10.33-.49.28L126 164.22l-.49.28-17.89 10.34-.49.28-17.9 10.33-.49.28-17.9 10.33-.2.12.36.36.34-.19zm168.58-74.58l-.49.28-19.23 11.11-.49.28-17.9 10.33-.49.28-17.89 10.3-.49.29-17.89 10.33-.49.28-17.9 10.33-.49.28-17.89 10.33-.49.29-17.89 10.33-.49.28-17.9 10.36-.48.28L91 207.71l-.49.29-2.63 1.52.48.29 2.64-1.53.49-.28 17.89-10.33.49-.28 17.89-10.33.49-.29 17.9-10.33.49-.28 17.89-10.33.49-.28 17.89-10.33.49-.29 17.9-10.33.49-.28L219.71 134l.49-.28 17.89-10.34.49-.28 19.23-11.1.49-.28.8-.46-.51-.28zm-.03 23.32l-17.9 10.33-.49.28-17.89 10.33-.5.32-17.88 10.3-.49.28-17.9 10.33-.49.28-17.89 10.34-.49.28L148 198.14l-.49.28-17.9 10.33-.48.28-17.9 10.34-.49.28-.79.46.61.22.68-.4.49-.28 17.89-10.33.49-.28L148 198.71l.49-.28 17.9-10.34.49-.28 17.89-10.33.49-.28 17.89-10.33.49-.29 17.9-10.33.46-.25 17.89-10.33.49-.28L258.27 135l.49-.29L277.35 124l-.39-.35-18.69 10.8z"/><path d="M278 146.39l-17.9 10.33-.49.28-17.89 10.34-.49.28L223.3 178l-.49.28-17.9 10.33-.49.28-17.89 10.34-.49.28-17.89 10.33-.49.28-17.9 10.33-.48.29-12.21 7 .75.14 12-6.9.49-.28 17.89-10.33.49-.28 17.9-10.34.49-.28 17.89-10.33.49-.28 17.89-10.33.49-.28 17.9-10.34.49-.28 17.89-10.33.49-.28 17.89-10.33.49-.29 11.48-6.62-.25-.43-11.72 6.77zm1.75 22.27L261.86 179l-.49.28-17.89 10.32-.49.28-17.9 10.33-.48.29-17.9 10.33-.49.28-17.89 10.33-.49.28-16.78 9.69h1l16.28-9.41.48-.28 17.9-10.33.49-.29 17.89-10.33.49-.28 17.89-10.33.49-.28 17.9-10.33.49-.29 17.89-10.33.49-.28 15.84-9.15v-.55l-16.31 9.41zm1.8 22.26l-17.89 10.33-.49.28-17.9 10.34-.48.28-17.9 10.33-.49.28-7.25 4.24 1.59-.35 6.16-3.55.49-.29 17.89-10.33.49-.28 17.89-10.33.49-.28 17.9-10.33.49-.29 5.69-3.28.63-.94-6.86 3.89z"/></g><path d="M162.46,81.11H114.12v48.41h0c0,3.59,2.37,7.19,7.13,9.93,9.46,5.46,24.76,5.49,34.16.06,4.77-2.75,7.1-6.37,7-10h0Z" fill="#ffa015"/><path d="M160.89 128.32V83.49h-45.2v45.26h0c0 3.39 2.19 6.79 6.67 9.38 8.86 5.11 23.19 5.14 32 .06 4.64-2.71 6.85-6.31 6.53-9.87z" fill="#46484f"/><ellipse cx="138.31" cy="127.68" rx="11.73" ry="20.32" transform="matrix(.00541 -.999985 .999985 .00541 9.88 265.29)" fill="#ffa015"/><use href="#P" fill="#f9a216"/><ellipse cx="138.31" cy="118.38" rx="11.73" ry="20.32" transform="matrix(.00541 -.999985 .999985 .00541 19.18 256.04)" fill="#ffc74a"/><ellipse cx="138.31" cy="114.06" rx="11.73" ry="20.32" transform="matrix(.00541 -.999985 .999985 .00541 23.5 251.75)" fill="#ffa015"/><use href="#P" y="-13.63" fill="#f9a216"/><ellipse cx="138.31" cy="104.76" rx="11.73" ry="20.32" transform="matrix(.00541 -.999985 .999985 .00541 32.8 242.5)" fill="#ffc74a"/><ellipse cx="138.31" cy="99.74" rx="11.73" ry="20.32" transform="matrix(.00541 -.999985 .999985 .00541 37.82 237.5)" fill="#ffa015"/><use href="#P" y="-27.95" fill="#f9a216"/><path d="M152.72 98.76c-7.91 4.57-20.78 4.55-28.74-.05s-8-12-.09-16.6 20.78-4.54 28.74.06 8.01 12.02.09 16.59z" fill="#ffc74a"/><path d="M145.44,142.53a30.35,30.35,0,0,0,9.84-3.43c4.76-2.75,7.09-6.37,7-10h0V80.7H145.44s-31.06,2.52-31.06,5.66c2.21,7.44,9.17,10.42,15.83,12.12a41.23,41.23,0,0,0,15.23.71Z" style="mix-blend-mode:multiply" fill="#c16d48" opacity=".4"/><g fill="#fff"><path d="M120.76 139.15h0l.48.29c5.15 3 12 4.33 18.74 4.08v-52.1h-19.22z" style="mix-blend-mode:screen" opacity=".3"/><path d="M128.94,135.72a12.72,12.72,0,0,1-5.46-2.18V90.65h5.46Z" style="mix-blend-mode:screen" opacity=".4"/></g><path d="M162.46 83.73V68.65h-48.34v15.63h0c0 3.59 2.37 7.19 7.14 9.94 9.47 5.48 24.79 5.5 34.21.07 5.01-2.9 7.34-6.75 6.99-10.56z" fill="#393b42"/><g transform="matrix(.00541 -.999985 .999985 .00541 69.72 205.77)"><ellipse cx="138.31" cy="67.83" rx="13.97" ry="24.19" fill="#46484f"/><ellipse cx="138.31" cy="67.83" rx="10.75" ry="18.62" fill="#b0b7c9"/></g><path d="M155.47 77.06c-9.42 5.44-24.74 5.41-34.21-.06-4.61-2.66-7-6.12-7.13-9.59-.15 3.7 2.22 7.44 7.13 10.27 9.47 5.47 24.79 5.5 34.21.06 4.83-2.79 7.17-6.49 7-10.16-.13 3.42-2.47 6.86-7 9.48z" fill="#7c8189"/><path d="M147.41 73.05c-5 2.88-13.12 2.86-18.15 0s-5-7.59-.06-10.48 13.13-2.87 18.15 0 5.06 7.59.06 10.48z" fill="#868b9b"/><path d="M147.41 71.91c-5 2.88-13.12 2.87-18.15 0s-5-7.6-.06-10.48 13.13-2.87 18.15 0 5.06 7.57.06 10.48z" fill="#cad1e3"/><path d="M143.63 66.37h0a2 2 0 0 0-.09-.33l-.62-2.28h0a2.52 2.52 0 0 0-1.33-1.59 7.27 7.27 0 0 0-6.58 0 2.54 2.54 0 0 0-1.28 1.43h0l-.69 2.5h0c-.3 1 .19 2 1.49 2.74a8.33 8.33 0 0 0 7.56 0 2.47 2.47 0 0 0 1.54-2.47z" fill="#9599a6"/><path d="M141.61 66a7.27 7.27 0 0 1-6.61 0c-1.82-1-1.83-2.75 0-3.79a7.27 7.27 0 0 1 6.58 0c1.83 1.01 1.84 2.71.03 3.79z" fill="#b0b7c9"/><path d="M125.1 61c7.25-4.19 19-4.17 26.34 0 3.49 2 5.31 4.63 5.47 7.26.2-2.9-1.62-5.85-5.47-8.07-7.3-4.22-19.09-4.24-26.34 0-3.78 2.18-5.58 5.08-5.4 7.95.18-2.58 1.98-5.14 5.4-7.14z" fill="#868b9b"/><path d="M140.05 63.32a5.88 5.88 0 0 1-4 .71c-1.38-.23-1.84-.92-1-1.54a5.84 5.84 0 0 1 4-.72c1.35.23 1.81.92 1 1.55z" fill="#dae2f2"/><path d="M134 65.67s-.59 1.41-.36 1.86a4.39 4.39 0 0 0 3.27 1.68c2.32.27 3.82-.2 4-.59a7.06 7.06 0 0 0-.23-1.91c-1.8.91-5.46.36-6.68-1.04z" fill="#b0b7c9"/><path d="M141.59 62.17a7.38 7.38 0 0 0-6-.3 7.41 7.41 0 0 1 5.69.4c1.82 1 1.83 2.75 0 3.8a4.92 4.92 0 0 1-.61.29 5.56 5.56 0 0 0 .89-.39c1.86-1.05 1.85-2.75.03-3.8z" fill="#9599a6"/><path d="M147.41 71.5c-5 2.88-13.12 2.87-18.15 0-2.43-1.41-3.68-3.23-3.77-5.06-.09 2 1.16 4 3.77 5.47 5 2.9 13.15 2.91 18.15 0 2.58-1.49 3.81-3.47 3.71-5.42-.12 1.82-1.31 3.62-3.71 5.01z" fill="#dae2f2"/><path d="M121.26 77.68l-.5-.3v16.54l.5.3c5.14 3 12 4.34 18.73 4.09V81.77c-6.71.23-13.59-1.12-18.73-4.09z" fill="#46484f"/><path d="M141.79 63.28h0c.1 0 .13.13.13.28 0 .77-.61 1.77-1.45 1.77s.21-1.85 1.32-2.05z" fill="#cad1e3"/><g fill="#fff"><path d="M137.99 85.96h.64v6.99h-.64z"/><path d="M141.81 89.14v.64h-6.99v-.64z"/></g><g fill="#393b42"><path d="M141.8 133.6v.64h-6.99v-.64z"/><path d="M162.46 83.73V68.65h0c-.29 3.31-2.61 6.57-7 9.09a30.85 30.85 0 0 1-10 3.47v16.54a30.84 30.84 0 0 0 10-3.46c5.02-2.9 7.35-6.75 7-10.56z" style="mix-blend-mode:multiply" opacity=".2"/></g><path d="M278.35 176a12.38 12.38 0 0 1-11.2 0c-3.1-1.79-3.12-4.69 0-6.47a12.36 12.36 0 0 1 11.19 0c3.07 1.8 3.09 4.7.01 6.47z" fill="#656d7c"/><ellipse cx="272.73" cy="136.91" rx="10" ry="17.33" transform="matrix(.00541 -.999985 .999985 .00541 134.35 408.89)" style="mix-blend-mode:multiply" opacity=".3" fill="#6aaed3"/><path d="M285,155.24H260.42l.76,14.26v.17h0c.07,1.66,1.19,3.31,3.39,4.58,4.53,2.62,11.85,2.63,16.35,0,2.28-1.31,3.39-3,3.36-4.77Z" fill="#888f9e"/><path d="M263.52 160.56c-.2-.12-1.61 12.94 4.31 14s5.56-11.7 5.56-11.7-5.7.26-9.87-2.3z" fill="#b8becc"/><path d="M281.3 159.29c-4.7 2.71-12.35 2.7-17.08 0s-4.75-7.15-.05-9.86 12.34-2.7 17.07 0 4.76 7.14.06 9.86z" fill="#a58991"/><path d="M281.33 163.45c-4.72 2.73-12.39 2.71-17.14 0-2.16-1.25-3.33-2.84-3.54-4.47-.25 2 .92 4 3.54 5.51 4.75 2.74 12.42 2.75 17.14 0 2.57-1.49 3.72-3.48 3.48-5.43-.21 1.6-1.36 3.17-3.48 4.39zm-.15 4.01c-4.64 2.68-12.18 2.66-16.84 0-2.12-1.23-3.27-2.79-3.47-4.39-.26 1.93.9 3.92 3.47 5.41 4.66 2.69 12.2 2.7 16.84 0 2.52-1.46 3.65-3.42 3.42-5.33-.21 1.57-1.34 3.11-3.42 4.31z" fill="#656d7c"/><ellipse cx="272.73" cy="154.34" rx="6.56" ry="11.37" transform="matrix(.00541 -.999985 .999985 .00541 116.91 426.23)" fill="#866a72"/><path d="M263.3,158a9.33,9.33,0,0,0,1.42,1c4.45,2.57,11.65,2.58,16.08,0a9.62,9.62,0,0,0,1.36-1,6,6,0,0,0-2.53-2.51,15.31,15.31,0,0,0-13.84,0A6,6,0,0,0,263.3,158Z" fill="#6d5159"/><path d="M281.05 171.47c-4.57 2.63-12 2.62-16.58 0-2.09-1.21-3.22-2.75-3.42-4.32-.25 1.9.89 3.86 3.42 5.32 4.59 2.65 12 2.66 16.58 0 2.48-1.44 3.6-3.36 3.36-5.25-.2 1.55-1.32 3.07-3.36 4.25z" fill="#656d7c"/><path d="M285.22 83.16c-14-5-25.64-1.9-33.92 5.76l-.15.15c37.66-18.33 53.26 12.08 47.43 43.45 12.75-17.94 4.65-41.89-13.36-49.36z" opacity=".4" fill="#8cc2f2"/><g fill="#6d5159"><path d="M268 143.48a132 132 0 0 0-5.69-25.82l.52-.17a131.82 131.82 0 0 1 5.71 25.93zm9.35 0l-.54-.06a131.82 131.82 0 0 1 5.71-25.93l.52.17a132 132 0 0 0-5.69 25.82z"/><path d="M273.27 127.36c-.2 0-.67-.11-.67-1.16a7 7 0 0 1 1.74-3.87 1.37 1.37 0 0 0-1.16-.88 2 2 0 0 0-1.47.85 2.3 2.3 0 0 1 .23 1c0 .43-.12 1.16-.56 1.16s-.48-.29-.48-.74a2.92 2.92 0 0 1 .6-1.44 2.14 2.14 0 0 0-1.56-1.14 1.64 1.64 0 0 0-.76.23 2.3 2.3 0 0 1 .32 1.15c0 .4-.25 1.39-.72 1.39s-.76-.66-.76-1.14a1.78 1.78 0 0 1 .9-1.45 2.61 2.61 0 0 0-2.24-1 5.89 5.89 0 0 0-2.9.89l-.09-.15a6 6 0 0 1 3-.92 2.8 2.8 0 0 1 2.4 1.06 1.9 1.9 0 0 1 .86-.26 2.28 2.28 0 0 1 1.68 1.17 2.06 2.06 0 0 1 1.56-.86 1.48 1.48 0 0 1 1.27.92c.62-.72 1.21-1.21 1.49-1.21a.84.84 0 0 1 .74.63 5.89 5.89 0 0 1 3.95-1.37 2.65 2.65 0 0 1 1.33.21l-.13.13a2.64 2.64 0 0 0-1.2-.16 5.53 5.53 0 0 0-3.88 1.37 3 3 0 0 1 .1.7c0 .3 0 1.12-.6 1.12a.53.53 0 0 1-.46-.58 2.16 2.16 0 0 1 .75-1.28c-.12-.33-.31-.59-.6-.59s-.79.49-1.39 1.22a5.66 5.66 0 0 1 .47 2.15c-.03 1.49-1.03 2.85-1.76 2.85zm1.16-4.83a6.78 6.78 0 0 0-1.65 3.67 1.56 1.56 0 0 0 .15.77.39.39 0 0 0 .34.21c.6 0 1.56-1.21 1.56-2.65a5.53 5.53 0 0 0-.4-2zm-2.84-.06a2.61 2.61 0 0 0-.51 1.25c0 .09 0 .56.3.56s.38-.6.38-1a2.23 2.23 0 0 0-.17-.81zm-2.57-1a1.61 1.61 0 0 0-.82 1.3c0 .34.2 1 .58 1s.54-.82.54-1.21a2 2 0 0 0-.32-1.09zm7.58.47a2 2 0 0 0-.6 1.06c0 .26.16.4.28.4.29 0 .42-.29.42-.94a2.76 2.76 0 0 0-.1-.52zm1.3 37.37h-10.49a.16.16 0 0 1-.13-.08.16.16 0 0 1 0-.15 15.67 15.67 0 0 0 .87-5.83 24.68 24.68 0 0 1 .37-4.85 38 38 0 0 1-.52-5.13h0a.06.06 0 0 1 0 0h0a2.67 2.67 0 0 1 1.38-2.19 6.47 6.47 0 0 1 6.53 0 2.71 2.71 0 0 1 1.4 2.25h0a2.85 2.85 0 0 1 0 .29l-.53 4.75a48.81 48.81 0 0 1 .48 4.88c.08 1.58.84 5.83.85 5.87a.15.15 0 0 1 0 .14.14.14 0 0 1-.21.05zm-10.25-.31h10.05l-.82-5.72a47.57 47.57 0 0 0-.48-4.86v-.06l.54-4.77a2.29 2.29 0 0 0 0-.25h0a2.39 2.39 0 0 0-1.25-2 6.11 6.11 0 0 0-6.17 0 2.37 2.37 0 0 0-1.23 1.92.09.09 0 0 1 0 .05h0a37.79 37.79 0 0 0 .52 5.1.06.06 0 0 1 0 .06 24.52 24.52 0 0 0-.37 4.82 16.73 16.73 0 0 1-.79 5.71z"/><path d="M272.66 151.06a5.36 5.36 0 0 1-2.88-.78 2.47 2.47 0 0 1-1.22-1.85.15.15 0 0 1 .15-.17.17.17 0 0 1 .18.15A2.14 2.14 0 0 0 270 150a5.3 5.3 0 0 0 5.36 0 2 2 0 0 0 1.06-1.6c0-.09.09-.17.17-.15a.15.15 0 0 1 .16.17 2.39 2.39 0 0 1-1.21 1.86 5.28 5.28 0 0 1-2.88.78zm3.13-6.58a.15.15 0 0 1-.13-.07.17.17 0 0 1 0-.23 2.52 2.52 0 0 0 1.17-1.53.165.165 0 1 1 .32.08 2.85 2.85 0 0 1-1.31 1.73z"/><path d="M275.93 144.23a.16.16 0 0 0-.23 0 6.07 6.07 0 0 1-6.11 0 2.56 2.56 0 0 1-1.19-1.56.16.16 0 0 0-.2-.12.16.16 0 0 0-.13.19 2.87 2.87 0 0 0 1.34 1.76 6 6 0 0 0 3.25.89 6 6 0 0 0 3.22-.87.17.17 0 0 0 .05-.29z"/><path d="M268.23 142.81h0a.16.16 0 0 1-.11-.21 1.75 1.75 0 0 1 .12-.32.17.17 0 0 1 .22-.08.16.16 0 0 1 .08.22 2.33 2.33 0 0 0-.11.28.16.16 0 0 1-.2.11zm8.98 10.43a48.81 48.81 0 0 0-.48-4.88l.53-4.75a2.85 2.85 0 0 0 0-.29h0a2.71 2.71 0 0 0-1.4-2.25 6.43 6.43 0 0 0-4.3-.81 5.62 5.62 0 0 1 2.25.81 2.71 2.71 0 0 1 1.4 2.25h0a1.43 1.43 0 0 1 0 .29l-.52 4.75c-.24 1-2.18 2.25-5.82 1 3.33 2.9 6.06.82 6.08 1.06l.21 2.81c.08 1.58.85 5.83.85 5.87a.17.17 0 0 1 0 .14.16.16 0 0 1-.13.06h2a.14.14 0 0 0 .12-.06.15.15 0 0 0 0-.14l-.79-5.86zm-4.49-17.88a2.44 2.44 0 0 1-1.19-.29.89.89 0 0 1-.53-.75.88.88 0 0 1 .52-.75 2.61 2.61 0 0 1 2.37 0 .92.92 0 0 1 .53.76.91.91 0 0 1-.53.75 2.36 2.36 0 0 1-1.17.28zm0-1.83a2.13 2.13 0 0 0-1.06.25.67.67 0 0 0-.4.54.68.68 0 0 0 .41.54 2.36 2.36 0 0 0 2.12 0h0a.67.67 0 0 0 .4-.54.68.68 0 0 0-.4-.55 2.22 2.22 0 0 0-1.09-.24z"/><path d="M272.72 142.25a2.43 2.43 0 0 1-1.19-.28.87.87 0 0 1-.52-.81v-6.9h3.38V141a.82.82 0 0 1-.49 1 2.36 2.36 0 0 1-1.18.25zm-1.47-1.25h0v.15c0 .22.11.44.4.61a2.33 2.33 0 0 0 2.12 0c.33-.19.46-.44.37-.69v-6.56h-2.89z"/><path d="M274.29 134.41a3.52 3.52 0 0 1-3.16 0 1 1 0 0 1 0-1.82 3.52 3.52 0 0 1 3.16 0 1 1 0 0 1 0 1.82z"/><path d="M271.17 133.39a.06.06 0 0 1-.06 0 69.73 69.73 0 0 0-2.33-9.89.05.05 0 0 1 0-.07.06.06 0 0 1 .08 0 68.69 68.69 0 0 1 2.34 9.91.06.06 0 0 1-.05.07zm3.46-.23h0a.06.06 0 0 1-.05-.06c.71-4.27 1.33-7.49 2-10.45a.08.08 0 0 1 .07-.05.06.06 0 0 1 .05.07c-.68 3-1.29 6.18-2 10.45a.07.07 0 0 1-.07.04z"/></g><path d="M304.8 113.33A34.61 34.61 0 0 1 289 141.5l.28-.32a72.26 72.26 0 0 0-3 8.64c-.23.83-.73 4.81-1.48 4.9l.29-.29c.18 5.68-8.06 7.5-12.33 7.49s-12.43-1.85-12.39-7.48l.3.28c-.78-.12-1.22-4.11-1.44-4.92a52 52 0 0 0-3.06-8.57l.29.33c-18.76-11.78-21.29-38.94-4.38-53.36a32.06 32.06 0 0 1 42.64 1.32c6.63 6.27 9.69 14.84 10.08 23.81z" opacity=".4" fill="#8cdef4"/><path d="M295.93 91.48a35.66 35.66 0 0 1-34.09 46.85 36.21 36.21 0 0 1-10.78-1.63 32 32 0 0 0 5.76 4.24l1.37 3.59h.8c11.73 0 21.25 4 21.25 8.87 0 3.28-4.26 6.14-10.6 7.68a18.68 18.68 0 0 0 11.66-1.78c2.32-1.34 3.48-3.1 3.5-4.86h.05a75.55 75.55 0 0 1 3.81-13.5 31.87 31.87 0 0 0 7.27-49.45z" style="mix-blend-mode:multiply" opacity=".4" fill="#6b9cd1"/><path d="M304.41 113.34c-.51-9-3.86-17.23-10.77-23.24a32.23 32.23 0 0 0-23.92-7.62c-17.18 1.61-30.51 17.42-28.31 34.73a30.62 30.62 0 0 0 13.09 21.51c1.39.93 2.72 1.49 3.47 3.07 1.78 3.73 2.39 8.55 2.93 12.59l-.28-.25c.35.05.24-.06.34.29a6.1 6.1 0 0 0 2.05 3.43c2.4 2 5.8 2.71 8.83 2.83 3.5.15 7.57-.41 10.43-2.62a6 6 0 0 0 2.24-3.63c.08-.32 0-.26.34-.3l-.29.25a75.68 75.68 0 0 1 2-9c.39-1.37.65-3.54 1.59-4.7.73-.91 2.11-1.39 3.06-2a27 27 0 0 0 3.52-2.8c6.33-5.99 9.37-14.03 9.68-22.54zm.39 0a34 34 0 0 1-10.8 24.3c-1.71 1.58-4.39 2.62-5.35 4.78a56.15 56.15 0 0 0-2.53 7.82c-.23.85-.57 4.34-1.36 4.48l.29-.29c.18 5.68-8.06 7.5-12.33 7.49s-12.43-1.85-12.39-7.48l.3.28c-.79-.1-2.15-7.41-2.58-8.67-.9-2.66-1.62-4.43-3.83-6.12-6-4.6-10.46-10.41-12.51-17.84a33.43 33.43 0 0 1 5.39-28.59 32 32 0 0 1 45.63-5.72c7.86 6.35 11.64 15.64 12.07 25.55z" fill="#788da3"/><g fill="#fff"><path d="M289 138.09s3-4.53 5.8-8.24c3.61-4.76 7.11-9.87 7.55-9.79s-1.54 6.45-4.92 11.26-8.18 8.04-8.43 6.77z" opacity=".5"/><path d="M256.65 138.09s-3-4.53-5.8-8.24c-3.61-4.76-7.11-9.87-7.55-9.79s1.54 6.45 4.92 11.26 8.19 8.04 8.43 6.77z" opacity=".6"/></g><g fill="#979fad"><use href="#Q"/><use href="#Q" y="3.97"/><path d="M262.16 170.25s4.67 4.2 13.15 3.27c0 0-8.26 1.97-13.15-3.27z"/></g><g fill="#888f9e"><path d="M284.7 156.42a6.21 6.21 0 0 1-1.11 1.68 8.63 8.63 0 0 1-1.53 1.3l-.4.26c-.15.1-.29.16-.44.25a7.48 7.48 0 0 1-.87.45l-.9.39-.85.3-.5 9.44c0 1.74-1.06 3.34-3.32 4.39a13.16 13.16 0 0 1-4.92 1.12 17.77 17.77 0 0 0 11.07-1.72c2.28-1.31 3.39-3 3.36-4.77l.75-14.24a4.93 4.93 0 0 1-.34 1.15z" style="mix-blend-mode:multiply" opacity=".5"/><path d="M284.7 156.42a6.21 6.21 0 0 1-1.11 1.68 8.63 8.63 0 0 1-1.53 1.3l-.4.26c-.15.1-.29.16-.44.25a7.48 7.48 0 0 1-.87.45l-.9.39-.93.33-1.89.46c-.32.08-.64.11-1 .16l-1 .12c-.65.07-1.29.09-1.94.1s-1.3 0-1.95-.11q-.48 0-1-.12l-1-.17c-.64-.12-1.27-.29-1.9-.47l-.92-.33c-.31-.11-.61-.26-.91-.4l-.86-.44-.43-.25-.41-.27a8.46 8.46 0 0 1-1.52-1.28 5.79 5.79 0 0 1-.5-.61c1.06 1.94 3.72 4.4 10.37 4.74 6.89.36 11-2.14 13.08-4.11l.12-2.32h-.08a5 5 0 0 1-.08.64z" style="mix-blend-mode:multiply" opacity=".5"/></g><path d="M264 159.19a14.09 14.09 0 0 0 10.43 2.2s-6.28-.39-10.43-2.2z" fill="#8cadba"/><g fill="#fff"><path d="M245.34 106.83c0-12.35 9.68-22.45 23.27-22.45 8.74 0 11.89 5.45 11.89 14.43 0 16.77-14.09 25.4-22.3 25.4-7.54 0-12.86-9.52-12.86-17.38z" opacity=".6"/><path d="M259.53 87.93c4.39 0 5.89 3.91 5.89 6.49 0 3.58-3 10.06-11.5 10.63-7.09 0-4.75-17.12 5.61-17.12z"/></g><ellipse cx="148.46" cy="252.09" rx="5.84" ry="10.11" transform="matrix(.01 -1 1 .01 -104.43 399.19)" style="mix-blend-mode:multiply" fill="#226fa5" opacity=".15"/><path d="M124.38 138.31l17.67-10.17 10.85 6.31-8.24 41.51 19.77-16.36 7.14 4.07-23.22 73.73-.09-.06.54-53.3-9.9 20.43-6.35-3.61-8.17-62.55z" fill="#f9a216"/><path d="M124.47 138.25l13.76 8.05 14.08-8.85.59-3-10.85-6.31-17.58 10.11z" fill="#ffb92c"/><path d="M153.25 181.01l9.25-5.63-10.23-5.91-7.82 6.47 8.8 5.07zm2.42 29.83l2.16-18.38-9.06-5.23-.2 19.52 7.1 4.09zm-16.13-26.26l-9.86-5.7 2.87 21.97.89.52 5.46 3.1 1.72-3.55-1.08-16.34zm-11.34-17.01l10.4 6-1.06-12.09-10.96-6.34 1.62 12.43zm36.23-7.97l-5.66 4.68 10.67 6.17 2.13-6.78-7.14-4.07z" fill="#f78c19"/><path d="M135.23 144.61l17.67-10.16-2.23 45.15 20.9-15.93-23.08 73.65-.14.08 6.13-44.93-15.58 12-3.67-59.86z" fill="#ffd13e"/><path d="M125.58 147.49l11.26 6.51-.45-8.71-12.01-6.94 1.2 9.14z" fill="#f78c19"/><path d="M142.05 128.14l-17.59 10.11 10.77 6.36 17.67-10.16s-15.1 7.91-17.46 7.82-8-3.64-7.55-4.46 14.16-9.67 14.16-9.67z" fill="#ffe878"/><path d="M136.33 143.98l-1.1.63 3.67 59.86-2.57-60.49zm19.24 47.64l-1.2.93-6.02 44.85.14-.08 7.08-45.7zm-4.85-12.06l-.05 1.13 20.9-17.02-20.85 15.89z" fill="#fff0b0"/><g style="mix-blend-mode:screen" opacity=".3" fill="#fff"><path d="M136.73 169.13l15.8-27.25.37-7.43-9.54 5.49-7.61 13.12.98 16.07zm11.62 68.27l.14-.08 8.82-28.15-6.68 11.52-2.28 16.71zm-9.45-32.93l15.58-12-.36 2.66 16.54-28.54.91-2.92-20.9 15.93 1.11-22.49-14.28 24.62 1.4 22.74z"/></g><g style="mix-blend-mode:overlay" opacity=".2"><path d="M124.38 138.31l17.67-10.17 10.85 6.31-1.79 36.18 13.32-11.03 7.14 4.07-23.22 73.73-.09-.06.41-40.39-9.77 7.52-6.35-3.61-8.17-62.55z" fill="url(#A)"/></g></svg>