<svg xmlns="http://www.w3.org/2000/svg" width="168" height="225" fill="none" xmlns:v="https://vecta.io/nano"><style><![CDATA[.B{fill:#fff}.C{fill-rule:evenodd}.D{fill:#ed052f}.E{fill:#3a559e}.F{fill:#000}.G{opacity:.2}.H{fill:#20397d}.I{opacity:.5}.J{opacity:.15}.K{fill:#cdd8fa}.L{fill:#101d42}]]></style><rect x="1.067" width="166.83" height="224.757" rx="12.744" fill="url(#B)"/><path d="M21.57 41.234c0 .703.196 1.216.589 1.538.398.328 1.022.498 1.872.51v-4.447h-.158c-1.535 0-2.303.8-2.303 2.399zM25.007 47c-1.195 0-2.115-.053-2.76-.158-.709-.1-1.274-.267-1.696-.501-.914-.486-1.614-1.122-2.101-1.907-.486-.791-.729-1.857-.729-3.199 0-1.242.243-2.265.729-3.067.481-.791 1.181-1.427 2.101-1.907.469-.234 1.031-.404 1.688-.51.633-.105 1.462-.158 2.487-.158h3.067v7.647h1.872V47h-4.658zm-2.452-15.504a1.8 1.8 0 0 0-1.31-.536 1.81 1.81 0 0 0-1.318.536c-.363.369-.545.809-.545 1.318 0 .516.182.952.545 1.31a1.76 1.76 0 0 0 1.318.554 1.77 1.77 0 0 0 1.31-.554c.363-.357.545-.794.545-1.309 0-.51-.182-.949-.545-1.318zm4.755 0a1.83 1.83 0 0 0-1.318-.536 1.8 1.8 0 0 0-1.31.536c-.363.369-.545.809-.545 1.318 0 .516.182.952.545 1.31a1.75 1.75 0 0 0 1.31.554 1.78 1.78 0 0 0 1.318-.554c.363-.357.545-.794.545-1.309 0-.51-.182-.949-.545-1.318zM28.944 47v-3.762h4.14c.738-.006 1.16-.196 1.266-.571.1-.217.149-.677.149-1.38v-4.245h3.788v5.994l-.026.782a4.3 4.3 0 0 1-.088.615 2.96 2.96 0 0 1-.158.501 2.86 2.86 0 0 1-.229.448 3.31 3.31 0 0 1-1.292 1.186c-.539.287-1.146.431-1.819.431h-5.73zm2.584 4.377c.516 0 .955-.182 1.318-.545a1.8 1.8 0 0 0 .536-1.309 1.81 1.81 0 0 0-.536-1.318c-.369-.363-.809-.545-1.318-.545-.516 0-.952.182-1.309.545-.363.363-.545.803-.545 1.318s.182.952.545 1.31c.357.363.794.545 1.31.545zm4.755 0c.51 0 .949-.182 1.318-.545a1.8 1.8 0 0 0 .536-1.309 1.81 1.81 0 0 0-.536-1.318c-.369-.363-.809-.545-1.318-.545-.516 0-.952.182-1.31.545a1.78 1.78 0 0 0-.554 1.318 1.75 1.75 0 0 0 .554 1.31c.358.363.794.545 1.31.545zm2.725-2.602c1.113-.223 1.737-.814 1.872-1.775l-.026-10.529 3.788-.009v6.776h1.872V47h-1.969c-.088 2.256-1.397 3.762-3.929 4.518l-1.608-2.742zm5.089-17.851c-.369-.363-.809-.545-1.318-.545s-.946.182-1.309.545-.545.803-.545 1.318.182.952.545 1.31c.357.363.794.545 1.31.545s.955-.182 1.318-.545.545-.8.545-1.309c0-.516-.182-.955-.545-1.318zm4.289 20.452c.516 0 .955-.182 1.318-.545a1.8 1.8 0 0 0 .536-1.309 1.81 1.81 0 0 0-.536-1.318c-.369-.363-.809-.545-1.318-.545-.516 0-.952.182-1.309.545-.363.363-.545.803-.545 1.318s.182.952.545 1.31c.357.363.794.545 1.31.545zm4.755 0c.51 0 .949-.182 1.318-.545a1.8 1.8 0 0 0 .536-1.309 1.81 1.81 0 0 0-.536-1.318c-.369-.363-.809-.545-1.318-.545-.516 0-.952.182-1.309.545a1.78 1.78 0 0 0-.554 1.318 1.75 1.75 0 0 0 .554 1.31c.357.363.794.545 1.31.545zM45.802 47v-3.762h4.14c.738-.006 1.16-.196 1.266-.571.1-.217.149-.677.149-1.38v-4.245h3.788v6.196h1.081V47H45.802zm16.172-11.276v7.515h1.081V47h-7.55v-3.762h1.257c.738-.006 1.163-.196 1.274-.571.094-.217.141-.677.141-1.38v-8.613h4.043v3.05h-.246zM69.19 48.16c-.369-.363-.809-.545-1.318-.545s-.946.182-1.31.545-.545.803-.545 1.318.182.952.545 1.31c.357.363.794.545 1.31.545s.955-.182 1.318-.545.545-.8.545-1.31-.182-.949-.545-1.318zM62.343 47v-3.762h7.822c.627-.686.941-1.406.941-2.162 0-.615-.193-1.116-.58-1.503-.375-.375-.879-.562-1.512-.562-.615 0-1.108.176-1.477.527-.293.275-.472.645-.536 1.107l-3.278-1.643a4.66 4.66 0 0 1 .422-1.02c.539-.949 1.219-1.658 2.039-2.127.814-.469 1.758-.703 2.83-.703.814 0 1.547.132 2.197.396a4.92 4.92 0 0 1 1.767 1.195c.533.521.929 1.125 1.187 1.81s.387 1.433.387 2.241c0 .832-.17 1.647-.51 2.443h1.617V47H62.343zm12.603 0v-3.762h1.046c.738-.006 1.16-.196 1.266-.571.094-.217.141-.677.141-1.38v-4.245h3.797v5.994l-.026.782-.088.615a2.97 2.97 0 0 1-.158.501 2.87 2.87 0 0 1-.229.448 3.31 3.31 0 0 1-1.292 1.186c-.539.287-1.145.431-1.819.431h-2.637zm5.555-14.634c-.363-.363-.8-.545-1.31-.545-.516 0-.955.182-1.318.545s-.545.8-.545 1.31c0 .521.182.961.545 1.318.358.363.797.545 1.318.545.51 0 .946-.182 1.31-.545s.545-.803.545-1.318c0-.51-.182-.946-.545-1.31zm13.983 3.357v7.515l-.026.58-.088.615a2.95 2.95 0 0 1-.158.501 2.87 2.87 0 0 1-.228.448 3.31 3.31 0 0 1-1.292 1.186c-.539.287-1.145.431-1.819.431h-2.848v-.009a5.93 5.93 0 0 1-1.978-.378c-.691-.27-1.298-.665-1.819-1.187-.527-.516-.926-1.108-1.195-1.775-.264-.65-.395-1.383-.395-2.197 0-1.066.234-2.01.703-2.83.457-.785 1.134-1.444 2.03-1.977l-1.107-2.382 3.41-1.582 2.637 5.669c-1.647.287-2.692.721-3.138 1.301-.451.58-.677 1.181-.677 1.802 0 .633.19 1.14.571 1.521.381.387.879.58 1.494.58l2.171-.009V32.674h3.946v3.05h-.193zM97.411 47V35.794h-.571v-3.12h4.069V47h-3.498zm12.419-5.766c0 .703.196 1.216.589 1.538.398.328 1.022.498 1.872.51v-4.447h-.158c-1.535 0-2.303.8-2.303 2.399zM113.267 47c-1.196 0-2.116-.053-2.76-.158-.709-.1-1.275-.267-1.696-.501-.915-.486-1.615-1.122-2.101-1.907-.486-.791-.73-1.857-.73-3.199 0-1.242.244-2.265.73-3.067.48-.791 1.181-1.427 2.101-1.907.468-.234 1.031-.404 1.687-.51.633-.105 1.462-.158 2.487-.158h3.068v7.647h1.872V47h-4.658zm-2.453-15.504c-.363-.357-.799-.536-1.309-.536-.516 0-.955.179-1.318.536a1.81 1.81 0 0 0-.545 1.318c0 .516.181.952.545 1.31a1.76 1.76 0 0 0 1.318.554 1.77 1.77 0 0 0 1.309-.554c.364-.357.545-.794.545-1.309a1.81 1.81 0 0 0-.545-1.318zm4.755 0c-.369-.357-.808-.536-1.318-.536a1.8 1.8 0 0 0-1.31.536c-.363.369-.545.809-.545 1.318 0 .516.182.952.545 1.31.358.369.794.554 1.31.554a1.78 1.78 0 0 0 1.318-.554c.364-.357.545-.794.545-1.309a1.81 1.81 0 0 0-.545-1.318zm8.192 7.515c-.639 0-1.146.188-1.521.563-.386.387 0 1.605 1.16 3.656h1.785c1.154-2.051 1.541-3.27 1.16-3.656-.381-.375-.888-.562-1.521-.562h-1.063zM117.204 47v-3.762h2.672c-1.107-2.437-1.532-3.999-1.274-4.685s.653-1.289 1.186-1.81c.516-.533 1.108-.932 1.775-1.195.645-.264 1.377-.396 2.198-.396h.527.536c.821 0 1.553.132 2.197.396.668.264 1.257.662 1.767 1.195.533.521.929 1.125 1.187 1.81.263.686-.162 2.247-1.275 4.685h2.672V47h-14.168zm8.833-14.326a1.83 1.83 0 0 0-.536-1.318c-.369-.363-.809-.545-1.318-.545-.516 0-.953.182-1.31.545a1.78 1.78 0 0 0-.554 1.318c0 .516.185.952.554 1.31.357.363.794.545 1.31.545.509 0 .949-.182 1.318-.545a1.8 1.8 0 0 0 .536-1.31zm11.083 3.05v7.515h1.081V47h-7.55v-3.762h1.257c.738-.006 1.163-.196 1.275-.571.093-.217.14-.677.14-1.38v-8.613h4.043v3.05h-.246zm6.117-.017v7.33l-.035.782a5.37 5.37 0 0 1-.079.615 4.77 4.77 0 0 1-.158.501c-.082.182-.161.331-.237.448-.323.516-.75.911-1.284 1.186-.539.287-1.145.431-1.819.431h-2.136v-3.762h.536c.739-.006 1.163-.196 1.275-.571.094-.217.14-.677.14-1.38v-8.613h4.035v3.032h-.238zM146.208 47V35.794h-.571v-3.12h4.069V47h-3.498z" fill="#506fc2"/><g fill="#cdd8fc"><path d="M92.507 180.388c-12.811 1.369-17.919-7.451-29.879-10.023-9.302-2.005-18.945 3.188-27.634-3.106-9.148-6.634-7.314-18.973-9.685-24.135s-8.285-16.763-5.86-26.266c3.147-12.336 15.271-13.212 22.479-21.429S53.96 77.887 67.743 76.614c12.315-1.146 21.61 12.534 27.046 15.052s18.993-1.529 26.311 4.375c7.981 6.435 4.768 13.609 6.578 20.109 2.138 7.687 7.389 12.579 5.299 21.329-2.487 10.403-12.391 14.615-16.564 19.873-6.897 8.668-8.672 21.425-23.906 23.036z" class="C"/><path d="M141.22 156.999H25.78c-12.153 0-18.229 0-22.005 3.775S0 170.626 0 182.779v16.44c0 12.153 0 18.229 3.775 22.005s9.852 3.775 22.005 3.775h115.44c12.153 0 18.229 0 22.005-3.775S167 211.372 167 199.219v-16.44c0-12.153 0-18.229-3.775-22.005s-9.852-3.775-22.005-3.775z"/></g><g class="C"><path d="M112.906 170.13l9.921 6.205 3.808 2.395h-3.421-.055-.048l-.041.017-.034.021-.027.02-.021.021-.017.024v.027.031.034.099.035.034.017.034.017l.017.038v.02l.021.041.017.024.02.035.069.106.02.024.034.047v.018l.048.058.045.051.024.027.051.059.222.236.076.078h.017l.277.264a25.85 25.85 0 0 0 1.71 1.409h.096.017.017l.041.031.079.058.766.551.397.277 2.525 1.656 1.026.622.267.158h.024.02.295.023l2.819 1.611.041.02h.018.017l.03.018h.024.024.082.024.024.017l.031.017h.024.024l.062.034 1.009.53h.017.137.027l.075.041h.028c2.815 1.433 5.152 2.367 6.096 2.367h3.277l3.838 3.021H90.345c-4.502 0-14.077-3.684-21.275-8.186L46.058 170.13h66.848z" class="F G"/><path d="M16.576 170.81h58.659v16.376H16.576a8.21 8.21 0 0 1-8.179-8.204 8.21 8.21 0 0 1 8.179-8.172z" fill="#ff264e"/></g><mask id="A" maskUnits="userSpaceOnUse" x="8" y="170" width="68" height="18"><path d="M16.576 170.815h58.659v16.376H16.576a8.21 8.21 0 0 1-8.179-8.203 8.21 8.21 0 0 1 8.179-8.173z" class="B"/></mask><g mask="url(#A)" class="C"><path d="M5.318 169.894h48.868c-5.918 5.569-11.361 10.81-12.209 16.704a7.78 7.78 0 0 0-.082 1.259H5.318v-17.963z" class="H"/><path d="M16.645 187.857l-2.395-1.259c15.199-9.096 24.928-10.605 36.173-13.325 1.187-1.128 2.473-2.254 3.763-3.379h-5.764c-14.525.92-25.955 4.724-39.296 13.324l-3.794-2.737v7.362l11.313.014z" class="B"/><path d="M6.464 187.855l2.053-1.245v1.245H6.464zm4.468.004l-2.395-1.269 1.998-.913 3.965 2.182h-3.568zm-5.614-3.299l3.175 2.053-1.875.916-1.3-.807v-2.162z" class="D"/><path d="M54.111 169.911c-17.484 4.238-26.091 5.131-45.584 16.673l.281-2.015c17.649-10.656 26.341-12.093 41.92-14.675l3.383.017z" class="D"/><path d="M14.996 169.894h11.908c-6.917 1.669-13.4 5.131-11.351 11.319h28.442c-.91 1.796-1.738 3.565-2.018 5.385a9.15 9.15 0 0 0-.106 1.259H5.318v-10.564c1.615-3.558 4.478-6.736 9.678-7.399z" class="B"/><path d="M42.969 183.291a19.6 19.6 0 0 0-.965 4.567H5.318v-4.567h.281c.414-7.366 4.731-11.864 11.556-13.397h6.931c-8.635-.427-15.11 8.132-10.215 13.397h29.078.021z" class="D"/></g><g class="C"><path d="M42.322 170.81h57.185v2.394H42.671c-1.542 0-3.022.613-4.112 1.704s-1.703 2.569-1.703 4.112.613 3.021 1.703 4.112 2.57 1.703 4.112 1.703h56.835v2.395H42.322a8.21 8.21 0 0 1-8.186-8.186 8.21 8.21 0 0 1 .616-3.144 8.22 8.22 0 0 1 1.772-2.669 8.21 8.21 0 0 1 2.658-1.787 8.2 8.2 0 0 1 3.14-.634z" fill="#cf0228"/><path d="M42.671 173.179h53.558c-1.58 0-2.87 2.61-2.87 5.816 0 3.192 1.29 5.815 2.87 5.815H42.671c-1.542 0-3.022-.612-4.112-1.703s-1.703-2.57-1.703-4.112.613-3.022 1.703-4.112 2.57-1.704 4.112-1.704z" class="B"/><path d="M42.671 173.179h53.558c-.773 0-1.478.623-1.994 1.639H42.671c-1.397.002-2.746.507-3.802 1.422s-1.746 2.18-1.946 3.562c-.039-.271-.058-.544-.058-.817.003-1.539.615-3.014 1.703-4.102s2.563-1.701 4.102-1.704z" class="F J"/><path d="M93.636 176.502l-52.597-.116v-.045l52.683-.116c-.041.092-.065.185-.085.277zm-.157.827l-52.44-.116v-.045l52.484-.116-.044.277zm.233 4.431l-52.683-.117v-.044l52.604-.117.079.278zm.266.815l-52.939-.116v-.045l52.837-.116a2.63 2.63 0 0 0 .103.277zm-.585-2.689l-52.34-.116v-.045l52.34-.116c-.014.099-.007.185 0 .277z" class="K"/><path opacity=".3" d="M17.093 171.838h18.863c-1.548 1.247-2.614 2.993-3.014 4.94H10.364c.455-1.429 1.351-2.678 2.56-3.565a7.09 7.09 0 0 1 4.169-1.375z" class="B"/></g><path d="M30.94 102.678l-1.666.469 10.683 37.906 1.666-.47-10.683-37.905z" class="E"/><path d="M31.655 105.221L4 113.016l4.788 16.986 27.655-7.794-4.788-16.987z" class="H"/><g class="C"><path d="M32.138 106.937l-9.12 9.883 12.941 3.663.482 1.721-2.798.787-12.938-3.664-9.12 9.883-2.798.787-.482-1.717 9.117-9.883-12.938-3.668-.482-1.717 2.798-.79 12.938 3.667 9.12-9.883 2.798-.79.482 1.721z" class="B"/><g class="D"><path d="M36.414 122.203l-16.191-4.588.291 1.023 14.248 4.037 1.652-.472zM8.773 129.95l11.44-12.343-1.043-.209-10.684 11.529.287 1.023z"/><path d="M31.669 105.264L20.23 117.61l1.043.209 10.684-11.532-.287-1.023zm-27.641 7.749l16.191 4.588-.291-1.027-14.248-4.036-1.652.475z"/></g><path d="M20.565 108.342l-5.477 1.543 1.625 5.758-11.091 3.123 1.543 5.477 11.091-3.127 1.622 5.758 5.473-1.547-1.622-5.754 11.091-3.127-1.543-5.473-11.091 3.127-1.621-5.758z" class="B"/><path d="M5.92 119.823l.948 3.362 12.148-3.424 1.919 6.815 3.359-.948-1.919-6.814 12.148-3.425-.948-3.359-12.148 3.424-1.919-6.814-3.363.947 1.923 6.811-12.148 3.425z" class="D"/><path d="M29.702 101.473a1.5 1.5 0 0 0-1.078 1.266c-.034.294.019.591.154.855s.345.48.604.624.554.208.849.184.576-.135.808-.319.404-.433.494-.715.095-.584.013-.868c-.109-.38-.364-.702-.71-.894s-.753-.24-1.134-.133z" class="E"/><path d="M13.138 138.046h68.737v16.376H13.138c-2.17-.006-4.249-.871-5.783-2.406a8.21 8.21 0 0 1 .001-11.565 8.21 8.21 0 0 1 5.782-2.405z" fill="#ffac54"/><path d="M59.403 138.046h36.666v2.395H59.752c-1.542 0-3.022.612-4.112 1.703s-1.703 2.57-1.703 4.112.613 3.022 1.703 4.112 2.57 1.704 4.112 1.704h36.317v2.394H59.403a8.21 8.21 0 0 1-5.783-2.405c-1.534-1.535-2.398-3.615-2.404-5.784a8.21 8.21 0 0 1 8.186-8.231z" fill="#f28613"/><path d="M59.752 140.43h33.04c-1.577 0-2.867 2.614-2.867 5.816 0 3.195 1.29 5.815 2.867 5.815H59.752c-1.542 0-3.022-.612-4.112-1.703s-1.703-2.57-1.703-4.112.613-3.022 1.703-4.112 2.57-1.704 4.112-1.704z" class="B"/><path d="M59.752 140.43h33.039c-.77 0-1.474.626-1.991 1.639H59.752c-1.397.002-2.747.507-3.803 1.423s-1.746 2.181-1.945 3.565a5.91 5.91 0 0 1-.058-.821c.003-1.539.615-3.014 1.703-4.102s2.563-1.701 4.102-1.704z" class="F J"/><path d="M90.202 143.75l-32.085-.113v-.045l32.157-.113-.072.271zm-.158.827l-31.928-.106v-.045l31.972-.113-.044.264zm.233 4.441l-32.157-.116v-.042l32.092-.116c.017.093.041.175.065.274zm.267.804l-32.427-.116v-.044l32.324-.113c.034.092.058.185.103.273zm-.585-2.692l-31.842-.113v-.045l31.815-.113.027.271z" class="K"/><path d="M13.395 139.343h38.602c-1.546 1.246-2.612 2.991-3.014 4.936H6.662c.456-1.429 1.353-2.677 2.563-3.564a7.09 7.09 0 0 1 4.17-1.372z" fill="#ffc587"/><path d="M47.594 137.477a1.25 1.25 0 0 1-.302.404 1.26 1.26 0 0 1-.437.253 1.25 1.25 0 0 1-.501.06c-.169-.014-.334-.062-.484-.141s-.283-.189-.389-.321a1.27 1.27 0 0 1-.232-.448c-.046-.163-.059-.335-.037-.503a1.25 1.25 0 0 1 .164-.477l2.104-3.975c.156-.295.423-.515.741-.613s.663-.065.957.091a1.26 1.26 0 0 1 .613.741c.098.318.065.663-.091.957l-2.107 3.972zm19.835-36.066a1.27 1.27 0 0 1-.305.396 1.26 1.26 0 0 1-.435.245c-.16.051-.329.07-.496.056a1.26 1.26 0 0 1-.479-.142 1.27 1.27 0 0 1-.386-.317c-.106-.13-.185-.281-.232-.443a1.25 1.25 0 0 1-.041-.497 1.26 1.26 0 0 1 .156-.475l2.104-3.971a1.26 1.26 0 0 1 .74-.613c.318-.098.662-.066.957.09s.515.422.613.74.066.662-.09.957l-2.107 3.975zm-19.349-1.232a1.26 1.26 0 0 1 .096.957c-.096.318-.315.586-.609.743a1.26 1.26 0 0 1-1.7-.513l-1.977-3.684a1.26 1.26 0 0 1-.096-.956c.096-.319.315-.586.609-.744s.637-.192.956-.096.586.315.744.609l1.977 3.684z" class="D"/></g><path d="M66.14 99.47l-9.894 18.664 1.584.84 9.895-18.664-1.584-.84z" class="D"/><path d="M47.834 99.512l-1.58.847 9.986 18.615 1.58-.847-9.986-18.615z" class="D"/><g class="C"><path d="M56.376 103.327l-.044-6.069.978-.055.048 6.069-.982.055z" class="D"/><path d="M56.865 100.794c0 .311-.383.342-.39 0v-2.011c0-.311.387-.325.393 0l-.003 2.011z" fill="#fc5d95"/><path d="M66.857 137.545a1.25 1.25 0 0 0 .305.386 1.24 1.24 0 0 0 .431.239 1.25 1.25 0 0 0 .489.055 1.26 1.26 0 0 0 .473-.137 1.25 1.25 0 0 0 .384-.309c.106-.127.186-.274.236-.432a1.26 1.26 0 0 0 .051-.49 1.25 1.25 0 0 0-.141-.471l-2.08-3.986a1.27 1.27 0 0 0-.736-.625c-.158-.05-.324-.069-.489-.055s-.326.061-.473.138a1.25 1.25 0 0 0-.384.308 1.26 1.26 0 0 0-.235.433 1.25 1.25 0 0 0-.051.489c.015.165.063.326.141.472l2.08 3.985z" class="D"/><path d="M66.874 136.387c.045.084.122.147.214.175s.191.017.275-.028.147-.123.175-.214a.36.36 0 0 0-.028-.275l-1.16-2.162c-.045-.085-.122-.148-.214-.175a.36.36 0 0 0-.275.027c-.084.046-.147.123-.175.215a.36.36 0 0 0 .028.275l1.16 2.162z" class="B I"/></g><path d="M73.965 121.737a17.46 17.46 0 0 0-14.132-20.243 17.46 17.46 0 0 0-20.243 14.132 17.46 17.46 0 0 0 14.132 20.243 17.46 17.46 0 0 0 20.243-14.132z" class="E"/><path d="M56.181 103.857a14.16 14.16 0 0 1 5.944 1.283 14.17 14.17 0 0 1 4.859 3.656 14.21 14.21 0 0 0-9.784-4.366c-3.706-.123-7.314 1.208-10.052 3.709a14.21 14.21 0 0 0-1.137 19.815 14.21 14.21 0 0 1-3.761-7.272c-.513-2.74-.209-5.571.876-8.14s2.9-4.761 5.222-6.305 5.046-2.371 7.834-2.377v-.003z" class="C F G"/><path d="M70.933 119.959a14.21 14.21 0 0 0-12.88-15.42 14.21 14.21 0 0 0-15.421 12.88 14.21 14.21 0 0 0 12.88 15.42 14.21 14.21 0 0 0 15.421-12.88z" fill="#fff2e5"/><g class="C"><path d="M55.948 107.567c-.113-.079.068.256-.113.304s.113.506 0 .421-.161.085 0 .256.325.23.171.23-.287.126-.479 0-.171.047 0 .191-.048.294-.144.219-.198-.02 0 .154.469.438.441.602-.342-.27-.516-.342.342.342.161.342-.123-.154-.246-.161-.133.151-.164.038-.103-.277-.103-.144.151.277.055.363-.038-.171-.171-.229.027.342 0 .403-.171-.171-.178 0 .14.254.226.36.233-.086.222.075-.109.27-.281.075-.226-.342-.205-.068-.038.547.113.547.486-.397.479-.219-.342.264-.342.342.448.021.41.021 0 .195-.103.301-.092-.284-.188-.048.188.188.161.342-.342-.188-.431-.027.342.225.301.342-.256-.086-.342-.048-.281.143-.161.263.342 0 .342.134-.236 0-.243.092.055.133 0 .209-.109-.134-.216-.069-.421.038-.421.171.253.065.421.093.5-.113.434 0-.479.065-.414.178.065.047.226.246.318.072.458-.106.592-.554.564-.684-.318 0-.281-.124.342-.065.366.018c-.008.147-.06.289-.151.407-.096.13.215 0 .14.102s-.263.045-.342.151-.226.253-.133.253.188-.065.14.017-.205-.038-.226.086.134.123.284.123.113-.247.233-.226-.027.27-.13.291-.393-.096-.414.048-.034.154-.113.188c-.02.006-.038.018-.053.034s-.024.034-.029.055a.12.12 0 0 0 .002.062c.006.021.017.039.032.054.072.072.082.106.034.13s-.106.198-.055.216.058-.192.12-.137-.123.195-.065.256-.099.052-.127.127-.219.342-.127.362.113-.314.171-.266-.212.417-.161.451.103-.219.161-.181-.233.342-.133.41.246-.171.304-.106-.342.301-.318.414-.109.247-.082.322.031.407-.092.451-.116.291-.041.366.168-.126.219-.065.195-.044.212-.147-.099-.068-.092-.147.212-.325.205-.448 0-.404.089-.479.12-.044.14-.089-.322-.722-.226-.752.092.181.157.099 0-.175.017-.181.113.03.133-.024 0-.175.127-.212.113-.045.14-.117 0-.13.099-.13.171-.167.222-.099-.205.137-.219.229a.25.25 0 0 1-.029.093c-.016.029-.037.054-.063.075-.044.041-.133-.031-.151.065s-.027.167-.106.205-.127.178-.089.219-.068.157-.027.188 0 .099.096.147.116.099.137.055-.109-.048-.082-.164-.068-.257.048-.308.021.133.069.188.096.099.133.065-.14-.15-.031-.229.079.342.161.342.082-.164.113-.212-.099-.12-.051-.154.079.079.103.031-.051-.182 0-.25-.055-.263 0-.311 0 .198.068.154.038-.271.13-.202-.075.25-.109.318c-.019.041-.027.086-.022.13a.24.24 0 0 0 .05.123c.055.038.137.079.099 0s-.133-.198-.068-.202.065.168.198.226.246.123.198.171-.4-.116-.441-.089-.137.264-.092.342c.04.036.065.084.072.137s-.005.106-.034.151c-.092.126-.079.106 0 .16s.041.158.116.182.068-.096.113 0 .133.178.079.219-.058.03 0 .068.024.192 0 .229-.103-.02-.13.062-.031.188-.123.226-.044.188-.044.246-.103.089-.113.181-.133.041-.14.147-.099.206-.044.342.127.342.062.342-.13-.071-.12-.177 0-.168-.079-.192-.055.051-.092.045-.058.201 0 .29.198.223.215.315.123.246.092.291.113.161.181.167 0-.15-.075-.297-.106-.284-.061-.308.133.041.168 0 .089.075.13.075c.028.001.055.009.08.023s.045.033.061.056c.027.048.058.044.099.044s.038.113.089.158.233.174.301.137 0-.137 0-.23.055-.061.048-.106-.062-.068-.113-.085-.051-.209 0-.209.051.096.113.127.151.113.164.054-.062-.195.027-.147.02.171.058.206.065.14.109.136 0-.154.068-.123 0 .11.069.123.168-.102.277-.099.14-.072.027-.092 0-.171.065-.137 0 .099.086.113.041-.158.13-.116.106.065.137.051-.02-.096.034-.075.055-.052 0-.089-.044-.178 0-.178.034.082.116.078 0-.092.133-.065a1.07 1.07 0 0 0 .27.031c.106 0 .229-.02.253.031s.021.099-.051.099-.106-.099-.185-.089-.13 0-.137.076.11.075.099.112-.154.018-.236.089 0 .226-.051.277-.301.267-.25.325a.42.42 0 0 1-.072.373c-.072.052.106.178.185.315a2.93 2.93 0 0 0 .257.476c.113.119.181-.052.239-.024s.048.256 0 .219 0 .03-.048.082 0-.035-.086 0 .086.342.168.301-.147-.168-.031-.195.075.109.116.024.075-.438.164-.445.038.26.096.27.058-.161.13-.154.154-.133.178-.102-.113.085-.065.191-.044.205-.123.294.017.165 0 .23.089-.202.144-.093-.041.147-.099.195a.26.26 0 0 1-.157.045c-.041 0 .017.14 0 .147s-.048-.168-.14-.154.086.233.051.342-.041.205.075.239.109-.112.161-.041-.233.342-.27.462.079.301.116.377 0 .201.109.246.068.116.144.116.082-.102.157-.068.044.089-.048.14-.178.041-.267-.079-.127-.28-.209-.321-.068.113-.147.143-.024.035.027.137.161.192.099.223-.26-.076-.318-.165-.075-.116-.164-.092-.39.222-.472.171-.209-.147-.229-.106-.089-.044-.151 0 .065.103 0 .116-.058.079-.161.093-.062.13-.154.099c-.034-.017-.074-.02-.11-.009s-.068.034-.088.067c-.038.065-.144.205-.212.226s-.062.085-.072.212-.157.133-.216.236-.065.079-.164.072-.236.236-.301.311-.065.116.031.089.239-.13.298-.089.024.171.096.127 0-.11 0-.158.024-.109.079-.109.239.017.219-.048.116-.106.257-.058.168-.099.191-.024-.058.12-.14.099-.031 0 0 .079.031.116 0 .137-.051 0 0 .089.195.075.222.15-.096 0-.133.079-.113.188-.079.273 0 .151.116.158.174.068.048.072-.103-.035-.096.099c-.017.236-.1.462-.24.653-.133.127-.185.134-.209.11s-.096 0-.103.054.031.083-.068.065-.044.079-.154.072-.263-.024-.291.038-.069 0-.096.072-.147.089-.144.15-.031.103-.075.062-.072-.031-.075.017-.038.031-.116 0-.14-.055-.151 0 .044.113 0 .144-.072.116-.14.082-.154.13-.209.099-.103-.021-.065.031-.058.068.024.082.137-.051.216 0 .14.072.137.154-.02.123-.075.116-.086.045-.113.072-.103 0-.069.044.116.134.147.113 0-.116.055-.089.342 0 .342.028c-.007.023-.023.043-.044.055s-.045.018-.069.013h-.103c-.02 0-.092-.034-.106 0s-.017.065.044.086.099.037.075.065-.038.037.021.048.123.058.195.065.065-.171.147-.168.051.12.116.072.041-.103.116-.093.099-.075.041-.102 0-.158.096-.106c.054.023.112.035.171.035s.117-.012.171-.035c.024-.031-.11-.028-.062-.099s.246.037.219.082-.086.037-.092.065-.068-.028.031.082.116.106.226.065.099.027.147.027.082.027 0 .072-.113.02-.123.038 0-.072-.048-.065-.027.071-.072.075-.055-.021-.021.037 0 .048 0 .079.031.017.062.065.113.093.13.038.089.061.106 0 .109.034.086-.045.062.021.089 0 .11.082.103-.037.055-.243.205-.089a2.11 2.11 0 0 1 .239.342c.096.123.068-.11.171.058s.079.127.222.185c.104.058.227.074.342.044.161-.034.294-.02.253-.15s0-.151.127-.188.086-.148.178-.12.096-.038.24-.072.226 0 .342-.127 0-.113.12-.198.127-.298.219-.229-.106.147-.133.219-.127.267-.178.28.055 0 0 .034-.089-.03-.099.13-.048.106-.168.113-.192.291-.26.277.02.219-.106.185 0 .024-.024.106.099.12.024.175-.277.054-.363.085c-.086.037-.181.051-.274.041-.106 0-.192-.147-.294-.14s-.058.106-.239.027-.294.024-.397 0-.185.072-.267.038-.198.034-.277.058-.075.127-.096.137 0 .062.072.154.24-.062.246 0-.106.113-.178.116-.092-.024-.14.055-.058.12-.181.075-.185-.106-.281-.096.021-.061 0 .254 0 .407-.075.475a1.66 1.66 0 0 1-.369.267c-.13.061.085.061 0 .174s-.291-.058-.246.041.068.219 0 .199-.13-.11-.161-.055-.089.031-.045.185 0 .123-.106.144-.147 0-.14.099 0 .178-.058.208c-.064.029-.118.077-.154.137-.055.069-.236.024-.215.093s0 .167-.092.051-.274.055-.411.13.021.092-.048.185-.075.13.109.13.068-.23.205-.23.168.175.229.13.198-.03.192.086.13.082.038.144.038.13.116.13 0-.26.113-.161.123.116.137 0-.058-.565.048-.551.051.253.144.246.024-.308.147-.277.305.031.253-.082-.041-.342.051-.291.079.137.229.113.421-.167.489-.092c.047.051.101.095.161.13 0 0 0-.243.062-.229s.055.26.192.291.123-.13.253-.069 0 .123.168.26.092-.044.174 0 .26.041.171-.044.031-.26.15-.315.185-.161.048-.192.062-.229.092-.342.038-.229-.024-.284-.137-.167-.075-.191.168.116.198.215.089.093.137 0 .123-.267.267-.205c.065.029.131.054.198.075 0 0 .031-.116.092-.092s.147-.093.222-.106a1.1 1.1 0 0 1 .428.167c.137.076.284.216.284.343s.044.16.082.099.048-.113 0-.161 0-.175.13-.12.537 0 .568.082.075-.024.151-.024.099-.082 0-.136-.229-.124-.161-.154.12.13.219.071.079-.13.202-.092.082-.079.198-.038.222.1.236.031a.16.16 0 0 1 .044-.094c.025-.025.058-.042.093-.046.086 0 .161-.113.161-.113s.092.075.092 0-.205-.253-.13-.277.161.198.222.222.168.161.236.13-.068-.178 0-.184.062.116.113.092.13-.198.192-.174-.13.249-.031.249.055-.13.161-.13.171-.02.14.048-.13.024-.123.075.099.154.168.13.075-.191.236-.205c.194-.024.386-.063.575-.116.06-.028.125-.043.192-.043s.132.015.192.043c.205.092.421.156.643.191.099 0 .099-.222.25-.253.13-.01.258-.044.376-.099.068-.051 0-.322.236-.229s.342.154.37.068 0-.427.219-.465.342-.024.421-.229.086-.192.017-.342-.092-.141 0-.171a.11.11 0 0 0 .075-.188c-.055-.107-.068.044-.342.051s-.342.048-.407.106-.212.055-.38-.021-.246.021-.342-.061.147-.048.161-.13-.082-.147-.28-.137-.246.26-.308.137.154-.216.267-.247.291-.068.342 0 .151.1.161 0-.024-.232.089-.27.068-.222.068-.28-.298.106-.342 0 .024-.079.123-.079.168-.311.267-.26.123.192.205.202a.57.57 0 0 0 .194-.082c.059-.04.109-.091.148-.151.051-.099-.062 0-.109-.089s.123-.198 0-.191-.421-.024-.243-.062.25-.085.157-.147.192.041.209.14.044.192.168-.054.154-.267.267-.305-.051-.072.062-.222 0-.383.085-.459.031-.26.092-.369-.079-.305-.041-.435-.051-.236-.058-.314-.376-.342-.523-.435-.571-.116-.684-.167-.157-.062-.089 0-.13 0-.284-.024-.284.054-.342 0-.192 0-.161.092-.062.031-.099.178-.038.304-.137.229-.116.13-.191-.055-.24.055-.322-.136.062-.185.181-.343.342-.27.342-.342c-.039-.187-.112-.366-.215-.526-.116-.13-.161-.428-.222-.514-.099-.127-.235-.22-.39-.266-.192-.055-.168-.343-.366-.343s-.308.106-.475.076-.267-.045-.137-.13.031.123.304.068.342-.236.421-.092.109.253.322.253.315-.062.308.038-.068.123 0 .123.181-.13 0-.243c-.237-.181-.429-.415-.558-.684-.154-.319-.198-.503-.031-.51s.246 0 0-.116-.222-.062-.191-.199-.113-.106-.175-.205-.161-.431-.315-.445.038-.099-.113-.123-.215 0-.26-.106-.26-.123-.421-.185-.239.031-.246-.099.116-.144-.031-.222-.161-.076-.174-.25-.147-.342-.099-.414-.061-.198-.106-.284-.171-.191-.14-.274-.099-.239-.075-.301-.137-.219-.085-.318a1.13 1.13 0 0 0-.13-.605c-.051-.062-.144-.024-.181-.137s.051-.123-.048-.123-.031.174-.082.085a2.21 2.21 0 0 1-.246-.342c-.092-.181-.216-.198-.222-.342s.038-.062-.144-.062-.209-.044-.322-.174-.198-.048-.246-.048.024-.031-.038-.113c-.051-.037-.11-.062-.173-.072s-.127-.003-.186.017c-.044.038-.024.237-.137.274s-.236-.02-.414 0-.222-.082-.472-.092c-.11.013-.221-.005-.322-.052-.11-.041-.301-.321-.178-.342s.068.199.246.206.212.092.366.082c.117-.009.231-.032.342-.069.106-.02.085-.143.168-.205s.185-.342.315-.304 0 .15.13.136c.064-.01.124-.036.175-.076a.38.38 0 0 0 .116-.153c.038-.116.106-.123-.086-.147a.39.39 0 0 1-.15-.036c-.047-.023-.089-.055-.123-.094-.062-.044.044-.099.062-.198s-.055-.113-.161-.038-.185.062-.291.144-.161.178-.253.109.229-.178.277-.253c.047-.06.109-.105.181-.131s.148-.032.223-.016c.168.055.168.109.342-.068s.26-.26.192-.342 0-.072.024-.233.055-.069.147-.157.12-.223.212-.278-.044 0 .068-.229l.215-.465c.068-.106-.137-.072-.079-.222a8.02 8.02 0 0 1 .393-.791c.082-.13-.031-.027 0-.229s-.086-.198-.137-.304 0-.161-.215-.137-.198.092-.308.061-.267.052-.38.038-.222-.137-.383-.109-.229-.021-.308.041-.188.092-.342-.048-.342-.062-.513 0-.031.123-.137.116c-.062-.007-.124 0-.183.019s-.113.052-.159.094c-.075.085-.024.168-.185.092s-.113-.03-.181.086c-.031.052-.074.096-.124.131a.42.42 0 0 1-.167.067c-.086 0-.068.151-.198.021s0-.082.161-.106.027-.144.181-.168.048-.246.137-.267-.075.021-.219.038-.171.274-.253.168 0-.216.144-.237c.118-.031.233-.075.342-.13 0 0 .038.107.082.1s.462-.401.322-.459-.082.168-.212.161 0-.109-.116-.109-.068.078-.229.048-.236-.055-.298-.024 0-.216-.116-.161 0-.13.13-.13-.044.222.14.174.062.041.212.041.315.045.246 0-.246-.167-.192-.236.099.076.168.031 0-.147.062-.154.099-.222.205-.236.024.038.154-.085.267-.113.298-.206 0-.198.11-.222.137-.116.26-.106 0-.024.113-.171.342-.342.13-.366-.106-.291-.038-.342.13-.223-.024-.171-.205 0-.28.03-.079-.119-.154-.061.137.13.038.191-.144 0-.199.038 0-.068-.061-.113-.154 0-.222.062-.051.106-.154.106-.144.055-.267.017-.212.038-.291 0-.061.154-.144.123-.123-.085-.192-.048.038.192-.116.199.062-.175.017-.25-.116-.13-.178-.072-.151.39-.212.342c-.016-.021-.027-.045-.033-.07s-.007-.052-.003-.078.014-.051.027-.073.032-.041.054-.056c.099-.075-.062-.106-.106-.106s-.017.236-.099.198 0-.246-.085-.284 0 .031-.192-.047l.044-.024zm2.61-.418c-.055 0-.092-.061-.075-.15s-.041 0-.089-.058.027-.113-.027-.076-.106.028-.089-.024c.008-.032.024-.062.047-.086a.2.2 0 0 1 .083-.054c.089-.031.031.045.12.072s.082-.021.133.116.048.137 0 .164 0 .11-.092.096h-.01zm-.14-.595c.038.031.02 0 .051.075s0 .034.055 0 .075-.061.085.041c0 .016.003.031.011.044s.018.025.032.033.029.011.044.011.03-.004.044-.012c.034 0 .031-.12.082-.106a.17.17 0 0 0 .067.014.17.17 0 0 0 .067-.014c.044-.028.044.023.072.112s0 .106.089.059 0 .116.075.109.051-.058.089-.133.068.027.092-.031.062-.079 0-.144-.123.195-.185.134.079-.12.068-.158-.113.038-.161.024.058-.15 0-.188 0 .103-.058.116-.024 0-.082-.044-.048 0-.133 0-.072.02-.072-.038.072 0 .099-.027-.058-.062 0-.089.058.085.103.075.034-.167 0-.171-.065-.092-.065-.092c-.028.001-.057-.005-.083-.016s-.049-.028-.068-.049c-.058-.069-.151 0-.209 0s0 .082-.055.082.021.191-.024.191-.062.171-.017.209l-.014-.017zm.448.383c-.055-.031-.191.045-.079.096s.116-.055.079-.096zm-.171.236c.062 0 .123-.044.058-.072s-.075.065-.058.072zm.404-.297c.055 0 .044.088-.031.075s-.031-.072.031-.075zm-.021.403c.096 0 .038 0 0-.082s-.041-.089.027-.15-.034-.052-.089 0-.099 0-.092.034.062.089.058.161.096.089.096.041v-.004zm.038-1.026c.062.02.092-.048.12 0s.051.168 0 .174-.086-.061-.14-.112-.034-.031.027-.065l-.007.003zm-.031-.274c.051 0 .027.151-.024.134s-.048-.134.024-.134zm-.209-.089c.109 0-.02.048.02.058s.082-.088.116-.023-.062.041-.072.099.086.078.024.106-.164-.082-.192-.137 0-.089.103-.103zm-.065-.393c-.041.027.092.031.099.103s-.024.136.027.136.031-.106.086-.099.051.175.109.151.048-.096 0-.168-.151-.055-.123-.109.086-.083.021-.117-.031.079-.092.089-.075-.061-.109 0l-.017.014zm.342-.164c.055.044 0 .253-.027.208s-.044-.208.027-.208zm.123.424c.048 0 .058.109 0 .195s.038.12 0 .137-.082-.052-.062-.12.027-.239.055-.212h.007zm.195.267c.038-.021.038 0 .072.048s.044 0 .079.058.055.051 0 .116-.041.041-.089.024 0-.062-.048-.062 0 .055-.051.076-.044-.045-.038-.079.068-.031.082-.062.031-.037-.038-.03 0-.076.024-.089h.007zm-.058-.13c-.027 0 0-.048 0-.079s.072-.044.099-.103 0-.03 0-.075.089-.12.103-.072-.051.13-.021.144.099-.062.14-.113.065-.055.089 0 .072.051.031.089-.072-.027-.106 0-.055.113-.089.12-.027-.069-.044-.034 0 .092-.038.082-.041-.082-.062-.058-.061.14-.106.102l.003-.003zm.434-.596c0 .038-.034.165-.079.13s.062-.208.079-.13zm-.27 1.061s.072.103 0 .092-.065-.113 0-.092zm-.701.862c.024 0 .024.079 0 .068s-.031-.106 0-.068zm-.086.157c.038 0 .068.079 0 .079s-.075-.109 0-.079zm-4.69.466c.133 0 .137.215.133.308s-.068 0-.075.126.079 0 .069.082-.021.089-.109.082-.031.1-.086.113-.113.028-.106.103.082 0 .133 0 .164-.099.226-.082-.103.215-.137.256-.089-.068-.123-.048-.048-.024-.092-.027 0 .051-.027.127-.048.024-.103.075-.127.041-.151.116.236-.044.24.021.058.219 0 .236 0-.048-.075-.062-.188-.024-.171.048.072 0 .133.031 0 .058-.031.13-.065.027-.123.061-.021.021-.137-.034-.062-.195-.144-.239 0 .143.058.239.133.117.027.171-.116-.078-.168-.048-.068.093.027.093.062.106-.024.167-.038-.095-.109-.078-.086.089-.133.184.034.113-.092.1-.048-.017-.038-.106-.075 0-.092-.086-.137-.085-.079-.123.062.044.109.048.027-.106.086-.127.079.041.133 0-.068-.037-.031-.126.099.058.14 0 0-.038-.058-.089-.069-.082-.181-.093-.082 0-.089-.089.212-.109.202-.164-.103.052-.161.038.058-.062 0-.089-.075.061-.13 0 0-.12.027-.154-.075-.127-.038-.157.106.054.137 0 0-.223.099-.137.051.15.113.154.243.034.27-.021-.133-.267-.089-.311c.088-.066.192-.107.301-.12.133-.02.185-.287.342-.342s.079-.195.209-.181l-.014.024zm-.961.684c-.044 0 0 .075 0 .099v.065c0-.007-.058.021-.051.045s0 .023.051 0 .085.058.12 0-.068-.202-.12-.199v-.01zm-.458.65c-.044 0 0 .102.038.092s.038-.126-.038-.092zm.26.359c0-.051-.031.038-.065.045s-.109-.024-.109.044.079.038.127.021.086-.089.048-.11zm.951.068c-.055 0-.045.086 0 .079s.038-.075 0-.079zm-1.334.319c.038 0 .058.089 0 .075s-.051-.082 0-.075zm.099.143c-.024-.075-.144 0-.113.062s.12 0 .113-.062zm-.222 0c-.082-.078-.072.052 0 .079s.055-.062 0-.079zm.178.13c.079-.027.027 0 .072.048s.065-.031.12 0 0 .158-.061.127-.045-.103-.11-.079-.065.065 0 .14.075 0 .123.045-.038.058-.089.061-.02.031.034.059-.072.017-.123.082-.048.024-.154 0-.034-.171-.133-.209-.068.099-.127.089-.038-.055-.096-.113.024-.062.065-.106 0-.116 0-.14.086.113.168.137.027-.148.086-.148.038.018.103.052.079-.055.12-.048l.004.003zm-.684.37c.051.044.038.096 0 .116s-.031-.058-.092-.031.027-.137.089-.085h.003zm.287 0c-.044.02.031.202.075.178s-.031-.206-.075-.178zm.075.373c.058 0 .068 0 .079.03s.02.072.096.069c.03-.001.058-.01.083-.027s.044-.039.057-.066c0-.027-.092 0-.123-.051s.14 0 .123-.051-.072 0-.123-.045c-.015-.019-.037-.032-.061-.036s-.049.002-.069.016c-.051.024-.024 0-.065.02s-.065.12 0 .141h.003zm.219.236c0 .044-.243-.137-.181-.13a.34.34 0 0 1 .181.13zm-.277-.093c-.031 0 .044.12.034.154s-.096.164-.086.195c.014.074.023.148.027.223 0 .058-.02.167.038.205s.144 0 .171 0 .048.037.068.017.075-.041.034-.075-.045-.055-.096-.045-.099-.02-.082-.054.085-.001.113-.021 0-.068 0-.103-.103-.065-.072-.099.048.024.085 0 0-.072.058-.116.065-.031.048-.075-.099-.072-.154-.11-.144-.157-.175-.13l-.014.034zm.164.927c-.058-.027-.02-.133 0-.113s.038.13 0 .113zm-.151-.058c.055 0 .055.055 0 .069s-.079.071-.113.044c-.007-.003-.014-.008-.018-.015s-.007-.015-.007-.023.002-.015.007-.022.011-.012.018-.015c.031 0 .048.034.065.02s0-.068.027-.058h.02zm.099.13c-.044-.024-.072.106-.116.079s-.041-.051-.089-.058-.103 0-.106.037 0 .124-.044.1-.034.02-.038.082.024.072.058.065.024-.165.072-.141 0 .089.055.076-.031-.062.075-.089.178-.134.133-.151zm-.185.288c0 .085 0 .068-.044.041s0-.059.044-.041zm-.133.119c-.031-.03 0-.116.027-.065s0 .11-.027.065zm-.079.055c-.051-.027-.096 0-.044.055s.089 0 .044-.055zm-.103.092c.038.018 0 .113-.044.072s0-.119.044-.072zm2.053-2.483c.069 0 .106 0 .069.068s.109 0 .061.082.031.028.137.13 0 .171.024.342.058.12-.065.209.103 0 .055.13.085.051.017.14-.038.072.068.069.021 0 0 .113.044-.021.123 0 .14-.041.14.054.027.086.12.038a.23.23 0 0 1 .212 0c.079.021.041.051 0 .161s-.041.041-.133.027-.02.216-.14.205-.069.281-.216.25-.062-.133-.02-.222.27-.168.257-.233-.038.034-.157.034.031-.044-.089-.119-.031.26-.072.266-.034-.099-.079-.212-.065.082-.202.065-.133.117-.089 0-.133-.126-.181-.16a.51.51 0 0 1-.072-.288c.017-.044.13.151.161.089s-.082-.161-.133-.273.021-.096-.109-.13.089.082-.051.242-.215-.02-.219-.143-.161-.164-.082-.178-.038-.147.02-.103.12.185.215.117-.096-.093-.044-.192 0 .085.075 0-.212-.25-.065-.315.065.195.192.26-.041.113.079.161 0-.13.062-.099 0 .15.092.133-.092-.25-.034-.226.034-.136-.058-.239-.051-.229.133-.236v-.017zm.561.342c.072.02.062.185-.021.181s-.079-.178.021-.181zm-.058.246c.072-.034.038.113 0 .154-.021.026-.034.058-.038.091a.18.18 0 0 0 .015.097c.034.052.062.093 0 .123s-.092.028-.092-.037-.004-.13 0-.195c0-.147 0-.082.068-.116s0-.11.051-.117h-.003zm0 .524c.062-.028.144.041.096.061s-.133-.061-.096-.061zm-.749.752c0 .028-.051-.031-.089-.017s-.178.017-.123.065.103-.02.144 0 .089.041.099.027.031-.092-.031-.068v-.007zm.246 0c.055.048.079.048.079.079s.058.068.048.133c-.007.035-.024.067-.049.093a.19.19 0 0 1-.091.051c-.055 0-.044 0-.072-.089s-.109-.048-.137-.109 0-.059.082-.086.062-.082.14-.072zm.284.342c.055 0 .068.123.02.212s-.106 0-.133-.047.044-.168.113-.165zm-.287.298c0-.092.12-.038.116.024s-.109.027-.116-.024zm-.25.407c-.051-.034-.342.236-.407.284s0 0 .099.038.14 0 .212-.096.144-.209.096-.226zm-.462.397c.048.037.079.02.034.085s-.031.017-.116-.02.017.096 0 .126 0 0-.092 0 0 .103-.065.148-.065.034-.082-.055-.082 0-.058-.052-.024-.051 0-.13.086-.085.133-.034.055.041.096-.044.099-.086.168 0l-.017-.024zm.684-.134c.058-.041.079 0 .113 0s0-.068.044-.088.154-.083.151-.035.055.038.055.076.072.044.068.075 0 .055.068.078.02.065.031.141.079 0 .192.041.082 0 .103.072.096 0 .089.044.075.027.075.089 0 .188-.044.171 0-.079-.051-.089-.024.069-.044.093-.082 0-.062.054.099-.058.12-.037 0 .027-.068.085-.106.12-.175.099.034-.095 0-.119-.086.106-.147.089-.072.106-.154.075-.096.092-.164.058-.092 0-.137 0-.044.079-.099.038-.106-.182-.075-.219.065 0 .103 0 .058.072.082.044 0-.051.068-.024.127 0 .192-.037.151-.083.113-.127-.096.075-.154.079-.055.037-.092.034-.044 0-.044-.058.017-.045.113-.164.024-.065.058-.076.021.058.072.024.106-.089.082-.13-.079.031-.113.028-.034.061-.085.034-.038.051-.075.065-.051.024-.082 0-.113-.024-.144-.041-.031-.072.034-.062.065 0 .127 0 .034.031.089 0 .051-.02-.038-.102-.15-.038-.12 0-.072 0-.116-.069-.041-.048.027-.113-.041 0 .031-.078l-.014-.018zm-.202.298c-.044 0-.065.092 0 .072s.079-.079 0-.072zm0 .421c-.058 0-.062.102-.041.113s.096-.127.041-.113zm1.488-.534c.044.024 0 .096-.038.147s-.031.168-.11.154.017-.188.055-.215.065-.086.092-.086zm-.058.342c.048.058-.086.161-.12.123s.062-.147.12-.123zm-.205.288c.058 0 0 .133-.031.106s-.027-.113.031-.106zm0 .184s0 .219-.027.209a.28.28 0 0 1 .027-.209zm-.13.082c.044 0 .068.13.038.165s-.096.082-.116.034.044-.048.058-.065-.048-.168.02-.134zm0 .278c.065-.018-.13.342-.154.369s0 .13-.062.154-.027.041-.038.109 0 .117-.082.12-.024.089-.075.178-.058.082-.075.034-.058 0-.109-.061 0-.291.075-.366.072 0 .151 0 .041 0 .038-.103-.099.021-.099-.031.383-.417.431-.393v-.01zm-.664 0c.065.034 0 .109-.048.143s0 .158-.079.151 0 .089-.072.089-.068-.045-.027-.079 0-.079.021-.106 0-.096.079-.116.058-.123.127-.082zm-.027.567c.055 0-.024.031.021.079s.041.021 0 .178 0 .109.072.178.017.058.044.103 0 .058.031.13.031.082 0 .078c-.011 0-.021.001-.031.005s-.019.01-.027.017-.014.016-.018.026-.006.02-.006.031c0 .055-.062.024-.099.061s-.038 0-.092-.02-.103.168-.168.15-.137-.027-.092-.071c.036-.036.061-.081.072-.13 0-.045.027.017.055 0s0-.045 0-.11-.103-.048-.109-.102.13-.069.133-.148 0 0-.106-.024-.038.103-.127.209-.116.154-.174.11.031-.072.02-.144.038-.034.068-.089.02-.072-.027-.106.027-.041.027-.072 0-.13.034-.12.065 0 .086-.037.092-.082.113-.041-.085.13-.027.154.027-.089.062-.093.048 0 .075-.075.031-.116.065-.075.068-.062.123-.038l.003-.014zm.684.606c0 .024 0 .048-.044.031s0-.048.044-.031zm-.038.096c.089-.052 0 .082 0 .14s0 .082-.024.079 0-.021 0-.082.02-.151.058-.137h-.034zm.889-.561c0-.021.137.048.13.089s0 .054.072.068.062.065.024.075-.027.134 0 .195 0 .052-.041.048-.048 0-.044-.055-.027-.037-.065-.065 0-.099-.034-.13 0-.092-.062-.102-.031-.082 0-.123h.02zm.407.301c.058.02.034.164 0 .14s-.027.099-.051.137-.058 0-.031-.051.034-.23.079-.226h.003zm-.523.195c.082.024.109.116.171.174s.021.096-.017.161 0 .082.058.127-.045.099.02.167 0 .127-.041.151-.185.072-.236 0c-.059-.049-.107-.109-.14-.178-.02-.069.024-.082 0-.134s-.065-.092-.086-.181.062-.171.099-.202.106-.099.161-.102l.01.017zm.298.544c.055 0 .051.106 0 .089s-.051-.127 0-.089zm-3.568 1.218c.075.164.168.126.322.058s.157-.171.178-.271 0-.03.085 0c.027.017.056.029.088.033s.063.004.094-.004.059-.023.084-.042.045-.044.06-.072c.062-.147.216-.062.277-.185s.055-.055.079.079.185-.11.284 0 .123.068.233-.024.27.109.185.308 0 .232.062.208-.038.219.068.281 0 .137.092.137.055.037.14.202.092-.093.161-.017c.014.025.022.053.024.082s-.003.058-.014.085-.027.051-.049.07-.047.034-.074.043c-.109 0-.342.192-.287.322s.092-.031.171-.1.253-.037.376 0 .14.106.202.322.154.257.055.325 0 .301-.072.325-.092-.024-.137-.216 0-.184.024-.256-.041-.301-.209-.26-.024.144.044.27-.123.27-.123.27.202 0 .202.038.092.192 0 .308-.123.099-.215.092-.263 0-.233.11a.44.44 0 0 1-.085.268c-.057.078-.138.135-.23.163-.202.031-.031.147-.147.185s-.171-.093-.342-.069 0 .301.075.4.13.171.079.233 0 .222.031.387.239.106.246.222-.14.024-.178.099.253.031.13.103-.123.092-.038.13c.025.015.047.036.064.06a.21.21 0 0 1 .03.169c-.007.029-.02.055-.039.079-.092.102.024-.1-.147-.13s0 .342.038.424.178.486.116.609.123.061.024.246-.185.202-.171.411-.26.263-.185.509.123.233-.044.342-.085.418-.27.342-.171.052-.031.161-.024.141.144.192 0 .133-.044.202-.257-.024-.318 0-.082-.103-.198-.079-.233-.147-.239 0-.048.192-.171.185.038-.161.017-.277 0-.134-.133-.216-.02.291-.031.407-.031.062-.168 0-.086.175-.215.106-.147-.031-.294 0-.277-.116-.387-.061.086.198 0 .342-.099.137-.263.068-.168-.061-.277.154 0 .147-.099.103-.202.26-.424.198.062-.178.055-.277-.28-.342-.342-.092.178.253.123.462-.062.171-.202.164 0 .215-.116.239-.038.052-.342-.164 0 .246-.075.287-.079-.085-.202-.208 0 .154-.147.208a.37.37 0 0 1-.173.034.36.36 0 0 1-.169-.051c-.161-.054-.086.247-.342.141s-.021-.093-.13-.216-.277.144-.54.253-.342.038-.263-.085.541-.271.564-.37-.585.315-.571.233.209-.226.387-.288.4-.054.369-.167-.106 0-.253.037c-.158.05-.328.05-.486 0-.195-.061-.219.23-.342.216s-.161.109-.168 0 .082-.14.161-.185.085-.195.277-.232c.241-.061.464-.178.65-.343 0-.068-.872.288-1.057.288s.051-.233-.048-.318-.086.178-.246.147-.13-.099-.017-.185.157-.068.086-.239.085-.1.342-.093.079-.133.233-.171.123.072.147-.061.277.03.246-.1-.072 0-.287-.054-.363.116-.469.03-.133.141-.318.117-.086.024-.13-.154.031-.318.086-.216.185.137.154-.078.239-.209.342-.141-.079.171.024.202.144-.239.246-.222.116.26.239.277.178-.123.092-.147-.041-.171-.048-.253-.147.037-.092-.171.13.154.226-.031.205-.14.205-.24.072-.14.178-.037.147.024.287 0c.111.008.223-.011.325-.055.198-.068.222 0 .342 0s-.02-.137.14-.154c.121-.009.238-.045.342-.106.079-.048-.236-.034-.342-.041s.055-.229-.113-.229-.38.462-.489.431-.13 0-.277.031-.13-.117-.239-.24-.27.223-.469.342-.387-.037-.14-.123c.222-.083.41-.239.534-.441.116-.178.055.109.198.116s.048-.099.147-.342.103-.133.164-.301-.27.044-.164-.079.209-.431.342-.503.048.141.14.171.044-.023.116-.106.116.052.229.021a.26.26 0 0 0 .13-.098c.032-.045.049-.1.048-.155 0-.099-.301-.038-.592-.14s-.383.116-.431.088-.072 0-.178-.051.14-.342.12-.4-.12.14-.171.13 0-.106-.027-.127-.113.209-.215.226-.072 0-.178-.044-.027-.048 0-.13.031 0 .106-.021.082-.089 0-.147-.051.096-.171.13-.127-.041-.157-.133-.219.078-.274 0 .082-.134.13-.093.109 0 .089-.072.038 0 .034-.089-.106-.027-.195-.13.048-.041.13-.037.161.109.181.044-.161-.15-.089-.191.079.072.161.078.082-.041.188-.034.209.123.239.038-.147-.045-.27-.096-.147 0-.096-.15a1.24 1.24 0 0 0 .044-.226c.02-.069.068 0 .164-.024s.157.024.198-.017.205.075.236-.028-.055 0-.116-.119.068-.062.058-.124 0-.089-.109-.058-.038.034-.178 0-.14.103-.222.024 0-.096.038-.164.031.103.14.034-.123-.048-.072-.106.044-.02 0-.102.089-.209.058-.298-.062.123-.202.075.123-.068.038-.126.024-.144-.092-.178-.041.191-.096.263-.055.021-.113 0 .038-.243.041-.298.058-.034.092-.078-.048 0-.085-.069-.034-.051.089-.085.034-.096.106-.092a.08.08 0 0 1 .096.116c-.014.096-.113.082-.041.14s.106-.065.168-.133.089.102.133.037-.236-.113-.181-.16c.145-.052.3-.066.452-.042.117.034.231.076.342.127.12.041.099-.02.174 0s-.034.045.031.082.137-.055.109.031-.055.13 0 .185 0 .116.079.143.051-.164.12-.243 0-.106.072-.109.274.154.366.113.041-.082.181-.021.038.175.164.175-.065-.13-.051-.161.215.041.205 0-.082-.031-.103-.113.082 0 .089-.061-.233.041-.222 0-.072-.103-.044-.141.082.038.185.021 0-.185.096-.226.086.021.284 0 .219-.041.151-.082.072-.024.051-.151.041.072.079-.078.137-.086.092-.171-.113.167-.246.089.082-.113-.055-.082-.154.242-.219.181.044-.079.062-.161-.154.113-.14 0-.021-.051-.113 0-.161 0-.287-.065-.055-.123-.048-.185.041.021.103 0 .02-.157.089-.212.185.13.243.123-.12-.14 0-.164.051.113.144.034-.168-.085-.181-.147.027-.051.12 0c.035.023.073.038.114.045s.082.006.122-.004c.099-.024-.041-.044-.048-.116s.058.055.075-.079-.058 0-.157-.041-.024 0 .031-.123-.031-.109.038-.263.031.054.133.024.031-.035 0-.188-.034-.202.092-.158.103.028.133.089.085-.02.137-.061.031-.237.123-.226.062.041 0 .147.082-.062.133 0 .055.229.13.137-.065-.147-.031-.223.072-.119.079-.078a.23.23 0 0 1 0 .113c-.017.088.045.092.113.119s.044.216.109.154-.048-.195-.116-.267-.041-.154.051-.113.017-.088.106-.075.065.253.127.294c.014.008.026.019.034.032s.014.029.016.044a.1.1 0 0 1-.006.047c-.006.015-.015.028-.027.038-.047.049-.087.105-.12.164-.051.093 0 .052.02.059s-.215.119-.075.195.164-.254.229-.295.048.1.089.062 0-.144-.027-.27-.082-.137-.034-.253-.02-.103.103-.103.072-.11.161-.089.031.082.116.051-.051-.072-.096-.184-.062-.11.051-.038.216.068.216.113c-.001.028.007.056.023.079s.039.041.066.051c.065.027.062 0 .161.068s.178 0 .157.103-.154.178-.315.191-.294.158-.222.26l-.017-.047zm-4.502 5.203c-.034.065.209.167.27.147s-.058-.069-.021-.086 0-.095-.075-.054-.157-.059-.175 0v-.007zm.414.143c-.082-.037-.096.086-.051.1s.127-.048.051-.1zm.127.093c0-.058-.099.02-.072.058s.072 0 .072-.058zm-.257-.558c-.082 0-.109.13-.044.13s.096-.137.044-.13zm1.057.171c-.062-.024-.055.048 0 .103s.051-.096 0-.103zm-1.105-.325c-.017.072.116.058.099.041s-.051-.068-.103-.027l.003-.014z" fill="#ffac54"/><g fill="#12214a"><path d="M62.41 108.29a.28.28 0 0 1 .072-.092.29.29 0 0 1 .103-.057c.038-.011.077-.015.117-.01s.077.017.111.037.064.046.087.078a.29.29 0 0 1 .049.106c.009.039.01.079.002.117s-.023.076-.045.109l-1.167 2.025a.29.29 0 0 1-.173.133c-.073.02-.151.01-.217-.027s-.114-.102-.133-.175a.3.3 0 0 1 .027-.219l1.166-2.025zm4.437 4.208a.29.29 0 0 1 .393.106.28.28 0 0 1 .037.106.29.29 0 0 1-.006.112c-.01.036-.026.071-.049.101s-.051.055-.084.074l-2.025 1.177a.29.29 0 0 1-.393-.106.28.28 0 0 1-.037-.106.29.29 0 0 1 .056-.213c.023-.03.051-.055.084-.074l2.025-1.177zm-16.25-3.891c-.022-.032-.037-.069-.045-.108s-.006-.079.002-.117.025-.075.049-.106a.29.29 0 0 1 .315-.105c.038.011.073.031.103.056s.054.058.072.093l1.177 2.025c.022.033.037.07.045.109a.29.29 0 0 1-.051.223.27.27 0 0 1-.087.078c-.034.019-.072.033-.111.037a.31.31 0 0 1-.117-.01.29.29 0 0 1-.103-.057c-.03-.025-.054-.057-.072-.092l-1.177-2.026zm-4.207 4.443a.29.29 0 0 1-.135-.175c-.01-.037-.012-.074-.008-.112s.017-.074.036-.106a.3.3 0 0 1 .074-.085.29.29 0 0 1 .101-.05c.037-.01.075-.012.112-.007a.27.27 0 0 1 .107.036l2.032 1.166c.066.038.115.101.134.175a.29.29 0 0 1-.029.219c-.038.066-.101.114-.175.134a.29.29 0 0 1-.219-.028l-2.032-1.167zm16.567 15.699c.039.065.049.144.03.218a.29.29 0 0 1-.133.175c-.066.039-.144.049-.218.03s-.137-.067-.175-.133l-1.177-2.018a.31.31 0 0 1-.045-.108c-.008-.038-.007-.079.002-.117a.29.29 0 0 1 .049-.107c.024-.032.053-.058.087-.078s.072-.032.111-.037.079-.001.117.011.073.03.103.056.054.057.072.093l1.177 2.015zm4.208-4.437c.066.038.115.101.134.175a.29.29 0 0 1-.422.325l-2.035-1.167a.29.29 0 0 1-.085-.074c-.023-.03-.04-.064-.05-.1a.29.29 0 0 1 .028-.219c.019-.033.044-.062.074-.085a.29.29 0 0 1 .101-.05c.037-.01.075-.012.112-.007s.074.017.106.036l2.036 1.166zm-16.007 4.764a.29.29 0 0 1-.394.106c-.067-.038-.115-.101-.135-.175s-.01-.152.029-.218l1.166-2.032c.019-.033.044-.062.074-.085a.29.29 0 0 1 .101-.05c.037-.01.075-.012.112-.007s.074.017.106.036a.29.29 0 0 1 .135.174c.01.037.012.075.008.113a.29.29 0 0 1-.036.106l-1.167 2.032zm-4.447-4.214c-.066.038-.145.048-.219.028a.29.29 0 0 1-.203-.353c.02-.074.068-.137.135-.175l2.025-1.177a.29.29 0 0 1 .218-.027c.073.02.136.068.175.133.019.033.032.069.037.106s.003.076-.007.112-.026.071-.049.101a.29.29 0 0 1-.084.075l-2.029 1.177zm10.229-6.333c.025.029.043.062.055.098a.28.28 0 0 1 .013.111c-.003.037-.014.075-.031.108a.29.29 0 0 1-.071.087c-.058.049-.133.073-.209.066s-.146-.042-.195-.1l-6.903-8.169a.29.29 0 0 1-.052-.203.29.29 0 0 1 .1-.184c.055-.046.126-.071.198-.068s.141.034.191.085l6.904 8.169z"/><path d="M56.659 118.415c.069-.031.148-.033.22-.006s.129.081.16.15a.29.29 0 0 1-.144.383l-6.794 3.079c-.069.032-.149.035-.22.008s-.13-.08-.161-.15-.035-.148-.008-.22.081-.13.15-.161l6.797-3.083z"/><path d="M56.776 117.446c.246 0 .487.073.691.21a1.25 1.25 0 0 1 .459.558c.094.228.119.478.071.719s-.166.464-.34.638-.395.293-.637.341a1.24 1.24 0 0 1-.719-.069 1.25 1.25 0 0 1-.771-1.148 1.25 1.25 0 0 1 .363-.883 1.25 1.25 0 0 1 .404-.271 1.26 1.26 0 0 1 .477-.095z"/></g><path d="M70.945 123.163c.202-.578.736-.312.534.27-1.235 4.789-4.591 8.152-9.538 9.65-.578.212-.794-.318-.219-.526 4.386-1.619 7.868-4.872 9.237-9.394h-.014zm-28.308-12.74c-.304.534-.722.068-.414-.465a16.34 16.34 0 0 1 14.129-8.21c.616 0 .585.646-.031.65-4.981.294-10.324 3.554-13.684 8.025z" class="B G"/><path d="M41.891 105.342a.46.46 0 0 0 .267.323c.067.029.139.041.212.037s.143-.026.206-.063l11.05-6.284a.46.46 0 0 0 .092-.739c-5.053-4.861-13.424-.099-11.826 6.726zm29.704.086a.47.47 0 0 1-.094.194.48.48 0 0 1-.171.131c-.066.03-.139.043-.212.04a.47.47 0 0 1-.207-.061L59.827 99.5c-.063-.036-.117-.085-.157-.145s-.066-.129-.076-.2-.002-.145.022-.213.063-.13.115-.181c5.032-4.885 13.424-.164 11.864 6.668z" class="E"/><g class="B"><path d="M64.021 97.148c.787 0 1.775.342 1.775.759s-.907.52-1.69.52-1.786.027-1.786-.404.917-.872 1.7-.876zM44.142 99.18c.561-.547 1.502-.995 1.803-.684s-.294 1.002-.859 1.547-1.266 1.259-1.567.947.058-1.266.623-1.809z" class="G"/></g><path d="M54.751 98.334c-.109-.002-.216-.025-.316-.069a.83.83 0 0 1-.44-.456c-.04-.101-.059-.209-.057-.318a.83.83 0 0 1 .253-.581c.078-.075.171-.135.272-.174a.83.83 0 0 1 .318-.057h4.174a.83.83 0 0 1 .813.843.83.83 0 0 1-.843.813h-4.174z" class="E"/><g class="B"><path d="M57.977 96.981c.037-.004.074-.001.11.011s.068.03.096.055.05.055.065.089.023.071.023.108-.008.074-.023.108-.037.064-.065.089-.06.043-.096.055-.073.015-.11.011h-3.195c-.037.004-.074.001-.11-.011s-.068-.03-.096-.055-.05-.055-.065-.089-.023-.071-.023-.108.008-.074.023-.108.037-.064.065-.089.06-.043.096-.055.073-.015.11-.011h3.195z" class="G"/><path d="M46.311 136.577a.37.37 0 0 1-.214.173c-.045.013-.093.018-.14.013a.37.37 0 0 1-.134-.041.35.35 0 0 1-.108-.09c-.03-.036-.052-.078-.066-.124s-.018-.092-.013-.139.019-.093.041-.135l1.177-2.155c.045-.084.122-.146.214-.173s.19-.017.274.028a.36.36 0 0 1 .174.214c.028.092.017.189-.028.273l-1.177 2.156zm-1.994-40.119c.263-.253.684-.462.838-.318s-.137.465-.397.718-.588.582-.729.438.038-.585.287-.838zm24.097-.622c.342 0 .787.144.787.342s-.4.229-.749.229-.79 0-.79-.178.407-.393.753-.393z" class="I"/></g></g><path d="M27.616 135.341l-.026.934 28.188.797.026-.933-28.188-.798z" class="L"/><g class="C"><path opacity=".6" d="M19.587 134.012l-.089 3.14 33.029.937c2.969.083 5.474-.342 6.158-1.026l.02-.728c-.636-.709-3.113-1.294-6.082-1.369l-33.036-.954z" class="B"/><path d="M57.241 137.12c1.84-.041 3.079-.181 3.079-.379s-1.225-.407-3.079-.554v.304l-3.14-.089v.342l3.14.089v.287z" class="L"/><path d="M55.756 137.971c1.444-.174 2.518-.496 2.928-.903l.02-.729c-.386-.427-1.444-.81-2.874-1.067l-.024.883-3.14-.089-.027.934 3.14.088-.024.883z" class="E"/><path d="M19.58 134.262l-.034 1.18 34.894.807 2.822.257c1.091.137 1.266-.13.233-.551-1.095-.445-2.781-.684-4.543-.746l-33.371-.947z" class="B I"/><path d="M23.907 137.778c-15.487-.619-15.394-4.296.116-4.136l-.116 4.136z" class="E"/><path d="M13.145 134.869c1.064-.506 3.886-1.101 9.719-.93a.44.44 0 0 1 .183.033c.058.024.11.06.153.105s.076.099.098.158.03.122.025.184-.022.124-.052.179-.07.103-.12.142-.106.066-.167.081a.43.43 0 0 1-.186.007c-5.638-.178-8.333.168-9.637.298-.263.024-.318-.12-.017-.257z" class="B I"/><path d="M23.982 135.187c11.47.26 11.515-1.115.041-1.546l-.041 1.546z" class="E"/><path d="M32.159 134.692c.342-.226-1.796-.538-7.567-.743-.198 0-.291.253 0 .264l7.567.479z" class="B I"/><path d="M23.637 137.763a.27.27 0 0 0 .017.105c.012.033.032.064.056.09a.28.28 0 0 0 .087.062c.033.014.068.022.104.023s.071-.005.104-.018a.25.25 0 0 0 .089-.056.27.27 0 0 0 .061-.086c.014-.033.022-.068.023-.103l.12-4.133c-.005-.067-.035-.13-.084-.177s-.113-.073-.181-.075-.133.02-.185.064a.27.27 0 0 0-.095.171l-.116 4.133z" class="E"/><path d="M23.73 137.515c0 .102.038.191.089.191s.096-.082.099-.188l.11-3.763c0-.103-.038-.192-.092-.192s-.096.083-.099.189l-.106 3.763z" class="B I"/></g><g class="H"><use href="#C"/><use href="#C" y="13.99"/></g><g class="C"><path d="M53.895 156.805h49.122c-1.577 0-2.867 2.61-2.867 5.815 0 3.195 1.29 5.816 2.867 5.816H53.895v-11.631z" fill="#edeaea"/><path d="M53.895 160.131h46.525l.075-.288h-46.6v.288zm0 .83h46.371l.048-.288H53.895v.288zm0 4.439h46.604l-.072-.274H53.895v.274zm0 .807h46.867l-.106-.287H53.895v.287zm0-2.69h46.286l-.021-.29H53.895v.29z" fill="#c2cef2"/><path d="M23.986 154.424h44.77v2.394H24.335c-1.542 0-3.022.613-4.112 1.704s-1.703 2.57-1.703 4.112.613 3.022 1.703 4.112 2.57 1.704 4.112 1.704h44.421v2.394h-44.77a8.21 8.21 0 0 1-3.143-.633c-.996-.416-1.9-1.024-2.66-1.79s-1.363-1.673-1.772-2.671a8.21 8.21 0 0 1 1.794-8.925c1.534-1.533 3.613-2.396 5.781-2.401z" class="E"/><path d="M24.335 156.805h41.144c-1.581 0-2.87 2.61-2.87 5.815 0 3.195 1.29 5.816 2.87 5.816H24.335a5.82 5.82 0 0 1-4.112-1.703c-1.091-1.091-1.703-2.57-1.703-4.113s.613-3.021 1.703-4.112 2.57-1.703 4.112-1.703z" class="B"/><path d="M62.886 160.122l-40.186-.11v-.044l40.254-.103-.068.257zm-.158.825l-40.025-.112v-.041l40.087-.113c-.034.089-.048.178-.062.266zm.233 4.442l-40.261-.112v-.045l40.193-.109.068.266zm.267.809l-40.528-.113v-.045l40.432-.113c.027.096.062.185.096.271zm-.585-2.697l-39.943-.109v-.045l39.926-.109.017.263z" class="K"/><g class="F"><path d="M24.335 156.805h78.682c-.77 0-1.475.626-1.991 1.638H24.335a5.82 5.82 0 0 0-3.805 1.423c-1.056.916-1.747 2.181-1.946 3.565a5.93 5.93 0 0 1-.058-.821c.003-1.539.616-3.015 1.705-4.103s2.565-1.701 4.104-1.702zm9.151 2.303h5.429v8.269l-2.713-1.567-2.716 1.567v-8.269z" class="J"/></g><path d="M33.486 159.108h5.429l-.948 7.667-2.521-1.567-2.904 1.567.944-7.667z" fill="#ff264e"/><path d="M137.685 135.368l-9.795 51.909c.059 0-36.046-.369-53.667-.106l4.204-51.01 59.258-.793z" class="F G"/><path d="M84.088 96.428h58.663l5.001 80.666H89.09a7.62 7.62 0 0 0-3.071.612c-.97.415-1.844 1.026-2.566 1.796s-1.276 1.68-1.628 2.675a7.62 7.62 0 0 0-.416 3.103l-5.001-80.662c-.078-1.053.064-2.109.415-3.104a7.63 7.63 0 0 1 4.193-4.472 7.63 7.63 0 0 1 3.071-.614z" fill="#6180d6"/><path d="M84.154 96.431h3.133l5.149 83.047h-3.134l-5.148-83.047z" fill="#506ec2"/><use href="#D" stroke="#99b2f7" stroke-width="2.463" stroke-miterlimit="22.93" class="H"/><path d="M89.566 176.343h58.157v2.394H89.911c-1.541.005-3.018.619-4.107 1.709a5.83 5.83 0 0 0-1.708 4.107c0 1.542.613 3.022 1.703 4.112s2.57 1.704 4.112 1.704h57.773v2.394H89.542a8.21 8.21 0 0 1-8.176-8.186c-.002-2.179.86-4.269 2.398-5.812s3.624-2.415 5.802-2.422z" fill="#506ec2"/><path d="M89.911 178.72h55.036c-1.577 0-2.873 2.613-2.877 5.815 0 3.192 1.283 5.816 2.86 5.816H89.894a5.82 5.82 0 0 1-4.112-1.703c-1.091-1.091-1.703-2.57-1.703-4.113a5.84 5.84 0 0 1 5.833-5.815z" class="B"/><path d="M89.911 178.72h55.036c-.77 0-1.474.626-1.994 1.638H89.928c-1.398.005-2.748.511-3.804 1.426a5.84 5.84 0 0 0-1.954 3.562c-.038-.271-.058-.544-.058-.818a5.84 5.84 0 0 1 1.707-4.094c1.085-1.088 2.556-1.703 4.092-1.714z" class="F J"/><path d="M142.35 182.049l-54.078-.116v-.045l54.15-.126-.072.287zm-.157.827l-53.921-.116v-.045l53.966-.116-.045.277zm.226 4.438l-54.154-.116v-.045l54.085-.116.069.277zm.267.809l-54.421-.117v-.044l54.318-.116.103.277zm-.582-2.696l-53.835-.117v-.041l53.818-.116.017.274z" class="K"/><use href="#D" class="H"/><path d="M98.857 143.548l15.736 9.329-10.013 6.384a38.33 38.33 0 0 0 4.197 3.971l11.221-7.132 11.84 7.016a33.24 33.24 0 0 0 3.763-3.944l-10.584-6.278 14.682-9.353c-.667-1.423-1.655-2.673-2.887-3.65l-.824-.633-16.373 10.434-17.556-10.41-.722.609c-1.124.989-1.978 2.247-2.48 3.657z" class="B"/><path d="M106.595 161.318l13.218-8.422.113 1.908-12.045 7.677-1.286-1.163zm27.261-.164l-14.025-8.282 1.648-.865 13.469 7.947-1.092 1.2zm-33.778-19.901l19.718 11.631-1.652.869-18.894-11.152a8.71 8.71 0 0 1 .828-1.348zm38.089-.085l-18.357 11.696-.11-1.909 17.235-10.984c.441.366.853.767 1.232 1.197z" class="D"/><path d="M124.079 138.62l.534 9.158h15.935c-.075 3.373-1.676 6.965-4.037 10.204h-11.289l.544 9.281c-1.882.92-3.702 1.447-5.282 1.447-1.444 0-3.127-.441-4.906-1.221l-.557-9.507h-11.543c-2.661-3.239-4.601-6.842-5.015-10.204h15.949l-.541-9.199c3.079 1.679 5.258 4.351 5.491 6.003.034-1.638 1.881-4.283 4.717-5.962z" class="B"/><path d="M137.825 156.013h-14.71l.718 12.062c-2 .791-4.214.851-6.254.168l-.714-12.227h-14.882c-1.375-1.902-2.427-4.018-3.113-6.263h17.628l-.574-9.812c1.96 1.55 3.263 3.394 3.441 4.646.028-1.238 1.088-3.051 2.826-4.587l.571 9.753h17.58c-.46 2.22-1.313 4.339-2.517 6.26z" class="D"/><path opacity=".1" d="M124.787 96.431a32.04 32.04 0 0 1-8.013 27.798c-3.423 3.681-7.663 6.504-12.378 8.243s-9.773 2.345-14.766 1.767l-2.343-37.808h37.5z" class="B"/><path d="M87.304 197.661c-2.03-.204-4.044-.553-6.024-1.043l-2.908-.869c.049.006.098.006.147 0 .554-.123-.889-.407-2.053-1.026-.883-.455-1.293-.89-1.861-1.116l7.03.038c4.505.072 12.541 2.302 16.763 3.643-.684.322-1.957.527-3.934.589-2.383.083-4.769.011-7.143-.216h-.017zm-2.699-4.047c4.348.609 10.208 1.991 14.43 3.035.075-.343-.133-.729-.564-1.164a7.97 7.97 0 0 0-2.884-1.71l-.393-.14-10.605-.024.017.003zm-41.315-.486l19.992.1a15.51 15.51 0 0 0-.972-.281c-1.95-.492-5.939-.752-9.753-.797-4.061-.048-7.868.161-8.778.609-.192.08-.36.207-.489.369zm21.894.106h3.363 3.363-.02c-1.266-.19-2.545-.279-3.825-.266-1.344 0-2.535.089-2.901.266h.021zm34.856 3.661c.113-.376-.116-.825-.605-1.317a5.7 5.7 0 0 0-.749-.633h.12c.824.034-.02-.51-.291-.814s.342-.359.842-.359-.257-.62-1.197-.804c-3.667-.726-15.61-1.584-21.651-1.211-3.164.198-5.761.585-5.474.858a4.04 4.04 0 0 0 .294.24c-1.276-.165-2.562-.244-3.849-.236-1.018-.035-2.037.044-3.038.236a12.25 12.25 0 0 0-.527-.24c-.636-.273-4.564-.66-8.409-.858-7.331-.373-16.315.485-17.495 1.211-.301.184 1.061.804 1.57.804a5.79 5.79 0 0 1 2.08.359c.776.304 1.796.848 2.504.814h.106c.407.198.879.407 1.427.633 1.267.516 2.565.953 3.886 1.307-.192.342-.342.605-.462.797-.41.626 4.15.845 3.763.256a2.22 2.22 0 0 1-.192-.362c2.119.371 4.263.583 6.414.636 2.443.068 4.912.044 6.685-.233 1.512-.232 2.333-.615 2.655-1.132s-.144-1.368-1.31-2.179a10.19 10.19 0 0 0-1.492-.859h.038c.103-.034.096-.106.017-.191h6.945c.221.088.45.152.684.191h.075a9.57 9.57 0 0 0 1.457.859c1.984.93 4.056 1.66 6.185 2.179 2.153.534 4.341.912 6.548 1.132 2.485.243 4.983.321 7.478.233 2.09-.065 3.442-.284 4.208-.626l1.026.342c1.635.588 5.446.369 2.877-.257l-3.147-.786.003.01zm-46.295-3.281c-.833.214-1.616.591-2.302 1.11s-1.263 1.168-1.697 1.911c-1.151-.315-2.282-.699-3.387-1.15-1.734-.711-2.641-1.265-2.983-1.71a.95.95 0 0 1-.089-.14l10.458-.024v.003zm20.023-.386c-.017-.046-.024-.094-.022-.142s.016-.096.039-.139c.257-.492 3.342-.752 7.006-.797 3.9-.048 8.416.161 10.872.609.599.109 1.19.229 1.758.369l-19.653.1zm-21.169 4.053c-.404-1.347-.027-3.564 4.221-3.636l6.962-.038c.205.226 1.29.661 1.97 1.116.903.605.438.889 1.42 1.026a1.27 1.27 0 0 0 .195 0 .82.82 0 0 1 .079.869c-.294.472-1.047.828-2.442 1.043-1.687.26-4.071.281-6.401.216-2.012-.048-4.018-.247-6-.596h-.003z" class="F G"/><path d="M70.316 186.63c.527-.147.859 1.711.684 3.226-.181 1.601-.756 2.494-1.303 2.268-.739-.297.178-.985.308-2.442s-.472-2.829.311-3.052zm9.688 0c-.53-.147-.862 1.711-.684 3.226.181 1.601.76 2.494 1.307 2.268.739-.297-.181-.985-.308-2.442s.479-2.829-.315-3.052z" class="L"/><g class="H"><path d="M103.208 185.781l-39.987.479c-5.094.034-11.819 8.176-14.081 10.57-1.43 1.516 2.597 2.053 3.195.62 1.091-2.583 5.86-10.167 10.875-10.376s39.341-.021 40.255.017c.787.031.8-1.32-.257-1.31z"/><path d="M47.074 185.781l39.987.479c5.094.034 11.816 8.176 14.077 10.57 1.434 1.516-2.593 2.053-3.195.62-1.091-2.583-5.857-10.167-10.872-10.376s-39.341-.021-40.258.017c-.787.031-.787-1.32.26-1.31z"/></g><g class="E"><path d="M64.442 196.777c1.653-.454 3.13-1.395 4.239-2.702s1.798-2.918 1.976-4.622c.185-1.523-.068-3.025-.995-4.061-1.057-1.191-4.478-1.823-8.07-1.923-3.831-.113-7.831.387-9.452 1.468a5.2 5.2 0 0 0-2.083 2.47c-.404 1.064-.448 2.395.048 4.105a7.6 7.6 0 0 0 2.504 3.955c1.255 1.005 2.986 1.655 5.32 1.826 2.131.154 4.447.106 6.5-.523l.014.007zm-6.572 1.334c-2.508-.185-4.386-.896-5.768-2.005-1.362-1.125-2.334-2.651-2.778-4.361-.148-.502-.257-1.014-.325-1.533h-.109c-.739.082-.821-1.228-1.064-1.967s-.913-.869-1.403-.869-.78-1.498-.181-1.943c2.333-1.748 12.398-3.831 18.815-2.922 3.37.476 6.5 1.413 6.671 2.053.034.147.075.342.113.582.766-.38 2.053-.572 3.311-.572v.808c-1.293 0-2.586.219-3.236.65 0 .609-.089 1.197-.441 1.389l-.055.027a7.64 7.64 0 0 1 0 2.073 9.31 9.31 0 0 1-6.77 8.002c-2.128.691-4.543.749-6.78.588z"/><path d="M85.888 196.777a8.51 8.51 0 0 1-4.233-2.704c-1.107-1.307-1.793-2.917-1.969-4.62-.185-1.523.068-3.025.992-4.061 1.06-1.191 4.468-1.823 8.063-1.929 3.828-.113 7.827.386 9.452 1.467.939.581 1.669 1.446 2.083 2.47.404 1.064.449 2.395-.047 4.105-.398 1.549-1.275 2.933-2.505 3.955-1.255 1.006-2.987 1.655-5.32 1.827-2.135.153-4.447.106-6.517-.524v.014zm6.575 1.334c2.504-.185 4.382-.896 5.768-2.005 1.36-1.126 2.331-2.652 2.774-4.361a10.07 10.07 0 0 0 .342-1.533h.11c.735.082.817-1.228 1.064-1.967s.91-.869 1.402-.869.777-1.498.181-1.943c-2.333-1.748-12.397-3.831-18.815-2.922-3.37.476-6.5 1.413-6.671 2.053a5.92 5.92 0 0 0-.113.582c-.766-.38-2.052-.572-3.311-.572l-.517.452.517.342c1.293 0 2.586.219 3.233.65 0 .609.089 1.197.441 1.389l.055.027c-.1.687-.106 1.385-.017 2.073.196 1.86.946 3.617 2.154 5.044a9.32 9.32 0 0 0 4.619 2.958c2.131.705 4.547.763 6.784.602z"/></g><g class="B"><path d="M64.442 196.778a8.51 8.51 0 0 0 6.216-7.324c.185-1.522-.069-3.024-.995-4.061-1.057-1.19-4.478-1.823-8.07-1.922-3.831-.113-7.831.386-9.452 1.467a5.21 5.21 0 0 0-2.083 2.47c-.404 1.064-.448 2.395.048 4.105a7.6 7.6 0 0 0 2.504 3.955c1.256 1.006 2.986 1.656 5.32 1.827 2.124.161 4.457.113 6.514-.517zm21.446 0a8.51 8.51 0 0 1-4.233-2.704 8.5 8.5 0 0 1-1.969-4.621c-.185-1.522.068-3.024.992-4.06 1.061-1.191 4.468-1.824 8.063-1.93 3.828-.113 7.827.387 9.452 1.468.939.581 1.669 1.446 2.083 2.47.404 1.064.449 2.395-.047 4.105-.398 1.549-1.275 2.933-2.504 3.955-1.256 1.005-2.987 1.655-5.32 1.826-2.135.168-4.457.12-6.517-.509z" class="I"/><path opacity=".35" d="M62.855 183.522l-1.262-.059c-3.831-.113-7.831.387-9.452 1.468a5.2 5.2 0 0 0-2.083 2.47c-.404 1.064-.448 2.395.048 4.105a8.96 8.96 0 0 0 .434 1.204 10.61 10.61 0 0 0 1.447.096 11 11 0 0 0 10.868-9.284zm17.929 9.289c-.575-1.041-.947-2.181-1.098-3.36-.185-1.522.068-3.024.992-4.06 1.061-1.191 4.468-1.824 8.063-1.93l3.322.059a11 11 0 0 1-3.717 6.656c-1.993 1.705-4.529 2.641-7.151 2.642l-.411-.007z"/><path d="M29.976 86.901l1.43 2.039 2.378-.739-1.495 1.988 1.437 2.035-2.354-.811-1.492 1.994.041-2.487-2.354-.8 2.378-.729.031-2.49zm66.219-9.916l.195 2.337 2.282.527-2.162.907.205 2.337-1.529-1.775-2.159.913 1.214-2.005-1.536-1.769 2.282.537 1.208-2.008zM75.57 62.731l1.002 2.114 2.323-.308-1.704 1.608 1.013 2.114-2.056-1.122-1.697 1.615.431-2.302-2.063-1.115 2.326-.301.424-2.302zm32.554 14.935a.88.88 0 0 1 .493.14c.147.094.262.231.331.391a.88.88 0 0 1-1.139 1.162.88.88 0 0 1 .332-1.693h-.017zm3.199 0a.88.88 0 0 1 .858 1.053c-.034.17-.118.327-.241.449s-.28.206-.451.24a.88.88 0 0 1-.507-.051c-.161-.067-.298-.179-.394-.324s-.148-.314-.148-.488c0-.116.023-.23.067-.337a.89.89 0 0 1 .192-.286.88.88 0 0 1 .624-.256zm3.195 0a.88.88 0 0 1 .812.543c.066.161.084.337.05.508a.88.88 0 0 1-.691.691.88.88 0 0 1-1.051-.863.88.88 0 0 1 .88-.879zm-3.195-4.067c-4.349 0-7.869 2.213-7.869 4.947s3.524 4.947 7.869 4.947c.735.001 1.469-.065 2.192-.195a7.76 7.76 0 0 1-2.148 3.996c3.079-1.649 7.817-5.326 7.817-8.747.01-2.733-3.517-4.947-7.861-4.947zm-70.961 2.145a.88.88 0 0 0-.492.146c-.146.096-.26.234-.328.395s-.086.339-.052.511a.88.88 0 0 0 1.602.319.88.88 0 0 0-.732-1.372h.003zm-3.199 0c-.175-.001-.346.051-.492.147a.88.88 0 0 0-.136 1.36.88.88 0 0 0 .453.242c.172.034.349.016.511-.051s.299-.181.396-.326.148-.317.147-.492a.88.88 0 0 0-.879-.879zm-3.195 0c-.175-.001-.346.051-.492.147a.88.88 0 0 0-.136 1.359.88.88 0 0 0 .453.242c.172.034.349.016.511-.051s.299-.181.396-.326.148-.317.147-.492c-.001-.233-.094-.456-.258-.621s-.388-.258-.621-.258zm3.195-4.067c4.348 0 7.868 2.217 7.868 4.947s-3.524 4.95-7.868 4.95a12.32 12.32 0 0 1-2.193-.195 7.73 7.73 0 0 0 2.138 3.992c-3.079-1.645-7.817-5.323-7.817-8.747 0-2.73 3.524-4.947 7.872-4.947z"/></g><g fill="#b5c4f2"><path d="M133.702 83.332l.281-.469c.01-.017.018-.037.021-.056s.002-.041-.003-.06a.17.17 0 0 0-.025-.055c-.012-.017-.027-.03-.044-.041a.16.16 0 0 0-.119-.019c-.041.009-.075.035-.097.07l-.28.469.136.075.13.086zm-3.561 5.348l-3.038 5.049-.037.065c-.103.175-.243.414-.441.465-.06.009-.121.006-.18-.008a.46.46 0 0 1-.163-.077.37.37 0 0 1-.128-.106.38.38 0 0 1-.07-.151c-.008-.222.063-.439.202-.612a.12.12 0 0 0 .023-.047c.005-.017.006-.035.004-.052s-.008-.034-.017-.05-.02-.029-.034-.039-.03-.019-.047-.023-.035-.006-.052-.004-.034.008-.05.017-.028.02-.039.034c-.182.235-.271.528-.25.824a.63.63 0 0 0 .318.438.73.73 0 0 0 .273.114c.098.019.198.019.295-.002.134-.053.257-.133.36-.234a1.09 1.09 0 0 0 .242-.354l3.079-5.131c-.191.138-.352.314-.472.517.114-.195.189-.41.222-.633z"/><path d="M133.702 83.333l-.13-.086-.136-.075a7.09 7.09 0 0 0-5.297-.705c-1.79.465-3.326 1.612-4.282 3.195.251-.385.641-.657 1.088-.76a1.77 1.77 0 0 1 2.108 1.269 1.77 1.77 0 0 1-.162 1.317c.251-.384.641-.657 1.088-.759s.918-.028 1.311.209.679.617.798 1.06.06.915-.162 1.317a1.7 1.7 0 0 1 .472-.517 1.77 1.77 0 0 1 1.142-.341c.409.022.797.185 1.099.462a1.77 1.77 0 0 1 .318 2.222 1.77 1.77 0 0 1 2.398-.55c.393.237.679.617.798 1.06a1.77 1.77 0 0 1-.162 1.317 7.08 7.08 0 0 0-2.289-9.637zM15.533 91.105l-.342-.475c-.012-.018-.021-.038-.026-.059s-.005-.043-.001-.064.012-.042.024-.06.027-.034.045-.046.037-.022.059-.027.043-.005.065-.002.042.012.06.024a.16.16 0 0 1 .046.046l.342.472-.137.092c-.048.014-.085.048-.133.099zm4.153 5.4l3.578 5.131c0 .021.031.041.044.065.12.178.287.424.5.462a.5.5 0 0 0 .376-.113.39.39 0 0 0 .191-.287c-.007-.236-.098-.462-.257-.636-.013-.013-.023-.029-.03-.046s-.011-.035-.011-.054.004-.036.011-.053.017-.033.03-.046a.14.14 0 0 1 .045-.031c.017-.007.035-.011.054-.011s.037.003.054.011.032.018.045.031a1.27 1.27 0 0 1 .342.855.68.68 0 0 1-.1.279.69.69 0 0 1-.208.211c-.083.065-.178.112-.28.139a.78.78 0 0 1-.312.018c-.294-.097-.54-.304-.684-.578l-3.643-5.207a1.86 1.86 0 0 1 .537.513 1.86 1.86 0 0 1-.284-.653z"/><path d="M15.533 91.105l.133-.099.137-.092a7.53 7.53 0 0 1 5.57-1.124 7.52 7.52 0 0 1 4.768 3.091 1.88 1.88 0 0 0-3.079 2.148 1.88 1.88 0 0 0-3.376 1.478c.052.234.15.456.287.653a1.88 1.88 0 0 0-3.078 2.151 1.88 1.88 0 0 0-3.306.786c-.1.466-.018.953.227 1.362a7.53 7.53 0 0 1-1.245-5.526c.32-1.933 1.383-3.666 2.962-4.829zm44.52-29.442l-.113-.537a.16.16 0 0 0-.022-.056c-.011-.017-.026-.032-.042-.043s-.036-.02-.056-.023-.041-.004-.061 0c-.041.008-.077.031-.1.065s-.033.076-.026.117l.099.534.154-.031.168-.024zm.879 6.367l1.084 5.792v.075a.93.93 0 0 1-.02.64c-.081.1-.197.164-.325.178-.054.014-.111.015-.166.004s-.107-.033-.152-.066a.92.92 0 0 1-.256-.592.12.12 0 0 0-.014-.05c-.008-.015-.019-.03-.032-.041s-.029-.02-.045-.026-.034-.008-.052-.006a.13.13 0 0 0-.05.013c-.016.008-.03.018-.041.031a.13.13 0 0 0-.032.096 1.2 1.2 0 0 0 .359.783.62.62 0 0 0 .252.118c.092.02.187.019.278-.002.099-.013.194-.046.279-.097s.161-.118.22-.198a1.11 1.11 0 0 0 .058-.838l-1.098-5.891a1.71 1.71 0 0 0 0 .701 1.75 1.75 0 0 0-.246-.626z"/><path d="M60.053 61.664l-.154.024-.154.034c-1.812.381-3.403 1.456-4.432 2.995s-1.415 3.42-1.075 5.24a1.77 1.77 0 0 1 .28-1.325 1.77 1.77 0 0 1 2.46-.46 1.77 1.77 0 0 1 .739 1.135 1.77 1.77 0 0 1 1.088-1.977 1.77 1.77 0 0 1 2.145.701c.123.19.208.403.25.626a1.71 1.71 0 0 1 0-.701 1.77 1.77 0 0 1 1.756-1.398 1.77 1.77 0 0 1 1.713 1.449 1.77 1.77 0 0 1 .256-1.356c.131-.197.301-.366.498-.497s.419-.22.652-.264a1.77 1.77 0 0 1 .704.011c.231.051.45.147.644.284a1.77 1.77 0 0 1 .728 1.172 7.09 7.09 0 0 0-8.097-5.692z"/></g></g><path d="M5.937 146.535c-.071-.046-.107-.112-.107-.199s.028-.166.084-.237l-.031-1.615c.031-.122.077-.212.138-.268.066-.056.161-.092.283-.107l2.189.046c.194.041.291.125.291.253 0 .214-.209.339-.628.375l-.367.007h-.497a12.95 12.95 0 0 1-.804-.061l.031 1.316 1.561.008c.184.036.275.12.275.252s-.074.227-.222.299a.3.3 0 0 1-.084.03l-1.324-.023a1.06 1.06 0 0 0-.199.016l.031 1.316-.023.635 1.775-.023c.163.026.245.095.245.207 0 .076-.036.153-.107.229-.066.077-.145.125-.237.146l-1.959.03c-.117 0-.199-.02-.245-.061s-.069-.12-.069-.222c.02-.143.031-.372.031-.688v-.536l-.031-1.125zm6.202-2.388a.39.39 0 0 1 .199-.046c.082 0 .156.036.222.108.066.066.1.145.1.237l.023 3.619.031.636c0 .112-.031.219-.092.321s-.13.145-.207.145c-.071 0-.128-.002-.168-.007l-.1-.031c-.031-.01-.061-.03-.092-.061l-.077-.077c-.02-.02-.048-.058-.084-.114l-.077-.146-.099-.183c-.041-.092-.135-.276-.283-.551l-.39-.743c-.403-.739-.778-1.324-1.125-1.752l-.138 3.451c-.015.123-.11.184-.283.184-.082 0-.15-.021-.207-.061-.051-.041-.077-.107-.077-.199l.054-1.516.061-1.714v-.436c0-.367.028-.574.084-.62s.115-.069.176-.069c.281 0 .709.459 1.286 1.378l.643 1.125.566 1.048-.092-3.176c0-.438.049-.688.145-.75zm3.369-.061c.245 0 .487.061.727.184.245.122.367.26.367.413 0 .235-.097.352-.291.352-.072 0-.197-.046-.375-.138s-.329-.137-.451-.137c-.439 0-.806.196-1.102.589-.291.393-.436.893-.436 1.5 0 .454.099.852.298 1.194s.434.512.704.512c.276 0 .49-.089.643-.268.158-.183.237-.39.237-.619 0-.128-.01-.233-.031-.314-.015-.087-.059-.163-.13-.23s-.166-.107-.283-.107-.23-.025-.337-.076-.153-.12-.153-.207.025-.168.076-.245.12-.122.207-.138c.347 0 .579.036.696.107l.275.176c.061.046.112.123.153.23l.092.268c.026.071.043.186.054.344l.015.934c0 .352-.026.569-.077.65-.046.067-.122.102-.23.107s-.181-.022-.222-.068-.066-.148-.077-.306a1.65 1.65 0 0 1-.467.275c-.184.071-.347.107-.49.107-.449 0-.826-.237-1.133-.712s-.459-1.056-.459-1.729c0-.357.059-.707.176-1.048.117-.347.276-.638.475-.873.418-.485.934-.727 1.546-.727zm1.351 4.018l.008-.597.069-3.199c0-.061.033-.11.099-.145s.151-.054.253-.054c.245 0 .367.087.367.26 0 .056-.031.485-.092 1.286l-.084 1.439v.811c0 .382.026.592.077.627.076.026.166.039.268.039l1.102-.077c.24 0 .36.087.36.26 0 .138-.066.24-.199.306a1.06 1.06 0 0 1-.383.107l-.467.008c-.801 0-1.235-.025-1.301-.076-.036-.031-.056-.146-.061-.345l-.015-.428v-.222zm3.398-3.804a.51.51 0 0 1 .276-.076c.102 0 .166.059.191.176l.031 2.655-.061 1.829c-.01.077-.059.146-.145.207a.44.44 0 0 1-.253.084.19.19 0 0 1-.214-.222c.051-.51.076-1.143.076-1.898l-.046-2.571c.02-.071.069-.133.145-.184zm3.079-.199c.332 0 .612.057.842.169.235.112.352.255.352.428 0 .077-.02.143-.061.199-.036.056-.092.084-.168.084-.071 0-.23-.056-.475-.168a1.58 1.58 0 0 0-.673-.176c-.199 0-.406.064-.62.191s-.321.284-.321.467c0 .25.13.434.39.551.194.087.472.166.834.237s.658.207.888.421.344.528.344.957c0 .653-.196 1.135-.589 1.446-.219.174-.531.26-.934.26-.398 0-.796-.109-1.194-.329-.26-.137-.39-.275-.39-.413 0-.051.02-.107.061-.168a.55.55 0 0 1 .184-.153c.076-.041.145-.046.207-.016a4.06 4.06 0 0 1 .314.146l.314.145c.214.082.416.123.605.123s.37-.092.543-.276c.178-.189.268-.418.268-.689 0-.357-.179-.607-.536-.749a2.66 2.66 0 0 0-.589-.161c-.454-.082-.796-.217-1.026-.406-.23-.194-.344-.484-.344-.872s.166-.691.498-.911.758-.337 1.278-.337zm2.487 2.136a6.73 6.73 0 0 0 1.094.099l.635-.008-.015-1.117v-.727c0-.127.005-.207.015-.237.01-.036.043-.069.099-.1a.53.53 0 0 1 .245-.046c.153 0 .23.092.23.276v2.709l-.038 1.852c-.005.148-.13.222-.375.222-.122 0-.184-.074-.184-.222l.031-2.028-.673.015c-.281 0-.635-.03-1.064-.092l.092 2.113c.005.081-.031.145-.107.191s-.173.061-.291.061c-.112 0-.173-.059-.184-.176l-.099-2.143.046-2.387c0-.102.038-.176.115-.222.077-.051.158-.077.245-.077.143 0 .214.069.214.207l-.031 1.837z" class="H"/><path d="M32.285 149.152l-.987-.023c-.056-.214-.089-1.178-.099-2.892v-.544c0-.433.041-.763.122-.987.082-.23.253-.413.513-.551.133-.066.316-.099.551-.099a2.56 2.56 0 0 1 .551.045c.342.072.574.204.696.398s.191.454.191.781c0 .454-.12.788-.36 1.002.122.016.245.077.367.184a1.76 1.76 0 0 1 .298.329c.133.204.199.482.199.834 0 .551-.168.944-.505 1.179-.332.229-.844.344-1.538.344zm-.474-3.727l.015.873c.01 0 .097-.01.26-.031l.413-.076c.515-.123.773-.416.773-.88 0-.23-.069-.398-.207-.506s-.309-.16-.528-.16c-.276 0-.462.048-.559.145l-.099.107c-.026.026-.043.069-.054.13l-.023.13v.146l.008.122zm1.722 1.63c-.051-.056-.13-.107-.237-.153a1.23 1.23 0 0 0-.467-.069c-.199 0-.541.034-1.025.1l.038 1.615c.597 0 1.015-.039 1.255-.115.24-.082.4-.179.482-.291a.61.61 0 0 0 .13-.367l-.008-.276c0-.056-.015-.13-.046-.222-.026-.097-.066-.171-.122-.222zm3.458-2.977c.357 0 .661.115.911.345.49.439.735 1.132.735 2.081s-.27 1.686-.811 2.227c-.281.271-.605.419-.972.444-.485 0-.862-.166-1.133-.497s-.464-.702-.582-1.11c-.112-.413-.168-.811-.168-1.194 0-.653.156-1.191.467-1.614.327-.455.844-.682 1.553-.682zm-.053.636c-.684 0-1.11.324-1.278.972-.051.173-.077.395-.077.665s.051.584.153.942c.138.479.342.816.612 1.01.158.122.35.183.574.183s.426-.099.605-.298.301-.462.367-.773.1-.625.1-.941c0-.561-.082-.995-.245-1.301-.158-.306-.428-.459-.811-.459zm4.306-.636c.357 0 .661.115.911.345.49.439.735 1.132.735 2.081s-.27 1.686-.811 2.227c-.281.271-.605.419-.972.444-.485 0-.862-.166-1.133-.497s-.464-.702-.582-1.11c-.112-.413-.168-.811-.168-1.194 0-.653.156-1.191.467-1.614.327-.455.844-.682 1.554-.682zm-.054.636c-.684 0-1.11.324-1.278.972-.051.173-.077.395-.077.665s.051.584.153.942c.138.479.342.816.612 1.01.158.122.349.183.574.183s.426-.099.605-.298.301-.462.367-.773.099-.625.099-.941c0-.561-.082-.995-.245-1.301-.158-.306-.428-.459-.811-.459zm2.523 3.581l-.077-1.99-.122-1.783a.41.41 0 0 1 .115-.29c.077-.087.163-.131.26-.131.122 0 .204.077.245.23.082.51.133 1.245.153 2.204.459-.423.814-.786 1.064-1.087.255-.301.523-.686.804-1.155.082-.138.201-.207.36-.207.082 0 .148.023.199.069.056.041.084.092.084.153 0 .163-.145.446-.436.849l-.911 1.164c.429.428.796.923 1.102 1.484l.161.268.153.253c.097.168.145.311.145.428a.45.45 0 0 1-.092.291c-.056.071-.128.107-.214.107s-.199-.112-.337-.337l-.597-.964c-.255-.418-.526-.785-.811-1.102l-.643.574.023.819-.015.52c-.031.332-.166.498-.406.498-.148 0-.217-.089-.207-.268v-.597z" fill="#cf0228"/><path d="M95.263 114.135l-.102-1.168-.491-6.261c-.012-.12.044-.215.167-.285s.286-.104.486-.104c.482 0 .74.169.773.509.011.11.035.948.071 2.516l.116 2.816.159 1.587c.075.749.166 1.159.273 1.228.156.05.334.075.534.075l2.153-.149c.472 0 .724.169.758.509.027.269-.083.469-.331.599a1.97 1.97 0 0 1-.732.21l-.917.015c-1.576 0-2.433-.05-2.574-.15-.076-.06-.139-.285-.188-.674l-.114-.839-.043-.434zm5.714-3.071c-.149-.089-.232-.219-.249-.389a.67.67 0 0 1 .119-.464l-.376-3.16c.036-.24.109-.415.218-.525.12-.11.298-.179.536-.209l4.314.089c.389.08.596.245.621.495.042.419-.345.664-1.161.734l-.721.015h-.978c-.191 0-.721-.04-1.592-.12l.317 2.576 3.073.015c.368.07.565.234.591.494.025.25-.101.444-.378.584-.028.02-.082.04-.16.06l-2.608-.045a2.03 2.03 0 0 0-.389.03l.318 2.576.079 1.243 3.488-.045c.326.05.5.185.522.405.015.15-.04.299-.166.449-.115.15-.261.245-.438.285l-3.847.06c-.231 0-.396-.04-.494-.12-.099-.09-.159-.235-.179-.435.012-.279-.013-.728-.074-1.348l-.105-1.048-.281-2.202zm9.258-4.717c.251 0 .472.109.665.329s.459.674.799 1.363c.794 1.628 1.667 4.179 2.616 7.653.014.04.025.1.033.18.007.07-.035.15-.126.24-.083.08-.214.12-.395.12a.83.83 0 0 1-.448-.12c-.13-.09-.224-.23-.283-.42l-.341-1.153-.679-1.977c-.128-.07-.537-.145-1.227-.225l-1.352-.119c-.22 0-.349.02-.385.06-.165.159-.289 1.372-.374 3.639-.021.19-.202.285-.543.285s-.526-.145-.555-.435c-.072-.719.056-2.092.386-4.118s.636-3.37.921-4.029c.357-.849.786-1.273 1.288-1.273zm.106 1.662c-.151 0-.367.444-.65 1.333-.283.879-.414 1.423-.393 1.633.005.049.018.084.04.104.089.08.412.15.97.21l1.107.09c.181 0 .28-.01.298-.03.018-.03.02-.11.007-.24-.014-.139-.205-.689-.572-1.647-.367-.969-.637-1.453-.807-1.453zm6.059 7.564c.018.179-.046.344-.192.494a.71.71 0 0 1-.506.209c-.18 0-.318-.119-.412-.359l-.439-3.939-.422-3.774c-.076-.759.208-1.278.852-1.558.517-.249 1.147-.374 1.89-.374.381 0 .797.095 1.247.284a3.84 3.84 0 0 1 1.255.809c.386.35.6.734.642 1.153.041.41-.105.854-.438 1.333a5.31 5.31 0 0 1-1.289 1.258c-.526.36-1.046.629-1.56.809.998.649 1.881 1.348 2.648 2.097.766.739 1.17 1.313 1.211 1.722.013.13-.04.255-.159.375-.119.11-.274.164-.465.164-.18 0-.344-.079-.49-.239-.274-.529-.751-1.084-1.431-1.663-.671-.589-1.444-1.148-2.32-1.677l.378 2.876zm-.51-4.494c.67-.03 1.394-.309 2.174-.838.79-.53 1.164-1.004 1.122-1.423-.043-.43-.286-.759-.731-.989s-.957-.344-1.539-.344c-.572 0-1.022.07-1.349.21l.323 3.384zm11.003-4.687c.094-.06.221-.09.382-.09s.313.07.457.209c.144.13.224.285.242.465l.754 7.084.185 1.243c.022.22-.018.429-.118.629-.102.19-.228.285-.378.285a2.88 2.88 0 0 1-.333-.015l-.201-.06c-.063-.02-.127-.06-.193-.12l-.166-.15c-.044-.04-.106-.115-.188-.225l-.179-.284-.231-.36c-.098-.179-.32-.539-.665-1.078l-.913-1.453c-.937-1.448-1.789-2.591-2.555-3.43l.404 6.755c-.006.24-.18.36-.521.36-.16 0-.3-.04-.418-.12-.109-.08-.172-.21-.19-.39l-.191-2.965-.215-3.355-.085-.854c-.072-.719-.057-1.123.044-1.213a.49.49 0 0 1 .333-.135c.552 0 1.484.899 2.798 2.696l1.484 2.202 1.319 2.052-.802-6.216c-.086-.858-.039-1.348.14-1.467zm-36.709 19.06a.49.49 0 0 1-.25-.39c-.017-.17.023-.324.119-.464l-.376-3.16c.036-.24.109-.415.219-.524.12-.11.298-.18.536-.21l4.314.09c.389.08.596.244.621.494.042.419-.345.664-1.161.734l-.721.015h-.978c-.191 0-.722-.04-1.593-.12l.318 2.576 3.072.015c.368.07.565.235.591.494.025.25-.101.445-.378.584a.53.53 0 0 1-.16.06l-2.608-.045c-.161 0-.29.01-.388.03l.318 2.576.079 1.244 3.487-.045c.326.05.5.184.522.404.015.15-.04.3-.166.449a.75.75 0 0 1-.438.285l-3.847.06c-.231 0-.395-.04-.494-.12-.099-.09-.159-.235-.179-.434.012-.28-.013-.729-.075-1.348l-.105-1.049-.28-2.201zm11.73-4.673c.095-.06.222-.09.383-.09s.313.07.457.21a.7.7 0 0 1 .242.464l.754 7.084.184 1.243c.022.22-.017.43-.117.629-.102.19-.228.285-.378.285a2.87 2.87 0 0 1-.333-.015l-.202-.06a.54.54 0 0 1-.192-.12l-.166-.15a1.8 1.8 0 0 1-.188-.224l-.179-.285-.231-.359-.665-1.079-.913-1.453c-.937-1.447-1.789-2.591-2.556-3.429l.405 6.754c-.006.24-.18.36-.521.36a.73.73 0 0 1-.418-.12c-.108-.08-.172-.21-.189-.389l-.191-2.966-.215-3.355-.085-.853c-.072-.719-.057-1.124.044-1.214a.49.49 0 0 1 .333-.134c.552 0 1.485.898 2.798 2.696l1.484 2.201 1.319 2.052-.802-6.216c-.086-.858-.039-1.347.139-1.467zm6.615-.12c.481 0 .97.12 1.466.359.505.24.773.51.803.809.046.459-.122.689-.503.689-.141 0-.396-.09-.765-.27s-.674-.269-.915-.269c-.863 0-1.547.384-2.052 1.153-.495.769-.683 1.747-.564 2.936.089.888.362 1.667.82 2.336s.954 1.004 1.486 1.004c.541 0 .945-.175 1.211-.525a1.65 1.65 0 0 0 .346-1.213c-.025-.249-.066-.454-.122-.614-.047-.17-.147-.319-.301-.449-.154-.14-.347-.21-.578-.21s-.456-.05-.677-.15c-.21-.099-.324-.234-.341-.404a.79.79 0 0 1 .102-.479c.086-.15.212-.24.38-.27.682 0 1.146.07 1.39.21l.577.344c.129.09.244.24.346.45l.233.524c.064.14.122.364.173.674l.212 1.827c.069.689.062 1.113-.023 1.273-.077.13-.221.2-.43.21-.211 0-.361-.045-.45-.135s-.16-.29-.211-.599c-.22.21-.508.389-.864.539-.347.14-.661.21-.942.21-.884 0-1.673-.465-2.367-1.393-.696-.939-1.11-2.067-1.242-3.385a6.03 6.03 0 0 1 .141-2.052c.163-.679.417-1.248.762-1.707.728-.949 1.694-1.423 2.899-1.423zm3.442 7.863l-.102-1.168-.49-6.261c-.012-.12.044-.214.167-.284s.286-.105.486-.105c.482 0 .74.17.774.509.011.11.034.949.071 2.516l.116 2.816.158 1.588c.075.748.166 1.158.274 1.228a1.74 1.74 0 0 0 .534.075l2.153-.15c.471 0 .724.17.758.509.027.27-.084.469-.332.599-.238.12-.482.19-.731.21l-.917.015c-1.575 0-2.433-.05-2.574-.15-.076-.06-.138-.285-.187-.674l-.114-.839-.044-.434zm5.94-7.444c.15-.1.326-.149.527-.149s.337.114.411.344l.579 5.197.238 3.58c-.005.149-.087.284-.246.404-.149.11-.309.165-.48.165-.281 0-.436-.145-.465-.435.001-.998-.073-2.236-.221-3.714l-.593-5.032c.026-.14.109-.26.25-.36zm6.017-.389c.652 0 1.215.11 1.689.329.483.22.742.5.776.839.015.15-.012.28-.081.389-.06.11-.165.165-.315.165-.141 0-.463-.11-.966-.329-.505-.23-.958-.345-1.359-.345-.392 0-.786.125-1.182.375s-.577.554-.541.913c.049.49.341.849.876 1.079.398.169.96.324 1.687.464.725.13 1.335.404 1.828.824.493.409.781 1.033.865 1.872.127 1.278-.165 2.221-.876 2.831-.398.339-.993.509-1.786.509-.782 0-1.587-.215-2.412-.644-.539-.27-.822-.539-.849-.809-.01-.1.019-.21.088-.33.078-.119.188-.219.331-.299s.277-.09.403-.03a8.81 8.81 0 0 1 .646.285l.646.284c.437.16.841.24 1.213.24s.709-.18 1.014-.539c.315-.37.445-.819.392-1.348-.069-.699-.47-1.189-1.2-1.468a5.69 5.69 0 0 0-1.19-.315c-.909-.159-1.608-.424-2.097-.793-.489-.38-.772-.949-.848-1.708s.191-1.353.8-1.782c.609-.439 1.425-.659 2.448-.659zm5.31 4.179c.795.129 1.519.194 2.171.194l1.248-.015-.248-2.186-.143-1.423c-.025-.25-.03-.405-.016-.465.013-.069.072-.134.176-.194s.262-.09.473-.09c.301 0 .469.18.505.539l.53 5.302.288 3.624c.019.29-.213.435-.694.435-.241 0-.376-.145-.405-.435l-.337-3.968-1.321.029c-.552 0-1.256-.059-2.111-.179l.594 4.133c.026.16-.031.285-.173.375-.142.08-.329.12-.56.12-.221 0-.353-.115-.396-.345l-.615-4.193-.377-4.673c-.02-.2.041-.345.183-.435a.79.79 0 0 1 .466-.149c.281 0 .435.134.462.404l.3 3.595z" class="B"/><path d="M55.721 110.074c0 .198-.107.297-.322.297-.044 0-.085-.018-.121-.055s-.049-.101-.049-.182l-.018-1.541.018-1.438c-.138.121-.271.261-.401.418l-.267.316a.91.91 0 0 1-.182.158.38.38 0 0 1-.206.073c-.065 0-.117-.023-.158-.067s-.055-.099-.055-.164.047-.152.139-.261l1.056-1.135a.5.5 0 0 1 .352-.127c.069 0 .125.02.17.06s.067.087.067.14l-.042 1.632.018 1.876zm2.065.297l-.892-.012h-.121c-.401 0-.601-.077-.601-.231 0-.109.02-.212.061-.309a1.07 1.07 0 0 1 .115-.219c.036-.048.109-.129.219-.242l.237-.255a8.56 8.56 0 0 1 .437-.431c.247-.231.431-.439.552-.625s.188-.383.188-.589c0-.32-.127-.526-.382-.619-.073-.024-.148-.036-.225-.036-.174 0-.348.074-.522.224-.069.065-.142.097-.218.097-.024 0-.047-.002-.067-.006-.101-.024-.152-.095-.152-.212 0-.158.111-.29.334-.395.239-.113.498-.17.777-.17a.88.88 0 0 1 .692.31 1.09 1.09 0 0 1 .273.758 1.66 1.66 0 0 1-.401 1.117l-.382.407c-.409.388-.682.683-.819.886l.674.018 1.001-.049a.25.25 0 0 1 .146.085c.041.041.061.087.061.14 0 .138-.073.233-.218.285s-.401.073-.765.073zm10.11 6.808c-.239 0-.461.103-.667.309-.057.04-.107.061-.152.061s-.083-.004-.115-.012c-.093-.029-.139-.093-.139-.195 0-.166.105-.311.316-.437s.459-.188.746-.188.526.077.716.231a.71.71 0 0 1 .291.589 1.85 1.85 0 0 1-.085.606c-.053.162-.17.296-.352.401.429.162.643.453.643.874a1.4 1.4 0 0 1-.322.922c-.214.255-.477.383-.789.383s-.579-.073-.813-.219-.352-.317-.352-.504c0-.036.02-.078.061-.127s.099-.073.176-.073.16.037.249.109l.303.213a.72.72 0 0 0 .382.103c.405 0 .607-.253.607-.759 0-.194-.071-.35-.212-.467s-.334-.184-.589-.188l-.121-.012c-.024-.004-.059-.022-.103-.055s-.061-.083-.061-.151c0-.146.081-.225.243-.237s.305-.085.431-.219.194-.301.194-.503a.42.42 0 0 0-.146-.31c-.097-.097-.21-.145-.34-.145zm-10.898 10.24c-.061.081-.2.337-.419.77l-.352.777a2.05 2.05 0 0 1 .516-.067.92.92 0 0 1 .498.146c.251.166.376.433.376.801 0 .805-.392 1.21-1.177 1.214-.306 0-.512-.099-.637-.297s-.194-.47-.206-.802c0-.768.289-1.616.868-2.542.097-.162.182-.267.255-.316s.129-.073.17-.073.089.016.134.049.067.077.067.133-.03.126-.091.207zm.164 2.47c0-.166-.047-.294-.14-.383s-.21-.133-.364-.133-.267.012-.34.036a.33.33 0 0 0-.133.097.58.58 0 0 0-.091.176c-.028.081-.036.192-.036.334a.6.6 0 0 0 .115.364c.081.101.178.152.291.152.227 0 .398-.067.516-.2a.66.66 0 0 0 .182-.443zm-10.063-12.306l-.006.607v1.147l.012 1.153a.22.22 0 0 1-.097.182c-.061.044-.119.067-.176.067s-.095-.025-.127-.073a.38.38 0 0 1-.055-.176l-.042-1.845c-.105.137-.318.206-.637.206-.218 0-.398-.113-.54-.34s-.212-.471-.212-.734c0-.348.107-.613.322-.795s.494-.279.825-.279.56.127.686.382c.032.069.049.235.049.498zm-.479.145l.006-.297c0-.097-.008-.16-.024-.188a.22.22 0 0 0-.061-.073c-.028-.028-.063-.042-.103-.042s-.087.008-.152.024a1.22 1.22 0 0 0-.243.085c-.097.04-.184.111-.261.212s-.109.225-.109.383.041.287.121.388.166.152.255.152a.29.29 0 0 0 .079-.012c.243-.065.407-.13.492-.195v-.437z" fill="#12214a"/><path opacity=".4" d="M56.745 105.413a13.12 13.12 0 0 1 3.725.524 13.06 13.06 0 0 1 .243 2.5 13.28 13.28 0 0 1-5.291 10.618 13.28 13.28 0 0 1-5.58 2.45c-2.025.373-4.109.27-6.087-.301-.157-.824-.239-1.661-.243-2.5-.007-3.517 1.383-6.893 3.864-9.386s5.851-3.897 9.368-3.905z" class="B C"/><defs><radialGradient id="B" cx="0" cy="0" r="1" gradientUnits="userSpaceOnUse" gradientTransform="translate(84.4825 112.379) rotate(90) scale(112.379 83.4151)"><stop stop-color="#fff"/><stop offset="1" stop-color="#e0e8ff"/></radialGradient><path id="C" d="M106.917 154.424H57.176v2.381h49.741v-2.381z"/><path id="D" d="M120.474 168.713c-9.596 0-29.633-19.335-19.127-28.835 7.927-7.184 17.515 1.146 18.015 4.707.079-3.561 8.693-11.877 17.447-4.707 11.631 9.5-6.74 28.835-16.335 28.835z"/></defs></svg>