<svg xmlns="http://www.w3.org/2000/svg" width="167" height="225" fill="none" xmlns:v="https://vecta.io/nano"><style><![CDATA[.B{fill:#39575f}.C{fill:#ebfaff}.D{opacity:.3}.E{opacity:.5}.F{fill:#d3ebf2}.G{fill:#c0d9e2}.H{opacity:.4}.I{fill:#486e7b}.J{fill:#f45b5b}.K{fill:#c170db}.L{fill:#9d4fbf}.M{fill:#0089e7}.N{fill:#0074b2}]]></style><rect width="166.83" height="224.757" rx="12.744" fill="url(#A)"/><path d="M58.51 43.405V47h-8.789v-3.595h.659l.149-3.023c.111-.645.273-1.181.483-1.608.457-.873 1.066-1.544 1.828-2.013.756-.463 1.617-.694 2.584-.694.961 0 1.819.231 2.575.694.48.299.899.677 1.257 1.134l-2.391 2.382c-.305-.352-.785-.527-1.441-.527-1.295 0-1.942.732-1.942 2.197v1.459h5.027zm5.977-7.682v5.564c0 .703.047 1.163.141 1.38.105.375.527.565 1.266.571h.545V47h-2.136c-.674 0-1.28-.144-1.819-.431a3.31 3.31 0 0 1-1.292-1.186c-.076-.117-.152-.267-.228-.448-.064-.152-.114-.319-.149-.501-.041-.176-.073-.381-.097-.615-.018-.164-.026-.425-.026-.782V32.674h4.034v3.05h-.237zm3.823 15.653c.516 0 .955-.182 1.318-.545a1.8 1.8 0 0 0 .536-1.309 1.81 1.81 0 0 0-.536-1.318c-.369-.363-.809-.545-1.318-.545-.516 0-.952.182-1.31.545-.363.363-.545.803-.545 1.318s.182.952.545 1.31c.357.363.794.545 1.31.545zm4.755 0c.51 0 .949-.182 1.318-.545a1.8 1.8 0 0 0 .536-1.309 1.81 1.81 0 0 0-.536-1.318c-.369-.363-.809-.545-1.318-.545-.516 0-.952.182-1.31.545a1.78 1.78 0 0 0-.554 1.318 1.75 1.75 0 0 0 .554 1.31c.357.363.794.545 1.31.545zM65.726 47v-3.762h4.14c.738-.006 1.16-.196 1.266-.571.1-.217.149-.677.149-1.38v-4.245h3.788v6.196h1.081V47H65.726zm16.743-2.54c.539 0 .97-.182 1.292-.545.322-.352.483-.832.483-1.441s-.161-1.096-.483-1.459c-.328-.369-.759-.554-1.292-.554-.527 0-.955.185-1.283.554s-.492.855-.492 1.459c0 .598.164 1.078.492 1.441.322.363.75.545 1.283.545zM85.765 47a5.4 5.4 0 0 1-1.09.58c-.674.281-1.409.422-2.206.422-.791 0-1.529-.138-2.215-.413-.398-.152-.765-.349-1.099-.589h-3.727v-3.762h1.459c-.029-.252-.044-.507-.044-.765 0-1.594.53-2.906 1.591-3.937 1.09-1.06 2.435-1.591 4.034-1.591.82 0 1.561.132 2.224.395.685.27 1.295.668 1.828 1.195.533.516.932 1.105 1.195 1.767.264.65.395 1.374.395 2.171 0 .258-.015.513-.044.765h.87V47h-3.173zm3.902-6.943v-3.85l2.549-3.357h4.236l-2.496 3.357h4.043l.334.009c.885.047 1.676.284 2.373.712.785.48 1.421 1.187 1.907 2.118.229.445.396 1.005.501 1.679v2.514h1.213V47H88.226v-3.762h11.092v-.158c0-1.881-.568-2.883-1.705-3.006l-.334-.018h-7.611zm19.687-4.351v7.33l-.035.782a5.37 5.37 0 0 1-.079.615c-.047.182-.099.349-.158.501-.082.182-.161.331-.237.448a3.25 3.25 0 0 1-1.283 1.186c-.54.287-1.146.431-1.82.431h-2.136v-3.762h.537c.738-.006 1.163-.196 1.274-.571.094-.217.141-.677.141-1.38v-8.613h4.034v3.032h-.238zM112.325 47V35.794h-.571v-3.12h4.069V47h-3.498z" fill="#733a92"/><g clip-path="url(#B)"><path d="M114.354 102.305a103.97 103.97 0 0 0-8.475-9.561 70.91 70.91 0 0 0-11.789-9.538c-1.557-.99-3.166-1.894-4.821-2.708l-3.723-1.59-1.365-.468-.989-.272c-.544-.133-.831-.176-.847-.12s.231.202.735.438l.94.425 1.286.611a62.25 62.25 0 0 1 3.525 1.845c1.368.77 2.912 1.726 4.571 2.914a74.92 74.92 0 0 1 10.671 9.249c-9.797-7.404-20.403-12.71-30.747-13.799a20.94 20.94 0 0 0-10.068 1.55c2.121-1.105 4.341-2.004 6.632-2.685 2.97-.91 6.086-1.235 9.177-.956l.749.076c.234.03.448.07.66.1.402.06.742.109 1.012.166.541.103.831.129.851.076s-.237-.189-.762-.402a8.25 8.25 0 0 0-.989-.332c-.201-.056-.419-.129-.66-.183l-.762-.163c-1.34-.267-2.704-.392-4.069-.375a24.93 24.93 0 0 0-5.53.727c-4.092.969-8.861 3.066-13.797 6.365S45.657 91.42 40.586 96.886c-2.655 2.864-5.159 5.866-7.502 8.994-2.553 3.393-4.886 6.949-6.985 10.646-1.088 1.924-2.107 3.939-3.037 6.05-.974 2.172-1.732 4.437-2.262 6.76-.063.302-.129.604-.175.919s-.102.62-.129.942l-.049.498-.026.491v.249a2.32 2.32 0 0 0 0 .269c.001.203.015.406.043.607.104.752.334 1.48.679 2.154a10.87 10.87 0 0 0 1.101 1.726c.807 1.021 1.713 1.959 2.704 2.801.165.142.33.278.501.418-.202 1.815-.144 3.65.171 5.449 1.339 6.514 20.696 11.642 43.463 14.602 5.857 1.92 11.853 3.712 17.989 5.376 5.448 1.469 10.865 2.777 16.25 3.923 5.385 1.125 10.734 2.084 16.07 2.688a74.85 74.85 0 0 0 8.016.521c1.359.013 2.717-.058 4.066-.213.7-.08 1.393-.203 2.078-.368.746-.173 1.469-.435 2.153-.78.182-.086.366-.209.548-.332s.329-.259.508-.391l.25-.203.218-.226.428-.458a8.47 8.47 0 0 0 1.184-2.024 14.27 14.27 0 0 0 .96-4.125c.099-1.066.13-2.138.092-3.209 2.111-.644 3.667-1.414 4.544-2.323 6.645-6.8-8.287-35.25-30.084-56.012zm-89.778 33.041c-.66-.814-1.125-1.69-1.22-2.436-.014-.09-.022-.181-.023-.272-.005-.057-.005-.113 0-.17v-.192l.017-.385.036-.392a10.86 10.86 0 0 1 .099-.786c.04-.262.089-.528.142-.793a33.59 33.59 0 0 1 2.015-6.226 64.68 64.68 0 0 1 2.833-5.834 99.35 99.35 0 0 1 6.645-10.464 113.48 113.48 0 0 1 7.176-8.933c2.408-2.709 4.962-5.282 7.651-7.709-12.228 12.502-21.603 32.778-24.003 46.066-.489-.458-.946-.95-1.365-1.473zm112.149 28.208c-.092 1.099-.344 2.18-.748 3.206-.187.446-.432.866-.729 1.247l-.228.236-.112.119-.125.093-.244.193c-.096.053-.172.109-.28.159-1.001.44-2.068.708-3.156.793-1.221.133-2.449.189-3.677.169-2.565-.043-5.125-.222-7.67-.537-5.178-.624-10.454-1.583-15.76-2.692s-10.678-2.439-16.073-3.892l-1.346-.375c19.825 1.546 39.476 1.42 50.256-.84-.003.704-.036 1.414-.109 2.121z" fill="#3bd9ff"/><g style="mix-blend-mode:multiply" opacity=".6" fill="#00c0f3"><path d="M50.766 87.206c0-1.633-2.437-2.834-5.83-3.564l.742-1.225c1.49-2.655 1.791-4.53.87-5.456s-2.796-.624-5.425.876l-1.217.743c-.722-3.415-1.919-5.864-3.542-5.864s-2.816 2.449-3.542 5.881l-1.213-.743c-2.638-1.5-4.505-1.805-5.425-.876s-.62 2.814.87 5.456l.739 1.225c-3.393.713-5.827 1.908-5.827 3.548s2.434 2.837 5.827 3.564l-.739 1.225c-1.49 2.655-1.794 4.53-.87 5.459a1.98 1.98 0 0 0 .669.409 1.97 1.97 0 0 0 .775.115c1.006 0 2.348-.471 3.98-1.4l1.213-.747c.725 3.415 1.919 5.867 3.542 5.867s2.819-2.452 3.542-5.867l1.217.747c1.649.929 2.968 1.4 3.977 1.4a1.97 1.97 0 0 0 1.447-.525c.92-.929.62-2.814-.87-5.459l-.742-1.225c3.393-.727 5.83-1.931 5.83-3.564zm-9.121-8.443c1.649-.929 2.764-1.258 3.449-1.258a.99.99 0 0 1 .702.209c.386.388.33 1.716-1.042 4.178l-.946 1.53-3.261-.421-.422-3.285 1.52-.952zm-1.979 8.443l-.02 1.367-.947.996-.989.952-1.362.02c-.465 0-.917 0-1.359-.02L34 89.569l-.946-.996-.02-1.367.02-1.367.946-.996.989-.952 1.359-.02 1.395.037.989.952.946.996-.013 1.351zm-.218-3.103l-.132-.133.247.017v.249a.69.69 0 0 0-.115-.133zm-1.289-1.251l-.989-.896 1.979-1.57.31 2.532-1.299-.066zm-1.612-.033h-.363l.181-.163.181.163zm-1.979.033l-1.319.066.307-2.532 1.979 1.57-.963.896h-.003zM33.41 83.97l-.132.133-.132.133v-.249l.264-.017zm-1.372 1.43l-.89.996-1.56-1.991 2.516-.309-.066 1.304zm-.033 1.623v.365l-.162-.183.162-.183zm.033 1.991c0 .445.04.889.066 1.327l-2.516-.309 1.56-1.991.89.969v.003zm1.111 1.165l.132.133.132.133h-.247l-.016-.269v.003zm1.421 1.384l.989.896-1.979 1.57-.307-2.532c.412.043.841.043 1.296.063v.003zm1.613.033h.363l-.181.163-.181-.163zm1.979-.033c.445 0 .884-.036 1.319-.066l-.31 2.532-1.979-1.57.966-.899.003.003zm1.157-1.118l.132-.133.132-.133v.249l-.264.017zm1.392-1.434l.887-.996 1.56 1.991-2.516.309.069-1.304zm.033-1.623v-.365l.158.183-.158.183zm-.033-1.991c0-.445-.04-.889-.069-1.327l2.516.309-1.56 1.991-.887-.969v-.003zm-4.33-11.615c.854 0 1.919 1.965 2.602 5.439l-2.602 2.028-2.602-2.028c.666-3.475 1.731-5.439 2.585-5.439h.017zm-8.406 8.111c-1.385-2.462-1.428-3.79-1.042-4.178s1.705-.332 4.152 1.049l1.52.952-.419 3.285-3.265.421-.946-1.53zm-4.946 5.31c0-.859 1.952-1.928 5.405-2.618l2.015 2.618-2.015 2.618c-3.456-.684-5.408-1.755-5.408-2.615l.003-.003zm8.056 8.446c-2.447 1.394-3.766 1.437-4.152 1.049s-.33-1.716 1.042-4.178l.946-1.53 3.265.421.419 3.285-1.52.952zm5.276 4.978c-.854 0-1.916-1.964-2.602-5.439l2.602-2.028 2.602 2.028c-.679 3.478-1.744 5.443-2.599 5.443l-.003-.004zm8.392-8.091c1.388 2.463 1.428 3.79 1.042 4.178s-1.705.332-4.152-1.049l-1.52-.952.422-3.285 3.261-.421.946 1.53zm-.455-2.695l-2.015-2.618 2.015-2.618c3.453.69 5.405 1.759 5.405 2.618s-1.952 1.915-5.405 2.602v.017zm-7.933-4.606a1.97 1.97 0 0 0-1.099.336 1.99 1.99 0 0 0-.729.894c-.15.364-.189.764-.113 1.151a1.99 1.99 0 0 0 .541 1.019c.276.278.629.468 1.013.545a1.97 1.97 0 0 0 1.143-.113 1.98 1.98 0 0 0 .888-.733 2 2 0 0 0-.246-2.514 1.97 1.97 0 0 0-1.399-.583zm74.629-12.02c-.274-.011-.543.07-.765.232a1.23 1.23 0 0 0-.459.658 49.47 49.47 0 0 0-6.236-.017 3.43 3.43 0 0 0-.28-.747l.422-.431.534-.614a1.24 1.24 0 0 0 .428.293 1.23 1.23 0 0 0 .509.092c1.725 0 1.728-2.695 0-2.695-.989 0-1.402.87-1.27 1.62l-.824.664-.313.299a3.71 3.71 0 0 0-.66-.594l2.068-4.264a1.38 1.38 0 0 0 .402.056c1.721 0 1.725-2.695 0-2.695-1.408 0-1.668 1.795-.775 2.456-.778 1.364-1.48 2.77-2.104 4.211a3.55 3.55 0 0 0-1.068-.332l-.02-2.964-.049-2.844c1.203-.448 1.042-2.599-.502-2.599s-1.711 2.243-.412 2.655c-.082.933-.039 1.895-.046 2.814l-.016 2.963a3.53 3.53 0 0 0-.989.299l-.201-.355-2.111-3.584c.531-.787.178-2.16-1.055-2.16-1.721 0-1.725 2.695 0 2.695a1.33 1.33 0 0 0 .574-.12c.518 1.161 1.138 2.277 1.744 3.388l.33.591a3.72 3.72 0 0 0-.419.385l-2.401-.73-2.539-.763a1.28 1.28 0 0 0-.083-.51 1.27 1.27 0 0 0-.705-.723 1.26 1.26 0 0 0-.505-.094c-1.725 0-1.728 2.698 0 2.698.206.008.411-.036.595-.13a1.22 1.22 0 0 0 .457-.405l2.526.87 2.064.707a3.56 3.56 0 0 0-.181.484c-.897-.026-1.804.03-2.665.037l-4.145.133a1.23 1.23 0 0 0-.467-.638 1.21 1.21 0 0 0-.757-.218c-1.725 0-1.725 2.698 0 2.698a1.22 1.22 0 0 0 .795-.254 1.23 1.23 0 0 0 .448-.708c1.368.113 2.73.123 4.112.133l2.533.037a3.55 3.55 0 0 0 .178.923c-.458.116-.913.302-1.349.435l-.989.292a1.22 1.22 0 0 0-1.128-.663c-1.725 0-1.725 2.698 0 2.698a1.24 1.24 0 0 0 .84-.292 1.25 1.25 0 0 0 .43-.783 10.82 10.82 0 0 0 1.25-.425c.45-.142.89-.312 1.319-.508.138.218.297.421.475.607l-.659.601-.683.63a1.38 1.38 0 0 0-.574-.119c-1.721 0-1.725 2.698 0 2.698 1.118 0 1.51-1.128 1.184-1.925l.66-.707.64-.72c.154.103.317.194.485.272l-1.128 3.063-1.25 3.428a1.51 1.51 0 0 0-.251-.02c-1.725 0-1.728 2.695 0 2.695 1.319 0 1.649-1.606.91-2.323a23.46 23.46 0 0 0 2.308-6.604 3.52 3.52 0 0 0 .659.106 28.35 28.35 0 0 0 .495 3.982c-1.26.422-1.112 2.625.448 2.625 1.626 0 1.718-2.396.277-2.655.023-1.331-.047-2.661-.208-3.982a3.15 3.15 0 0 0 .505-.153c.791 1.019 1.952 1.915 2.79 2.718l3.462 3.289c-.415.796-.039 2.031 1.131 2.031 1.722 0 1.725-2.695 0-2.695-.236-.005-.47.055-.676.172l-3.254-3.465c-.729-.777-1.55-1.832-2.47-2.618.157-.13.304-.272.438-.425a48.84 48.84 0 0 0 4.525 2.058 1.29 1.29 0 0 0 .199.524c.103.158.24.291.4.39a1.29 1.29 0 0 0 .528.183 1.27 1.27 0 0 0 .554-.059c1.649-.531.825-3.1-.817-2.569a1.21 1.21 0 0 0-.512.267 1.23 1.23 0 0 0-.333.474l-3.957-2.303a3.64 3.64 0 0 0 .271-1.371v-.136a49.59 49.59 0 0 0 6.081 0 1.24 1.24 0 0 0 .425.795 1.23 1.23 0 0 0 .847.297c1.728-.017 1.732-2.711.004-2.711zm-49.561-5.237a1.52 1.52 0 0 0-.599.121 1.53 1.53 0 0 0-.504.348c-.143.149-.255.326-.328.519a1.55 1.55 0 0 0-.099.607 1.55 1.55 0 0 0 .097.611c.073.195.184.373.327.524a1.52 1.52 0 0 0 .505.353 1.53 1.53 0 0 0 .602.126 2.09 2.09 0 0 0 1.401-.664l.861.933c-.613.646-1.454 1.024-2.341 1.052a2.84 2.84 0 0 1-1.137-.189c-.362-.14-.693-.353-.97-.626s-.497-.6-.645-.962a2.89 2.89 0 0 1-.215-1.14c0-1.639 1.296-2.871 3.021-2.871a3.24 3.24 0 0 1 2.279.972l-.854 1.032a1.93 1.93 0 0 0-.619-.525 1.91 1.91 0 0 0-.779-.222zm8.538 1.623c0 1.659-1.303 2.91-3.05 2.91s-3.054-1.248-3.054-2.91 1.319-2.877 3.054-2.877 3.05 1.231 3.05 2.877zm-4.587 0a1.61 1.61 0 0 0 .441 1.141 1.59 1.59 0 0 0 1.112.495 1.55 1.55 0 0 0 .6-.137 1.56 1.56 0 0 0 .501-.36 1.57 1.57 0 0 0 .323-.527 1.58 1.58 0 0 0 .096-.612c.009-.208-.024-.415-.096-.61a1.56 1.56 0 0 0-.324-.524c-.142-.151-.312-.272-.501-.356a1.54 1.54 0 0 0-.599-.132c-.209.002-.416.047-.608.131a1.58 1.58 0 0 0-.51.357c-.145.152-.258.331-.333.528a1.58 1.58 0 0 0-.103.616v-.01z"/><path d="M71.966 67.769c0-.153-.122-.232-.33-.232-.359.039-.695.194-.96.441l-.379-.713a2.61 2.61 0 0 1 1.49-.518c.709 0 1.233.355 1.233.899 0 .382-.284.753-.679 1.135l-.633.611h1.401v.76h-2.681v-.624l1.24-1.248a.96.96 0 0 0 .297-.511zm22.826 56.194c.02.275.131.535.315.739a1.22 1.22 0 0 0 .701.386 50.75 50.75 0 0 0 .676 6.239 3.39 3.39 0 0 0-.709.362l-.471-.375-.66-.465a1.24 1.24 0 0 0 .245-.467 1.26 1.26 0 0 0 .032-.528c-.191-1.723-2.852-1.427-2.661.298a1.33 1.33 0 0 0 .19.557c.104.169.246.311.414.416a1.29 1.29 0 0 0 1.134.119l.762.75.33.282c-.2.223-.371.469-.511.734l-4.442-1.597c.019-.135.019-.272 0-.408-.191-1.722-2.856-1.427-2.665.299.155 1.407 1.959 1.47 2.513.504a42.76 42.76 0 0 0 4.392 1.64 3.53 3.53 0 0 0-.214 1.105l-2.925.332-2.803.365c-.587-1.162-2.691-.764-2.523.78s2.407 1.463 2.638.119c.933-.02 1.88-.169 2.787-.265l2.928-.309a3.55 3.55 0 0 0 .402.956l-.33.239-3.298 2.505c-.834-.441-2.153.063-2.018 1.294.191 1.726 2.856 1.431 2.664-.298a1.38 1.38 0 0 0-.181-.558l3.153-2.12.551-.379a3.4 3.4 0 0 0 .442.372l-.458 2.479-.472 2.628a1.26 1.26 0 0 0-.902.461c-.11.136-.192.292-.239.461a1.28 1.28 0 0 0-.035.519c.191 1.725 2.853 1.43 2.665-.299a1.24 1.24 0 0 0-.643-.996c.244-.862.396-1.768.577-2.621l.468-2.141a3.61 3.61 0 0 0 .501.126l.33 2.655.59 4.132c-.24.112-.438.299-.563.534s-.172.503-.132.767c.191 1.725 2.856 1.43 2.664-.299-.021-.287-.141-.558-.339-.766a1.23 1.23 0 0 0-.746-.372l-.33-4.125-.244-2.536a3.62 3.62 0 0 0 .89-.282c.165.448.399.88.58 1.301l.398.972a1.22 1.22 0 0 0-.52 1.198c.191 1.726 2.853 1.431 2.662-.298a1.25 1.25 0 0 0-.379-.807 1.23 1.23 0 0 0-.818-.345 11.92 11.92 0 0 0-.561-1.201 12.49 12.49 0 0 0-.66-1.268 3.55 3.55 0 0 0 .544-.541l.659.601.703.611c-.06.189-.08.389-.057.587.192 1.722 2.856 1.427 2.665-.299-.125-1.115-1.283-1.384-2.031-.969l-.772-.571-.778-.557c.083-.166.154-.338.214-.514l3.149.789 3.526.87a1.18 1.18 0 0 0 0 .252c.191 1.722 2.855 1.427 2.664-.299-.148-1.327-1.768-1.457-2.411-.663-2.167-.875-4.455-1.413-6.783-1.597a3.34 3.34 0 0 0 .036-.663c1.306-.222 2.595-.533 3.859-.933.557 1.211 2.717.82 2.545-.74-.181-1.626-2.555-1.457-2.667 0-1.32.129-2.629.351-3.918.664a3.44 3.44 0 0 0-.208-.488c.92-.906 1.676-2.164 2.375-3.093l2.865-3.823c.835.332 2.012-.186 1.883-1.357-.191-1.723-2.856-1.427-2.664.298a1.33 1.33 0 0 0 .247.664l-3.063 3.651c-.683.816-1.649 1.752-2.309 2.757a3.37 3.37 0 0 0-.468-.388l1.533-4.752c.182-.049.351-.136.495-.258s.26-.272.34-.443a1.29 1.29 0 0 0 .122-.547c.001-.189-.04-.376-.119-.548-.706-1.583-3.153-.484-2.447 1.102a1.23 1.23 0 0 0 .342.477 1.22 1.22 0 0 0 .522.263l-1.837 4.202a3.45 3.45 0 0 0-1.385-.12c-.046 0-.089 0-.132.02a50.14 50.14 0 0 0-.692-6.08 1.24 1.24 0 0 0 .739-.513 1.25 1.25 0 0 0 .201-.88c-.168-1.696-2.833-1.401-2.628.328zm43.899-15.478a3.08 3.08 0 0 0-1.425.352l-1.418-1.743c.251-.31.437-.667.548-1.052a2.99 2.99 0 0 0 .093-1.183 2.98 2.98 0 0 0-.377-1.126c-.199-.346-.466-.647-.785-.886l1.481-3.468a2.95 2.95 0 0 0 2.08-.471c.612-.411 1.05-1.036 1.23-1.753a3 3 0 0 0-.256-2.131 2.97 2.97 0 0 0-1.609-1.408 2.95 2.95 0 0 0-2.132.042c-.681.279-1.235.803-1.554 1.47a3.01 3.01 0 0 0-.174 2.139 2.99 2.99 0 0 0 1.297 1.704l-1.438 3.365a2.93 2.93 0 0 0-1.208-.042 2.91 2.91 0 0 0-1.121.452 2.94 2.94 0 0 0-.846.868c-.219.346-.364.733-.426 1.138l-1.543-.063c-.098-.968-.555-1.863-1.28-2.507a3.83 3.83 0 0 0-5.215.123 3.87 3.87 0 0 0-1.163 2.564 3.88 3.88 0 0 0 .876 2.677 3.83 3.83 0 0 0 2.449 1.367 3.82 3.82 0 0 0 2.721-.669c.791-.559 1.343-1.399 1.546-2.35l1.665.063c.109.434.315.837.601 1.179s.646.615 1.052.798.847.269 1.291.255.88-.129 1.274-.337l1.405 1.729a3.14 3.14 0 0 0-.747 1.942c-.022.714.2 1.415.628 1.985a3.11 3.11 0 0 0 1.726 1.149c.688.174 1.415.106 2.06-.193a3.12 3.12 0 0 0 1.485-1.451c.316-.64.405-1.369.252-2.067a3.13 3.13 0 0 0-1.091-1.77 3.1 3.1 0 0 0-1.952-.69zm-7.344 12.744v2.439h2.397v-2.439h1.553v5.973h-1.553v-2.296h-2.397v2.296h-1.55v-5.973h1.55zm7.927 1.281c-.431.019-.839.205-1.138.519s-.466.733-.466 1.168.167.853.466 1.168a1.68 1.68 0 0 0 1.138.52 2.18 2.18 0 0 0 1.474-.701l.907.996c-.643.682-1.529 1.081-2.463 1.108a2.98 2.98 0 0 1-1.196-.201 3 3 0 0 1-1.019-.659c-.292-.287-.523-.631-.678-1.011a3.04 3.04 0 0 1-.227-1.198c0-1.723 1.366-3.02 3.179-3.02a3.38 3.38 0 0 1 1.3.272 3.4 3.4 0 0 1 1.098.753l-.901 1.082a2 2 0 0 0-.651-.559c-.254-.138-.535-.219-.823-.237zm4.597-1.63v6.328h-1.507v-6.328h1.507zm-73.702-19.169a3.11 3.11 0 0 0 .762-1.261l2.226.223a2.98 2.98 0 0 0 .352 1.134 2.96 2.96 0 0 0 .766.904 2.93 2.93 0 0 0 2.236.597l1.388 3.497a2.88 2.88 0 0 0-.33.276 3 3 0 0 0-.276 3.916 2.97 2.97 0 0 0 1.758 1.124c.702.148 1.433.036 2.059-.316a2.98 2.98 0 0 0 1.346-1.6c.242-.679.231-1.424-.03-2.096s-.756-1.226-1.392-1.559a2.95 2.95 0 0 0-2.067-.256l-1.322-3.391a2.95 2.95 0 0 0 .881-.831 2.97 2.97 0 0 0 .475-1.117 2.98 2.98 0 0 0-.011-1.215 2.97 2.97 0 0 0-.495-1.108l1.134-1.055a3.82 3.82 0 0 0 2.665.86 3.83 3.83 0 0 0 2.537-1.189c.667-.704 1.046-1.634 1.061-2.606s-.335-1.914-.98-2.638a3.83 3.83 0 0 0-2.499-1.268 3.82 3.82 0 0 0-2.69.777 3.86 3.86 0 0 0-1.451 2.408c-.165.958.034 1.943.559 2.76l-1.227 1.138c-.563-.336-1.222-.474-1.871-.391a2.94 2.94 0 0 0-1.716.846 2.9 2.9 0 0 0-.725 1.208l-2.209-.222a3.14 3.14 0 0 0-.835-1.906 3.1 3.1 0 0 0-3.866-.543 3.13 3.13 0 0 0-1.322 1.603 3.15 3.15 0 0 0-.031 2.083 3.13 3.13 0 0 0 1.274 1.642 3.1 3.1 0 0 0 2.015.475 3.11 3.11 0 0 0 1.866-.902h-.013zm-14.163 36.024h-3.957l-3.393-5.914a.66.66 0 0 0-.242-.243c-.101-.059-.215-.089-.331-.089h-7.169c-.116 0-.23.03-.331.089a.66.66 0 0 0-.242.243l-3.393 5.914H18.524a.66.66 0 0 0-.466.194.67.67 0 0 0 0 .939.66.66 0 0 0 .466.194h10.46l-2.823 4.912H19.17a.66.66 0 0 0-.554.332l-3.601 6.259c-.058.101-.088.215-.088.331a.67.67 0 0 0 .088.332l3.495 6.093v12.133a.67.67 0 0 0 .193.47.66.66 0 0 0 .933 0 .67.67 0 0 0 .193-.47v-11.648h6.331l3.393 5.917a.67.67 0 0 0 .241.243c.1.059.214.089.329.089h7.169c.116 0 .229-.031.329-.089a.66.66 0 0 0 .241-.243l3.585-6.249c.058-.101.088-.215.088-.332a.67.67 0 0 0-.088-.332l-3.377-5.914 3.186-5.595h6.82c.116.001.23-.03.331-.088a.65.65 0 0 0 .242-.244l3.393-5.917h3.957a.66.66 0 0 0 .466-.194c.124-.124.193-.293.193-.469a.67.67 0 0 0-.193-.47.66.66 0 0 0-.466-.194l.003.01zm-36.455 7.566h6.407l3.212 5.595-3.205 5.582H19.55l-3.202-5.582 3.202-5.595zm17.362 17.416h-6.407l-3.202-5.585 3.202-5.582h6.407l3.205 5.582-3.205 5.585zm0-12.494h-6.407l-3.202-5.585 3.202-5.586h6.407l3.205 5.586-3.205 5.585zm10.787-6.249h-6.407l-3.202-5.575 3.202-5.582H47.7l3.202 5.582-3.202 5.575zm75.561-3.587v3.392l-4.999 2.903c-.085.05-.156.121-.205.207s-.075.182-.075.281v6.136a.57.57 0 0 0 .075.282c.049.086.12.157.205.206l4.999 2.904v15.767a.57.57 0 0 0 .164.399c.105.105.248.165.397.165a.56.56 0 0 0 .396-.165.57.57 0 0 0 .164-.399v-8.961l4.159 2.416v5.974c0 .099.026.196.075.281s.12.157.205.207l5.276 3.069c.086.049.182.075.28.075a.57.57 0 0 0 .281-.075l5.151-2.986h10.252a.56.56 0 0 0 .397-.166c.105-.105.164-.249.164-.399a.56.56 0 0 0-.561-.564h-9.84v-5.406l4.999-2.907c.086-.049.157-.12.206-.205a.56.56 0 0 0 .074-.283v-6.132c.001-.1-.025-.198-.074-.284a.57.57 0 0 0-.206-.208l-5.276-3.066c-.086-.049-.182-.075-.28-.075a.57.57 0 0 0-.281.075l-4.999 2.904-4.719-2.741v-5.838a.56.56 0 0 0-.075-.282.57.57 0 0 0-.205-.206l-4.999-2.903v-3.392c0-.15-.059-.293-.165-.399a.56.56 0 0 0-.396-.165c-.149 0-.291.059-.396.165s-.165.249-.165.399h-.003zm6.401 31.195v-5.479l4.719-2.745 4.719 2.745v5.482l-4.719 2.741-4.719-2.744zm14.717-14.858v5.503l-4.719 2.741-4.719-2.741v-5.499l4.719-2.741 4.719 2.737zm-10.552 0v5.503l-4.739 2.724-4.706-2.724v-5.499l4.706-2.741 4.739 2.737zm-5.276-9.229v5.483l-4.739 2.744-4.716-2.741v-5.482l4.716-2.745 4.739 2.741z"/></g><g style="mix-blend-mode:multiply" class="E"><path d="M152 190.969S121.108 196 83 196s-69-5.031-69-5.031 30.892-5.028 69-5.028 69 5.028 69 5.028z" fill="#00c0f3"/></g><path d="M132.521 136.899l.603-2.987c-1.036-.757-2.275-1.182-3.555-1.221a9.51 9.51 0 0 0-3.874.996l.369 3.235 6.457-.023z" fill="#896213"/><g fill="#ac7f31"><path d="M128.57 135.946v-1.855c1.148-.501 3.535-.289 3.535-.289-2.997-1.463-5.866.166-5.866.166l.293 2.443 2.038-.465z"/><path d="M128.953 134.327a3.18 3.18 0 0 1 .946-.179l-.191 1.467-.755.245v-1.533z"/></g><path d="M133.375 137.005v31.659a3.96 3.96 0 0 1-.264 1.538 3.94 3.94 0 0 1-.837 1.312c-.364.377-.799.676-1.279.881s-.998.309-1.52.309a3.89 3.89 0 0 1-1.519-.309c-.48-.205-.915-.504-1.279-.881a3.94 3.94 0 0 1-1.101-2.85v-31.659h7.799z" class="F"/><path d="M132.204 138.157v30.508c-.001.732-.29 1.434-.804 1.951a2.74 2.74 0 0 1-1.939.81c-.145 0-.29-.011-.432-.033-.644-.106-1.229-.439-1.652-.938a2.79 2.79 0 0 1-.657-1.79v-30.508h5.484z" class="G"/><path d="M127.297 146.254v22.41a2.2 2.2 0 0 0 .14.861 2.18 2.18 0 0 0 .464.736c.202.211.444.38.713.495a2.15 2.15 0 0 0 .848.174c.292 0 .58-.059.849-.174s.511-.284.713-.495a2.18 2.18 0 0 0 .463-.736 2.2 2.2 0 0 0 .14-.861v-22.41h-4.33z" class="K"/><g class="L"><path d="M128.939 157.72a.5.5 0 0 1-.303.457c-.09.037-.188.047-.284.028s-.183-.066-.251-.135-.116-.158-.135-.253a.5.5 0 0 1 .028-.286c.037-.091.1-.168.181-.222s.176-.083.273-.083c.13 0 .255.052.348.144a.49.49 0 0 1 .143.35zm.205-7.5c.271 0 .491-.221.491-.495a.49.49 0 0 0-.491-.494c-.271 0-.491.221-.491.494s.22.495.491.495zm.208 14.601c.271 0 .491-.221.491-.494s-.22-.494-.491-.494-.492.221-.492.494.22.494.492.494zm.066-11.458a.5.5 0 0 1-.304.457c-.09.037-.189.047-.285.027a.48.48 0 0 1-.251-.136c-.069-.069-.115-.158-.134-.254a.51.51 0 0 1 .029-.286.5.5 0 0 1 .183-.221.49.49 0 0 1 .274-.082c.129.001.254.054.345.146a.5.5 0 0 1 .143.349zm.329 5.499c.005.039.001.08-.012.118s-.032.073-.058.103-.06.054-.096.07-.076.025-.116.025-.079-.009-.115-.025-.069-.04-.096-.07-.046-.065-.058-.103a.28.28 0 0 1-.012-.118c.007-.07.04-.135.092-.182s.12-.073.189-.073.138.026.19.073.085.112.092.182zm-1.391-11.238c0 .037-.007.074-.021.108a.29.29 0 0 1-.061.092.28.28 0 0 1-.091.061c-.034.014-.071.021-.107.021s-.074-.007-.108-.021a.28.28 0 0 1-.091-.061c-.026-.026-.046-.057-.06-.092a.29.29 0 0 1-.022-.108.29.29 0 0 1 .022-.108c.014-.034.034-.065.06-.091a.28.28 0 0 1 .091-.061c.034-.014.071-.022.108-.022a.28.28 0 0 1 .198.083c.026.026.046.057.061.091s.021.071.021.108zm.788 3.804c-.001.075-.031.147-.084.2s-.125.082-.2.082c-.069-.008-.133-.041-.18-.093s-.073-.12-.073-.191.026-.138.073-.19.111-.086.18-.093c.076 0 .148.03.201.083s.083.126.083.202zm.603 16.961c0 .056-.016.112-.047.158s-.076.084-.128.106-.108.027-.163.016-.106-.038-.146-.078-.066-.091-.077-.146-.006-.113.016-.165a.29.29 0 0 1 .104-.128.28.28 0 0 1 .158-.048c.037-.001.074.006.109.02s.066.036.092.062a.28.28 0 0 1 .062.093c.014.035.021.072.02.11zm-1.108-1.812c0 .057-.016.112-.047.159s-.076.083-.128.105-.108.027-.163.016-.106-.038-.146-.078-.066-.091-.077-.146-.006-.113.016-.165a.29.29 0 0 1 .104-.128c.046-.031.102-.048.158-.048.037 0 .074.007.109.021s.066.035.092.062.048.058.062.093.021.072.02.109zm2.988-20.323v22.41a2.19 2.19 0 0 1-.394 1.258c-.258.368-.622.646-1.043.797a2.15 2.15 0 0 1-1.309.046c-.431-.122-.814-.374-1.096-.723.213.07.436.106.66.106.574-.001 1.125-.231 1.531-.64s.635-.962.635-1.54v-21.714h1.016z"/></g><g style="mix-blend-mode:screen" class="H C"><path d="M129.029 138.157v33.236a2.73 2.73 0 0 1-1.343-.624v-32.612h1.343z"/></g><g style="mix-blend-mode:multiply" class="E G"><use href="#C"/></g><path d="M129.461 136.042h-5.178l.462 1.789s3.485.69 4.716.69 4.718-.69 4.718-.69l.462-1.789h-5.18z" class="F"/><g style="mix-blend-mode:screen" class="E C"><path d="M124.837 136.361l.297 1.105 1.946.455-.251-1.125 3.476-.435h-5.468z"/></g><path d="M119.218 137.005v31.659a3.94 3.94 0 0 1-.264 1.538c-.189.489-.473.935-.837 1.312s-.799.676-1.279.881a3.89 3.89 0 0 1-1.519.309c-.522 0-1.039-.105-1.519-.309a3.91 3.91 0 0 1-1.28-.881 3.94 3.94 0 0 1-.837-1.312 3.96 3.96 0 0 1-.264-1.538v-31.659h7.799z" class="F"/><path d="M118.061 138.157v30.508c-.001.732-.291 1.434-.805 1.951s-1.212.809-1.939.81c-.145 0-.289-.011-.432-.033-.643-.106-1.228-.439-1.651-.938a2.78 2.78 0 0 1-.657-1.79v-30.508h5.484z" class="G"/><path d="M113.154 156.216v12.448a2.18 2.18 0 0 0 .603 1.597c.202.211.445.38.713.495s.557.174.849.174a2.15 2.15 0 0 0 .848-.174c.269-.115.511-.284.713-.495a2.2 2.2 0 0 0 .464-.736c.103-.275.151-.567.14-.861v-12.448h-4.33z" class="J"/><g fill="#ca3939"><path d="M114.793 157.72a.5.5 0 0 1-.083.275c-.055.081-.131.144-.221.182a.48.48 0 0 1-.285.027.48.48 0 0 1-.251-.136c-.069-.069-.115-.158-.134-.254a.5.5 0 0 1 .029-.286c.038-.09.101-.167.183-.221s.176-.083.274-.082a.48.48 0 0 1 .187.038.49.49 0 0 1 .159.107c.045.046.081.101.105.161a.49.49 0 0 1 .037.189zm.415 7.101a.494.494 0 0 0 0-.988c-.271 0-.491.221-.491.494s.22.494.491.494zm.393-5.959c.004.039 0 .08-.012.118a.31.31 0 0 1-.059.103c-.027.03-.059.054-.096.07a.29.29 0 0 1-.115.025c-.039 0-.08-.009-.116-.025s-.069-.04-.095-.07a.28.28 0 0 1-.059-.103c-.013-.038-.017-.079-.012-.118.007-.07.04-.135.092-.182s.12-.073.19-.073a.28.28 0 0 1 .189.073.29.29 0 0 1 .093.182z"/></g><g class="J"><path d="M114.249 154.139c.004.04 0 .08-.012.118a.3.3 0 0 1-.059.103c-.027.03-.06.054-.096.07a.27.27 0 0 1-.115.025c-.04 0-.08-.008-.116-.025s-.069-.04-.095-.07-.047-.065-.059-.103-.017-.078-.012-.118c0-.075.029-.147.082-.199s.124-.083.198-.083.146.03.199.082a.29.29 0 0 1 .085.2zm2.525-4.022c.001.057-.015.112-.046.16a.28.28 0 0 1-.127.106c-.052.022-.109.028-.165.017s-.106-.038-.146-.078-.067-.091-.077-.147a.29.29 0 0 1 .016-.165c.022-.053.059-.097.106-.128s.103-.048.159-.047c.074 0 .146.03.198.083a.28.28 0 0 1 .082.199zm-2.525-2.894a.29.29 0 0 1-.085.2c-.053.052-.124.082-.199.082-.07-.008-.134-.041-.181-.093s-.072-.12-.072-.191.026-.138.072-.19a.28.28 0 0 1 .181-.093c.037 0 .074.007.109.021s.065.036.092.062.047.058.061.093a.29.29 0 0 1 .022.109z"/></g><g fill="#ca3939"><path d="M115.604 168.406c.007-.156-.113-.288-.268-.295a.28.28 0 1 0 .268.295zm-1.108-1.829c0 .057-.017.112-.048.159s-.075.083-.127.105a.28.28 0 0 1-.309-.062c-.04-.04-.067-.091-.078-.146a.29.29 0 0 1 .016-.165c.022-.052.058-.097.105-.128s.101-.048.157-.048c.038 0 .075.007.109.021s.066.035.093.062.047.058.061.093.021.072.021.109zm2.987-10.361v12.448c.001.45-.136.89-.394 1.258a2.17 2.17 0 0 1-1.043.797 2.15 2.15 0 0 1-1.309.046c-.431-.122-.813-.374-1.095-.723a2.11 2.11 0 0 0 .659.106 2.16 2.16 0 0 0 1.531-.64 2.19 2.19 0 0 0 .636-1.54v-11.752h1.015z"/></g><g class="J"><path d="M116.718 152.393c.001.192-.055.38-.16.54a.96.96 0 0 1-.432.358c-.176.074-.369.094-.556.057a.96.96 0 0 1-.494-.265c-.135-.135-.227-.308-.265-.496s-.018-.383.055-.56.196-.329.354-.436.345-.163.536-.163a.96.96 0 0 1 .679.282c.181.181.283.427.283.683zm-2.14-3.175c0 .122-.037.241-.105.342a.62.62 0 0 1-.276.226c-.112.047-.235.058-.354.033a.62.62 0 0 1-.313-.169.63.63 0 0 1-.167-.316c-.023-.12-.011-.244.036-.357s.125-.208.226-.276a.61.61 0 0 1 .575-.057.62.62 0 0 1 .2.135c.057.058.102.126.133.202a.6.6 0 0 1 .045.237zm2.196-2.898a.62.62 0 0 1-.103.343.61.61 0 0 1-.275.228c-.112.046-.236.059-.355.035s-.228-.083-.314-.169a.61.61 0 0 1-.167-.316.63.63 0 0 1 .034-.357.62.62 0 0 1 .226-.277.61.61 0 0 1 .775.077.62.62 0 0 1 .179.436z"/></g><g style="mix-blend-mode:screen" class="H C"><path d="M114.885 138.157v33.236c-.496-.08-.96-.296-1.342-.624v-32.612h1.342z"/></g><use href="#D" class="B"/><g style="mix-blend-mode:multiply" class="D B"><use href="#D"/></g><path d="M116.854 130.242l-.281 4.788-.115 1.988-.036.631h-2.065l-.019-.631-.06-1.775-.158-4.792 2.734-.209z" class="B"/><g style="mix-blend-mode:multiply" class="D B"><path d="M116.573 135.03l-.115 1.988h-2.12l-.06-1.775 2.295-.213z"/></g><path d="M114.545 130.886l1.995-.296-.184 2.841-.155-2.114h-1.656v-.431z" class="I"/><g style="mix-blend-mode:multiply" class="E G"><path d="M119.218 137.005v1.709c-1.288.26-2.591.439-3.901.534a31.03 31.03 0 0 1-3.898-.534v-1.709h7.799z"/></g><path d="M115.317 136.042h-5.177l.461 1.789s3.486.69 4.716.69 4.719-.69 4.719-.69l.462-1.789h-5.181z" class="F"/><g style="mix-blend-mode:screen" class="E C"><path d="M110.694 136.361l.296 1.105 1.946.455-.251-1.125 3.476-.435h-5.467z"/></g><path d="M46.551 147.957l1.085-5.058s-2.806-2.081-6.391-2.081-6.961 1.66-6.961 1.66l.66 5.455 11.608.024z" fill="#896213"/><g fill="#ac7f31"><path d="M39.451 146.337l-.023-3.133c2.068-.846 6.355-.488 6.355-.488-5.385-2.462-10.552.282-10.552.282l.534 4.119 3.687-.78zm.683-2.735c.55-.18 1.123-.282 1.702-.302l-.33 2.473-1.359.418-.013-2.589z"/></g><g class="F"><path d="M47.435 149.257l-.257 3.107-1.718 20.83H36.46l-1.718-20.83-.257-3.107h12.95z"/><path d="M34.307 190.916H47.61c.853.004 1.697-.172 2.479-.514s1.484-.846 2.062-1.477a15.31 15.31 0 0 0 3.773-7.82c.478-2.92.103-5.916-1.08-8.625s-3.123-5.013-5.584-6.633-5.336-2.485-8.276-2.49a15.11 15.11 0 0 0-8.285 2.46 15.24 15.24 0 0 0-5.607 6.614 15.35 15.35 0 0 0-1.111 8.621c.468 2.921 1.769 5.642 3.746 7.833.581.641 1.288 1.153 2.077 1.502s1.642.53 2.503.529z"/></g><path d="M54.489 178.767c-.035 3.355-1.301 6.579-3.555 9.053a4.5 4.5 0 0 1-1.513 1.072 4.49 4.49 0 0 1-1.814.368h-13.3c-.389 0-.777-.049-1.154-.146a4.51 4.51 0 0 1-2.206-1.327c-1.225-1.357-2.165-2.948-2.764-4.679s-.844-3.565-.721-5.394a13.67 13.67 0 0 1 1.438-5.247c.826-1.634 1.971-3.083 3.366-4.26l.076-.063c.952-.802 2.011-1.465 3.146-1.972l.082-.036.735-.299 1.161-.431-1.197-14.496h9.389l-1.207 14.502 1.171.439a13.61 13.61 0 0 1 6.457 5.051c1.586 2.31 2.428 5.056 2.41 7.865z" class="G"/><path d="M28.737 172.81a13.66 13.66 0 0 0-1.158 7.823c.393 2.666 1.566 5.153 3.368 7.147.427.468.947.84 1.525 1.095a4.53 4.53 0 0 0 1.835.382H47.61a4.48 4.48 0 0 0 1.812-.368c.572-.247 1.087-.611 1.512-1.069 1.819-1.992 3.004-4.486 3.403-7.16a13.63 13.63 0 0 0-1.163-7.85H28.737z" class="K"/><g class="L"><path d="M54.489 178.766c-.035 3.356-1.301 6.58-3.555 9.054a4.49 4.49 0 0 1-1.513 1.071c-.572.247-1.19.374-1.814.369h-13.3a4.56 4.56 0 0 1-2.994-1.115H44.21c.624.004 1.241-.122 1.814-.371a4.51 4.51 0 0 0 1.513-1.073c1.679-1.84 2.82-4.111 3.297-6.562a13.63 13.63 0 0 0-.593-7.329h2.935a13.62 13.62 0 0 1 1.313 5.956zm-10.916 5.549a1.19 1.19 0 0 1-.197.66 1.18 1.18 0 0 1-.528.437 1.17 1.17 0 0 1-.681.069 1.18 1.18 0 0 1-.603-.325c-.165-.166-.277-.377-.322-.607a1.19 1.19 0 0 1 .068-.685c.09-.217.241-.402.435-.532a1.17 1.17 0 0 1 1.485.148c.22.221.344.522.344.835zm-8.231.336c-.001.233-.07.461-.199.655s-.313.345-.528.434-.45.112-.678.066a1.17 1.17 0 0 1-.6-.325 1.18 1.18 0 0 1-.32-.604 1.19 1.19 0 0 1 .067-.683 1.18 1.18 0 0 1 .432-.529c.193-.13.42-.199.652-.199a1.16 1.16 0 0 1 .45.09 1.18 1.18 0 0 1 .381.257 1.19 1.19 0 0 1 .343.838zm-2.519-7.517a1.18 1.18 0 1 0 0-2.363 1.18 1.18 0 1 0 0 2.363zm14.332 5.588a.75.75 0 0 1-.125.415.74.74 0 0 1-1.142.113c-.104-.104-.174-.237-.203-.382a.75.75 0 0 1 .042-.431c.056-.137.151-.254.273-.336a.74.74 0 0 1 .412-.125c.098-.001.194.018.285.056s.172.092.241.161a.75.75 0 0 1 .216.529zm-2.223-6.879c.41 0 .742-.334.742-.747s-.332-.746-.742-.746-.742.334-.742.746.332.747.742.747z"/></g><g class="K"><path d="M45.882 168.532a1.27 1.27 0 0 1-.211.701c-.138.207-.333.369-.562.464a1.24 1.24 0 0 1-.724.072 1.26 1.26 0 0 1-.642-.345c-.176-.176-.295-.401-.343-.646a1.27 1.27 0 0 1 .071-.729 1.25 1.25 0 0 1 .462-.565c.207-.138.448-.213.696-.213a1.25 1.25 0 0 1 .886.369c.235.237.367.558.367.892zm-6.635-1.507c.001.145-.041.286-.121.407a.73.73 0 0 1-.325.27.72.72 0 0 1-.791-.156.73.73 0 0 1-.2-.374c-.028-.142-.014-.289.041-.422s.148-.248.267-.328a.72.72 0 0 1 .403-.124c.192 0 .376.077.512.213a.73.73 0 0 1 .214.514zm-2.852 4.173a1.26 1.26 0 0 0 1.215-1.299c-.021-.696-.599-1.243-1.29-1.222a1.26 1.26 0 0 0-1.215 1.298c.021.696.599 1.244 1.29 1.223zm12.474-.413c0 .143-.042.283-.121.402s-.192.212-.323.267a.72.72 0 0 1-.416.04c-.139-.028-.268-.097-.368-.199a.72.72 0 0 1-.196-.371.73.73 0 0 1 .042-.418c.055-.132.148-.245.266-.324a.71.71 0 0 1 .906.093c.134.135.209.319.209.51zm-7.228-9.325a.49.49 0 0 1-.299.451.48.48 0 0 1-.528-.106.49.49 0 0 1 .073-.751c.08-.053.173-.082.269-.082.129 0 .252.052.343.143a.49.49 0 0 1 .142.345zm.653 8.628c-.001.097-.03.191-.083.27a.49.49 0 0 1-.498.205.48.48 0 0 1-.247-.134.49.49 0 0 1 .074-.75c.08-.053.173-.082.269-.082a.48.48 0 0 1 .344.144.49.49 0 0 1 .105.16.5.5 0 0 1 .036.187zm.95-5.107c0 .143-.042.283-.121.402a.72.72 0 0 1-.323.266.71.71 0 0 1-.415.041c-.139-.028-.267-.096-.368-.198s-.169-.23-.197-.37a.73.73 0 0 1 .041-.418c.054-.132.147-.245.265-.325a.72.72 0 0 1 .908.09c.135.136.211.32.211.512z"/></g><g class="L"><path d="M36.536 178.465a.75.75 0 0 1-.124.416.74.74 0 0 1-.333.276c-.136.057-.285.072-.429.043a.74.74 0 0 1-.381-.204.75.75 0 0 1-.16-.815.74.74 0 0 1 .688-.46c.097 0 .193.019.283.057a.75.75 0 0 1 .24.161c.069.069.123.151.16.241a.75.75 0 0 1 .056.285zm7.037 2.475a.53.53 0 0 1-.323.488c-.095.04-.201.05-.303.03a.53.53 0 0 1-.269-.145c-.073-.073-.123-.167-.143-.27a.53.53 0 0 1 .223-.541.52.52 0 0 1 .662.065.53.53 0 0 1 .154.373zm-6.324 1.255a.53.53 0 0 1-.088.293c-.058.087-.139.154-.235.194s-.201.051-.303.03a.52.52 0 0 1-.268-.144.53.53 0 0 1 .079-.812.52.52 0 0 1 .291-.089c.139 0 .272.056.371.155a.53.53 0 0 1 .154.373zm3.61-6.571a.53.53 0 0 1-.088.293c-.058.087-.139.154-.235.194s-.201.051-.303.03a.52.52 0 0 1-.269-.144.53.53 0 0 1 .079-.812.52.52 0 0 1 .291-.089c.139 0 .272.056.371.155a.53.53 0 0 1 .154.373zm8.558 2.313a.53.53 0 0 1-.321.49c-.096.04-.201.051-.303.031s-.196-.07-.269-.143a.53.53 0 0 1-.115-.576.52.52 0 0 1 .193-.237c.086-.058.188-.089.292-.089.139 0 .271.055.37.153a.53.53 0 0 1 .155.371zm-17.58 1.802a.53.53 0 0 1-.088.293c-.058.087-.139.154-.235.194s-.201.05-.303.03a.52.52 0 0 1-.268-.144.53.53 0 0 1 .079-.812.52.52 0 0 1 .291-.089.53.53 0 0 1 .525.528z"/></g><g style="mix-blend-mode:screen" class="H C"><path d="M32.823 187.222s-4.069-5.359-3.126-10.822c1.095-6.305 6.503-9.029 9.191-9.275l-.96-13.195 1.134.332 1.619 14.881s-7.832-.681-8.448 7.397c-.574 7.483 4.313 10.686 4.313 10.686l-3.723-.004z"/></g><g style="mix-blend-mode:multiply" class="E G"><path d="M47.435 149.257l-.257 3.107c-1.903.461-4.867 1.118-6.219 1.118s-4.313-.664-6.216-1.118l-.257-3.107h12.95z"/></g><path d="M40.958 146.413h-8.729l.778 4.029s5.876 1.55 7.951 1.55 7.954-1.55 7.954-1.55l.778-4.029h-8.732z" class="F"/><g style="mix-blend-mode:screen" class="E C"><path d="M33.232 147.133l.432 2.599 3.964 1.072-.508-2.645 7.087-1.026H33.232z"/></g><g class="F"><path d="M93.437 121.606l-.231 2.808-1.556 22.918h-8.129l-1.553-22.918-.231-2.808h11.7z"/><path d="M81.579 163.345h12.017a5.52 5.52 0 0 0 2.238-.457 5.55 5.55 0 0 0 1.865-1.325 13.83 13.83 0 0 0 3.415-7.069 13.87 13.87 0 0 0-.973-7.798c-1.069-2.45-2.823-4.534-5.047-5.999a13.65 13.65 0 0 0-7.483-2.252c-2.659-.005-5.261.768-7.491 2.225a13.78 13.78 0 0 0-5.068 5.98 13.88 13.88 0 0 0-1.001 7.795 13.83 13.83 0 0 0 3.391 7.081c.526.577 1.166 1.036 1.879 1.349s1.482.473 2.26.47z"/></g><path d="M99.808 152.367c-.028 3.032-1.17 5.945-3.205 8.181a4.08 4.08 0 0 1-1.368.967c-.518.224-1.076.338-1.639.333H81.579c-.353 0-.704-.045-1.045-.132-.761-.2-1.448-.617-1.979-1.202-1.108-1.223-1.959-2.659-2.501-4.222s-.765-3.22-.655-4.872.551-3.264 1.296-4.739a12.26 12.26 0 0 1 3.04-3.848l.069-.057c.86-.724 1.817-1.324 2.843-1.782l.073-.033.659-.269 1.049-.388h.017l-1.082-17.197h8.462l-1.082 17.2 1.059.395a12.3 12.3 0 0 1 5.831 4.562c1.432 2.087 2.192 4.567 2.176 7.103z" class="G"/><path d="M76.547 146.988a12.32 12.32 0 0 0-1.052 7.069c.355 2.409 1.416 4.658 3.047 6.457.387.421.857.757 1.38.985s1.087.346 1.657.343h12.017c.563.004 1.122-.11 1.639-.334s.984-.553 1.368-.967a12.29 12.29 0 0 0 3.071-6.469c.361-2.416-.005-4.885-1.049-7.091l-22.078.007z" fill="#00c95b"/><g fill="#00a941"><path d="M99.808 152.367a12.32 12.32 0 0 1-3.205 8.18 4.08 4.08 0 0 1-1.368.968c-.518.224-1.076.337-1.639.333H81.579a4.09 4.09 0 0 1-2.704-.996h11.647a4.05 4.05 0 0 0 1.639-.333c.517-.224.984-.553 1.368-.968a12.32 12.32 0 0 0 3.205-8.18 12.14 12.14 0 0 0-.762-4.371h2.638a12.25 12.25 0 0 1 1.197 5.367zm-9.86 5.011a1.07 1.07 0 0 1-.179.594c-.117.176-.282.313-.477.393s-.408.102-.614.061a1.06 1.06 0 0 1-.544-.292 1.08 1.08 0 0 1-.231-1.165 1.06 1.06 0 0 1 .391-.479 1.05 1.05 0 0 1 .59-.18c.282 0 .552.112.751.313a1.07 1.07 0 0 1 .311.755zm-8.495 1.374c.587 0 1.062-.478 1.062-1.069s-.475-1.068-1.062-1.068-1.062.478-1.062 1.068.475 1.069 1.062 1.069zm-1.216-7.858c.586 0 1.062-.479 1.062-1.069s-.475-1.069-1.062-1.069-1.062.479-1.062 1.069.475 1.069 1.062 1.069zm12.946 5.047a.67.67 0 0 1-.111.369.66.66 0 0 1-.296.244c-.12.05-.253.064-.381.038a.66.66 0 0 1-.518-.521.67.67 0 0 1 .28-.682c.108-.073.236-.112.366-.112.175 0 .343.07.466.195a.67.67 0 0 1 .193.469zm-1.339-6.89a.67.67 0 0 1-.407.614c-.121.05-.253.063-.381.037a.65.65 0 0 1-.338-.181.67.67 0 0 1-.143-.724c.05-.121.134-.225.243-.297s.236-.112.366-.112a.66.66 0 0 1 .466.194c.124.125.193.293.193.469zm-8.264 3.044a.67.67 0 0 1-.111.369.66.66 0 0 1-.677.282.66.66 0 0 1-.338-.182c-.092-.093-.155-.211-.18-.34a.67.67 0 0 1 .038-.383.66.66 0 0 1 .243-.298c.109-.073.236-.112.366-.112.175 0 .343.07.466.195a.67.67 0 0 1 .193.469zm6.368 2.237a.48.48 0 0 1-.292.444.48.48 0 0 1-.621-.626.48.48 0 0 1 .176-.214.47.47 0 0 1 .597.061.48.48 0 0 1 .139.335zm-6.19 1.606c.261 0 .472-.213.472-.475s-.211-.474-.472-.474a.47.47 0 0 0-.471.474c0 .262.211.475.471.475z"/><use href="#E"/><path d="M94.756 152.095c.26 0 .472-.213.472-.475s-.211-.474-.472-.474-.472.212-.472.474.211.475.472.475zm-15.881 1.623c.26 0 .472-.213.472-.475s-.211-.474-.472-.474-.472.212-.472.474.211.475.472.475z"/></g><g style="mix-blend-mode:screen" class="H C"><path d="M80.237 160.006s-3.677-4.841-2.823-9.776c.989-5.705 5.873-8.157 8.3-8.383l-.867-16.022 1.019.302 1.461 17.542s-7.077-.614-7.634 6.684c-.518 6.76 3.888 9.653 3.888 9.653h-3.344z"/></g><path d="M96.886 177.227l-7.321-3.054.501-2.376-6.391.501.376 1.875-7.321 3.04a.75.75 0 0 0-.397.391c-.077.177-.084.377-.018.558l1.2 3.349a1.66 1.66 0 0 0 .604.8 1.65 1.65 0 0 0 .952.302h15.473a1.65 1.65 0 0 0 .952-.302c.279-.198.49-.477.604-.8l1.2-3.349c.062-.179.053-.376-.024-.55s-.217-.312-.391-.385z" class="F"/><path d="M79.073 181.475c-.104.001-.206-.031-.291-.09a.51.51 0 0 1-.187-.242l-1.068-2.987 7.842-3.256h2.876l7.848 3.259-1.072 2.987a.5.5 0 0 1-.185.242c-.085.06-.186.091-.29.09l-15.472-.003z" class="G"/><path d="M94.713 178.933l-.551 2.024H79.455l-.551-2.024 3.123-1.716h9.563l3.123 1.716z" fill="#ffa633"/><path d="M94.713 178.933l-.551 2.024H79.455l13.817-.933.172-.936-1.853-1.871 3.123 1.716z" fill="#f18001"/><g style="mix-blend-mode:screen" class="E C"><path d="M84.764 174.044l-.191-1.228 4.765-.504-3.09.759.201 1.222-1.685-.249z"/></g><g style="mix-blend-mode:screen" class="H C"><path d="M85.437 175.143l-7.179 3.235.92 2.579h1.932l-1.148-2.35 6.18-3.464h-.706z"/></g><path d="M85.767 171.243a2.2 2.2 0 0 1-.838-.443 2.23 2.23 0 0 1-.577-.755 2.24 2.24 0 0 1-.211-.929c-.003-.321.064-.639.194-.932.3-.664.897-1.145 1.359-1.713s.811-1.364.488-2.021a8.36 8.36 0 0 1 2.701 3.568c.498 1.221.462 2.655-.953 3.186-.698.25-1.457.264-2.163.039z" fill="#ffa633"/><path d="M86.186 170.606c-.162-.046-.313-.127-.442-.236a1.18 1.18 0 0 1-.304-.4 1.19 1.19 0 0 1-.111-.491c-.002-.17.033-.338.102-.493a4.41 4.41 0 0 1 .719-.906c.138-.136.236-.308.281-.497a1.04 1.04 0 0 0-.024-.571 4.41 4.41 0 0 1 1.428 1.888c.267.644.247 1.407-.501 1.683a1.77 1.77 0 0 1-1.148.023z" class="J"/><g fill="#f18001"><path d="M90.176 178.976a.43.43 0 0 1-.071.236c-.046.07-.112.124-.189.156s-.162.041-.244.024a.42.42 0 0 1-.332-.334.43.43 0 0 1 .024-.245c.032-.078.086-.144.155-.191s.151-.071.235-.071a.41.41 0 0 1 .162.031c.051.021.098.053.137.092a.42.42 0 0 1 .122.302zm-7.71-.312a.43.43 0 0 1-.071.236c-.046.07-.112.124-.189.156s-.162.041-.244.024a.42.42 0 0 1-.331-.334c-.016-.083-.008-.167.024-.245s.086-.144.156-.191a.42.42 0 0 1 .234-.071c.112 0 .219.045.299.124s.124.188.124.301zm6.19-.551a.22.22 0 0 1-.036.12c-.024.035-.057.063-.096.079a.21.21 0 0 1-.124.012c-.041-.008-.08-.029-.11-.059a.22.22 0 0 1-.059-.11.22.22 0 0 1 .091-.222c.035-.023.077-.036.119-.036.057 0 .111.023.151.063s.063.095.063.153zm2.555.066a.22.22 0 0 1-.063.153c-.04.041-.095.063-.152.063s-.111-.023-.151-.063-.063-.096-.063-.153.023-.112.063-.152.095-.064.151-.064.111.023.152.064.063.095.063.152z"/><use href="#F"/><path d="M88.016 179.762c.118 0 .214-.097.214-.216s-.096-.215-.214-.215-.214.096-.214.215.096.216.214.216zm-2.595-1.221c.118 0 .214-.097.214-.216s-.096-.216-.214-.216-.214.097-.214.216.096.216.214.216zm-2.052-.276c.118 0 .214-.096.214-.215s-.096-.216-.214-.216-.214.097-.214.216.096.215.214.215zm8.911.846a.29.29 0 0 1-.177.267c-.052.022-.11.028-.166.017s-.107-.039-.147-.079-.067-.092-.079-.148a.29.29 0 0 1 .281-.345.26.26 0 0 1 .11.021c.035.015.067.035.094.062a.29.29 0 0 1 .062.094c.014.036.021.073.021.111zm-5.936.146a.29.29 0 0 1-.177.267c-.052.022-.11.028-.166.017s-.107-.039-.147-.079-.067-.092-.079-.148a.29.29 0 0 1 .281-.345c.076 0 .149.03.203.084a.29.29 0 0 1 .084.204z"/></g><g class="B"><path d="M86.492 172.089l.801-.049-.211-1.809-.59.166v1.692zm-22.628 11.888l1.88-100.445-3.449.561-3.367.544.752 99.34h4.185z"/></g><g style="mix-blend-mode:multiply" class="D B"><path d="M61.176 183.977l1.118-99.884-3.367.544.752 99.34h1.497z"/></g><path d="M48.648 106.693v26.691a4.7 4.7 0 0 1-1.363 3.312 4.64 4.64 0 0 1-6.58 0 4.7 4.7 0 0 1-1.363-3.312v-26.691h9.306z" class="F"/><path d="M47.27 108.08v25.304a3.33 3.33 0 0 1-.963 2.315c-.61.615-1.435.965-2.298.974-.132.002-.265-.007-.396-.026-.603-.067-1.174-.304-1.649-.684a3.29 3.29 0 0 1-.92-1.145c-.217-.446-.331-.936-.333-1.434V108.08h6.559z" class="G"/><path d="M41.41 118.527v14.857a2.61 2.61 0 0 0 .757 1.84c.485.488 1.142.762 1.828.762s1.343-.274 1.828-.762a2.61 2.61 0 0 0 .757-1.84v-14.857H41.41z" class="M"/><g class="N"><path d="M43.62 122.274c0 .116-.034.23-.098.327s-.155.172-.261.217a.58.58 0 0 1-.337.036.59.59 0 0 1-.464-.457.6.6 0 0 1 .028-.34c.042-.108.116-.201.21-.268a.59.59 0 0 1 .322-.106.58.58 0 0 1 .229.041c.073.029.139.072.195.128s.1.12.131.193a.59.59 0 0 1 .046.229zm1.21 7.762a.59.59 0 0 1-.098.33.6.6 0 0 1-.263.219.58.58 0 0 1-.34.034c-.114-.023-.219-.079-.301-.162a.59.59 0 0 1-.127-.645.59.59 0 0 1 .218-.265.58.58 0 0 1 .327-.098c.155.001.302.063.412.173a.59.59 0 0 1 .172.414zm-.36-10.394a.33.33 0 0 1-.056.184c-.036.055-.088.097-.148.123a.32.32 0 0 1-.191.018c-.064-.013-.123-.044-.169-.09s-.078-.106-.09-.17a.34.34 0 0 1 .019-.192c.025-.061.067-.113.121-.149a.33.33 0 0 1 .416.041c.062.062.097.147.097.235zm-.475 13.749c.186 0 .336-.152.336-.339s-.151-.338-.336-.338-.336.151-.336.338.151.339.336.339zm-.873-6.743c0 .065-.019.13-.056.184s-.088.097-.148.122a.33.33 0 0 1-.191.019c-.064-.013-.123-.044-.169-.091a.33.33 0 0 1-.071-.361.33.33 0 0 1 .122-.149c.055-.036.118-.056.183-.056a.33.33 0 0 1 .233.097c.062.062.097.147.097.235zm0 5.446a.33.33 0 0 1-.056.184c-.037.055-.088.097-.148.122a.33.33 0 0 1-.191.019c-.064-.013-.123-.044-.169-.091a.33.33 0 0 1-.072-.361c.025-.061.067-.113.122-.149s.118-.056.183-.056a.33.33 0 0 1 .233.097c.062.062.097.147.097.235zm3.459-13.567v14.857a2.61 2.61 0 0 1-.476 1.496 2.59 2.59 0 0 1-1.246.947 2.56 2.56 0 0 1-1.56.05 2.58 2.58 0 0 1-1.304-.863c.255.084.523.127.791.126a2.58 2.58 0 0 0 1.827-.763c.485-.488.757-1.149.758-1.839v-14.011h1.21z"/></g><g style="mix-blend-mode:screen" class="H C"><path d="M43.6 108.08v28.573a3.21 3.21 0 0 1-1.649-.683v-27.877l1.649-.013z"/></g><g style="mix-blend-mode:multiply" class="E G"><path d="M48.648 106.693v2.041l-4.653.637c-1.026 0-3.331-.395-4.653-.637v-2.041h9.306z"/></g><path d="M44.009 105.558h-6.196l.551 2.137s4.162.82 5.646.82 5.606-.82 5.606-.82l.554-2.137h-6.16z" class="F"/><g style="mix-blend-mode:screen" class="E C"><path d="M38.475 105.936l.356 1.321 2.322.541-.3-1.341 4.148-.521h-6.526z"/></g><g style="mix-blend-mode:screen" class="C H"><path d="M40.639 100.849a4.11 4.11 0 0 1 .077-1.888 4.09 4.09 0 0 1 .913-1.65c.699-.75 1.751-1.364 1.814-2.393.086-1.397-1.721-2.187-2.048-3.548-.28-1.175.659-2.323 1.738-2.867-.597.388-.712 1.271-.429 1.928.331.639.832 1.174 1.448 1.543a7.2 7.2 0 0 1 1.649 1.357c.459.634.662 1.421.568 2.2s-.479 1.493-1.076 1.998c-.768.601-1.824.823-2.43 1.59s-.584 1.812-.241 2.688a8.12 8.12 0 0 0 1.599 2.323 3.04 3.04 0 0 1-1.2-.279c-.36-.186-.693-.42-.989-.697-.711-.587-1.202-1.401-1.392-2.306zm.402-5.377a1.53 1.53 0 0 0 .069-.59c-.016-.199-.071-.394-.162-.571a2.36 2.36 0 0 0-.758-.743 2.97 2.97 0 0 1-.798-.7.94.94 0 0 1-.188-.484.95.95 0 0 1 .096-.511c-.216.088-.407.229-.556.409s-.252.395-.298.625a1.43 1.43 0 0 0 .383 1.289c.33.332.791.481 1.138.787.34.346.541.805.564 1.291a1.33 1.33 0 0 0 .511-.8zm5.424 3.166a1.39 1.39 0 0 0 .579-.511 1.4 1.4 0 0 0 .219-.744 1.92 1.92 0 0 1 .073 1.805 3.31 3.31 0 0 1-1.263 1.361 9.49 9.49 0 0 0-1.194.77 1.5 1.5 0 0 0-.443.55 1.52 1.52 0 0 0-.144.694c0-.149-.33-.455-.409-.62a2.3 2.3 0 0 1-.181-.81c-.041-.384.02-.773.178-1.125.508-.883 1.777-.926 2.585-1.371z"/></g><use href="#G" class="B"/><g style="mix-blend-mode:multiply" class="D B"><use href="#G"/></g><g class="B"><path d="M69.605 110.4l-.702 6.886h2.434l1.237-6.886h-2.968z"/><use href="#H"/></g><g style="mix-blend-mode:multiply" class="D B"><use href="#H"/></g><path d="M57.061 111.077l10.223-.996-.772 7.523-8.904-.776-.547-5.751z" class="B"/><path d="M58.495 115.627l-.392-3.485 8.369-1.038-6.163 1.742-.392 2.781h-1.421z" class="I"/><path d="M50.683 110.957v4.978l-13.191.79-.188-1.45-.554-4.318h13.933z" class="B"/><g style="mix-blend-mode:multiply" class="D B"><path d="M50.683 113.958v1.991l-13.191.79-.188-1.451 13.379-1.33z"/></g><path d="M37.885 113.406l-.33-1.845h12.574v.352l-12.244 1.493z" class="I"/><use href="#I" class="B"/><g style="mix-blend-mode:multiply" class="D B"><use href="#I"/></g><use href="#J" class="B"/><g style="mix-blend-mode:multiply" class="D B"><use href="#J"/></g><use href="#K" class="B"/><g style="mix-blend-mode:multiply" class="D B"><use href="#K"/></g><g class="B"><path d="M46.581 183.287l91.655-2.742v6.14H46.581v-3.398zm59.915-41.988l1.484 2.366 30.585.375 1.649-3.886-33.718 1.145z"/></g><path d="M108.309 141.774l30.477-.886-.494 1.798-29.653-.471-.33-.441z" class="I"/><path d="M115.897 130.315l-.659.05c-.046-4.955-1.979-6.206-4.02-7.527-1.154-.75-2.348-1.527-3.195-2.987-1.435-2.466.659-4.802 2.681-7.062 1.572-1.755 3.056-3.411 2.74-4.925-.218-1.035-1.24-2.031-2.803-2.734-3.443-1.553-9.985-1.912-17.089 2.19-8.244 4.762-6.18 34.182-5.721 39.661h-.66c-.505-5.808-2.612-35.227 6.061-40.238 7.314-4.225 14.097-3.837 17.685-2.22 1.784.806 2.912 1.941 3.175 3.202.386 1.845-1.206 3.624-2.892 5.509-1.952 2.18-3.795 4.238-2.605 6.282.769 1.327 1.847 2.018 2.988 2.758 2.087 1.36 4.247 2.764 4.313 8.041z" fill="#fff"/><use href="#L" class="B"/><g style="mix-blend-mode:multiply" class="D B"><use href="#L"/></g><g class="B"><path d="M54.746 129.843l.699 6.886h-2.43l-1.237-6.886h2.968z"/><use href="#M"/></g><g style="mix-blend-mode:multiply" class="D B"><use href="#M"/></g><path d="M67.29 130.52l-10.223-.995.768 7.523 8.904-.773.551-5.755z" class="B"/><path d="M65.852 135.07l.392-3.484-8.366-1.036 6.16 1.743.392 2.777h1.421z" class="I"/><path d="M80.263 130.404v4.978l13.191.79.188-1.45.554-4.318H80.263z" class="B"/><g style="mix-blend-mode:multiply" class="D B"><path d="M80.263 133.404v1.991l13.191.79.188-1.45-13.379-1.331z"/></g><path d="M93.065 132.85l.33-1.845H80.82v.352l12.244 1.493z" class="I"/><g style="mix-blend-mode:screen" class="H C"><path d="M92.032 117.714c-.613-.664-1.649-1.052-1.797-1.948-.185-1.208 1.468-1.951 1.649-3.159.139-.936-.679-1.759-1.55-2.108s-1.84-.375-2.717-.706-1.712-1.135-1.606-2.075c.125-1.115 1.385-1.639 2.219-2.379 1.58-1.4 1.616-4.195.076-5.642-.597-.558-1.352-.906-2.035-1.351s-1.339-1.045-1.524-1.842.303-1.785 1.115-1.858c-1.774.146-3.136 2.16-2.622 3.873.399 1.327 1.685 2.323 1.82 3.701.158 1.569-1.2 2.824-2.407 3.829s-2.513 2.363-2.203 3.91c.214 1.078 1.151 1.825 1.922 2.601s1.464 1.902 1.049 2.917c-.307.74-1.118 1.162-1.484 1.875a2.46 2.46 0 0 0-.194 1.158c.03.397.155.779.365 1.116.425.669.958 1.262 1.576 1.755l6.925.163c.417-.046.814-.207 1.146-.466s.586-.606.733-1.001a2.3 2.3 0 0 0 .103-1.24 2.29 2.29 0 0 0-.558-1.11l-.003-.013z"/></g><g style="mix-blend-mode:screen" class="H C"><path d="M79.643 102.16c-.508.912.053 1.835 1.078 1.769 1.098-.07 2.559-.727 2.661-1.992.079-.995-.841-1.539-1.731-1.327a3.44 3.44 0 0 0-2.008 1.55z"/></g><g style="mix-blend-mode:screen" class="H C"><path d="M89.322 108.694c.251.063.514.047.755-.047.119-.049.22-.134.289-.243s.103-.238.097-.367c-.079-.637-1.22-.996-1.748-.757-.125.052-.228.148-.289.27s-.075.262-.041.394c.063.205.187.386.354.52s.37.214.583.23z"/></g><g style="mix-blend-mode:multiply" class="E G"><path d="M93.437 121.606l-.231 2.808c-1.721.415-4.399.996-5.606.996s-3.898-.594-5.606-.996l-.231-2.808h11.674z"/></g><path d="M87.587 119.038h-7.888l.702 3.65s5.313 1.374 7.186 1.374 7.185-1.397 7.185-1.397l.703-3.65-7.888.023z" class="F"/><g style="mix-blend-mode:screen" class="E C"><path d="M80.606 119.688l.389 2.35 3.585.966-.462-2.39 6.401-.926h-9.913z"/></g><path d="M50.215 190.873l20.64 2.711a80.56 80.56 0 0 0 8.327.664h5.682a.66.66 0 0 0 .436-.16c.121-.104.201-.249.224-.408.017-.123-.002-.249-.055-.361a.65.65 0 0 0-.242-.273c-.056-.035-.117-.062-.181-.079l-5.494-1.454a79.24 79.24 0 0 0-8.214-1.52l-20.64-2.708-.481 3.588z" class="F"/><path d="M50.301 190.202l20.64 2.708a78.98 78.98 0 0 0 8.244.664h5.464l-1.708-.455-3.575-.945-.989-.233-7.149-1.271-20.623-2.714-.303 2.246z" class="G"/><g style="mix-blend-mode:screen" class="H C"><path d="M50.436 189.17l32.511 3.946-3.575-.946-.989-.232-27.829-3.65-.119.882z"/></g><path d="M34.719 188.838l13.263 1.743.468-3.591-13.266-1.739c-.234-.031-.472-.015-.7.047s-.442.168-.629.313-.344.325-.462.531-.194.433-.225.669-.015.475.047.704.167.444.311.633.323.346.528.464a1.77 1.77 0 0 0 .664.226z" class="N"/><path d="M33.581 188.218v-.209a1.81 1.81 0 0 1 .224-.669c.118-.206.275-.387.462-.532s.401-.251.629-.313.466-.077.7-.046l12.699 1.663.148-1.125-13.266-1.739c-.36-.046-.725.018-1.048.184a1.81 1.81 0 0 0-.761.748 1.82 1.82 0 0 0 .207 2.035l.007.003z" class="M"/><g style="mix-blend-mode:multiply" class="D B"><path d="M45.977 190.319l1.504.195.465-3.587-2.041-.269.072 3.661z"/></g><path d="M50.558 192.157l.755-5.818-3.535-1.254-.65 7.201 3.429-.129z" class="N"/><path d="M48.216 185.895l-.528 5.897.907-4.234 1.989-.053.152-.843-2.519-.767z" class="M"/><g fill="#fff"><path d="M80.029 110.944c-.241-.001-.478.071-.679.205s-.358.326-.451.551a1.24 1.24 0 0 0-.071.709 1.23 1.23 0 0 0 .333.63 1.22 1.22 0 0 0 .625.337c.237.047.482.023.705-.07a1.22 1.22 0 0 0 .548-.452 1.23 1.23 0 0 0 .206-.682 1.25 1.25 0 0 0-.36-.864 1.23 1.23 0 0 0-.857-.364zm26.467-16.998a1.21 1.21 0 0 0-.675.208 1.23 1.23 0 0 0-.515 1.257 1.22 1.22 0 0 0 .334.626 1.21 1.21 0 0 0 .623.334c.236.047.48.023.702-.07s.412-.25.546-.451.205-.438.205-.68c-.004-.324-.133-.634-.361-.863a1.23 1.23 0 0 0-.859-.361zM85.46 105.17c-.039-.098-.106-.182-.193-.242a.52.52 0 0 0-.295-.09l-.277.03c-.206.022-.398.114-.547.259-.098.097-.16.225-.178.363a.63.63 0 0 0 .079.397.66.66 0 0 0 .306.254c.126.051.264.062.396.031a1.13 1.13 0 0 0 .597-.415.55.55 0 0 0 .112-.587zm21.534 24.601a1.31 1.31 0 0 0-.733.223c-.217.146-.386.353-.486.596s-.126.509-.075.767a1.34 1.34 0 0 0 .361.68 1.32 1.32 0 0 0 .675.363c.256.051.521.025.763-.076s.447-.27.591-.489.223-.475.223-.737a1.33 1.33 0 0 0-.387-.939 1.31 1.31 0 0 0-.932-.388zm15.169-41.908c-.261 0-.516.078-.733.224s-.386.353-.486.596-.126.51-.075.767a1.34 1.34 0 0 0 .361.68 1.32 1.32 0 0 0 .675.363 1.31 1.31 0 0 0 .763-.076 1.32 1.32 0 0 0 .592-.489 1.33 1.33 0 0 0 .222-.737c0-.352-.139-.69-.386-.939s-.583-.389-.933-.389zm-.205 37.434a1.66 1.66 0 0 0-.54.026c-.129.039-.241.119-.321.227a.63.63 0 0 0 0 .748.62.62 0 0 0 .321.227 1.66 1.66 0 0 0 .54.023.63.63 0 0 0 .438-.184c.116-.117.183-.275.186-.44a.65.65 0 0 0-.188-.439c-.115-.117-.272-.184-.436-.188zm18.467 25.573a1.42 1.42 0 0 0-.969.405 1.38 1.38 0 0 0-.375.707c-.053.267-.026.545.078.797a1.38 1.38 0 0 0 .505.619 1.36 1.36 0 0 0 .761.233c.363-.005.71-.15.97-.405a1.39 1.39 0 0 0 .375-.706c.053-.268.025-.545-.078-.798s-.28-.467-.505-.619-.491-.233-.762-.233zm-85.158-.076l.056.043a2.43 2.43 0 0 0-.432-.359 1.67 1.67 0 0 0-1.174-.156 1.48 1.48 0 0 0-.6.327 1.49 1.49 0 0 0-.39.563 1.54 1.54 0 0 0 .029 1.262c.094.196.228.37.393.51a1.52 1.52 0 0 0 .567.302c.354.094.728.067 1.065-.076a1.35 1.35 0 0 0 .3-.15c.211-.124.386-.301.507-.514a1.42 1.42 0 0 0 .185-.7c-.003-.202-.05-.401-.138-.583s-.214-.342-.37-.469zm21.596 20.144v-.053a.66.66 0 0 0-.618-.433.66.66 0 0 0-.618.433v.053a.66.66 0 0 0-.018.306.67.67 0 0 0 .12.281.65.65 0 0 0 .826.197.65.65 0 0 0 .233-.197.67.67 0 0 0 .102-.587h-.026zm-5.154-7.53a1.4 1.4 0 0 0-.96.401 1.38 1.38 0 0 0-.363.698c-.051.263-.023.535.08.783a1.37 1.37 0 0 0 .496.609 1.35 1.35 0 0 0 .747.233 1.34 1.34 0 0 0 .54-.084c.172-.065.33-.163.464-.291a1.36 1.36 0 0 0 .312-.452 1.37 1.37 0 0 0 0-1.077c-.073-.17-.179-.324-.312-.452s-.291-.226-.464-.291a1.36 1.36 0 0 0-.54-.084v.007zM54.04 100.026l-.066-.07a1.18 1.18 0 0 0-1.649 0l-.066.07a1.27 1.27 0 0 0-.347.65 1.28 1.28 0 0 0 .071.735 1.27 1.27 0 0 0 .465.571c.208.14.452.215.702.215s.494-.075.702-.215a1.27 1.27 0 0 0 .465-.571 1.28 1.28 0 0 0 .071-.735 1.27 1.27 0 0 0-.346-.65h-.003zm-22.463 4.288l-.04-.06a.85.85 0 0 0-.409-.357.84.84 0 0 0-.99.271.85.85 0 0 0-.174.516c0 .186.061.367.174.516a.84.84 0 0 0 .449.303c.179.049.369.038.54-.033a.85.85 0 0 0 .409-.357l.04-.056a.73.73 0 0 0 .102-.372.72.72 0 0 0-.102-.371zM50.95 85.898c-1.695 0-1.698 2.655 0 2.655s1.698-2.655 0-2.655zm-22.51 43.208l-.063-.066c-.534-.627-1.563-.103-1.563.664s1.032 1.278 1.563.664l.063-.073c.156-.158.243-.372.243-.594s-.088-.437-.243-.595zm68.898-16.417a.84.84 0 0 0-.779.521c-.064.154-.081.326-.049.49a.85.85 0 0 0 .23.434.84.84 0 0 0 .917.183.85.85 0 0 0 .518-.785.86.86 0 0 0-.249-.592.85.85 0 0 0-.588-.251zm44.723 21.751l-.158-.024a.6.6 0 0 0-.736.652c.014.129.07.25.159.344.076.072.168.123.269.15a.62.62 0 0 0 .308.003l.158-.02a.58.58 0 0 0 .302-.207c.075-.101.116-.223.116-.349s-.041-.248-.116-.349a.58.58 0 0 0-.302-.207v.007zM27.224 162.094c-.083-.209-.234-.383-.428-.495a.98.98 0 0 0-.641-.119 1.02 1.02 0 0 0-.534.245c-.15.133-.258.307-.311.501a1.13 1.13 0 0 0 0 .545 1.09 1.09 0 0 0 .468.61l.023.02a.88.88 0 0 0 .627.116.9.9 0 0 0 .561-.268l.023-.027c.14-.147.234-.332.271-.533a1.06 1.06 0 0 0-.06-.595zm91.209-44.854c-.027-.017-.056-.031-.085-.044-.107-.058-.226-.088-.347-.088a.72.72 0 0 0-.346.088c-.103.061-.189.148-.248.253a.69.69 0 0 0-.091.343c0 .121.031.239.091.343a.7.7 0 0 0 .248.253.71.71 0 0 0 .346.091c.122 0 .241-.032.347-.091.03-.011.058-.026.085-.043a.66.66 0 0 0 .216-.239c.052-.097.078-.205.078-.314s-.026-.217-.078-.313a.66.66 0 0 0-.216-.239zM97.741 96.345a.3.3 0 0 0-.086-.043.7.7 0 0 0-.692 0 .69.69 0 0 0-.246.252c-.059.104-.09.222-.09.342s.031.238.09.342a.69.69 0 0 0 .246.252.7.7 0 0 0 .692 0 .3.3 0 0 0 .086-.043.64.64 0 0 0 .226-.235c.054-.097.082-.205.082-.316s-.028-.22-.082-.316-.132-.177-.226-.235zm-24.885 4.089l-.079-.053c-.085-.051-.182-.078-.281-.078a.57.57 0 0 0-.282.074.56.56 0 0 0-.283.49.57.57 0 0 0 .282.49.56.56 0 0 0 .282.074c.099-.001.196-.027.281-.078l.079-.053a.5.5 0 0 0 .177-.185.51.51 0 0 0 0-.496.5.5 0 0 0-.177-.185zm-37.609 35.768a1.25 1.25 0 0 0-.419-.149h.096l-.148-.01-.198-.023h.102a1.34 1.34 0 0 0-.523.041c-.17.048-.328.13-.467.241a1.42 1.42 0 0 0-.543 1.026 1.43 1.43 0 0 0 .085.589 1.42 1.42 0 0 0 .317.502 1.46 1.46 0 0 0 .989.415c.37-.01.722-.158.989-.415a1.45 1.45 0 0 0 .325-.544 1.44 1.44 0 0 0-.606-1.673zm71.048 12.66c-1.01 0-1.01 1.58 0 1.58s1.028-1.58 0-1.58z"/></g></g><defs><radialGradient id="A" cx="0" cy="0" r="1" gradientUnits="userSpaceOnUse" gradientTransform="translate(83.4151 112.379) rotate(90) scale(112.379 83.4151)"><stop stop-color="#afeeff"/><stop offset="1" stop-color="#01c0f4"/></radialGradient><clipPath id="B"><path fill="#fff" transform="translate(14 63)" d="M0 0h138v133H0z"/></clipPath><path id="C" d="M133.375 137.005v1.709c-1.288.26-2.591.439-3.901.534a31.03 31.03 0 0 1-3.898-.534v-1.709h7.799z"/><path id="D" d="M115.581 137.921h-.528v3.348h.528v-3.348z"/><path id="E" d="M87.023 150.004c.26 0 .472-.213.472-.475s-.211-.474-.472-.474-.472.212-.472.474.211.475.472.475z"/><path id="F" d="M82.466 180.051c.118 0 .214-.097.214-.216s-.096-.216-.214-.216-.214.097-.214.216.096.216.214.216z"/><path id="G" d="M69.895 112.898h-4.907v1.889h4.907v-1.889z"/><path id="H" d="M58.683 112.898h-11.68v1.889h11.68v-1.889z"/><path id="I" d="M122.16 142.916h1.648l.66 40.493h-1.441l-.867-40.493z"/><path id="J" d="M61.011 185.523h-9.754v5.393h9.755v-5.393z"/><path id="K" d="M133.559 185.523h-9.754v5.393h9.754v-5.393z"/><path id="L" d="M54.456 134.23h4.907v-1.888h-4.907v1.888z"/><path id="M" d="M65.668 134.23h18.279v-1.888H65.668v1.888z"/></defs></svg>