<svg xmlns="http://www.w3.org/2000/svg" width="150" height="142" fill="none" xmlns:v="https://vecta.io/nano"><style><![CDATA[.B{fill:#fff}.C{fill:#8d415e}.D{fill:#50415e}.E{fill:#ffdebb}.F{fill:#ff3a27}.G{fill:#aa545e}.H{fill:#ffa015}.I{fill:#ffc215}.J{fill:#ffa615}.K{fill:#ffeaa1}.L{fill:#ffcdaa}.M{fill:#434946}.N{fill:#ffb815}.O{fill:#37355e}.P{fill:#b92227}.Q{fill:#c43962}.R{fill:#ffd729}.S{fill:#bee8e8}.T{fill:#ffb391}.U{fill:#ee797e}.V{fill:#eb7715}.W{fill:#ffa415}.X{fill:#f88f15}.Y{fill:#ffcb00}.Z{fill:#ffa200}.a{fill:#d46a15}.b{fill:#f3dfd8}.c{fill:#ffd015}.d{fill:#6c5a7d}]]></style><g clip-path="url(#A)"><path d="M27.443 141.578h95.11c8.59-7.004 15.51-15.824 20.258-25.823a74.39 74.39 0 0 0 7.196-31.986c0-41.291-33.577-74.764-75.003-74.764S0 42.479 0 83.769c-.011 11.061 2.446 21.986 7.192 31.984a74.63 74.63 0 0 0 20.251 25.825z" fill="#ceefe8"/><path d="M60.126 141.578h29.749c14.12-3.611 26.433-12.233 34.628-24.25a59.52 59.52 0 0 0 9.885-41.018 59.61 59.61 0 0 0-19.8-37.282 59.97 59.97 0 0 0-79.174 0 59.61 59.61 0 0 0-19.8 37.283 59.52 59.52 0 0 0 9.885 41.018c8.195 12.017 20.508 20.639 34.628 24.25z" fill="#9ed8cd"/><path d="M75 125.463c23.101 0 41.828-18.667 41.828-41.694S98.101 42.075 75 42.075 33.173 60.742 33.173 83.769 51.899 125.463 75 125.463z" fill="#79bfb2"/><path d="M142.548 51.247a199.69 199.69 0 0 1-23.155-13.417c-9.654-6.47-22.033-16.093-30.926-27.618l-1.656-.278c9.038 12.088 21.967 22.159 31.951 28.869a247.87 247.87 0 0 0 24.762 14.542c-.315-.711-.638-1.407-.976-2.099z" class="C"/><path d="M106.015 27.711l-2.075 9.842 9.019-4.508-6.944-5.334z" class="R"/><path d="M115.439 34.662l-1.288 9.975 8.632-5.207-7.344-4.767z" class="D"/><path d="M125.494 40.743l-.654 10.038 8.284-5.74-7.63-4.297z" class="F"/><path d="M134.465 45.825l-.654 10.038 8.284-5.744-7.63-4.293z" class="R"/><path d="M98.214 20.179l-2.785 9.664 9.324-3.849-6.539-5.815z" class="F"/><path d="M90.747 12.125L87.365 21.6l9.543-3.265-6.16-6.211z" class="D"/><g fill="#d9eee8"><use href="#B"/><use href="#B"/></g><g class="S"><path d="M61.667 93.718l2.933.426c5.098-11.34.041-43.826-.765-48.756-.631.37-1.251.781-1.856 1.199.609 4.186 4.326 31.978-1.485 46.942l1.173.189zm29.225-.37c-5.291-13.928-2.488-38.703-1.574-45.525a20.21 20.21 0 0 0-1.816-1.606c-1.114 6.969-5.458 36.823-.691 47.771l1.827-.278 2.254-.363z"/></g><path d="M74.952 55.359h-.743s3.011 23.547-.995 38.555l1.753-1.081c2.321-12.207-.015-37.475-.015-37.475z" fill="#b2ebe8"/><g class="E"><use href="#C"/><use href="#C"/></g><path d="M74.952 39.929l-5.518 1.784 2.154 5.47a1.61 1.61 0 0 0 .048.193l.249.666c.282.582.694 1.092 1.205 1.491a4.26 4.26 0 0 0 1.74.811h.178a4.25 4.25 0 0 0 1.741-.81c.51-.399.922-.909 1.204-1.492l.249-.666.052-.193 2.154-5.47-5.454-1.784z" fill="#ffc3b0"/><path d="M93.736 92.833c0 13.132-3.765 34.529-5.065 41.487-.118.635-.456 1.209-.954 1.621s-1.127.638-1.775.637c-.687.001-1.35-.252-1.861-.71s-.833-1.089-.905-1.77c-.847-8.091-3.825-33.285-8.224-35.195-4.404 1.91-7.374 27.104-8.224 35.195-.072.681-.394 1.312-.905 1.77a2.78 2.78 0 0 1-3.635.072 2.76 2.76 0 0 1-.955-1.62c-1.3-6.958-5.079-28.355-5.065-41.487h37.569z" class="E"/><path d="M76.779 98.056c-2.362-3.172-4.456 4.885-4.456 4.885.806-2.146 1.682-3.627 2.625-4.038 4.4 1.91 7.378 27.104 8.224 35.195a2.88 2.88 0 0 0 .223.825c.587-8.202 2.748-24.298-6.617-36.867z" fill="#ffc6a6"/><g class="G"><use href="#D"/><use href="#D"/></g><path d="M76.779 98.056c-2.362-3.172-4.456 4.885-4.456 4.885.806-2.146 1.682-3.627 2.625-4.038 2.477 1.077 4.5 9.52 5.941 18.136l.449.174c.793.31 1.613.543 2.451.696-.568-6.559-2.376-13.635-7.01-19.853z" class="C"/><g fill="#9d4a5e"><path d="M58.915 92.833c-.843 1.851-1.949 5.252.631 5.9 3.193.807 5.265-4.749 5.655-5.9h-6.286zm31.847 0c.843 1.851 1.949 5.252-.631 5.9-3.193.807-5.265-4.749-5.655-5.9h6.286z"/></g><path d="M74.952 56.961s-2.777-6.085-4.211-7.624c0 0-1.248.34-2.748 2.783 0 0-2.54-6.832-2.131-8.417l3.572-1.991s3.305 7.883 5.518 15.249z" fill="#97e9dc"/><path d="M72.227 48.856l-2.792-7.143-2.725 1.51c.352.371.833.594 1.344.622 0 0 .828 3.094 2.317 3.331 1.032.133 1.6 1.095 1.857 1.68z" fill="#75c3dc"/><path d="M74.952 56.961s2.777-6.085 4.214-7.624c0 0 1.248.34 2.744 2.783 0 0 2.544-6.832 2.135-8.417l-3.587-1.991s-3.293 7.883-5.506 15.249z" fill="#97e9dc"/><path d="M82.831 43.03l-2.373-1.318-2.599 6.633c.382-.681.955-1.235 1.649-1.595.995-.451 1.612-2.961 1.612-2.961.627-.099 1.218-.361 1.712-.759z" fill="#75c3dc"/><path d="M63.987 27.019s3.505-9.908 5.659-10.334 2.911 1.018 5.28.426 4.534-1.695 5.714-.825 5.276 11.104 5.276 11.104l-21.929-.37z" class="G"/><g fill="#92525e"><path d="M79.255 16.285c1.158.829 5.068 10.619 5.265 11.104l1.396.026s-4.084-10.286-5.276-11.137c-.479-.344-1.114-.37-1.856-.233.169.053.329.135.472.241zm-6.108.918c-1.136-.196-1.949-.777-3.39-.526 1.073.196 1.905.77 3.39.526z"/></g><path d="M65.851 23.899l-.702.118-1.162 3.009 21.929.37-1.411-3.427-.449-.078c-6.027-1.001-12.179-.998-18.205.007z" fill="#b66e78"/><path d="M84.584 27.389l1.333.022-1.411-3.427-.449-.078-.962-.148 1.489 3.631z" fill="#a15978"/><path d="M88.115 28.795c.245 1.747-5.666 3.276-12.996 3.331-7.181.059-12.996-1.48-12.996-3.331s5.822-3.331 12.996-3.331 12.743 1.506 12.996 3.331z" fill="#82485e"/><path d="M65.888 31.638s-2.633.159-2.54 2.047c.115 2.306 2.35 3.475 3.602 2.38s-1.062-4.427-1.062-4.427z" class="T"/><path d="M66.093 32.482s-1.715.104-1.652 1.332c.07 1.503 1.53 2.265 2.343 1.551s-.691-2.883-.691-2.883z" class="U"/><path d="M84.015 31.638s2.633.159 2.54 2.047c-.111 2.306-2.35 3.475-3.602 2.38s1.062-4.427 1.062-4.427z" class="T"/><path d="M83.8 32.482s1.715.104 1.656 1.332c-.074 1.503-1.53 2.265-2.347 1.551s.691-2.883.691-2.883z" class="U"/><path d="M84.39 28.958s.234 10.645-5.9 16.4a5.21 5.21 0 0 1-7.077 0c-6.134-5.755-5.9-16.4-5.9-16.4l.902-.329c5.404-1.975 11.33-2.011 16.757-.1l1.218.429z" class="E"/><path d="M78.45 68.202c-.998-.779-2.23-1.203-3.498-1.203s-2.499.423-3.498 1.203c-5.016.696-7.055 2.817-7.055 2.817l.46 3.331c1.856 2.073 5.198 1.562 7.474.881.805.41 1.695.624 2.599.624s1.794-.214 2.599-.624c2.269.681 5.629 1.192 7.474-.881l.464-3.331s-2.005-2.121-7.021-2.817z" class="C"/><path d="M66.579 69.601c-.794.353-1.525.832-2.165 1.418l.46 3.331c.525.579 1.203 1 1.957 1.214l-.252-5.963z" fill="#67415e"/><path d="M59.491 94.121c6.639-16.022 1.63-48.067 1.63-48.067l1.823-1.299s6.643 38.522.549 50.066c0 0-1.266 3.535-3.561 3.25-1.47-.178-.442-3.949-.442-3.949z" class="C"/><path d="M60.928 96.623a.87.87 0 0 0 .873-.87.87.87 0 0 0-1.745 0 .87.87 0 0 0 .872.87z" class="H"/><path d="M61.388 95.754c-.001.091-.028.179-.079.254a.46.46 0 0 1-.473.192.46.46 0 0 1-.36-.362.46.46 0 0 1 .196-.47.46.46 0 0 1 .255-.077.46.46 0 0 1 .178.034c.056.023.107.057.15.1s.077.094.099.151.034.117.033.177z" class="V"/><path d="M85.029 74.338l.464-3.331c-.673-.617-1.445-1.118-2.284-1.48l-.245 6.04a4.23 4.23 0 0 0 2.064-1.229z" fill="#67415e"/><path d="M90.417 94.121c-6.643-16.022-1.634-48.067-1.634-48.067l-1.823-1.299s-6.643 38.522-.546 50.066c0 0 1.266 3.535 3.564 3.25 1.463-.178.438-3.949.438-3.949z" class="C"/><path d="M88.976 96.623a.87.87 0 0 0 .873-.87.87.87 0 1 0-1.745 0 .87.87 0 0 0 .873.87z" class="H"/><path d="M88.471 95.754a.5.5 0 0 0 .085.28c.055.083.134.147.227.185s.194.048.292.029.188-.067.258-.138.119-.16.138-.258a.5.5 0 0 0-.029-.291c-.038-.092-.103-.171-.186-.226s-.181-.085-.281-.085c-.134 0-.262.053-.357.147a.5.5 0 0 0-.148.356z" class="V"/><path d="M77.426 73.464a3.19 3.19 0 0 0-.428-4.502c-1.366-1.125-3.388-.934-4.517.427a3.19 3.19 0 0 0 .428 4.502c1.366 1.125 3.388.934 4.517-.427z" class="H"/><path d="M77.365 71.433a2.4 2.4 0 0 1-.407 1.337 2.41 2.41 0 0 1-1.083.886 2.42 2.42 0 0 1-1.394.137c-.468-.093-.898-.322-1.236-.658s-.567-.765-.66-1.232a2.4 2.4 0 0 1 .137-1.39 2.41 2.41 0 0 1 .889-1.08 2.42 2.42 0 0 1 1.341-.406c.64 0 1.254.254 1.707.705a2.4 2.4 0 0 1 .707 1.701z" class="V"/><g class="C"><path d="M65.432 98.082c-1.296 3.031-5.306 4.224-5.306 4.224l.917 1.295a8.71 8.71 0 0 0 3.327-1.605 8.67 8.67 0 0 0 2.358-2.836l-1.296-1.077zm19.044 0c1.296 3.031 5.302 4.224 5.302 4.224l-.917 1.295a8.71 8.71 0 0 1-3.323-1.589c-.981-.76-1.788-1.722-2.365-2.819l1.303-1.11z"/></g><g fill="#a6e9de"><path d="M38.503 86.659l-.6 3.637 8.419 1.38.6-3.638-8.419-1.38zm85.139-42.127l-2.397 2.389 3.978 3.965 2.397-2.389-3.978-3.965z"/></g><path d="M83.637 38.063c-.371-.681-.988-1.04-1.934-1.295-.156-1.817-2.911-1.451-2.971-.333-.044.903-1.831-1.481-3.784-1.481-2.228 0-3.739 2.376-3.784 1.481-.052-1.11-2.811-1.481-2.97.333-.947.255-1.574.614-1.934 1.295s-.171 1.706.561 1.954a2.46 2.46 0 0 0-.167 1.181c.042.401.182.786.408 1.121.238.327.576.568.962.689a1.89 1.89 0 0 0 1.184-.019l.431 1.851c.096.485.313.938.631 1.318.165.184.386.309.629.354s.495.008.715-.106c.184.779.586 1.49 1.16 2.05a4.24 4.24 0 0 0 2.081 1.111h.178c.786-.166 1.508-.552 2.082-1.111s.978-1.27 1.163-2.05c.22.113.471.151.715.106s.465-.169.63-.354c.316-.381.532-.833.631-1.318l.431-1.851c.382.133.797.14 1.183.019a1.88 1.88 0 0 0 .96-.689c.226-.335.366-.72.408-1.121a2.46 2.46 0 0 0-.167-1.181c.743-.248.928-1.27.568-1.954z" class="H"/><path d="M82.835 41.42c-.168.223-.381.407-.625.542a1.98 1.98 0 0 1-.793.239.99.99 0 0 0-.577.221c-.164.133-.28.315-.332.52l-.245.966a3.02 3.02 0 0 1-.631 1.321c-.176.184-.402.312-.65.37a1.59 1.59 0 0 0-.619.309 1.58 1.58 0 0 0-.428.542 4.23 4.23 0 0 1-1.198 1.422c-.5.38-1.079.643-1.694.772h-.178c-.615-.129-1.194-.393-1.694-.772s-.91-.866-1.198-1.422c-.1-.21-.246-.396-.428-.543a1.58 1.58 0 0 0-.62-.308 1.29 1.29 0 0 1-.646-.37 2.96 2.96 0 0 1-.631-1.321l-.249-.966a.98.98 0 0 0-.332-.52c-.164-.133-.366-.21-.578-.22a1.98 1.98 0 0 1-.793-.239c-.245-.135-.458-.319-.625-.542-.191-.271-.318-.581-.371-.907-.062.311-.06.63.003.94a2.38 2.38 0 0 0 .368.866c.238.326.575.568.962.689a1.89 1.89 0 0 0 1.184-.019l.431 1.851a2.93 2.93 0 0 0 .631 1.318c.165.184.386.309.629.354s.495.008.715-.106c.184.779.586 1.49 1.16 2.05s1.296.945 2.081 1.111h.178c.786-.166 1.508-.552 2.082-1.111s.978-1.27 1.163-2.049c.22.113.471.151.715.106s.465-.169.629-.354c.316-.381.533-.833.631-1.318l.431-1.851c.382.133.797.14 1.183.019a1.88 1.88 0 0 0 .96-.689 2.36 2.36 0 0 0 .37-.866c.064-.31.064-.63.002-.941-.054.326-.181.636-.371.907z" fill="#f08515"/><path d="M74.952 42.06a3.35 3.35 0 0 1-2.241-.841c-.617-.547-1.009-1.302-1.101-2.12l-.111-.973h6.869l-.111.973c-.091.811-.478 1.561-1.087 2.107a3.35 3.35 0 0 1-2.218.854z" class="T"/><path d="M71.618 39.007h6.669l.1-.877h-6.869l.1.877z" class="B"/><path d="M72.691 41.18c.617.566 1.425.88 2.263.88a3.35 3.35 0 0 0 2.263-.88c-.249-.718-1.166-1.251-2.265-1.251s-2.016.533-2.261 1.251z" class="U"/><g fill="#312938"><use href="#E"/><path d="M78.186 32.545c.334 0 .605-.406.605-.907s-.271-.907-.605-.907-.605.406-.605.907.271.907.605.907z"/></g><g class="H"><path d="M59.409 123.82l1.823 10.5a2.77 2.77 0 0 0 1.004 1.649 2.79 2.79 0 0 0 1.84.597c.665-.027 1.298-.291 1.785-.744a2.77 2.77 0 0 0 .867-1.724l1.147-9.564c-3.13.533-6.765-.259-8.466-.714zm22.65.958l1.114 9.32a2.77 2.77 0 0 0 .867 1.724 2.78 2.78 0 0 0 1.785.743 2.79 2.79 0 0 0 1.84-.597 2.77 2.77 0 0 0 1.004-1.648l1.556-8.842c-4.174.87-6.962-.107-8.165-.7z"/></g><path d="M82.059 124.778l1.114 9.32a2.87 2.87 0 0 0 .223.825l.601-9.453c-.669-.161-1.319-.393-1.938-.692z" fill="#ff8415"/><path d="M84.39 28.958l-1.218-.429c-5.425-1.909-11.348-1.874-16.75.1l-.902.329a25.73 25.73 0 0 0 .178 3.061.98.98 0 0 0 .68.303h.044c.995 0 1.418-1.144 1.697-1.899l.134-.341c.323.095.658.149.995.159a1.61 1.61 0 0 0 .717-.136c.225-.099.425-.25.583-.438a10.38 10.38 0 0 0 3.182.555c1.448 0 2.599-.396 3.472-1.181.417.446.993.712 1.604.74a1.91 1.91 0 0 0 .82-.189c.155.328.398.606.704.802a1.94 1.94 0 0 0 1.023.308c.111 0 .221-.008.331-.026.019.74.126 2.039.627 2.55a.81.81 0 0 0 .59.259.88.88 0 0 0 .342-.07c.391-.17.711-.47.906-.847a26.76 26.76 0 0 0 .241-3.612z" fill="#ffca9c"/><use href="#F" fill="#ffd091"/><use href="#F" class="H"/><path d="M83.091 32.663c-1.114.444-1.025-2.876-1.025-2.876-1.801.633-2.25-1.166-2.25-1.166-1.485 1.088-2.599-.57-2.599-.57-2.272 2.572-6.832.74-6.832.74-.587 1.11-1.953.489-2.28.448s-.572 2.324-1.719 2.284c-.46 0-.691-.496-.802-1.07l-.067-1.48.071 1.906c.111.57.342 1.051.802 1.07 1.147.041 1.392-2.328 1.719-2.287s1.693.655 2.28-.448c0 0 4.56 1.851 6.832-.74 0 0 1.114 1.658 2.599.574 0 0 .449 1.795 2.25 1.162 0 0-.085 3.331 1.025 2.876 1.292-.518 1.318-3.272 1.303-3.96-.022 1.01-.201 3.094-1.307 3.538z" fill="#f08515"/><g class="B"><path d="M74.194 60.074c.318 0 .576-.257.576-.574s-.258-.574-.576-.574-.576.257-.576.574.258.574.576.574z"/><use href="#G"/><path d="M75.349 78.88c.001.115-.033.227-.096.322a.58.58 0 0 1-1.051-.207.58.58 0 0 1 .572-.689.58.58 0 0 1 .22.044c.07.029.133.071.187.124a.57.57 0 0 1 .169.405zm-.999 6.825c.318 0 .575-.257.575-.574s-.258-.574-.575-.574-.576.257-.576.574.258.574.576.574zm-.575 5.77c.318 0 .576-.257.576-.574s-.258-.574-.576-.574-.575.257-.575.574.258.574.575.574z"/></g><g class="S"><path d="M107.887 65.097c-9.74 3.209-17.121-10.171-17.121-10.171 1.151 3.246 2.228 7.55 2.228 7.55l1.619 3.401a4.64 4.64 0 0 0 1.649 1.54c3.446 1.669 7.456.418 11.626-2.321zm-47.839-9.805c-9.498 21.937-4.916 34.865-3.936 37.167l.167.37h2.636c-7.493-11.296 1.133-37.537 1.133-37.537z"/></g><path d="M43.413 95.383s.49 2.402 1.363 2.543.873-2.402.49-3.331-.245-3.135-.245-3.135l-6.171-1.014a1.75 1.75 0 0 1-.279.611c-.241.37-.843.944-1.593 1.98-.843 1.159-1.786 4.871-1.073 4.989s1.081-2.528 1.311-2.85c.434-.607.668-.152.687.019.201 1.784-1.158 6.914.037 7.191s1.058-6.792 1.675-6.792c.438 0-.743 7.532.141 7.662s1.262-7.691 1.886-7.251c.442.315-.472 7.702.542 7.632s1.229-8.254 1.229-8.254z" class="E"/><path d="M51.359 69.549c-2.168 1.943-8.54 17.821-8.54 17.821l3.245.533c.858-6.34 2.639-12.52 5.287-18.347l.007-.007z" class="S"/><path d="M42.414 91.049c.759.857 1.634 1.604 2.599 2.221a16.56 16.56 0 0 1 0-1.821l-2.599-.4z" fill="#ffc6aa"/><path d="M140.119 28.794l-8.121 4.473 7.548 13.619 8.122-4.473-7.549-13.619z" class="I"/><path d="M139.143 27.026l-8.124 4.471.976 1.776 8.125-4.471-.977-1.777z" class="K"/><g class="W"><path d="M139.774 43.112a.67.67 0 0 1-.909-.263l-3.513-6.333a.67.67 0 0 1-.056-.508c.05-.17.165-.313.32-.399s.339-.105.509-.055a.67.67 0 0 1 .4.318l3.513 6.322a.66.66 0 0 1 .082.251.65.65 0 0 1-.021.263.67.67 0 0 1-.122.234c-.056.069-.124.127-.203.169zm2.299-1.518c-.077.043-.161.071-.249.081a.67.67 0 0 1-.493-.141.66.66 0 0 1-.168-.2l-3.509-6.333a.66.66 0 0 1-.08-.248.65.65 0 0 1 .141-.49.67.67 0 0 1 .708-.227c.084.024.163.064.232.119a.67.67 0 0 1 .169.199l3.512 6.333a.66.66 0 0 1 .08.248.67.67 0 0 1-.022.26c-.025.084-.066.163-.121.231a.67.67 0 0 1-.2.168zm2.302-1.514a.67.67 0 0 1-.249.079c-.088.01-.176.002-.261-.022a.66.66 0 0 1-.232-.12.67.67 0 0 1-.168-.2l-3.512-6.329c-.086-.156-.106-.339-.056-.509s.164-.315.319-.401a.67.67 0 0 1 .91.262l3.509 6.333a.66.66 0 0 1 .081.248.67.67 0 0 1-.021.26c-.024.084-.065.163-.12.232s-.123.125-.2.168z"/></g><path d="M147.672 42.416l-8.12 4.475.185.87a1.18 1.18 0 0 0 .236.492 1.17 1.17 0 0 0 .432.334c.168.076.351.112.536.105s.365-.057.526-.146l6.591-3.627a1.18 1.18 0 0 0 .404-.367c.105-.152.172-.326.197-.509a1.19 1.19 0 0 0-.053-.543c-.06-.174-.16-.332-.292-.461l-.642-.622z" class="J"/><path d="M130.9 37.515c-.809-.533-2.165.922-3.316 1.851s-.538 2.221-1.047 3.731c-.297.866-.802 2.176-1.611 2.717l1.649 1.643c.386-.287.816-.51 1.273-.663.371-.111 1.567.078 2.599.137s3.238-1.706 3.929-2.38-2.67-6.503-3.476-7.036z" class="E"/><path d="M130.9 37.515c-.527-.348-1.288.152-2.075.8v.03a2.73 2.73 0 0 1-.513 1.458c-.341.577-.698 1.255-.46 1.877a3.19 3.19 0 0 0 .664.885 5.4 5.4 0 0 1 .951 1.814c.141.542.369 1.059.676 1.529.29.356.657.643 1.073.84 1.154-.571 2.216-1.312 3.148-2.199.699-.674-2.658-6.499-3.464-7.032z" class="L"/><path d="M132.853 34.825l-5.599 1.991 5.529 9.575c.106.186.247.349.417.48a1.63 1.63 0 0 0 .571.283c.207.056.423.07.636.042a1.62 1.62 0 0 0 .603-.206l3.502-1.999-.672-1.206-2.492 1.695a1.55 1.55 0 0 1-1.224.239c-.209-.047-.407-.137-.58-.264a1.54 1.54 0 0 1-.423-.474l-4.393-7.55 4.827-1.362-.702-1.244z" class="J"/><g fill="#ff8515"><path d="M132.385 36.398l1.159-.329-.687-1.244-1.133.4.661 1.173zm5.444 7.387l-.914.622.639 1.125.947-.54-.672-1.206z"/></g><path d="M134.041 42.619s-3.178 2.521-1.834 2.961 2.971-1.902 2.971-2.117a.95.95 0 0 0-.119-.377c-.065-.116-.154-.217-.261-.297s-.23-.136-.36-.165a.96.96 0 0 0-.397-.005z" class="E"/><path d="M132.107 44.585c.98-.181 1.964-1.207 2.499-1.925a.89.89 0 0 0-.565-.041c-.725.571-1.375 1.231-1.934 1.965z" class="L"/><path d="M133.228 40.946s-3.869 3.072-2.228 3.605 3.624-2.313 3.624-2.591a1.16 1.16 0 0 0-.149-.458 1.18 1.18 0 0 0-.323-.358c-.132-.096-.282-.163-.441-.197a1.17 1.17 0 0 0-.483-.002z" class="E"/><path d="M131.312 42.76c.906-.252 1.79-1.162 2.299-1.851-.125-.01-.25-.001-.372.026a16.48 16.48 0 0 0-1.927 1.825z" class="L"/><path d="M132.363 39.096s-3.869 3.072-2.228 3.605 3.624-2.313 3.624-2.591-.397-1.247-1.396-1.014z" class="E"/><path d="M130.016 41.472c1.003-.407 1.954-1.669 2.369-2.38h-.022s-1.663 1.321-2.347 2.38z" class="L"/><path d="M130.919 37.408s-3.869 3.464-2.228 4.071 3.624-2.613 3.624-2.909-.397-1.414-1.396-1.162z" class="E"/><g class="B"><path d="M123.656 46.372c.207 0 .375-.167.375-.374s-.168-.374-.375-.374-.375.167-.375.374.168.374.375.374zM46.139 90.85a.41.41 0 0 1-.254.38c-.075.031-.158.039-.238.023s-.153-.055-.211-.112a.41.41 0 0 1 .063-.632c.068-.045.147-.069.229-.069.054 0 .108.011.158.031s.095.051.134.089a.41.41 0 0 1 .121.291z"/></g><path d="M68.51 141.578v-1.595c-.081-.843-.288-1.669-.616-2.45-.267-.511-.353-1.551-.371-2.354-.011-.288-.133-.56-.34-.759s-.485-.311-.774-.311h-5.391c-2.64 1.735-5.691 2.748-8.848 2.935l-1.307.159c-.385.018-.748.186-1.009.469a1.45 1.45 0 0 0-.384 1.041c.015.959.091 1.916.227 2.865H68.51z" class="M"/><path d="M51.099 137.721l1.533-.185a21.16 21.16 0 0 0 10.345-3.427h-1.961c-2.64 1.735-5.691 2.748-8.848 2.935l-1.307.159c-.385.018-.748.186-1.009.469a1.45 1.45 0 0 0-.384 1.041l.019.467a1.7 1.7 0 0 1 .543-1.018 1.71 1.71 0 0 1 1.069-.441z" fill="#505753"/><path d="M81.431 141.578v-1.595a8.38 8.38 0 0 1 .616-2.45c.267-.511.353-1.551.371-2.354.011-.288.133-.56.34-.759s.485-.311.773-.311h5.395c2.64 1.735 5.692 2.748 8.848 2.935l1.307.159c.385.018.748.186 1.009.469s.399.657.383 1.041c-.016.959-.093 1.916-.23 2.865H81.431z" class="M"/><path d="M97.42 137.362l1.485.178c.395.018.771.178 1.057.45a1.63 1.63 0 0 1 .502 1.031v-.322c.015-.384-.123-.759-.383-1.042s-.624-.451-1.009-.469l-1.307-.159c-3.157-.187-6.208-1.2-8.848-2.935h-1.4c2.962 1.926 6.374 3.052 9.903 3.268z" fill="#505753"/><g fill="#2e3346"><path d="M49.696 141.578H68.51v-1.629H49.525a11.7 11.7 0 0 0 .171 1.629zm31.739-1.629v1.629h18.818a11.13 11.13 0 0 0 .174-1.629H81.435z"/></g><path d="M24.269 141.596h-4.886L8.581 99.377h4.883l10.805 42.219z" fill="#df7015"/><path d="M8.581 141.596h4.883l10.805-42.219h-4.886L8.581 141.596z" fill="#ff8a15"/><path d="M141.419 141.596h-4.882l-10.805-42.219h4.882l10.805 42.219z" fill="#df7015"/><path d="M125.732 141.596h4.882l10.805-42.219h-4.882l-10.805 42.219z" fill="#ff8a15"/><path d="M18.833 1.847h-1.259v94.869h1.259V1.847z" class="C"/><path d="M32.267 9.793c7.144 4.205 23.882 0 23.882 0v7.832s-16.738 4.212-23.882 0-14.692-2.324-14.692-2.324V7.469s7.549-1.876 14.692 2.324z" class="F"/><path d="M32.267 17.625c7.144 4.204 23.882 0 23.882 0v7.58s-16.738 4.201-23.882 0-14.692-2.328-14.692-2.328v-7.576s7.549-1.876 14.692 2.324z" class="R"/><path d="M32.267 2.743c7.144 4.205 23.882 0 23.882 0v7.051s-16.738 4.205-23.882 0-14.692-2.324-14.692-2.324V.437s7.549-1.895 14.692 2.306z" class="D"/><path d="M21.113 22.47c-1.19.021-2.375.158-3.538.407v-7.576a18.43 18.43 0 0 1 3.538-.407v7.576z" fill="#ffbe29"/><path d="M21.113 14.894c-1.19.021-2.375.158-3.538.407V7.469a18.43 18.43 0 0 1 3.538-.407v7.832z" fill="#dd3227"/><path d="M21.113 7.062a18.43 18.43 0 0 0-3.538.407V.437A18.43 18.43 0 0 1 21.113 0v7.062z" fill="#3c3551"/><path d="M143.272 72.544h-9.037c-.26 0-.51.103-.694.286a.98.98 0 0 0-.287.691v2.058a23.53 23.53 0 0 0 .531 4.971l1.92 8.924a1.67 1.67 0 0 1-.002.714 1.68 1.68 0 0 1-.299.648l-1.207 1.599c-.054.074-.087.162-.095.253a.5.5 0 0 0 .232.466c.078.049.169.075.261.076h8.317a.5.5 0 0 0 .261-.075c.079-.049.143-.118.184-.2a.5.5 0 0 0-.044-.52l-1.211-1.599c-.144-.193-.245-.414-.297-.649a1.68 1.68 0 0 1-.003-.713l1.923-8.924c.352-1.634.529-3.3.527-4.971v-2.058c0-.259-.103-.508-.287-.691a.98.98 0 0 0-.693-.286z" class="I"/><path d="M135.092 92.448l1.207-1.599a1.68 1.68 0 0 0 .299-.648c.052-.235.053-.478.002-.714l-1.608-7.465-.824-1.266c-.108-.496.312-1.184.237-1.684a23.83 23.83 0 0 1-.256-3.479v-2.058c0-.259.103-.508.287-.691a.98.98 0 0 1 .693-.286h-.894c-.26 0-.51.103-.694.286a.98.98 0 0 0-.287.691v2.058a23.53 23.53 0 0 0 .531 4.971l1.92 8.924c.051.235.05.479-.002.714a1.68 1.68 0 0 1-.299.648l-1.207 1.599c-.054.074-.087.162-.095.253a.5.5 0 0 0 .232.466.51.51 0 0 0 .261.077h.895a.5.5 0 0 1-.263-.074c-.079-.049-.143-.118-.184-.201s-.058-.175-.05-.267a.5.5 0 0 1 .099-.253z" fill="#ffd925"/><path d="M143.272 72.544h-1.3c.26 0 .51.103.694.286a.98.98 0 0 1 .287.691v2.058a23.53 23.53 0 0 1-.531 4.971l-.773 3.601s.446 1.369.346 1.821-1.055 1.48-1.055 1.48l-.438 2.036a1.67 1.67 0 0 0 .002.714 1.68 1.68 0 0 0 .299.648l1.207 1.599a.5.5 0 0 1 .099.253c.008.092-.009.185-.05.267a.5.5 0 0 1-.447.275h1.3a.5.5 0 0 0 .261-.075c.079-.049.143-.118.184-.2a.5.5 0 0 0-.044-.52l-1.211-1.599c-.144-.193-.245-.414-.297-.649a1.68 1.68 0 0 1-.003-.713l1.923-8.924c.352-1.634.529-3.3.527-4.971v-2.058a.98.98 0 0 0-.07-.379.97.97 0 0 0-.211-.322.99.99 0 0 0-.32-.216c-.12-.05-.249-.076-.379-.076z" class="N"/><path d="M135.404 90.85l-1.207 1.599c-.054.074-.087.161-.095.253a.5.5 0 0 0 .232.466c.078.049.169.075.261.077h8.317a.5.5 0 0 0 .261-.075c.079-.049.143-.118.184-.2a.5.5 0 0 0-.044-.52l-1.211-1.599a1.71 1.71 0 0 1-.263-.54h-6.171c-.054.195-.144.378-.264.54z" class="W"/><path d="M135.092 92.448l1.207-1.599c.119-.164.209-.349.264-.544h-.895a1.65 1.65 0 0 1-.264.544l-1.207 1.599c-.054.074-.087.162-.095.253a.5.5 0 0 0 .232.466c.078.049.169.075.261.077h.895a.5.5 0 0 1-.263-.074c-.079-.049-.143-.118-.184-.201s-.058-.175-.05-.267a.5.5 0 0 1 .099-.253z" fill="#ffba15"/><path d="M143.324 92.448l-1.21-1.599c-.123-.163-.216-.346-.275-.54h-1.259c.055.195.144.38.264.544l1.206 1.599a.48.48 0 0 1 .099.253c.009.092-.008.185-.049.267a.5.5 0 0 1-.447.275h1.259a.5.5 0 0 0 .457-.271.5.5 0 0 0 .054-.271c-.008-.093-.043-.183-.099-.258z" fill="#ff8815"/><path d="M143.272 72.544h-9.037c-.26 0-.51.103-.694.286a.98.98 0 0 0-.287.691v1.917h10.998v-1.917c0-.259-.103-.508-.287-.691a.98.98 0 0 0-.693-.286z" class="K"/><path d="M135.077 72.544h-.842c-.26 0-.51.103-.694.286a.98.98 0 0 0-.287.691v1.917h.843v-1.917c0-.259.103-.508.287-.691a.98.98 0 0 1 .693-.286z" fill="#ffeadf"/><path d="M143.272 72.544h-1.27a.98.98 0 0 1 .693.286c.184.183.287.432.287.691v1.917h1.27v-1.917c0-.259-.103-.508-.287-.691a.98.98 0 0 0-.693-.286z" fill="#ffca85"/><path d="M134.977 80.919c.164 0 .297-.177.297-.396s-.133-.396-.297-.396-.297.177-.297.396.133.396.297.396z" fill="#ffd925"/><path d="M141.638 85.997c-.104.318-.326.533-.497.477s-.227-.37-.123-.681.331-.533.502-.474.226.359.118.677z" class="N"/><path d="M20.518 74.698H7.991v18.769h12.528V74.698z" class="I"/><path d="M9.09 74.698H7.991v18.769H9.09V74.698z" fill="#ffdd60"/><path d="M20.522 74.698H19.52v18.769h1.003V74.698z" class="N"/><path d="M20.518 74.698H7.991v3.179h12.528v-3.179z" class="K"/><path d="M8.937 74.698h-.947v3.179h.947v-3.179z" fill="#ffecc1"/><path d="M20.522 74.698H19.52v3.179h1.003v-3.179z" fill="#ffca85"/><path d="M20.519 93.463H7.991l-.587.974a1.5 1.5 0 0 0-.053 1.502c.124.233.308.429.532.569a1.51 1.51 0 0 0 .746.228h11.254a1.51 1.51 0 0 0 .746-.228c.224-.14.408-.336.532-.569a1.5 1.5 0 0 0-.053-1.502l-.59-.974z" class="J"/><path d="M8.362 94.436l.59-.974h-.962l-.587.974a1.5 1.5 0 0 0-.053 1.502c.124.233.308.429.532.569a1.51 1.51 0 0 0 .746.228h.962a1.51 1.51 0 0 1-.748-.226c-.225-.14-.409-.336-.534-.569a1.5 1.5 0 0 1 .052-1.503z" fill="#ffbc15"/><path d="M21.109 94.436l-.59-.974h-.958l.587.974c.141.223.221.48.231.744s-.05.526-.175.759a1.5 1.5 0 0 1-.533.569c-.225.14-.483.217-.748.225h.962a1.51 1.51 0 0 0 .746-.228c.224-.14.408-.336.532-.569a1.5 1.5 0 0 0-.053-1.502z" fill="#ff8815"/><g class="W"><path d="M10.501 91.945a.96.96 0 0 1-.962-.959v-9.993c.001-.254.103-.496.283-.675a.96.96 0 0 1 .679-.279c.255 0 .498.1.679.279s.282.422.283.675v9.993c0 .254-.101.498-.282.678s-.425.281-.68.281zm3.754 0c-.254-.001-.498-.102-.678-.282s-.28-.423-.28-.676v-9.993c.001-.253.102-.495.282-.674s.422-.28.676-.281a.97.97 0 0 1 .68.273.95.95 0 0 1 .289.671v9.993a.95.95 0 0 1-.071.372.96.96 0 0 1-.526.526.97.97 0 0 1-.373.072zm3.757 0a.96.96 0 0 1-.962-.959v-9.993c.001-.254.103-.496.283-.675a.96.96 0 0 1 .679-.279c.255 0 .498.1.679.279s.282.422.283.675v9.993c0 .126-.025.25-.073.367a.96.96 0 0 1-.521.519.97.97 0 0 1-.368.073zM7.991 79.679H4.407a1.32 1.32 0 0 0-.928.385 1.31 1.31 0 0 0-.386.925v7.266a1.17 1.17 0 0 0 .149.572 1.18 1.18 0 0 0 .408.428l4.341 2.691v-2.543l-2.748-1.051a.74.74 0 0 1-.472-.685V81.9a.51.51 0 0 1 .509-.507h2.711v-1.714z"/></g><g class="X"><path d="M7.991 89.402l-1.623-.622v2.158l1.623 1.007v-2.543zm.003-9.723H6.368v1.714h1.626v-1.714z"/></g><path d="M149.064 96.72H.936v6.481h148.128V96.72z" class="C"/><path d="M149.064 99.962H.936v3.242h148.128v-3.242z" fill="#65313e"/><use href="#H" class="D"/><path d="M30.295 107.731l-5.525-2.177-5.525 2.177V96.716h11.05v11.015z" class="F"/><path d="M42.852 107.731l-5.525-2.177-5.525 2.177V96.716h11.05v11.015z" class="Y"/><path d="M55.41 107.731l-5.525-2.177-5.525 2.177V96.716h11.05v11.015z" class="D"/><path d="M67.968 107.731l-5.525-2.177-5.525 2.177V96.716h11.05v11.015z" class="F"/><path d="M80.525 107.731L75 105.554l-5.525 2.177V96.716h11.05v11.015z" class="Y"/><path d="M93.083 107.731l-5.525-2.177-5.525 2.177V96.716h11.05v11.015z" class="D"/><path d="M105.64 107.731l-5.525-2.177-5.525 2.177V96.716h11.05v11.015z" class="F"/><path d="M118.198 107.731l-5.525-2.177-5.525 2.177V96.716h11.05v11.015z" class="Y"/><path d="M130.755 107.731l-5.525-2.177-5.525 2.177V96.716h11.05v11.015z" class="D"/><path d="M143.313 107.731l-5.529-2.177-5.525 2.177V96.716h11.054v11.015z" class="F"/><path d="M18.314 115.458c-1.005.92-1.762 1.38-2.272 1.38s-1.274-.46-2.293-1.38c-1.005-.935-1.628-1.692-1.868-2.272-.156-.368-.233-1.295-.233-2.781V107.9c0-1.486.078-2.413.233-2.781.241-.581.863-1.331 1.868-2.251 1.019-.934 1.783-1.401 2.293-1.401s1.267.467 2.272 1.401c1.019.92 1.649 1.67 1.889 2.251.156.368.234 1.295.234 2.781v2.505c0 1.486-.078 2.413-.234 2.781-.241.58-.87 1.337-1.889 2.272zm-2.993-2.081c.283.283.524.425.722.425s.432-.142.701-.425c.283-.297.481-.573.594-.828.113-.269.17-.984.17-2.144V107.9c0-1.161-.057-1.869-.17-2.123-.113-.269-.311-.545-.594-.828-.269-.297-.502-.446-.701-.446s-.439.149-.722.446c-.269.283-.46.559-.573.828-.113.254-.17.962-.17 2.123v2.505c0 1.16.057 1.875.17 2.144.113.255.304.531.573.828z" class="O"/><path d="M17.516 115.058c-1.005.92-1.762 1.38-2.272 1.38s-1.274-.46-2.293-1.38c-1.005-.934-1.628-1.692-1.868-2.272-.156-.368-.233-1.295-.233-2.781V107.5c0-1.486.078-2.413.233-2.781.241-.581.863-1.331 1.868-2.251 1.019-.934 1.783-1.401 2.293-1.401s1.267.467 2.272 1.401c1.019.92 1.649 1.67 1.89 2.251.156.368.233 1.295.233 2.781v2.505c0 1.486-.078 2.413-.233 2.781-.241.58-.87 1.338-1.89 2.272zm-2.993-2.081c.283.283.524.425.722.425s.432-.142.701-.425c.283-.297.481-.573.594-.828.113-.269.17-.983.17-2.144V107.5c0-1.161-.057-1.868-.17-2.123-.113-.269-.311-.545-.594-.828-.269-.297-.502-.446-.701-.446s-.439.149-.722.446c-.269.283-.46.559-.573.828-.113.255-.17.962-.17 2.123v2.505c0 1.161.057 1.875.17 2.144.113.255.304.531.573.828z" class="B"/><path d="M27.582 106.01v1.232h.637c.241 0 .488-.128.743-.383.269-.268.467-.516.594-.743.142-.24.283-.913.425-2.016l.212-2.378h2.93c0 .552-.078 1.415-.234 2.59s-.297 1.896-.425 2.165c-.212.467-.75 1.097-1.613 1.89 1.005.863 1.656 1.592 1.953 2.186.142.298.283 1.196.425 2.697l.233 3.333h-2.93c0-.665-.071-1.706-.212-3.121-.127-1.43-.255-2.258-.382-2.484-.439-.793-.955-1.189-1.55-1.189h-.807v6.794h-2.93v-9.299c0-1.146-.085-1.939-.255-2.378-.156-.453-.495-1.005-1.019-1.656l2.548-1.783c.453.297.842.849 1.168 1.656.326.793.488 1.755.488 2.887z" class="P"/><path d="M26.78 105.61v1.232h.637c.241 0 .488-.128.743-.382.269-.269.467-.517.594-.744.141-.24.283-.912.425-2.016l.212-2.378h2.93c0 .552-.078 1.415-.233 2.59s-.297 1.896-.425 2.165c-.212.467-.75 1.097-1.614 1.89 1.005.863 1.656 1.592 1.953 2.187.142.297.283 1.195.425 2.696l.233 3.333h-2.93c0-.665-.071-1.706-.212-3.121-.127-1.429-.255-2.257-.382-2.484-.439-.792-.955-1.189-1.55-1.189h-.807v6.794h-2.93v-9.299c0-1.146-.085-1.939-.255-2.378-.156-.453-.495-1.005-1.019-1.656l2.548-1.783c.453.297.842.849 1.168 1.656.326.793.488 1.755.488 2.887z" class="B"/><path d="M65.325 102.635c.962-.779 1.635-1.168 2.017-1.168.396 0 1.019.375 1.868 1.125.863.736 1.401 1.26 1.613 1.571.212.297.319.793.319 1.486s-.106 1.218-.319 1.571c-.212.34-.602.779-1.168 1.317.892.736 1.522 1.351 1.889 1.847.156.254.233.736.233 1.443 0 .694-.078 1.147-.233 1.359-.255.552-.871 1.26-1.847 2.123-.977.849-1.748 1.274-2.314 1.274h-4.395v-9.087c0-1.146-.085-1.953-.255-2.42-.156-.467-.495-1.019-1.019-1.656l2.802-1.953c.34.283.609.672.807 1.168zm.594 7.494v3.885h1.465c.184 0 .41-.142.679-.425.269-.297.46-.552.573-.764.127-.226.191-.679.191-1.359 0-.467-.354-.913-1.061-1.337h-1.847zm0-3.864v1.507h1.083c.156 0 .347-.134.573-.403.241-.283.403-.531.488-.743s.127-.467.127-.764-.142-.63-.425-.998c-.283-.382-.545-.573-.785-.573s-.616.092-1.125.276l.064 1.698z" class="P"/><use href="#I" class="Z"/><path d="M44.075 101.322v2.547h-2.76v12.314h-2.93v-12.314h-2.76v-2.547h8.45z" class="B"/><path d="M56.551 115.458c-1.005.92-1.762 1.38-2.272 1.38s-1.274-.46-2.293-1.38c-1.005-.935-1.628-1.692-1.868-2.272-.156-.368-.233-1.295-.233-2.781V107.9c0-1.486.078-2.413.233-2.781.241-.581.863-1.331 1.868-2.251 1.019-.934 1.783-1.401 2.293-1.401s1.267.467 2.272 1.401c1.019.92 1.649 1.67 1.889 2.251.156.368.234 1.295.234 2.781v2.505c0 1.486-.078 2.413-.234 2.781-.241.58-.87 1.337-1.889 2.272zm-2.994-2.081c.283.283.524.425.722.425s.432-.142.701-.425c.283-.297.481-.573.594-.828.113-.269.17-.984.17-2.144V107.9c0-1.161-.057-1.869-.17-2.123-.113-.269-.311-.545-.594-.828-.269-.297-.502-.446-.701-.446s-.439.149-.722.446c-.269.283-.46.559-.573.828-.113.254-.17.962-.17 2.123v2.505c0 1.16.057 1.875.17 2.144.113.255.304.531.573.828z" class="O"/><g class="B"><path d="M54.635 115.058c-1.005.92-1.762 1.38-2.272 1.38s-1.274-.46-2.293-1.38c-1.005-.934-1.628-1.692-1.868-2.272-.156-.368-.233-1.295-.233-2.781V107.5c0-1.486.078-2.413.233-2.781.241-.581.863-1.331 1.868-2.251 1.019-.934 1.783-1.401 2.293-1.401s1.267.467 2.272 1.401c1.019.92 1.649 1.67 1.889 2.251.156.368.233 1.295.233 2.781v2.505c0 1.486-.078 2.413-.233 2.781-.241.58-.87 1.338-1.889 2.272zm-2.993-2.081c.283.283.524.425.722.425s.432-.142.701-.425c.283-.297.481-.573.594-.828.113-.269.17-.983.17-2.144V107.5c0-1.161-.057-1.868-.17-2.123-.113-.269-.311-.545-.594-.828-.269-.297-.503-.446-.701-.446s-.439.149-.722.446c-.269.283-.46.559-.573.828-.113.255-.17.962-.17 2.123v2.505c0 1.161.057 1.875.17 2.144.113.255.304.531.573.828zm12.487-10.742c.962-.779 1.635-1.168 2.017-1.168.396 0 1.019.375 1.868 1.125.863.736 1.401 1.26 1.614 1.571.212.298.318.793.318 1.486s-.106 1.218-.318 1.571c-.212.34-.602.779-1.168 1.317.892.736 1.522 1.351 1.889 1.847.156.254.234.736.234 1.443 0 .694-.078 1.147-.234 1.359-.255.552-.87 1.26-1.847 2.123-.977.849-1.748 1.274-2.314 1.274h-4.395v-9.087c0-1.146-.085-1.953-.255-2.42-.156-.467-.495-1.019-1.019-1.656l2.802-1.953c.34.283.608.672.807 1.168zm.594 7.494v3.885h1.465c.184 0 .41-.142.679-.425.269-.297.46-.552.573-.764.127-.226.191-.679.191-1.359 0-.467-.354-.912-1.061-1.337h-1.847zm0-3.864v1.507h1.083c.156 0 .347-.134.573-.403.241-.283.403-.531.488-.743s.127-.467.127-.764-.142-.63-.425-.998c-.283-.382-.545-.573-.785-.573s-.616.092-1.125.276l.064 1.698z"/><use href="#J"/><use href="#K"/></g><path d="M115.985 107.539h3.8v2.569h-3.8v3.906h5.073v2.569h-8.003v-13.078l2.93-2.038h4.734v2.59h-3.949l-.785.552v2.93z" class="Z"/><use href="#L" class="B"/><path d="M133.634 110.196c.155.255.233.764.233 1.529 0 .75-.156 1.387-.467 1.91-.283.411-.885.984-1.805 1.72-.919.722-1.599 1.083-2.038 1.083-.778 0-1.67-.404-2.675-1.21-1.004-.821-1.641-1.72-1.91-2.697l2.356-1.613c.227.665.588 1.274 1.083 1.826s.842.828 1.04.828c.213 0 .432-.064.658-.191.241-.142.425-.284.552-.425.184-.227.276-.58.276-1.062s-.113-.778-.339-.891c-.283-.241-.835-.559-1.656-.956a21.37 21.37 0 0 1-2.251-1.273c-.693-.467-1.139-.92-1.337-1.359-.184-.439-.276-1.005-.276-1.699 0-.707.156-1.323.467-1.847.283-.41.885-.976 1.804-1.698.92-.736 1.6-1.104 2.039-1.104.778 0 1.67.411 2.675 1.231 1.004.807 1.641 1.699 1.91 2.675l-2.356 1.635c-.227-.665-.588-1.274-1.083-1.826-.495-.566-.849-.849-1.062-.849-.198 0-.417.064-.658.191s-.438.29-.594.489c-.142.184-.212.509-.212.976 0 .453.141.757.424.913.227.198.743.51 1.55.934 2.066 1.132 3.284 2.052 3.652 2.76z" class="O"/><path d="M115.186 107.139h3.8v2.569h-3.8v3.906h5.074v2.569h-8.004v-13.078l2.93-2.038h4.734v2.59h-3.948l-.786.552v2.93z" class="B"/><path d="M145.887 101.352v2.547h-2.76v12.314h-2.93v-12.314h-2.76v-2.547h8.45z" class="P"/><g class="B"><path d="M132.891 110.196c.156.255.233.764.233 1.529 0 .75-.155 1.387-.467 1.91-.283.411-.884.984-1.804 1.72-.92.722-1.6 1.083-2.038 1.083-.779 0-1.67-.404-2.675-1.21-1.005-.821-1.642-1.72-1.911-2.697l2.357-1.613c.226.665.587 1.274 1.082 1.826s.842.828 1.041.828c.212 0 .431-.064.658-.191.24-.142.424-.284.552-.425.184-.227.276-.58.276-1.062s-.114-.778-.34-.891c-.283-.241-.835-.559-1.656-.956a21.25 21.25 0 0 1-2.25-1.273c-.694-.467-1.14-.92-1.338-1.359-.184-.439-.276-1.005-.276-1.699 0-.707.156-1.323.467-1.847.283-.41.885-.976 1.805-1.698.92-.736 1.599-1.104 2.038-1.104.778 0 1.67.411 2.675 1.231 1.005.807 1.642 1.699 1.911 2.675l-2.357 1.635c-.226-.665-.587-1.274-1.083-1.826-.495-.566-.849-.849-1.061-.849-.198 0-.418.064-.658.191s-.439.29-.595.489c-.141.184-.212.509-.212.976 0 .453.141.757.425.913.226.198.743.51 1.549.934 2.067 1.132 3.284 2.052 3.652 2.76zm12.168-8.874v2.547h-2.76v12.314h-2.93v-12.314h-2.76v-2.547h8.45z"/></g><path d="M77.852 107.139h3.8v2.569h-3.8v3.906h5.074v2.569h-8.004v-13.078l2.93-2.038h4.734v2.59h-3.949l-.785.552v2.93z" class="Z"/><use href="#J" class="B"/><path d="M90.447 102.235c1.132-.779 1.904-1.168 2.314-1.168s1.04.375 1.889 1.125c.863.736 1.401 1.26 1.614 1.571.212.298.318.694.318 1.189 0 .963-.078 1.536-.233 1.72-.297.453-.757.983-1.38 1.592.863.821 1.401 1.451 1.614 1.89.113.297.234 1.203.361 2.717l.191 3.312H93.95c0-.637-.057-1.635-.17-2.994s-.241-2.179-.382-2.462a3.01 3.01 0 0 0-.467-.743h-1.889v6.199h-2.93v-9.299c0-1.146-.085-1.939-.255-2.378-.156-.453-.495-1.005-1.019-1.656l2.548-1.783a3.12 3.12 0 0 1 1.062 1.168zm.594 3.63v1.635h.828c.198 0 .453-.156.764-.467s.51-.573.595-.786a1.73 1.73 0 0 0 .149-.7c0-.241-.05-.453-.149-.637-.085-.198-.212-.418-.382-.658s-.311-.361-.425-.361c-.382 0-.863.092-1.444.276l.064 1.698z" class="O"/><use href="#K" class="B"/><path d="M101.226 116.583v-8.471c0-1.741.142-2.859.425-3.354s.885-1.168 1.804-2.017c.935-.849 1.628-1.274 2.081-1.274.623 0 1.394.248 2.314.743s1.606 1.054 2.059 1.677l-2.356 1.635c-.793-.793-1.43-1.189-1.911-1.189-.184 0-.396.12-.637.361a3.79 3.79 0 0 0-.615.743c-.156.255-.234.913-.234 1.974v.489h3.8v2.569h-3.8v6.114h-2.93z" class="P"/><use href="#L" class="B"/><path d="M47.338 80.786h-7.055s.676.792-1.407 2.076v12.292l1.318 1.562h7.252l1.318-1.562V82.862c-2.102-1.284-1.426-2.076-1.426-2.076z" class="I"/><path d="M39.964 82.862c2.087-1.284 1.407-2.076 1.407-2.076h-1.114s.676.792-1.407 2.076v12.292l1.318 1.562h1.114l-1.318-1.562v-8.809s.531-1.029.523-1.418a4.5 4.5 0 0 0-.523-1.244v-.822z" fill="#ffd815"/><path d="M47.338 80.786h-.869s-.68.792 1.407 2.076v12.292l-1.318 1.562h.869l1.318-1.562V82.862c-2.083-1.284-1.407-2.076-1.407-2.076z" class="N"/><path d="M38.913 82.825h9.776c-2.012-1.262-1.352-2.039-1.352-2.039h-7.055s.642.777-1.37 2.039z" class="J"/><path d="M41.315 80.786h-1.051s.661.777-1.352 2.039h1.051c2.012-1.262 1.352-2.039 1.352-2.039z" fill="#ffb915"/><path d="M47.338 80.786h-.85s-.661.777 1.352 2.039h.85c-2.012-1.262-1.352-2.039-1.352-2.039z" class="X"/><path d="M38.857 95.11v.044l1.318 1.562h7.252l1.318-1.562v-.044h-9.888z" class="J"/><path d="M39.964 95.11h-1.107v.044l1.318 1.562h1.106l-1.318-1.562v-.044z" fill="#ffc515"/><path d="M46.272 92.4v-6.018c-.091 0-.18-.018-.264-.052a.69.69 0 0 1-.374-.373c-.035-.084-.053-.173-.053-.264h-3.564c0 .09-.017.18-.051.263s-.085.159-.149.223-.14.115-.223.149a.69.69 0 0 1-.264.052V92.4a.69.69 0 0 1 .264.052c.084.035.16.085.223.149s.114.14.149.223a.68.68 0 0 1 .051.263h3.564a.69.69 0 0 1 .691-.688z" class="K"/><path d="M47.39 80.22h-7.177c-.137 0-.249.111-.249.248v.07c0 .137.111.248.249.248h7.177c.137 0 .249-.111.249-.248v-.07c0-.137-.111-.248-.249-.248z" class="I"/><path d="M47.876 95.154l-1.318 1.562h.869l1.318-1.562v-.044h-.869v.044z" class="X"/><path d="M40.818 86.978c0 .292-.126.533-.279.533s-.275-.241-.275-.533.123-.533.275-.533.279.237.279.533z" fill="#ffd815"/><path d="M40.012 84.994c0 .248-.108.452-.238.452s-.238-.204-.238-.452.108-.455.238-.455.238.218.238.455z" class="I"/><g fill="#953962"><path d="M131.71 91.331l2.097-.37a.22.22 0 0 1 .117.01c.037.014.071.037.097.067a.22.22 0 0 1 .049.106.22.22 0 0 1-.01.117l-.264.74.442.781c.021.037.032.078.031.121s-.015.083-.039.118a.22.22 0 0 1-.095.08c-.039.017-.081.023-.123.018l-1.055-.13-.182.54a.22.22 0 0 1-.075.11.23.23 0 0 1-.123.049.22.22 0 0 1-.13-.029c-.039-.023-.071-.056-.091-.096l-.914-1.747.268-.485zm-10.364-6.714l-.397-2.221-.483.451-.46-.17c-.022-.008-.045-.011-.068-.009a.16.16 0 0 0-.065.02c-.02.011-.038.027-.051.045s-.023.04-.028.063l-.104.529-.594.296a.16.16 0 0 0-.06.053.17.17 0 0 0-.027.076c-.002.027.003.054.014.079s.029.046.051.062l1.875 1.418.397-.692z"/></g><path d="M125.167 90.561a16.64 16.64 0 0 1-3.449-3.035l-.769-.899c-.694-.811-.639-1.873.126-2.372s1.953-.248 2.648.563l.768.899c1.445 1.674 3.328 2.913 5.44 3.579l1.092.341c1.021.318 1.719 1.306 1.559 2.202s-1.114 1.373-2.139 1.055l-1.091-.34c-1.481-.466-2.89-1.136-4.185-1.991z" class="Q"/><path d="M130.93 92.211l-1.092-.34c-2.964-.934-5.607-2.673-7.634-5.023l-.768-.899a1.77 1.77 0 0 1-.421-.768c-.074-.287-.075-.588-.003-.875-.698.518-.742 1.536-.063 2.321l.769.899c2.025 2.352 4.669 4.093 7.634 5.026l1.091.34c.955.296 1.857-.1 2.087-.881-.233.154-.499.253-.776.288s-.56.005-.824-.088z" fill="#b23962"/><g fill="#953962"><path d="M116.961 91.212s-2.87.111-2.844.57.706.37.676.644-.743.803.03.818h.891s-.594.814 0 .763 1.76-2.432 1.76-2.432l-.513-.363zm11.292-5.292s0-2.095.445-1.925a.57.57 0 0 1 .286.231.56.56 0 0 1 .086.357s1.281-.281 1.281.37-.29.707-.245.722 1.035.215.634.529-2.491.329-2.491.329l.004-.614z"/></g><path d="M123.92 91.741a16.69 16.69 0 0 1-4.415 1.288l-1.17.166c-1.062.156-1.934-.463-1.949-1.373s.832-1.777 1.893-1.928l1.174-.17c2.191-.323 4.248-1.249 5.941-2.672l.872-.74c.817-.688 2.024-.74 2.703-.137s.565 1.673-.248 2.365l-.873.74a16.58 16.58 0 0 1-3.928 2.461z" class="Q"/><path d="M128.398 87.766l-.869.74c-2.376 1.999-5.264 3.297-8.34 3.749l-1.173.17a1.78 1.78 0 0 1-.876-.055 1.77 1.77 0 0 1-.743-.467c.067.866.91 1.44 1.938 1.292l1.17-.166a16.73 16.73 0 0 0 8.339-3.753l.873-.74c.742-.648.898-1.606.371-2.221.006.279-.053.555-.173.807s-.297.472-.517.644z" fill="#b23962"/><path d="M145.968 93.259H96.721v3.461h49.247v-3.461z" class="a"/><path d="M145.968 95.195H96.721v1.525h49.247v-1.525z" fill="#bb5a15"/><path d="M128.969 90.006a1.48 1.48 0 0 0-.263-1.057c-.22-.306-.548-.518-.919-.591a1.49 1.49 0 0 0-1.075.195c-.32.199-.553.512-.65.876a1.4 1.4 0 0 0 0 .448l-6.338-1.258-.271 1.366 6.334 1.258c-.075.129-.129.269-.159.415-.053.195-.064.4-.034.6a1.48 1.48 0 0 0 .624.998 1.49 1.49 0 0 0 1.157.23 1.48 1.48 0 0 0 .551-.243 1.46 1.46 0 0 0 .409-.441c.105-.173.173-.366.2-.567.043-.213.037-.433-.017-.644s-.155-.407-.295-.574c.191-.104.357-.248.486-.422a1.47 1.47 0 0 0 .26-.588z" class="b"/><path d="M127.083 92.948c-.386-.077-.725-.303-.944-.629a1.48 1.48 0 0 1-.222-1.11c.031-.146.086-.286.164-.415l-6.543-1.299-.096.489 6.334 1.258c-.075.129-.129.269-.16.415-.068.357-.002.727.186 1.039s.484.544.833.652a1.49 1.49 0 0 0 1.056-.066c.332-.151.597-.418.744-.75a1.49 1.49 0 0 1-1.352.418z" fill="#eeccd0"/><path d="M114.102 83.788c-3.26-4.612-12.528-6.114-12.528-6.114L98.53 92.919c5.406 1.61 12.995-1.044 15.097-1.703 1.675-.529 5.369-.529 6.762-.507.054.001.108-.013.155-.04a.3.3 0 0 0 .153-.269.3.3 0 0 0-.045-.154l-.204-.329a.49.49 0 0 1-.062-.331c.02-.114.08-.217.17-.291l.286-.237c.043-.037.076-.085.093-.139s.02-.112.006-.167-.043-.105-.085-.145-.092-.067-.148-.078c-1.259-.274-4.144-1.258-6.606-4.741z" fill="#d94c62"/><path d="M120.622 90.198l-.066.056c-.066.054-.116.125-.146.205s-.037.166-.021.25c.054.001.108-.013.155-.04a.3.3 0 0 0 .153-.269.3.3 0 0 0-.045-.154l-.03-.048z" fill="#e06e62"/><path d="M101.574 78.632c1.544.279 3.065.668 4.553 1.162.423.141.742.763 1.173.933.334.13.813-.2 1.151-.052 2.194.948 4.378 2.273 5.651 4.071 2.302 3.261 4.972 4.33 6.342 4.678.028-.05.066-.095.112-.129l.286-.237c.043-.037.076-.085.093-.139s.02-.112.006-.167-.043-.105-.085-.145-.092-.067-.148-.078c-1.259-.274-4.144-1.258-6.606-4.741-3.26-4.612-12.528-6.114-12.528-6.114L98.53 92.919l.182.052 2.862-14.338z" fill="#e06762"/><path d="M120.448 89.917c-.039-.071-.06-.149-.063-.229-1.519 0-4.957 0-6.554.511-2.086.659-9.691 3.331-15.097 1.703l-.204 1.018c5.406 1.61 12.995-1.044 15.097-1.703 1.675-.529 5.369-.529 6.762-.507.054.001.108-.013.155-.04a.3.3 0 0 0 .153-.269.3.3 0 0 0-.045-.154l-.204-.329z" fill="#cb4262"/><path d="M103.693 86.025c.841-4.21-.102-7.946-2.107-8.344s-4.313 2.692-5.154 6.901.102 7.945 2.107 8.344 4.313-2.692 5.155-6.901z" class="Q"/><path d="M102.985 85.905c-.742 3.657-2.64 6.362-4.262 6.04s-2.343-3.549-1.615-7.21 2.64-6.362 4.262-6.04 2.347 3.55 1.615 7.21z" fill="#d96383"/><path d="M100.85 85.498c-.2.999-.72 1.736-1.162 1.647s-.642-.966-.442-1.965.72-1.736 1.163-1.647.638.947.441 1.965z" class="B"/><path d="M100.568 85.423c-.13.648-.468 1.11-.742 1.07s-.416-.629-.286-1.277.468-1.11.742-1.07.416.629.286 1.277z" fill="#d9e2ff"/><g class="Q"><path d="M107.307 82.433c-.13.226-.605.204-1.054-.055s-.706-.655-.576-.885.606-.2 1.055.059.694.651.575.881zm4.827 2.794c-.133.226-.605.203-1.054-.056s-.706-.655-.576-.881.606-.204 1.055.056.724.651.575.881z"/><path d="M106.041 82.588h-.412s1.456 4.156.498 7.402h.326c1.033-2.598-.412-7.402-.412-7.402zm2.926 0h-.516s1.433 4.404.925 6.718h.237c.513-1.817-.646-6.718-.646-6.718zm3.004.918h-.342s1.422 4.071-.122 6.174l.371.178c1.37-2.309.093-6.351.093-6.351z"/></g><path d="M106.212 80.375c-.052.13-.26.167-.464.081s-.319-.255-.264-.37.264-.166.464-.081.32.237.264.37z" fill="#e06762"/><path d="M113.686 76.211l2.113-3.142-1.637-.922-1.608 3.427-3.282-.037-3.249 6.325.779.44 2.666-5.293 3.491-.836 1.088 3.412-3.171 5.008.783.44 3.754-6.04-1.727-2.783z" class="b"/><path d="M115.799 73.069l-1.637-.922-.082.178 1.326.744-2.113 3.142 1.726 2.783-3.653 5.878.293.163 3.754-6.04-1.727-2.783 2.113-3.142z" fill="#eacdd8"/><path d="M118.328 66.818a1.29 1.29 0 0 0-.975-.118c-.328.091-.606.308-.774.603l-2.666 4.708 2.228 1.258 2.677-4.708a1.29 1.29 0 0 0 .157-.475 1.27 1.27 0 0 0-.039-.498c-.045-.162-.122-.314-.227-.446s-.234-.242-.381-.325z" class="F"/><path d="M118.075 68.169a.51.51 0 0 1-.086.289c-.056.086-.137.153-.232.192a.52.52 0 0 1-.568-.11c-.073-.072-.123-.165-.143-.265a.52.52 0 0 1 .22-.533.52.52 0 0 1 .656.063.52.52 0 0 1 .153.364z" class="b"/><path d="M32.905 73.676l-.973-14.871h-3.082l-1.088 14.849-3.115 1.921a1.82 1.82 0 0 0-.631.659c-.151.269-.23.573-.231.881l-.056 19.557 13.077.037.056-19.557a1.82 1.82 0 0 0-.226-.876c-.148-.269-.361-.495-.62-.66l-3.111-1.939z" class="a"/><path d="M24.662 96.679l.041-15.456c.181-.499.305-1.017.371-1.543-.069-.516-.194-1.024-.371-1.514v-1.044c.001-.308.08-.612.231-.881a1.82 1.82 0 0 1 .631-.659l3.13-1.928 1.073-14.86h-.932l-1.073 14.86-3.115 1.921a1.82 1.82 0 0 0-.631.659c-.151.269-.23.572-.231.881l-.056 19.557 13.077.037-12.145-.03z" fill="#d49215"/><path d="M36.017 75.616l-3.104-1.939-.98-14.871h-1.619l.988 14.871 3.104 1.939a1.81 1.81 0 0 1 .629.661 1.8 1.8 0 0 1 .225.883l-.056 19.557h1.604l.056-19.557a1.82 1.82 0 0 0-.224-.88c-.148-.27-.362-.498-.622-.663z" fill="#c25b15"/><path d="M31.981 55.333h-3.189c-.329 0-.645.13-.878.362a1.24 1.24 0 0 0-.366.874v2.221h5.674v-2.221a1.23 1.23 0 0 0-.362-.875c-.115-.115-.252-.206-.403-.268a1.24 1.24 0 0 0-.475-.093z" class="C"/><path d="M28.401 58.794v-2.221a1.23 1.23 0 0 1 .357-.866 1.24 1.24 0 0 1 .865-.366h-.832c-.329 0-.645.13-.878.362a1.24 1.24 0 0 0-.366.874v2.221h5.674l-4.82-.004z" fill="#a25378"/><path d="M31.981 55.333h-1.314c.163 0 .325.032.475.094a1.24 1.24 0 0 1 .403.269c.115.115.207.252.269.402a1.23 1.23 0 0 1 .093.474v2.221h1.314v-2.221a1.23 1.23 0 0 0-.361-.878c-.115-.115-.252-.207-.403-.269a1.24 1.24 0 0 0-.476-.093z" fill="#77415e"/><path d="M23.765 83.376l-.012 4.382 13.077.036.012-4.382-13.077-.036z" fill="#eac27d"/><path d="M23.767 83.374l-.012 4.382 1.088.003.012-4.382-1.088-.003z" fill="#ead4a7"/><path d="M35.232 83.403l-.012 4.382 1.611.005.012-4.382-1.611-.005z" fill="#eaaa7d"/><path d="M33.418 86.105c0 3.612-1.422 6.536-3.149 6.533s-3.119-2.939-3.111-6.551 1.422-6.536 3.149-6.533 3.13 2.939 3.112 6.551z" fill="#eac27d"/><path d="M25.643 81.426c0 .3-.126.544-.282.544s-.278-.244-.278-.544.126-.54.278-.54.282.233.282.54z" fill="#d49215"/><path d="M71.97 129.572c-2.506-7.521-5.128-2.28-5.503-14.006-.186-5.814-6.535-5.304-6.535-5.304l-3.758.556-3.761.555s-6.219 1.347-4.705 6.965c3.052 11.333-.98 7.073-1.188 14.994-.156 5.855 4.006 9.86 12.443 8.346 1.168-.21 2.344-.384 3.527-.522 8.514-.992 11.332-6.029 9.479-11.584z" fill="#ffad15"/><path d="M52.414 112.246l3.761-.555 3.758-.559s6.349-.507 6.535 5.308c.371 11.725 2.996 6.484 5.503 14.001a10.23 10.23 0 0 1 .527 2.732c.052-1.223-.127-2.445-.527-3.601-2.506-7.521-5.128-2.28-5.503-14.006-.186-5.814-6.535-5.304-6.535-5.304l-3.758.556-3.761.555s-5.28 1.147-4.92 5.725c.323-3.841 4.92-4.852 4.92-4.852z" class="c"/><path d="M60.445 139.535c-8.106 2.039-12.751-.589-13.905-5.208.312 5.208 4.329 8.65 11.989 7.429a110.95 110.95 0 0 1 4.4-.652c7.697-1.047 10.526-5.507 9.309-10.585.241 4.752-3.442 8.609-11.793 9.016z" fill="#ff9815"/><path d="M58.787 126.389c2.132-.315 3.648-1.993 3.387-3.748s-2.201-2.923-4.333-2.607-3.648 1.994-3.387 3.749 2.201 2.922 4.333 2.606z" fill="#e86415"/><path d="M58.043 121.436c1.856-.27 3.535.563 4.133 1.925a2.71 2.71 0 0 0 0-.714c-.26-1.755-2.202-2.924-4.333-2.591s-3.65 1.991-3.39 3.749a2.85 2.85 0 0 0 .2.685c.171-1.492 1.548-2.78 3.39-3.054z" fill="#ca4a15"/><path d="M63.839 129.792l-9.458 1.399.215 1.443 9.458-1.399-.215-1.443z" class="M"/><path d="M63.945 130.513l-9.458 1.399.107.721 9.458-1.398-.107-.722z" fill="#2e3346"/><path d="M48.864 78.328l1.125 7.569.654 1.543 4.055-.6.175-1.666-1.125-7.569-4.883.722z" class="C"/><path d="M55.033 86.726l-4.058.613 4.684 30.816 4.058-.613-4.684-30.816z" class="G"/><g class="B"><path d="M51.184 87.364l-.132.02 6.446 43.356.132-.019-6.446-43.356z"/><use href="#M"/><path d="M52.432 87.173l-.132.02 6.454 43.355.132-.02-6.454-43.355zm.618-.089l-.132.019 6.454 43.355.132-.02-6.454-43.354zm.612-.086l-.132.019 6.446 43.356.132-.02-6.446-43.356zm.628-.101l-.132.02 6.454 43.355.132-.019-6.454-43.355z"/></g><g fill="#55415e"><path d="M51.463 79.39l-1.184.179.882 5.8 1.184-.179-.882-5.8zm1.611-.175l-1.183.175.862 5.796 1.183-.175-.862-5.796zm-4.841-.13l-1.117.165.274 1.842 1.116-.165-.274-1.842zm.366 2.462l-1.117.165.274 1.842 1.117-.165-.274-1.842z"/><use href="#N"/><path d="M55.698 77.982l-1.117.165.274 1.842 1.117-.165-.274-1.841zm.366 2.459l-1.117.165.274 1.841 1.117-.165-.274-1.841zm.365 2.459l-1.117.165.274 1.842 1.117-.165-.274-1.841z"/></g><g fill="#353a5e"><use href="#O"/><path d="M49.411 81.995l-.731.108.108.728.731-.108-.108-.729zm.363 2.416l-.731.108.108.728.731-.108-.108-.728zm4.895-5.663l-.731.108.108.729.731-.108-.108-.729zm.363 2.415l-.731.108.108.728.731-.108-.109-.729zm.676 2.307l-.732.111.111.729.732-.11-.111-.729z"/></g><path d="M64.143 122.139a.5.5 0 0 0-.572-.133c-.097.042-.179.113-.233.203s-.078.196-.068.3c.152 1.111.215 2.562-.29 3.38-.906 1.454.438 3.701 1.563 2.387 2.061-2.402.75-4.793-.401-6.137z" class="M"/><use href="#P" fill="#d9eee8"/><use href="#P" class="D"/><path d="M15.424 140.209l.033-11.134a1.02 1.02 0 0 1 .139-.503c.089-.153.216-.281.37-.37l1.775-1.11.609-8.461h-.564l-.613 8.461-1.775 1.11a1.03 1.03 0 0 0-.358.374c-.086.152-.131.324-.132.499l-.03 11.134 7.426.022-6.88-.022z" class="d"/><path d="M19.575 116.673H17.76c-.187 0-.367.074-.5.205s-.208.311-.209.498v1.273h3.23v-1.273a.7.7 0 0 0-.053-.27c-.035-.085-.087-.163-.153-.229s-.143-.117-.229-.152-.178-.053-.271-.052z" class="G"/><path d="M29.734 127.114l-.564-8.465h-1.752l-.613 8.461-1.771 1.11a1.03 1.03 0 0 0-.359.374 1.02 1.02 0 0 0-.131.5l-.037 11.115 7.426.022.034-11.133c0-.176-.045-.348-.13-.501a1.04 1.04 0 0 0-.356-.377l-1.745-1.106z" class="D"/><path d="M25.015 140.209l.033-11.134a1.02 1.02 0 0 1 .131-.5 1.03 1.03 0 0 1 .359-.373l1.771-1.11.613-8.461h-.505l-.613 8.461-1.771 1.11a1.03 1.03 0 0 0-.359.373 1.02 1.02 0 0 0-.131.5l-.037 11.134 7.426.022-6.917-.022z" class="d"/><path d="M29.159 116.673h-1.812a.7.7 0 0 0-.271.052.71.71 0 0 0-.23.152c-.066.066-.118.143-.154.229a.7.7 0 0 0-.054.27v1.273h3.227v-1.273c-.001-.186-.076-.365-.208-.496a.71.71 0 0 0-.498-.207z" class="G"/><path d="M39.273 127.114l-.564-8.465h-1.752l-.613 8.461-1.771 1.11c-.15.093-.274.221-.36.374s-.132.325-.134.5l-.03 11.133 7.426.022.03-11.133a1.03 1.03 0 0 0-.127-.501c-.084-.153-.207-.283-.356-.376l-1.749-1.125z" class="D"/><path d="M34.595 140.209l.034-11.134a1.02 1.02 0 0 1 .131-.5 1.03 1.03 0 0 1 .359-.373l1.775-1.11.609-8.446h-.546l-.613 8.46-1.771 1.111c-.15.092-.274.22-.36.373s-.132.325-.134.5l-.03 11.133 7.426.023-6.88-.037z" class="d"/><g class="G"><path d="M38.746 116.673H36.93a.71.71 0 0 0-.5.206c-.133.131-.208.31-.209.497v1.273h3.23v-1.273c-.001-.186-.076-.364-.208-.496a.71.71 0 0 0-.498-.207z"/><use href="#Q"/><path d="M46.566 132.525H8.492v3.542h38.074v-3.542zm0 5.533H8.492v3.542h38.074v-3.542z"/></g><g fill="#944f5e"><use href="#R"/><path d="M12.806 132.525H9.22v3.542h3.587v-3.542zm0-5.53H9.22v3.542h3.587v-3.542z"/><use href="#S"/><path d="M45.834 132.525h-3.587v3.542h3.587v-3.542zm0-5.53h-3.587v3.542h3.587v-3.542z"/></g><g class="a"><path d="M12.238 125.178h-2.45v16.418h2.451v-16.418zm33.028 0h-2.451v16.418h2.451v-16.418z"/></g><g fill="#c27a82"><path d="M26.441 128.083h-9.973v.878h9.973v-.878zm13.01 6.019h-9.973v.877h9.973v-.877zm-10.556 5.426h-9.973v.877h9.973v-.877zm5.57.103h-2.911v.878h2.911v-.878zm-12.513-5.944h-2.911v.877h2.911v-.877zm12.914-5.163h-2.911v.877h2.911v-.877z"/></g><g class="G"><path d="M11.696 128.768a.68.68 0 0 1-.424.627.68.68 0 0 1-.394.037.69.69 0 0 1-.349-.187c-.095-.096-.16-.217-.186-.349a.68.68 0 0 1 .291-.698c.113-.075.244-.115.379-.115.09 0 .179.018.262.053s.159.085.222.148a.68.68 0 0 1 .148.222.69.69 0 0 1 .051.262zm-.683 6.211a.681.681 0 1 0 0-1.362c-.377 0-.683.305-.683.681s.306.681.683.681zm0 5.53a.68.68 0 0 0 .683-.681c0-.377-.306-.682-.683-.682s-.683.305-.683.682a.68.68 0 0 0 .683.681zm33.715-11.741a.68.68 0 0 1-.116.381.69.69 0 0 1-1.057.103.68.68 0 0 1-.188-.35.69.69 0 0 1 .039-.396c.052-.125.14-.232.253-.307a.69.69 0 0 1 .867.085c.129.128.201.303.201.484zm-.687 6.211c.377 0 .683-.305.683-.681s-.306-.681-.683-.681-.683.305-.683.681.306.681.683.681zm0 5.53c.377 0 .683-.305.683-.681s-.306-.682-.683-.682-.683.305-.683.682a.68.68 0 0 0 .683.681z"/></g><path d="M120.485 138.632h-6.78s-2.462 1.54-2.432 2.961h11.629c.045-1.421-2.417-2.961-2.417-2.961z" class="H"/><path d="M114.682 138.632h-.977s-2.462 1.54-2.432 2.961h.977c-.03-1.421 2.432-2.961 2.432-2.961z" fill="#ffb715"/><path d="M116.828 120.626a1.31 1.31 0 0 1-.409.044c-.423-.085-.486-.74-.438-1.21a4.31 4.31 0 0 0-.093-1.74 1.79 1.79 0 0 0-.403-.76 1.8 1.8 0 0 0-.711-.487c-.393-.1-.85 0-1.158-.307-.186-.255-.291-.559-.301-.874a4.78 4.78 0 0 0-1.155-2.591c-.164-.158-.366-.272-.586-.333-.618-.191-1.283-.156-1.877.1a2.7 2.7 0 0 0-1.357 1.295c-.108.203-.163.43-.16.659.101.956.49 1.859 1.114 2.591.225.223.378.508.438.818.03.444-.371.696-.561 1.055-.109.27-.151.561-.122.851s.126.567.286.811a4.28 4.28 0 0 0 1.218 1.247c.371.278.82.777.597 1.144-.078.122-.207.177-.311.27-.372.344-.26 1.092.059 1.599.635 1.018 1.771 1.447 2.803 1.799l2.492.84.104-.034 1.073-2.394c.442-.996.898-2.117.579-3.272-.141-.57-.616-1.17-1.121-1.121z" fill="#bb5615"/><path d="M117.964 121.769c-.156-.581-.624-1.18-1.136-1.132a1.31 1.31 0 0 1-.409.044c-.423-.085-.486-.74-.438-1.21a4.31 4.31 0 0 0-.093-1.74 1.79 1.79 0 0 0-.403-.76 1.81 1.81 0 0 0-.711-.487c-.393-.1-.85 0-1.158-.307a.84.84 0 0 1-.134-.196c-.297.174-.664.285-.954.473-.295.232-.522.538-.657.887s-.172.729-.108 1.097a4.98 4.98 0 0 0 .921 2.047c.342.507.479.911-.048 1.221-.188.079-.385.131-.587.156-.743.203-.835 1.525-.706 2.272.148.713.49 1.371.988 1.903.451.227.919.418 1.4.574l2.491.84.104-.034 1.073-2.394c.427-.988.884-2.11.565-3.254z" fill="#a34c15"/><path d="M117.396 120.626a1.31 1.31 0 0 0 .408.044c.423-.085.487-.74.438-1.21-.087-.58-.056-1.172.093-1.74a1.8 1.8 0 0 1 1.114-1.247c.394-.1.85 0 1.159-.307.185-.255.29-.559.3-.874a4.79 4.79 0 0 1 1.155-2.591c.165-.158.366-.272.587-.333a2.71 2.71 0 0 1 1.876.1 2.7 2.7 0 0 1 1.358 1.295c.107.203.162.43.159.659-.101.956-.489 1.859-1.113 2.591-.226.223-.378.508-.439.818-.029.444.372.696.561 1.055a1.81 1.81 0 0 1 .123.851 1.82 1.82 0 0 1-.286.811 4.3 4.3 0 0 1-1.244 1.258c-.371.278-.821.777-.598 1.144.078.122.208.178.312.27.371.344.26 1.092-.059 1.599-.635 1.018-1.768 1.447-2.804 1.799l-2.491.84-.104-.033-1.073-2.395c-.442-.996-.899-2.117-.58-3.272.168-.581.635-1.181 1.148-1.132z" fill="#bb5615"/><path d="M116.26 121.769c.155-.581.623-1.18 1.136-1.132a1.31 1.31 0 0 0 .408.044c.423-.085.487-.74.438-1.21-.087-.58-.056-1.172.093-1.74a1.8 1.8 0 0 1 .403-.76 1.81 1.81 0 0 1 .711-.487c.394-.1.85 0 1.159-.307.054-.059.099-.125.133-.196.297.174.665.285.954.473.302.231.533.54.671.893a2.07 2.07 0 0 1 .109 1.11 4.98 4.98 0 0 1-.921 2.047c-.341.507-.479.91.049 1.221.187.078.384.131.586.155.743.204.836 1.525.706 2.273-.148.713-.489 1.371-.988 1.902a9.8 9.8 0 0 1-1.4.574l-2.491.84-.104-.033-1.073-2.395c-.442-1.006-.899-2.128-.579-3.272z" fill="#a34c15"/><path d="M120.485 138.632h-1.274s2.462 1.54 2.429 2.961h1.262c.045-1.421-2.417-2.961-2.417-2.961z" fill="#ff8415"/><path d="M121.718 122.139a2.02 2.02 0 0 1-.561-.148c-.501-.292-.2-1.055.126-1.536a4.77 4.77 0 0 0 .873-1.947 1.96 1.96 0 0 0-.104-1.055c-.131-.335-.352-.628-.639-.847-.453-.3-1.114-.389-1.329-.888-.1-.371-.064-.765.104-1.111.405-1.096.398-2.301-.019-3.394-.467-1.062-1.592-1.876-2.744-1.728h-.683c-1.151-.148-2.276.666-2.744 1.725-.41 1.095-.41 2.302 0 3.397.168.346.205.74.104 1.111-.215.499-.876.588-1.329.888-.287.219-.508.512-.639.847a1.96 1.96 0 0 0-.104 1.055 4.73 4.73 0 0 0 .877 1.947c.323.481.623 1.24.122 1.536-.179.074-.368.124-.56.148-.695.193-.958 1.074-.836 1.781.249 1.421 1.485 2.431 2.629 3.331l2.762 2.113h.156l2.767-2.113c1.147-.877 2.376-1.892 2.625-3.309.104-.733-.16-1.614-.854-1.803z" fill="#bb5e15"/><path d="M114.693 126.629c-1.114-.862-2.15-1.729-2.347-2.85-.07-.411.078-.877.301-.94l.126-.026a1.69 1.69 0 0 0 .616-.196 1.27 1.27 0 0 0 .382-.348c.102-.141.175-.301.213-.47.163-.714-.283-1.481-.483-1.773a4.12 4.12 0 0 1-.743-1.636c-.042-.216-.026-.438.046-.646s.199-.392.366-.535a3 3 0 0 1 .39-.192c.261-.082.502-.215.711-.39a2.07 2.07 0 0 0 .507-.632c.177-.512.155-1.072-.063-1.569l-.019-.052c-.343-.927-.343-1.945 0-2.872.15-.361.398-.674.715-.904a2.13 2.13 0 0 1 1.083-.399c.058-.003.116-.003.174 0h.041.776.052.174a2.13 2.13 0 0 1 1.083.399c.317.23.565.543.715.904.434.988.233 2.11 0 2.872l-.019.052c-.218.498-.24 1.059-.063 1.573.255.486.693.852 1.218 1.018.128.054.253.119.371.192a1.24 1.24 0 0 1 .37.536c.073.208.089.432.046.649a4.07 4.07 0 0 1-.743 1.632c-.2.296-.646 1.059-.482 1.773a1.25 1.25 0 0 0 .211.47c.102.141.233.259.383.348.191.104.4.172.616.2.041 0 .085 0 .126.022.223.063.372.529.301.94-.197 1.11-1.222 1.991-2.347 2.85l-2.383 1.821-2.421-1.821z" fill="#b25315"/><path d="M115.146 126.04c-1.003-.766-1.92-1.528-2.069-2.387-.005-.047-.005-.094 0-.141a2.21 2.21 0 0 0 .691-.259c.239-.138.446-.324.608-.547a1.99 1.99 0 0 0 .335-.744c.219-.959-.275-1.884-.59-2.351-.304-.389-.519-.84-.631-1.321-.032-.161-.001-.328.089-.466.041-.026.171-.085.271-.13a2.78 2.78 0 0 0 .941-.542c.274-.241.498-.533.659-.861a2.82 2.82 0 0 0-.037-2.091v-.055c-.291-.753-.304-1.585-.037-2.347a1.39 1.39 0 0 1 .44-.579 1.4 1.4 0 0 1 .674-.28h.081.082.865.104.086a1.39 1.39 0 0 1 .674.281c.196.151.348.352.44.582.341.777.167 1.706-.038 2.346v.052a2.83 2.83 0 0 0-.037 2.091c.161.328.385.62.66.861a2.77 2.77 0 0 0 .941.542l.278.133c.086.14.115.307.082.467a3.42 3.42 0 0 1-.631 1.317c-.316.467-.81 1.388-.591 2.351.059.268.173.522.336.744s.369.409.607.547a2.14 2.14 0 0 0 .691.259c.005.047.005.094 0 .141-.149.862-1.066 1.621-2.068 2.387l-1.931 1.481-1.975-1.481z" fill="#bb5e15"/><path d="M118.075 127.236h-7.277s.286 9.501 2.918 11.396h6.758c2.632-1.895 2.918-11.396 2.918-11.396h-5.317z" fill="#ffad15"/><path d="M111.763 127.236h-.965s.286 9.501 2.918 11.396h.965c-1.295-.933-2.023-3.701-2.428-6.274-.089-.577.546-1.143.487-1.68-.075-.644-.84-1.24-.88-1.751l-.097-1.691z" class="c"/><path d="M121.84 127.236s-.286 9.501-2.918 11.396h1.541c2.632-1.895 2.918-11.396 2.918-11.396h-1.541z" fill="#ff9815"/><path d="M113.467 132.903c.049.325-.089.618-.308.651s-.438-.207-.486-.533.089-.614.308-.648.438.204.486.53z" class="c"/><g fill="#ce7315"><path d="M117.073 127.236c-.123 0-.219-.2-.219-.44v-14.28c0-.244.096-.44.219-.44s.222.196.222.44v14.298c0 .222-.1.422-.222.422z"/><path d="M116.961 118.919s-1.789-1.229-1.878-1.051 1.878 1.532 1.878 1.532v-.481z"/><use href="#T"/><use href="#U"/><path d="M116.961 118.919s-1.789-1.229-1.878-1.051z"/><use href="#T"/><use href="#U"/><path d="M117.206 118.919s1.79-1.229 1.879-1.051-1.879 1.532-1.879 1.532v-.481zm0 3.087s1.79-1.225 1.879-1.047-1.879 1.528-1.879 1.528v-.481zm0 2.772s1.79-1.225 1.879-1.047-1.879 1.532-1.879 1.532v-.485z"/></g></g><defs><clipPath id="A"><path d="M0 0h150v142H0z" class="B"/></clipPath><path id="B" d="M124.202 46.75s-21.688 14.953-26.808 12.728c-1.508-.651-2.874-3.109-3.876-5.441a19.78 19.78 0 0 0-9.097-9.79 32.24 32.24 0 0 0-9.179-3.094h-.178c-29.211 5.156-35.79 46.52-35.79 46.52l6.684 1.166c2.335-20.131 14.11-33.548 14.11-33.548-10.534 24.284-3.787 37.541-3.787 37.541l5.388.885c8.93 1.469 18.042 1.469 26.972 0l5.388-.885s5.425-10.659-1.04-30.376v.019s1.162 3.92 3.268 4.941c8.309 4.016 19.898-8.938 29.088-18.732l-1.14-1.936z"/><path id="C" d="M69.434 41.712s3.29 7.872 5.503 15.249c2.228-7.376 5.506-15.249 5.506-15.249l-5.506-1.784-5.503 1.784z"/><path id="D" d="M58.373 117.043l.148.04a19.57 19.57 0 0 0 10.482-.04c1.448-8.62 3.475-17.063 5.941-18.136 2.477 1.077 4.5 9.519 5.941 18.136l.449.174a13.41 13.41 0 0 0 10.185-.174c1.173-8.161 2.209-17.322 2.202-24.21H56.168c-.007 6.888 1.014 16.049 2.206 24.21z"/><path id="E" d="M71.718 32.545c.334 0 .605-.406.605-.907s-.271-.907-.605-.907-.605.406-.605.907.271.907.605.907z"/><path id="F" d="M66.416 28.629l-.902.329.07 1.906c.111.57.342 1.051.802 1.07 1.147.041 1.392-2.328 1.719-2.287s1.693.655 2.28-.448c0 0 4.56 1.851 6.832-.74 0 0 1.114 1.658 2.599.574 0 0 .449 1.795 2.25 1.162 0 0-.085 3.331 1.025 2.876 1.485-.592 1.3-4.116 1.3-4.116l-1.218-.426c-5.427-1.911-11.353-1.875-16.757.1z"/><path id="G" d="M74.595 64.93c.318 0 .576-.257.576-.574s-.258-.574-.576-.574-.575.257-.575.574.258.574.575.574z"/><path id="H" d="M17.737 107.731l-5.525-2.177-5.525 2.177V96.716h11.05v11.015z"/><path id="I" d="M44.873 101.722v2.547h-2.76v12.314h-2.93v-12.314h-2.76v-2.547h8.45z"/><path id="J" d="M77.053 107.139h3.8v2.569h-3.8v3.906h5.074v2.569h-8.004v-13.078l2.93-2.038h4.734v2.59h-3.949l-.785.552v2.93z"/><path id="K" d="M89.523 102.235c1.132-.779 1.904-1.168 2.314-1.168s1.04.375 1.889 1.125c.863.736 1.401 1.26 1.614 1.571.212.298.318.694.318 1.189 0 .963-.078 1.536-.234 1.72-.297.453-.757.983-1.38 1.592.863.821 1.401 1.451 1.613 1.89.113.297.234 1.203.361 2.717l.191 3.312h-3.184c0-.637-.057-1.635-.17-2.994s-.241-2.179-.382-2.462c-.127-.283-.283-.531-.467-.743h-1.889v6.199h-2.93v-9.299c0-1.146-.085-1.939-.255-2.378-.156-.453-.495-1.005-1.019-1.656l2.548-1.783a3.12 3.12 0 0 1 1.061 1.168zm.594 3.63v1.635h.828c.198 0 .453-.156.764-.467s.51-.573.594-.786a1.73 1.73 0 0 0 .149-.7c0-.241-.049-.453-.149-.637-.085-.198-.212-.418-.382-.658s-.311-.361-.425-.361c-.382 0-.863.092-1.444.276l.064 1.698z"/><path id="L" d="M100.428 116.183v-8.471c0-1.741.142-2.859.425-3.354s.884-1.168 1.804-2.017c.934-.849 1.628-1.274 2.081-1.274.622 0 1.394.248 2.314.743s1.606 1.055 2.059 1.677l-2.356 1.635c-.793-.793-1.43-1.189-1.911-1.189-.184 0-.396.12-.637.361-.241.227-.446.474-.616.743-.155.255-.233.913-.233 1.975v.488h3.8v2.569h-3.8v6.114h-2.93z"/><path id="M" d="M51.816 87.262l-.132.02 6.454 43.355.132-.02-6.454-43.355z"/><path id="N" d="M48.964 84.006l-1.117.165.274 1.842 1.117-.165-.274-1.841z"/><path id="O" d="M49.056 79.578l-.731.108.108.729.731-.108-.108-.729z"/><path id="P" d="M20.103 127.114l-.564-8.465h-1.753l-.613 8.461-1.775 1.11a1.04 1.04 0 0 0-.358.374 1.03 1.03 0 0 0-.132.5l-.03 11.133 7.426.022.03-11.133c.001-.175-.043-.348-.128-.502s-.209-.283-.358-.375l-1.745-1.125z"/><path id="Q" d="M46.566 126.995H8.492v3.542h38.074v-3.542z"/><path id="R" d="M12.806 138.058H9.22v3.542h3.587v-3.542z"/><path id="S" d="M45.834 138.058h-3.587v3.542h3.587v-3.542z"/><path id="T" d="M116.961 122.006s-1.789-1.225-1.878-1.047 1.878 1.528 1.878 1.528v-.481z"/><path id="U" d="M116.961 124.778s-1.789-1.225-1.878-1.047 1.878 1.532 1.878 1.532v-.485z"/></defs></svg>