<svg width="167" height="225" viewBox="0 0 167 225" fill="none" xmlns="http://www.w3.org/2000/svg">
<rect width="166.83" height="224.757" rx="12.744" fill="url(#paint0_radial_175_3110)"/>
<path d="M43.5176 37.7236V43.2871C43.5176 43.9902 43.5645 44.4502 43.6582 44.667C43.7637 45.042 44.1855 45.2324 44.9238 45.2383H45.4688V49H43.333C42.6592 49 42.0527 48.8564 41.5137 48.5693C40.9805 48.2939 40.5498 47.8984 40.2217 47.3828C40.1455 47.2656 40.0693 47.1162 39.9932 46.9346C39.9287 46.7822 39.8789 46.6152 39.8438 46.4336C39.8027 46.2578 39.7705 46.0527 39.7471 45.8184C39.7295 45.6543 39.7207 45.3936 39.7207 45.0361V34.6738H43.7549V37.7236H43.5176ZM47.3408 53.377C47.8564 53.377 48.2959 53.1953 48.6592 52.832C49.0166 52.4688 49.1953 52.0322 49.1953 51.5225C49.1953 51.0068 49.0166 50.5674 48.6592 50.2041C48.29 49.8408 47.8506 49.6592 47.3408 49.6592C46.8252 49.6592 46.3887 49.8408 46.0312 50.2041C45.668 50.5674 45.4863 51.0068 45.4863 51.5225C45.4863 52.0381 45.668 52.4746 46.0312 52.832C46.3887 53.1953 46.8252 53.377 47.3408 53.377ZM52.0957 53.377C52.6055 53.377 53.0449 53.1953 53.4141 52.832C53.7715 52.4688 53.9502 52.0322 53.9502 51.5225C53.9502 51.0068 53.7715 50.5674 53.4141 50.2041C53.0449 49.8408 52.6055 49.6592 52.0957 49.6592C51.5801 49.6592 51.1436 49.8408 50.7861 50.2041C50.417 50.5674 50.2324 51.0068 50.2324 51.5225C50.2324 52.0381 50.417 52.4746 50.7861 52.832C51.1436 53.1953 51.5801 53.377 52.0957 53.377ZM44.7568 49V45.2383H48.8965C49.6348 45.2324 50.0566 45.042 50.1621 44.667C50.2617 44.4502 50.3115 43.9902 50.3115 43.2871V39.042H54.0996V45.2383H55.1807V49H44.7568ZM66.1143 45.2734L64.3916 49H54.46V45.2383L62.2822 45.2295C62.9092 44.5557 63.2227 43.8379 63.2227 43.0762C63.2227 42.4609 63.0293 41.96 62.6426 41.5732C62.2676 41.1982 61.7637 41.0107 61.1309 41.0107C60.5156 41.0107 60.0234 41.1865 59.6543 41.5381C59.3613 41.8135 59.1826 42.1826 59.1182 42.6455L55.8398 41.002C55.9453 40.6328 56.0859 40.293 56.2617 39.9824C56.8008 39.0332 57.4805 38.3242 58.3008 37.8555C59.1152 37.3867 60.0586 37.1523 61.1309 37.1523C61.9453 37.1523 62.6777 37.2842 63.3281 37.5479C63.9961 37.8115 64.585 38.21 65.0947 38.7432C65.6279 39.2646 66.0234 39.8682 66.2812 40.5537C66.5391 41.2393 66.668 41.9863 66.668 42.7949C66.668 43.6797 66.4951 44.5059 66.1494 45.2734H66.1143ZM61.3066 50.1602C60.9375 49.7969 60.498 49.6152 59.9883 49.6152C59.4785 49.6152 59.042 49.7969 58.6787 50.1602C58.3154 50.5234 58.1338 50.9629 58.1338 51.4785C58.1338 51.9941 58.3154 52.4307 58.6787 52.7881C59.0361 53.1514 59.4727 53.333 59.9883 53.333C60.5039 53.333 60.9434 53.1514 61.3066 52.7881C61.6699 52.4248 61.8516 51.9883 61.8516 51.4785C61.8516 50.9688 61.6699 50.5293 61.3066 50.1602ZM73.2949 50.7754C74.4023 50.5527 75.0264 49.9609 75.167 49H70.3945L68.6631 45.2734H68.6367C68.2852 44.5059 68.1094 43.6797 68.1094 42.7949C68.1094 41.9863 68.2383 41.2393 68.4961 40.5537C68.7539 39.8682 69.1494 39.2646 69.6826 38.7432C70.1982 38.21 70.79 37.8115 71.458 37.5479C72.1084 37.2842 72.8408 37.1523 73.6553 37.1523C74.7217 37.1523 75.665 37.3867 76.4854 37.8555C77.2998 38.3242 77.9766 39.0332 78.5156 39.9824C78.6973 40.3164 78.8379 40.6504 78.9375 40.9844L78.9287 45.2383H80.8008V49H78.832C78.7441 51.2559 77.4316 52.7617 74.8945 53.5176L73.2949 50.7754ZM75.1758 41.582L75.1318 41.5381C74.7627 41.1865 74.2705 41.0107 73.6553 41.0107C73.0225 41.0107 72.5156 41.1982 72.1348 41.5732C71.748 41.96 71.5547 42.4609 71.5547 43.0762C71.5547 43.8379 71.8711 44.5557 72.5039 45.2295L75.1758 45.2383V41.582ZM85.8369 37.7061V45.0361C85.8369 45.3936 85.8252 45.6543 85.8018 45.8184C85.7842 46.0469 85.7578 46.252 85.7227 46.4336C85.6758 46.6152 85.623 46.7822 85.5645 46.9346C85.4824 47.1162 85.4033 47.2656 85.3271 47.3828C85.0049 47.8984 84.5771 48.2939 84.0439 48.5693C83.5049 48.8564 82.8984 49 82.2246 49H80.0889V45.2383H80.625C81.3633 45.2324 81.7881 45.042 81.8994 44.667C81.9932 44.4502 82.04 43.9902 82.04 43.2871V34.6738H86.0742V37.7061H85.8369ZM92.7012 50.7754C93.8086 50.5527 94.4326 49.9609 94.5732 49H89.8008L88.0693 45.2734H88.043C87.6914 44.5059 87.5156 43.6797 87.5156 42.7949C87.5156 41.9863 87.6445 41.2393 87.9023 40.5537C88.1602 39.8682 88.5557 39.2646 89.0889 38.7432C89.6045 38.21 90.1963 37.8115 90.8643 37.5479C91.5146 37.2842 92.2471 37.1523 93.0615 37.1523C94.1279 37.1523 95.0713 37.3867 95.8916 37.8555C96.7061 38.3242 97.3828 39.0332 97.9219 39.9824C98.1035 40.3164 98.2441 40.6504 98.3438 40.9844L98.335 45.2383H100.207V49H98.2383C98.1504 51.2559 96.8379 52.7617 94.3008 53.5176L92.7012 50.7754ZM94.582 41.582L94.5381 41.5381C94.1689 41.1865 93.6768 41.0107 93.0615 41.0107C92.4287 41.0107 91.9219 41.1982 91.541 41.5732C91.1543 41.96 90.9609 42.4609 90.9609 43.0762C90.9609 43.8379 91.2773 44.5557 91.9102 45.2295L94.582 45.2383V41.582ZM106.342 50.1602C105.973 49.7969 105.533 49.6152 105.023 49.6152C104.514 49.6152 104.077 49.7969 103.714 50.1602C103.351 50.5234 103.169 50.9629 103.169 51.4785C103.169 51.9941 103.351 52.4307 103.714 52.7881C104.071 53.1514 104.508 53.333 105.023 53.333C105.539 53.333 105.979 53.1514 106.342 52.7881C106.705 52.4248 106.887 51.9883 106.887 51.4785C106.887 50.9688 106.705 50.5293 106.342 50.1602ZM99.4951 49V45.2383H107.317C107.944 44.5527 108.258 43.832 108.258 43.0762C108.258 42.4609 108.064 41.96 107.678 41.5732C107.303 41.1982 106.799 41.0107 106.166 41.0107C105.551 41.0107 105.059 41.1865 104.689 41.5381C104.396 41.8135 104.218 42.1826 104.153 42.6455L100.875 41.002C100.98 40.6328 101.121 40.293 101.297 39.9824C101.836 39.0332 102.516 38.3242 103.336 37.8555C104.15 37.3867 105.094 37.1523 106.166 37.1523C106.98 37.1523 107.713 37.2842 108.363 37.5479C109.031 37.8115 109.62 38.21 110.13 38.7432C110.663 39.2646 111.059 39.8682 111.316 40.5537C111.574 41.2393 111.703 41.9863 111.703 42.7949C111.703 43.627 111.533 44.4414 111.193 45.2383H112.811V49H99.4951ZM117.847 37.7061V45.0361C117.847 45.3936 117.835 45.6543 117.812 45.8184C117.794 46.0469 117.768 46.252 117.732 46.4336C117.686 46.6152 117.633 46.7822 117.574 46.9346C117.492 47.1162 117.413 47.2656 117.337 47.3828C117.015 47.8984 116.587 48.2939 116.054 48.5693C115.515 48.8564 114.908 49 114.234 49H112.099V45.2383H112.635C113.373 45.2324 113.798 45.042 113.909 44.667C114.003 44.4502 114.05 43.9902 114.05 43.2871V34.6738H118.084V37.7061H117.847ZM120.817 49V37.7939H120.246V34.6738H124.315V49H120.817Z" fill="#FCFDAF"/>
<path d="M21.0443 144.589C22.2926 160.351 29.4354 175.063 41.0486 185.793C52.6618 196.523 67.8922 202.481 83.7035 202.481C99.5147 202.481 114.745 196.523 126.358 185.793C137.972 175.063 145.114 160.351 146.363 144.589H21.0443Z" fill="#4E84C4"/>
<path d="M118.103 191.756C116.366 192.229 114.584 192.518 112.786 192.617C111.109 192.737 109.425 192.724 107.723 192.712C106.16 192.617 104.592 192.743 103.064 193.085C100.444 193.813 98.229 195.446 95.9505 196.883C94.8317 197.599 93.6495 198.212 92.4188 198.712C91.2516 199.121 90.0444 199.405 88.8174 199.56C86.2732 199.96 83.7029 200.172 81.1275 200.193C78.5581 200.297 75.9898 199.963 73.5324 199.206C71.3362 198.427 69.8172 196.788 68.0956 195.313C67.2438 194.585 66.2406 194.055 65.1589 193.762C63.3878 193.324 61.5846 193.028 59.7664 192.876C56.4302 192.52 53.077 192.347 49.7219 192.357C60.0602 198.994 72.1166 202.456 84.4011 202.316C96.6855 202.175 108.66 198.438 118.843 191.566L118.103 191.756Z" fill="#8FB9E3"/>
<path d="M42.5636 186.969C43.0067 185.988 43.3548 184.963 43.8295 184.007C44.119 183.305 44.6674 182.741 45.3611 182.431C46.1857 182.21 47.0436 182.142 47.8928 182.229C48.5276 182.239 49.1615 182.284 49.7916 182.362C50.4664 182.457 51.149 182.487 51.8296 182.45C52.5246 182.409 53.1891 182.15 53.7283 181.71C54.1054 181.35 54.4086 180.92 54.6208 180.444C55.1272 179.325 55.5503 178.17 55.8866 176.988C56.0638 176.476 56.2347 175.969 56.4499 175.469C56.7405 174.813 57.0768 174.179 57.4562 173.57C58.7221 171.482 60.5322 169.051 59.7538 166.475C59.1905 164.577 57.5575 163.228 56.1841 161.925C54.8106 160.621 53.0195 158.982 52.7663 156.918C52.7084 155.652 52.902 154.387 53.3359 153.197C53.7872 151.944 54.0413 150.629 54.0891 149.298C54.0448 147.399 52.9245 145.779 51.5574 144.538H21.0443C22.3695 160.958 30.0988 176.199 42.5636 186.969Z" fill="#ADD142"/>
<g style="mix-blend-mode:multiply">
<path d="M59.817 166.547C59.2537 164.648 57.6208 163.3 56.2474 161.996C54.8739 160.692 53.0828 159.053 52.8296 156.99C52.7717 155.724 52.9653 154.459 53.3992 153.268C53.8505 152.015 54.1046 150.7 54.1524 149.369C54.1081 147.47 52.9878 145.85 51.6207 144.61H21.0443C22.376 161.021 30.1047 176.251 42.5636 187.015C43.0067 186.034 43.3548 185.009 43.8295 184.053C44.119 183.351 44.6674 182.787 45.3611 182.477C46.1857 182.256 47.0436 182.188 47.8928 182.275C48.5276 182.285 49.1615 182.33 49.7916 182.408C50.4664 182.503 51.149 182.533 51.8296 182.496C52.5246 182.455 53.1891 182.196 53.7283 181.756C54.1054 181.396 54.4086 180.966 54.6208 180.49C55.1272 179.371 55.5503 178.216 55.8866 177.034C56.0638 176.521 56.2347 176.015 56.4499 175.515C56.7405 174.859 57.0768 174.225 57.4562 173.616C58.7727 171.534 60.5955 169.078 59.817 166.547ZM45.3485 175.23C45.0697 175.674 44.6983 176.052 44.2598 176.338C44.0193 176.528 43.7788 176.711 43.5573 176.914C43.3148 177.148 43.1022 177.412 42.9244 177.699C42.1164 178.897 41.4914 180.209 41.0699 181.591C41.0568 181.633 41.0289 181.668 40.9915 181.69C40.9542 181.712 40.91 181.72 40.8674 181.711C40.6659 181.648 40.471 181.565 40.2851 181.465C39.4068 180.96 38.6142 180.319 37.937 179.566C37.2154 178.8 36.5445 177.99 35.842 177.205C34.2634 175.333 32.922 173.273 31.8483 171.072C31.2597 169.977 30.6774 168.882 30.0318 167.819C29.3862 166.756 28.7027 165.711 28.133 164.616C27.0221 162.541 26.1068 160.367 25.3988 158.122C24.8148 156.227 24.331 154.303 23.9494 152.357C23.5793 151.544 23.4162 150.653 23.4747 149.762C23.476 149.733 23.4843 149.705 23.4989 149.681C23.5136 149.657 23.5341 149.636 23.5586 149.622C23.5832 149.607 23.6109 149.599 23.6394 149.598C23.6678 149.597 23.6961 149.603 23.7216 149.616L24.8292 150.249C26.2343 151.046 27.6014 151.895 28.9495 152.781C30.2976 153.667 31.7027 154.679 33.1141 155.578C34.5255 156.477 36.0002 157.344 37.4686 158.173C38.1711 158.572 38.88 158.958 39.5762 159.363C40.053 159.606 40.5064 159.892 40.9307 160.217C41.3261 160.56 41.6305 160.995 41.8168 161.483C42.0371 162.143 42.1295 162.839 42.0889 163.534C42.0584 164.336 42.0816 165.14 42.1585 165.939C42.2676 166.666 42.4807 167.374 42.7915 168.04C43.3738 169.306 44.1839 170.496 44.7978 171.768C45.0896 172.349 45.3025 172.966 45.4307 173.604C45.5866 174.14 45.5577 174.713 45.3485 175.23Z" fill="#ADD142"/>
</g>
<path d="M117.457 167.901C118.163 167.408 118.943 167.03 119.767 166.781C120.201 166.461 120.655 166.171 121.128 165.914C121.511 165.625 121.939 165.401 122.394 165.249C122.519 165.239 122.641 165.201 122.75 165.139C122.86 165.077 122.954 164.991 123.027 164.888C123.192 164.571 123.256 164.211 123.21 163.857C123.189 163.516 123.232 163.175 123.337 162.85C123.457 162.63 123.637 162.448 123.856 162.325C124.346 162.018 124.883 161.791 125.445 161.654C126.646 161.358 127.866 161.147 129.097 161.021C129.761 160.933 130.426 160.819 131.097 160.724C131.926 160.615 132.748 160.459 133.559 160.255C134.938 159.888 136.66 159.287 136.995 157.724C137.088 157.131 137.118 156.531 137.084 155.933C137.068 155.288 137.164 154.645 137.369 154.034C137.61 153.446 137.975 152.917 138.439 152.483C138.646 152.28 138.818 152.042 138.945 151.781C139.098 151.407 139.192 151.012 139.223 150.61C139.477 148.578 139.059 146.591 138.673 144.597H97.5835C97.5202 144.749 97.4506 144.901 97.3809 145.053C96.4126 147.122 95.3429 149.141 94.5201 151.274C93.7543 153.262 93.0011 155.591 93.5075 157.736C94.0138 159.882 95.824 161.085 97.6974 161.793C99.6628 162.433 101.678 162.907 103.723 163.211C104.179 163.3 104.628 163.401 105.077 163.521C105.489 163.61 105.889 163.748 106.267 163.933C106.811 164.23 106.83 164.768 106.843 165.325C106.867 166.355 106.958 167.383 107.115 168.401C107.335 169.42 107.829 170.359 108.546 171.116C109.012 171.651 109.41 172.242 109.729 172.876C110.017 173.491 110.262 174.126 110.463 174.775C110.66 175.402 110.895 176.017 111.166 176.616C111.489 177.272 111.904 177.877 112.4 178.414C113.07 179.317 113.935 180.057 114.932 180.578C115.151 180.68 115.391 180.724 115.632 180.706C115.872 180.688 116.104 180.609 116.305 180.477C116.739 180.153 117.049 179.691 117.185 179.167C117.384 178.25 117.327 177.295 117.02 176.408C116.742 175.395 116.388 174.414 116.109 173.395C115.817 172.438 115.737 171.43 115.875 170.439C116.046 169.417 116.615 168.505 117.457 167.901Z" fill="#ADD142"/>
<g style="mix-blend-mode:multiply">
<path d="M138.673 144.589H97.5835C97.5202 144.741 97.4506 144.892 97.3809 145.044C96.4126 147.114 95.3429 149.133 94.5201 151.266C93.7543 153.253 93.0011 155.582 93.5075 157.728C94.0138 159.874 95.824 161.076 97.6974 161.785C99.6628 162.425 101.678 162.899 103.723 163.203C104.179 163.291 104.628 163.393 105.077 163.513C105.489 163.601 105.889 163.739 106.267 163.924C106.811 164.222 106.83 164.76 106.843 165.317C106.867 166.347 106.958 167.374 107.115 168.393C107.335 169.412 107.829 170.351 108.546 171.108C109.012 171.643 109.41 172.234 109.729 172.868C110.017 173.483 110.262 174.117 110.463 174.766C110.66 175.394 110.895 176.009 111.166 176.608C111.489 177.263 111.904 177.869 112.4 178.406C113.07 179.309 113.935 180.049 114.932 180.57C115.151 180.671 115.391 180.715 115.632 180.698C115.872 180.68 116.104 180.601 116.305 180.469C116.739 180.145 117.049 179.683 117.185 179.159C117.384 178.241 117.327 177.287 117.02 176.399C116.742 175.387 116.388 174.406 116.109 173.387C115.817 172.43 115.737 171.421 115.875 170.431C116.051 169.409 116.624 168.499 117.47 167.899C118.176 167.406 118.956 167.028 119.78 166.779C120.209 166.46 120.66 166.17 121.128 165.912C121.511 165.623 121.939 165.399 122.394 165.247C122.519 165.237 122.641 165.199 122.75 165.137C122.86 165.075 122.954 164.989 123.027 164.886C123.192 164.569 123.256 164.209 123.21 163.855C123.189 163.514 123.232 163.173 123.337 162.848C123.457 162.628 123.637 162.446 123.856 162.323C124.346 162.016 124.883 161.789 125.445 161.652C126.646 161.356 127.866 161.145 129.097 161.019C129.761 160.931 130.426 160.817 131.097 160.722C131.926 160.613 132.748 160.457 133.559 160.253C134.938 159.886 136.66 159.285 136.995 157.722C137.088 157.129 137.118 156.529 137.084 155.931C137.068 155.286 137.164 154.643 137.369 154.032C137.61 153.444 137.975 152.915 138.439 152.481C138.646 152.278 138.818 152.04 138.945 151.779C139.098 151.405 139.192 151.01 139.223 150.608C139.477 148.57 139.059 146.582 138.673 144.589ZM125.464 158.241C124.671 158.354 123.893 158.549 123.141 158.823C122.644 158.995 122.161 159.207 121.698 159.456C120.938 160.241 120.185 161.032 119.451 161.855C118.938 162.437 118.457 163.064 117.932 163.633C117.568 164.014 117.14 164.327 116.666 164.557C116.033 164.874 115.432 165.152 114.837 165.5C114.294 165.762 113.832 166.167 113.501 166.671C113.307 167.09 113.152 167.527 113.039 167.975C112.9 168.494 112.726 169.004 112.52 169.5C112.375 169.836 112.166 170.247 111.837 170.342C111.707 170.37 111.572 170.356 111.45 170.303C111.329 170.249 111.227 170.159 111.16 170.045C110.92 169.714 110.726 169.352 110.584 168.969C110.382 168.483 110.207 167.986 110.058 167.481C109.793 166.633 109.571 165.772 109.337 164.912C109.196 164.443 108.982 163.998 108.704 163.595C108.358 163.076 107.931 162.617 107.438 162.234C106.55 161.583 105.59 161.035 104.577 160.602C104.368 160.602 104.166 160.602 103.944 160.602C103.477 160.591 103.014 160.51 102.571 160.361C102.097 160.196 101.632 160.006 101.178 159.791C100.655 159.553 100.157 159.262 99.6911 158.924C99.3041 158.679 99.01 158.311 98.8557 157.88C98.8444 157.842 98.8471 157.801 98.8634 157.765C98.8797 157.729 98.9084 157.7 98.9443 157.684C99.7936 157.324 100.713 157.16 101.634 157.203C102.463 157.203 103.292 157.203 104.122 157.076C105.065 156.975 106.02 156.842 106.944 156.823C107.37 156.793 107.797 156.832 108.21 156.937C108.606 157.064 108.985 157.24 109.337 157.462L109.824 157.76C110.736 157.582 111.641 157.329 112.539 157.089C114.119 156.667 115.726 156.356 117.35 156.158C119.046 155.943 120.805 155.937 122.413 155.31C128.318 153.057 126.179 158.133 125.464 158.241Z" fill="#ADD142"/>
</g>
<path d="M142.565 159.34C142.084 160.08 141.704 160.871 141.204 161.599C140.09 163.213 138.331 164.055 136.704 165.049C135.906 165.482 135.189 166.049 134.584 166.726C134.095 167.348 133.787 168.092 133.692 168.878C133.426 170.681 133.635 172.523 133.66 174.34C133.729 175.17 133.943 175.982 134.293 176.739C138.411 171.16 141.572 164.936 143.647 158.321C143.209 158.567 142.838 158.917 142.565 159.34Z" fill="#ADD142"/>
<g style="mix-blend-mode:multiply">
<path d="M142.565 159.34C142.084 160.08 141.704 160.871 141.204 161.599C140.09 163.213 138.331 164.055 136.704 165.049C135.906 165.482 135.189 166.049 134.584 166.726C134.095 167.348 133.787 168.092 133.692 168.878C133.426 170.681 133.635 172.523 133.66 174.34C133.729 175.17 133.943 175.982 134.293 176.739C138.411 171.16 141.572 164.936 143.647 158.321C143.209 158.567 142.838 158.917 142.565 159.34ZM140.23 165.865C139.635 167.19 138.885 168.439 137.995 169.587C137.312 170.611 136.359 171.428 135.242 171.947C135.199 171.959 135.154 171.954 135.115 171.933C135.076 171.911 135.046 171.876 135.033 171.833C134.786 171.033 134.7 170.192 134.78 169.359C134.968 168.233 135.588 167.225 136.508 166.549C137.162 166.036 137.852 165.571 138.571 165.156C139.149 164.521 139.882 164.048 140.698 163.783C140.726 163.775 140.756 163.776 140.784 163.783C140.812 163.791 140.838 163.805 140.859 163.826C140.88 163.846 140.895 163.871 140.904 163.899C140.912 163.927 140.913 163.957 140.907 163.985C140.74 164.632 140.513 165.261 140.23 165.865Z" fill="#ADD142"/>
</g>
<g style="mix-blend-mode:multiply" opacity="0.14">
<path d="M21.0443 144.589C21.0443 144.899 21.1013 145.222 21.1329 145.513C23.0937 148.001 25.4603 150.141 28.133 151.842C33.0951 155.006 38.842 156.658 44.589 157.646C50.8865 158.728 57.298 159.032 63.6779 159.253C70.0577 159.475 76.3363 159.551 82.6022 160.133C85.507 160.385 88.3955 160.8 91.2542 161.374C94.4188 162.007 97.7163 162.842 100.482 164.589C101.837 165.405 102.985 166.522 103.837 167.855C104.655 169.241 105.049 170.836 104.97 172.443C104.811 176.304 102.64 180.039 100.134 182.855C94.9505 188.697 87.0896 192.191 79.4059 193.032C72.1313 193.773 64.7828 193.202 57.7094 191.349C50.4226 189.572 43.5617 186.364 37.5256 181.912L37.0002 181.501C45.2136 190.612 55.9138 197.121 67.7816 200.224C79.6495 203.328 92.1661 202.89 103.788 198.966C115.411 195.042 125.63 187.802 133.188 178.139C140.745 168.477 145.309 156.814 146.318 144.589H21.0443Z" fill="#4E84C4"/>
</g>
<g style="mix-blend-mode:multiply" opacity="0.43">
<path d="M139.268 144.589C138.731 152.209 136.638 159.639 133.116 166.418C129.196 174.008 123.753 180.707 117.126 186.096C110.499 191.486 102.831 195.45 94.6024 197.741C85.4223 200.28 75.829 200.969 66.3804 199.767L65.6399 199.665C74.6082 202.343 84.061 202.985 93.3091 201.545C102.557 200.106 111.367 196.62 119.097 191.343C126.827 186.066 133.282 179.131 137.991 171.042C142.701 162.954 145.545 153.916 146.318 144.589H139.268Z" fill="#4E84C4"/>
</g>
<path d="M83.6845 156.343C118.304 156.343 146.369 150.843 146.369 144.058C146.369 137.274 118.304 131.773 83.6845 131.773C49.0648 131.773 21 137.274 21 144.058C21 150.843 49.0648 156.343 83.6845 156.343Z" fill="#0B6B8F"/>
<path d="M83.6845 154.288C117.077 154.288 144.147 149.624 144.147 143.87C144.147 138.117 117.077 133.452 83.6845 133.452C50.2917 133.452 23.2216 138.117 23.2216 143.87C23.2216 149.624 50.2917 154.288 83.6845 154.288Z" fill="#193456"/>
<g style="mix-blend-mode:multiply">
<path d="M122.324 141.712C112.913 139.971 103.337 139.37 93.7732 139.18C84.2098 138.99 74.7223 138.996 65.2158 139.326C56.0446 139.557 46.9023 140.454 37.861 142.009C33.1887 142.76 28.6114 144.014 24.2089 145.75C29.3482 150.604 54.0194 154.288 83.7034 154.288C110.767 154.288 133.704 151.224 141.394 146.997C135.188 144.731 128.811 142.964 122.324 141.712Z" fill="#000E2C"/>
</g>
<mask id="mask0_175_3110" style="mask-type:luminance" maskUnits="userSpaceOnUse" x="23" y="83" width="122" height="72">
<path d="M144.154 143.868C144.154 149.621 117.084 154.286 83.6845 154.286C50.2853 154.286 23.2216 149.621 23.2216 143.868C23.2216 138.115 50.2916 83 83.6592 83C117.027 83 144.154 138.108 144.154 143.868Z" fill="white"/>
</mask>
<g mask="url(#mask0_175_3110)">
<path d="M29.1709 133.2C30.2927 146.833 36.5007 159.546 46.5622 168.813C56.6237 178.081 69.8026 183.225 83.4818 183.225C97.1611 183.225 110.34 178.081 120.401 168.813C130.463 159.546 136.671 146.833 137.793 133.2H29.1709Z" fill="#6C3916"/>
<g style="mix-blend-mode:multiply" opacity="0.32">
<path d="M128.084 144.441C120.856 149.302 111.539 149.738 103.115 150.03C98.2035 150.2 93.2984 150.397 88.3806 150.403C83.275 150.403 78.1695 150.278 73.0639 150.03C63.9402 149.696 54.8396 148.895 45.7977 147.631C40.807 146.952 35.9035 145.74 31.1709 144.017C34.7368 156.216 42.4547 166.785 52.9893 173.896C63.5239 181.006 76.2125 184.211 88.8601 182.955C101.508 181.7 113.319 176.063 122.25 167.02C131.18 157.977 136.67 146.097 137.767 133.434C135.529 137.867 132.196 141.656 128.084 144.441Z" fill="#6C3916"/>
</g>
<path d="M83.4818 143.393C113.498 143.393 137.831 138.624 137.831 132.741C137.831 126.858 113.498 122.089 83.4818 122.089C53.4658 122.089 29.1329 126.858 29.1329 132.741C29.1329 138.624 53.4658 143.393 83.4818 143.393Z" fill="#9F520C"/>
<path d="M84.1338 141.273C112 141.273 134.59 137.38 134.59 132.577C134.59 127.774 112 123.88 84.1338 123.88C56.2675 123.88 33.6774 127.774 33.6774 132.577C33.6774 137.38 56.2675 141.273 84.1338 141.273Z" fill="#4F1F00"/>
<g style="mix-blend-mode:multiply">
<path d="M132.191 134.682C131.191 133.562 129.609 133.043 128.204 132.676C126.653 132.271 125.071 132.043 123.501 131.783C119.381 131.087 115.273 130.429 111.121 130.005C102.427 129.189 93.6934 128.872 84.9629 129.056C76.2792 129.15 67.5829 129.15 58.9308 129.948C53.219 130.403 47.5629 131.397 42.0382 132.916C39.9788 133.461 37.9711 134.186 36.0381 135.081L35.9115 135.138C42.2407 138.689 61.4499 141.265 84.1337 141.265C106.97 141.265 126.261 138.651 132.483 135.068C132.399 134.93 132.302 134.8 132.191 134.682Z" fill="#4F1F00"/>
</g>
<g style="mix-blend-mode:multiply" opacity="0.55">
<path d="M46.5636 143.568C46.8485 143.473 47.1966 143.309 46.7852 143.094C46.1281 142.779 45.4438 142.525 44.7408 142.334C43.956 142.087 43.1712 141.796 42.3674 141.587C41.5032 141.395 40.6282 141.256 39.7471 141.17C38.8673 141.056 37.9939 140.967 37.1268 140.91C36.7344 140.91 36.3483 140.872 35.9559 140.859C35.6603 140.827 35.3615 140.84 35.0698 140.897C34.8926 140.954 34.8293 141.03 34.8293 141.119C34.8293 141.208 34.7976 141.214 34.8736 141.277L34.9369 141.315C35.1504 141.506 35.3915 141.664 35.6521 141.783C36.3425 142.091 37.053 142.351 37.7787 142.562C38.5952 142.828 39.361 143.195 40.1775 143.435C40.6187 143.578 41.0721 143.679 41.5319 143.739C42.0707 143.787 42.6122 143.795 43.1522 143.765C44.1712 143.765 45.5446 143.878 46.4307 143.606L46.5636 143.568Z" fill="#6C3916"/>
<path d="M49.4814 145.776C49.1762 145.523 48.8262 145.33 48.4497 145.206C48.0665 145.097 47.6709 145.037 47.2725 145.029C46.8649 145.016 46.4569 145.029 46.0509 145.067C45.722 145.043 45.3913 145.069 45.0699 145.143C44.7441 145.11 44.4162 145.181 44.1332 145.346C43.9813 145.396 43.8864 145.497 44.0383 145.611C45.5104 146.518 47.2453 146.901 48.9624 146.7C49.3042 146.662 49.7978 146.586 49.9434 146.377C50.089 146.168 49.6966 145.94 49.4814 145.776Z" fill="#6C3916"/>
<path d="M53.6016 143.814C53.6586 143.814 53.6966 143.7 53.6396 143.649C52.8799 143.068 51.9509 142.75 50.994 142.744C50.6419 142.725 50.2891 142.725 49.937 142.744C49.6323 142.734 49.3332 142.828 49.0889 143.01C48.9244 143.232 49.3041 143.447 49.5953 143.567C49.8139 143.666 50.0404 143.746 50.2725 143.808C50.5053 143.866 50.7423 143.906 50.9814 143.928L51.3864 144.035C52.1263 144.245 52.9179 144.165 53.6016 143.814Z" fill="#6C3916"/>
<path d="M54.3612 147.135C54.1615 146.944 53.897 146.835 53.6207 146.831H53.3548C53.0916 146.761 52.8143 146.761 52.551 146.831C52.3422 146.92 52.2789 147.141 52.551 147.268C52.8181 147.378 53.1041 147.434 53.3928 147.433C53.5551 147.442 53.7179 147.442 53.8802 147.433C53.9977 147.424 54.1143 147.405 54.2283 147.376C54.3295 147.319 54.4245 147.243 54.3612 147.135Z" fill="#6C3916"/>
<path d="M33.3482 138.696C33.0824 138.595 32.8039 138.513 32.5254 138.431H32.4874H32.4368C32.0844 138.293 31.7071 138.231 31.3292 138.247C31.0994 138.235 30.8691 138.235 30.6393 138.247C30.3988 138.247 30.1899 138.317 30.2469 138.481C30.3039 138.646 30.5254 138.747 30.7153 138.829C30.9201 138.927 31.1316 139.009 31.3482 139.076C31.9904 139.351 32.6814 139.493 33.3799 139.494C33.633 139.494 33.9685 139.367 33.9305 139.158C33.8925 138.95 33.5824 138.76 33.3482 138.696Z" fill="#6C3916"/>
<path d="M37.1647 144.076C36.8989 143.975 36.6204 143.893 36.3483 143.81H36.304H36.2533C35.901 143.672 35.5237 143.61 35.1457 143.627C34.918 143.615 34.6898 143.615 34.4622 143.627C34.2217 143.627 34.0128 143.697 34.0634 143.861C34.1141 144.026 34.3482 144.127 34.5318 144.209C34.7366 144.306 34.9481 144.389 35.1647 144.456C35.8069 144.731 36.4979 144.873 37.1964 144.874C37.4495 144.874 37.7913 144.747 37.747 144.538C37.7027 144.329 37.3989 144.171 37.1647 144.076Z" fill="#6C3916"/>
<path d="M30.614 140.751C30.6801 140.801 30.7553 140.837 30.8355 140.858C31.0046 140.893 31.1791 140.893 31.3482 140.858C31.4094 140.85 31.4667 140.824 31.5127 140.782C31.5261 140.766 31.5335 140.746 31.5335 140.725C31.5335 140.705 31.5261 140.684 31.5127 140.668C31.4189 140.563 31.2954 140.488 31.1583 140.453C31.0722 140.441 30.9849 140.441 30.8988 140.453C30.8316 140.444 30.7634 140.444 30.6963 140.453H30.6646H30.576C30.5317 140.453 30.4747 140.498 30.4874 140.542C30.4925 140.584 30.5064 140.624 30.5283 140.66C30.5501 140.696 30.5793 140.727 30.614 140.751Z" fill="#6C3916"/>
<path d="M72.0577 148.019C72.3172 148.171 72.6147 148.411 72.1716 148.531C71.4528 148.695 70.7189 148.784 69.9817 148.797C69.1462 148.841 68.2981 148.962 67.45 148.936C66.5474 148.886 65.649 148.778 64.7601 148.614C63.8774 148.483 63.0026 148.303 62.1398 148.076C61.7516 147.974 61.3719 147.867 61.0006 147.753C60.7068 147.687 60.4249 147.576 60.1651 147.424C60.0132 147.31 59.9816 147.221 60.0069 147.139C60.0322 147.057 60.0069 147.031 60.1018 147.006H60.1778C60.4421 146.895 60.7216 146.825 61.0069 146.797C61.7621 146.726 62.521 146.703 63.2791 146.727C64.1335 146.727 64.9626 146.595 65.8108 146.582C66.2741 146.566 66.738 146.592 67.1969 146.658C67.7285 146.74 68.2412 146.905 68.7475 147.031C69.8334 147.221 70.8947 147.531 71.9121 147.955L72.0577 148.019Z" fill="#6C3916"/>
<path d="M76.6527 146.241C76.424 146.37 76.1726 146.454 75.9122 146.488C75.6477 146.505 75.382 146.49 75.1211 146.443C74.8556 146.397 74.5934 146.334 74.3362 146.254C74.117 146.219 73.9039 146.152 73.7033 146.057C73.4691 146 73.2096 145.918 73.1337 145.785C73.0577 145.652 73.0008 145.652 73.1337 145.602C73.6916 145.402 74.2818 145.307 74.8742 145.323C75.4046 145.316 75.9325 145.395 76.4375 145.557C76.6527 145.627 76.9629 145.741 77.0704 145.893C77.178 146.045 76.811 146.159 76.6527 146.241Z" fill="#6C3916"/>
<path d="M81.3174 149.604C81.368 149.642 81.3996 149.731 81.3174 149.769C80.4646 150.23 79.4855 150.404 78.5262 150.263C78.1716 150.224 77.8204 150.158 77.4755 150.067C77.1654 149.984 76.7856 149.851 76.678 149.642C76.5705 149.434 76.9692 149.256 77.311 149.193C77.7825 149.09 78.2656 149.05 78.7477 149.073C78.8869 149.073 79.0199 149.073 79.1591 149.035C79.9246 148.945 80.6957 149.149 81.3174 149.604Z" fill="#6C3916"/>
<path d="M82.8552 148.447C82.6364 148.618 82.3588 148.695 82.0831 148.662H81.8172C81.5467 148.683 81.2756 148.63 81.0324 148.51C80.8362 148.39 80.8109 148.162 81.083 148.073C81.365 148.016 81.6555 148.016 81.9375 148.073C82.0973 148.09 82.2559 148.118 82.4122 148.156C82.5289 148.176 82.6434 148.208 82.754 148.25C82.8489 148.263 82.9375 148.345 82.8552 148.447Z" fill="#6C3916"/>
<path d="M58.4942 146.22C58.279 146.251 58.0574 146.264 57.8296 146.277H57.76C57.4579 146.313 57.1517 146.285 56.8612 146.194C56.627 146.125 55.9372 145.992 56.0321 145.77C56.0827 145.669 56.2663 145.631 56.4182 145.606C56.5901 145.579 56.7634 145.562 56.9372 145.555C57.4771 145.476 58.0273 145.501 58.5575 145.631C58.7537 145.701 59.0195 145.84 58.9815 145.992C58.9435 146.144 58.684 146.194 58.4942 146.22Z" fill="#6C3916"/>
<path d="M58.0954 148.856C58.1793 148.843 58.2647 148.843 58.3486 148.856C58.5237 148.877 58.6933 148.931 58.8486 149.014C58.9042 149.043 58.9504 149.087 58.9815 149.141C58.9938 149.157 59.0005 149.177 59.0005 149.198C59.0005 149.219 58.9938 149.239 58.9815 149.255C58.8544 149.325 58.7069 149.35 58.5638 149.325C58.4745 149.317 58.387 149.296 58.3043 149.261C58.2424 149.233 58.1831 149.199 58.1271 149.16L58.0448 149.116C58.0068 149.116 57.9688 149.033 57.9942 149.002C58.0116 148.944 58.047 148.893 58.0954 148.856Z" fill="#6C3916"/>
<path d="M103.621 145.024C103.875 144.859 104.153 144.606 103.704 144.505C103.353 144.436 102.998 144.394 102.64 144.378C102.273 144.378 101.9 144.334 101.533 144.328C100.71 144.328 99.8745 144.22 99.0454 144.245C98.1608 144.306 97.2799 144.412 96.4061 144.562C95.5264 144.682 94.6593 144.834 93.8111 145.03C93.4251 145.112 93.0453 145.214 92.6719 145.315C92.3759 145.365 92.0897 145.461 91.8238 145.6C91.6719 145.701 91.6339 145.79 91.6592 145.872C91.6845 145.954 91.6592 145.98 91.7415 146.011H91.8174C92.0757 146.135 92.3508 146.22 92.6339 146.264C93.3834 146.359 94.1381 146.405 94.8934 146.404C95.7542 146.442 96.577 146.568 97.4251 146.606C97.8889 146.621 98.3531 146.591 98.8112 146.518C99.336 146.417 99.8539 146.284 100.362 146.119C101.337 145.834 102.691 145.6 103.47 145.093L103.621 145.024Z" fill="#6C3916"/>
<path d="M107.71 147.748C107.347 147.589 106.96 147.494 106.565 147.469C106.165 147.469 105.767 147.52 105.381 147.621C104.983 147.719 104.591 147.844 104.21 147.995C103.886 148.06 103.575 148.176 103.286 148.336C102.938 148.438 102.552 148.583 102.444 148.786C102.305 148.881 102.248 149.001 102.444 149.071C103.31 149.326 104.216 149.417 105.115 149.336C105.926 149.287 106.724 149.105 107.476 148.798C107.792 148.678 108.248 148.457 108.337 148.216C108.425 147.976 107.982 147.849 107.71 147.748Z" fill="#6C3916"/>
<path d="M113.666 143.834C113.71 143.79 113.729 143.701 113.666 143.67C112.778 143.315 111.798 143.257 110.875 143.505C110.531 143.59 110.193 143.695 109.862 143.822C109.571 143.936 109.229 144.081 109.115 144.303C109.001 144.524 109.438 144.67 109.748 144.708C110.224 144.765 110.707 144.75 111.179 144.663C111.318 144.663 111.451 144.663 111.59 144.663C112.363 144.664 113.106 144.367 113.666 143.834Z" fill="#6C3916"/>
<path d="M113.039 146.789C112.797 146.652 112.512 146.614 112.242 146.681L111.982 146.732H111.951C111.678 146.746 111.414 146.831 111.185 146.979C111.008 147.118 111.014 147.352 111.292 147.403C111.581 147.436 111.874 147.413 112.153 147.333C112.311 147.295 112.47 147.251 112.615 147.2C112.727 147.162 112.835 147.113 112.938 147.054C113.058 146.972 113.134 146.871 113.039 146.789Z" fill="#6C3916"/>
<path d="M90.0516 148.262C89.6116 148.227 89.1701 148.214 88.7288 148.224H88.6592H88.5769C87.9978 148.186 87.4169 148.263 86.868 148.452C86.4313 148.597 85.1338 148.882 85.4249 149.306C85.5579 149.496 85.9439 149.566 86.2477 149.604C86.5987 149.644 86.9515 149.665 87.3047 149.667C88.3689 149.78 89.4448 149.679 90.4693 149.369C90.8301 149.218 91.2858 148.933 91.1339 148.642C90.982 148.35 90.4377 148.3 90.0516 148.262Z" fill="#6C3916"/>
<path d="M88.425 147.097C88.5025 147.123 88.5838 147.136 88.6655 147.135C88.8406 147.129 89.0127 147.088 89.1719 147.015C89.2281 146.991 89.2764 146.951 89.3111 146.901C89.3245 146.885 89.3318 146.865 89.3318 146.844C89.3318 146.823 89.3245 146.803 89.3111 146.787C89.1912 146.708 89.0491 146.67 88.906 146.679C88.8195 146.683 88.734 146.7 88.6529 146.73C88.5877 146.75 88.5259 146.78 88.4693 146.818L88.387 146.856C88.3491 146.856 88.3048 146.932 88.3301 146.97C88.3478 147.021 88.381 147.066 88.425 147.097Z" fill="#6C3916"/>
<path d="M131.546 143.707C131.837 143.783 132.179 143.922 131.793 144.169C131.149 144.531 130.47 144.828 129.767 145.055C128.976 145.315 128.185 145.637 127.369 145.853C126.489 146.058 125.597 146.203 124.698 146.289C123.811 146.4 122.92 146.462 122.027 146.473C121.628 146.473 121.236 146.473 120.837 146.473C120.536 146.488 120.235 146.456 119.944 146.378C119.774 146.315 119.71 146.232 119.723 146.15C119.736 146.068 119.723 146.049 119.774 145.992L119.843 145.954C120.069 145.778 120.318 145.636 120.584 145.53C121.292 145.26 122.017 145.036 122.755 144.859C123.166 144.739 123.565 144.606 123.957 144.46C124.35 144.315 124.748 144.156 125.16 144.023C125.599 143.881 126.05 143.778 126.508 143.713C127.036 143.663 127.566 143.644 128.096 143.656C128.609 143.656 129.21 143.618 129.786 143.593C130.321 143.554 130.859 143.581 131.388 143.675L131.546 143.707Z" fill="#6C3916"/>
<path d="M135.407 141.469C135.226 141.652 135.011 141.798 134.774 141.899C134.525 141.991 134.266 142.048 134.002 142.07C133.732 142.086 133.461 142.086 133.192 142.07C132.982 142.1 132.769 142.1 132.559 142.07C132.318 142.07 132.046 142.07 131.926 141.975C131.805 141.88 131.761 141.887 131.856 141.805C132.332 141.452 132.871 141.194 133.445 141.045C133.956 140.896 134.489 140.831 135.021 140.855C135.249 140.855 135.578 140.855 135.654 141.013C135.73 141.172 135.559 141.349 135.407 141.469Z" fill="#6C3916"/>
<path d="M129.002 140.597C129.058 140.597 129.109 140.698 129.058 140.755C128.376 141.442 127.486 141.887 126.527 142.021C126.173 142.078 125.816 142.114 125.457 142.128C125.141 142.128 124.742 142.128 124.577 141.957C124.413 141.786 124.755 141.508 125.033 141.324C125.235 141.203 125.447 141.1 125.666 141.014C125.89 140.926 126.121 140.856 126.356 140.805L126.742 140.647C127.462 140.345 128.269 140.327 129.002 140.597Z" fill="#6C3916"/>
<path d="M135.736 138.096C135.654 138.293 135.312 138.438 135.046 138.508L134.786 138.558H134.755C134.501 138.655 134.224 138.679 133.957 138.628C133.736 138.571 133.647 138.356 133.888 138.198C134.136 138.054 134.412 137.963 134.698 137.932C134.857 137.903 135.018 137.884 135.179 137.875C135.295 137.862 135.411 137.862 135.527 137.875C135.673 137.919 135.78 137.982 135.736 138.096Z" fill="#6C3916"/>
<path d="M117.951 145.657C117.744 145.743 117.533 145.816 117.318 145.879H117.286H117.248C116.969 145.992 116.669 146.044 116.368 146.031C116.115 146.031 115.419 146.081 115.451 145.841C115.451 145.733 115.641 145.644 115.774 145.581C115.906 145.518 116.096 145.455 116.267 145.398C116.762 145.174 117.295 145.047 117.837 145.024C118.052 145.024 118.343 145.106 118.35 145.258C118.356 145.41 118.128 145.556 117.951 145.657Z" fill="#6C3916"/>
<path d="M117.103 147.427C117.176 147.388 117.255 147.36 117.337 147.345C117.512 147.31 117.693 147.31 117.868 147.345C117.928 147.36 117.983 147.391 118.027 147.434C118.041 147.449 118.049 147.469 118.049 147.491C118.049 147.512 118.041 147.532 118.027 147.548C117.925 147.65 117.791 147.715 117.647 147.731C117.559 147.744 117.469 147.744 117.381 147.731C117.312 147.723 117.244 147.706 117.178 147.681H117.147H117.052C117.014 147.681 116.957 147.617 116.976 147.579C116.986 147.547 117.002 147.517 117.024 147.49C117.046 147.464 117.072 147.443 117.103 147.427Z" fill="#6C3916"/>
</g>
<mask id="mask1_175_3110" style="mask-type:luminance" maskUnits="userSpaceOnUse" x="32" y="104" width="103" height="38">
<path d="M134.59 132.574C134.59 137.371 112.001 141.264 84.1338 141.264C56.2663 141.264 33.6584 137.371 33.6584 132.574C33.6584 130.32 30.3608 122.662 38.5065 116.567C47.7345 109.668 69.3171 104.409 84.1148 104.409C104.526 104.409 122.09 110.902 130.052 119.498C132.976 122.637 134.59 131.289 134.59 132.574Z" fill="white"/>
</mask>
<g mask="url(#mask1_175_3110)">
<path d="M36.9242 122.813C37.8884 134.498 43.2113 145.393 51.8361 153.336C60.461 161.278 71.7571 165.687 83.4819 165.687C95.2066 165.687 106.503 161.278 115.128 153.336C123.752 145.393 129.075 134.498 130.04 122.813H36.9242Z" fill="#E63E22"/>
<g style="mix-blend-mode:screen">
<path d="M37.0761 123.501C38.4242 125.836 41.3483 126.976 43.7787 127.767C45.0952 128.191 46.437 128.539 47.7851 128.862C49.2851 129.223 50.7788 129.609 52.2852 129.931C56.87 130.814 61.5133 131.36 66.1778 131.564C70.6082 131.836 75.0387 132.083 79.4691 132.261C88.2541 132.615 97.096 132.647 105.83 131.545C110.113 130.977 114.354 130.132 118.527 129.014C122.508 127.969 126.47 126.697 129.919 124.355C129.976 123.843 130.027 123.324 130.071 122.805H36.9242C36.9242 122.963 36.9558 123.121 36.9685 123.279L37.0761 123.501Z" fill="#E63E22"/>
</g>
<g style="mix-blend-mode:multiply">
<path d="M124.077 122.813C123.251 124.759 122.22 126.611 121.001 128.338C119.361 130.709 117.228 132.698 114.748 134.168C111.659 135.94 108.033 136.832 104.558 137.433C100.815 138.036 97.0327 138.368 93.2415 138.427C89.1275 138.528 85.0135 138.49 80.8932 138.389C72.2005 138.222 63.5223 137.607 54.8928 136.547C49.3547 135.839 43.785 134.661 38.7217 132.364C41.8402 142.797 48.5053 151.812 57.5651 157.853C66.6249 163.894 77.5103 166.58 88.3402 165.447C99.1701 164.314 109.264 159.434 116.878 151.65C124.492 143.865 129.147 133.665 130.04 122.813H124.077Z" fill="#E63E22"/>
</g>
<path d="M83.4819 131.546C109.212 131.546 130.071 127.457 130.071 122.413C130.071 117.369 109.212 113.28 83.4819 113.28C57.7513 113.28 36.8926 117.369 36.8926 122.413C36.8926 127.457 57.7513 131.546 83.4819 131.546Z" fill="#C23A1F"/>
<g style="mix-blend-mode:multiply" opacity="0.37">
<path d="M84.216 129.83C105.039 129.83 121.919 126.585 121.919 122.583C121.919 118.581 105.039 115.336 84.216 115.336C63.3932 115.336 46.5129 118.581 46.5129 122.583C46.5129 126.585 63.3932 129.83 84.216 129.83Z" fill="#892713"/>
</g>
<path d="M84.0388 129.052C104.044 129.052 120.261 126.258 120.261 122.811C120.261 119.365 104.044 116.571 84.0388 116.571C64.0339 116.571 47.8168 119.365 47.8168 122.811C47.8168 126.258 64.0339 129.052 84.0388 129.052Z" fill="#763611"/>
<g style="mix-blend-mode:multiply">
<path d="M104.596 122.158C98.9037 121.537 93.1829 121.211 87.4567 121.183C81.5515 121.108 75.64 121.24 69.7349 121.728C67.2032 121.943 64.6715 122.259 62.1778 122.557C60.5765 122.747 58.9689 122.93 57.3739 123.19C55.5711 123.449 53.7958 123.873 52.0701 124.456C51.5083 124.65 50.9606 124.883 50.4308 125.152C55.7916 127.443 68.8171 129.063 84.0389 129.063C100.077 129.063 113.679 127.266 118.444 124.778C113.895 123.583 109.268 122.707 104.596 122.158Z" fill="#763611"/>
</g>
<g style="mix-blend-mode:multiply">
<path d="M46.2725 130.178C45.7218 129.937 45.0573 129.71 44.437 129.488C43.8167 129.267 43.0319 128.963 42.3167 128.722C41.6015 128.482 40.7724 128.235 40.0066 128.001L38.1078 127.425C38.1648 127.646 38.2154 127.868 38.2723 128.089L38.3989 128.14C39.1141 128.431 39.7914 128.773 40.5192 129.02C40.9116 129.165 41.304 129.305 41.7091 129.425C42.1142 129.545 42.6458 129.653 43.1015 129.76C44.0434 130.002 44.9987 130.188 45.9623 130.317H46.0953C46.3484 130.343 46.6396 130.336 46.2725 130.178Z" fill="#E63E22"/>
<path d="M49.4243 135.193C49.5952 135.193 49.7978 135.148 49.5509 135.028C49.1402 134.841 48.7173 134.683 48.2851 134.553C47.7977 134.389 47.323 134.205 46.8294 134.047C46.3357 133.889 45.7661 133.769 45.2344 133.642C44.7028 133.515 44.1711 133.389 43.6458 133.287L42.9432 133.155C42.7686 133.115 42.5906 133.091 42.4116 133.085C42.3103 133.085 42.2723 133.085 42.2723 133.148C42.2723 133.212 42.2723 133.186 42.2723 133.212H42.3166C42.4552 133.307 42.6013 133.392 42.7534 133.465C43.1648 133.661 43.6205 133.806 44.0572 133.971C44.4939 134.136 45.0192 134.363 45.5192 134.534C45.7882 134.632 46.063 134.712 46.342 134.775C46.6648 134.851 46.9749 134.895 47.3041 134.939C47.9556 135.066 48.6157 135.144 49.2788 135.174L49.4243 135.193Z" fill="#E63E22"/>
<path d="M52.8611 132.395C52.9624 132.395 53.0763 132.344 52.9371 132.268C52.7118 132.164 52.4791 132.078 52.2409 132.009C51.9751 131.914 51.7092 131.806 51.4371 131.73C51.1408 131.654 50.8408 131.592 50.5383 131.547C50.2409 131.49 49.9434 131.452 49.6459 131.414L49.2472 131.369C49.1484 131.357 49.0485 131.357 48.9497 131.369C48.8948 131.369 48.8695 131.388 48.8737 131.426C48.8737 131.426 48.8737 131.426 48.8737 131.471C48.9506 131.528 49.0333 131.577 49.1206 131.616C49.3484 131.717 49.6016 131.8 49.8484 131.882C50.0953 131.964 50.3864 132.084 50.6649 132.173C50.8143 132.222 50.9665 132.262 51.1206 132.293C51.3042 132.293 51.4877 132.331 51.6649 132.35C52.0312 132.407 52.4026 132.424 52.7725 132.401L52.8611 132.395Z" fill="#E63E22"/>
<path d="M53.0384 133.774C53.0891 133.774 53.146 133.774 53.0764 133.717C52.965 133.661 52.8484 133.617 52.7283 133.584C52.5891 133.54 52.4561 133.489 52.3169 133.451C52.1777 133.413 52.0131 133.388 51.8612 133.362C51.7093 133.337 51.5637 133.312 51.4118 133.299H51.2093C51.1588 133.293 51.1078 133.293 51.0574 133.299H51.0194C51.0578 133.329 51.1005 133.352 51.146 133.369C51.2656 133.418 51.3882 133.461 51.5131 133.495L51.9245 133.647C52.0008 133.673 52.0791 133.692 52.1587 133.704H52.4308C52.6162 133.72 52.8025 133.72 52.9878 133.704L53.0384 133.774Z" fill="#E63E22"/>
<path d="M41.6838 131.411H41.6395H41.5699C41.5112 131.421 41.4514 131.421 41.3927 131.411H41.3167L41.2535 131.379C41.2162 131.356 41.1856 131.323 41.1648 131.285C41.1582 131.267 41.1584 131.247 41.1655 131.23C41.1725 131.212 41.1858 131.198 41.2028 131.19C41.2627 131.156 41.3303 131.138 41.399 131.139C41.4388 131.132 41.4795 131.132 41.5193 131.139C41.5592 131.133 41.5997 131.133 41.6395 131.139L41.7092 131.19C41.7125 131.197 41.7143 131.204 41.7143 131.212C41.7143 131.219 41.7125 131.227 41.7092 131.234C41.7092 131.234 41.7155 131.405 41.6838 131.411Z" fill="#E63E22"/>
<path d="M54.4182 133.252V133.29H54.3738H54.3169C54.2917 133.293 54.2662 133.293 54.2409 133.29H54.1776C54.1672 133.292 54.1564 133.292 54.146 133.29V133.252H54.1966H54.2473H54.3042H54.3422H54.3802C54.3925 133.247 54.4059 133.247 54.4182 133.252Z" fill="#E63E22"/>
<path d="M61.1587 136.152C60.3742 135.883 59.5672 135.684 58.7473 135.557L57.4055 135.31C56.8492 135.181 56.2846 135.09 55.7156 135.038H55.6017C55.4563 135.002 55.3041 135.002 55.1587 135.038C55.1017 135.038 55.0637 135.083 55.1587 135.127C55.5034 135.287 55.8641 135.41 56.2346 135.494C56.7916 135.64 57.3739 135.779 57.9562 135.88C58.9737 136.102 60.01 136.227 61.0511 136.253C61.1461 136.26 61.2917 136.216 61.1587 136.152Z" fill="#E63E22"/>
<path d="M67.5322 134.215C67.7791 134.215 68.0702 134.139 67.6778 134.038C67.0955 133.899 66.4119 133.753 65.779 133.633L63.5511 133.209C62.7473 133.063 61.9372 132.968 61.1334 132.867C60.3296 132.766 59.5384 132.645 58.7536 132.563L57.703 132.449C57.4429 132.412 57.1808 132.391 56.9181 132.386C56.7662 132.386 56.7219 132.386 56.7346 132.456C56.7472 132.525 56.7346 132.456 56.7979 132.519H56.8612C57.0384 132.601 57.3485 132.702 57.5574 132.772C58.1903 132.949 58.8928 133.089 59.5637 133.24C60.2346 133.392 61.0511 133.608 61.8169 133.759C62.2283 133.842 62.6461 133.918 63.0828 133.968C63.5595 134.03 64.039 134.068 64.5195 134.082C65.4936 134.173 66.4717 134.213 67.4499 134.202L67.5322 134.215Z" fill="#E63E22"/>
<path d="M76.8742 137.076C77.0387 137.032 77.2349 136.962 76.9691 136.893C76.5352 136.79 76.0956 136.711 75.6526 136.659L74.1653 136.443C73.621 136.38 73.0703 136.361 72.526 136.342C71.9817 136.323 71.4374 136.342 70.9057 136.342H70.1589C69.9788 136.338 69.7986 136.35 69.6209 136.38C69.526 136.38 69.4943 136.431 69.5007 136.469C69.507 136.507 69.5007 136.507 69.545 136.526H69.5893C69.744 136.596 69.9051 136.651 70.0703 136.69C70.5209 136.799 70.9773 136.881 71.4374 136.937C71.9564 137.013 72.4564 137.127 72.9754 137.203C73.2562 137.248 73.5394 137.278 73.8235 137.292C74.159 137.292 74.4564 137.292 74.7982 137.292C75.4612 137.286 76.1231 137.235 76.7792 137.14L76.8742 137.076Z" fill="#E63E22"/>
<path d="M80.8679 135.481C80.9629 135.443 81.0705 135.392 80.9186 135.348C80.6802 135.283 80.4367 135.239 80.1907 135.215C79.9059 135.177 79.6274 135.126 79.3426 135.107C79.0578 135.088 78.7097 135.107 78.4249 135.107C78.1401 135.107 77.7919 135.107 77.5261 135.107H77.1274C77.0267 135.113 76.9269 135.13 76.8299 135.158C76.7729 135.158 76.7603 135.202 76.7666 135.228C76.7729 135.253 76.7666 135.228 76.7666 135.266C76.8534 135.307 76.9447 135.339 77.0388 135.36C77.2916 135.416 77.5472 135.459 77.8046 135.487C78.0958 135.525 78.3679 135.595 78.659 135.633C78.817 135.645 78.9758 135.645 79.1337 135.633C79.3173 135.633 79.4945 135.633 79.6717 135.582C80.0547 135.595 80.4381 135.574 80.8173 135.519L80.8679 135.481Z" fill="#E63E22"/>
<path d="M80.9502 137.418C80.9945 137.418 81.0515 137.374 80.9502 137.349C80.8297 137.318 80.707 137.297 80.5831 137.286C80.4375 137.286 80.2983 137.241 80.1527 137.229C79.9989 137.219 79.8445 137.219 79.6907 137.229H79.235H79.0324C78.9842 137.221 78.9351 137.221 78.8869 137.229C78.9298 137.247 78.9743 137.262 79.0198 137.273C79.1464 137.273 79.2793 137.311 79.4059 137.323L79.8426 137.387C79.9205 137.393 79.9988 137.393 80.0768 137.387C80.1674 137.393 80.2583 137.393 80.3489 137.387C80.5368 137.377 80.7233 137.35 80.9059 137.305L80.9502 137.418Z" fill="#E63E22"/>
<path d="M67.7348 137.798C67.4993 137.898 67.2425 137.937 66.988 137.912C66.5024 137.885 66.0186 137.832 65.5386 137.754C65.2348 137.703 64.9056 137.646 64.6461 137.57C64.3866 137.494 64.1525 137.412 64.0702 137.235C64.0702 137.165 64.1778 137.096 64.2664 137.083C64.6478 137.029 65.0334 137.01 65.4183 137.026C65.7119 137.038 66.0029 137.085 66.2854 137.165H66.431C66.6905 137.165 66.9563 137.235 67.2095 137.286C67.4053 137.312 67.5955 137.369 67.7728 137.456C67.9373 137.577 67.8804 137.716 67.7348 137.798Z" fill="#E63E22"/>
<path d="M70.4817 137.42H70.431L70.3741 137.464C70.3177 137.487 70.2577 137.5 70.1969 137.502H70.1209H70.0513C70.0116 137.486 69.9768 137.46 69.95 137.426C69.9433 137.421 69.9379 137.413 69.9342 137.405C69.9305 137.397 69.9286 137.388 69.9286 137.379C69.9286 137.37 69.9305 137.361 69.9342 137.353C69.9379 137.345 69.9433 137.337 69.95 137.332C70.0005 137.284 70.0647 137.253 70.1336 137.243C70.1713 137.237 70.2098 137.237 70.2475 137.243C70.2894 137.236 70.3321 137.236 70.3741 137.243C70.3992 137.238 70.4249 137.238 70.45 137.243C70.4657 137.252 70.4788 137.265 70.488 137.281C70.488 137.281 70.507 137.382 70.4817 137.42Z" fill="#E63E22"/>
<path d="M82.2034 136.675C82.2082 136.689 82.2082 136.705 82.2034 136.719H82.1591C82.1424 136.723 82.1251 136.723 82.1084 136.719H82.0135H81.9502H81.9122C81.9122 136.719 81.9122 136.719 81.9122 136.681C81.9122 136.681 81.9439 136.681 81.9629 136.681H82.0072H82.1717C82.1762 136.678 82.1814 136.676 82.1868 136.675C82.1923 136.674 82.198 136.674 82.2034 136.675Z" fill="#E63E22"/>
<path d="M79.9755 138.687C79.4986 138.56 79.0068 138.499 78.5134 138.503L77.7033 138.459C77.3644 138.428 77.0232 138.428 76.6843 138.459H76.6147C76.4881 138.459 76.3805 138.497 76.3615 138.535C76.3425 138.573 76.3045 138.579 76.3615 138.598C76.5642 138.68 76.7772 138.733 76.9944 138.757C77.3299 138.807 77.6906 138.839 78.0324 138.858C78.6508 138.912 79.2736 138.891 79.8869 138.795C79.9818 138.776 80.0641 138.731 79.9755 138.687Z" fill="#E63E22"/>
<path d="M94.7289 134.572C94.9694 134.503 95.2416 134.395 94.8428 134.37C94.2099 134.338 93.539 134.319 92.8808 134.325C92.2226 134.332 91.3808 134.325 90.6213 134.325C89.8618 134.325 88.9947 134.376 88.1972 134.42C87.3997 134.465 86.5959 134.522 85.8111 134.56L84.7604 134.629C84.4991 134.639 84.2388 134.669 83.9819 134.718C83.8364 134.718 83.792 134.781 83.811 134.813C83.83 134.844 83.811 134.851 83.887 134.87H83.9503C84.1924 134.925 84.4375 134.965 84.6845 134.99C85.3174 135.053 86.0452 135.098 86.7288 135.104L89.0263 135.199C89.444 135.199 89.8681 135.199 90.2921 135.199C90.7162 135.199 91.2542 135.091 91.7225 135.034C92.6912 134.949 93.6546 134.811 94.6087 134.623L94.7289 134.572Z" fill="#E63E22"/>
<path d="M98.3491 137.177C98.5074 137.113 98.6909 137.018 98.4188 136.98C97.9748 136.94 97.5289 136.925 97.0833 136.936C96.5706 136.936 96.058 136.936 95.5453 136.936C95.0326 136.936 94.444 137.037 93.906 137.082C93.3681 137.126 92.8237 137.196 92.2921 137.272L91.5832 137.386C91.4046 137.409 91.2287 137.449 91.0579 137.506C90.963 137.544 90.9376 137.582 90.9503 137.613C90.963 137.645 90.9503 137.651 91.0009 137.664H91.0452C91.2087 137.708 91.3762 137.736 91.5452 137.746C91.9946 137.791 92.4756 137.784 92.9377 137.791C93.3997 137.797 93.9757 137.841 94.501 137.848C94.7865 137.846 95.0718 137.83 95.3554 137.797C95.6845 137.753 95.9883 137.683 96.3175 137.62C96.9742 137.524 97.6235 137.382 98.2605 137.196L98.3491 137.177Z" fill="#E63E22"/>
<path d="M101.786 135.355C101.874 135.311 101.969 135.241 101.786 135.216C101.537 135.194 101.287 135.194 101.039 135.216C100.761 135.216 100.476 135.216 100.191 135.216C99.9061 135.216 99.558 135.298 99.2858 135.349C99.0137 135.4 98.6909 135.463 98.3998 135.52L98.0073 135.609C97.9085 135.624 97.8125 135.654 97.7225 135.697C97.6719 135.697 97.6592 135.754 97.6656 135.773C97.6719 135.792 97.6656 135.773 97.6656 135.811C97.7564 135.838 97.8497 135.855 97.9441 135.862C98.2033 135.878 98.4633 135.878 98.7225 135.862C99.0137 135.862 99.2922 135.862 99.5896 135.862C99.7465 135.856 99.9029 135.841 100.058 135.817C100.242 135.817 100.412 135.729 100.583 135.684C100.949 135.611 101.307 135.505 101.653 135.368L101.786 135.355Z" fill="#E63E22"/>
<path d="M102.406 136.61C102.451 136.61 102.501 136.553 102.406 136.54C102.28 136.527 102.153 136.527 102.027 136.54H101.596C101.444 136.54 101.292 136.578 101.14 136.603C100.989 136.629 100.843 136.66 100.697 136.698L100.501 136.749C100.45 136.758 100.401 136.775 100.356 136.8C100.356 136.8 100.356 136.8 100.356 136.838C100.402 136.844 100.449 136.844 100.495 136.838C100.621 136.838 100.761 136.838 100.887 136.838H101.324H101.564C101.654 136.822 101.743 136.801 101.83 136.774C102.014 136.737 102.194 136.684 102.368 136.616L102.406 136.61Z" fill="#E63E22"/>
<path d="M87.7035 139.177C87.4806 139.303 87.2315 139.377 86.9756 139.392C86.49 139.442 86.0011 139.455 85.5135 139.43C85.2107 139.426 84.9084 139.402 84.6085 139.36C84.368 139.322 84.0958 139.271 83.9755 139.107C83.9249 139.037 84.0642 138.949 84.1401 138.923C84.5128 138.822 84.8943 138.756 85.2794 138.727C85.5718 138.695 85.8667 138.695 86.1591 138.727H86.311C86.5705 138.727 86.8363 138.727 87.0958 138.727C87.2942 138.722 87.4917 138.754 87.6781 138.822C87.8743 138.93 87.8364 139.075 87.7035 139.177Z" fill="#E63E22"/>
<path d="M90.9186 138.159H90.8743L90.8174 138.21C90.7676 138.242 90.7115 138.263 90.6528 138.273H90.5072C90.464 138.267 90.4239 138.247 90.3933 138.216C90.3933 138.216 90.3933 138.146 90.3933 138.115C90.4378 138.063 90.4944 138.024 90.5579 138.001H90.6781C90.7201 137.994 90.7628 137.994 90.8047 138.001H90.887C90.8993 137.997 90.9126 137.997 90.925 138.001C90.925 138.001 90.944 138.14 90.9186 138.159Z" fill="#E63E22"/>
<path d="M103.533 135.661C103.539 135.677 103.539 135.695 103.533 135.711L103.495 135.749C103.478 135.753 103.461 135.753 103.444 135.749H103.375H103.28H103.235C103.25 135.746 103.265 135.746 103.28 135.749H103.324C103.345 135.743 103.367 135.743 103.387 135.749H103.489C103.489 135.749 103.539 135.648 103.533 135.661Z" fill="#E63E22"/>
<path d="M110.875 136.154C110.045 136.159 109.218 136.248 108.406 136.42C107.957 136.502 107.508 136.565 107.058 136.628C106.491 136.692 105.929 136.794 105.375 136.932H105.261C105.112 136.952 104.971 137.014 104.856 137.11C104.805 137.147 104.78 137.179 104.856 137.198C105.235 137.236 105.616 137.236 105.995 137.198C106.571 137.154 107.166 137.078 107.748 136.996C108.78 136.854 109.797 136.619 110.786 136.293C110.875 136.23 111.001 136.154 110.875 136.154Z" fill="#E63E22"/>
<path d="M117.558 131.263C117.78 131.156 118.033 131.01 117.634 131.048C117.001 131.111 116.337 131.213 115.685 131.32C114.938 131.441 114.191 131.542 113.444 131.681L111.058 132.168C110.267 132.333 109.482 132.504 108.716 132.694C108.368 132.782 108.026 132.865 107.685 132.934C107.427 132.985 107.174 133.053 106.925 133.137C106.786 133.194 106.748 133.232 106.773 133.257C106.799 133.282 106.773 133.301 106.856 133.301H106.925C107.172 133.32 107.419 133.32 107.666 133.301C108.299 133.301 109.027 133.162 109.71 133.074L112.008 132.808C112.434 132.76 112.856 132.686 113.273 132.586C113.748 132.472 114.204 132.327 114.659 132.194C115.533 131.934 116.748 131.624 117.451 131.32L117.558 131.263Z" fill="#E63E22"/>
<path d="M126.343 130.152C126.489 130.057 126.647 129.924 126.343 129.943C125.9 129.993 125.461 130.069 125.027 130.171C124.533 130.278 124.027 130.36 123.527 130.493C123.027 130.626 122.476 130.81 121.963 130.987C121.451 131.164 120.925 131.31 120.425 131.493L119.748 131.747C119.579 131.802 119.416 131.874 119.261 131.962C119.179 132.019 119.153 132.063 119.179 132.088C119.204 132.114 119.179 132.126 119.236 132.126H119.286C119.452 132.142 119.62 132.142 119.786 132.126C120.236 132.076 120.704 131.974 121.16 131.892C121.419 131.842 121.679 131.804 121.932 131.766L122.698 131.62C122.976 131.557 123.248 131.481 123.52 131.392C123.793 131.304 124.153 131.152 124.426 131.025C125.049 130.796 125.655 130.526 126.242 130.215L126.343 130.152Z" fill="#E63E22"/>
<path d="M128.831 127.695C128.907 127.632 128.989 127.543 128.831 127.556C128.585 127.578 128.341 127.62 128.103 127.682C127.824 127.746 127.546 127.796 127.274 127.879C126.981 127.967 126.693 128.073 126.413 128.195C126.128 128.303 125.856 128.429 125.584 128.55L125.217 128.714C125.125 128.752 125.038 128.801 124.957 128.86C124.913 128.898 124.907 128.929 124.919 128.948C124.932 128.967 124.919 128.948 124.957 128.948C125.052 128.961 125.147 128.961 125.242 128.948C125.498 128.915 125.752 128.865 126.002 128.796C126.286 128.727 126.565 128.689 126.85 128.619C127.003 128.583 127.153 128.534 127.299 128.474C127.47 128.404 127.628 128.322 127.793 128.239C128.132 128.089 128.458 127.912 128.767 127.708L128.831 127.695Z" fill="#E63E22"/>
<path d="M128.312 131.478C128.35 131.478 128.388 131.396 128.312 131.402C128.187 131.414 128.064 131.437 127.945 131.472C127.805 131.504 127.66 131.529 127.521 131.567C127.381 131.605 127.229 131.668 127.09 131.725C126.951 131.782 126.805 131.845 126.672 131.909L126.489 131.997C126.442 132.02 126.397 132.047 126.356 132.08C126.356 132.08 126.356 132.08 126.356 132.124C126.402 132.13 126.449 132.13 126.495 132.124C126.622 132.124 126.748 132.067 126.875 132.035L127.305 131.947C127.383 131.927 127.459 131.902 127.533 131.871C127.622 131.871 127.698 131.795 127.78 131.757C127.952 131.68 128.117 131.589 128.274 131.485L128.312 131.478Z" fill="#E63E22"/>
<path d="M117.596 135.442C117.413 135.622 117.182 135.747 116.932 135.803C116.465 135.946 115.989 136.06 115.508 136.145C115.213 136.202 114.915 136.245 114.615 136.271C114.397 136.309 114.172 136.266 113.982 136.151C113.925 136.094 114.039 135.98 114.109 135.942C114.45 135.762 114.808 135.615 115.179 135.505C115.46 135.414 115.751 135.357 116.046 135.335H116.191C116.444 135.271 116.704 135.221 116.963 135.183C117.156 135.155 117.353 135.155 117.546 135.183C117.71 135.164 117.704 135.316 117.596 135.442Z" fill="#E63E22"/>
<path d="M120.039 134.11H120.001C119.99 134.132 119.975 134.151 119.957 134.167C119.917 134.211 119.867 134.246 119.811 134.268H119.736H119.666C119.622 134.263 119.579 134.251 119.539 134.23C119.501 134.23 119.508 134.167 119.539 134.129C119.575 134.072 119.623 134.022 119.679 133.984L119.786 133.939C119.826 133.92 119.869 133.907 119.913 133.901H119.995H120.039C120.084 134.047 120.065 134.085 120.039 134.11Z" fill="#E63E22"/>
<path d="M125.223 133.361C124.732 133.411 124.249 133.524 123.786 133.697L123.014 133.956C122.688 134.051 122.369 134.167 122.058 134.304H121.995C121.881 134.355 121.786 134.418 121.78 134.463C121.774 134.507 121.742 134.52 121.78 134.526C122.01 134.534 122.241 134.509 122.463 134.45C122.793 134.374 123.134 134.266 123.47 134.159C124.067 133.989 124.642 133.751 125.185 133.45C125.255 133.431 125.312 133.361 125.223 133.361Z" fill="#E63E22"/>
</g>
</g>
<mask id="mask2_175_3110" style="mask-type:luminance" maskUnits="userSpaceOnUse" x="47" y="99" width="74" height="31">
<path d="M120.267 122.811C120.267 126.254 104.046 129.052 84.0389 129.052C64.0322 129.052 47.8168 126.254 47.8168 122.811C47.8168 120.735 47.3548 112.804 56.4245 106.621C62.4183 102.538 76.1717 99.0764 84.1338 99.0764C97.9505 99.0764 111.153 106.159 117.236 113.279C119.963 116.469 120.267 121.741 120.267 122.811Z" fill="white"/>
</mask>
<g mask="url(#mask2_175_3110)">
<path d="M51.9119 114.3C52.4667 122.294 56.034 129.781 61.8934 135.247C67.7529 140.714 75.4682 143.755 83.482 143.755C91.4957 143.755 99.211 140.714 105.07 135.247C110.93 129.781 114.497 122.294 115.052 114.3H51.9119Z" fill="#E99723"/>
<g style="mix-blend-mode:screen">
<path d="M53.6271 116.541C55.0421 117.32 56.5619 117.891 58.1398 118.237C62.0925 119.161 66.1146 119.758 70.1653 120.022C73.1907 120.275 76.2224 120.421 79.2541 120.579C83.4256 120.811 87.6063 120.828 91.7796 120.629C93.7796 120.534 95.7733 120.37 97.7733 120.218C99.5898 120.072 101.406 119.902 103.21 119.629C106.558 119.117 109.951 118.25 112.837 116.414C113.627 115.907 114.357 115.312 115.014 114.642C115.014 114.515 115.046 114.401 115.052 114.275H51.9435C51.9245 115.326 52.817 116.072 53.6271 116.541Z" fill="#E99723"/>
</g>
<g style="mix-blend-mode:multiply" opacity="0.47">
<path d="M107.248 125.227C105.122 125.677 102.989 126.075 100.83 126.348C98.1975 126.683 95.5519 126.879 92.8999 126.981C87.596 127.234 82.2605 127.348 76.9567 127.094C71.6984 126.858 66.4578 126.324 61.2602 125.493C59.9944 125.284 58.7285 125.063 57.4627 124.803C56.41 124.634 55.3665 124.412 54.3361 124.139C56.7702 129.892 60.8526 134.796 66.0689 138.233C71.2852 141.67 77.402 143.486 83.6487 143.453C89.8955 143.42 95.9926 141.539 101.172 138.046C106.352 134.554 110.382 129.607 112.755 123.829C110.947 124.398 109.109 124.865 107.248 125.227Z" fill="#E99723"/>
</g>
<path d="M83.482 120.224C100.932 120.224 115.077 117.453 115.077 114.034C115.077 110.616 100.932 107.844 83.482 107.844C66.0323 107.844 51.8866 110.616 51.8866 114.034C51.8866 117.453 66.0323 120.224 83.482 120.224Z" fill="#E67726"/>
<path d="M83.8618 118.639C97.9278 118.639 109.331 116.415 109.331 113.671C109.331 110.927 97.9278 108.702 83.8618 108.702C69.7958 108.702 58.3931 110.927 58.3931 113.671C58.3931 116.415 69.7958 118.639 83.8618 118.639Z" fill="#C23A1F"/>
<path d="M83.8617 117.66C97.2531 117.66 108.109 115.79 108.109 113.483C108.109 111.176 97.2531 109.305 83.8617 109.305C70.4703 109.305 59.6145 111.176 59.6145 113.483C59.6145 115.79 70.4703 117.66 83.8617 117.66Z" fill="#704A0F"/>
<g style="mix-blend-mode:multiply">
<path d="M103.501 113.921C99.6997 113.31 95.8664 112.917 92.0201 112.743C88.1403 112.535 84.2478 112.383 80.3617 112.389C76.404 112.359 72.4496 112.628 68.5324 113.193C65.9872 113.575 63.4724 114.138 61.007 114.876C64.3361 116.497 73.3109 117.661 83.8617 117.661C94.8935 117.661 104.204 116.395 107.134 114.649C105.932 114.37 104.716 114.13 103.501 113.921Z" fill="#704A0F"/>
</g>
</g>
</g>
<mask id="mask3_175_3110" style="mask-type:luminance" maskUnits="userSpaceOnUse" x="59" y="89" width="50" height="29">
<path d="M108.102 113.491C108.102 115.794 97.2478 117.668 83.8616 117.668C70.4753 117.668 59.608 115.794 59.608 113.491C59.608 111.187 70.469 89.9648 83.8616 89.9648C97.2542 89.9648 108.102 111.18 108.102 113.491Z" fill="white"/>
</mask>
<g mask="url(#mask3_175_3110)">
<path d="M103.483 116.306C105.235 105.623 97.9941 95.543 87.3111 93.7917C76.6281 92.0404 66.548 99.281 64.7967 109.964C63.0453 120.647 70.2859 130.727 80.969 132.478C91.652 134.23 101.732 126.989 103.483 116.306Z" fill="#FCEF42"/>
<g style="mix-blend-mode:multiply">
<path d="M84.1337 93.5332C80.2532 93.5332 76.4597 94.6839 73.2331 96.8399C70.0066 98.9958 67.4917 102.06 66.0067 105.645C64.5217 109.23 64.1331 113.176 64.8902 116.982C65.6473 120.788 67.5159 124.284 70.2599 127.028C73.0039 129.772 76.4999 131.64 80.306 132.397C84.112 133.154 88.057 132.766 91.6422 131.281C95.2274 129.796 98.2917 127.281 100.448 124.054C102.604 120.828 103.754 117.034 103.754 113.154C103.754 107.95 101.687 102.959 98.0076 99.2799C94.328 95.6004 89.3374 93.5332 84.1337 93.5332ZM92.0896 105.381C92.002 106.841 91.6209 108.268 90.9693 109.578C90.2866 110.881 89.2629 111.975 88.0072 112.742C86.7321 113.507 85.3231 114.023 83.8553 114.261C81.1 114.666 78.3003 114.666 75.545 114.261C73.4627 114.015 71.2538 113.628 69.45 112.502C68.6249 112.016 67.9485 111.313 67.4942 110.47C67.0327 109.508 66.8674 108.431 67.0196 107.375C67.2123 106.016 67.6248 104.697 68.2411 103.47C68.8755 102.164 69.6823 100.948 70.6399 99.8561C71.8192 98.4897 73.2475 97.3599 74.8488 96.5269C76.5902 95.4658 78.5275 94.7663 80.5451 94.4699C83.1147 94.0965 85.9439 94.2801 88.2097 95.6725C89.1712 96.2953 89.994 97.1097 90.6267 98.0647C91.2594 99.0198 91.6884 100.095 91.887 101.223C92.1472 102.593 92.2154 103.993 92.0896 105.381Z" fill="#F8D323"/>
</g>
<g style="mix-blend-mode:multiply">
<path d="M102.444 106.135C102.444 106.28 102.495 106.432 102.507 106.578C102.628 107.629 102.643 108.689 102.552 109.742C102.483 110.769 102.137 111.757 101.552 112.603C100.937 113.368 100.15 113.975 99.2542 114.375C98.3463 114.821 97.3908 115.163 96.4061 115.394C94.3438 115.856 92.245 116.136 90.1338 116.23C89.1718 116.293 76.2539 116.502 74.9437 116.413C72.5893 116.249 70.0576 116.122 67.9246 114.996C67.2279 114.63 66.6228 114.112 66.1548 113.479C65.6868 112.847 65.3679 112.117 65.2221 111.344C65.0384 110.273 65.0384 109.18 65.2221 108.109C64.4166 111.101 64.3311 114.242 64.9727 117.273C65.6143 120.304 66.9647 123.14 68.9132 125.549C70.8618 127.958 73.3533 129.872 76.1835 131.133C79.0138 132.393 82.1025 132.966 85.1966 132.804C88.2908 132.641 91.3025 131.748 93.9852 130.198C96.6679 128.648 98.9453 126.484 100.631 123.884C102.317 121.284 103.363 118.322 103.683 115.241C104.004 112.159 103.59 109.045 102.476 106.154L102.444 106.135Z" fill="#F4BF3E"/>
</g>
</g>
<g style="mix-blend-mode:color-dodge" opacity="0.56">
<path d="M39.5509 169.929C39.8049 169.155 39.9664 168.354 40.0319 167.543C39.9284 166.658 39.6089 165.813 39.1015 165.081C38.1408 163.44 36.7685 162.079 35.1205 161.131C34.2787 160.657 33.3926 160.27 32.5888 159.758C31.7469 159.243 31.0241 158.554 30.4685 157.739C29.5444 156.378 28.7723 154.612 27.1393 153.941C26.8165 153.815 26.4304 154.125 26.3229 154.403C25.9431 155.397 26.3229 156.422 26.8292 157.302C26.9431 157.517 27.0634 157.726 27.19 157.935C27.5339 159.126 28.005 160.276 28.595 161.365C29.5191 163.176 30.2533 165.087 31.3356 166.809C32.4179 168.53 33.8673 170.157 34.7407 172.074C35.4306 173.631 35.9686 175.283 37.2154 176.505C37.3884 176.718 37.6152 176.88 37.8723 176.976C38.1294 177.072 38.4074 177.097 38.6775 177.049C39.4496 176.84 39.8041 175.973 39.9433 175.252C40.2661 173.454 39.2091 171.726 39.5509 169.929Z" fill="#ADD142"/>
</g>
<defs>
<radialGradient id="paint0_radial_175_3110" cx="0" cy="0" r="1" gradientUnits="userSpaceOnUse" gradientTransform="translate(83.4151 112.379) rotate(90) scale(112.379 83.4151)">
<stop stop-color="#D0731D"/>
<stop offset="1" stop-color="#6B4C2F"/>
</radialGradient>
</defs>
</svg>
