<svg xmlns="http://www.w3.org/2000/svg" width="167" height="225" fill="none" xmlns:v="https://vecta.io/nano"><rect width="166.83" height="224.757" rx="12.744" fill="url(#E)"/><path d="M43.518 37.724v5.564c0 .703.047 1.163.141 1.38.105.375.527.565 1.266.571h.545V49h-2.136c-.674 0-1.28-.144-1.819-.431a3.31 3.31 0 0 1-1.292-1.186 2.86 2.86 0 0 1-.228-.448 2.5 2.5 0 0 1-.149-.501 4.85 4.85 0 0 1-.097-.615c-.018-.164-.026-.425-.026-.782V34.674h4.034v3.05h-.237zm3.823 15.653c.516 0 .955-.182 1.318-.545a1.8 1.8 0 0 0 .536-1.309 1.81 1.81 0 0 0-.536-1.318c-.369-.363-.809-.545-1.318-.545-.516 0-.952.182-1.31.545-.363.363-.545.803-.545 1.318s.182.952.545 1.31c.358.363.794.545 1.31.545zm4.755 0c.51 0 .949-.182 1.318-.545a1.8 1.8 0 0 0 .536-1.309 1.81 1.81 0 0 0-.536-1.318c-.369-.363-.809-.545-1.318-.545-.516 0-.952.182-1.31.545a1.78 1.78 0 0 0-.554 1.318 1.75 1.75 0 0 0 .554 1.31c.358.363.794.545 1.31.545zM44.757 49v-3.762h4.14c.738-.006 1.16-.196 1.266-.571.1-.217.149-.677.149-1.38v-4.245H54.1v6.196h1.081V49H44.757zm21.358-3.727L64.392 49H54.46v-3.762l7.822-.009c.627-.674.941-1.392.941-2.153 0-.615-.193-1.116-.58-1.503-.375-.375-.879-.562-1.512-.562-.615 0-1.107.176-1.477.527-.293.275-.472.645-.536 1.107l-3.278-1.643a4.66 4.66 0 0 1 .422-1.02c.539-.949 1.219-1.658 2.039-2.127.814-.469 1.758-.703 2.83-.703.814 0 1.547.132 2.197.396a4.92 4.92 0 0 1 1.767 1.195c.533.521.929 1.125 1.186 1.81s.387 1.433.387 2.241c0 .885-.173 1.711-.519 2.479h-.035zm-4.808 4.887c-.369-.363-.809-.545-1.318-.545s-.946.182-1.31.545-.545.803-.545 1.318.182.952.545 1.31c.357.363.794.545 1.31.545s.955-.182 1.318-.545.545-.8.545-1.31-.182-.949-.545-1.318zm11.988.615c1.107-.223 1.731-.814 1.872-1.775h-4.773l-1.731-3.727h-.026a5.88 5.88 0 0 1-.527-2.479c0-.809.129-1.556.387-2.241s.653-1.289 1.186-1.81c.516-.533 1.107-.932 1.775-1.195.65-.264 1.383-.396 2.197-.396 1.066 0 2.01.234 2.83.703.814.469 1.491 1.178 2.03 2.127a5.22 5.22 0 0 1 .422 1.002l-.009 4.254h1.872V49h-1.969c-.088 2.256-1.4 3.762-3.937 4.518l-1.6-2.742zm1.881-9.193l-.044-.044c-.369-.352-.861-.527-1.477-.527-.633 0-1.14.188-1.52.563-.387.387-.58.888-.58 1.503 0 .762.316 1.48.949 2.153l2.672.009v-3.656zm10.661-3.876v7.33l-.035.782c-.018.229-.044.434-.079.615-.047.182-.1.349-.158.501-.082.182-.161.331-.237.448-.322.516-.75.911-1.283 1.186-.539.287-1.145.431-1.819.431h-2.136v-3.762h.536c.738-.006 1.163-.196 1.274-.571.094-.217.141-.677.141-1.38v-8.613h4.034v3.032h-.237zm6.864 13.069c1.107-.223 1.731-.814 1.872-1.775h-4.772l-1.731-3.727h-.026a5.88 5.88 0 0 1-.527-2.479c0-.809.129-1.556.387-2.241s.653-1.289 1.187-1.81c.516-.533 1.107-.932 1.775-1.195.65-.264 1.383-.396 2.197-.396 1.066 0 2.01.234 2.83.703.815.469 1.491 1.178 2.03 2.127a5.23 5.23 0 0 1 .422 1.002l-.009 4.254h1.872V49h-1.969c-.088 2.256-1.4 3.762-3.937 4.518l-1.6-2.742zm1.881-9.193l-.044-.044c-.369-.352-.861-.527-1.477-.527-.633 0-1.14.188-1.52.563-.387.387-.58.888-.58 1.503 0 .762.316 1.48.949 2.153l2.672.009v-3.656zm11.76 8.578c-.369-.363-.809-.545-1.319-.545s-.946.182-1.309.545-.545.803-.545 1.318.182.952.545 1.31c.357.363.794.545 1.309.545s.956-.182 1.319-.545.545-.8.545-1.31-.182-.949-.545-1.318zM99.495 49v-3.762h7.822c.627-.686.941-1.406.941-2.162 0-.615-.194-1.116-.58-1.503-.375-.375-.879-.562-1.512-.562-.615 0-1.107.176-1.477.527-.293.275-.471.645-.536 1.107l-3.278-1.643c.105-.369.246-.709.422-1.02.539-.949 1.219-1.658 2.039-2.127.814-.469 1.758-.703 2.83-.703.814 0 1.547.132 2.197.396.668.264 1.257.662 1.767 1.195.533.521.929 1.125 1.186 1.81s.387 1.433.387 2.241a6.17 6.17 0 0 1-.51 2.443h1.618V49H99.495zm18.352-11.294v7.33l-.035.782c-.018.229-.044.434-.08.615a4.34 4.34 0 0 1-.158.501c-.082.182-.161.331-.237.448-.322.516-.75.911-1.283 1.186-.539.287-1.146.431-1.82.431h-2.135v-3.762h.536c.738-.006 1.163-.196 1.274-.571.094-.217.141-.677.141-1.38v-8.613h4.034v3.032h-.237zM120.817 49V37.794h-.571v-3.12h4.069V49h-3.498z" fill="#fcfdaf"/><path d="M21.044 144.589c1.248 15.762 8.391 30.474 20.004 41.204s26.844 16.688 42.655 16.688 31.042-5.958 42.655-16.688 18.756-25.442 20.005-41.204H21.044z" fill="#4e84c4"/><path d="M118.103 191.756a25.59 25.59 0 0 1-5.317.861c-1.677.12-3.361.107-5.063.095a16.69 16.69 0 0 0-4.659.373c-2.62.728-4.835 2.361-7.113 3.798a21.72 21.72 0 0 1-3.532 1.829c-1.167.409-2.374.693-3.601.848-2.544.4-5.115.612-7.69.633-2.569.104-5.138-.23-7.595-.987-2.196-.779-3.715-2.418-5.437-3.893-.852-.728-1.855-1.258-2.937-1.551a34.4 34.4 0 0 0-5.393-.886 92.08 92.08 0 0 0-10.044-.519c10.338 6.637 22.395 10.099 34.679 9.959a62.86 62.86 0 0 0 34.442-10.75l-.74.19z" fill="#8fb9e3"/><g fill="#add142"><path d="M42.564 186.969l1.266-2.962c.289-.702.838-1.266 1.532-1.576.825-.221 1.682-.289 2.532-.202a17.73 17.73 0 0 1 1.899.133c.675.095 1.357.125 2.038.088a3.31 3.31 0 0 0 1.899-.74c.377-.36.68-.79.893-1.266.506-1.119.929-2.274 1.266-3.456l.563-1.519c.291-.656.627-1.29 1.006-1.899 1.266-2.088 3.076-4.519 2.298-7.095-.563-1.898-2.196-3.247-3.57-4.55s-3.165-2.943-3.418-5.007c-.058-1.266.136-2.531.57-3.721a12.87 12.87 0 0 0 .753-3.899c-.044-1.899-1.165-3.519-2.532-4.76H21.044c1.325 16.42 9.055 31.661 21.519 42.431z"/><path d="M59.817 166.547c-.563-1.899-2.196-3.247-3.57-4.551s-3.165-2.943-3.418-5.006c-.058-1.266.136-2.531.57-3.722a12.87 12.87 0 0 0 .753-3.899c-.044-1.899-1.165-3.519-2.532-4.759H21.044c1.332 16.411 9.06 31.641 21.519 42.405.443-.981.791-2.006 1.266-2.962.289-.702.838-1.266 1.532-1.576.825-.221 1.682-.289 2.532-.202a17.73 17.73 0 0 1 1.899.133c.675.095 1.357.125 2.038.088a3.31 3.31 0 0 0 1.899-.74c.377-.36.68-.79.893-1.266.506-1.119.929-2.274 1.266-3.456.177-.513.348-1.019.563-1.519.291-.656.627-1.29 1.006-1.899 1.316-2.082 3.139-4.538 2.361-7.069zm-14.468 8.683a3.62 3.62 0 0 1-1.089 1.108c-.24.19-.481.373-.703.576a4.07 4.07 0 0 0-.633.785c-.808 1.198-1.433 2.51-1.855 3.892-.013.042-.041.077-.078.099s-.082.03-.124.021c-.202-.063-.396-.146-.582-.246a9.58 9.58 0 0 1-2.348-1.899c-.722-.766-1.392-1.576-2.095-2.361a29.74 29.74 0 0 1-3.994-6.133c-.589-1.095-1.171-2.19-1.816-3.253s-1.329-2.108-1.899-3.203c-1.111-2.075-2.026-4.249-2.734-6.494a56.47 56.47 0 0 1-1.449-5.765c-.37-.813-.533-1.704-.475-2.595a.17.17 0 0 1 .084-.14c.025-.015.052-.023.081-.024s.057.005.082.018l1.108.633c1.405.797 2.772 1.646 4.12 2.532l4.165 2.797c1.411.899 2.886 1.766 4.355 2.595l2.108 1.19c.477.243.93.529 1.355.854.395.343.7.778.886 1.266a5.47 5.47 0 0 1 .272 2.051 17.98 17.98 0 0 0 .07 2.405c.109.727.322 1.435.633 2.101.582 1.266 1.392 2.456 2.006 3.728a7.29 7.29 0 0 1 .633 1.836c.156.536.127 1.109-.082 1.626z" style="mix-blend-mode:multiply"/><path d="M117.457 167.901c.706-.493 1.486-.871 2.31-1.12a11.73 11.73 0 0 1 1.361-.867c.383-.289.811-.513 1.266-.665a.86.86 0 0 0 .356-.11c.11-.062.204-.148.277-.251.165-.317.229-.677.183-1.031-.021-.341.022-.682.127-1.007.12-.22.3-.402.519-.525.49-.307 1.027-.534 1.589-.671a26.56 26.56 0 0 1 3.652-.633l2-.297c.829-.109 1.651-.265 2.462-.469 1.379-.367 3.101-.968 3.436-2.531a8.46 8.46 0 0 0 .089-1.791 5.54 5.54 0 0 1 .285-1.899 4.42 4.42 0 0 1 1.07-1.551c.207-.203.379-.441.506-.702a3.88 3.88 0 0 0 .278-1.171c.254-2.032-.164-4.019-.55-6.013H97.584l-.203.456-2.861 6.221c-.766 1.988-1.519 4.317-1.013 6.462s2.317 3.349 4.19 4.057c1.965.64 3.981 1.114 6.026 1.418l1.354.31a5.21 5.21 0 0 1 1.19.412c.544.297.563.835.576 1.392a23.83 23.83 0 0 0 .272 3.076c.22 1.019.714 1.958 1.431 2.715a8.49 8.49 0 0 1 1.183 1.76 14.81 14.81 0 0 1 .734 1.899c.197.627.432 1.242.703 1.841a7.59 7.59 0 0 0 1.234 1.798 7.45 7.45 0 0 0 2.532 2.164c.219.102.459.146.7.128a1.42 1.42 0 0 0 .673-.229 2.38 2.38 0 0 0 .88-1.31 5.12 5.12 0 0 0-.165-2.759l-.911-3.013c-.292-.957-.372-1.965-.234-2.956a3.92 3.92 0 0 1 1.582-2.538z"/><path d="M138.673 144.589H97.584l-.203.455-2.861 6.222c-.766 1.987-1.519 4.316-1.013 6.462s2.317 3.348 4.19 4.057c1.965.64 3.981 1.114 6.026 1.418l1.354.31a5.16 5.16 0 0 1 1.19.411c.544.298.563.836.576 1.393.024 1.03.115 2.057.272 3.076.22 1.019.714 1.958 1.431 2.715a8.49 8.49 0 0 1 1.183 1.76c.288.615.533 1.249.734 1.898a16.32 16.32 0 0 0 .703 1.842 7.61 7.61 0 0 0 1.234 1.798 7.45 7.45 0 0 0 2.532 2.164 1.43 1.43 0 0 0 .7.128 1.42 1.42 0 0 0 .673-.229 2.38 2.38 0 0 0 .88-1.31 5.12 5.12 0 0 0-.165-2.76l-.911-3.012c-.292-.957-.372-1.966-.234-2.956a3.92 3.92 0 0 1 1.595-2.532c.706-.493 1.486-.871 2.31-1.12a11.84 11.84 0 0 1 1.348-.867c.383-.289.811-.513 1.266-.665a.86.86 0 0 0 .356-.11c.11-.062.204-.148.277-.251.165-.317.229-.677.183-1.031-.021-.341.022-.682.127-1.007.12-.22.3-.402.519-.525.49-.307 1.027-.534 1.589-.671a26.56 26.56 0 0 1 3.652-.633l2-.297c.829-.109 1.651-.265 2.462-.469 1.379-.367 3.101-.968 3.436-2.531a8.46 8.46 0 0 0 .089-1.791 5.54 5.54 0 0 1 .285-1.899 4.42 4.42 0 0 1 1.07-1.551c.207-.203.379-.441.506-.702a3.88 3.88 0 0 0 .278-1.171c.254-2.038-.164-4.026-.55-6.019zm-13.209 13.652a11.54 11.54 0 0 0-2.323.582 9.85 9.85 0 0 0-1.443.633l-2.247 2.399-1.519 1.778a4.42 4.42 0 0 1-1.266.924l-1.829.943a3.33 3.33 0 0 0-1.336 1.171 7.43 7.43 0 0 0-.462 1.304c-.139.519-.313 1.029-.519 1.525-.145.336-.354.747-.683.842-.13.028-.265.014-.387-.039s-.223-.144-.29-.258c-.24-.331-.434-.693-.576-1.076-.202-.486-.377-.983-.526-1.488l-.721-2.569a4.71 4.71 0 0 0-.633-1.317 5.79 5.79 0 0 0-1.266-1.361 14.44 14.44 0 0 0-2.861-1.632h-.633a4.65 4.65 0 0 1-1.373-.241c-.474-.165-.939-.355-1.393-.57a8.6 8.6 0 0 1-1.487-.867c-.387-.245-.681-.613-.835-1.044-.011-.038-.009-.079.008-.115s.045-.065.081-.081c.849-.36 1.769-.524 2.69-.481.829 0 1.658 0 2.488-.127l2.822-.253c.426-.03.853.009 1.266.114a4.94 4.94 0 0 1 1.127.525l.487.298 2.715-.671c1.58-.422 3.187-.733 4.811-.931 1.696-.215 3.455-.221 5.063-.848 5.905-2.253 3.766 2.823 3.051 2.931z" style="mix-blend-mode:multiply"/><path d="M142.565 159.34l-1.361 2.259c-1.114 1.614-2.873 2.456-4.5 3.45-.798.433-1.515 1-2.12 1.677a4.32 4.32 0 0 0-.892 2.152c-.266 1.803-.057 3.645-.032 5.462a7.12 7.12 0 0 0 .633 2.399c4.118-5.579 7.279-11.803 9.354-18.418a3.09 3.09 0 0 0-1.082 1.019z"/><path d="M142.565 159.34l-1.361 2.259c-1.114 1.614-2.873 2.456-4.5 3.45-.798.433-1.515 1-2.12 1.677a4.32 4.32 0 0 0-.892 2.152c-.266 1.803-.057 3.645-.032 5.462a7.12 7.12 0 0 0 .633 2.399c4.118-5.579 7.279-11.803 9.354-18.418a3.09 3.09 0 0 0-1.082 1.019zm-2.335 6.525c-.595 1.325-1.345 2.574-2.235 3.722-.683 1.024-1.636 1.841-2.753 2.36a.17.17 0 0 1-.127-.014c-.039-.022-.069-.057-.082-.1-.247-.8-.333-1.641-.253-2.474.188-1.126.808-2.134 1.728-2.81.654-.513 1.344-.978 2.063-1.393a4.94 4.94 0 0 1 2.127-1.373c.028-.008.058-.007.086 0s.054.022.075.043.036.045.045.073.009.058.003.086a10.78 10.78 0 0 1-.677 1.88z" style="mix-blend-mode:multiply"/></g><g style="mix-blend-mode:multiply" opacity=".14"><path d="M21.044 144.589c0 .31.057.633.089.924 1.961 2.488 4.327 4.628 7 6.329 4.962 3.164 10.709 4.816 16.456 5.804 6.297 1.082 12.709 1.386 19.089 1.607s12.658.298 18.924.88a78.35 78.35 0 0 1 8.652 1.241c3.165.633 6.462 1.468 9.228 3.215 1.355.816 2.503 1.933 3.355 3.266a8.23 8.23 0 0 1 1.133 4.588c-.159 3.861-2.33 7.596-4.836 10.412-5.183 5.842-13.044 9.336-20.728 10.177a61.16 61.16 0 0 1-21.696-1.683c-7.287-1.777-14.148-4.985-20.184-9.437l-.525-.411a62.85 62.85 0 0 0 30.781 18.723c11.868 3.104 24.385 2.666 36.006-1.258s21.842-11.164 29.4-20.827a62.85 62.85 0 0 0 13.13-33.55H21.044z" fill="#4e84c4"/></g><g style="mix-blend-mode:multiply" opacity=".43"><path d="M139.268 144.589c-.537 7.62-2.63 15.05-6.152 21.829a62.08 62.08 0 0 1-15.99 19.678 62.09 62.09 0 0 1-22.524 11.645c-9.18 2.539-18.773 3.228-28.222 2.026l-.74-.102c8.968 2.678 18.421 3.32 27.669 1.88a62.89 62.89 0 0 0 44.682-30.503 62.89 62.89 0 0 0 8.327-26.453h-7.05z" fill="#4e84c4"/></g><path d="M83.685 156.343c34.62 0 62.685-5.5 62.685-12.285s-28.065-12.285-62.684-12.285S21 137.274 21 144.058s28.065 12.285 62.685 12.285z" fill="#0b6b8f"/><path d="M83.685 154.288c33.393 0 60.462-4.664 60.462-10.418s-27.07-10.418-60.462-10.418-60.463 4.665-60.463 10.418 27.07 10.418 60.463 10.418z" fill="#193456"/><path d="M122.324 141.712c-9.411-1.741-18.987-2.342-28.551-2.532s-19.051-.184-28.557.146c-9.171.231-18.314 1.128-27.355 2.683a65.59 65.59 0 0 0-13.652 3.741c5.139 4.854 29.81 8.538 59.495 8.538 27.064 0 50.001-3.064 57.691-7.291a124.25 124.25 0 0 0-19.07-5.285z" fill="#000e2c" style="mix-blend-mode:multiply"/><mask id="A" maskUnits="userSpaceOnUse" x="23" y="83" width="122" height="72"><path d="M144.154 143.868c0 5.753-27.07 10.418-60.469 10.418s-60.463-4.665-60.463-10.418S50.292 83 83.659 83s60.495 55.108 60.495 60.868z" fill="#fff"/></mask><g mask="url(#A)"><path d="M29.171 133.2c1.122 13.633 7.33 26.346 17.391 35.613s23.24 14.412 36.92 14.412a54.49 54.49 0 0 0 54.311-50.025H29.171z" fill="#6c3916"/><g style="mix-blend-mode:multiply" opacity=".32"><path d="M128.084 144.441c-7.228 4.861-16.545 5.297-24.969 5.589l-14.734.373a315.65 315.65 0 0 1-15.317-.373c-9.124-.334-18.224-1.135-27.266-2.399a70.56 70.56 0 0 1-14.627-3.614c3.566 12.199 11.284 22.768 21.818 29.879s23.223 10.315 35.871 9.059a54.49 54.49 0 0 0 33.39-15.935c8.93-9.043 14.42-20.923 15.517-33.586-2.238 4.433-5.571 8.222-9.683 11.007z" fill="#6c3916"/></g><path d="M83.482 143.393c30.016 0 54.349-4.769 54.349-10.652s-24.333-10.652-54.349-10.652-54.349 4.769-54.349 10.652 24.333 10.652 54.349 10.652z" fill="#9f520c"/><path d="M84.134 141.273c27.866 0 50.456-3.893 50.456-8.696S112 123.88 84.134 123.88s-50.456 3.894-50.456 8.697 22.59 8.696 50.456 8.696z" fill="#4f1f00"/><g style="mix-blend-mode:multiply"><path d="M132.191 134.682c-1-1.12-2.582-1.639-3.987-2.006-1.551-.405-3.133-.633-4.703-.893-4.12-.696-8.228-1.354-12.38-1.778a228.42 228.42 0 0 0-26.158-.949c-8.684.094-17.38.094-26.032.892a90.97 90.97 0 0 0-16.893 2.968c-2.059.545-4.067 1.27-6 2.165l-.127.057c6.329 3.551 25.538 6.127 48.222 6.127 22.836 0 42.127-2.614 48.349-6.197a2.33 2.33 0 0 0-.292-.386z" fill="#4f1f00"/></g><g style="mix-blend-mode:multiply" opacity=".55"><path d="M46.564 143.568c.285-.095.633-.259.222-.474a12.02 12.02 0 0 0-2.044-.76l-2.373-.747a21.88 21.88 0 0 0-2.62-.417l-2.62-.26c-.392 0-.779-.038-1.171-.051a2.96 2.96 0 0 0-.886.038c-.177.057-.24.133-.24.222s-.032.095.044.158l.063.038c.213.191.455.349.715.468a16.55 16.55 0 0 0 2.127.779l2.399.873c.441.143.895.244 1.354.304a11.23 11.23 0 0 0 1.62.026c1.019 0 2.392.113 3.279-.159l.133-.038zm2.917 2.208a3.17 3.17 0 0 0-1.032-.57c-.383-.109-.779-.169-1.177-.177a9.77 9.77 0 0 0-1.222.038 3.3 3.3 0 0 0-.981.076 1.55 1.55 0 0 0-.937.203c-.152.05-.247.151-.095.265 1.472.907 3.207 1.29 4.924 1.089.342-.038.835-.114.981-.323s-.247-.437-.462-.601zm4.121-1.962c.057 0 .095-.114.038-.165a4.4 4.4 0 0 0-2.646-.905 9.81 9.81 0 0 0-1.057 0c-.305-.01-.604.084-.848.266-.165.222.215.437.506.557a4.38 4.38 0 0 0 .677.241 4.72 4.72 0 0 0 .709.12l.405.107c.74.21 1.532.13 2.215-.221zm.759 3.321c-.2-.191-.464-.3-.74-.304h-.266c-.263-.07-.54-.07-.804 0-.209.089-.272.31 0 .437a2.19 2.19 0 0 0 .842.165c.162.009.325.009.487 0 .117-.009.234-.028.348-.057.101-.057.196-.133.133-.241zm-21.013-8.439c-.266-.101-.544-.183-.823-.265h-.038-.051a2.72 2.72 0 0 0-1.108-.184c-.23-.012-.46-.012-.69 0-.24 0-.449.07-.392.234s.279.266.468.348c.205.098.416.18.633.247a5.18 5.18 0 0 0 2.032.418c.253 0 .589-.127.551-.336s-.348-.398-.582-.462zm3.817 5.38l-.816-.266h-.044-.051c-.352-.138-.73-.2-1.108-.183-.228-.012-.456-.012-.683 0-.241 0-.449.07-.399.234s.285.266.468.348a4.78 4.78 0 0 0 .633.247 5.18 5.18 0 0 0 2.032.418c.253 0 .595-.127.551-.336s-.348-.367-.582-.462zm-6.551-3.325a.63.63 0 0 0 .221.107c.169.035.344.035.513 0a.3.3 0 0 0 .165-.076c.013-.016.021-.036.021-.057s-.007-.041-.021-.057a.71.71 0 0 0-.354-.215.94.94 0 0 0-.259 0c-.067-.009-.135-.009-.203 0h-.032-.089c-.044 0-.101.045-.089.089.005.042.019.082.041.118a.3.3 0 0 0 .086.091zm41.444 7.268c.26.152.557.392.114.512a10.69 10.69 0 0 1-2.19.266l-2.532.139a21.33 21.33 0 0 1-2.69-.322c-.883-.131-1.757-.311-2.62-.538l-1.139-.323a2.91 2.91 0 0 1-.835-.329c-.152-.114-.184-.203-.158-.285s0-.108.095-.133h.076a2.86 2.86 0 0 1 .829-.209 18.14 18.14 0 0 1 2.272-.07c.854 0 1.683-.132 2.532-.145a7.84 7.84 0 0 1 1.386.076c.532.082 1.044.247 1.551.373 1.086.19 2.147.5 3.165.924l.146.064zm4.595-1.778a2.05 2.05 0 0 1-.74.247 3.28 3.28 0 0 1-.791-.045c-.261-.047-.528-.109-.785-.189a2.35 2.35 0 0 1-.633-.197c-.234-.057-.494-.139-.57-.272s-.133-.133 0-.183c.558-.2 1.148-.295 1.74-.279.53-.007 1.058.072 1.563.234.215.07.525.184.633.336s-.259.266-.418.348zm4.664 3.363c.051.038.082.127 0 .165-.853.461-1.832.635-2.791.494a7.21 7.21 0 0 1-1.051-.196c-.31-.083-.69-.216-.797-.425s.291-.386.633-.449c.471-.103.955-.143 1.437-.12.139 0 .272 0 .411-.038a3.05 3.05 0 0 1 2.158.569zm1.538-1.157a1.05 1.05 0 0 1-.772.215h-.266a1.51 1.51 0 0 1-.785-.152c-.196-.12-.221-.348.051-.437a2.16 2.16 0 0 1 .855 0 3.64 3.64 0 0 1 .475.083 1.84 1.84 0 0 1 .342.094c.095.013.183.095.101.197zm-24.361-2.227a7.8 7.8 0 0 1-.665.057h-.07c-.302.036-.608.008-.899-.083-.234-.069-.924-.202-.829-.424.051-.101.234-.139.386-.164.172-.027.345-.044.519-.051a4.23 4.23 0 0 1 1.62.076c.196.07.462.209.424.361s-.297.202-.487.228zm-.399 2.636c.084-.013.169-.013.253 0a1.42 1.42 0 0 1 .5.158c.056.029.102.073.133.127.012.016.019.036.019.057s-.007.041-.019.057a.64.64 0 0 1-.418.07.86.86 0 0 1-.26-.064c-.062-.028-.121-.062-.177-.101l-.082-.044c-.038 0-.076-.083-.051-.114.017-.058.053-.109.101-.146zm45.526-3.832c.254-.165.532-.418.083-.519a7.17 7.17 0 0 0-1.064-.127c-.367 0-.74-.044-1.107-.05-.823 0-1.659-.108-2.488-.083a26.29 26.29 0 0 0-2.639.317l-2.595.468-1.139.285a2.86 2.86 0 0 0-.848.285c-.152.101-.19.19-.165.272s0 .108.082.139h.076a2.92 2.92 0 0 0 .816.253 17.78 17.78 0 0 0 2.26.14l2.532.202a7.31 7.31 0 0 0 1.386-.088c.525-.101 1.043-.234 1.551-.399.975-.285 2.329-.519 3.108-1.026l.151-.069zm4.089 2.724c-.363-.159-.75-.254-1.145-.279a4.68 4.68 0 0 0-1.184.152 9.06 9.06 0 0 0-1.171.374c-.324.065-.635.181-.924.341-.348.102-.734.247-.842.45-.139.095-.196.215 0 .285.866.255 1.772.346 2.671.265.811-.049 1.609-.231 2.361-.538.316-.12.772-.341.861-.582s-.355-.367-.627-.468zm5.956-3.914c.044-.044.063-.133 0-.164-.888-.355-1.868-.413-2.791-.165a8.55 8.55 0 0 0-1.013.317c-.291.114-.633.259-.747.481s.323.367.633.405a4.77 4.77 0 0 0 1.431-.045h.411c.773.001 1.516-.296 2.076-.829zm-.627 2.955c-.242-.137-.527-.175-.797-.108l-.26.051h-.031c-.273.014-.537.099-.766.247-.177.139-.171.373.107.424.289.033.582.01.861-.07l.462-.133a1.84 1.84 0 0 0 .323-.146c.12-.082.196-.183.101-.265zm-22.987 1.473c-.44-.035-.881-.048-1.323-.038h-.07-.082a4.37 4.37 0 0 0-1.709.228c-.437.145-1.734.43-1.443.854.133.19.519.26.823.298a9.83 9.83 0 0 0 1.057.063 8.01 8.01 0 0 0 3.165-.298c.361-.151.816-.436.665-.727s-.696-.342-1.082-.38zm-1.627-1.165a.73.73 0 0 0 .24.038 1.32 1.32 0 0 0 .506-.12c.056-.024.105-.064.139-.114.013-.016.021-.036.021-.057s-.007-.041-.021-.057a.66.66 0 0 0-.405-.108.84.84 0 0 0-.253.051.71.71 0 0 0-.184.088l-.082.038c-.038 0-.082.076-.057.114a.26.26 0 0 0 .095.127zm43.121-3.39c.291.076.633.215.247.462a11.09 11.09 0 0 1-2.026.886l-2.398.798c-.88.205-1.772.35-2.671.436a23.87 23.87 0 0 1-2.671.184h-1.19a2.89 2.89 0 0 1-.893-.095c-.17-.063-.234-.146-.221-.228s0-.101.051-.158l.069-.038a3.03 3.03 0 0 1 .741-.424c.708-.27 1.433-.494 2.171-.671l1.202-.399 1.203-.437c.439-.142.89-.245 1.348-.31a13.58 13.58 0 0 1 1.588-.057l1.69-.063c.535-.039 1.073-.012 1.602.082l.158.032zm3.861-2.238c-.181.183-.396.329-.633.43-.249.092-.508.149-.772.171a6.84 6.84 0 0 1-.81 0c-.21.03-.423.03-.633 0-.241 0-.513 0-.633-.095s-.165-.088-.07-.17a4.61 4.61 0 0 1 1.589-.76c.511-.149 1.044-.214 1.576-.19.228 0 .557 0 .633.158s-.095.336-.247.456zm-6.405-.872c.056 0 .107.101.056.158a4.43 4.43 0 0 1-2.531 1.266c-.354.057-.711.093-1.07.107-.316 0-.715 0-.88-.171s.178-.449.456-.633c.202-.121.414-.224.633-.31.224-.088.455-.158.69-.209l.386-.158c.72-.302 1.527-.32 2.26-.05zm6.734-2.501c-.082.197-.424.342-.69.412l-.26.05h-.031a1.47 1.47 0 0 1-.798.07c-.221-.057-.31-.272-.069-.43.248-.144.524-.235.81-.266.159-.029.32-.048.481-.057.116-.013.232-.013.348 0 .146.044.253.107.209.221zm-17.785 7.561c-.207.086-.418.159-.633.222h-.032-.038a2.1 2.1 0 0 1-.88.152c-.253 0-.949.05-.917-.19 0-.108.19-.197.323-.26s.322-.126.493-.183c.495-.224 1.028-.351 1.57-.374.215 0 .506.082.513.234s-.222.298-.399.399zm-.848 1.77c.073-.039.152-.067.234-.082.175-.035.356-.035.531 0a.35.35 0 0 1 .159.089c.014.015.022.035.022.057s-.008.041-.022.057c-.102.102-.236.167-.38.183a.91.91 0 0 1-.266 0 .85.85 0 0 1-.203-.05h-.031-.095c-.038 0-.095-.064-.076-.102.01-.032.026-.062.048-.089s.048-.047.079-.063z" fill="#6c3916"/></g><mask id="B" maskUnits="userSpaceOnUse" x="32" y="104" width="103" height="38"><path d="M134.59 132.574c0 4.797-22.589 8.69-50.456 8.69s-50.475-3.893-50.475-8.69c0-2.254-3.298-9.912 4.848-16.007 9.228-6.899 30.811-12.158 45.608-12.158 20.411 0 37.975 6.493 45.937 15.089 2.924 3.139 4.538 11.791 4.538 13.076z" fill="#fff"/></mask><g mask="url(#B)"><path d="M36.924 122.813a46.72 46.72 0 0 0 46.558 42.874 46.72 46.72 0 0 0 31.646-12.351c8.624-7.943 13.947-18.838 14.912-30.523H36.924z" fill="#e63e22"/><g style="mix-blend-mode:screen"><path d="M37.076 123.501c1.348 2.335 4.272 3.475 6.703 4.266l4.006 1.095 4.5 1.069a95.53 95.53 0 0 0 13.893 1.633l13.291.697c8.785.354 17.627.386 26.361-.716a99.72 99.72 0 0 0 12.697-2.531c3.981-1.045 7.943-2.317 11.392-4.659l.152-1.55H36.924c0 .158.032.316.044.474l.108.222z" fill="#e63e22"/></g><g style="mix-blend-mode:multiply"><path d="M124.077 122.813a29.71 29.71 0 0 1-3.076 5.525 20.01 20.01 0 0 1-6.253 5.83c-3.089 1.772-6.715 2.664-10.19 3.265a78.87 78.87 0 0 1-11.317.994c-4.114.101-8.228.063-12.348-.038a253.14 253.14 0 0 1-26-1.842c-5.538-.708-11.108-1.886-16.171-4.183 3.119 10.433 9.784 19.448 18.843 25.489a46.71 46.71 0 0 0 30.775 7.594 46.72 46.72 0 0 0 41.7-42.634h-5.963z" fill="#e63e22"/></g><path d="M83.482 131.546c25.73 0 46.589-4.089 46.589-9.133s-20.859-9.133-46.589-9.133-46.589 4.089-46.589 9.133 20.859 9.133 46.589 9.133z" fill="#c23a1f"/><g style="mix-blend-mode:multiply" opacity=".37"><path d="M84.216 129.83c20.823 0 37.703-3.245 37.703-7.247s-16.88-7.247-37.703-7.247-37.703 3.245-37.703 7.247 16.88 7.247 37.703 7.247z" fill="#892713"/></g><path d="M84.039 129.052c20.005 0 36.222-2.794 36.222-6.241s-16.217-6.24-36.222-6.24-36.222 2.794-36.222 6.24 16.217 6.241 36.222 6.241z" fill="#763611"/><g style="mix-blend-mode:multiply"><path d="M104.596 122.158a165.5 165.5 0 0 0-17.139-.975c-5.905-.075-11.817.057-17.722.545-2.532.215-5.063.531-7.557.829l-4.804.633a29.82 29.82 0 0 0-5.304 1.266 12.98 12.98 0 0 0-1.639.696c5.361 2.291 18.386 3.911 33.608 3.911 16.038 0 29.64-1.797 34.405-4.285a100.81 100.81 0 0 0-13.848-2.62z" fill="#763611"/></g><g style="mix-blend-mode:multiply"><path d="M46.273 130.178c-.551-.241-1.215-.468-1.836-.69l-2.12-.766-2.31-.721-1.899-.576.165.664.127.051 2.12.88 1.19.405c.405.12.937.228 1.392.335a24.63 24.63 0 0 0 2.861.557h.133c.253.026.544.019.177-.139zm3.151 5.015c.171 0 .373-.045.127-.165-.411-.187-.834-.345-1.266-.475l-1.456-.506c-.494-.158-1.063-.278-1.595-.405l-1.589-.355-.703-.132a2.8 2.8 0 0 0-.532-.07c-.101 0-.139 0-.139.063v.064h.044a3.33 3.33 0 0 0 .437.253c.411.196.867.341 1.304.506l1.462.563a6.74 6.74 0 0 0 .823.241 9.74 9.74 0 0 0 .962.164 13.51 13.51 0 0 0 1.975.235l.146.019z" fill="#e63e22"/><path d="M52.861 132.395c.101 0 .215-.051.076-.127a4.94 4.94 0 0 0-.696-.259l-.804-.279-.899-.183-.892-.133-.399-.045a1.23 1.23 0 0 0-.297 0c-.055 0-.08.019-.076.057v.045a1.32 1.32 0 0 0 .247.145c.228.101.481.184.728.266l.817.291a3.98 3.98 0 0 0 .456.12c.184 0 .367.038.544.057a5.13 5.13 0 0 0 1.108.051l.089-.006zm.177 1.379c.051 0 .108 0 .038-.057a1.88 1.88 0 0 0-.348-.133l-.411-.133c-.139-.038-.304-.063-.456-.089l-.449-.063h-.203c-.05-.006-.102-.006-.152 0h-.038c.038.03.081.053.127.07a3.16 3.16 0 0 0 .367.126l.411.152a1.35 1.35 0 0 0 .234.057h.272a3.24 3.24 0 0 0 .557 0l.051.07zm-11.354-2.363h-.044-.07c-.059.01-.118.01-.177 0h-.076l-.063-.032a.26.26 0 0 1-.089-.094c-.007-.018-.006-.038.001-.055s.02-.032.037-.04c.06-.034.127-.052.196-.051.04-.007.081-.007.12 0 .04-.006.08-.006.12 0l.07.051a.05.05 0 0 1 .005.022c0 .007-.002.015-.005.022 0 0 .006.171-.025.177zm12.734 1.841v.038h-.044-.057c-.025.003-.051.003-.076 0h-.063c-.01.002-.021.002-.032 0v-.038h.051.051.057.038.038a.05.05 0 0 1 .038 0zm6.741 2.9a14.08 14.08 0 0 0-2.411-.595l-1.342-.247a12.53 12.53 0 0 0-1.69-.272h-.114a.92.92 0 0 0-.443 0c-.057 0-.095.045 0 .089a5.38 5.38 0 0 0 1.076.367l1.722.386a16.44 16.44 0 0 0 3.095.373c.095.007.241-.037.108-.101zm6.373-1.937c.247 0 .538-.076.146-.177l-1.899-.405-2.228-.424-2.418-.342-2.38-.304-1.051-.114a6.44 6.44 0 0 0-.785-.063c-.152 0-.196 0-.184.07s0 0 .063.063h.063c.177.082.487.183.696.253l2.006.468 2.253.519 1.266.209a14.39 14.39 0 0 0 1.437.114 28.1 28.1 0 0 0 2.93.12l.082.013zm9.342 2.861c.165-.044.361-.114.095-.183a11.51 11.51 0 0 0-1.316-.234l-1.487-.216c-.544-.063-1.095-.082-1.639-.101s-1.089 0-1.62 0h-.747a2.85 2.85 0 0 0-.538.038c-.095 0-.127.051-.12.089s0 .038.044.057h.044a2.65 2.65 0 0 0 .481.164 11.96 11.96 0 0 0 1.367.247l1.538.266a7.78 7.78 0 0 0 .848.089h.975c.663-.006 1.325-.057 1.981-.152l.095-.064zm3.994-1.595c.095-.038.203-.089.051-.133a4.38 4.38 0 0 0-.728-.133l-.848-.108c-.285-.019-.633 0-.918 0h-.899-.399a1.36 1.36 0 0 0-.297.051c-.057 0-.07.044-.063.07s0 0 0 .038c.087.041.178.073.272.094a7.07 7.07 0 0 0 .766.127l.854.146a3.14 3.14 0 0 0 .475 0c.184 0 .361 0 .538-.051.383.013.766-.008 1.146-.063l.051-.038zm.082 1.937c.044 0 .101-.044 0-.069a2.27 2.27 0 0 0-.367-.063c-.146 0-.285-.045-.43-.057a3.56 3.56 0 0 0-.462 0h-.456-.203a.44.44 0 0 0-.145 0c.043.018.087.033.133.044.127 0 .26.038.386.05l.437.064c.078.006.156.006.234 0a2.06 2.06 0 0 0 .272 0 2.99 2.99 0 0 0 .557-.082l.044.113zm-13.215.38a1.53 1.53 0 0 1-.747.114 13.82 13.82 0 0 1-1.449-.158l-.892-.184c-.26-.076-.494-.158-.576-.335 0-.07.108-.139.196-.152a6.34 6.34 0 0 1 1.152-.057c.294.012.585.059.867.139h.146c.26 0 .525.07.779.121a1.82 1.82 0 0 1 .563.17c.164.121.108.26-.038.342z" fill="#e63e22"/><path d="M70.482 137.42h-.051l-.057.044a.51.51 0 0 1-.177.038h-.076-.07c-.04-.016-.075-.042-.101-.076-.007-.005-.012-.013-.016-.021s-.006-.017-.006-.026.002-.018.006-.026.009-.016.016-.021c.05-.048.115-.079.184-.089.038-.006.076-.006.114 0 .042-.007.085-.007.127 0 .025-.005.051-.005.076 0 .016.009.029.022.038.038 0 0 .019.101-.006.139zm11.721-.745c.005.014.005.03 0 .044h-.044a.11.11 0 0 1-.051 0h-.095-.063-.038v-.038h.051.044.165c.021-.007.026-.007.032-.006zm-2.227 2.012a5.51 5.51 0 0 0-1.462-.184l-.81-.044c-.339-.031-.68-.031-1.019 0h-.07c-.127 0-.234.038-.253.076s-.057.044 0 .063a2.39 2.39 0 0 0 .633.159 11.53 11.53 0 0 0 1.038.101 7.68 7.68 0 0 0 1.855-.063c.095-.019.177-.064.089-.108zm14.753-4.115c.24-.069.513-.177.114-.202l-1.962-.045h-2.259l-2.424.095-2.386.14-1.051.069a5.22 5.22 0 0 0-.779.089c-.145 0-.19.063-.171.095s0 .038.076.057h.063a6.07 6.07 0 0 0 .734.12l2.044.114 2.297.095h1.266c.424 0 .962-.108 1.43-.165a27.25 27.25 0 0 0 2.886-.411l.12-.051zm3.62 2.605c.158-.064.342-.159.07-.197a11.68 11.68 0 0 0-1.336-.044h-1.538c-.513 0-1.101.101-1.639.146l-1.614.19-.709.114a2.78 2.78 0 0 0-.525.12c-.095.038-.12.076-.108.107s0 .038.051.051h.044a2.49 2.49 0 0 0 .5.082c.449.045.93.038 1.393.045l1.563.057a7.87 7.87 0 0 0 .854-.051l.962-.177c.657-.096 1.306-.238 1.943-.424l.089-.019zm3.437-1.822c.088-.044.183-.114 0-.139-.249-.022-.499-.022-.747 0h-.848c-.285 0-.633.082-.905.133l-.886.171-.392.089c-.099.015-.195.045-.285.088-.051 0-.063.057-.057.076s0 0 0 .038a1.32 1.32 0 0 0 .279.051 6.32 6.32 0 0 0 .778 0h.867a4.07 4.07 0 0 0 .468-.045c.184 0 .354-.088.525-.133a6.2 6.2 0 0 0 1.07-.316l.133-.013zm.62 1.255c.045 0 .095-.057 0-.07-.126-.013-.253-.013-.379 0h-.431c-.152 0-.304.038-.456.063l-.443.095-.196.051c-.051.009-.1.026-.145.051v.038a.54.54 0 0 0 .139 0h.392.437.24a2.19 2.19 0 0 0 .266-.064c.184-.037.364-.09.538-.158l.038-.006zm-14.702 2.567a1.68 1.68 0 0 1-.728.215 9.52 9.52 0 0 1-1.462.038 7.21 7.21 0 0 1-.905-.07c-.241-.038-.513-.089-.633-.253-.051-.07.089-.158.165-.184a6.11 6.11 0 0 1 1.139-.196c.292-.032.587-.032.88 0h.152.785a1.58 1.58 0 0 1 .582.095c.196.108.158.253.025.355z" fill="#e63e22"/><path d="M90.919 138.159h-.044l-.057.051a.44.44 0 0 1-.165.063h-.146a.2.2 0 0 1-.114-.057v-.101c.044-.052.101-.091.165-.114h.12c.042-.007.085-.007.127 0h.082c.012-.004.026-.004.038 0 0 0 .019.139-.006.158zm12.614-2.498c.006.016.006.034 0 .05l-.038.038a.11.11 0 0 1-.051 0h-.069-.095-.045c.015-.003.03-.003.045 0h.044c.021-.006.043-.006.063 0h.102l.044-.088zm7.342.493a12.27 12.27 0 0 0-2.469.266l-1.348.208a12.99 12.99 0 0 0-1.683.304h-.114a.8.8 0 0 0-.405.178c-.051.037-.076.069 0 .088.379.038.76.038 1.139 0l1.753-.202a17.19 17.19 0 0 0 3.038-.703c.089-.063.215-.139.089-.139zm6.683-4.891c.222-.107.475-.253.076-.215l-1.949.272-2.241.361-2.386.487-2.342.526-1.031.24c-.258.051-.511.119-.76.203-.139.057-.177.095-.152.12s0 .044.083.044h.069c.247.019.494.019.741 0 .633 0 1.361-.139 2.044-.227l2.298-.266a10.43 10.43 0 0 0 1.265-.222l1.386-.392 2.792-.874.107-.057zm8.785-1.111c.146-.095.304-.228 0-.209-.443.05-.882.126-1.316.228l-1.5.322-1.564.494-1.538.506-.677.254a2.64 2.64 0 0 0-.487.215c-.082.057-.108.101-.082.126s0 .038.057.038h.05a2.61 2.61 0 0 0 .5 0c.45-.05.918-.152 1.374-.234l.772-.126.766-.146.822-.228c.273-.088.633-.24.906-.367.623-.229 1.229-.499 1.816-.81l.101-.063zm2.488-2.457c.076-.063.158-.152 0-.139a4.47 4.47 0 0 0-.728.126l-.829.197a7.71 7.71 0 0 0-.861.316l-.829.355-.367.164c-.092.038-.179.087-.26.146-.044.038-.05.069-.038.088s0 0 .038 0c.095.013.19.013.285 0 .256-.033.51-.083.76-.152l.848-.177c.153-.036.303-.085.449-.145.171-.07.329-.152.494-.235a6.65 6.65 0 0 0 .974-.531l.064-.013zm-.519 3.783c.038 0 .076-.082 0-.076-.125.012-.248.035-.367.07l-.424.095c-.14.038-.292.101-.431.158l-.418.184-.183.088c-.047.023-.092.05-.133.083v.044a.54.54 0 0 0 .139 0c.127 0 .253-.057.38-.089l.43-.088a1.65 1.65 0 0 0 .228-.076c.089 0 .165-.076.247-.114a3.44 3.44 0 0 0 .494-.272l.038-.007zm-10.716 3.964c-.183.18-.414.305-.664.361-.467.143-.943.257-1.424.342l-.893.126a.92.92 0 0 1-.633-.12c-.057-.057.057-.171.127-.209a5.86 5.86 0 0 1 1.07-.437 3.71 3.71 0 0 1 .867-.17h.145c.253-.064.513-.114.772-.152.193-.028.39-.028.583 0 .164-.019.158.133.05.259zm2.443-1.332h-.038a.19.19 0 0 1-.044.057.39.39 0 0 1-.146.101h-.075-.07a.36.36 0 0 1-.127-.038c-.038 0-.031-.063 0-.101.036-.057.084-.107.14-.145l.107-.045c.04-.019.083-.032.127-.038h.082.044c.045.146.026.184 0 .209zm5.184-.749a5.78 5.78 0 0 0-1.437.336l-.772.259c-.326.095-.645.211-.956.348h-.063c-.114.051-.209.114-.215.159s-.038.057 0 .063c.23.008.461-.017.683-.076a13.03 13.03 0 0 0 1.007-.291 8.13 8.13 0 0 0 1.715-.709c.07-.019.127-.089.038-.089z" fill="#e63e22"/></g></g><mask id="C" maskUnits="userSpaceOnUse" x="47" y="99" width="74" height="31"><path d="M120.267 122.811c0 3.443-16.221 6.241-36.228 6.241s-36.222-2.798-36.222-6.241c0-2.076-.462-10.007 8.608-16.19 5.994-4.083 19.747-7.545 27.709-7.545 13.817 0 27.019 7.083 33.102 14.203 2.727 3.19 3.031 8.462 3.031 9.532z" fill="#fff"/></mask><g mask="url(#C)"><path d="M51.912 114.3c.555 7.994 4.122 15.481 9.981 20.947s13.575 8.508 21.589 8.508 15.729-3.041 21.588-8.508 9.427-12.953 9.982-20.947h-63.14z" fill="#e99723"/><g style="mix-blend-mode:screen"><path d="M53.627 116.541a16.83 16.83 0 0 0 4.513 1.696 73.96 73.96 0 0 0 12.026 1.785l9.089.557a121.42 121.42 0 0 0 12.526.05l5.994-.411 5.437-.589c3.348-.512 6.741-1.379 9.627-3.215.79-.507 1.52-1.102 2.177-1.772 0-.127.032-.241.038-.367H51.944c-.019 1.051.874 1.797 1.684 2.266z" fill="#e99723"/></g><g style="mix-blend-mode:multiply" opacity=".47"><path d="M107.248 125.227l-6.418 1.121-7.93.633c-5.304.253-10.639.367-15.943.113-5.258-.236-10.499-.77-15.696-1.601a98.97 98.97 0 0 1-3.797-.69c-1.053-.169-2.096-.391-3.127-.664 2.434 5.753 6.517 10.657 11.733 14.094s11.333 5.253 17.58 5.22a31.64 31.64 0 0 0 17.523-5.407c5.18-3.492 9.21-8.439 11.583-14.217a50.4 50.4 0 0 1-5.507 1.398z" fill="#e99723"/></g><path d="M83.482 120.224c17.45 0 31.595-2.771 31.595-6.19s-14.145-6.19-31.595-6.19-31.595 2.772-31.595 6.19 14.146 6.19 31.595 6.19z" fill="#e67726"/><path d="M83.862 118.639c14.066 0 25.469-2.224 25.469-4.968s-11.403-4.969-25.469-4.969-25.469 2.225-25.469 4.969 11.403 4.968 25.469 4.968z" fill="#c23a1f"/><path d="M83.862 117.66c13.391 0 24.247-1.87 24.247-4.177s-10.856-4.178-24.247-4.178-24.247 1.871-24.247 4.178 10.856 4.177 24.247 4.177z" fill="#704a0f"/><g style="mix-blend-mode:multiply"><path d="M103.501 113.921a101.15 101.15 0 0 0-11.481-1.178c-3.88-.208-7.772-.36-11.658-.354-3.958-.03-7.912.239-11.829.804a54.4 54.4 0 0 0-7.525 1.683c3.329 1.621 12.304 2.785 22.855 2.785 11.032 0 20.342-1.266 23.272-3.012-1.202-.279-2.418-.519-3.633-.728z" fill="#704a0f"/></g></g></g><mask id="D" maskUnits="userSpaceOnUse" x="59" y="89" width="50" height="29"><path d="M108.102 113.491c0 2.303-10.854 4.177-24.24 4.177s-24.254-1.874-24.254-4.177 10.861-23.526 24.254-23.526 24.24 21.215 24.24 23.526z" fill="#fff"/></mask><g mask="url(#D)"><path d="M103.483 116.306c1.752-10.683-5.489-20.763-16.172-22.514s-20.763 5.489-22.514 16.172 5.489 20.763 16.172 22.514 20.763-5.489 22.514-16.172z" fill="#fcef42"/><g style="mix-blend-mode:multiply"><path d="M84.134 93.533a19.62 19.62 0 0 0-18.127 12.112c-1.485 3.585-1.874 7.531-1.117 11.337a19.62 19.62 0 0 0 15.416 15.415 19.62 19.62 0 0 0 20.142-8.343c2.156-3.226 3.306-7.02 3.306-10.9a19.62 19.62 0 0 0-19.62-19.621zm7.956 11.848c-.088 1.46-.469 2.887-1.12 4.197a8.13 8.13 0 0 1-2.962 3.164c-1.275.765-2.684 1.281-4.152 1.519a28.57 28.57 0 0 1-8.31 0c-2.082-.246-4.291-.633-6.095-1.759a5.25 5.25 0 0 1-1.956-2.032 5.38 5.38 0 0 1-.475-3.095 12.66 12.66 0 0 1 1.222-3.905 16.25 16.25 0 0 1 2.399-3.614 14.24 14.24 0 0 1 4.209-3.329 15.19 15.19 0 0 1 5.696-2.057c2.57-.373 5.399-.19 7.665 1.203.962.623 1.784 1.437 2.417 2.392s1.062 2.03 1.26 3.158a15.02 15.02 0 0 1 .203 4.158z" fill="#f8d323"/></g><g style="mix-blend-mode:multiply"><path d="M102.444 106.135c0 .145.051.297.063.443.121 1.051.136 2.111.045 3.164a5.7 5.7 0 0 1-1 2.861 6.18 6.18 0 0 1-2.298 1.772 13.4 13.4 0 0 1-2.848 1.019 36.02 36.02 0 0 1-6.272.836c-.962.063-13.88.272-15.19.183-2.354-.164-4.886-.291-7.019-1.417a5.22 5.22 0 0 1-1.77-1.517 5.21 5.21 0 0 1-.933-2.135c-.184-1.071-.184-2.164 0-3.235-.805 2.992-.891 6.133-.249 9.164a19.62 19.62 0 0 0 3.941 8.276c1.949 2.409 4.44 4.323 7.27 5.584a19.64 19.64 0 0 0 9.013 1.671 19.63 19.63 0 0 0 8.789-2.606c2.683-1.55 4.96-3.714 6.646-6.314a19.61 19.61 0 0 0 3.052-8.643 19.62 19.62 0 0 0-1.207-9.087l-.032-.019z" fill="#f4bf3e"/></g></g><g style="mix-blend-mode:color-dodge" opacity=".56"><path d="M39.551 169.929c.254-.774.416-1.575.481-2.386-.103-.885-.423-1.73-.93-2.462-.961-1.641-2.333-3.002-3.981-3.95l-2.532-1.373a6.97 6.97 0 0 1-2.12-2.019c-.924-1.361-1.696-3.127-3.329-3.798-.323-.126-.709.184-.816.462-.38.994 0 2.019.506 2.899l.361.633a17.24 17.24 0 0 0 1.405 3.43l2.741 5.444c1.082 1.721 2.532 3.348 3.405 5.265.69 1.557 1.228 3.209 2.475 4.431a1.54 1.54 0 0 0 .657.471c.257.096.535.121.805.073.772-.209 1.127-1.076 1.266-1.797.323-1.798-.734-3.526-.392-5.323z" fill="#add142"/></g><defs><radialGradient id="E" cx="0" cy="0" r="1" gradientUnits="userSpaceOnUse" gradientTransform="translate(83.4151 112.379) rotate(90) scale(112.379 83.4151)"><stop stop-color="#d0731d"/><stop offset="1" stop-color="#6b4c2f"/></radialGradient></defs></svg>