<svg xmlns="http://www.w3.org/2000/svg" width="167" height="225" fill="none" xmlns:v="https://vecta.io/nano"><style><![CDATA[.B{fill:#fff}.C{opacity:.4}.D{fill:#725e4a}.E{opacity:.6}.F{fill:#515a6d}.G{opacity:.8}.H{fill:#d37f40}.I{stroke:#d37f40}.J{stroke-width:1.1}.K{stroke-miterlimit:10}.L{fill:#f4e4ef}]]></style><rect width="166.83" height="224.757" rx="12.744" fill="url(#A)"/><path d="M47.333 42c-.674 0-1.28-.144-1.819-.431a3.31 3.31 0 0 1-1.292-1.186 2.86 2.86 0 0 1-.228-.448 2.5 2.5 0 0 1-.149-.501 4.85 4.85 0 0 1-.097-.615c-.018-.164-.026-.425-.026-.782v-5.994h3.797v4.245c0 .703.047 1.163.141 1.38.105.375.527.565 1.266.571h6.996c.738-.006 1.163-.196 1.274-.571.094-.217.141-.677.141-1.38v-4.606h3.797v6.557l-.035.58c-.018.229-.044.434-.079.615a4.61 4.61 0 0 1-.158.501 3.43 3.43 0 0 1-.237.448c-.322.516-.75.911-1.283 1.186-.539.287-1.146.431-1.819.431H47.333zm4.105-15.504a1.83 1.83 0 0 0-1.318-.536 1.8 1.8 0 0 0-1.309.536c-.363.369-.545.809-.545 1.318 0 .516.182.952.545 1.31a1.75 1.75 0 0 0 1.31.554 1.78 1.78 0 0 0 1.318-.554c.363-.357.545-.794.545-1.309 0-.51-.182-.949-.545-1.318zm4.755 0a1.83 1.83 0 0 0-1.318-.536 1.78 1.78 0 0 0-1.309.536c-.363.369-.545.809-.545 1.318 0 .516.182.952.545 1.31a1.75 1.75 0 0 0 1.31.554 1.78 1.78 0 0 0 1.318-.554 1.78 1.78 0 0 0 .536-1.309 1.83 1.83 0 0 0-.536-1.318zm10.187 4.228v5.564c0 .703.047 1.163.141 1.38.106.375.527.565 1.266.571h.545V42h-2.136c-.674 0-1.28-.144-1.819-.431a3.31 3.31 0 0 1-1.292-1.186 2.87 2.87 0 0 1-.228-.448 2.5 2.5 0 0 1-.149-.501c-.041-.176-.073-.381-.097-.615-.018-.164-.026-.425-.026-.782V27.674h4.034v3.05h-.237zm3.823 15.653c.516 0 .955-.182 1.318-.545a1.8 1.8 0 0 0 .536-1.309 1.81 1.81 0 0 0-.536-1.318c-.369-.363-.809-.545-1.318-.545-.516 0-.952.182-1.309.545-.363.363-.545.803-.545 1.318s.182.952.545 1.31c.357.363.794.545 1.31.545zm4.755 0c.51 0 .949-.182 1.318-.545a1.8 1.8 0 0 0 .536-1.309 1.81 1.81 0 0 0-.536-1.318c-.369-.363-.809-.545-1.318-.545-.516 0-.952.182-1.309.545a1.78 1.78 0 0 0-.554 1.318 1.75 1.75 0 0 0 .554 1.31c.357.363.794.545 1.31.545zM67.618 42v-3.762h4.14c.738-.006 1.16-.196 1.266-.571.1-.217.15-.677.15-1.38v-4.245h3.788v6.196h1.081V42H67.618zm18.334-3.762c.082-.059.132-.173.15-.343v-.053c0-.621-.185-1.11-.554-1.468-.358-.34-.826-.516-1.406-.527h-.079c-.633 0-1.137.188-1.512.563-.387.387-.58.888-.58 1.503l-.009.325h3.99zm-7.55 0v-6.574H81.9v.703c.674-.258 1.394-.387 2.162-.387h.079c1.043.012 1.963.249 2.76.712.809.463 1.485 1.169 2.03 2.118.211.381.375.812.492 1.292a6.95 6.95 0 0 1 .167 1.485v.65a7.62 7.62 0 0 1-.097.896c-.059.404-.117.671-.176.8a2.87 2.87 0 0 1-.229.448c-.328.516-.759.911-1.292 1.186-.539.287-1.146.431-1.819.431h-8.657v-3.762h1.081zm7.901-9.563c0-.51-.182-.946-.545-1.31-.369-.363-.809-.545-1.318-.545s-.946.182-1.309.545-.545.8-.545 1.31c0 .521.182.961.545 1.318.357.363.794.545 1.31.545s.955-.182 1.318-.545.545-.803.545-1.318zm8.534 2.048v5.564c0 .703.047 1.163.141 1.38.106.375.527.565 1.266.571h.545V42h-2.136c-.674 0-1.28-.144-1.819-.431a3.31 3.31 0 0 1-1.292-1.186 2.86 2.86 0 0 1-.228-.448 2.5 2.5 0 0 1-.149-.501 4.85 4.85 0 0 1-.097-.615c-.018-.164-.026-.425-.026-.782V27.674h4.034v3.05h-.237zM96.077 42v-3.762h4.14c.738-.006 1.16-.196 1.265-.571.1-.217.15-.677.15-1.38v-4.245h3.788v5.994l-.026.782a4.37 4.37 0 0 1-.088.615 2.91 2.91 0 0 1-.159.501 2.87 2.87 0 0 1-.228.448 3.31 3.31 0 0 1-1.292 1.186c-.539.287-1.146.431-1.819.431h-5.731zm2.584 4.377c.516 0 .955-.182 1.318-.545a1.8 1.8 0 0 0 .537-1.309 1.81 1.81 0 0 0-.537-1.318c-.369-.363-.809-.545-1.318-.545-.516 0-.952.182-1.309.545-.363.363-.545.803-.545 1.318s.182.952.545 1.31c.357.363.794.545 1.31.545zm4.755 0c.51 0 .949-.182 1.318-.545a1.8 1.8 0 0 0 .537-1.309 1.81 1.81 0 0 0-.537-1.318c-.369-.363-.808-.545-1.318-.545-.516 0-.952.182-1.31.545a1.78 1.78 0 0 0-.553 1.318 1.75 1.75 0 0 0 .553 1.31c.358.363.794.545 1.31.545zm2.725-2.602c1.113-.223 1.737-.814 1.872-1.775l-.027-10.529 3.788-.009v6.776h1.872V42h-1.968c-.088 2.256-1.398 3.762-3.929 4.518l-1.608-2.742zm12.542-13.069v7.33l-.036.782c-.017.229-.043.434-.079.615-.047.182-.099.349-.158.501-.082.182-.161.331-.237.448-.322.516-.75.911-1.283 1.186-.539.287-1.146.431-1.82.431h-2.135v-3.762h.536c.738-.006 1.163-.196 1.274-.571.094-.217.141-.677.141-1.38v-8.613h4.034v3.032h-.237zM121.653 42V30.794h-.571v-3.12h4.069V42h-3.498z" fill="#f7bf59"/><g class="H"><path d="M23.135 119.712l-.12-.317.462-.174-.032-.022 10.69-14.761c7.949-11.08 10.921-15.227 12.723-14.809 1.307.317 1.744 2.957 2.532 7.762.551 3.35 1.235 7.522 2.469 12.542l.041.168-.168.041c-3.064.754-5.974 1.9-8.785 3.008-2.934 1.155-5.967 2.352-9.231 3.127-3.612.858-6.724 2.01-10.022 3.236l-.56.199zm23.463-29.757c-1.646 0-5.043 4.748-12.181 14.692l-10.415 14.387c3.166-1.168 6.16-2.263 9.636-3.089 3.238-.769 6.262-1.96 9.18-3.112 2.77-1.092 5.635-2.216 8.661-2.979-1.212-4.96-1.899-9.082-2.434-12.399-.715-4.353-1.187-7.227-2.27-7.48-.058-.017-.117-.028-.177-.032v.013z"/><path d="M28.447 118.142l-.386-.387c-1.124-1.136-1.583-1.605-2.688-1.605v-.335c1.244 0 1.808.573 2.931 1.709l.386.387-.244.231zm.658-1.13a10.45 10.45 0 0 1-.823-.681c-.576-.513-1.175-1.041-1.925-1.206l.076-.339c.839.184 1.469.744 2.08 1.286.253.233.518.453.795.658l-.203.282zm20.637-6.46c-.335-.898-.799-1.742-1.377-2.507l.266-.224a10.18 10.18 0 0 1 1.431 2.595l-.32.136z"/><path d="M48.498 107.973v-.348c.438-.029.867-.136 1.266-.317a5.67 5.67 0 0 1 1.019-.316l.057.342c-.325.068-.643.168-.95.297a4.02 4.02 0 0 1-1.393.342zm-14.521-5.137l-.342-.047c.016-.122.023-.245.022-.368-.013-.404-.059-.806-.139-1.202a7.4 7.4 0 0 1-.142-1.219h.348a7.1 7.1 0 0 0 .136 1.162c.085.417.133.84.146 1.266 0 .136-.009.273-.028.408z"/><path d="M32.552 101.709l-.051-.342.902-.165a8.11 8.11 0 0 1 1.678-.221v.345a7.79 7.79 0 0 0-1.608.215l-.921.168zm21.374 2.036c-.328-.158-.614-.392-.833-.684-.183-.25-.423-.453-.7-.592l.127-.317a2.22 2.22 0 0 1 .833.687 1.97 1.97 0 0 0 .703.592l-.13.314z"/><path d="M53.436 106.788l-.025-.715a17.24 17.24 0 0 1 .798-4.71l.317.095c-.474 1.494-.738 3.048-.785 4.615l.025.69-.329.025zm-21.767 5.86c-.38 0-.573-.351-.573-1.044v-.374-.376a2.48 2.48 0 0 0-.038-.463l.339-.066c.034.174.05.351.047.529v.392.358c0 .212.022.699.225.699a1.72 1.72 0 0 0 .633-.259c.115-.068.233-.129.355-.184l.136.317a3.3 3.3 0 0 0-.317.168 1.8 1.8 0 0 1-.807.303z"/><path d="M33.201 113.558l-.507-1.013-.516-1.032.317-.142.507 1.013.513 1.029-.313.145zm1.137-1.144a.67.67 0 0 1-.344-.092.68.68 0 0 1-.251-.253l.291-.183a.34.34 0 0 0 .317.183.63.63 0 0 0 .589-.668c0-.357-.193-.74-.481-.74h-.07l-.633.054c-.583 0-.877-.251-1.127-.95l.317-.117c.218.617.415.715.798.715.162 0 .462-.032.605-.047h.108c.516 0 .826.554.826 1.089.005.128-.016.256-.061.376a.98.98 0 0 1-.201.325c-.088.094-.193.169-.31.222s-.243.082-.372.086z"/><path d="M32.888 110.049l-.209-.279a1.69 1.69 0 0 1 .997-.417v.348a1.4 1.4 0 0 0-.788.348zm2.308-.817a.44.44 0 0 1-.188-.046.45.45 0 0 1-.151-.122l-.209.124a.8.8 0 0 1-.114-.405.56.56 0 0 1 .13-.437c.051-.059.114-.108.185-.141a.57.57 0 0 1 .226-.054.56.56 0 0 1 .573.603c.002.061-.008.122-.03.18a.47.47 0 0 1-.097.154c-.042.044-.093.08-.149.105s-.117.038-.178.039zm-.199-.633c.044.177.139.298.199.298s.105-.042.105-.13-.095-.269-.206-.269c-.037.002-.072.015-.102.036a.2.2 0 0 0-.069.084l.073-.019zm75.423 5.417v-.095l-6.867-46.676-.104.56c-.108.633-.231 1.339-.481 1.709l-.288-.196c.209-.317.316-1.007.427-1.583.127-.738.168-1.038.434-1.041.573 0 .775 1.333 7.224 47.167v.095l-.345.06z"/><path d="M89.59 96.403l-.105-.332c3.694-1.152 7.537-1.637 11.605-2.153 4.413-.56 8.974-1.136 13.732-2.621l.769-.244.076-.022 20.893-1.444c.616.02 1.225.132 1.808.332a8.33 8.33 0 0 0 1.386.317l-.035.345c-.49-.063-.974-.169-1.446-.317-.551-.187-1.125-.294-1.707-.316l-20.864 1.45-.772.247c-4.787 1.491-9.367 2.073-13.796 2.634-4.055.497-7.882.981-11.545 2.124z"/><path d="M139.119 90.433c-.75-.165-1.295-.693-1.82-1.206a6.69 6.69 0 0 0-.95-.81l.187-.291c.36.252.694.537 1 .852.516.5 1.001.972 1.656 1.117l-.073.339z"/><path d="M136.558 91.422l-.212-.275c.27-.207.576-.364.902-.462a7.05 7.05 0 0 1 .969-.203 6.48 6.48 0 0 0 .949-.199c.119-.036.235-.08.349-.13l.142.317a3.11 3.11 0 0 1-.386.149 7.6 7.6 0 0 1-.994.209 6.4 6.4 0 0 0-.918.193 2.38 2.38 0 0 0-.801.402zM105.64 69.65a3.61 3.61 0 0 0-1.013-1.178 3.88 3.88 0 0 1-1.102-1.295l.316-.146c.247.463.593.865 1.013 1.178a3.89 3.89 0 0 1 1.102 1.298l-.316.142zm14.802 27.277a3.8 3.8 0 0 1-2.327-.978c-.923-.756-1.616-1.755-2-2.884 0 0 0-.035-.022-.085l-.634-2.295-.044-.142c-1.652-5.306-2.095-6.733-9.053-7.572l.041-.345c7.179.867 7.683 2.479 9.345 7.813l.044.142c.177.573.396 1.352.649 2.311l.019.076c.368 1.064 1.026 2.005 1.899 2.716.883.725 1.801 1.029 2.533.845.538-2.532 3.586-15.087 11.526-18.762l.145.317c-7.809 3.612-10.813 16.075-11.336 18.534-.025.12-.038.187-.136.215a2.13 2.13 0 0 1-.649.095z"/><path d="M128.615 94.649c-.085 0-.151-.101-.465-.589-7.316-11.292-15.359-16.619-22.647-15.005l-.076-.339c7.443-1.649 15.613 3.735 23.011 15.154l.257.389c1.234-.633 4.713-5.723 7.521-9.848l3.799-5.407.272.212c-.912 1.171-2.308 3.223-3.799 5.382-3.846 5.644-6.647 9.665-7.816 10.025a.21.21 0 0 1-.057.025zm-9.439-15.689c-.224.008-.446-.033-.652-.12a.44.44 0 0 1-.222-.247c-.025-.09-.04-.182-.044-.275s-.018-.185-.041-.275l.332-.101c.03.114.05.231.057.348a1.34 1.34 0 0 0 .025.2c.015.018.033.032.054.041a1.61 1.61 0 0 0 .95.022c.111-.026.214-.078.301-.151a.72.72 0 0 0 .199-.273c.055-.168.055-.349 0-.516-.111-.355-.488-.554-.886-.763-.453-.237-.922-.484-1.08-1-.099-.305-.075-.637.066-.925a1.23 1.23 0 0 1 .694-.616 1.18 1.18 0 0 1 .696 0l-.098.336a.8.8 0 0 0-.494 0c-.214.081-.389.241-.489.447a.89.89 0 0 0-.046.661c.117.377.504.579.915.795s.899.475 1.051.95a1.17 1.17 0 0 1 0 .744 1.06 1.06 0 0 1-.286.404c-.126.11-.277.189-.439.23a2.08 2.08 0 0 1-.563.089zm2.418-1.366a6.4 6.4 0 0 1-.203-1.174 6.25 6.25 0 0 0-.193-1.152 2.26 2.26 0 0 0-.129-.317l.316-.158a2.42 2.42 0 0 1 .149.377c.109.399.179.807.209 1.219a6.17 6.17 0 0 0 .187 1.105l-.336.101zm2.792-.134a5.74 5.74 0 0 1-.171-.991c-.023-.284-.071-.566-.142-.842-.111-.351-.317-.484-.586-.396-.071.023-.136.065-.187.12s-.087.123-.104.196a1.12 1.12 0 0 0-.047.244c.462 1.488.357 1.523.196 1.583s-.288-.142-.393-.478a3.24 3.24 0 0 1-.155-1.057l-.114-.348-.12-.377c-.084-.252-.149-.51-.193-.772l.342-.057c.042.246.103.488.18.725l.073.222a.73.73 0 0 1 .418-.317c.364-.114.823 0 1.019.633.081.296.133.599.155.905a5.4 5.4 0 0 0 .162.927l-.333.079zm3.305-1.095a19.64 19.64 0 0 0-.769-1.418l-.782-1.437.317-.149a19.11 19.11 0 0 0 .769 1.412l.782 1.444-.317.149z"/><path d="M126.267 76.246l-.317-.136c.551-1.266 1.418-2.181 2.26-2.988l.238.25c-.849.82-1.653 1.652-2.181 2.874zm9.395 24.131a1.18 1.18 0 0 1-.399-.07c-.137-.051-.26-.134-.36-.241a.95.95 0 0 1-.216-.376 1.21 1.21 0 0 1 .785-1.497 1.32 1.32 0 0 1 .541-.051l-.034.345a1.01 1.01 0 0 0-.406.035.87.87 0 0 0-.489.421c-.103.198-.126.428-.065.642a.58.58 0 0 0 .365.402 1 1 0 0 0 .633 0 1.38 1.38 0 0 0 .949-.984l.342.057a1.72 1.72 0 0 1-.428.797c-.212.223-.479.385-.775.469-.144.038-.294.055-.443.051zm3.596-1.754a.63.63 0 0 1-.418-.158 1.14 1.14 0 0 1-.316-.513c-.002-.015-.002-.03 0-.044l-.108.035c-.275-.883-.136-1.481.38-1.643a1.01 1.01 0 0 1 .76.067 1.11 1.11 0 0 1 .541.677c.113.355.083.74-.082 1.073a.95.95 0 0 1-.229.294.97.97 0 0 1-.325.184c-.066.02-.134.029-.203.028zm-.633-1.307l.215.063a.83.83 0 0 0 .016.469.76.76 0 0 0 .212.351c.037.036.082.061.132.072s.102.008.15-.009a.58.58 0 0 0 .207-.122.59.59 0 0 0 .141-.195 1.09 1.09 0 0 0 .054-.807.76.76 0 0 0-.136-.274.77.77 0 0 0-.234-.198.64.64 0 0 0-.243-.071.63.63 0 0 0-.251.03c-.257.085-.295.396-.263.69zm3.026 1.126l-.167-.317.139-.073c.731-.392 1.374-.794 1.184-1.406-.063-.203-.206-.231-.491-.272a1.15 1.15 0 0 1-.737-.317.24.24 0 0 1-.061-.098c-.079-.256.27-.554.434-.605l.101.317c-.073.041-.136.098-.183.168a.99.99 0 0 0 .494.161c.285.041.633.092.772.51.291.95-.696 1.466-1.348 1.814l-.137.117zm3.578-1.819l-.317-.161c.13-.244.526-.994.351-1.545a.8.8 0 0 0-.145-.275l.269-.218a1.16 1.16 0 0 1 .209.389c.202.617-.114 1.33-.367 1.811z"/><path d="M144.273 95.764l-.048-.345c.421-.057.877-.161 1.32-.263l1.349-.269.047.342c-.421.06-.877.165-1.32.266l-1.348.269zm-43.686-25.046c-.233-.174-.432-.388-.589-.633a2.27 2.27 0 0 0-.421-.488l.218-.269a2.56 2.56 0 0 1 .484.56c.134.216.305.406.507.56l-.2.269z"/><path d="M98.777 75.025l-.317-.149.503-1.022c.665-1.32 1.349-2.684 1.627-4.179l.338.063c-.285 1.542-.981 2.931-1.655 4.274l-.497 1.013zm42.213 14.146a14.62 14.62 0 0 1-1.292-1.561l.285-.196a15.01 15.01 0 0 0 1.266 1.526l-.259.231z"/><path d="M139.999 89.394l-.298-.184.425-.69 1.899-2.925.282.206c-.675.931-1.267 1.899-1.877 2.9l-.431.693zm-88.994-9.07h-.029c-.633-.032-1.396-.465-1.959-1.326h-.101c-.003-.046-.003-.093 0-.139a5.03 5.03 0 0 1-.57-1.485c-.687 1.266-1.788 2.305-3.517 2.475l-.035-.345c1.865-.184 2.893-1.485 3.454-2.688-.064-.489-.082-.983-.054-1.475.184-3.656.601-3.678.763-3.678s.373.111.421 1.083c.036 1.411-.228 2.814-.775 4.115a5.34 5.34 0 0 0 .462 1.542 1.72 1.72 0 0 1 .332-.465 1.32 1.32 0 0 1 .994-.44c.95.047 1.197 1.583 1.171 2.102-.022.639-.377.725-.557.725zm-1.706-1.548c.497.782 1.152 1.178 1.694 1.206.139 0 .222-.133.234-.418.025-.465-.199-1.706-.842-1.741a1.02 1.02 0 0 0-.728.339c-.171.17-.295.382-.358.614zm-.336-6.676c-.123.317-.316 1.231-.412 3.248v.741c.576-1.694.56-3.476.412-3.989zm14.356 7.186h-.032c-.706-.035-1.434-.529-1.95-1.323h-.108c0-.047 0-.095.016-.142a5.12 5.12 0 0 1-.57-1.485c-.687 1.266-1.789 2.308-3.52 2.479l-.025-.351c1.865-.187 2.893-1.488 3.45-2.691a8.38 8.38 0 0 1-.054-1.475c.187-3.653.602-3.675.763-3.675s.374.111.421 1.083a9.98 9.98 0 0 1-.776 4.115c.071.536.226 1.057.459 1.545a1.76 1.76 0 0 1 .336-.475 1.34 1.34 0 0 1 .449-.323c.17-.075.355-.114.542-.114.95.047 1.2 1.583 1.171 2.102a1.05 1.05 0 0 1-.136.513.5.5 0 0 1-.437.219zm-1.709-1.542l.019.029c.453.703 1.083 1.136 1.678 1.168.03.003.061-.003.088-.017s.049-.036.064-.062a.69.69 0 0 0 .082-.339c.022-.469-.2-1.709-.842-1.741a1.03 1.03 0 0 0-.731.339c-.173.172-.297.387-.358.624zm-.336-6.679c-.123.317-.317 1.231-.408 3.248v.741c.573-1.694.557-3.479.408-3.989zm-8.158 7.461h-.076v-.345a1.62 1.62 0 0 0 .95-.317c.187-.125.391-.224.605-.294l.095.336a2.18 2.18 0 0 0-.519.253c-.309.222-.675.349-1.054.367zm13.359-1.713h-.105c-.148-.007-.295-.032-.437-.076l.101-.317c.114.035.232.055.351.06a3.77 3.77 0 0 0 1.121-.177l.538-.127.067.339-.516.124c-.365.105-.741.163-1.121.174zm5.486 1.145h-.082a1.6 1.6 0 0 1-1.266-.795c-.272-.427-.408-.928-.389-1.434.032-.598.415-1.447 1.032-1.418a.56.56 0 0 1 .535.418.39.39 0 0 1 0 .108.45.45 0 0 1-.203.316c-.1.076-.223.115-.348.111l.016-.345c.023.006.048.006.072.001s.045-.017.064-.032a.15.15 0 0 0-.029-.245.15.15 0 0 0-.069-.017.15.15 0 0 0-.069.017c-.361 0-.633.633-.668 1.089-.014.435.102.864.335 1.231.101.177.244.328.416.438a1.27 1.27 0 0 0 .572.195 1.71 1.71 0 0 0 .946-.279c.281-.184.501-.447.633-.756l.317.127a2.06 2.06 0 0 1-.721.9 2.05 2.05 0 0 1-1.093.369zm4.796-.726h-.079c-.348-.019-.683-.138-.964-.344s-.496-.489-.619-.815l-.2.022a1.65 1.65 0 0 1 0-.298 1.9 1.9 0 0 1 1.941-1.747c.902.044 1.336.871 1.295 1.659s-.478 1.523-1.374 1.523zm-1.494-1.583h.139c-.035.652.668 1.197 1.292 1.228.81.038 1.07-.731 1.095-1.194.029-.601-.26-1.266-.969-1.298a1.55 1.55 0 0 0-1.554 1.263h-.003zm4.777 1.344h-.06l.019-.345a1.4 1.4 0 0 0 .601-.13c.092-.044.317-.158.317-.317.019-.389-.317-.582-.861-.852s-1.146-.567-1.111-1.282a.27.27 0 0 1 .018-.111.28.28 0 0 1 .062-.094c.027-.027.059-.047.094-.061a.27.27 0 0 1 .111-.017.79.79 0 0 1 .288.089 1.17 1.17 0 0 0 .316.098v.345a1.24 1.24 0 0 1-.437-.127l-.108-.035c.019.408.367.611.918.883s1.086.535 1.054 1.178a.76.76 0 0 1-.51.611 1.74 1.74 0 0 1-.712.165zm5.362.022h-.082c-.247-.02-.487-.09-.704-.207a1.79 1.79 0 0 1-.562-.473 2.08 2.08 0 0 1-.472-1.155 2.34 2.34 0 0 0-.12.209l-.317-.152a2.68 2.68 0 0 1 2.346-1.425 1.58 1.58 0 0 1 1.079.468 1.5 1.5 0 0 1 .412 1.136 1.76 1.76 0 0 1-.491 1.146 1.49 1.49 0 0 1-.498.339 1.48 1.48 0 0 1-.591.114zm-1.456-2.254a1.47 1.47 0 0 0-.022.203c-.015.419.125.829.392 1.152a1.44 1.44 0 0 0 1.023.551c.167.011.335-.014.491-.075s.298-.154.414-.274a1.43 1.43 0 0 0 .383-.918 1.15 1.15 0 0 0-.317-.88 1.24 1.24 0 0 0-.832-.361c-.568.002-1.114.217-1.532.601z"/><path d="M88.897 77.316l-.377-.56c-.487-.741-.95-1.444-1.849-1.751l.114-.316c1.01.345 1.526 1.127 2.023 1.899l.37.548-.282.18zm-24.85-1.96h-.067a.8.8 0 0 1-.554-.228.66.66 0 0 1-.184-.487 1.77 1.77 0 0 1 .37-.807 1.58 1.58 0 0 0 .316-.655c0-.247-.316-.475-.579-.491a.75.75 0 0 0-.719.586h.044l-.019.345a.4.4 0 0 1-.291-.117.35.35 0 0 1-.079-.247 1.07 1.07 0 0 1 1.083-.918c.446.022.928.392.905.852-.048.308-.177.597-.374.839a1.56 1.56 0 0 0-.316.633.28.28 0 0 0 .018.122c.015.039.038.074.068.103.086.081.199.126.317.127a3.48 3.48 0 0 0 1.323-.351l.139.317a3.87 3.87 0 0 1-1.402.38zm18.829-2.048h-.168c-1.374-.07-1.757-1.241-1.858-1.716a2.63 2.63 0 0 0-.633.443l-.234-.256c.244-.218.693-.579 1.01-.567h.146l.019.152c.032.253.247 1.526 1.561 1.583a3.62 3.62 0 0 0 .602-.025l.038.345a4.43 4.43 0 0 1-.481.041zm-26.629 6.128c-.37 0-.396-.519-.43-1.266-.044-.918-.108-2.175-.823-2.637-.437-.282-1.092-.25-1.953.092l-.127-.317c.969-.386 1.735-.405 2.267-.063a1.75 1.75 0 0 1 .658.852c.018-.94-.024-1.88-.127-2.814a17.86 17.86 0 0 1-.108-2.165c.057-1.102 1.064-1.823 2.991-2.14a21.51 21.51 0 0 1 4.264-.139l.355.016a23.99 23.99 0 0 0 3.84-.019c3.872-.456 7.658-.807 11.317-1.146l10.491-1.051.041.345-10.513 1.032-11.308 1.146a24.35 24.35 0 0 1-3.897.022l-.358-.019a21.4 21.4 0 0 0-4.188.136c-1.747.288-2.656.899-2.7 1.817a17.09 17.09 0 0 0 .105 2.115 22.2 22.2 0 0 1 .127 2.9 8.77 8.77 0 0 0 .203 1.741c.155.871.222 1.298.063 1.478-.024.027-.053.048-.086.063a.26.26 0 0 1-.104.023zm-15.705.702h-.256l.019-.345a7.83 7.83 0 0 0 1.447-.098 8.07 8.07 0 0 1 1.513-.098v.345a7.91 7.91 0 0 0-1.45.098 10 10 0 0 1-1.273.098zm4.625 3.366l-.016-.345c5.552-.263 10.874-1.045 16.505-1.877l4.786-.693c4.571-.633 9.525-.757 14.318-.871 6.667-.158 12.979-.317 17.028-1.874l.123.317c-4.115 1.583-10.446 1.738-17.142 1.899-4.783.114-9.728.231-14.28.867l-4.783.693c-5.641.836-10.969 1.624-16.54 1.883zm17.003 4.325l-.076-.339c.652-.13 1.621-.317 1.649-.921v-.035c0-.427-.408-.503-1.266-.567s-1.899-.133-1.833-1.247 1.52-1.339 2.694-1.494l.883-.139.079.336c-.263.06-.579.104-.918.149-1.102.146-2.349.316-2.393 1.168-.035.722.548.814 1.513.883.744.054 1.583.114 1.583.912v.051c-.038.874-1.168 1.095-1.915 1.244zm5.052-1.452l-.339-.085c.12-.468-.06-.912-.253-1.383a4.35 4.35 0 0 1-.316-1.007l.342-.051a4.08 4.08 0 0 0 .288.943c.212.497.424 1.016.279 1.583zm5.103-.95c-.199-1.355-.633-1.978-1.402-2.016s-1.339.757-1.38 1.519c0 .285-.196.317-.253.317-.427.019-1.118-1.168-1.206-1.77l.345-.051a3.13 3.13 0 0 0 .772 1.418c.076-.909.747-1.833 1.741-1.782 1.25.063 1.583 1.352 1.728 2.314l-.345.051zm4.318-.315h-.06c-.763-.038-1.795-.662-1.747-1.583a1.36 1.36 0 0 1 .228-.671l.269.171-.063-.07c.467-.4 1.07-.605 1.684-.573.81.041 1.374.535 1.342 1.171a1.81 1.81 0 0 1-1.652 1.554zm-1.292-2.064a1.05 1.05 0 0 0-.177.481c-.035.69.829 1.194 1.418 1.222a1.46 1.46 0 0 0 .891-.374c.246-.222.41-.521.464-.848.022-.446-.393-.779-1.013-.81a2.1 2.1 0 0 0-1.444.494l-.139-.165z"/><path d="M80.426 84.926a5.01 5.01 0 0 1-1.292-.95c-.282-.27-.585-.518-.905-.741l.193-.288a8.26 8.26 0 0 1 .95.772 4.71 4.71 0 0 0 1.203.886l-.149.32zm-26.37-5.863a4.52 4.52 0 0 0-.298-1.045 5.71 5.71 0 0 1-.294-.95l.342-.067a5.56 5.56 0 0 0 .275.88c.151.363.257.742.317 1.13l-.342.051z"/></g><path d="M79.09 104.876v.095a1.18 1.18 0 0 0 .11.448c.066.14.159.267.273.371a1.18 1.18 0 0 0 .395.239 1.2 1.2 0 0 0 .456.069c.633 0 1.184-.437 1.184-1.482 0-.95-.25-1.69-1.266-1.69-.151-.005-.302.021-.442.079s-.267.143-.371.253c-.377.434-.294 1.042-.339 1.618z" class="I J K"/><g class="H"><path d="M78.055 111.822l-.241-.25c1.678-1.605 3.251-3.435 4.771-5.204l2.735-3.109.253.235-2.722 3.099-4.796 5.229zm5.628-.635c-.633 0-1.004-.475-1.004-1.336a3.73 3.73 0 0 1 .054-.608l.25.041c.086-.377.358-.817 1.225-.817.598 0 .95.415.95 1.14a1.51 1.51 0 0 1-.091.591 1.52 1.52 0 0 1-.314.51 1.51 1.51 0 0 1-.487.347c-.184.082-.382.127-.584.132zm-.595-.877a.59.59 0 0 0 .201.382c.113.098.258.15.407.146.155-.006.307-.043.447-.109a1.17 1.17 0 0 0 .371-.272 1.18 1.18 0 0 0 .238-.395 1.17 1.17 0 0 0 .068-.455c0-.526-.203-.795-.598-.795-.76 0-.918.361-.918.899v.317.285l-.215-.003zM67.95 96.972c-.45-1.01-1.266-1.82-2.042-2.605l.244-.244c.807.807 1.64 1.64 2.115 2.71l-.317.139z"/><path d="M66.238 96.584l-.184-.294.918-.522a8.23 8.23 0 0 0 1.941-1.301l.244.244a8.54 8.54 0 0 1-2.016 1.361l-.902.513zm26.056-35.958a5.5 5.5 0 0 0-1.029-.082c-.428.016-.856-.037-1.266-.158-.338-.122-.621-.361-.798-.674-.08-.13-.132-.275-.152-.426a1.09 1.09 0 0 1 .035-.451c.103-.231.241-.444.408-.633.185-.213.337-.453.45-.712.047-.113.065-.236.051-.357a.71.71 0 0 0-.13-.336 1.15 1.15 0 0 0-.522-.38c-.146-.051-.633-.187-.801.288-.029.105.092.586.316.665l-.117.316a.88.88 0 0 1-.283-.217.87.87 0 0 1-.173-.312.99.99 0 0 1-.063-.583c.184-.5.681-.7 1.244-.494a1.47 1.47 0 0 1 .687.507 1.06 1.06 0 0 1 .117.981 3.08 3.08 0 0 1-.5.807 2.25 2.25 0 0 0-.348.563.76.76 0 0 0-.014.311.74.74 0 0 0 .113.29 1.17 1.17 0 0 0 .611.519 3.73 3.73 0 0 0 1.155.136 6.06 6.06 0 0 1 1.092.089l-.082.342zm2.437-1.434a5.91 5.91 0 0 1-2.029-.263l.117-.317c.703.256 1.535.247 2.339.241h.836v.345h-.823l-.44-.006z"/><path d="M94.801 60.33c-.064-.746-.057-1.497.022-2.241l.066-1.073h.348c0 .37-.041.738-.066 1.092a11.01 11.01 0 0 0-.025 2.172l-.345.051zm4.412 2.703c-.27.008-.54-.031-.798-.114a.87.87 0 0 1-.57-.567c-.065-.266-.041-.546.067-.798a4.19 4.19 0 0 1 .709-1.111 4.35 4.35 0 0 0 .728-1.146c.269-.734-.029-1.63-.614-1.842a1.3 1.3 0 0 0-.504-.039 1.28 1.28 0 0 0-.48.159l-.146-.316a1.62 1.62 0 0 1 1.25-.13c.763.279 1.155 1.367.82 2.289a4.67 4.67 0 0 1-.782 1.241 3.87 3.87 0 0 0-.655 1.013.95.95 0 0 0-.06.583c.028.081.075.154.138.213s.138.102.22.126c.389.142 1.057.123 1.982-.057l.066.339c-.451.095-.91.148-1.371.158zm-5.618 49.454c-.253 0-.342-.316-.393-.598a8.98 8.98 0 0 1-.095-1.504v-.718-.691c0-1.51-.193-2.022-.766-2.022a10.44 10.44 0 0 0-1.355.142l-.222.035-.047-.345.219-.032a10.36 10.36 0 0 1 1.405-.145c1.029 0 1.114 1.12 1.114 2.367v.7.709c0 1.149.101 1.561.158 1.703.203-.316.519-1.687.519-3.656v-.529c0-3.058 0-4.327 5.103-4.327 1.066 0 3.032.136 4.232 1.035l-.209.275c-.829-.633-2.257-.949-4.023-.949-4.748 0-4.748 1.003-4.748 3.979v.516c-.003 1.637-.291 4.055-.893 4.055zm5.204-.504a.9.9 0 0 1-.367-.059c-.117-.046-.222-.117-.308-.207a.87.87 0 0 1-.195-.316c-.041-.118-.057-.243-.045-.368 0-.611.513-1.118 1.007-1.608s1.01-1.004 1.01-1.599a.69.69 0 0 0-.033-.313.7.7 0 0 0-.169-.266.68.68 0 0 0-.27-.162c-.102-.033-.209-.041-.314-.025-.709 0-1.181.475-1.181.665l-.025-.016.019.348c-.043.003-.087-.003-.128-.017a.31.31 0 0 1-.11-.067.32.32 0 0 1-.074-.106c-.017-.04-.026-.083-.026-.126 0-.409.633-1.013 1.526-1.013.151-.015.303.003.446.054a1.02 1.02 0 0 1 .624.615c.053.142.073.294.061.445 0 .741-.564 1.301-1.112 1.846-.465.459-.902.895-.902 1.361 0 .278.098.608.567.608.37-.03.735-.105 1.086-.225a4.55 4.55 0 0 1 1.165-.238v.349a4.32 4.32 0 0 0-1.067.221 4.73 4.73 0 0 1-1.184.219z"/></g><path d="M83.018 90.657a1.68 1.68 0 0 1-.472-1.108.91.91 0 0 1 .766-.899c.472 0 .687 1.089.687 1.716 0 .541-.082 1.092-.082 1.646 0 .95.339 2.168 1.282 2.168.487 0 .874-.351.874-1 .003-.17-.031-.339-.1-.494a1.18 1.18 0 0 0-.296-.408c-.791-.715-1.956-.839-2.659-1.621z" class="I J K"/><g class="H"><path d="M88.045 92.858H87.7c-.035-1.024-.305-2.026-.791-2.928l.317-.155c.508.951.789 2.006.82 3.083z"/><path d="M89.375 91.758a5.95 5.95 0 0 1-2.849-.712l.155-.317c.828.448 1.755.681 2.697.677l-.003.351z"/></g><path d="M88.913 88.464a1.9 1.9 0 0 1-.351-.95c-.003-.105.016-.21.055-.307s.097-.186.172-.26.163-.133.26-.172.202-.058.307-.055c1.814 0 .633 4.378 2.912 4.378a.47.47 0 0 0 .386-.128.47.47 0 0 0 .142-.381 1 1 0 0 0-.532-.852c-1.032-.478-2.567-.057-3.352-1.273z" class="I J K"/><g style="mix-blend-mode:multiply" class="E D"><path d="M49.53 133.477c13.836 0 25.053-1.398 25.053-3.122s-11.216-3.121-25.053-3.121-25.053 1.398-25.053 3.121 11.216 3.122 25.053 3.122z"/></g><path d="M51.581 113.007c-3.542 0-6.414 3.482-6.414 7.769s2.871 7.768 6.414 7.768 6.417-3.482 6.417-7.768-2.874-7.769-6.417-7.769zm1.314 13.565c-2.602 0-4.714-2.558-4.714-5.698s2.111-5.698 4.714-5.698 4.717 2.554 4.717 5.698-2.111 5.698-4.717 5.698z" fill="url(#B)"/><path style="mix-blend-mode:multiply" d="M46.858 120.694c0 3.799 2.349 6.917 5.382 7.363 1.466-.246 2.783-1.045 3.678-2.232-.522.259-1.096.395-1.678.396-.25-.002-.499-.029-.744-.082a3.68 3.68 0 0 1-.747.082c-2.485 0-4.501-2.444-4.501-5.454s2.017-5.455 4.502-5.455a3.68 3.68 0 0 1 .747.083 3.65 3.65 0 0 1 .744-.083 3.83 3.83 0 0 1 1.864.494 5.89 5.89 0 0 0-1.681-1.631 5.88 5.88 0 0 0-2.184-.847c-3.023.446-5.382 3.574-5.382 7.366z" fill="url(#C)"/><path d="M74.408 110.389c0-.7-5.097-1.266-11.396-1.266s-11.396.57-11.396 1.266v20.342c0 .703 5.097 1.266 11.396 1.266s11.396-.569 11.396-1.266v-20.342z" fill="url(#D)"/><path style="mix-blend-mode:overlay" d="M73.547 111.559c0-.633-4.555-1.136-10.177-1.136s-10.174.506-10.174 1.136v18.183c0 .634 4.555 1.137 10.174 1.137s10.177-.503 10.177-1.137v-18.183z" fill="url(#E)"/><path style="mix-blend-mode:multiply" d="M62.158 112.503l-10.516-1.222v1.735h-.06c-3.542 0-6.413 3.482-6.413 7.769s2.871 7.768 6.413 7.768h.06v2.187c0 .672 4.634 1.219 10.516 1.267v-19.504zm-10.516 13.853c-1.994-.668-3.46-2.871-3.46-5.499s1.466-4.83 3.46-5.495v10.994z" fill="url(#F)"/><g style="mix-blend-mode:multiply" class="E D"><path d="M73.367 110.448c0-.406-4.682-.735-10.446-.735s-10.446.317-10.446.735 4.682.734 10.447.734 10.446-.329 10.446-.734z"/></g><path d="M73.876 131.947l3.72.393 1.988 1.127 19.494 9.997-33.381 9.88-17.737-10.45 24.268-9.848 1.649-1.099z" fill="url(#G)"/><g style="mix-blend-mode:overlay" class="C B"><path d="M75.456 134.427l-8.851 1.127 1.409 2.593 20.177.057-8.848-4.451-3.887.674z"/></g><g style="mix-blend-mode:multiply" class="E D"><path d="M128.574 168.528l-3.38 2.703-38.89 6.088-11.33-20.459 20.969-10.82 32.631 22.488z"/></g><g style="mix-blend-mode:multiply" class="E D"><path d="M70.381 144.232l3.102.791 21.133-1.579-3.719-.902-20.516 1.69z"/></g><path d="M130.968 166.285c-.735-.214-1.457-.466-2.165-.757-2.701-2.136-6.297-5.324-8.288-8.512-3.482-5.552-7.401-7.863-7.401-7.863l-5.549-1.159-5.784-5.318-30.073 1.852 6.132 17.322c2.115 1.858 2.707 3.903 4.565 7.525 1.307 2.532 4.536 6.67 4.536 6.67l38.421-5.907 5.606-3.853z" fill="url(#H)"/><g style="mix-blend-mode:overlay" class="C B"><path d="M109.609 142.094l-37.873 3.16 20.402 10.032-10.823 9.24 20.631-5.746-9.358 15.442 12.932-5.818 20.547-.608-4.169-6.762-12.289-18.94z"/></g><path d="M123.766 150.162c10.978-4.454 9.661-10.035-2.944-12.463-12.311-2.374-31.596-1.374-42.678 2.849-.165.139-.082.383-.025.814l45.648 8.8z" fill="#9779b7"/><g style="mix-blend-mode:multiply" class="E D"><path d="M121.515 150.493c10.798-4.533 9.532-10.13-2.83-12.523-12.073-2.33-29.509-1.646-40.412 2.656a16.2 16.2 0 0 0-1.526 1.238l44.767 8.629z"/></g><path d="M123.766 149.367c10.978-4.457 9.661-10.038-2.944-12.466s-31.719-.801-42.704 3.653l45.648 8.813z" fill="#e5c8ff"/><g style="mix-blend-mode:overlay" class="C B"><path d="M93.731 143.492l11.713 2.261-.054-8.155c-2.814.038-5.698.222-8.496.538l-3.162 5.356z"/></g><g style="mix-blend-mode:overlay" class="C B"><path d="M110.569 146.863l8.496 1.706-4.191-10.462-4.77-.209.465 8.965z"/></g><path opacity=".3" d="M109.606 141.451c-5.476-1.058-13.789-.342-18.559 1.583l19.842 3.824c4.77-1.925 4.197-4.35-1.283-5.407zm-2.143 4.596l-12.444-2.38c2.988-1.216 8.193-1.659 11.625-1.001s3.792 2.166.819 3.381zm13.321-9.116c-12.558-2.422-31.602-.789-42.539 3.646l4.046.782c9.475-3.558 25.167-4.824 35.617-2.808s11.804 6.566 3.282 10.308l2.533.487c10.934-4.438 9.62-9.997-2.938-12.415z" fill="#9779b7"/><path d="M114.387 137.427l-1.46 1.459.728.244 2.311-1.883-1.579.18zm9.658 3.71l3.764-.427 1.155.915-3.947.848-.972-1.336zm-3.767 6.07l5.71.364-1.823 1.092-4.311-1.092.424-.364zm-17.069-8.929l.668-.12.244-1.58h-1.032l.12 1.7zm-8.747.732l.544-.063-.301-1.7-1.339.243 1.095 1.52zm-9.234 2.004l-2.976-.791.852-.728 2.852 1.152-.728.367z" fill="#e5c8ff"/><g style="mix-blend-mode:multiply" class="E D"><path d="M59.08 172.501h-4.413a2.56 2.56 0 0 1-1.092-.244l-36.3-17.078c-.249-.118-.513-.202-.785-.25-2.143-.393-12.083-2.248-12.83-3.188-.315-.399-.526-.87-.614-1.37s-.05-1.016.111-1.498.439-.917.81-1.264a3.05 3.05 0 0 1 1.314-.727l38.668-10.13 43.03 20.206-27.898 15.543z"/></g><path d="M26.693 132.344a2.21 2.21 0 0 1 .729-.712c.295-.178.628-.284.971-.311l32.121-2.564c.575-.044 1.153-.003 1.716.124l1.583.364c.265.059.512.181.721.355a1.71 1.71 0 0 1 .479.645l3.197 7.518 19.374 16.841.184 1.267a.93.93 0 0 1-.095.552c-.088.17-.226.309-.395.397l-26.499 13.786c-.656.342-1.392.501-2.13.463l-1.668-.092a3.3 3.3 0 0 1-1.671-.56l-20.238-13.67a5.45 5.45 0 0 1-1.982-2.431l-7.227-17.534a3.94 3.94 0 0 1-.275-1.831c.055-.624.258-1.226.592-1.756l.516-.851z" fill="url(#I)"/><g style="mix-blend-mode:multiply" class="E D"><path d="M55.488 166.881l.253 3.798a3.26 3.26 0 0 0 1.244.317l1.668.092c.397.021.795-.018 1.181-.114l.294-3.774-4.641-.319z"/></g><path d="M56.406 160.145l-22.257-29.291-5.755.468a2.23 2.23 0 0 0-.972.313 2.22 2.22 0 0 0-.728.716l-.532.852c-.334.529-.537 1.131-.592 1.755a3.94 3.94 0 0 0 .275 1.831l7.233 17.55c.409.986 1.098 1.831 1.982 2.428l20.238 13.669c.332.225-.196-3.627.19-3.536l.918-6.755z" fill="url(#J)"/><g style="mix-blend-mode:multiply" class="E D"><path d="M89.172 162.721l-37.028 21.305-.339 1.098 13.526 6.427 3.359-.763 26.23-26.291-.203-.801-4.783-1.142-.763.167z"/></g><path d="M91.123 162.27l-37.028 21.305-.339 1.101 13.526 6.423 1.691-.339 27.898-26.714-.203-.798-4.783-1.146-.763.168z" class="F"/><g style="mix-blend-mode:multiply" class="E D"><path d="M96.567 173.817a2.19 2.19 0 0 0-1.969 1.434l-5.381 14.91a2.2 2.2 0 0 0-.118 1.017c.041.343.163.672.355.96a2.2 2.2 0 0 0 1.736.977l21.497.997c.877.041 2.637-.364 3.207-.985.82-.487.795-1.45.589-2.232l-5.125-16.169a1.83 1.83 0 0 0-.717-.994c-.346-.24-.763-.354-1.182-.323l-12.891.408z"/></g><path d="M98.258 172.792a2.2 2.2 0 0 0-1.969 1.43l-5.382 14.914c-.119.324-.159.673-.118 1.016a2.2 2.2 0 0 0 .355.96 2.21 2.21 0 0 0 .751.695c.302.169.639.265.984.279l21.495.997c.428.023.856-.047 1.255-.205a2.98 2.98 0 0 0 1.053-.713c.278-.292.478-.65.581-1.04s.105-.8.007-1.192l-4.222-16.223c-.12-.403-.373-.753-.718-.993a1.85 1.85 0 0 0-1.182-.324l-12.89.399z" fill="#4b4c48"/><g style="mix-blend-mode:overlay" class="C B"><path d="M114.823 193.083c.383-.002.761-.089 1.105-.258a2.53 2.53 0 0 0 1.363-1.739 2.54 2.54 0 0 0-.014-1.134l-3.866-16.563c-.095-.411-.321-.78-.644-1.051s-.726-.43-1.147-.452h-.257l4.783 16.35c.441 2.662-.43 4.09-1.323 4.847z"/></g><g style="mix-blend-mode:overlay" class="C B"><path d="M69.144 189.212l27.538-25.923-.013-.041-4.783-1.146-.763.168-37.028 21.305-.022.072 13.042 5.904 2.029-.339z"/></g><g style="mix-blend-mode:overlay" class="C B"><path d="M93.817 162.564l-1.681-.462-.13.029 1.811.433z"/></g><g style="mix-blend-mode:overlay" class="C B"><path d="M54.095 183.574l13.799-7.939-13.799 7.857-.003.098.003-.016z"/></g><g style="mix-blend-mode:overlay" class="G B"><path d="M96.646 163.341l-.019-.006-27.484 25.876-2.029.338-13.026-5.897-.016.348 13.128 6.002 2.042-.345 27.519-26.034-.114-.282z"/></g><g style="mix-blend-mode:overlay" class="C B"><path d="M68.163 187.804l1.773-.295 7.322-6.894 1.076-10.418-6.3 3.624-4.53 13.685.658.298z"/></g><g style="mix-blend-mode:overlay" class="C B"><path d="M82.373 175.797l.165-8.018-1.361.785-.909 9.218 2.105-1.985z"/></g><path d="M142.57 139.824c.025-.133.021-.269-.013-.4s-.095-.252-.18-.357l-3.188-3.858c-.1-.121-.228-.215-.372-.275a.97.97 0 0 0-.458-.071l-4.014.365c-.107.009-.211.041-.306.091s-.178.121-.245.205-.118.18-.147.284a.8.8 0 0 0-.023.319l.354 2.849a.69.69 0 0 0 .165.37l2.925 3.431a1.48 1.48 0 0 0 .524.392 1.5 1.5 0 0 0 .641.128l3.194-.092c.135-.003.264-.053.367-.139a.59.59 0 0 0 .199-.339l.577-2.903z" class="B"/><g style="mix-blend-mode:multiply" class="E D"><path d="M136.862 144.69l-2.285-.086-4.245-4.473c-.145-.152-.241-.344-.275-.551s-.006-.42.081-.61a.49.49 0 0 1 .177-.211c.077-.053.167-.083.26-.087l5.863-.241 5.581 4.818-5.157 1.441z"/></g><path d="M133.915 135.437c-.044.029-.084.063-.12.101a.81.81 0 0 0-.148.283.82.82 0 0 0-.027.319l.358 2.849c.018.136.075.265.165.37l2.928 3.431a1.46 1.46 0 0 0 .521.393c.202.09.42.133.641.127l3.194-.089c.135-.005.264-.055.367-.142s.173-.207.199-.339l.577-2.909c.037-.198.01-.402-.08-.583l-4.586.371-3.989-4.182z" fill="#dfcdd9"/><path d="M140.952 137.338l-1.763-2.134a.98.98 0 0 0-.374-.275c-.145-.06-.302-.084-.459-.07l-4.011.364a.82.82 0 0 0-.43.197c-.044.029-.084.063-.12.101a.8.8 0 0 0-.148.283c-.03.103-.039.212-.027.318l.358 2.849a.71.71 0 0 0 .165.371l1.836 2.149.177-3.776 4.796-.377z" fill="#b24ec4"/><g style="mix-blend-mode:multiply" class="E D"><path d="M133.915 135.437c-.044.029-.084.063-.12.101a.81.81 0 0 0-.148.283.82.82 0 0 0-.027.319l.358 2.849c.018.136.075.265.165.37l2.928 3.431a1.43 1.43 0 0 0 .522.393c.2.089.317-3.564.317-3.564l-3.995-4.182z"/></g><path d="M162.902 145.682c-.09-.09-.198-.16-.317-.205s-.246-.065-.373-.058l-46.344-.38a.99.99 0 0 0-.441.074c-.139.058-.264.148-.363.262-.036.049-.061.105-.074.164a.44.44 0 0 0-.001.181c.012.059.037.116.072.165s.08.092.133.123l29.506 22.63c.287.188.633.263.972.209.165-.009.326-.05.474-.122s.281-.172.39-.295l16.366-22.185c.069-.078.107-.178.107-.282a.42.42 0 0 0-.107-.281zm-11.81 5.008l-6.541 9.386a.53.53 0 0 1-.163.13c-.062.032-.13.051-.201.056a.58.58 0 0 1-.414-.095l-11.973-9.56a.18.18 0 0 1-.049-.05c-.013-.02-.021-.043-.025-.066s-.002-.048.004-.071.017-.044.032-.063c.041-.043.09-.078.144-.101s.114-.034.173-.032l18.706.136c.052-.002.103.006.152.024a.4.4 0 0 1 .132.081c.03.029.049.067.053.108a.18.18 0 0 1-.03.117z" fill="#c15914"/><g style="mix-blend-mode:multiply" class="E D"><path d="M160.816 146.249a.83.83 0 0 0-.296-.2c-.112-.045-.232-.065-.353-.059l-43.735-.374c-.144-.009-.288.016-.419.074s-.248.147-.338.258c-.033.048-.056.103-.068.16a.42.42 0 0 0-.001.173c.011.057.033.112.066.16s.074.09.123.122l27.857 22.39c.268.185.597.26.918.209a1.17 1.17 0 0 0 .452-.125c.14-.072.265-.172.365-.293l15.442-21.944c.061-.079.094-.177.091-.278s-.039-.196-.104-.273zm-11.146 4.954l-6.169 9.288a.5.5 0 0 1-.154.128c-.059.031-.125.05-.192.056a.53.53 0 0 1-.392-.095l-11.295-9.456a.16.16 0 0 1-.047-.05.17.17 0 0 1-.024-.065.16.16 0 0 1 .003-.069c.006-.023.016-.044.03-.063a.39.39 0 0 1 .143-.104c.055-.023.114-.033.174-.029l17.648.133a.36.36 0 0 1 .145.024c.047.018.089.046.124.081.026.03.041.069.042.109s-.011.08-.036.112z"/></g><path d="M162.956 145.079a.91.91 0 0 0-.317-.205c-.119-.045-.246-.065-.373-.058l-46.392-.38a.98.98 0 0 0-.441.073c-.139.057-.263.146-.363.259a.43.43 0 0 0-.069.336c.012.057.036.112.07.16s.078.088.129.118l29.617 22.394a1.41 1.41 0 0 0 .975.212c.332-.02.642-.171.864-.418l16.31-21.944c.065-.077.1-.175.098-.275s-.04-.198-.108-.272zm-12.029 5.027l-6.553 9.18c-.094.106-.226.171-.367.18a.58.58 0 0 1-.415-.092l-12.007-9.351c-.02-.012-.037-.028-.05-.048s-.022-.042-.026-.065-.002-.047.005-.069.018-.044.033-.062c.041-.043.09-.077.144-.099a.41.41 0 0 1 .173-.033l18.753.136c.052-.004.104.004.153.022s.094.046.131.082c.031.027.05.064.055.104s-.006.081-.029.115z" fill="#ef8137"/><g style="mix-blend-mode:overlay" class="C B"><path d="M130.987 150.79a1.15 1.15 0 0 1-.437-.734c-.024-.154-.016-.311.023-.461a1.13 1.13 0 0 1 .205-.413c.133-.161.3-.29.49-.378s.396-.132.605-.129l4.682.035-.766-3.143-8.272-.07-.867 7.319 13.378 10.13-1.542-6.3-7.499-5.856z"/></g><g style="mix-blend-mode:overlay" class="C B"><path d="M145.444 159.463l1.827 5.651 5.596-7.531-2.874-4.495-4.549 6.375z"/></g><g style="mix-blend-mode:overlay" class="C B"><path d="M147.245 148.786l-2.007-3.137-4.267-.035 1.013 3.134 5.261.038z"/></g><g style="mix-blend-mode:overlay" opacity=".16" class="B"><path d="M115.868 144.955a1.16 1.16 0 0 0-.316.041l29.155 22.362c.287.187.632.263.971.212.333-.021.643-.172.865-.421l16.049-21.754a1.05 1.05 0 0 0-.373-.063l-46.351-.377zm35.224 5.648l-6.54 9.385c-.046.054-.101.099-.164.131s-.13.051-.201.056a.56.56 0 0 1-.414-.095l-11.972-9.56c-.086-.066-.659-.949-.659-.949.025.101.814-.615.95-.615l18.705.137c.104.005.203.041.285.104.83.538.067 1.33.01 1.406z"/></g><g style="mix-blend-mode:multiply" class="E D"><path d="M137.137 152.147l7.047-3.858s1.526-.564 2.533.728c1.085 1.408-.779 2.2-.779 2.2l-7.537 2.415-1.264-1.485z"/></g><path d="M138.15 149.732l7.044-3.849s1.526-.561 2.516.731c1.086 1.409-.775 2.216-.775 2.216l-7.537 2.415-1.248-1.513z" class="D"/><g style="mix-blend-mode:overlay" class="C B"><path d="M139.271 150.099l.399 1.032 7.265-2.327s1.862-.791.776-2.215c-.991-1.292-2.517-.732-2.517-.732l-.104.057 1.237.766-7.056 3.419z"/></g><g style="mix-blend-mode:multiply" class="E D"><path d="M98.077 152.785c-.28-.17-.516-.404-.689-.682s-.277-.594-.305-.921a2.08 2.08 0 0 1 .709-1.747c.815-.709 1.864-1.091 2.944-1.073l31.131.516c.616.01 1.222.17 1.763.466l3.39 1.842c.291.158.54.382.727.654a2.1 2.1 0 0 1 .353.913l.044.316c.042.315-.007.635-.14.923a1.68 1.68 0 0 1-.61.705l-22.821 14.818c-.61.396-1.315.623-2.042.658s-1.45-.123-2.095-.459c-.347-.146-.654-.37-.899-.655a1.85 1.85 0 0 1 0-1.719l.607-1.171a2.64 2.64 0 0 1 .934-1.02l15.512-9.788a.67.67 0 0 0 .288-.752c-.041-.14-.126-.263-.242-.35a.67.67 0 0 0-.404-.132c-5.242.016-18.044.028-24.631-.171-1.095-.032-2.163-.347-3.1-.915l-.424-.256z"/></g><path d="M101.449 151.766a2.07 2.07 0 0 1-.994-1.602 2.07 2.07 0 0 1 .709-1.747c.815-.708 1.864-1.09 2.944-1.07l31.13.516c.617.008 1.222.167 1.763.462l3.394 1.845c.29.158.539.382.726.655a2.09 2.09 0 0 1 .35.912l.044.317a1.68 1.68 0 0 1-.75 1.63l-22.817 14.815c-.611.397-1.316.624-2.044.659s-1.451-.123-2.097-.459a2.37 2.37 0 0 1-.899-.656c-.149-.328-.232-.683-.243-1.044a2.75 2.75 0 0 1 .177-1.058l.547-.972a3.3 3.3 0 0 1 .912-.728l15.679-9.892a.67.67 0 0 0 .283-.75.67.67 0 0 0-.24-.347c-.116-.087-.256-.134-.401-.134-5.242.015-18.044.025-24.631-.171-1.095-.034-2.163-.351-3.099-.918l-.443-.263z" fill="#c6abb6"/><g style="mix-blend-mode:multiply" class="E D"><path d="M132.952 149.958l-29.816-.88s-1.529 0-1.9 1.041c.095.494-.183 1.748 4.394 2.184 6.414.605 18.962.152 24.09.143.25 0 .909.547 1.02.731l2.833-1.773-.621-1.446z"/></g><path d="M130.012 153.197l7.161-3.438-6.993 4.394-.168-.956z" class="D"/><path d="M138.508 150.731c0 .807-1.361 1.463-3.042 1.463s-3.045-.656-3.045-1.463 1.364-1.462 3.045-1.462 3.042.655 3.042 1.462z" fill="#e2d3d9"/><g style="mix-blend-mode:multiply" class="E D"><path d="M137.166 150.52c0 .335-.563.608-1.266.608s-1.266-.273-1.266-.608.563-.605 1.266-.605 1.266.273 1.266.605z"/></g><g style="mix-blend-mode:overlay" class="G B"><path d="M139.195 150.967a.9.9 0 0 1 .39.759.9.9 0 0 1-.119.423.89.89 0 0 1-.306.316l-22.918 14.166a1.23 1.23 0 0 1-.778.172c-.272-.031-.525-.152-.72-.343-.076-.072-.134-.161-.171-.259a.7.7 0 0 1-.042-.308c.01-.104.043-.205.097-.295s.127-.166.214-.224l20.102-13.476a.8.8 0 0 0 .326-.446c.052-.183.037-.378-.041-.551l-.921-2.045c-.02-.042-.03-.087-.03-.133s.01-.091.03-.133a.32.32 0 0 1 .082-.108c.035-.029.076-.051.12-.063l.38-.104c.101-.029.207-.035.31-.018a.71.71 0 0 1 .288.116l3.707 2.554z"/></g><g style="mix-blend-mode:multiply" class="E D"><path d="M137.66 150.479c0 .459-.772.832-1.728.832s-1.732-.373-1.732-.832.776-.833 1.732-.833 1.728.374 1.728.833z"/></g><path d="M136.691 150.518c0 .209-.348.379-.782.379s-.782-.17-.782-.379.349-.377.782-.377.782.174.782.377z" fill="#e2d3d9"/><path d="M97.881 173.625c-.216.016-.423.094-.596.225a1.13 1.13 0 0 0-.379.513l-4.932 14.039c-.049.133-.065.275-.048.415s.067.275.145.392a.9.9 0 0 0 .307.283.89.89 0 0 0 .402.113l22.824 1.076a1.12 1.12 0 0 0 .459-.068 1.14 1.14 0 0 0 .393-.248c.1-.098.173-.221.21-.356s.038-.278.002-.413l-4.521-16.192c-.068-.2-.202-.369-.381-.48a.91.91 0 0 0-.6-.128l-13.286.829z" class="L"/><g style="mix-blend-mode:multiply" class="E D"><path d="M114.244 192.326c-2.577-.045-20.051-1.197-22.995-1.336.214.295.491.538.811.713s.674.276 1.038.297l21.551 1.095c.397.02.793-.052 1.157-.211s.687-.4.942-.704c.051-.06.082-.133.127-.196-.548.288-1.374.361-2.631.342z"/></g><path d="M98.093 172.995a1.13 1.13 0 0 0-.618.213c-.18.131-.318.313-.395.522l-5.207 14.761c-.05.14-.066.291-.047.438a.95.95 0 0 0 .483.71c.13.072.276.113.425.118l22.865.928a1.03 1.03 0 0 0 .433-.072c.138-.054.262-.138.365-.245.097-.101.166-.225.202-.36a.81.81 0 0 0 0-.412l-4.286-16.297a.91.91 0 0 0-.36-.493c-.172-.119-.381-.175-.59-.159l-13.27.348z" class="L"/><path d="M97.944 174.277l-4.229 11.665 21.248 1.523-3.492-13.922-13.527.734z" class="F"/><g style="mix-blend-mode:multiply" class="E D"><path d="M106.286 188.34c0 .671-1.301 1.212-2.903 1.212s-2.903-.541-2.903-1.212 1.298-1.213 2.903-1.213 2.903.545 2.903 1.213z"/></g><path d="M105.722 188.336c0 .513-1.047.93-2.339.93s-2.339-.417-2.339-.93 1.048-.931 2.339-.931 2.339.418 2.339.931z" class="L"/><g style="mix-blend-mode:overlay" class="C B"><path d="M94.38 185.602l11.478.82 3.147-12.337-7.604.415-5.169 5.992-1.852 5.11z"/></g><g style="mix-blend-mode:overlay" class="C B"><path d="M112.17 186.873l.13-7.815-1.266-5.081-.399.022-1.557 12.662 3.092.212z"/></g><path d="M109.679 191.943c0-.209-.253-.38-.57-.38s-.569.171-.569.38.256.383.569.383.57-.171.57-.383zm1.947 0c0-.209-.256-.38-.573-.38s-.57.171-.57.38.257.383.57.383.573-.171.573-.383zm2.007.087c0-.209-.256-.38-.57-.38s-.573.171-.573.38.257.379.573.379.57-.171.57-.379z" fill="#282826"/><path d="M54.262 165.938a6.83 6.83 0 0 0 7.252 1.115l26.202-11.564-.127-.88-19.38-16.845-3.216-7.448c-.098-.271-.262-.514-.478-.705a1.73 1.73 0 0 0-.757-.391l-1.374-.316c-.668-.153-1.357-.183-2.035-.089l-32.026 2.447a2.22 2.22 0 0 0-1.583 1.01l-.488.779 7.281 14.669 20.728 18.218z" fill="#daedec"/><path d="M54.262 165.129c.986.842 2.188 1.391 3.47 1.584s2.592.023 3.782-.492l26.274-10.763-.209-1.405-19.373-16.461-3.216-7.281c-.199-.538-.924-1.304-1.494-1.431l-.674-.171a9.8 9.8 0 0 0-2.65-.057l-31.849 2.558c-.321.041-.628.151-.902.323a2.23 2.23 0 0 0-.681.674l-.488.76 7.281 14.353 20.728 17.809z" fill="#bad3d3"/><path d="M68.21 137.566l-3.216-7.281c-.199-.538-.924-1.304-1.494-1.431l-.674-.171a9.8 9.8 0 0 0-2.65-.057l-31.852 2.58c-.321.041-.628.151-.902.323a2.23 2.23 0 0 0-.681.674l-.488.76 7.281 14.353.434.37 35.065-9.424-.823-.696z" fill="url(#K)"/><g style="mix-blend-mode:overlay" class="E"><path d="M55.016 164.33c.898.743 1.982 1.229 3.135 1.405a6.44 6.44 0 0 0 3.412-.405l24.518-9.978c.125-.052.234-.134.318-.241a.79.79 0 0 0 .12-.762.79.79 0 0 0-.229-.327L68.033 138.71l-32.989 9.13 19.972 16.49z" fill="url(#L)"/><g style="mix-blend-mode:multiply" class="G D"><path d="M50.483 143.557l-1.516 15.591 6.04 5.097a6.43 6.43 0 0 0 3.148 1.446 6.44 6.44 0 0 0 3.442-.395l2.738-1.115-1.393-23.995-12.46 3.371z"/></g><g style="mix-blend-mode:multiply" class="G D"><path d="M68.014 138.71l-3.08.744 3.986 22.875 9.275-3.773-6.948-17.133-3.232-2.713z"/></g></g><g style="mix-blend-mode:multiply" class="E D"><path d="M108.096 137.747l-10.006-1.516 3.264-.478 25.103-2.966-3.755-5.236s-44.862 1.013-46.049 2.649 10.652 7.497 10.652 7.497l6.736-.994 13.479 2.402c.728-.218.817-.734.576-1.358z"/></g><path d="M121.886 105.679c-3.071.279-8.326 1.9-11.33 3.033l4.274 22.514c1.991.744 3.71 1.82 8.287 1.82s6.806-1.171 8.291-1.82l1.931-24.318c-2.058-.339-7.322-1.615-11.453-1.229z" fill="url(#M)"/><g style="mix-blend-mode:overlay" class="C B"><path d="M127.381 105.881l-2.95 1.944-.928 25.204c3.41-.047 5.464-.757 6.886-1.361l1.709-25.008-4.717-.779z"/></g><g style="mix-blend-mode:overlay" class="C B"><path d="M133.374 106.917c-2.067-.336-7.357-1.634-11.504-1.266-3.086.281-8.363 1.924-11.38 3.067 1.943.525 5.296 1.82 11.712 1.352 7.031-1.371 9.833-2.691 11.172-3.153z"/></g><g style="mix-blend-mode:multiply" class="E D"><path d="M132.237 107.025c-1.855-.254-6.61-1.251-10.345-.915-2.779.247-7.544 1.583-10.266 2.532 1.747.405 4.748 1.415 10.522.991 6.351-1.152 8.88-2.228 10.089-2.608z"/></g><g style="mix-blend-mode:multiply" class="E D"><path d="M122.025 107.894c-2.194.178-5.641.744-8.348 1.267 1.843.402 4.505.788 8.475.497a64.83 64.83 0 0 0 7.597-1.783c-2.573-.142-5.152-.136-7.724.019z"/></g><path d="M109.891 99.4l3.419 9.398 1.706.285.665-.475-2.466-10.253-3.324 1.045z" fill="#539ae0"/><path d="M123.75 108.798l.516-11.194 1.694.734-.956 10.237-1.254.222z" fill="#b7ce55"/><path d="M128.378 107.769l4.397-14.369 2.308-.453.44 3.134-4.495 10.846-2.65.842z" fill="#ff6c45"/><path d="M118.233 109.346l-7.171-27.55 8.26-2.659 2.687 30.042-3.776.167z" fill="#ebbf3c"/><g style="mix-blend-mode:overlay" class="C B"><path d="M119.167 85.023l-4.565 8.965 1.437 5.515 3.761-7.392-.633-7.088z"/></g><g style="mix-blend-mode:overlay" class="C B"><path d="M120.018 94.527l-3.488 6.854.696 2.684 3.099-6.087-.307-3.45z"/></g><path d="M108.239 138.406l.345-.124c.504-.304.879-.783 1.054-1.345.041-.712-.734-1.266-.734-1.266l-14.844-3.429-4.596.209-.101.225L92.423 135l15.816 3.406z" fill="#ef8137"/><path d="M94.064 132.256l-4.597.209-.101.224 3.058 2.327.247.054.101-1.583 1.554-1.155-.263-.076z" fill="#ffbe83"/><path d="M90.948 133.863l.905-1.494-2.672-.057-.187.361 1.953 1.19z" fill="#4c3b30"/><g style="mix-blend-mode:multiply" class="E D"><path d="M88.967 132.701l3.457 2.308 15.828 3.393.345-.123c.512-.358.949-.896 1.028-1.266l-20.475-4.749-.184.437z"/></g><g style="mix-blend-mode:overlay" class="C B"><path d="M108.878 135.993c-.338-.196-.683-.231-.766-.082s.117.427.456.633.681.231.766.082-.12-.44-.456-.633z"/></g><g style="mix-blend-mode:overlay" class="C B"><path d="M108.897 137.687l-16.163-3.409.054-.769.301-.26 16.338 3.764-.529.674z"/></g><path d="M33.468 147.505l-7.005-14.789-.317.481a3.49 3.49 0 0 0-.152.281l7.119 14.815 21.925 19.162v2.805l.26.177c.179.12.37.221.57.301l.07-3.559-22.469-19.674zm-1.27-11.862l2.115 9.553 31.7-8.822-2.498-5.499-31.317 4.768z" class="F"/><g style="mix-blend-mode:multiply" class="E D"><path d="M77.64 150.267l-8.117 6.002 2.577 2.662 11.133-4.777-5.594-3.887z"/></g><path d="M78.498 150.041l-7.778 6.255 1.918 2.144 10.931-4.622-5.071-3.777z" fill="#ff6c45"/><g style="mix-blend-mode:multiply" class="E D"><path d="M70.721 156.297l1.918 2.144 10.931-4.622-10.652 3.691-1.099-1.494 6.705-5.955-.022-.016-.035.023-7.746 6.229z"/></g><g style="mix-blend-mode:overlay" class="C B"><path d="M48.134 140.57l2.172-7.069-5.382.997-3.856 7.902 7.066-1.83z"/></g><g style="mix-blend-mode:overlay" class="C B"><path d="M53.208 139.259l1.513-6.578-2.324.43-1.842 6.832 2.653-.684z"/></g><path d="M28.618 131.502l1.728 3.048 7.48-1.795.206-1.355-9.415.102z" class="B"/><path d="M29.359 131.727l1.453 2.308 6.309-1.361.171-1.026-7.933.079zm33.951 51.087c0 .607-1.098 1.098-2.453 1.098s-2.45-.491-2.45-1.098 1.099-1.099 2.45-1.099 2.453.491 2.453 1.099z" class="F"/><path d="M67.789 137.863l-32.52 9.525 33.875-8.284-1.355-1.241z" class="B"/><g style="mix-blend-mode:overlay" class="C B"><path d="M126.799 109.095v23.248l1.101-.38 2.536-24.008-3.637 1.14z"/></g><g style="mix-blend-mode:overlay" class="C B"><path d="M114.456 109.77l2.666 22.362-2.292-.915-4.34-22.485 3.966 1.038z"/></g><g style="mix-blend-mode:overlay" class="C B"><path d="M160.743 145.276l1.843.12-1.675 2.216s1.482-2.292-.168-2.336z"/></g><path d="M112.626 190.606c3.986 0 3.084-1.688 3.283-3.761.595 2.599 1.76 3.834-.861 3.846-.57.003-1.409-.057-2.422-.085zm-34.748-58.323l-3.324 1.074-.959-1.466 4.283.392z" class="B"/><g style="mix-blend-mode:overlay" class="G B"><path d="M132.506 149.124l-29.421-.709c.684-.51 1.517-.777 2.368-.76l27.266.443-.213 1.026z"/></g><path d="M113.104 167.454l-5.071 3.719 6.819-2.703-1.748-1.016z" class="D"/><g style="mix-blend-mode:multiply" class="E D"><path d="M100.464 150.166l-6.296-1.042 6.847-.424-.551 1.466z"/></g><g style="mix-blend-mode:overlay" class="E B"><path d="M72.382 155.903l.817 1.07 5.132-1.862-2.593-2.197-3.356 2.989z"/></g><g style="mix-blend-mode:overlay" class="E B"><path d="M76.694 152.182l2.65 2.425 1.972-.732-4.001-2.311-.62.618z"/></g><path style="mix-blend-mode:overlay" d="M62.271 129.037c-1.238-.222-7.407.785-10.038 1.022l11.52-.184c-.215-.367-.557-.674-1.481-.838z" fill="url(#N)" class="C"/><path d="M63.902 185.264l28.658-22.146h.677L65 185.521l-1.099-.257zm7.1-3.463l2.536 1.184.51-.425-2.621-1.184-.424.425zm4.904-4.058l2.536 1.181.507-.421-2.618-1.184-.424.424zm4.397-3.659l2.042.953.408-.342-2.112-.953-.339.342zm3.279-2.414l1.789.836.358-.298-1.849-.835-.298.297zm2.976-2.298l1.339.624.269-.222-1.386-.623-.222.221zm2.703-2.118l1.342.627.266-.225-1.383-.623-.225.221zm-39.937-21.893l2.862 2.757 5.59-1.608-2.732-2.441-5.72 1.292zm-2.909.657l-7.312 1.652 3.663 3.156 6.986-2.01-3.337-2.798zm6.831 3.124l3.875 3.732 5.223-2.285-3.457-3.087-5.641 1.64zm-2.311.669l-6.986 2.032 5.356 4.451 6.151-2.694-4.52-3.789zm.061 8.121l5.353 4.451 5.53-3.394-4.593-3.853-6.29 2.796zm7.787-3.459l4.068 3.916 4.878-2.991-3.663-3.273-5.283 2.348zm-2.02-10.792l2.558 2.383 5.546-1.595-1.978-2.175-6.125 1.387zm14.014-.916l-2.254-1.747-4.166.943 2.175 2.026 4.245-1.222zm2.988 2.819l-2.086-1.801-4.09 1.187 2.425 2.257 3.751-1.643zm-13.374 1.482l3.197 2.979 4.543-1.988-2.33-2.564-5.41 1.573zm17.262 2.24l-2.536-2.086-3.463 1.536 2.741 2.548 3.257-1.998zm-12.396 2.297l3.441 3.203 4.166-2.678-2.675-2.938-4.932 2.413z" class="F"/><g style="mix-blend-mode:overlay" class="C B"><path d="M50.6 150.601l-.902 4.283 4.226-1.58-3.324-2.703z"/></g><g style="mix-blend-mode:overlay" class="C B"><path d="M46.317 146.66l2.197 2.029-4.622 1.07 2.425-3.099z"/></g><g style="mix-blend-mode:overlay" class="C B"><path d="M54.826 144.633l-2.086 2.985 4.005-1.294-1.918-1.691z"/></g><g style="mix-blend-mode:overlay" class="C B"><path d="M58.827 148.127l-1.462 3.888 3.72-1.634-2.257-2.254z"/></g><g style="mix-blend-mode:overlay" class="C B"><path d="M56.516 161.198l.563-5.185 3.384 2.764-3.947 2.421z"/></g><g style="mix-blend-mode:overlay" class="C B"><path d="M62.999 156.86l1.07-4.058 2.482 2.367-3.552 1.691z"/></g><g style="mix-blend-mode:overlay" class="C B"><path d="M68.862 153.76l1.238-3.945 1.975 2.254-3.213 1.691z"/></g><g style="mix-blend-mode:overlay" class="C B"><path d="M74.611 150.378l.506-2.424 1.633 1.354-2.14 1.07z"/></g><g style="mix-blend-mode:overlay" class="C B"><path d="M70.271 146.487l1.238-2.196 1.298 1.183-2.536 1.013z"/></g><g style="mix-blend-mode:overlay" class="C B"><path d="M66.833 143.055l1.352-1.577 1.633.956-2.985.621z"/></g><g style="mix-blend-mode:overlay" class="C B"><path d="M59.9 145.303l2.76-2.536 1.241 1.355-4.001 1.181z"/></g><g style="mix-blend-mode:overlay" class="C B"><path d="M63.731 149.196l2.029-3.213 1.58 1.691-3.609 1.522z"/></g><g opacity=".7" class="D"><g style="mix-blend-mode:multiply" class="E"><path d="M34.49 154.705a.76.76 0 0 1-.275-.45l-.43-2.358a.43.43 0 0 1 .027-.251c.034-.079.091-.146.164-.193a.43.43 0 0 1 .244-.067c.086.002.17.03.239.081l2.83 1.988c.119.083.21.201.261.337s.059.284.024.425l-.358 1.396a.68.68 0 0 1-.437.474c-.106.037-.22.047-.331.029s-.216-.064-.305-.132l-1.652-1.279z"/></g><g style="mix-blend-mode:multiply" class="E"><path d="M35.133 154.254c.035.179.133.34.275.453l1.583 1.231c.102-.081.176-.192.212-.316l.358-1.396a.72.72 0 0 0-.024-.426c-.051-.136-.142-.254-.261-.337l-2.558-1.795a.41.41 0 0 0-.028.24l.443 2.346z"/></g></g><g style="mix-blend-mode:multiply" class="E D"><path d="M29.97 132.034l1.016 1.694 1.662-.424-.253-1.241-2.425-.029z"/></g><g style="mix-blend-mode:multiply" class="E D"><path d="M32.958 132.171l.171.902 3.691-.677.111-.535-3.973.31z"/></g><path d="M125.371 170.135l4.641-8.202.339 4.394-4.98 3.808z" class="B"/><g style="mix-blend-mode:multiply" opacity=".3" class="D"><path d="M125.371 170.136l-4.714-1.101 7.44-3.834-2.726 4.935z"/></g><g style="mix-blend-mode:multiply" class="E D"><path d="M25.971 133.537a3.92 3.92 0 0 0-.406 1.608c-.019.559.081 1.116.295 1.633l6.727 16.322.541-4.809-7.157-14.754z"/></g><path d="M55.563 166.79l.32 3.938 1.339-3.429-1.659-.509z" fill="#bad3d3"/><path d="M53.686 110.794c1.763.231 5.23.389 9.221.389l9.225-.389c-1.763-.231-5.233-.387-9.225-.387l-9.221.387z" fill="#4c3b30"/><g style="mix-blend-mode:overlay" class="E B"><path d="M62.968 109.725c-.826-1.146-1.472-2.533-1.472-3.91 0-1.266 1.181-3.798 1.181-7.382.051-1.899-.429-3.775-1.387-5.416 1.899 2.191 2.59 4.748 2.59 7.398 0 3.938-1.323 6.6-1.323 7.999a2.85 2.85 0 0 0 .18 1.013c.044.13.171.181.231.298z"/></g><g style="mix-blend-mode:overlay" class="E B"><path d="M65.06 110.222c-.501-.666-.773-1.477-.775-2.31 0-2.789 2.574-3.619 2.263-6.594-.171-1.678.263-2.314.291-3.21.203 1.583.522 3.089.522 4.688 0 2.422-2.349 3.833-2.349 6.762 0 .222.016.444.047.664z"/></g><path style="mix-blend-mode:multiply" d="M56.912 123.901l1.386-2.343-1.82-2.384.867-.604 1.345 1.991 1.038-2.254h1.994l-2.384 3.251 1.735 2.428-1.257.219-1.041-1.865-1.561 2.428-.304-.867z" fill="url(#O)"/><path style="mix-blend-mode:multiply" d="M61.508 120.431l1.266.174-.263-1.311 1.212.133-.174 1.083 1.171-.13v1.212l-1.266-.174.13 1.387c-.363-.007-.726.023-1.083.088l.13-1.56-1.041.215-.082-1.117z" fill="url(#P)"/><path style="mix-blend-mode:multiply" d="M64.497 117.353l2.558 3.295-2.15 4.293.991-.076 3.846-7.683-.823-.564-1.431 3.292-2.035-3.032-.956.475z" fill="url(#Q)"/><defs><radialGradient id="A" cx="0" cy="0" r="1" gradientTransform="translate(83.4151 112.379) rotate(-90) scale(112.379 83.4151)" href="#R"><stop stop-color="#ab2f2e"/><stop offset="1" stop-color="#721711"/></radialGradient><linearGradient id="B" x1="36.487" y1="122.146" x2="55.557" y2="120.415" href="#R"><stop stop-color="#fffee6"/><stop offset="1" stop-color="#d3bac4"/></linearGradient><linearGradient id="C" x1="36.484" y1="122.125" x2="55.554" y2="120.39" href="#R"><stop stop-color="#b07fc9"/><stop offset="1" stop-color="#e5c06e"/></linearGradient><linearGradient id="D" x1="51.641" y1="120.56" x2="74.408" y2="120.56" href="#R"><stop stop-color="#fffee6"/><stop offset="1" stop-color="#d3bac4"/></linearGradient><linearGradient id="E" x1="54.753" y1="120.651" x2="75.108" y2="120.651" href="#R"><stop offset=".01" stop-color="#70367a"/><stop offset="1" stop-color="#fceeb4"/></linearGradient><linearGradient id="F" x1="35.443" y1="116.685" x2="79.046" y2="127.002" href="#R"><stop offset=".02" stop-color="#70367a"/><stop offset="1" stop-color="#fceeb4"/></linearGradient><linearGradient id="G" x1="96.34" y1="141.672" x2="62.521" y2="142.91" href="#R"><stop stop-color="#fffee6"/><stop offset="1" stop-color="#d3bac4"/></linearGradient><linearGradient id="H" x1="134.273" y1="185.139" x2="88.733" y2="155.155" href="#R"><stop stop-color="#fffee6"/><stop offset="1" stop-color="#d3bac4"/></linearGradient><linearGradient id="I" x1="32.92" y1="166.586" x2="61.477" y2="140.445" href="#R"><stop offset=".01" stop-color="#5082a0"/><stop offset="1" stop-color="#aecece"/></linearGradient><linearGradient id="J" x1="44.968" y1="145.666" x2="28.51" y2="169.563" href="#R"><stop stop-color="#b07fc9"/><stop offset="1" stop-color="#e5c06e"/></linearGradient><linearGradient id="K" x1="23.781" y1="144.21" x2="53.876" y2="132.713" href="#R"><stop stop-color="#b07fc9"/><stop offset="1" stop-color="#e5c06e"/></linearGradient><linearGradient id="L" x1="86.232" y1="153.627" x2="30.739" y2="150.29" href="#R"><stop stop-color="#fffee6"/><stop offset="1" stop-color="#d3bac4"/></linearGradient><linearGradient id="M" x1="110.556" y1="119.317" x2="133.339" y2="119.317" href="#R"><stop stop-color="#ce5b38"/><stop offset="1" stop-color="#db8346"/></linearGradient><linearGradient id="N" x1="52.233" y1="129.53" x2="63.753" y2="129.53" href="#R"><stop stop-color="#fffee6"/><stop offset="1" stop-color="#d3bac4"/></linearGradient><linearGradient id="O" x1="34.654" y1="123.578" x2="83.196" y2="119.418" href="#R"><stop offset=".02" stop-color="#70367a"/><stop offset="1" stop-color="#fceeb4"/></linearGradient><linearGradient id="P" x1="34.645" y1="123.495" x2="83.189" y2="119.335" href="#R"><stop offset=".02" stop-color="#70367a"/><stop offset="1" stop-color="#fceeb4"/></linearGradient><linearGradient id="Q" x1="34.648" y1="123.529" x2="83.193" y2="119.369" href="#R"><stop offset=".02" stop-color="#70367a"/><stop offset="1" stop-color="#fceeb4"/></linearGradient><linearGradient id="R" gradientUnits="userSpaceOnUse"/></defs></svg>