<svg width="167" height="225" viewBox="0 0 167 225" fill="none" xmlns="http://www.w3.org/2000/svg">
<rect width="166.83" height="224.757" rx="12.744" fill="url(#paint0_radial_175_3107)"/>
<path d="M47.333 42C46.6592 42 46.0527 41.8564 45.5137 41.5693C44.9805 41.2939 44.5498 40.8984 44.2217 40.3828C44.1455 40.2656 44.0693 40.1162 43.9932 39.9346C43.9287 39.7822 43.8789 39.6152 43.8438 39.4336C43.8027 39.2578 43.7705 39.0527 43.7471 38.8184C43.7295 38.6543 43.7207 38.3936 43.7207 38.0361V32.042H47.5176V36.2871C47.5176 36.9902 47.5645 37.4502 47.6582 37.667C47.7637 38.042 48.1855 38.2324 48.9238 38.2383H55.9199C56.6582 38.2324 57.083 38.042 57.1943 37.667C57.2881 37.4502 57.335 36.9902 57.335 36.2871V31.6816H61.1318V38.2383L61.0967 38.8184C61.0791 39.0469 61.0527 39.252 61.0176 39.4336C60.9707 39.6152 60.918 39.7822 60.8594 39.9346C60.7773 40.1162 60.6982 40.2656 60.6221 40.3828C60.2998 40.8984 59.8721 41.2939 59.3389 41.5693C58.7998 41.8564 58.1934 42 57.5195 42H47.333ZM51.4375 26.4961C51.0684 26.1387 50.6289 25.96 50.1191 25.96C49.6094 25.96 49.1729 26.1387 48.8096 26.4961C48.4463 26.8652 48.2646 27.3047 48.2646 27.8145C48.2646 28.3301 48.4463 28.7666 48.8096 29.124C49.167 29.4932 49.6035 29.6777 50.1191 29.6777C50.6348 29.6777 51.0742 29.4932 51.4375 29.124C51.8008 28.7666 51.9824 28.3301 51.9824 27.8145C51.9824 27.3047 51.8008 26.8652 51.4375 26.4961ZM56.1924 26.4961C55.8232 26.1387 55.3838 25.96 54.874 25.96C54.3584 25.96 53.9219 26.1387 53.5645 26.4961C53.2012 26.8652 53.0195 27.3047 53.0195 27.8145C53.0195 28.3301 53.2012 28.7666 53.5645 29.124C53.9219 29.4932 54.3584 29.6777 54.874 29.6777C55.3896 29.6777 55.8291 29.4932 56.1924 29.124C56.5498 28.7666 56.7285 28.3301 56.7285 27.8145C56.7285 27.3047 56.5498 26.8652 56.1924 26.4961ZM66.3789 30.7236V36.2871C66.3789 36.9902 66.4258 37.4502 66.5195 37.667C66.625 38.042 67.0469 38.2324 67.7852 38.2383H68.3301V42H66.1943C65.5205 42 64.9141 41.8564 64.375 41.5693C63.8418 41.2939 63.4111 40.8984 63.083 40.3828C63.0068 40.2656 62.9307 40.1162 62.8545 39.9346C62.79 39.7822 62.7402 39.6152 62.7051 39.4336C62.6641 39.2578 62.6318 39.0527 62.6084 38.8184C62.5908 38.6543 62.582 38.3936 62.582 38.0361V27.6738H66.6162V30.7236H66.3789ZM70.2021 46.377C70.7178 46.377 71.1572 46.1953 71.5205 45.832C71.8779 45.4688 72.0566 45.0322 72.0566 44.5225C72.0566 44.0068 71.8779 43.5674 71.5205 43.2041C71.1514 42.8408 70.7119 42.6592 70.2021 42.6592C69.6865 42.6592 69.25 42.8408 68.8926 43.2041C68.5293 43.5674 68.3477 44.0068 68.3477 44.5225C68.3477 45.0381 68.5293 45.4746 68.8926 45.832C69.25 46.1953 69.6865 46.377 70.2021 46.377ZM74.957 46.377C75.4668 46.377 75.9062 46.1953 76.2754 45.832C76.6328 45.4688 76.8115 45.0322 76.8115 44.5225C76.8115 44.0068 76.6328 43.5674 76.2754 43.2041C75.9062 42.8408 75.4668 42.6592 74.957 42.6592C74.4414 42.6592 74.0049 42.8408 73.6475 43.2041C73.2783 43.5674 73.0938 44.0068 73.0938 44.5225C73.0938 45.0381 73.2783 45.4746 73.6475 45.832C74.0049 46.1953 74.4414 46.377 74.957 46.377ZM67.6182 42V38.2383H71.7578C72.4961 38.2324 72.918 38.042 73.0234 37.667C73.123 37.4502 73.1729 36.9902 73.1729 36.2871V32.042H76.9609V38.2383H78.042V42H67.6182ZM85.9521 38.2383C86.0342 38.1797 86.084 38.0654 86.1016 37.8955V37.8428C86.1016 37.2217 85.917 36.7324 85.5479 36.375C85.1904 36.0352 84.7217 35.8594 84.1416 35.8477H84.0625C83.4297 35.8477 82.9258 36.0352 82.5508 36.4102C82.1641 36.7969 81.9707 37.2979 81.9707 37.9131L81.9619 38.2383H85.9521ZM78.4023 38.2383V31.6641H81.9004V32.3672C82.5742 32.1094 83.2949 31.9805 84.0625 31.9805H84.1416C85.1846 31.9922 86.1045 32.2295 86.9014 32.6924C87.71 33.1553 88.3867 33.8613 88.9316 34.8105C89.1426 35.1914 89.3066 35.6221 89.4238 36.1025C89.5352 36.6123 89.5908 37.1074 89.5908 37.5879V38.2383C89.585 38.4551 89.5527 38.7539 89.4941 39.1348C89.4355 39.5391 89.377 39.8057 89.3184 39.9346C89.2422 40.1162 89.166 40.2656 89.0898 40.3828C88.7617 40.8984 88.3311 41.2939 87.7979 41.5693C87.2588 41.8564 86.6523 42 85.9785 42H77.3213V38.2383H78.4023ZM86.3037 28.6758C86.3037 28.166 86.1221 27.7295 85.7588 27.3662C85.3896 27.0029 84.9502 26.8213 84.4404 26.8213C83.9307 26.8213 83.4941 27.0029 83.1309 27.3662C82.7676 27.7295 82.5859 28.166 82.5859 28.6758C82.5859 29.1973 82.7676 29.6367 83.1309 29.9941C83.4883 30.3574 83.9248 30.5391 84.4404 30.5391C84.9561 30.5391 85.3955 30.3574 85.7588 29.9941C86.1221 29.6309 86.3037 29.1914 86.3037 28.6758ZM94.8379 30.7236V36.2871C94.8379 36.9902 94.8848 37.4502 94.9785 37.667C95.084 38.042 95.5059 38.2324 96.2441 38.2383H96.7891V42H94.6533C93.9795 42 93.373 41.8564 92.834 41.5693C92.3008 41.2939 91.8701 40.8984 91.542 40.3828C91.4658 40.2656 91.3896 40.1162 91.3135 39.9346C91.249 39.7822 91.1992 39.6152 91.1641 39.4336C91.123 39.2578 91.0908 39.0527 91.0674 38.8184C91.0498 38.6543 91.041 38.3936 91.041 38.0361V27.6738H95.0752V30.7236H94.8379ZM96.0771 42V38.2383H100.217C100.955 38.2324 101.377 38.042 101.482 37.667C101.582 37.4502 101.632 36.9902 101.632 36.2871V32.042H105.42V38.0361C105.42 38.3936 105.411 38.6543 105.394 38.8184C105.376 39.0469 105.347 39.252 105.306 39.4336C105.265 39.6152 105.212 39.7822 105.147 39.9346C105.071 40.1162 104.995 40.2656 104.919 40.3828C104.591 40.8984 104.16 41.2939 103.627 41.5693C103.088 41.8564 102.481 42 101.808 42H96.0771ZM98.6611 46.377C99.1768 46.377 99.6162 46.1953 99.9795 45.832C100.337 45.4688 100.516 45.0322 100.516 44.5225C100.516 44.0068 100.337 43.5674 99.9795 43.2041C99.6104 42.8408 99.1709 42.6592 98.6611 42.6592C98.1455 42.6592 97.709 42.8408 97.3516 43.2041C96.9883 43.5674 96.8066 44.0068 96.8066 44.5225C96.8066 45.0381 96.9883 45.4746 97.3516 45.832C97.709 46.1953 98.1455 46.377 98.6611 46.377ZM103.416 46.377C103.926 46.377 104.365 46.1953 104.734 45.832C105.092 45.4688 105.271 45.0322 105.271 44.5225C105.271 44.0068 105.092 43.5674 104.734 43.2041C104.365 42.8408 103.926 42.6592 103.416 42.6592C102.9 42.6592 102.464 42.8408 102.106 43.2041C101.737 43.5674 101.553 44.0068 101.553 44.5225C101.553 45.0381 101.737 45.4746 102.106 45.832C102.464 46.1953 102.9 46.377 103.416 46.377ZM106.141 43.7754C107.254 43.5527 107.878 42.9609 108.013 42L107.986 31.4707L111.774 31.4619V38.2383H113.646V42H111.678C111.59 44.2559 110.28 45.7617 107.749 46.5176L106.141 43.7754ZM118.683 30.7061V38.0361C118.683 38.3936 118.671 38.6543 118.647 38.8184C118.63 39.0469 118.604 39.252 118.568 39.4336C118.521 39.6152 118.469 39.7822 118.41 39.9346C118.328 40.1162 118.249 40.2656 118.173 40.3828C117.851 40.8984 117.423 41.2939 116.89 41.5693C116.351 41.8564 115.744 42 115.07 42H112.935V38.2383H113.471C114.209 38.2324 114.634 38.042 114.745 37.667C114.839 37.4502 114.886 36.9902 114.886 36.2871V27.6738H118.92V30.7061H118.683ZM121.653 42V30.7939H121.082V27.6738H125.151V42H121.653Z" fill="#F7BF59"/>
<path d="M23.1347 119.712L23.0144 119.395L23.4766 119.221L23.4449 119.199C27.747 113.346 31.2893 108.408 34.1351 104.438C42.0839 93.3584 45.0564 89.2114 46.8577 89.6293C48.165 89.9459 48.6019 92.586 49.3901 97.3913C49.9409 100.741 50.6247 104.913 51.8593 109.933L51.9004 110.101L51.7327 110.142C48.6684 110.896 45.7592 112.042 42.9481 113.15C40.0136 114.305 36.981 115.502 33.7173 116.277C30.1053 117.135 26.9936 118.287 23.695 119.513L23.1347 119.712ZM46.5981 89.9554C44.952 89.9554 41.5553 94.7037 34.4169 104.647C31.6312 108.531 28.1775 113.346 24.0021 119.034C27.1677 117.866 30.1623 116.771 33.6381 115.945C36.8765 115.176 39.8997 113.985 42.8184 112.833C45.5883 111.741 48.4531 110.617 51.4794 109.854C50.267 104.894 49.5801 100.772 49.0451 97.4546C48.3297 93.1019 47.858 90.2276 46.7754 89.9743C46.7176 89.9574 46.6581 89.9468 46.5981 89.9427V89.9554Z" fill="#D37F40"/>
<path d="M28.4466 118.142L28.0604 117.755C26.9366 116.619 26.4776 116.15 25.3728 116.15V115.815C26.6169 115.815 27.1804 116.388 28.3041 117.524L28.6903 117.911L28.4466 118.142Z" fill="#D37F40"/>
<path d="M29.1049 117.012C28.8191 116.799 28.5444 116.572 28.2819 116.331C27.7057 115.818 27.1074 115.29 26.3572 115.125L26.4332 114.786C27.272 114.97 27.902 115.53 28.5129 116.072C28.7659 116.305 29.0312 116.525 29.3075 116.73L29.1049 117.012Z" fill="#D37F40"/>
<path d="M49.7415 110.552C49.4064 109.654 48.9426 108.81 48.3645 108.045L48.6304 107.821C49.2313 108.611 49.7134 109.486 50.0613 110.416L49.7415 110.552Z" fill="#D37F40"/>
<path d="M48.4976 107.973V107.625C48.9352 107.596 49.3641 107.489 49.7638 107.308C50.0928 107.171 50.4341 107.065 50.7831 106.992L50.8401 107.334C50.5147 107.402 50.1967 107.502 49.8904 107.631C49.4503 107.828 48.9786 107.943 48.4976 107.973Z" fill="#D37F40"/>
<path d="M33.977 102.836L33.6351 102.789C33.6507 102.667 33.6581 102.544 33.6572 102.421C33.6443 102.017 33.5977 101.615 33.5179 101.219C33.4367 100.817 33.3891 100.409 33.3755 99.9998H33.7237C33.737 100.39 33.7825 100.779 33.8598 101.162C33.9446 101.579 33.9933 102.002 34.0054 102.428C34.0057 102.564 33.9961 102.701 33.977 102.836Z" fill="#D37F40"/>
<path d="M32.5524 101.709L32.5017 101.367C32.8183 101.319 33.1127 101.259 33.4039 101.202C33.9539 101.07 34.5162 100.996 35.0817 100.981V101.326C34.5396 101.341 34.0007 101.414 33.4735 101.541C33.1791 101.601 32.8721 101.661 32.5524 101.709Z" fill="#D37F40"/>
<path d="M53.9264 103.745C53.5979 103.587 53.3122 103.353 53.0939 103.061C52.9108 102.811 52.671 102.608 52.3943 102.469L52.5209 102.152C52.8508 102.309 53.1368 102.545 53.3535 102.839C53.5378 103.089 53.7786 103.292 54.0562 103.431L53.9264 103.745Z" fill="#D37F40"/>
<path d="M53.4357 106.788C53.4167 106.557 53.4104 106.317 53.4104 106.073C53.4569 104.473 53.7253 102.888 54.2081 101.363L54.5247 101.458C54.051 102.952 53.7868 104.506 53.7396 106.073C53.7396 106.307 53.7396 106.541 53.7649 106.763L53.4357 106.788Z" fill="#D37F40"/>
<path d="M31.6691 112.648C31.2892 112.648 31.0961 112.297 31.0961 111.604C31.0961 111.484 31.0961 111.357 31.0961 111.23C31.0961 111.104 31.0961 110.98 31.0961 110.854C31.0983 110.699 31.0856 110.544 31.0581 110.391L31.3968 110.325C31.4308 110.499 31.4467 110.676 31.4443 110.854C31.4443 110.983 31.4443 111.116 31.4443 111.246C31.4443 111.376 31.4443 111.487 31.4443 111.604C31.4443 111.816 31.4665 112.303 31.6691 112.303C31.8952 112.26 32.1105 112.172 32.3022 112.044C32.4168 111.976 32.5351 111.915 32.6567 111.86L32.7929 112.177C32.6947 112.221 32.5839 112.281 32.4763 112.345C32.2357 112.51 31.9588 112.614 31.6691 112.648Z" fill="#D37F40"/>
<path d="M33.2012 113.558C33.0429 113.21 32.8656 112.871 32.6947 112.545C32.5238 112.219 32.3402 111.871 32.1787 111.513L32.4953 111.371C32.6504 111.716 32.8308 112.058 33.0018 112.384C33.1727 112.71 33.3531 113.058 33.5146 113.413L33.2012 113.558Z" fill="#D37F40"/>
<path d="M34.3378 112.414C34.217 112.415 34.0983 112.383 33.9937 112.322C33.8892 112.262 33.8026 112.174 33.7427 112.069L34.0339 111.886C34.0642 111.943 34.1099 111.991 34.1659 112.023C34.2219 112.055 34.2858 112.072 34.3505 112.069C34.5168 112.058 34.6719 111.981 34.7822 111.856C34.8924 111.731 34.9489 111.568 34.9393 111.401C34.9393 111.044 34.7462 110.661 34.4581 110.661H34.3885C34.227 110.68 33.9295 110.715 33.7554 110.715C33.1729 110.715 32.8785 110.464 32.6284 109.765L32.945 109.648C33.1634 110.265 33.3597 110.363 33.7427 110.363C33.9042 110.363 34.2049 110.331 34.3473 110.316H34.455C34.971 110.316 35.2812 110.87 35.2812 111.405C35.2858 111.533 35.2651 111.661 35.2202 111.781C35.1752 111.901 35.107 112.012 35.0193 112.106C34.9317 112.199 34.8263 112.275 34.7094 112.328C34.5924 112.381 34.4662 112.41 34.3378 112.414Z" fill="#D37F40"/>
<path d="M32.8881 110.049L32.6792 109.77C32.9571 109.526 33.3073 109.379 33.6764 109.353V109.701C33.3836 109.731 33.1079 109.853 32.8881 110.049Z" fill="#D37F40"/>
<path d="M35.1958 109.232C35.1305 109.231 35.0663 109.215 35.0078 109.186C34.9493 109.157 34.8978 109.115 34.8571 109.064L34.6481 109.188C34.5746 109.065 34.5352 108.926 34.5342 108.783C34.5241 108.705 34.5305 108.626 34.5529 108.551C34.5753 108.475 34.6132 108.406 34.6643 108.346C34.7153 108.287 34.7783 108.238 34.8491 108.205C34.92 108.171 34.9971 108.153 35.0755 108.151C35.154 108.149 35.2319 108.163 35.3044 108.193C35.3769 108.223 35.4422 108.268 35.4962 108.325C35.5502 108.382 35.5917 108.449 35.6179 108.523C35.6442 108.597 35.6546 108.676 35.6485 108.754C35.6506 108.815 35.6405 108.876 35.6188 108.934C35.5971 108.991 35.5643 109.043 35.5221 109.088C35.48 109.132 35.4295 109.168 35.3735 109.193C35.3174 109.218 35.257 109.231 35.1958 109.232ZM34.9964 108.599C35.0407 108.776 35.1356 108.897 35.1958 108.897C35.2559 108.897 35.3003 108.855 35.3003 108.767C35.3003 108.678 35.2053 108.498 35.0945 108.498C35.0578 108.5 35.0224 108.513 34.9923 108.534C34.9622 108.555 34.9384 108.584 34.9235 108.618L34.9964 108.599Z" fill="#D37F40"/>
<path d="M110.42 114.016V113.921C105.614 79.7329 104.088 68.9288 103.553 67.2447C103.519 67.4029 103.481 67.6182 103.449 67.805C103.341 68.4381 103.218 69.144 102.968 69.5144L102.68 69.3181C102.889 69.0016 102.996 68.3115 103.107 67.7353C103.234 66.9977 103.275 66.697 103.541 66.6938C104.114 66.6938 104.316 68.0266 110.765 113.861V113.956L110.42 114.016Z" fill="#D37F40"/>
<path d="M89.5901 96.4034L89.4856 96.071C93.1798 94.9187 97.0229 94.4344 101.091 93.9184C105.504 93.3581 110.065 92.782 114.823 91.2973L115.592 91.0536L115.668 91.0314C134.063 89.7652 136.283 89.6006 136.561 89.5879C137.177 89.6082 137.786 89.7202 138.369 89.9203C138.821 90.0651 139.285 90.171 139.755 90.2368L139.72 90.5819C139.23 90.5192 138.746 90.4133 138.274 90.2653C137.723 90.0781 137.149 89.9715 136.567 89.9488L115.703 91.3986C115.589 91.4366 115.228 91.5537 114.931 91.6455C110.144 93.1365 105.564 93.719 101.135 94.2793C97.0799 94.7763 93.2527 95.2606 89.5901 96.4034Z" fill="#D37F40"/>
<path d="M139.119 90.433C138.369 90.2684 137.824 89.7397 137.299 89.2269C137.008 88.9275 136.69 88.6562 136.349 88.4165L136.536 88.1252C136.896 88.3768 137.23 88.6619 137.536 88.9768C138.052 89.477 138.537 89.9486 139.192 90.0942L139.119 90.433Z" fill="#D37F40"/>
<path d="M136.558 91.4215L136.346 91.1461C136.616 90.9389 136.922 90.7824 137.248 90.6839C137.566 90.5937 137.89 90.526 138.217 90.4813C138.538 90.4386 138.855 90.372 139.166 90.2819C139.285 90.2454 139.401 90.2021 139.515 90.1521L139.657 90.4687C139.532 90.5269 139.403 90.5766 139.271 90.6174C138.945 90.7091 138.613 90.7789 138.277 90.8264C137.967 90.8684 137.66 90.9329 137.359 91.0195C137.069 91.1016 136.797 91.2381 136.558 91.4215Z" fill="#D37F40"/>
<path d="M105.64 69.6504C105.392 69.1889 105.046 68.787 104.627 68.4728C104.168 68.1277 103.792 67.6856 103.525 67.1781L103.841 67.0325C104.088 67.4952 104.434 67.8975 104.854 68.2101C105.313 68.5564 105.689 68.9995 105.956 69.508L105.64 69.6504Z" fill="#D37F40"/>
<path d="M120.442 96.927C119.578 96.8756 118.757 96.5305 118.115 95.9488C117.192 95.193 116.499 94.1941 116.115 93.0649C116.115 93.0649 116.115 93.0301 116.093 92.9795C115.843 92.0298 115.624 91.2511 115.459 90.6844L115.415 90.542C113.763 85.2364 113.32 83.8087 106.362 82.9699L106.403 82.6248C113.582 83.4922 114.086 85.1035 115.748 90.4375L115.792 90.5799C115.969 91.1529 116.188 91.9317 116.441 92.8908L116.46 92.9668C116.828 94.0313 117.486 94.9719 118.359 95.6829C119.242 96.4078 120.16 96.7117 120.892 96.5281C121.43 93.9956 124.478 81.4409 132.418 77.7656L132.563 78.0822C124.754 81.6941 121.75 94.1571 121.227 96.6167C121.202 96.737 121.189 96.8035 121.091 96.832C120.881 96.8971 120.662 96.9291 120.442 96.927Z" fill="#D37F40"/>
<path d="M128.615 94.6494C128.53 94.6494 128.464 94.5481 128.15 94.0606C120.834 82.7689 112.791 77.4412 105.503 79.0557L105.427 78.717C112.87 77.0677 121.04 82.4524 128.438 93.8707L128.695 94.26C129.929 93.6269 133.408 88.5366 136.216 84.4119C137.698 82.2403 139.1 80.1858 140.015 79.005L140.287 79.2171C139.375 80.3884 137.979 82.4397 136.488 84.5986C132.642 90.2429 129.841 94.2632 128.672 94.6241C128.655 94.635 128.636 94.6435 128.615 94.6494Z" fill="#D37F40"/>
<path d="M119.176 78.96C118.952 78.9675 118.73 78.9265 118.524 78.8397C118.42 78.7898 118.341 78.7011 118.302 78.5928C118.277 78.5029 118.262 78.4106 118.258 78.3174C118.254 78.2244 118.24 78.132 118.217 78.042L118.549 77.9407C118.579 78.0546 118.599 78.1713 118.606 78.2889C118.609 78.356 118.618 78.4226 118.631 78.4884C118.646 78.506 118.664 78.5201 118.685 78.5295C118.992 78.6322 119.323 78.6399 119.635 78.5517C119.746 78.526 119.849 78.4741 119.936 78.4003C120.023 78.3265 120.091 78.2329 120.135 78.1275C120.19 77.96 120.19 77.779 120.135 77.6115C120.024 77.2569 119.647 77.0575 119.249 76.8486C118.796 76.6112 118.327 76.3643 118.169 75.8483C118.07 75.543 118.094 75.2109 118.235 74.923C118.377 74.635 118.626 74.4138 118.929 74.3066C119.156 74.237 119.398 74.237 119.625 74.3066L119.527 74.6422C119.367 74.5899 119.194 74.5899 119.033 74.6422C118.819 74.723 118.644 74.883 118.544 75.0893C118.445 75.2955 118.428 75.5321 118.498 75.7501C118.615 76.1268 119.002 76.3294 119.413 76.5447C119.825 76.76 120.312 77.0195 120.464 77.4944C120.545 77.7358 120.545 77.9969 120.464 78.2383C120.402 78.3935 120.304 78.5318 120.178 78.6418C120.052 78.7519 119.901 78.8305 119.739 78.8714C119.556 78.9266 119.367 78.9565 119.176 78.96Z" fill="#D37F40"/>
<path d="M121.594 77.594C121.49 77.2098 121.422 76.8166 121.391 76.4196C121.363 76.0304 121.298 75.6446 121.198 75.2673C121.163 75.1587 121.12 75.0529 121.069 74.9508L121.385 74.7925C121.445 74.9136 121.495 75.0396 121.534 75.1692C121.643 75.5678 121.713 75.9759 121.743 76.3879C121.772 76.7611 121.834 77.1309 121.93 77.4927L121.594 77.594Z" fill="#D37F40"/>
<path d="M124.386 77.4598C124.3 77.1352 124.243 76.8036 124.215 76.4689C124.192 76.1848 124.144 75.9031 124.073 75.6269C123.962 75.2755 123.756 75.1425 123.487 75.2312C123.416 75.2546 123.351 75.296 123.3 75.3514C123.249 75.4069 123.213 75.4745 123.196 75.5477C123.171 75.627 123.156 75.7088 123.149 75.7915C123.611 77.2793 123.506 77.3141 123.345 77.3743C123.183 77.4344 123.057 77.2318 122.952 76.8963C122.842 76.5549 122.79 76.1976 122.797 75.839C122.762 75.7218 122.721 75.6047 122.683 75.4908C122.645 75.3768 122.601 75.2375 122.563 75.1141C122.479 74.8619 122.414 74.6037 122.37 74.3416L122.712 74.2847C122.754 74.5303 122.815 74.7726 122.892 75.0096C122.914 75.0824 122.94 75.1552 122.965 75.2312C123.06 75.0776 123.209 74.9649 123.383 74.9146C123.747 74.8007 124.206 74.9146 124.402 75.5477C124.483 75.8439 124.535 76.1471 124.557 76.4531C124.584 76.7664 124.638 77.0768 124.719 77.3806L124.386 77.4598Z" fill="#D37F40"/>
<path d="M127.691 76.3645C127.479 75.915 127.194 75.4148 126.922 74.9463C126.65 74.4778 126.359 73.9681 126.14 73.5091L126.457 73.3604C126.669 73.8067 126.954 74.31 127.226 74.7722C127.498 75.2344 127.789 75.7567 128.008 76.2157L127.691 76.3645Z" fill="#D37F40"/>
<path d="M126.267 76.246L125.95 76.1099C126.501 74.8437 127.368 73.9288 128.21 73.1216L128.448 73.3717C127.599 74.1916 126.795 75.0241 126.267 76.246Z" fill="#D37F40"/>
<path d="M135.662 100.377C135.526 100.377 135.391 100.353 135.263 100.307C135.126 100.256 135.003 100.173 134.903 100.066C134.803 99.9592 134.729 99.8304 134.687 99.6901C134.597 99.3874 134.629 99.0616 134.776 98.782C134.922 98.5024 135.172 98.291 135.472 98.1927C135.647 98.1386 135.831 98.1213 136.013 98.1421L135.979 98.4871C135.843 98.471 135.705 98.4828 135.573 98.5219C135.362 98.5944 135.187 98.7452 135.084 98.9432C134.981 99.1411 134.958 99.3711 135.019 99.5856C135.043 99.6772 135.088 99.7618 135.152 99.8318C135.215 99.9019 135.295 99.9554 135.384 99.9876C135.589 100.056 135.811 100.056 136.017 99.9876C136.247 99.9202 136.456 99.7939 136.622 99.6213C136.789 99.4487 136.907 99.2356 136.966 99.0031L137.308 99.0601C137.239 99.3594 137.091 99.6347 136.88 99.8574C136.668 100.08 136.401 100.242 136.105 100.326C135.961 100.364 135.811 100.381 135.662 100.377Z" fill="#D37F40"/>
<path d="M139.258 98.6233C139.104 98.623 138.956 98.5668 138.84 98.465C138.691 98.3255 138.581 98.1484 138.524 97.9522C138.522 97.9374 138.522 97.9226 138.524 97.9078L138.416 97.9427C138.141 97.0595 138.28 96.4612 138.796 96.2997C139.048 96.2214 139.321 96.2453 139.556 96.3662C139.687 96.4371 139.802 96.5336 139.895 96.6499C139.988 96.7663 140.057 96.9002 140.097 97.0436C140.21 97.3985 140.18 97.7832 140.015 98.1168C139.959 98.2291 139.881 98.3292 139.786 98.4113C139.691 98.4933 139.58 98.5557 139.461 98.5948C139.395 98.6144 139.327 98.624 139.258 98.6233ZM138.625 97.3159L138.84 97.3792C138.8 97.5336 138.806 97.6964 138.856 97.8477C138.893 97.982 138.967 98.1035 139.068 98.1991C139.105 98.235 139.15 98.26 139.2 98.2712C139.25 98.2824 139.302 98.2793 139.35 98.2624C139.427 98.2364 139.497 98.1949 139.557 98.1404C139.617 98.0859 139.665 98.0197 139.698 97.9458C139.819 97.6935 139.838 97.4047 139.752 97.1386C139.726 97.0389 139.679 96.9456 139.616 96.8645C139.552 96.7834 139.472 96.7162 139.382 96.6669C139.306 96.6272 139.224 96.6031 139.139 96.596C139.054 96.589 138.969 96.5991 138.888 96.6258C138.631 96.7113 138.593 97.0215 138.625 97.3159Z" fill="#D37F40"/>
<path d="M141.651 98.4424L141.484 98.1258L141.623 98.053C142.354 97.6605 142.997 97.2585 142.807 96.6475C142.744 96.4449 142.601 96.4164 142.316 96.3753C142.04 96.3616 141.779 96.2492 141.579 96.0587C141.551 96.0313 141.53 95.9976 141.518 95.9606C141.439 95.7042 141.788 95.4066 141.952 95.356L142.053 95.6725C141.98 95.7131 141.917 95.7706 141.87 95.8403C142.017 95.9369 142.188 95.9927 142.364 96.0017C142.649 96.0429 142.997 96.0935 143.136 96.5114C143.427 97.4611 142.44 97.9771 141.788 98.3253L141.651 98.4424Z" fill="#D37F40"/>
<path d="M145.229 96.6229L144.912 96.4615C145.042 96.2177 145.438 95.4675 145.263 94.9167C145.233 94.8165 145.184 94.723 145.118 94.6413L145.387 94.4229C145.481 94.5381 145.552 94.6703 145.596 94.8122C145.798 95.4295 145.482 96.1418 145.229 96.6229Z" fill="#D37F40"/>
<path d="M144.273 95.7641L144.225 95.419C144.646 95.362 145.102 95.2576 145.545 95.1563C145.988 95.055 146.457 94.9474 146.894 94.8872L146.941 95.2291C146.52 95.2892 146.064 95.3937 145.621 95.495C145.178 95.5963 144.709 95.7039 144.273 95.7641Z" fill="#D37F40"/>
<path d="M100.587 70.7181C100.354 70.5444 100.155 70.3299 99.9984 70.0849C99.882 69.9032 99.7402 69.7391 99.5774 69.5974L99.7958 69.3284C99.9834 69.4908 100.147 69.6796 100.28 69.8887C100.414 70.1046 100.585 70.2944 100.787 70.449L100.587 70.7181Z" fill="#D37F40"/>
<path d="M98.7768 75.0254L98.4602 74.8766C98.6248 74.5347 98.7926 74.196 98.9635 73.8541C99.6283 72.5341 100.312 71.1697 100.591 69.6755L100.929 69.7388C100.644 71.2805 99.948 72.6702 99.2738 74.0124C99.1092 74.3448 98.9382 74.6867 98.7768 75.0254Z" fill="#D37F40"/>
<path d="M140.99 89.1705C140.524 88.6806 140.092 88.1592 139.698 87.6098L139.983 87.4136C140.371 87.9497 140.794 88.4594 141.249 88.9394L140.99 89.1705Z" fill="#D37F40"/>
<path d="M139.999 89.3937L139.701 89.2101L140.126 88.52C140.759 87.5007 141.338 86.5383 142.025 85.595L142.307 85.8007C141.632 86.7314 141.04 87.7001 140.43 88.7004L139.999 89.3937Z" fill="#D37F40"/>
<path d="M51.0048 80.3244H50.9763C50.3432 80.2927 49.5803 79.8591 49.0168 78.998H48.9155C48.9124 78.9516 48.9124 78.9051 48.9155 78.8587C48.648 78.3972 48.4557 77.896 48.3457 77.3741C47.6588 78.6403 46.5572 79.6786 44.8288 79.8496L44.7939 79.5045C46.6585 79.3209 47.6873 78.0198 48.2476 76.8169C48.1838 76.3279 48.1657 75.8341 48.1938 75.3418C48.3774 71.6855 48.7953 71.6633 48.9567 71.6633C49.115 71.6633 49.3302 71.7741 49.3777 72.746C49.4137 74.1572 49.1493 75.5599 48.6022 76.8612C48.6774 77.3955 48.8332 77.9153 49.0643 78.4029C49.1483 78.2303 49.2607 78.073 49.3967 77.9375C49.5217 77.7978 49.6749 77.6863 49.8463 77.6105C50.0177 77.5346 50.2033 77.4961 50.3907 77.4975C51.3404 77.545 51.5873 79.0803 51.562 79.5995C51.5398 80.2389 51.1853 80.3244 51.0048 80.3244ZM49.2986 78.7764C49.7956 79.5583 50.4509 79.954 50.9922 79.9825C51.1315 79.9825 51.2138 79.8496 51.2264 79.5647C51.2518 79.0993 51.027 77.8584 50.3844 77.8236C50.2464 77.828 50.1108 77.8603 49.9857 77.9185C49.8606 77.9767 49.7485 78.0596 49.6563 78.1623C49.485 78.3319 49.3616 78.5438 49.2986 78.7764ZM48.963 72.1002C48.8396 72.4167 48.6465 73.3316 48.5515 75.3481C48.5515 75.6077 48.5515 75.8514 48.5515 76.0888C49.1276 74.3952 49.1118 72.613 48.963 72.1002Z" fill="#D37F40"/>
<path d="M63.3189 79.2861H63.2872C62.5813 79.2512 61.8532 78.7574 61.3372 77.9628H61.2296C61.2296 77.9154 61.2296 77.8679 61.2454 77.8204C60.9793 77.3582 60.787 76.8573 60.6756 76.3357C59.9887 77.602 58.887 78.6434 57.1555 78.8144L57.1301 78.463C58.9947 78.2762 60.0235 76.9752 60.5806 75.7722C60.5193 75.2831 60.5013 74.7894 60.5268 74.2971C60.7136 70.644 61.1283 70.6218 61.2897 70.6218C61.448 70.6218 61.6633 70.7326 61.7107 71.7045C61.7462 73.1156 61.4819 74.5183 60.9352 75.8197C61.0063 76.3555 61.1612 76.8768 61.3942 77.3645C61.4788 77.1887 61.5922 77.0282 61.7297 76.8897C61.8552 76.7518 62.0083 76.6416 62.1789 76.5664C62.3496 76.4911 62.5341 76.4525 62.7206 76.4529C63.6702 76.5003 63.9203 78.0356 63.8918 78.5548C63.8911 78.7346 63.8442 78.9111 63.7557 79.0676C63.7079 79.1386 63.6425 79.1959 63.566 79.2342C63.4894 79.2725 63.4043 79.2903 63.3189 79.2861ZM61.6094 77.7444L61.6284 77.7729C62.0811 78.4757 62.7111 78.9094 63.3062 78.941C63.3365 78.9442 63.3671 78.9384 63.3941 78.9243C63.4211 78.9102 63.4434 78.8885 63.4582 78.8619C63.5139 78.7578 63.5422 78.6412 63.5405 78.5231C63.5626 78.0546 63.341 76.8137 62.6984 76.7821C62.56 76.7864 62.4239 76.8186 62.2982 76.8769C62.1726 76.9351 62.06 77.018 61.9672 77.1208C61.7939 77.2927 61.6703 77.5081 61.6094 77.7444ZM61.2739 71.065C61.1504 71.3816 60.9573 72.2964 60.8655 74.3129C60.8655 74.5757 60.8497 74.8226 60.8655 75.0537C61.4385 73.3601 61.4227 71.5747 61.2739 71.065Z" fill="#D37F40"/>
<path d="M53.116 78.5263H53.04V78.1813C53.3821 78.1788 53.7146 78.068 53.9897 77.8647C54.177 77.7397 54.3804 77.6407 54.5943 77.5703L54.6893 77.9059C54.5058 77.9669 54.3312 78.0521 54.1702 78.1591C53.8617 78.381 53.4955 78.5085 53.116 78.5263Z" fill="#D37F40"/>
<path d="M66.4749 76.8133H66.3704C66.2222 76.8063 66.0755 76.7808 65.9336 76.7373L66.0349 76.4208C66.1489 76.4559 66.267 76.4761 66.3863 76.4809C66.7666 76.4787 67.1444 76.4189 67.5069 76.3036C67.6873 76.2593 67.8678 76.2118 68.045 76.177L68.1115 76.5157C67.9406 76.5505 67.7665 76.5949 67.5955 76.6392C67.2308 76.744 66.8543 76.8025 66.4749 76.8133Z" fill="#D37F40"/>
<path d="M71.9608 77.9583H71.8785C71.6187 77.9388 71.3677 77.8562 71.147 77.7177C70.9264 77.5793 70.7428 77.3891 70.6123 77.1637C70.34 76.7363 70.2042 76.2361 70.2229 75.7297C70.2545 75.1314 70.6376 74.283 71.2549 74.3115C71.3775 74.313 71.4962 74.3547 71.5929 74.4302C71.6895 74.5057 71.7587 74.6108 71.7899 74.7293C71.7947 74.7651 71.7947 74.8013 71.7899 74.837C71.7809 74.9012 71.7582 74.9628 71.7232 75.0174C71.6883 75.0721 71.6419 75.1185 71.5873 75.1535C71.4873 75.2292 71.3644 75.2684 71.2391 75.2643L71.2549 74.9193C71.2783 74.9254 71.3028 74.9258 71.3264 74.9203C71.35 74.9149 71.3719 74.9037 71.3902 74.8879C71.4085 74.872 71.4226 74.8519 71.4314 74.8294C71.4402 74.8068 71.4433 74.7825 71.4406 74.7584C71.4378 74.7344 71.4292 74.7114 71.4156 74.6914C71.4019 74.6714 71.3835 74.6551 71.3621 74.6438C71.3407 74.6325 71.3169 74.6266 71.2927 74.6266C71.2685 74.6266 71.2446 74.6326 71.2232 74.6439C70.8623 74.6439 70.5901 75.277 70.5553 75.7328C70.5409 76.1677 70.6578 76.5968 70.8908 76.9643C70.9922 77.1416 71.1349 77.2919 71.3069 77.4021C71.4789 77.5123 71.675 77.5793 71.8785 77.5974C72.2145 77.5995 72.5436 77.5024 72.8246 77.3183C73.1056 77.1341 73.326 76.8711 73.4581 76.5622L73.7747 76.6889C73.6251 77.0516 73.3748 77.3638 73.0534 77.5888C72.7319 77.8137 72.3528 77.9419 71.9608 77.9583Z" fill="#D37F40"/>
<path d="M76.7569 77.2323H76.6778C76.33 77.2136 75.9951 77.0941 75.7141 76.8883C75.4331 76.6826 75.2179 76.3996 75.095 76.0737L74.8955 76.0959C74.8861 75.9969 74.8861 75.8973 74.8955 75.7983C74.9342 75.3141 75.1569 74.8632 75.5179 74.5382C75.8788 74.2132 76.3505 74.0388 76.836 74.0509C77.7382 74.0952 78.1719 74.9214 78.1308 75.7097C78.0896 76.4979 77.6528 77.2323 76.7569 77.2323ZM75.2627 75.6495H75.402C75.3672 76.3016 76.07 76.8461 76.6936 76.8778C77.504 76.9157 77.7636 76.1465 77.7889 75.6843C77.8174 75.0829 77.5293 74.4181 76.8202 74.3864C76.4535 74.3787 76.0959 74.5014 75.8113 74.7327C75.5266 74.9641 75.3333 75.289 75.2659 75.6495H75.2627Z" fill="#D37F40"/>
<path d="M80.0396 76.9929H79.9795L79.9985 76.6478C80.2061 76.6495 80.4115 76.6052 80.5999 76.518C80.6917 76.4737 80.9165 76.3598 80.9165 76.2015C80.9355 75.8121 80.5999 75.619 80.0554 75.3499C79.511 75.0809 78.9095 74.7833 78.9443 74.0679C78.9425 74.0301 78.9486 73.9924 78.9623 73.9572C78.976 73.9219 78.997 73.89 79.0239 73.8634C79.0508 73.8368 79.0829 73.8162 79.1183 73.8029C79.1537 73.7896 79.1915 73.7839 79.2292 73.7861C79.33 73.7973 79.4277 73.8274 79.5173 73.8748C79.6176 73.9223 79.7242 73.9554 79.8338 73.9729V74.3179C79.6818 74.3025 79.5338 74.2596 79.397 74.1913L79.2894 74.1565C79.3084 74.5649 79.6566 74.7675 80.2074 75.0397C80.7582 75.3119 81.2932 75.5747 81.2615 76.2173C81.2414 76.3563 81.183 76.487 81.0931 76.5948C81.0031 76.7027 80.885 76.7835 80.7519 76.8283C80.5288 76.9329 80.286 76.989 80.0396 76.9929Z" fill="#D37F40"/>
<path d="M85.4021 77.0153H85.3198C85.0731 76.9957 84.8332 76.925 84.6153 76.8079C84.3973 76.6907 84.206 76.5296 84.0535 76.3347C83.7817 76.007 83.6171 75.6037 83.5819 75.1793C83.5382 75.2468 83.4981 75.3166 83.4616 75.3882L83.145 75.2363C83.3712 74.8093 83.7086 74.4515 84.1215 74.2007C84.5345 73.9499 85.0076 73.8155 85.4907 73.8118C85.8974 73.8234 86.284 73.9912 86.5702 74.2803C86.7138 74.4308 86.8246 74.6096 86.8954 74.8052C86.9663 75.0009 86.9957 75.2091 86.9817 75.4167C86.9637 75.8458 86.7892 76.2535 86.4911 76.5627C86.35 76.7084 86.1806 76.8237 85.9933 76.9015C85.8061 76.9794 85.6049 77.0181 85.4021 77.0153ZM83.9459 74.7614C83.9339 74.8284 83.9264 74.8961 83.9238 74.964C83.9091 75.3832 84.0488 75.7933 84.3163 76.1163C84.4392 76.2741 84.5935 76.4045 84.7696 76.4994C84.9456 76.5942 85.1394 76.6513 85.3388 76.6671C85.5059 76.6782 85.6734 76.6528 85.8298 76.5926C85.9861 76.5325 86.1275 76.4391 86.2441 76.3189C86.4775 76.0686 86.6134 75.7429 86.6272 75.4009C86.6391 75.2402 86.617 75.0788 86.5625 74.9272C86.5079 74.7756 86.4221 74.6372 86.3106 74.5209C86.0884 74.3 85.7911 74.1712 85.4781 74.16C84.9102 74.1623 84.3637 74.3768 83.9459 74.7614Z" fill="#D37F40"/>
<path d="M88.8968 77.3159C88.767 77.1355 88.6436 76.9455 88.5201 76.7556C88.0326 76.0149 87.5704 75.3121 86.6714 75.005L86.7853 74.6885C87.7952 75.0335 88.3112 75.8154 88.8082 76.5878C88.9285 76.7746 89.0519 76.9582 89.1785 77.1355L88.8968 77.3159Z" fill="#D37F40"/>
<path d="M64.0468 75.3564H63.9803C63.7731 75.3549 63.5745 75.2732 63.4263 75.1284C63.3643 75.0638 63.3161 74.9873 63.2845 74.9035C63.2529 74.8197 63.2387 74.7304 63.2427 74.6409C63.2957 74.3448 63.4231 74.067 63.6131 73.8337C63.7681 73.6428 63.8764 73.4185 63.9296 73.1784C63.9296 72.9315 63.6131 72.7036 63.3503 72.6878C63.1823 72.6908 63.0201 72.7501 62.8898 72.8563C62.7595 72.9625 62.6686 73.1094 62.6317 73.2734H62.6761L62.6571 73.6184C62.6032 73.6193 62.5497 73.6093 62.4996 73.5892C62.4496 73.5691 62.4041 73.5392 62.3658 73.5013C62.3089 73.4321 62.2806 73.3438 62.2867 73.2544C62.3244 72.9958 62.4552 72.7598 62.6546 72.5908C62.8539 72.4218 63.108 72.3313 63.3693 72.3364C63.8157 72.3585 64.2969 72.7289 64.2747 73.1879C64.2263 73.4956 64.0974 73.785 63.9011 74.0268C63.7486 74.2109 63.6403 74.4275 63.5846 74.6599C63.5816 74.7014 63.5877 74.7429 63.6025 74.7818C63.6172 74.8206 63.6403 74.8557 63.6701 74.8847C63.7558 74.9654 63.8689 75.0107 63.9866 75.0113C64.4466 74.9829 64.8964 74.8635 65.3098 74.6599L65.4491 74.9765C65.0099 75.1907 64.534 75.3196 64.0468 75.3564Z" fill="#D37F40"/>
<path d="M82.8758 73.3079H82.708C81.3341 73.2382 80.9511 72.0669 80.8498 71.5921C80.618 71.7077 80.4046 71.857 80.2167 72.0353L79.9824 71.7789C80.2262 71.5605 80.6757 71.1996 80.9922 71.2122H81.1379L81.1569 71.3642C81.1885 71.6174 81.4038 72.89 82.7175 72.947C82.9183 72.9553 83.1195 72.9468 83.319 72.9217L83.3569 73.2667C83.1974 73.2892 83.0368 73.3029 82.8758 73.3079Z" fill="#D37F40"/>
<path d="M56.2467 79.4359C55.8763 79.4359 55.851 78.9168 55.8162 78.1697C55.7719 77.2517 55.7086 75.9949 54.9931 75.5328C54.5563 75.251 53.901 75.2827 53.04 75.6246L52.9133 75.308C53.882 74.9218 54.6481 74.9028 55.1799 75.2447C55.4832 75.4525 55.7136 75.7504 55.8383 76.0962C55.8567 75.1564 55.8144 74.2164 55.7117 73.282C55.632 72.5631 55.5961 71.84 55.6041 71.1168C55.6611 70.0151 56.6677 69.2934 58.5956 68.9768C60.0088 68.7892 61.4372 68.7425 62.8596 68.8375L63.2142 68.8534C64.4926 68.9497 65.7767 68.9433 67.054 68.8344C70.9256 68.3785 74.7116 68.0271 78.371 67.6884C81.7867 67.3719 85.3163 67.0553 88.8618 66.6375L88.903 66.9825C85.3385 67.3814 81.8215 67.6979 78.39 68.0145C74.7338 68.3532 70.9509 68.7046 67.0825 69.1604C65.7863 69.2719 64.4831 69.2793 63.1857 69.1826L62.828 69.1636C61.4309 69.072 60.0281 69.1176 58.6399 69.2997C56.8925 69.5878 55.984 70.1987 55.9396 71.1168C55.9307 71.8231 55.9656 72.5293 56.0441 73.2314C56.1495 74.1941 56.1918 75.1628 56.1707 76.1311C56.1799 76.7167 56.2478 77.3 56.3733 77.8721C56.5284 78.7427 56.5949 79.17 56.4366 79.3505C56.4126 79.3771 56.3833 79.3984 56.3506 79.4131C56.3179 79.4278 56.2825 79.4356 56.2467 79.4359Z" fill="#D37F40"/>
<path d="M40.5423 80.1376C40.4568 80.1376 40.3714 80.1376 40.2859 80.1376L40.3049 79.7925C40.7891 79.8046 41.2734 79.7718 41.7516 79.6944C42.2517 79.6143 42.7584 79.5814 43.2647 79.5962V79.9413C42.7794 79.9292 42.2941 79.962 41.8149 80.0394C41.3932 80.0992 40.9681 80.132 40.5423 80.1376Z" fill="#D37F40"/>
<path d="M45.1672 83.5038L45.1514 83.1588C50.7038 82.896 56.0252 82.1141 61.6568 81.2816C63.2396 81.0505 64.8224 80.8162 66.4431 80.5883C71.0143 79.9552 75.9684 79.8317 80.7611 79.7178C87.4279 79.5595 93.7401 79.4012 97.7889 77.8438L97.9123 78.1603C93.797 79.7431 87.4659 79.8982 80.7706 80.0597C75.9874 80.1736 71.0428 80.2908 66.4906 80.927C64.873 81.1518 63.2807 81.386 61.7074 81.6203C56.0663 82.456 50.7386 83.2443 45.1672 83.5038Z" fill="#D37F40"/>
<path d="M62.1697 87.8285L62.0937 87.4898C62.7458 87.36 63.7145 87.1732 63.743 86.5686V86.5338C63.743 86.1064 63.3346 86.0304 62.4768 85.9671C61.6189 85.9038 60.5774 85.8342 60.6439 84.7199C60.7104 83.6056 62.1634 83.3808 63.3378 83.2257C63.6544 83.1814 63.9709 83.1434 64.221 83.0864L64.3002 83.422C64.0374 83.4821 63.7209 83.5264 63.3821 83.5708C62.2805 83.7164 61.0333 83.8873 60.9889 84.7389C60.9541 85.4606 61.5366 85.5524 62.5021 85.6221C63.246 85.6759 64.0849 85.736 64.0849 86.5338V86.5844C64.0469 87.4581 62.9168 87.6797 62.1697 87.8285Z" fill="#D37F40"/>
<path d="M67.222 86.3765L66.8833 86.291C67.0036 85.8225 66.8231 85.3793 66.63 84.9077C66.4841 84.5862 66.3777 84.2481 66.3135 83.901L66.6554 83.8503C66.7132 84.1752 66.8099 84.4919 66.9434 84.7937C67.1555 85.2907 67.3676 85.8098 67.222 86.3765Z" fill="#D37F40"/>
<path d="M72.3249 85.4272C72.1255 84.0724 71.6918 83.4487 70.9225 83.4108C70.1533 83.3728 69.5835 84.1673 69.5423 84.9302C69.5423 85.2151 69.3461 85.2468 69.2891 85.2468C68.8617 85.2658 68.1716 84.0787 68.083 83.4772L68.4281 83.4266C68.5569 83.9588 68.8233 84.4478 69.2005 84.8448C69.2764 83.9362 69.9475 83.0119 70.9415 83.0625C72.1919 83.1258 72.5243 84.4142 72.67 85.3766L72.3249 85.4272Z" fill="#D37F40"/>
<path d="M76.6429 85.1122H76.5827C75.8198 85.0742 74.7878 84.4506 74.8353 83.5294C74.8507 83.2895 74.9293 83.058 75.0632 82.8583L75.3323 83.0293L75.269 82.9596C75.7359 82.5593 76.339 82.3542 76.9531 82.3866C77.7635 82.4278 78.327 82.9216 78.2953 83.5579C78.2381 83.9665 78.0432 84.3433 77.7427 84.6259C77.4422 84.9086 77.0542 85.0801 76.6429 85.1122ZM75.3513 83.0483C75.2534 83.1915 75.1925 83.3569 75.174 83.5294C75.1392 84.2195 76.0034 84.7229 76.5922 84.7513C76.9231 84.7314 77.2374 84.5996 77.4836 84.3776C77.7297 84.1556 77.8932 83.8565 77.9471 83.5294C77.9693 83.0831 77.5546 82.7507 76.9341 82.719C76.4081 82.6971 75.8929 82.8733 75.4906 83.2129L75.3513 83.0483Z" fill="#D37F40"/>
<path d="M80.4257 84.926C79.947 84.6809 79.5109 84.3602 79.1341 83.9763C78.8523 83.7059 78.5496 83.4582 78.2288 83.2356L78.4219 82.9475C78.7571 83.1811 79.0745 83.4393 79.3715 83.7199C79.7228 84.0775 80.1289 84.3767 80.5745 84.6063L80.4257 84.926Z" fill="#D37F40"/>
<path d="M54.0561 79.0625C53.9991 78.7036 53.8992 78.3529 53.7585 78.0179C53.6333 77.7104 53.5348 77.3926 53.4641 77.0682L53.806 77.0017C53.8733 77.3022 53.9654 77.5965 54.0814 77.8817C54.2319 78.2444 54.3382 78.6238 54.398 79.0119L54.0561 79.0625Z" fill="#D37F40"/>
<path d="M79.0896 104.876C79.0896 104.907 79.0896 104.939 79.0896 104.971C79.0965 105.126 79.1339 105.278 79.1998 105.419C79.2656 105.559 79.3585 105.686 79.4732 105.79C79.5878 105.895 79.722 105.976 79.8681 106.029C80.0141 106.081 80.1691 106.105 80.3242 106.098C80.9573 106.098 81.5081 105.661 81.5081 104.616C81.5081 103.666 81.258 102.926 80.2419 102.926C80.0905 102.921 79.9397 102.947 79.7995 103.005C79.6593 103.062 79.5328 103.148 79.4283 103.258C79.0516 103.692 79.1339 104.3 79.0896 104.876Z" stroke="#D37F40" stroke-width="1.1" stroke-miterlimit="10"/>
<path d="M78.0546 111.822L77.814 111.572C79.4917 109.967 81.065 108.137 82.5845 106.368C83.4709 105.339 84.3857 104.275 85.3196 103.259L85.5728 103.494C84.6453 104.507 83.7305 105.567 82.8504 106.593C81.3214 108.369 79.745 110.205 78.0546 111.822Z" fill="#D37F40"/>
<path d="M83.6832 111.187C83.0501 111.187 82.6797 110.712 82.6797 109.851C82.681 109.647 82.699 109.444 82.7335 109.243L82.9836 109.284C83.0691 108.907 83.3413 108.467 84.2087 108.467C84.807 108.467 85.1583 108.882 85.1583 109.607C85.1677 109.808 85.1367 110.009 85.0672 110.198C84.9977 110.387 84.891 110.56 84.7536 110.708C84.6161 110.855 84.4506 110.973 84.2668 111.055C84.083 111.137 83.8845 111.182 83.6832 111.187ZM83.088 110.31C83.1047 110.458 83.1763 110.595 83.2889 110.692C83.4015 110.79 83.5467 110.842 83.6958 110.838C83.8507 110.832 84.0027 110.795 84.1431 110.729C84.2836 110.664 84.4097 110.571 84.5141 110.457C84.6186 110.342 84.6994 110.208 84.7518 110.062C84.8042 109.916 84.8273 109.762 84.8196 109.607C84.8196 109.081 84.617 108.812 84.2213 108.812C83.4616 108.812 83.3033 109.173 83.3033 109.711C83.3033 109.816 83.3033 109.92 83.3033 110.028C83.3033 110.136 83.3033 110.224 83.3033 110.313L83.088 110.31Z" fill="#D37F40"/>
<path d="M67.95 96.9723C67.5005 95.9625 66.6838 95.1521 65.9082 94.367L66.152 94.1233C66.9592 94.9305 67.7917 95.7631 68.2666 96.833L67.95 96.9723Z" fill="#D37F40"/>
<path d="M66.2376 96.5838L66.054 96.2894C66.3452 96.109 66.6649 95.9349 66.972 95.7671C67.6774 95.4279 68.3308 94.9898 68.9125 94.4661L69.1562 94.7098C68.5524 95.2574 67.8734 95.7158 67.1398 96.071C66.82 96.2451 66.5193 96.4097 66.2376 96.5838Z" fill="#D37F40"/>
<path d="M92.2935 60.626C91.9539 60.5664 91.6094 60.5388 91.2647 60.5437C90.8368 60.56 90.4091 60.5066 89.9984 60.3854C89.6605 60.2632 89.3775 60.024 89.2007 59.7111C89.1207 59.5814 89.069 59.4362 89.0488 59.2851C89.0286 59.1341 89.0405 58.9804 89.0836 58.8342C89.1866 58.6036 89.3243 58.3901 89.4919 58.2011C89.6771 57.9879 89.8287 57.7477 89.9414 57.4889C89.9885 57.3762 90.006 57.2533 89.9921 57.1319C89.9783 57.0106 89.9336 56.8948 89.8623 56.7956C89.728 56.6218 89.5467 56.49 89.34 56.4157C89.1944 56.3651 88.7069 56.2289 88.5391 56.7038C88.5106 56.8083 88.6309 57.2894 88.8556 57.3686L88.7385 57.6851C88.6304 57.6329 88.5341 57.559 88.4557 57.4681C88.3773 57.3772 88.3184 57.2711 88.2827 57.1565C88.2033 56.9731 88.1813 56.7701 88.2194 56.574C88.403 56.0738 88.9 55.8744 89.4634 56.0802C89.7373 56.1776 89.9763 56.3538 90.1504 56.5867C90.2483 56.7283 90.3102 56.8918 90.3306 57.0628C90.3511 57.2338 90.3294 57.4073 90.2675 57.568C90.1435 57.8613 89.9748 58.1336 89.7673 58.3752C89.6241 58.5448 89.5067 58.7347 89.4191 58.9387C89.3927 59.0403 89.3878 59.1462 89.4047 59.2498C89.4216 59.3534 89.4599 59.4523 89.5173 59.5402C89.6535 59.7797 89.8698 59.9635 90.1282 60.0593C90.5039 60.1649 90.8938 60.2108 91.2837 60.1954C91.6496 60.192 92.0152 60.2217 92.3758 60.2841L92.2935 60.626Z" fill="#D37F40"/>
<path d="M94.7308 59.1921C94.0443 59.2229 93.3577 59.134 92.7017 58.9294L92.8188 58.6128C93.5215 58.8692 94.3541 58.8597 95.1582 58.8534C95.4367 58.8534 95.7185 58.8534 95.9939 58.8534V59.1984C95.7216 59.1984 95.4462 59.1984 95.1708 59.1984L94.7308 59.1921Z" fill="#D37F40"/>
<path d="M94.8008 60.33C94.7365 59.5839 94.7439 58.8334 94.823 58.0888C94.8514 57.7405 94.8799 57.3765 94.8894 57.0156H95.2376C95.2376 57.386 95.1965 57.7532 95.1712 58.1078C95.0912 58.829 95.0827 59.5564 95.1458 60.2794L94.8008 60.33Z" fill="#D37F40"/>
<path d="M99.2134 63.0326C98.9429 63.0403 98.6731 63.0017 98.4156 62.9186C98.2821 62.8769 98.1606 62.8036 98.0614 62.705C97.9622 62.6064 97.8883 62.4853 97.8458 62.352C97.7811 62.0859 97.8044 61.806 97.9123 61.5543C98.0885 61.1488 98.3279 60.7738 98.6214 60.4431C98.9226 60.1016 99.1683 59.7149 99.3495 59.2972C99.6185 58.5628 99.321 57.6669 98.7353 57.4548C98.5715 57.4085 98.4 57.3953 98.231 57.4159C98.062 57.4366 97.8987 57.4907 97.7508 57.5751L97.6052 57.2586C97.7946 57.1549 98.0027 57.09 98.2174 57.0678C98.4321 57.0455 98.649 57.0662 98.8556 57.1288C99.6185 57.4073 100.011 58.4963 99.6755 59.4175C99.4819 59.8698 99.218 60.2886 98.8936 60.6584C98.6236 60.9597 98.4024 61.3015 98.2383 61.6714C98.1574 61.8544 98.1364 62.0582 98.1782 62.2539C98.2063 62.3349 98.2535 62.4079 98.3158 62.4668C98.378 62.5258 98.4535 62.5689 98.5359 62.5926C98.9253 62.735 99.5932 62.716 100.518 62.5356L100.584 62.8743C100.133 62.9695 99.6742 63.0225 99.2134 63.0326Z" fill="#D37F40"/>
<path d="M93.5946 112.487C93.3413 112.487 93.2527 112.171 93.202 111.889C93.1283 111.391 93.0965 110.888 93.1071 110.385C93.1071 110.145 93.1071 109.904 93.1071 109.667C93.1071 109.429 93.1071 109.204 93.1071 108.976C93.1071 107.466 92.914 106.954 92.341 106.954C91.8867 106.972 91.4342 107.019 90.9861 107.096L90.7645 107.131L90.717 106.786L90.9355 106.754C91.4002 106.674 91.8697 106.625 92.341 106.609C93.3698 106.609 93.4553 107.729 93.4553 108.976C93.4553 109.208 93.4553 109.442 93.4553 109.676C93.4553 109.91 93.4553 110.148 93.4553 110.385C93.4553 111.534 93.5566 111.946 93.6136 112.088C93.8162 111.772 94.1327 110.401 94.1327 108.432V107.903C94.1327 104.845 94.1327 103.576 99.2357 103.576C100.302 103.576 102.268 103.712 103.468 104.611L103.259 104.886C102.43 104.253 101.002 103.937 99.2357 103.937C94.4873 103.937 94.4873 104.94 94.4873 107.916V108.432C94.4841 110.069 94.196 112.487 93.5946 112.487Z" fill="#D37F40"/>
<path d="M98.7989 111.983C98.6739 111.989 98.5489 111.969 98.4324 111.924C98.3159 111.878 98.2107 111.807 98.1239 111.717C98.037 111.627 97.9707 111.519 97.9293 111.401C97.8879 111.283 97.8724 111.158 97.884 111.033C97.884 110.422 98.3968 109.915 98.8907 109.425C99.3845 108.934 99.9005 108.421 99.9005 107.826C99.9139 107.721 99.9028 107.614 99.8678 107.513C99.8328 107.413 99.7749 107.322 99.6988 107.247C99.6227 107.173 99.5304 107.118 99.4292 107.085C99.3279 107.053 99.2205 107.044 99.1154 107.06C98.4063 107.06 97.9346 107.535 97.9346 107.725L97.9093 107.709L97.9283 108.057C97.8849 108.06 97.8414 108.054 97.8004 108.04C97.7594 108.025 97.7218 108.002 97.69 107.973C97.6582 107.943 97.6329 107.907 97.6156 107.867C97.5984 107.827 97.5895 107.784 97.5896 107.741C97.5896 107.332 98.2227 106.728 99.1154 106.728C99.2662 106.713 99.4183 106.731 99.5612 106.782C99.704 106.832 99.8339 106.913 99.9418 107.02C100.05 107.126 100.133 107.255 100.185 107.397C100.238 107.539 100.258 107.691 100.246 107.842C100.246 108.583 99.6821 109.143 99.1344 109.688C98.6691 110.147 98.2322 110.583 98.2322 111.049C98.2322 111.327 98.3304 111.657 98.7989 111.657C99.1688 111.627 99.5336 111.552 99.8847 111.432C100.261 111.302 100.653 111.222 101.05 111.194V111.543C100.686 111.571 100.328 111.646 99.9828 111.764C99.5991 111.887 99.2012 111.961 98.7989 111.983Z" fill="#D37F40"/>
<path d="M83.0183 90.6574C82.7297 90.359 82.5616 89.9643 82.5466 89.5494C82.5469 89.333 82.624 89.1238 82.7644 88.9591C82.9047 88.7944 83.0991 88.685 83.3127 88.6504C83.7844 88.6504 83.9996 89.7394 83.9996 90.3661C83.9996 90.9075 83.9173 91.4583 83.9173 92.0122C83.9173 92.9619 84.2561 94.1807 85.1994 94.1807C85.6869 94.1807 86.0731 93.8293 86.0731 93.1804C86.0758 93.0104 86.0418 92.8418 85.9735 92.6861C85.9053 92.5305 85.8043 92.3913 85.6774 92.2782C84.886 91.5627 83.7211 91.4393 83.0183 90.6574Z" stroke="#D37F40" stroke-width="1.1" stroke-miterlimit="10"/>
<path d="M88.0454 92.8577H87.7003C87.6657 91.8337 87.3949 90.8316 86.9089 89.9295L87.2255 89.7744C87.7337 90.7249 88.0144 91.7803 88.0454 92.8577Z" fill="#D37F40"/>
<path d="M89.3747 91.7581C88.3804 91.7625 87.4009 91.5176 86.5256 91.0458L86.6808 90.7292C87.5088 91.1776 88.4362 91.4106 89.3778 91.4067L89.3747 91.7581Z" fill="#D37F40"/>
<path d="M88.9126 88.4635C88.7117 88.1845 88.5903 87.8563 88.5613 87.5138C88.5587 87.4087 88.5774 87.3043 88.6164 87.2067C88.6555 87.1091 88.7139 87.0205 88.7882 86.9462C88.8625 86.8718 88.9511 86.8134 89.0487 86.7744C89.1463 86.7354 89.2508 86.7166 89.3558 86.7192C91.1697 86.7192 89.989 91.0972 92.2682 91.0972C92.3381 91.106 92.409 91.0991 92.4758 91.0768C92.5427 91.0546 92.6037 91.0177 92.6544 90.9688C92.7051 90.9199 92.7442 90.8603 92.7688 90.7944C92.7935 90.7284 92.8031 90.6577 92.7968 90.5876C92.7911 90.4114 92.7389 90.2398 92.6455 90.0903C92.5521 89.9407 92.4208 89.8185 92.265 89.736C91.233 89.258 89.6977 89.6791 88.9126 88.4635Z" stroke="#D37F40" stroke-width="1.1" stroke-miterlimit="10"/>
<g style="mix-blend-mode:multiply" opacity="0.6">
<path d="M49.5298 133.477C63.3659 133.477 74.5823 132.079 74.5823 130.355C74.5823 128.632 63.3659 127.234 49.5298 127.234C35.6937 127.234 24.4773 128.632 24.4773 130.355C24.4773 132.079 35.6937 133.477 49.5298 133.477Z" fill="#725E4A"/>
</g>
<path d="M51.581 113.007C48.0387 113.007 45.1675 116.489 45.1675 120.776C45.1675 125.062 48.0387 128.544 51.581 128.544C55.1233 128.544 57.9976 125.062 57.9976 120.776C57.9976 116.489 55.1233 113.007 51.581 113.007ZM52.8947 126.572C50.2926 126.572 48.1811 124.014 48.1811 120.874C48.1811 117.734 50.2926 115.176 52.8947 115.176C55.4968 115.176 57.6114 117.73 57.6114 120.874C57.6114 124.017 55.5 126.572 52.8947 126.572Z" fill="url(#paint1_linear_175_3107)"/>
<path style="mix-blend-mode:multiply" d="M46.8579 120.694C46.8579 124.493 49.2068 127.611 52.2394 128.057C53.7058 127.811 55.0221 127.012 55.9178 125.825C55.3963 126.084 54.8223 126.22 54.2401 126.221C53.9899 126.219 53.7406 126.192 53.4962 126.139C53.2506 126.192 53.0003 126.219 52.7491 126.221C50.2641 126.221 48.2476 123.777 48.2476 120.767C48.2476 117.756 50.2641 115.312 52.7491 115.312C53.0003 115.314 53.2506 115.342 53.4962 115.395C53.7406 115.342 53.9899 115.314 54.2401 115.312C54.8935 115.315 55.5353 115.485 56.1046 115.806C55.6591 115.155 55.0874 114.601 54.4234 114.175C53.7595 113.749 53.0168 113.461 52.2394 113.328C49.2163 113.774 46.8579 116.902 46.8579 120.694Z" fill="url(#paint2_linear_175_3107)"/>
<path d="M74.4082 110.389C74.4082 109.689 69.3116 109.123 63.0121 109.123C56.7126 109.123 51.616 109.693 51.616 110.389V130.731C51.616 131.434 56.7126 131.997 63.0121 131.997C69.3116 131.997 74.4082 131.428 74.4082 130.731V110.389Z" fill="url(#paint3_linear_175_3107)"/>
<path style="mix-blend-mode:overlay" d="M73.5472 111.559C73.5472 110.926 68.9919 110.423 63.3698 110.423C57.7477 110.423 53.1956 110.929 53.1956 111.559V129.742C53.1956 130.376 57.7508 130.879 63.3698 130.879C68.9887 130.879 73.5472 130.376 73.5472 129.742V111.559Z" fill="url(#paint4_linear_175_3107)"/>
<path style="mix-blend-mode:multiply" d="M62.1575 112.503L51.6414 111.281V113.016H51.5812C48.0389 113.016 45.1677 116.498 45.1677 120.785C45.1677 125.071 48.0389 128.553 51.5812 128.553H51.6414V130.74C51.6414 131.412 56.2758 131.959 62.1575 132.007V112.503ZM51.6414 126.356C49.647 125.688 48.1814 123.485 48.1814 120.857C48.1814 118.23 49.647 116.027 51.6414 115.362V126.356Z" fill="url(#paint5_linear_175_3107)"/>
<g style="mix-blend-mode:multiply" opacity="0.6">
<path d="M73.3665 110.448C73.3665 110.042 68.6846 109.713 62.9201 109.713C57.1555 109.713 52.4736 110.03 52.4736 110.448C52.4736 110.865 57.1555 111.182 62.9201 111.182C68.6846 111.182 73.3665 110.853 73.3665 110.448Z" fill="#725E4A"/>
</g>
<path d="M73.8764 131.947L77.596 132.34L79.584 133.467L99.0777 143.464L65.6965 153.344L47.9597 142.894L72.2272 133.046L73.8764 131.947Z" fill="url(#paint6_linear_175_3107)"/>
<g style="mix-blend-mode:overlay" opacity="0.4">
<path d="M75.456 134.427L66.605 135.554L68.0137 138.147L88.1912 138.204L79.3433 133.753L75.456 134.427Z" fill="white"/>
</g>
<g style="mix-blend-mode:multiply" opacity="0.6">
<path d="M128.574 168.528L125.194 171.231L86.3043 177.319L74.9746 156.86L95.9435 146.04L128.574 168.528Z" fill="#725E4A"/>
</g>
<g style="mix-blend-mode:multiply" opacity="0.6">
<path d="M70.3813 144.232L73.4836 145.023L94.6171 143.444L90.8976 142.542L70.3813 144.232Z" fill="#725E4A"/>
</g>
<path d="M130.968 166.285C130.233 166.071 129.511 165.819 128.803 165.528C126.102 163.392 122.506 160.204 120.515 157.016C117.033 151.464 113.114 149.153 113.114 149.153L107.565 147.994L101.781 142.676L71.708 144.528L77.8398 161.85C79.9544 163.708 80.5463 165.753 82.4045 169.375C83.7119 171.907 86.9408 176.045 86.9408 176.045L125.362 170.138L130.968 166.285Z" fill="url(#paint7_linear_175_3107)"/>
<g style="mix-blend-mode:overlay" opacity="0.4">
<path d="M109.609 142.094L71.7363 145.254L92.1386 155.286L81.3154 164.526L101.946 158.78L92.5881 174.222L105.52 168.404L126.067 167.796L121.898 161.034L109.609 142.094Z" fill="white"/>
</g>
<path d="M123.766 150.162C134.744 145.708 133.427 140.127 120.822 137.699C108.511 135.325 89.2262 136.325 78.1435 140.548C77.9788 140.687 78.0611 140.931 78.1181 141.362L123.766 150.162Z" fill="#9779B7"/>
<g style="mix-blend-mode:multiply" opacity="0.6">
<path d="M121.515 150.493C132.313 145.96 131.047 140.363 118.685 137.97C106.612 135.64 89.1757 136.324 78.2734 140.626C77.7404 141.007 77.2308 141.421 76.7476 141.864L121.515 150.493Z" fill="#725E4A"/>
</g>
<path d="M123.766 149.367C134.744 144.91 133.427 139.329 120.822 136.901C108.217 134.473 89.1028 136.1 78.1182 140.554L123.766 149.367Z" fill="#E5C8FF"/>
<g style="mix-blend-mode:overlay" opacity="0.4">
<path d="M93.7312 143.492L105.444 145.753L105.39 137.598C102.576 137.636 99.692 137.82 96.8936 138.136L93.7312 143.492Z" fill="white"/>
</g>
<g style="mix-blend-mode:overlay" opacity="0.4">
<path d="M110.569 146.863L119.065 148.569L114.874 138.107C113.329 137.983 111.734 137.917 110.104 137.898L110.569 146.863Z" fill="white"/>
</g>
<path opacity="0.3" d="M109.606 141.451C104.13 140.393 95.8172 141.109 91.0466 143.034L110.889 146.858C115.659 144.933 115.086 142.508 109.606 141.451ZM107.463 146.047L95.0194 143.667C98.0078 142.451 103.212 142.008 106.644 142.666C110.075 143.325 110.436 144.832 107.463 146.047Z" fill="#9779B7"/>
<path opacity="0.3" d="M120.784 136.931C108.226 134.509 89.182 136.142 78.2449 140.577L82.2905 141.359C91.7651 137.801 107.457 136.535 117.907 138.551C128.356 140.568 129.711 145.117 121.189 148.859L123.722 149.346C134.656 144.908 133.342 139.349 120.784 136.931Z" fill="#9779B7"/>
<path d="M114.387 137.427L112.927 138.886L113.655 139.13L115.966 137.247L114.387 137.427Z" fill="#E5C8FF"/>
<path d="M124.045 141.137L127.809 140.71L128.964 141.625L125.017 142.473L124.045 141.137Z" fill="#E5C8FF"/>
<path d="M120.278 147.207L125.988 147.571L124.165 148.663L119.854 147.571L120.278 147.207Z" fill="#E5C8FF"/>
<path d="M103.209 138.278L103.877 138.158L104.121 136.578H103.089L103.209 138.278Z" fill="#E5C8FF"/>
<path d="M94.462 139.01L95.0065 138.947L94.7057 137.247L93.3667 137.49L94.462 139.01Z" fill="#E5C8FF"/>
<path d="M85.2281 141.014L82.2524 140.223L83.104 139.495L85.9562 140.647L85.2281 141.014Z" fill="#E5C8FF"/>
<g style="mix-blend-mode:multiply" opacity="0.6">
<path d="M59.0804 172.501H54.6675C54.29 172.501 53.917 172.418 53.5754 172.257L17.2755 155.179C17.0261 155.061 16.7621 154.977 16.4905 154.929C14.3474 154.536 4.4074 152.681 3.66032 151.741C3.34497 151.342 3.13386 150.871 3.04604 150.371C2.95821 149.87 2.99644 149.355 3.15728 148.873C3.31811 148.391 3.59648 147.956 3.96727 147.609C4.33805 147.261 4.78958 147.011 5.2811 146.882L43.9488 136.752L86.9787 156.958L59.0804 172.501Z" fill="#725E4A"/>
</g>
<path d="M26.6934 132.344C26.8778 132.053 27.1274 131.809 27.4225 131.632C27.7176 131.454 28.05 131.348 28.3933 131.321L60.5146 128.757C61.0894 128.713 61.6677 128.754 62.2303 128.881L63.8131 129.245C64.0782 129.304 64.3253 129.426 64.5339 129.6C64.7426 129.774 64.9068 129.995 65.0129 130.245L68.2101 137.763L87.5836 154.604L87.7672 155.871C87.7929 156.06 87.7596 156.253 87.6718 156.423C87.584 156.593 87.446 156.732 87.2765 156.82L60.7773 170.606C60.1211 170.948 59.3855 171.107 58.6469 171.069L56.9786 170.977C56.3809 170.945 55.803 170.752 55.3072 170.417L35.0695 156.747C34.1852 156.149 33.4961 155.303 33.0879 154.316L25.8608 136.782C25.6249 136.202 25.5305 135.574 25.5856 134.951C25.6406 134.327 25.8435 133.725 26.1774 133.195L26.6934 132.344Z" fill="url(#paint8_linear_175_3107)"/>
<g style="mix-blend-mode:multiply" opacity="0.6">
<path d="M55.4875 166.881L55.7408 170.679C56.1304 170.866 56.5533 170.974 56.9849 170.996L58.6531 171.088C59.0502 171.109 59.4482 171.07 59.8339 170.974L60.1283 167.2L55.4875 166.881Z" fill="#725E4A"/>
</g>
<path d="M56.4056 160.145L34.1483 130.854L28.3932 131.322C28.0494 131.35 27.7166 131.457 27.4215 131.635C27.1264 131.814 26.877 132.059 26.6933 132.351L26.1615 133.203C25.8276 133.732 25.6248 134.334 25.5697 134.958C25.5147 135.581 25.609 136.209 25.8449 136.789L33.0783 154.339C33.4868 155.325 34.1759 156.17 35.06 156.767L55.2976 170.436C55.63 170.661 55.1014 166.809 55.4876 166.9L56.4056 160.145Z" fill="url(#paint9_linear_175_3107)"/>
<g style="mix-blend-mode:multiply" opacity="0.6">
<path d="M89.1723 162.721L52.1444 184.026L51.8057 185.124L65.3322 191.551L68.6909 190.788L94.9211 164.497L94.7185 163.696L89.9352 162.554L89.1723 162.721Z" fill="#725E4A"/>
</g>
<path d="M91.1225 162.27L54.0946 183.575L53.7559 184.676L67.2824 191.099L68.9729 190.76L96.8713 164.046L96.6686 163.248L91.8854 162.102L91.1225 162.27Z" fill="#515A6D"/>
<g style="mix-blend-mode:multiply" opacity="0.6">
<path d="M96.5673 173.817C96.1341 173.835 95.7159 173.98 95.3655 174.236C95.015 174.491 94.748 174.844 94.5983 175.251L89.2168 190.161C89.098 190.486 89.0575 190.834 89.0986 191.178C89.1397 191.521 89.2613 191.85 89.4534 192.138C89.6456 192.426 89.9028 192.664 90.2044 192.834C90.5059 193.004 90.8433 193.1 91.1889 193.115L112.686 194.112C113.563 194.153 115.323 193.748 115.893 193.127C116.713 192.64 116.688 191.677 116.482 190.895L111.357 174.726C111.239 174.322 110.986 173.971 110.64 173.732C110.294 173.492 109.877 173.378 109.458 173.409L96.5673 173.817Z" fill="#725E4A"/>
</g>
<path d="M98.2579 172.792C97.8252 172.81 97.4074 172.955 97.0571 173.209C96.7068 173.464 96.4395 173.816 96.2889 174.222L90.9074 189.136C90.7885 189.46 90.7479 189.809 90.789 190.152C90.8301 190.495 90.9517 190.824 91.1439 191.112C91.3361 191.399 91.5935 191.637 91.8951 191.807C92.1967 191.976 92.534 192.072 92.8795 192.086L114.374 193.083C114.802 193.106 115.23 193.036 115.629 192.878C116.027 192.719 116.386 192.476 116.682 192.165C116.96 191.873 117.16 191.515 117.263 191.125C117.366 190.735 117.368 190.325 117.27 189.933L113.048 173.71C112.928 173.307 112.675 172.957 112.33 172.717C111.984 172.478 111.567 172.363 111.148 172.393L98.2579 172.792Z" fill="#4B4C48"/>
<g style="mix-blend-mode:overlay" opacity="0.4">
<path d="M114.823 193.083C115.206 193.081 115.584 192.994 115.928 192.825C116.272 192.657 116.573 192.413 116.809 192.112C117.045 191.811 117.21 191.46 117.291 191.086C117.372 190.711 117.367 190.324 117.277 189.952L113.411 173.389C113.316 172.978 113.09 172.609 112.767 172.338C112.444 172.067 112.041 171.908 111.62 171.886H111.363L116.146 188.236C116.587 190.898 115.716 192.326 114.823 193.083Z" fill="white"/>
</g>
<g style="mix-blend-mode:overlay" opacity="0.4">
<path d="M69.1437 189.212L96.6812 163.289L96.6685 163.248L91.8853 162.102L91.1224 162.27L54.0944 183.575L54.0723 183.647L67.1145 189.551L69.1437 189.212Z" fill="white"/>
</g>
<g style="mix-blend-mode:overlay" opacity="0.4">
<path d="M93.8166 162.564L92.1356 162.102L92.0059 162.131L93.8166 162.564Z" fill="white"/>
</g>
<g style="mix-blend-mode:overlay" opacity="0.4">
<path d="M54.0947 183.574L67.8935 175.635L54.0947 183.492L54.0916 183.59L54.0947 183.574Z" fill="white"/>
</g>
<g style="mix-blend-mode:overlay" opacity="0.8">
<path d="M96.6463 163.341L96.6273 163.335L69.1437 189.211L67.1145 189.549L54.0881 183.652L54.0723 184L67.2 190.002L69.2418 189.657L96.7603 163.623L96.6463 163.341Z" fill="white"/>
</g>
<g style="mix-blend-mode:overlay" opacity="0.4">
<path d="M68.1626 187.804L69.9353 187.509L77.2573 180.615L78.3336 170.197L72.0341 173.821L67.5042 187.506L68.1626 187.804Z" fill="white"/>
</g>
<g style="mix-blend-mode:overlay" opacity="0.4">
<path d="M82.3727 175.797L82.5373 167.779L81.1761 168.564L80.2676 177.782L82.3727 175.797Z" fill="white"/>
</g>
<path d="M142.57 139.824C142.595 139.691 142.591 139.555 142.557 139.424C142.524 139.293 142.462 139.172 142.377 139.067L139.189 135.209C139.089 135.088 138.961 134.994 138.817 134.934C138.672 134.874 138.515 134.849 138.359 134.863L134.345 135.228C134.238 135.237 134.134 135.269 134.039 135.319C133.945 135.37 133.861 135.44 133.794 135.524C133.726 135.608 133.676 135.704 133.647 135.808C133.618 135.911 133.61 136.02 133.624 136.127L133.978 138.976C133.995 139.113 134.052 139.242 134.143 139.346L137.068 142.777C137.211 142.945 137.39 143.079 137.592 143.169C137.793 143.258 138.012 143.302 138.233 143.297L141.427 143.205C141.562 143.202 141.691 143.152 141.794 143.066C141.897 142.979 141.968 142.859 141.993 142.727L142.57 139.824Z" fill="white"/>
<g style="mix-blend-mode:multiply" opacity="0.6">
<path d="M136.862 144.69L134.577 144.604L130.332 140.131C130.187 139.979 130.091 139.787 130.057 139.58C130.023 139.373 130.051 139.16 130.138 138.97C130.176 138.884 130.237 138.811 130.315 138.759C130.392 138.706 130.482 138.676 130.575 138.672L136.438 138.431L142.019 143.249L136.862 144.69Z" fill="#725E4A"/>
</g>
<path d="M133.915 135.437C133.871 135.466 133.831 135.5 133.795 135.538C133.727 135.622 133.677 135.718 133.647 135.821C133.617 135.925 133.608 136.033 133.62 136.14L133.978 138.989C133.996 139.125 134.053 139.254 134.143 139.359L137.071 142.79C137.213 142.959 137.391 143.093 137.592 143.183C137.794 143.273 138.012 143.316 138.233 143.31L141.427 143.221C141.562 143.216 141.691 143.166 141.794 143.079C141.897 142.992 141.967 142.872 141.993 142.74L142.57 139.831C142.607 139.633 142.58 139.429 142.49 139.248L137.904 139.619L133.915 135.437Z" fill="#DFCDD9"/>
<path d="M140.952 137.338L139.189 135.204C139.088 135.084 138.96 134.989 138.815 134.929C138.67 134.869 138.513 134.845 138.356 134.859L134.345 135.223C134.186 135.245 134.036 135.313 133.915 135.42C133.871 135.449 133.831 135.483 133.795 135.521C133.727 135.604 133.677 135.701 133.647 135.804C133.617 135.907 133.608 136.016 133.62 136.122L133.978 138.971C133.996 139.108 134.053 139.237 134.143 139.342L135.979 141.491L136.156 137.715L140.952 137.338Z" fill="#B24EC4"/>
<g style="mix-blend-mode:multiply" opacity="0.6">
<path d="M133.915 135.437C133.871 135.466 133.831 135.5 133.795 135.538C133.727 135.622 133.677 135.718 133.647 135.821C133.617 135.925 133.608 136.033 133.62 136.14L133.978 138.989C133.996 139.125 134.053 139.254 134.143 139.359L137.071 142.79C137.213 142.96 137.391 143.094 137.593 143.183C137.793 143.272 137.91 139.619 137.91 139.619L133.915 135.437Z" fill="#725E4A"/>
</g>
<path d="M162.902 145.682C162.812 145.592 162.704 145.522 162.585 145.477C162.466 145.431 162.339 145.412 162.212 145.419L115.868 145.039C115.717 145.03 115.566 145.055 115.427 145.113C115.288 145.171 115.163 145.261 115.064 145.375C115.028 145.424 115.003 145.48 114.99 145.539C114.977 145.599 114.977 145.66 114.989 145.72C115.001 145.779 115.026 145.836 115.061 145.885C115.096 145.935 115.141 145.977 115.194 146.008L144.7 168.638C144.987 168.826 145.333 168.901 145.672 168.847C145.837 168.838 145.998 168.797 146.146 168.725C146.294 168.653 146.427 168.553 146.536 168.43L162.902 146.245C162.971 146.167 163.009 146.067 163.009 145.963C163.009 145.859 162.971 145.759 162.902 145.682ZM151.092 150.69L144.551 160.076C144.506 160.129 144.451 160.174 144.388 160.206C144.326 160.238 144.258 160.257 144.187 160.262C144.042 160.284 143.894 160.25 143.773 160.167L131.8 150.607C131.781 150.594 131.764 150.577 131.751 150.557C131.738 150.537 131.73 150.514 131.726 150.491C131.723 150.467 131.724 150.443 131.73 150.42C131.736 150.397 131.747 150.376 131.762 150.357C131.803 150.314 131.852 150.279 131.906 150.256C131.961 150.233 132.02 150.222 132.079 150.224L150.785 150.36C150.837 150.358 150.888 150.366 150.937 150.384C150.986 150.402 151.031 150.43 151.069 150.465C151.099 150.494 151.118 150.532 151.122 150.573C151.126 150.614 151.115 150.656 151.092 150.69Z" fill="#C15914"/>
<g style="mix-blend-mode:multiply" opacity="0.6">
<path d="M160.816 146.249C160.733 146.162 160.632 146.093 160.52 146.049C160.408 146.004 160.288 145.984 160.167 145.99L116.432 145.616C116.288 145.607 116.144 145.632 116.013 145.69C115.881 145.748 115.765 145.837 115.675 145.948C115.642 145.996 115.619 146.051 115.607 146.108C115.595 146.165 115.594 146.224 115.606 146.281C115.617 146.338 115.639 146.393 115.672 146.441C115.704 146.489 115.746 146.531 115.795 146.563L143.652 168.953C143.92 169.138 144.249 169.213 144.57 169.162C144.728 169.151 144.881 169.109 145.022 169.037C145.162 168.965 145.287 168.865 145.387 168.744L160.829 146.8C160.89 146.721 160.923 146.623 160.92 146.522C160.918 146.422 160.881 146.326 160.816 146.249ZM149.67 151.203L143.501 160.491C143.459 160.544 143.406 160.587 143.347 160.619C143.288 160.65 143.222 160.669 143.155 160.675C143.017 160.696 142.876 160.662 142.763 160.58L131.468 151.124C131.449 151.111 131.433 151.094 131.421 151.074C131.409 151.054 131.4 151.032 131.397 151.009C131.393 150.986 131.394 150.962 131.4 150.94C131.406 150.917 131.416 150.896 131.43 150.877C131.469 150.832 131.518 150.796 131.573 150.773C131.628 150.75 131.687 150.74 131.747 150.744L149.395 150.877C149.444 150.875 149.494 150.883 149.54 150.901C149.587 150.919 149.629 150.947 149.664 150.982C149.69 151.012 149.705 151.051 149.706 151.091C149.707 151.132 149.695 151.171 149.67 151.203Z" fill="#725E4A"/>
</g>
<path d="M162.956 145.079C162.866 144.989 162.758 144.92 162.639 144.874C162.52 144.829 162.393 144.809 162.266 144.816L115.874 144.436C115.724 144.426 115.573 144.451 115.433 144.509C115.294 144.566 115.17 144.655 115.07 144.768C115.036 144.816 115.012 144.871 115 144.929C114.988 144.987 114.989 145.046 115.001 145.104C115.013 145.161 115.037 145.216 115.071 145.264C115.105 145.312 115.149 145.352 115.2 145.382L144.817 167.776C145.105 167.963 145.452 168.039 145.792 167.988C146.124 167.968 146.434 167.817 146.656 167.57L162.966 145.626C163.031 145.549 163.066 145.451 163.064 145.351C163.062 145.25 163.024 145.153 162.956 145.079ZM150.927 150.106L144.374 159.286C144.28 159.392 144.148 159.457 144.007 159.466C143.862 159.489 143.714 159.456 143.592 159.374L131.585 150.023C131.565 150.011 131.548 149.995 131.535 149.975C131.522 149.956 131.513 149.933 131.509 149.91C131.506 149.887 131.507 149.863 131.514 149.841C131.52 149.818 131.532 149.797 131.547 149.779C131.588 149.736 131.637 149.702 131.691 149.68C131.746 149.657 131.804 149.645 131.864 149.647L150.617 149.783C150.669 149.779 150.721 149.787 150.77 149.805C150.819 149.823 150.864 149.851 150.901 149.887C150.932 149.914 150.951 149.951 150.956 149.991C150.961 150.032 150.95 150.072 150.927 150.106Z" fill="#EF8137"/>
<g style="mix-blend-mode:overlay" opacity="0.4">
<path d="M130.987 150.79C130.752 150.61 130.596 150.347 130.55 150.056C130.526 149.902 130.534 149.745 130.573 149.595C130.612 149.445 130.682 149.304 130.778 149.182C130.911 149.021 131.078 148.892 131.268 148.804C131.457 148.716 131.664 148.672 131.873 148.675L136.555 148.71L135.789 145.567L127.517 145.497L126.65 152.816L140.028 162.946L138.486 156.646L130.987 150.79Z" fill="white"/>
</g>
<g style="mix-blend-mode:overlay" opacity="0.4">
<path d="M145.444 159.463L147.271 165.114L152.867 157.583L149.993 153.088L145.444 159.463Z" fill="white"/>
</g>
<g style="mix-blend-mode:overlay" opacity="0.4">
<path d="M147.245 148.786L145.238 145.649L140.971 145.614L141.984 148.748L147.245 148.786Z" fill="white"/>
</g>
<g opacity="0.4">
<g style="mix-blend-mode:overlay" opacity="0.4">
<path d="M115.868 144.955C115.761 144.954 115.655 144.968 115.552 144.996L144.707 167.358C144.994 167.545 145.339 167.621 145.678 167.57C146.011 167.549 146.321 167.398 146.543 167.149L162.592 145.395C162.473 145.352 162.346 145.33 162.219 145.332L115.868 144.955ZM151.092 150.603L144.552 159.988C144.506 160.042 144.451 160.087 144.388 160.119C144.326 160.151 144.258 160.17 144.187 160.175C144.042 160.199 143.893 160.165 143.773 160.08L131.801 150.52C131.715 150.454 131.142 149.571 131.142 149.571C131.167 149.672 131.956 148.956 132.092 148.956L150.797 149.093C150.901 149.098 151 149.134 151.082 149.197C151.912 149.735 151.149 150.527 151.092 150.603Z" fill="white"/>
</g>
</g>
<g style="mix-blend-mode:multiply" opacity="0.6">
<path d="M137.137 152.147L144.184 148.289C144.184 148.289 145.71 147.725 146.717 149.017C147.802 150.425 145.938 151.217 145.938 151.217L138.401 153.632L137.137 152.147Z" fill="#725E4A"/>
</g>
<path d="M138.15 149.732L145.194 145.883C145.194 145.883 146.72 145.322 147.71 146.614C148.796 148.023 146.935 148.83 146.935 148.83L139.398 151.245L138.15 149.732Z" fill="#725E4A"/>
<g style="mix-blend-mode:overlay" opacity="0.4">
<path d="M139.271 150.099L139.67 151.131L146.935 148.804C146.935 148.804 148.797 148.013 147.711 146.589C146.72 145.297 145.194 145.857 145.194 145.857L145.09 145.914L146.327 146.68L139.271 150.099Z" fill="white"/>
</g>
<g style="mix-blend-mode:multiply" opacity="0.6">
<path d="M98.0772 152.785C97.797 152.615 97.5609 152.381 97.3882 152.103C97.2155 151.824 97.1109 151.509 97.0832 151.182C97.0554 150.856 97.1052 150.527 97.2284 150.224C97.3516 149.92 97.5448 149.65 97.7923 149.435C98.6075 148.726 99.6561 148.344 100.736 148.362L131.867 148.878C132.483 148.888 133.089 149.048 133.63 149.344L137.02 151.186C137.311 151.344 137.56 151.568 137.747 151.84C137.935 152.113 138.056 152.425 138.1 152.753L138.144 153.069C138.186 153.384 138.137 153.704 138.004 153.992C137.872 154.279 137.66 154.524 137.394 154.697L114.573 169.515C113.963 169.911 113.258 170.138 112.531 170.173C111.804 170.208 111.081 170.05 110.436 169.714C110.089 169.568 109.782 169.344 109.537 169.059C109.398 168.794 109.326 168.499 109.326 168.199C109.326 167.9 109.398 167.605 109.537 167.34L110.144 166.169C110.359 165.752 110.682 165.4 111.078 165.149L126.59 155.361C126.713 155.284 126.808 155.169 126.86 155.033C126.912 154.898 126.918 154.748 126.878 154.609C126.837 154.469 126.752 154.346 126.636 154.259C126.519 154.172 126.377 154.126 126.232 154.127C120.99 154.143 108.188 154.155 101.601 153.956C100.506 153.924 99.4379 153.609 98.5014 153.041L98.0772 152.785Z" fill="#725E4A"/>
</g>
<path d="M101.449 151.766C101.168 151.596 100.932 151.362 100.76 151.084C100.587 150.805 100.482 150.49 100.455 150.164C100.427 149.837 100.476 149.509 100.6 149.205C100.723 148.902 100.916 148.631 101.164 148.417C101.979 147.709 103.028 147.327 104.108 147.347L135.238 147.863C135.855 147.871 136.46 148.03 137.001 148.325L140.395 150.17C140.685 150.328 140.934 150.552 141.121 150.825C141.308 151.097 141.428 151.41 141.471 151.737L141.515 152.054C141.557 152.369 141.509 152.689 141.376 152.978C141.243 153.266 141.032 153.511 140.765 153.684L117.948 168.499C117.337 168.896 116.632 169.123 115.904 169.158C115.177 169.193 114.453 169.035 113.807 168.699C113.46 168.555 113.151 168.33 112.908 168.043C112.759 167.715 112.676 167.36 112.665 166.999C112.654 166.638 112.714 166.279 112.842 165.941L113.389 164.969C113.647 164.674 113.956 164.428 114.301 164.241L129.98 154.349C130.102 154.271 130.195 154.156 130.246 154.021C130.297 153.886 130.303 153.738 130.263 153.599C130.222 153.46 130.138 153.338 130.023 153.252C129.907 153.165 129.767 153.118 129.622 153.118C124.38 153.133 111.578 153.143 104.991 152.947C103.896 152.913 102.828 152.596 101.892 152.029L101.449 151.766Z" fill="#C6ABB6"/>
<g style="mix-blend-mode:multiply" opacity="0.6">
<path d="M132.952 149.958L103.136 149.078C103.136 149.078 101.607 149.078 101.236 150.119C101.331 150.613 101.053 151.867 105.63 152.303C112.044 152.908 124.592 152.455 129.72 152.446C129.97 152.446 130.629 152.993 130.74 153.177L133.573 151.404L132.952 149.958Z" fill="#725E4A"/>
</g>
<path d="M130.012 153.197L137.173 149.759L130.18 154.153L130.012 153.197Z" fill="#725E4A"/>
<path d="M138.508 150.731C138.508 151.538 137.147 152.194 135.466 152.194C133.785 152.194 132.421 151.538 132.421 150.731C132.421 149.924 133.785 149.269 135.466 149.269C137.147 149.269 138.508 149.924 138.508 150.731Z" fill="#E2D3D9"/>
<g style="mix-blend-mode:multiply" opacity="0.6">
<path d="M137.166 150.52C137.166 150.855 136.603 151.128 135.9 151.128C135.197 151.128 134.634 150.855 134.634 150.52C134.634 150.184 135.197 149.915 135.9 149.915C136.603 149.915 137.166 150.188 137.166 150.52Z" fill="#725E4A"/>
</g>
<g style="mix-blend-mode:overlay" opacity="0.8">
<path d="M139.195 150.967C139.318 151.051 139.418 151.165 139.486 151.297C139.554 151.43 139.588 151.577 139.585 151.726C139.581 151.874 139.54 152.02 139.466 152.149C139.392 152.278 139.287 152.387 139.16 152.465L116.242 166.631C116.009 166.773 115.735 166.834 115.464 166.803C115.192 166.772 114.939 166.651 114.744 166.46C114.668 166.388 114.61 166.299 114.573 166.201C114.536 166.103 114.522 165.998 114.531 165.893C114.541 165.789 114.574 165.688 114.628 165.598C114.681 165.508 114.755 165.432 114.842 165.374L134.944 151.898C135.102 151.793 135.217 151.635 135.27 151.452C135.322 151.269 135.307 151.074 135.229 150.901L134.308 148.856C134.288 148.814 134.278 148.769 134.278 148.723C134.278 148.677 134.288 148.632 134.308 148.59C134.327 148.549 134.355 148.512 134.39 148.482C134.425 148.453 134.466 148.431 134.51 148.419L134.89 148.315C134.991 148.286 135.097 148.28 135.2 148.297C135.304 148.314 135.402 148.354 135.488 148.413L139.195 150.967Z" fill="white"/>
</g>
<g style="mix-blend-mode:multiply" opacity="0.6">
<path d="M137.66 150.479C137.66 150.938 136.888 151.311 135.932 151.311C134.976 151.311 134.2 150.938 134.2 150.479C134.2 150.02 134.976 149.646 135.932 149.646C136.888 149.646 137.66 150.02 137.66 150.479Z" fill="#725E4A"/>
</g>
<path d="M136.691 150.518C136.691 150.727 136.343 150.897 135.909 150.897C135.476 150.897 135.127 150.727 135.127 150.518C135.127 150.309 135.476 150.141 135.909 150.141C136.343 150.141 136.691 150.315 136.691 150.518Z" fill="#E2D3D9"/>
<path d="M97.8809 173.625C97.6647 173.641 97.4577 173.719 97.2847 173.85C97.1118 173.981 96.9803 174.159 96.9059 174.363L91.9739 188.402C91.9254 188.535 91.909 188.677 91.9259 188.817C91.9428 188.957 91.9927 189.092 92.0714 189.209C92.1501 189.326 92.2554 189.423 92.3788 189.492C92.5021 189.561 92.64 189.6 92.7812 189.605L115.605 190.681C115.761 190.691 115.918 190.667 116.064 190.613C116.211 190.558 116.344 190.474 116.457 190.365C116.557 190.267 116.63 190.144 116.667 190.009C116.704 189.874 116.705 189.731 116.669 189.596L112.148 173.404C112.08 173.204 111.946 173.035 111.767 172.924C111.588 172.813 111.376 172.768 111.167 172.796L97.8809 173.625Z" fill="#F4E4EF"/>
<g style="mix-blend-mode:multiply" opacity="0.6">
<path d="M114.244 192.326C111.667 192.281 94.1933 191.129 91.2493 190.99C91.4632 191.285 91.7401 191.528 92.0599 191.703C92.3796 191.878 92.7342 191.979 93.098 192L114.649 193.095C115.046 193.115 115.442 193.043 115.806 192.884C116.171 192.726 116.493 192.484 116.748 192.18C116.799 192.12 116.83 192.047 116.875 191.984C116.327 192.272 115.501 192.345 114.244 192.326Z" fill="#725E4A"/>
</g>
<path d="M98.0933 172.995C97.8706 173.003 97.6555 173.078 97.4751 173.208C97.2948 173.339 97.1573 173.521 97.0803 173.73L91.8729 188.491C91.8231 188.631 91.8071 188.782 91.8262 188.929C91.8453 189.077 91.8989 189.219 91.9827 189.342C92.0666 189.465 92.1783 189.567 92.3088 189.639C92.4393 189.711 92.5849 189.752 92.7339 189.757L115.599 190.685C115.747 190.692 115.895 190.668 116.032 190.613C116.17 190.559 116.294 190.475 116.397 190.368C116.494 190.267 116.563 190.143 116.599 190.008C116.634 189.873 116.635 189.731 116.599 189.596L112.313 173.299C112.253 173.098 112.126 172.924 111.953 172.806C111.781 172.687 111.572 172.631 111.363 172.647L98.0933 172.995Z" fill="#F4E4EF"/>
<path d="M97.9443 174.277L93.7151 185.942L114.963 187.465L111.471 173.543L97.9443 174.277Z" fill="#515A6D"/>
<g style="mix-blend-mode:multiply" opacity="0.6">
<path d="M106.286 188.34C106.286 189.011 104.985 189.552 103.383 189.552C101.781 189.552 100.48 189.011 100.48 188.34C100.48 187.669 101.778 187.127 103.383 187.127C104.988 187.127 106.286 187.672 106.286 188.34Z" fill="#725E4A"/>
</g>
<path d="M105.722 188.336C105.722 188.849 104.675 189.266 103.383 189.266C102.092 189.266 101.044 188.849 101.044 188.336C101.044 187.823 102.092 187.405 103.383 187.405C104.675 187.405 105.722 187.823 105.722 188.336Z" fill="#F4E4EF"/>
<g style="mix-blend-mode:overlay" opacity="0.4">
<path d="M94.3799 185.602L105.858 186.422L109.005 174.085L101.401 174.5L96.2317 180.492L94.3799 185.602Z" fill="white"/>
</g>
<g style="mix-blend-mode:overlay" opacity="0.4">
<path d="M112.17 186.873L112.3 179.058L111.034 173.977L110.635 173.999C110.236 177.313 109.562 182.746 109.078 186.661L112.17 186.873Z" fill="white"/>
</g>
<path d="M109.679 191.943C109.679 191.734 109.426 191.563 109.109 191.563C108.793 191.563 108.54 191.734 108.54 191.943C108.54 192.152 108.796 192.326 109.109 192.326C109.423 192.326 109.679 192.155 109.679 191.943Z" fill="#282826"/>
<path d="M111.626 191.943C111.626 191.734 111.37 191.563 111.053 191.563C110.736 191.563 110.483 191.734 110.483 191.943C110.483 192.152 110.74 192.326 111.053 192.326C111.366 192.326 111.626 192.155 111.626 191.943Z" fill="#282826"/>
<path d="M113.633 192.03C113.633 191.821 113.377 191.65 113.063 191.65C112.75 191.65 112.49 191.821 112.49 192.03C112.49 192.238 112.747 192.409 113.063 192.409C113.38 192.409 113.633 192.238 113.633 192.03Z" fill="#282826"/>
<path d="M54.2623 165.938C55.2396 166.795 56.4413 167.355 57.7261 167.553C59.0108 167.75 60.3252 167.577 61.5147 167.053L87.7163 155.489L87.5897 154.609L68.21 137.764L64.9937 130.316C64.8958 130.045 64.7315 129.802 64.5159 129.611C64.3002 129.42 64.04 129.285 63.7591 129.22L62.3853 128.904C61.7178 128.751 61.028 128.721 60.3498 128.815L28.3235 131.262C28.0018 131.304 27.6933 131.417 27.4198 131.591C27.1463 131.766 26.9145 131.998 26.7407 132.272L26.2532 133.051L33.534 147.72L54.2623 165.938Z" fill="#DAEDEC"/>
<path d="M54.2623 165.129C55.2482 165.971 56.4503 166.52 57.7323 166.713C59.0143 166.906 60.3247 166.736 61.5147 166.221L87.7892 155.458L87.5802 154.053L68.2068 137.592L64.9905 130.311C64.7911 129.773 64.0662 129.007 63.4964 128.88L62.8221 128.709C61.9456 128.57 61.0542 128.551 60.1725 128.652L28.3235 131.21C28.0029 131.251 27.6951 131.361 27.4217 131.533C27.1483 131.706 26.9158 131.936 26.7407 132.207L26.2532 132.967L33.534 147.32L54.2623 165.129Z" fill="#BAD3D3"/>
<path d="M68.21 137.566L64.9937 130.285C64.7943 129.747 64.0694 128.981 63.4995 128.854L62.8253 128.683C61.9488 128.544 61.0574 128.525 60.1757 128.626L28.3235 131.206C28.0029 131.247 27.6951 131.357 27.4217 131.529C27.1483 131.702 26.9158 131.932 26.7407 132.203L26.2532 132.963L33.534 147.316L33.9677 147.686L69.033 138.262L68.21 137.566Z" fill="url(#paint10_linear_175_3107)"/>
<g style="mix-blend-mode:overlay" opacity="0.6">
<path d="M55.0157 164.33C55.9141 165.073 56.9976 165.559 58.1505 165.735C59.3035 165.912 60.4826 165.771 61.5621 165.33L86.0796 155.352C86.2045 155.3 86.3141 155.218 86.3977 155.111C86.4814 155.005 86.5363 154.879 86.5573 154.746C86.5783 154.612 86.5646 154.476 86.5175 154.349C86.4705 154.222 86.3916 154.11 86.2886 154.022L68.0326 138.71L35.0439 147.84L55.0157 164.33Z" fill="url(#paint11_linear_175_3107)"/>
<g style="mix-blend-mode:multiply" opacity="0.8">
<path d="M50.4826 143.557L48.9663 159.148L55.0063 164.245C55.9038 165.006 56.9927 165.506 58.1548 165.691C59.3168 165.876 60.5073 165.74 61.597 165.296L64.3353 164.181L62.9424 140.186L50.4826 143.557Z" fill="#725E4A"/>
</g>
<g style="mix-blend-mode:multiply" opacity="0.8">
<path d="M68.0135 138.71L64.9333 139.454L68.9188 162.329L78.194 158.556L71.2455 141.423L68.0135 138.71Z" fill="#725E4A"/>
</g>
</g>
<g style="mix-blend-mode:multiply" opacity="0.6">
<path d="M108.096 137.747L98.0899 136.231L101.354 135.753L126.457 132.787L122.702 127.551C122.702 127.551 77.8396 128.564 76.6525 130.2C75.4654 131.837 87.3047 137.697 87.3047 137.697L94.0411 136.703L107.52 139.105C108.248 138.887 108.337 138.371 108.096 137.747Z" fill="#725E4A"/>
</g>
<path d="M121.886 105.679C118.815 105.958 113.56 107.579 110.556 108.712L114.83 131.226C116.821 131.97 118.54 133.046 123.117 133.046C127.695 133.046 129.923 131.875 131.408 131.226L133.339 106.908C131.281 106.569 126.017 105.293 121.886 105.679Z" fill="url(#paint12_linear_175_3107)"/>
<g style="mix-blend-mode:overlay" opacity="0.4">
<path d="M127.381 105.881L124.431 107.825L123.503 133.029C126.913 132.982 128.967 132.272 130.389 131.668L132.098 106.66C130.857 106.438 129.182 106.112 127.381 105.881Z" fill="white"/>
</g>
<g style="mix-blend-mode:overlay" opacity="0.4">
<path d="M133.374 106.917C131.307 106.581 126.017 105.283 121.87 105.651C118.784 105.932 113.507 107.575 110.49 108.718C112.433 109.243 115.786 110.538 122.202 110.07C129.233 108.699 132.035 107.379 133.374 106.917Z" fill="white"/>
</g>
<g style="mix-blend-mode:multiply" opacity="0.6">
<path d="M132.237 107.025C130.382 106.771 125.627 105.774 121.892 106.11C119.113 106.357 114.348 107.693 111.626 108.642C113.373 109.047 116.374 110.057 122.148 109.633C128.499 108.481 131.028 107.405 132.237 107.025Z" fill="#725E4A"/>
</g>
<g style="mix-blend-mode:multiply" opacity="0.6">
<path d="M122.025 107.894C119.831 108.072 116.384 108.638 113.677 109.161C115.52 109.563 118.182 109.949 122.152 109.658C124.718 109.217 127.255 108.621 129.749 107.875C127.176 107.733 124.597 107.739 122.025 107.894Z" fill="#725E4A"/>
</g>
<path d="M109.891 99.3996L113.31 108.798L115.016 109.083L115.681 108.608L113.215 98.355L109.891 99.3996Z" fill="#539AE0"/>
<path d="M123.75 108.798L124.266 97.6042L125.96 98.3387L125.004 108.576L123.75 108.798Z" fill="#B7CE55"/>
<path d="M128.378 107.769L132.775 93.3999L135.083 92.9473L135.523 96.0812L131.028 106.927L128.378 107.769Z" fill="#FF6C45"/>
<path d="M118.233 109.346L111.062 81.7963L119.322 79.1372L122.009 109.179L118.233 109.346Z" fill="#EBBF3C"/>
<g style="mix-blend-mode:overlay" opacity="0.4">
<path d="M119.167 85.0225L114.602 93.9874L116.039 99.5019L119.8 92.1102L119.167 85.0225Z" fill="white"/>
</g>
<g style="mix-blend-mode:overlay" opacity="0.4">
<path d="M120.018 94.5271L116.53 101.381L117.226 104.065L120.325 97.9776L120.018 94.5271Z" fill="white"/>
</g>
<path d="M108.239 138.406L108.584 138.282C109.088 137.978 109.463 137.499 109.638 136.937C109.679 136.225 108.904 135.671 108.904 135.671L94.06 132.242L89.4636 132.451L89.3623 132.676L92.4234 135L108.239 138.406Z" fill="#EF8137"/>
<path d="M94.0635 132.256L89.467 132.465L89.3657 132.689L92.4237 135.016L92.6706 135.07L92.7719 133.487L94.3262 132.332L94.0635 132.256Z" fill="#FFBE83"/>
<path d="M90.9483 133.863L91.8536 132.369L89.1819 132.312L88.9951 132.673L90.9483 133.863Z" fill="#4C3B30"/>
<g style="mix-blend-mode:multiply" opacity="0.6">
<path d="M88.9668 132.701L92.4236 135.009L108.252 138.402L108.597 138.279C109.109 137.921 109.546 137.383 109.625 137.013L89.1504 132.264L88.9668 132.701Z" fill="#725E4A"/>
</g>
<g style="mix-blend-mode:overlay" opacity="0.4">
<path d="M108.878 135.993C108.54 135.797 108.195 135.762 108.112 135.911C108.03 136.059 108.229 136.338 108.568 136.544C108.907 136.749 109.249 136.775 109.334 136.626C109.42 136.477 109.214 136.186 108.878 135.993Z" fill="white"/>
</g>
<g style="mix-blend-mode:overlay" opacity="0.4">
<path d="M108.897 137.687L92.7339 134.278L92.7877 133.509L93.0884 133.249L109.426 137.013L108.897 137.687Z" fill="white"/>
</g>
<path d="M33.4676 147.505L26.4622 132.716L26.1456 133.197C26.0886 133.289 26.0411 133.384 25.9937 133.478L33.1131 148.293L55.038 167.455V170.26L55.2976 170.437C55.4764 170.557 55.6674 170.658 55.8674 170.738C55.8674 169.611 55.937 167.179 55.937 167.179L33.4676 147.505Z" fill="#515A6D"/>
<path d="M32.1982 135.643L34.3129 145.196L66.0131 136.374L63.5155 130.875L32.1982 135.643Z" fill="#515A6D"/>
<g style="mix-blend-mode:multiply" opacity="0.6">
<path d="M77.6403 150.267L69.5237 156.269L72.1005 158.931L83.2339 154.154L77.6403 150.267Z" fill="#725E4A"/>
</g>
<path d="M78.4983 150.041L70.7205 156.296L72.6388 158.44L83.5696 153.818L78.4983 150.041Z" fill="#FF6C45"/>
<g style="mix-blend-mode:multiply" opacity="0.6">
<path d="M70.7205 156.297L72.6388 158.441L83.5696 153.819L72.9174 157.51L71.8189 156.016L78.5237 150.061L78.5015 150.045L78.4667 150.068L70.7205 156.297Z" fill="#725E4A"/>
</g>
<g style="mix-blend-mode:overlay" opacity="0.4">
<path d="M48.1337 140.57L50.3053 133.501L44.9238 134.498L41.0681 142.4L48.1337 140.57Z" fill="white"/>
</g>
<g style="mix-blend-mode:overlay" opacity="0.4">
<path d="M53.2082 139.259L54.7213 132.681L52.3978 133.111L50.5554 139.943L53.2082 139.259Z" fill="white"/>
</g>
<path d="M28.6179 131.502L30.3463 134.55L37.8266 132.755L38.0324 131.4L28.6179 131.502Z" fill="white"/>
<path d="M29.3586 131.727L30.8117 134.035L37.1207 132.674L37.2916 131.648L29.3586 131.727Z" fill="#515A6D"/>
<path d="M63.3095 182.814C63.3095 183.421 62.2111 183.912 60.8562 183.912C59.5013 183.912 58.406 183.421 58.406 182.814C58.406 182.206 59.5045 181.715 60.8562 181.715C62.2079 181.715 63.3095 182.206 63.3095 182.814Z" fill="#515A6D"/>
<path d="M67.7889 137.863L35.2688 147.388L69.1438 139.104L67.7889 137.863Z" fill="white"/>
<g style="mix-blend-mode:overlay" opacity="0.4">
<path d="M126.799 109.095V132.343L127.9 131.963L130.436 107.955L126.799 109.095Z" fill="white"/>
</g>
<g style="mix-blend-mode:overlay" opacity="0.4">
<path d="M114.456 109.77L117.122 132.132L114.83 131.217L110.49 108.732L114.456 109.77Z" fill="white"/>
</g>
<g style="mix-blend-mode:overlay" opacity="0.4">
<path d="M160.743 145.276L162.586 145.396L160.911 147.612C160.911 147.612 162.393 145.32 160.743 145.276Z" fill="white"/>
</g>
<path d="M112.626 190.606C116.612 190.606 115.71 188.918 115.909 186.845C116.504 189.444 117.669 190.679 115.048 190.691C114.478 190.694 113.639 190.634 112.626 190.606Z" fill="white"/>
<path d="M77.8775 132.283L74.5537 133.357L73.5945 131.891L77.8775 132.283Z" fill="white"/>
<g style="mix-blend-mode:overlay" opacity="0.8">
<path d="M132.506 149.124L103.085 148.415C103.769 147.905 104.602 147.638 105.453 147.655L132.719 148.098L132.506 149.124Z" fill="white"/>
</g>
<path d="M113.104 167.454L108.033 171.173L114.852 168.47L113.104 167.454Z" fill="#725E4A"/>
<g style="mix-blend-mode:multiply" opacity="0.6">
<path d="M100.464 150.166L94.1677 149.124L101.015 148.7L100.464 150.166Z" fill="#725E4A"/>
</g>
<g style="mix-blend-mode:overlay" opacity="0.6">
<path d="M72.3823 155.903L73.199 156.973L78.3305 155.111L75.7379 152.914L72.3823 155.903Z" fill="white"/>
</g>
<g style="mix-blend-mode:overlay" opacity="0.6">
<path d="M76.6936 152.182L79.3432 154.607L81.3154 153.875L77.3141 151.564L76.6936 152.182Z" fill="white"/>
</g>
<path style="mix-blend-mode:overlay" opacity="0.4" d="M62.2713 129.037C61.0335 128.815 54.8638 129.822 52.2332 130.059L63.7527 129.875C63.5375 129.508 63.1956 129.201 62.2713 129.037Z" fill="url(#paint13_linear_175_3107)"/>
<path d="M63.9016 185.264L92.5597 163.118H93.2372L65.0001 185.521L63.9016 185.264Z" fill="#515A6D"/>
<path d="M71.002 181.801L73.5376 182.985L74.0473 182.56L71.4261 181.376L71.002 181.801Z" fill="#515A6D"/>
<path d="M75.9055 177.743L78.4412 178.924L78.9477 178.503L76.3297 177.319L75.9055 177.743Z" fill="#515A6D"/>
<path d="M80.3025 174.084L82.3443 175.037L82.7527 174.695L80.6412 173.742L80.3025 174.084Z" fill="#515A6D"/>
<path d="M83.582 171.67L85.3706 172.506L85.7283 172.208L83.8796 171.373L83.582 171.67Z" fill="#515A6D"/>
<path d="M86.5576 169.372L87.8967 169.996L88.1657 169.774L86.7792 169.151L86.5576 169.372Z" fill="#515A6D"/>
<path d="M89.261 167.254L90.6032 167.881L90.8691 167.656L89.4857 167.033L89.261 167.254Z" fill="#515A6D"/>
<path d="M49.324 145.361L52.1857 148.118L57.7761 146.51L55.0442 144.069L49.324 145.361Z" fill="#515A6D"/>
<path d="M46.4148 146.018L39.1023 147.67L42.7649 150.826L49.7514 148.816L46.4148 146.018Z" fill="#515A6D"/>
<path d="M53.2461 149.142L57.1208 152.874L62.344 150.589L58.8872 147.502L53.2461 149.142Z" fill="#515A6D"/>
<path d="M50.9352 149.811L43.9487 151.843L49.3049 156.294L55.4557 153.6L50.9352 149.811Z" fill="#515A6D"/>
<path d="M50.9956 157.932L56.3486 162.383L61.8789 158.989L57.2856 155.136L50.9956 157.932Z" fill="#515A6D"/>
<path d="M58.7827 154.473L62.8505 158.389L67.7287 155.398L64.0661 152.125L58.7827 154.473Z" fill="#515A6D"/>
<path d="M56.7632 143.681L59.321 146.064L64.8671 144.469L62.8886 142.294L56.7632 143.681Z" fill="#515A6D"/>
<path d="M70.7772 142.765L68.5233 141.018L64.3574 141.961L66.5322 143.987L70.7772 142.765Z" fill="#515A6D"/>
<path d="M73.7654 145.584L71.6793 143.783L67.5894 144.97L70.0142 147.227L73.7654 145.584Z" fill="#515A6D"/>
<path d="M60.3909 147.066L63.5881 150.045L68.1307 148.057L65.8009 145.493L60.3909 147.066Z" fill="#515A6D"/>
<path d="M77.6529 149.306L75.1172 147.22L71.6541 148.756L74.3955 151.304L77.6529 149.306Z" fill="#515A6D"/>
<path d="M65.2566 151.603L68.6976 154.806L72.8635 152.128L70.1886 149.19L65.2566 151.603Z" fill="#515A6D"/>
<g style="mix-blend-mode:overlay" opacity="0.4">
<path d="M50.5997 150.601L49.6975 154.884L53.9236 153.304L50.5997 150.601Z" fill="white"/>
</g>
<g style="mix-blend-mode:overlay" opacity="0.4">
<path d="M46.3167 146.66L48.5136 148.689L43.8918 149.759L46.3167 146.66Z" fill="white"/>
</g>
<g style="mix-blend-mode:overlay" opacity="0.4">
<path d="M54.8259 144.633L52.7397 147.618L56.7442 146.324L54.8259 144.633Z" fill="white"/>
</g>
<g style="mix-blend-mode:overlay" opacity="0.4">
<path d="M58.8272 148.127L57.3647 152.015L61.0843 150.381L58.8272 148.127Z" fill="white"/>
</g>
<g style="mix-blend-mode:overlay" opacity="0.4">
<path d="M56.5161 161.198L57.0796 156.013L60.4636 158.777L56.5161 161.198Z" fill="white"/>
</g>
<g style="mix-blend-mode:overlay" opacity="0.4">
<path d="M62.9993 156.86L64.0692 152.802L66.5511 155.169L62.9993 156.86Z" fill="white"/>
</g>
<g style="mix-blend-mode:overlay" opacity="0.4">
<path d="M68.8621 153.76L70.0998 149.815L72.0751 152.069L68.8621 153.76Z" fill="white"/>
</g>
<g style="mix-blend-mode:overlay" opacity="0.4">
<path d="M74.6106 150.378L75.1171 147.954L76.7505 149.308L74.6106 150.378Z" fill="white"/>
</g>
<g style="mix-blend-mode:overlay" opacity="0.4">
<path d="M70.2705 146.487L71.5083 144.291L72.8062 145.474L70.2705 146.487Z" fill="white"/>
</g>
<g style="mix-blend-mode:overlay" opacity="0.4">
<path d="M66.8328 143.055L68.1845 141.478L69.8179 142.434L66.8328 143.055Z" fill="white"/>
</g>
<g style="mix-blend-mode:overlay" opacity="0.4">
<path d="M59.9001 145.303L62.6605 142.767L63.9015 144.122L59.9001 145.303Z" fill="white"/>
</g>
<g style="mix-blend-mode:overlay" opacity="0.4">
<path d="M63.7305 149.196L65.7596 145.983L67.3392 147.674L63.7305 149.196Z" fill="white"/>
</g>
<g opacity="0.7">
<g style="mix-blend-mode:multiply" opacity="0.6">
<path d="M34.49 154.705C34.3473 154.593 34.2495 154.433 34.2146 154.255L33.7841 151.897C33.7678 151.812 33.7774 151.725 33.8115 151.646C33.8455 151.567 33.9026 151.5 33.9752 151.453C34.0478 151.407 34.1327 151.383 34.2188 151.386C34.305 151.388 34.3884 151.416 34.4583 151.467L37.2884 153.455C37.4075 153.538 37.4985 153.656 37.5493 153.792C37.6002 153.928 37.6086 154.076 37.5733 154.217L37.2156 155.613C37.1875 155.722 37.1329 155.823 37.0567 155.905C36.9804 155.988 36.8848 156.05 36.7785 156.087C36.6722 156.124 36.5585 156.134 36.4475 156.116C36.3365 156.098 36.2317 156.052 36.1424 155.984L34.49 154.705Z" fill="#725E4A"/>
</g>
<g style="mix-blend-mode:multiply" opacity="0.6">
<path d="M35.1325 154.254C35.1673 154.433 35.265 154.594 35.4079 154.707L36.9907 155.938C37.0922 155.857 37.1663 155.746 37.2028 155.622L37.5605 154.226C37.5958 154.084 37.5874 153.936 37.5366 153.8C37.4857 153.664 37.3947 153.546 37.2756 153.463L34.7178 151.668C34.6844 151.743 34.6745 151.827 34.6893 151.908L35.1325 154.254Z" fill="#725E4A"/>
</g>
</g>
<g style="mix-blend-mode:multiply" opacity="0.6">
<path d="M29.9695 132.034L30.9856 133.728L32.6476 133.304L32.3943 132.063L29.9695 132.034Z" fill="#725E4A"/>
</g>
<g style="mix-blend-mode:multiply" opacity="0.6">
<path d="M32.958 132.171L33.129 133.073L36.82 132.396L36.9308 131.861L32.958 132.171Z" fill="#725E4A"/>
</g>
<path d="M125.371 170.135L130.012 161.933L130.351 166.327L125.371 170.135Z" fill="white"/>
<g style="mix-blend-mode:multiply" opacity="0.3">
<path d="M125.371 170.136L120.657 169.035L128.097 165.201L125.371 170.136Z" fill="#725E4A"/>
</g>
<g style="mix-blend-mode:multiply" opacity="0.6">
<path d="M25.9714 133.537C25.723 134.038 25.5846 134.586 25.5655 135.145C25.5464 135.704 25.647 136.261 25.8606 136.778L32.5875 153.1L33.1288 148.291C33.1288 148.291 26.0284 133.423 25.9714 133.537Z" fill="#725E4A"/>
</g>
<path d="M55.5632 166.79L55.883 170.728L57.222 167.299L55.5632 166.79Z" fill="#BAD3D3"/>
<path d="M53.686 110.794C55.4493 111.025 58.9156 111.183 62.9074 111.183C66.8992 111.183 70.3687 111.025 72.132 110.794C70.3687 110.563 66.8992 110.407 62.9074 110.407C58.9156 110.407 55.4493 110.563 53.686 110.794Z" fill="#4C3B30"/>
<g style="mix-blend-mode:overlay" opacity="0.6">
<path d="M62.9678 109.725C62.1416 108.579 61.4958 107.192 61.4958 105.815C61.4958 104.549 62.6766 102.017 62.6766 98.4332C62.7272 96.5339 62.2471 94.6582 61.29 93.0168C63.1894 95.2074 63.8795 97.7652 63.8795 100.415C63.8795 104.353 62.5563 107.015 62.5563 108.414C62.5544 108.76 62.6156 109.103 62.7367 109.427C62.781 109.557 62.9077 109.608 62.9678 109.725Z" fill="white"/>
</g>
<g style="mix-blend-mode:overlay" opacity="0.6">
<path d="M65.0602 110.222C64.5592 109.556 64.2872 108.745 64.2847 107.912C64.2847 105.123 66.8583 104.293 66.5481 101.318C66.3771 99.6398 66.8108 99.0035 66.8393 98.1077C67.0419 99.6905 67.3616 101.197 67.3616 102.796C67.3616 105.218 65.0128 106.629 65.0128 109.558C65.013 109.78 65.0289 110.002 65.0602 110.222Z" fill="white"/>
</g>
<path style="mix-blend-mode:multiply" d="M56.9117 123.901L58.2982 121.558L56.478 119.174L57.3454 118.57L58.6908 120.561L59.7291 118.307H61.7234L59.3397 121.558L61.0745 123.986L59.8177 124.205L58.7762 122.34L57.2156 124.768L56.9117 123.901Z" fill="url(#paint14_linear_175_3107)"/>
<path style="mix-blend-mode:multiply" d="M61.5083 120.431L62.7745 120.605L62.5118 119.294L63.7242 119.427L63.5501 120.51L64.7214 120.38V121.592L63.4551 121.418L63.5849 122.805C63.222 122.798 62.8593 122.828 62.5023 122.893L62.6321 121.333L61.5906 121.548L61.5083 120.431Z" fill="url(#paint15_linear_175_3107)"/>
<path style="mix-blend-mode:multiply" d="M64.4966 117.353L67.0544 120.648L64.9049 124.941L65.8958 124.865L69.742 117.182L68.9189 116.618L67.4881 119.91L65.4526 116.878L64.4966 117.353Z" fill="url(#paint16_linear_175_3107)"/>
<defs>
<radialGradient id="paint0_radial_175_3107" cx="0" cy="0" r="1" gradientUnits="userSpaceOnUse" gradientTransform="translate(83.4151 112.379) rotate(-90) scale(112.379 83.4151)">
<stop stop-color="#AB2F2E"/>
<stop offset="1" stop-color="#721711"/>
</radialGradient>
<linearGradient id="paint1_linear_175_3107" x1="36.4874" y1="122.146" x2="55.557" y2="120.415" gradientUnits="userSpaceOnUse">
<stop stop-color="#FFFEE6"/>
<stop offset="1" stop-color="#D3BAC4"/>
</linearGradient>
<linearGradient id="paint2_linear_175_3107" x1="36.4843" y1="122.125" x2="55.5538" y2="120.39" gradientUnits="userSpaceOnUse">
<stop stop-color="#B07FC9"/>
<stop offset="1" stop-color="#E5C06E"/>
</linearGradient>
<linearGradient id="paint3_linear_175_3107" x1="51.6413" y1="120.56" x2="74.4082" y2="120.56" gradientUnits="userSpaceOnUse">
<stop stop-color="#FFFEE6"/>
<stop offset="1" stop-color="#D3BAC4"/>
</linearGradient>
<linearGradient id="paint4_linear_175_3107" x1="54.753" y1="120.651" x2="75.1078" y2="120.651" gradientUnits="userSpaceOnUse">
<stop offset="0.01" stop-color="#70367A"/>
<stop offset="1" stop-color="#FCEEB4"/>
</linearGradient>
<linearGradient id="paint5_linear_175_3107" x1="35.443" y1="116.685" x2="79.0459" y2="127.002" gradientUnits="userSpaceOnUse">
<stop offset="0.02" stop-color="#70367A"/>
<stop offset="1" stop-color="#FCEEB4"/>
</linearGradient>
<linearGradient id="paint6_linear_175_3107" x1="96.3395" y1="141.672" x2="62.5214" y2="142.91" gradientUnits="userSpaceOnUse">
<stop stop-color="#FFFEE6"/>
<stop offset="1" stop-color="#D3BAC4"/>
</linearGradient>
<linearGradient id="paint7_linear_175_3107" x1="134.273" y1="185.139" x2="88.7326" y2="155.155" gradientUnits="userSpaceOnUse">
<stop stop-color="#FFFEE6"/>
<stop offset="1" stop-color="#D3BAC4"/>
</linearGradient>
<linearGradient id="paint8_linear_175_3107" x1="32.9201" y1="166.586" x2="61.4769" y2="140.445" gradientUnits="userSpaceOnUse">
<stop offset="0.01" stop-color="#5082A0"/>
<stop offset="1" stop-color="#AECECE"/>
</linearGradient>
<linearGradient id="paint9_linear_175_3107" x1="44.9683" y1="145.666" x2="28.5104" y2="169.563" gradientUnits="userSpaceOnUse">
<stop stop-color="#B07FC9"/>
<stop offset="1" stop-color="#E5C06E"/>
</linearGradient>
<linearGradient id="paint10_linear_175_3107" x1="23.7808" y1="144.21" x2="53.8761" y2="132.713" gradientUnits="userSpaceOnUse">
<stop stop-color="#B07FC9"/>
<stop offset="1" stop-color="#E5C06E"/>
</linearGradient>
<linearGradient id="paint11_linear_175_3107" x1="86.2316" y1="153.627" x2="30.7387" y2="150.29" gradientUnits="userSpaceOnUse">
<stop stop-color="#FFFEE6"/>
<stop offset="1" stop-color="#D3BAC4"/>
</linearGradient>
<linearGradient id="paint12_linear_175_3107" x1="110.556" y1="119.317" x2="133.339" y2="119.317" gradientUnits="userSpaceOnUse">
<stop stop-color="#CE5B38"/>
<stop offset="1" stop-color="#DB8346"/>
</linearGradient>
<linearGradient id="paint13_linear_175_3107" x1="52.2332" y1="129.53" x2="63.7527" y2="129.53" gradientUnits="userSpaceOnUse">
<stop stop-color="#FFFEE6"/>
<stop offset="1" stop-color="#D3BAC4"/>
</linearGradient>
<linearGradient id="paint14_linear_175_3107" x1="34.6544" y1="123.578" x2="83.1956" y2="119.418" gradientUnits="userSpaceOnUse">
<stop offset="0.02" stop-color="#70367A"/>
<stop offset="1" stop-color="#FCEEB4"/>
</linearGradient>
<linearGradient id="paint15_linear_175_3107" x1="34.6451" y1="123.495" x2="83.1894" y2="119.335" gradientUnits="userSpaceOnUse">
<stop offset="0.02" stop-color="#70367A"/>
<stop offset="1" stop-color="#FCEEB4"/>
</linearGradient>
<linearGradient id="paint16_linear_175_3107" x1="34.6482" y1="123.529" x2="83.1926" y2="119.369" gradientUnits="userSpaceOnUse">
<stop offset="0.02" stop-color="#70367A"/>
<stop offset="1" stop-color="#FCEEB4"/>
</linearGradient>
</defs>
</svg>
