<svg xmlns="http://www.w3.org/2000/svg" width="167" height="225" fill="none" xmlns:v="https://vecta.io/nano"><rect width="166.83" height="224.757" rx="12.744" fill="url(#A)"/><path d="M27.57 46.234c0 .703.196 1.216.589 1.538.398.328 1.022.498 1.872.51v-4.447h-.158c-1.535 0-2.303.8-2.303 2.399zM31.007 52c-1.195 0-2.115-.053-2.76-.158-.709-.1-1.274-.267-1.696-.501-.914-.486-1.614-1.122-2.101-1.907-.486-.791-.729-1.857-.729-3.199 0-1.242.243-2.265.729-3.067.481-.791 1.181-1.427 2.101-1.907.469-.234 1.031-.404 1.688-.51.633-.105 1.462-.158 2.487-.158h3.067v7.647h1.872V52h-4.658zm-2.452-15.504a1.8 1.8 0 0 0-1.31-.536 1.81 1.81 0 0 0-1.318.536c-.363.369-.545.809-.545 1.318a1.77 1.77 0 0 0 .545 1.31 1.76 1.76 0 0 0 1.318.554 1.77 1.77 0 0 0 1.31-.554c.363-.357.545-.794.545-1.309 0-.51-.182-.949-.545-1.318zm4.755 0a1.83 1.83 0 0 0-1.318-.536 1.8 1.8 0 0 0-1.31.536c-.363.369-.545.809-.545 1.318a1.77 1.77 0 0 0 .545 1.31 1.75 1.75 0 0 0 1.31.554 1.78 1.78 0 0 0 1.318-.554c.363-.357.545-.794.545-1.309 0-.51-.182-.949-.545-1.318zm4.219 19.881c.516 0 .955-.182 1.318-.545a1.8 1.8 0 0 0 .536-1.309 1.81 1.81 0 0 0-.536-1.318c-.369-.363-.809-.545-1.318-.545-.516 0-.952.182-1.309.545-.363.363-.545.803-.545 1.318a1.77 1.77 0 0 0 .545 1.31c.357.363.794.545 1.31.545zm4.755 0c.51 0 .949-.182 1.318-.545a1.8 1.8 0 0 0 .536-1.309 1.81 1.81 0 0 0-.536-1.318c-.369-.363-.809-.545-1.318-.545a1.77 1.77 0 0 0-1.31.545 1.78 1.78 0 0 0-.554 1.318 1.75 1.75 0 0 0 .554 1.31 1.77 1.77 0 0 0 1.31.545zM34.944 52v-3.762h4.14c.738-.006 1.16-.196 1.266-.571.1-.217.149-.677.149-1.38v-4.245h3.788v6.196h1.081V52H34.944zm9.703 0v-3.762h1.046c.738-.006 1.16-.196 1.266-.571.094-.217.141-.677.141-1.38v-4.245h3.797v5.994l-.026.782-.088.615a2.95 2.95 0 0 1-.158.501 2.86 2.86 0 0 1-.229.448 3.31 3.31 0 0 1-1.292 1.186c-.539.287-1.145.431-1.819.431h-2.637zm3.973 1.248c-.363-.363-.803-.545-1.318-.545-.51 0-.946.182-1.31.545a1.79 1.79 0 0 0-.545 1.318 1.77 1.77 0 0 0 .545 1.31c.357.363.794.545 1.31.545s.955-.182 1.318-.545.545-.8.545-1.31c0-.516-.182-.955-.545-1.318zm2.997.527c1.113-.223 1.737-.814 1.872-1.775l-.026-10.529 3.788-.009v6.776h1.872V52h-1.969c-.088 2.256-1.398 3.762-3.929 4.518l-1.608-2.742zm13.351-9.765c-.639 0-1.145.188-1.52.563-.387.387 0 1.605 1.16 3.656h1.784c1.154-2.051 1.541-3.27 1.16-3.656-.381-.375-.888-.562-1.521-.562h-1.063zM58.411 52v-3.762h2.672c-1.107-2.437-1.532-3.999-1.274-4.685a4.92 4.92 0 0 1 1.187-1.81 5 5 0 0 1 1.775-1.195c.645-.264 1.377-.396 2.197-.396h.527.536c.82 0 1.553.132 2.197.396a4.92 4.92 0 0 1 1.767 1.195 4.94 4.94 0 0 1 1.187 1.81c.264.686-.161 2.247-1.274 4.685h2.672V52H58.411zm19.195-11.294v7.33l-.035.782c-.018.229-.044.434-.079.615a4.61 4.61 0 0 1-.158.501 3.39 3.39 0 0 1-.237.448c-.322.516-.75.911-1.283 1.186-.539.287-1.145.431-1.819.431h-2.136v-3.762h.536c.738-.006 1.163-.196 1.274-.571.094-.217.141-.677.141-1.38v-8.613h4.034v3.032h-.237zM80.577 52V40.794h-.571v-3.12h4.069V52h-3.498zm12.419-5.766c0 .703.196 1.216.589 1.538.398.328 1.022.498 1.872.51v-4.447h-.158c-1.535 0-2.303.8-2.303 2.399zM96.433 52c-1.195 0-2.115-.053-2.76-.158-.709-.1-1.275-.267-1.696-.501-.914-.486-1.614-1.122-2.101-1.907-.486-.791-.73-1.857-.73-3.199 0-1.242.243-2.265.73-3.067.48-.791 1.181-1.427 2.101-1.907.469-.234 1.031-.404 1.688-.51.633-.105 1.462-.158 2.487-.158h3.067v7.647h1.872V52h-4.658zm-2.452-15.504a1.8 1.8 0 0 0-1.31-.536 1.81 1.81 0 0 0-1.318.536c-.363.369-.545.809-.545 1.318a1.77 1.77 0 0 0 .545 1.31 1.76 1.76 0 0 0 1.318.554 1.77 1.77 0 0 0 1.31-.554c.363-.357.545-.794.545-1.309 0-.51-.182-.949-.545-1.318zm4.755 0a1.83 1.83 0 0 0-1.318-.536 1.8 1.8 0 0 0-1.31.536c-.363.369-.545.809-.545 1.318a1.77 1.77 0 0 0 .545 1.31 1.75 1.75 0 0 0 1.31.554 1.78 1.78 0 0 0 1.318-.554c.363-.357.545-.794.545-1.309 0-.51-.182-.949-.545-1.318zm8.192 7.515c-.639 0-1.146.188-1.521.563-.386.387 0 1.605 1.16 3.656h1.785c1.154-2.051 1.541-3.27 1.16-3.656-.381-.375-.888-.562-1.521-.562h-1.063zM100.37 52v-3.762h2.672c-1.107-2.437-1.532-3.999-1.274-4.685a4.93 4.93 0 0 1 1.186-1.81c.516-.533 1.108-.932 1.775-1.195.645-.264 1.377-.396 2.198-.396h.527.536c.821 0 1.553.132 2.198.396.667.264 1.256.662 1.766 1.195a4.94 4.94 0 0 1 1.187 1.81c.258.685-.162 2.247-1.275 4.685h2.672V52H100.37zm8.833-14.326a1.83 1.83 0 0 0-.536-1.318c-.369-.363-.809-.545-1.318-.545-.516 0-.953.182-1.31.545a1.78 1.78 0 0 0-.554 1.318c0 .516.185.952.554 1.31.357.363.794.545 1.31.545.509 0 .949-.182 1.318-.545a1.8 1.8 0 0 0 .536-1.31zm11.083 3.05v7.515h1.081V52h-7.55v-3.762h1.257c.738-.006 1.163-.196 1.275-.571.093-.217.14-.677.14-1.38v-8.613h4.043v3.05h-.246zm6.117-.017v7.33l-.035.782a5.37 5.37 0 0 1-.079.615 4.77 4.77 0 0 1-.158.501 3.39 3.39 0 0 1-.237.448 3.24 3.24 0 0 1-1.284 1.186c-.539.287-1.145.431-1.819.431h-2.136v-3.762h.536c.739-.006 1.163-.196 1.275-.571.094-.217.14-.677.14-1.38v-8.613h4.035v3.032h-.238zM129.374 52V40.794h-.571v-3.12h4.069V52h-3.498zm7.957 66.073c0 2.414-.482 4.81-1.448 7.189-.965 2.345-2.344 4.586-4.137 6.724-1.758 2.137-3.879 4.12-6.361 5.947-2.448 1.827-5.189 3.413-8.223 4.758-3.035 1.31-6.31 2.345-9.827 3.103-3.482.759-7.12 1.138-10.912 1.138-1.931 0-3.724-.138-5.379-.414s-3.413-.81-5.275-1.603a145.88 145.88 0 0 1-1.655 10.602c-.621 3.379-1.465 6.499-2.534 9.361-1.034 2.896-2.345 5.517-3.931 7.861a22.79 22.79 0 0 1-5.792 5.999c-2.31 1.655-5.051 2.931-8.223 3.828-3.138.896-6.809 1.344-11.016 1.344-4.379 0-8.051-.741-11.016-2.224s-5.327-3.447-7.085-5.895-2.982-5.258-3.672-8.43c-.655-3.138-.879-6.362-.672-9.672a45.02 45.02 0 0 1 1.707-9.774c.965-3.207 2.189-6.103 3.672-8.689.758.069 1.189.31 1.293.724a5.31 5.31 0 0 1 .155 1.293c0 .069-.086.379-.259.931a57.05 57.05 0 0 1-.569 2.069l-.776 2.792-.724 3c-.241.965-.448 1.879-.621 2.741-.138.862-.207 1.552-.207 2.069a19.82 19.82 0 0 0 .983 6.103c.655 2.035 1.741 3.861 3.258 5.482s3.534 2.948 6.051 3.982c2.551 1.034 5.706 1.551 9.464 1.551 2.896 0 5.879-.379 8.947-1.137s5.879-1.81 8.43-3.155c2.586-1.31 4.758-2.862 6.516-4.655 1.793-1.793 2.862-3.723 3.207-5.792 0-2.827-.138-5.344-.414-7.551-.241-2.207-.655-4.224-1.241-6.051a22.35 22.35 0 0 0-2.327-5.12c-.931-1.586-2.086-3.189-3.465-4.81-.103-.241-.052-.551.155-.931l.879-1.655c.414-.758.879-1.758 1.396-2.999.517-1.276 1.034-2.914 1.552-4.913.414 0 .758.051 1.034.155.31.069.672.362 1.086.879s.948 1.345 1.603 2.482c.69 1.104 1.62 2.69 2.793 4.758l6.568 2.069c4.655-4.999 8.671-9.137 12.05-12.412 3.379-3.31 6.293-5.913 8.741-7.81 2.482-1.93 4.585-3.275 6.309-4.034 1.724-.793 3.276-1.189 4.655-1.189 1.896 0 3.758.259 5.585.776 1.862.482 3.5 1.172 4.913 2.068s2.552 1.948 3.414 3.155c.896 1.207 1.344 2.534 1.344 3.982zm-7.964 7.5c-.241-1.897-1.293-3.31-3.155-4.241-1.862-.966-4.723-1.448-8.585-1.448-.793 0-1.707.189-2.741.569s-2.362 1.12-3.982 2.223c-1.586 1.069-3.569 2.586-5.948 4.552-2.344 1.93-5.258 4.482-8.74 7.654 3.655 0 7.189-.276 10.602-.828 3.448-.586 6.62-1.327 9.516-2.224s5.465-1.896 7.706-2.999 4.017-2.19 5.327-3.258zM98.75 91.335l-6.93 7.189-7.499-5.999 6.258-7.292 8.171 6.103z" fill="#fff"/><defs><radialGradient id="A" cx="0" cy="0" r="1" gradientUnits="userSpaceOnUse" gradientTransform="translate(83.4151 112.379) rotate(90) scale(112.379 83.4151)"><stop stop-color="#13c76d"/><stop offset="1" stop-color="#007a3d"/></radialGradient></defs></svg>