<svg xmlns="http://www.w3.org/2000/svg" viewBox="0 0 102.17 109.19" xmlns:v="https://vecta.io/nano"><style><![CDATA[.B{fill:#ffda0b}.C{fill:#ffc317}.D{fill:#121e51}.E{fill:#81b2fc}.F{fill:#feb30f}.G{fill:#1c6df6}.H{fill:#fcd561}.I{fill:#ffb300}.J{fill:#f2b50d}.K{fill:#e84343}.L{fill:#202a5f}.M{fill:#ffc84a}.N{fill:#fc5552}.O{fill:#e1edff}.P{fill:#ffc62b}.Q{fill:#fc9f9c}.R{fill:#f8ffe1}.S{fill:#b1d0fe}.T{fill:#99c1fd}.U{fill:#a1ec3c}.V{fill:#69a4fc}]]></style><path d="M12.05 68c2.67 1.35 4.54 3.72 3.19 6.39s-4 2-6.69.68-5.48-6.85-5.48-6.85 6.3-1.56 8.98-.22zm12.02 2.06c.29 2.61-.46 5.12-2.84 5.38s-3.14-2-3.42-4.62 4.08-7.67 4.08-7.67a31.48 31.48 0 0 1 2.18 6.91zM14.24 80c1.53-1.38 3.46-2 4.72-.66s.17 2.92-1.36 4.3-5.61 2-5.61 2 .72-4.28 2.25-5.64z" class="G"/><path d="M5.72 69.72S16.43 75.3 18.4 76.9l2 1.6a33 33 0 0 0-4.22 3.06l-2.73 2.28s6.11-4.24 7.55-4.48 2.65-.36 2.65-.36a19.56 19.56 0 0 1-2.4-5.63 22.52 22.52 0 0 1 0-5.94s-1 4.79-.32 7.63l.68 2.83s-8.91-5.11-11.5-6.36a35.51 35.51 0 0 0-4.39-1.81z" fill="#5195fb"/><path d="M0 3C.39 1 3.28.41 7.53 4.75S14.38 15.79 17 16s5.51.44 7 5.5 1.6 7.71 5.12 10c5.22 3.36 4.92 6.75 4.41 10.47s1.77 4.7 2.75 7.53-3.21 11.15-3.21 11.15S26.39 55 22.71 49s2.37-6.23-2.9-8.88-1.15-7.27-4.17-12.12S4.16 17.63 6 14.71-.54 5.87 0 3z" class="E"/><g class="G"><path d="M36.86 73c0-.26-3.36-19.53-11.39-36.35A133.68 133.68 0 0 0 5 6.63s13 15.19 19.27 29.68C30.88 51.6 35.92 74.2 35.92 74.2s1.67 2.19.94-1.2z"/><path d="M26 40.05s-4.27-2.54-5.21-3.72a21.14 21.14 0 0 0-2.91-2.69A34 34 0 0 0 23 38.89l3.61 2.56zm-7.63-16s-2.86-1.52-5.37-3.23-5.57-4.31-5.57-4.31 2.53 2.65 5.21 4.88a23.72 23.72 0 0 0 6.12 3.51zm.46-6.37s2 4.93 2.13 6.39l.71 5.49 1.21 2.66-1.22-8c-.17-2.51-2.83-6.54-2.83-6.54zm9.57 16.15l.17 11.59 1 2.17c.12.25-.85-5.13-.61-6.81s-.56-6.95-.56-6.95zm46.02 31.56c-1.13-7.26-2.07-7.82.94-12.06l3.48-4.84s1.87 3.21 1 9.17a9.75 9.75 0 0 1-5.42 7.73zM65 70.08c-1.13-7.26-2.07-7.82.94-12.06l3.48-4.84s1.87 3.21 1 9.16A9.75 9.75 0 0 1 65 70.08zm13.06-5.48c5.22-4.6 4.76-4.12 8.94-3.9s5.4-1.24 5.4-1.24-1.59 6.29-7 6.05c-2.74-.12-7.34-.91-7.34-.91zm6.15-8.08c.87-5.9.33-6.51 3.45-9.3L91.25 44s.58 2.86-1.42 7.38-5.62 5.14-5.62 5.14zM69.2 69.39s7-1.3 11.36.48 10.83-.39 10.83-.39a38.23 38.23 0 0 1-8.31 3.88 13.34 13.34 0 0 1-13.88-3.97zm-8.13 2.87s8.49 2.42 12.25 7.18 12.2 5.79 12.2 5.79a44.23 44.23 0 0 1-11.52 0C62.79 83.2 61.07 72.26 61.07 72.26z"/></g><path d="M90.75,45.3s-7,17.94-19.26,23.61a93.87,93.87,0,0,1-14.42,5.44l-.42-2s13.54-5,18.61-7.6C82.4,61.1,90.75,45.3,90.75,45.3Z" fill="#0b45b2"/><use href="#B" class="U"/><path d="M91.46 34.32a4.87 4.87 0 0 1-1.07-.6c-.85-.54-2.09-1.67-2.54-1.62s-.42 0-.25.12a.84.84 0 0 0 .46 0 21.12 21.12 0 0 0 3.4 2.1z" class="D"/><use href="#C" class="U"/><g class="F"><use href="#B"/><use href="#C"/></g><use href="#D" class="U"/><g class="H"><use href="#D"/><path d="M97.17 28.84c-.2.6 1.55 3 1.3 4-.08.32-.47.59-1 .81a7.63 7.63 0 0 1-1.16.42l-1.35.32c.38 0 3.41-.29 4.73.54s1.34 3.85.36 4.73c-1.58.13-4-1.36-4.54-1.61l-.4-.2.12.2a4.77 4.77 0 0 1-.73-.51l-2.16-3.07v-.25l.14.06c.08-.76.5-4.42 1.93-6.19l1.42-1.86a3.13 3.13 0 0 1 1.34 2.61z"/></g><g class="D"><path d="M94 36.12l1.16 1.73.12.2a6.36 6.36 0 0 1 .42.8c.36.89.22 1.09.22 1.09l-4.53-6s-.06-.15 0-.17a1.59 1.59 0 0 1 .41.16h0l.53.27.14.06.49.18c.86.31 1.04 1.68 1.04 1.68z"/><path d="M91.78 34.2a2.43 2.43 0 0 0-.1-1c-.16-.8-.79-2.15-.47-2.38s.26-.23.27-.08-.22.28-.22.28.74 2.76.52 3.18zm-.41-.27l4.53 6s-.31 0-1.15-.74a9.17 9.17 0 0 1-.71-.7 1.54 1.54 0 0 1-.17-.19l-1.39-1.64s-1.53-.87-1.4-1.51a2 2 0 0 0 .06-.38.49.49 0 0 0 0-.12 1.91 1.91 0 0 0 0-.45v-.38c0-.02.23.11.23.11z"/></g><g fill="#ffde42"><path d="M23.53 98.76a5.75 5.75 0 1 1-2.22-4.53 5.74 5.74 0 0 1 2.22 4.53z"/><path d="M22.52 97.75a5.75 5.75 0 0 1-9.26 4.54 5.74 5.74 0 0 1 8-8.06 5.68 5.68 0 0 1 1.26 3.52z" style="mix-blend-mode:screen" opacity=".27"/><path d="M18,97.32a1.85,1.85,0,1,1-1.84-1.84A1.84,1.84,0,0,1,18,97.32Z" style="mix-blend-mode:screen" opacity=".19"/></g><path d="M16.32 93.3h-.27a1.94 1.94 0 0 1 .71-.13h-.16z" class="I"/><g class="C"><path d="M13.76,95.05c-.16.16-.27.23-.27.17s-.38-.36-.16-.57.71,0,.73,0-.19.27-.27.35Z"/><path d="M12.27 93.6L12 94a.64.64 0 0 0 .37.17c.28 0 .56.4.64.53a5.05 5.05 0 0 0 .53.56l.57-.57a5.71 5.71 0 0 0-.54-.52 3.84 3.84 0 0 1-.64-.56 1 1 0 0 0-.17-.38zm.07 3.83c-.06.19-.11.33-.13.29l-.81-.3a2 2 0 0 0-.76-.06.89.89 0 0 1-.43 0l.3-1.06a.54.54 0 0 1 .3.12 1.29 1.29 0 0 0 .62.35h.19l.82.15a1.63 1.63 0 0 1-.1.51z"/></g><path d="M10.38 96.76v.1a.13.13 0 0 1 0-.06.08.08 0 0 1 0-.04z" class="I"/><path d="M17.27 97.39c-.19.32-.44.46-.6.21s-.43-.38-.42-.43c0-.22.45-.72.64-.72s.39.67.39.9a.06.06 0 0 1-.01.04z" class="P"/><path d="M12.31 93.72c-.23.22-.38.31-.37.23a1.32 1.32 0 0 1 .37-.48c.21-.2.37-.31.4-.26s-.25.36-.36.47zM10.37 97c-.06.21-.14.39-.16.34a2 2 0 0 1 .12-.68c.12-.36.17-.4.18-.38a2 2 0 0 1-.12.67z" class="B"/><path d="M17.06 96.89c-.07.45-.57.62-.81.28a.52.52 0 0 1-.09-.38.54.54 0 0 1 .5-.5.49.49 0 0 1 .41.54.13.13 0 0 0-.01.06z" class="M"/><path d="M16.84 93.34c0 .07-.39.18-.39.18-.22.06-.33.06-.37 0a7.55 7.55 0 0 0-.34-1.52.54.54 0 0 1-.19-.24 5.85 5.85 0 0 1 .62-.18l.44-.08a.52.52 0 0 1-.08.3 7.52 7.52 0 0 0 .31 1.54z" class="C"/><path d="M16.09 91.71c-.38.09-.59.07-.53 0a1.4 1.4 0 0 1 1-.22c.07.07-.47.22-.47.22z" class="B"/><g class="C"><path d="M16.06 94.72c-.19.24-.36.28-.41.15-1.2-3.13.33-.5.51-.47s-.04.25-.1.32z"/><path d="M15.45 93l.14-.16a.61.61 0 0 1 .13.25 2.9 2.9 0 0 0 .09.34c0 .17.37 1 .37 1l-.49.53-.44-1a2 2 0 0 0-.16-.24 1.21 1.21 0 0 0-.18-.17z"/></g><path d="M15.42 93.29c-.26.31-.55.38-.56.19s.46-.67.69-.64-.05.35-.13.45z" class="B"/><path d="M16.34 95.94c-.11.34-.42.41-.51.22a4.44 4.44 0 0 1-.41-.54 5.09 5.09 0 0 0-.32-.4c-.1-.11.34-.82.55-.75s.54.91.62 1.12c.09.06.12.18.07.35z" class="P"/><path d="M15.79 95c-.16.41-.57.5-.69.24a.51.51 0 0 1 0-.38.6.6 0 0 1 .51-.41c.18 0 .24.23.17.5a.43.43 0 0 1 .01.05z" class="M"/><path d="M16.32 104.22h-.27a2.17 2.17 0 0 0 .71.13h-.16a1.37 1.37 0 0 1-.28-.13z" class="I"/><g class="C"><path d="M13.26 101c-.11-.2-.22-.29-.28-.28l-.54.33-.29.15-.2.1a3.62 3.62 0 0 1-.67.12h0l.19.3v.1c0 .03 0 0 .11 0l.17.27.05.26a.59.59 0 0 0 .37-.27 2.75 2.75 0 0 1 .89-.58l.35-.12c-.01.03-.04-.14-.15-.38z"/><path d="M12.34 100.09c-.06-.19-.11-.32-.13-.29l-.81.31a2.26 2.26 0 0 1-.76.06.83.83 0 0 0-.43 0l.3 1.06a.58.58 0 0 0 .3-.11 1.29 1.29 0 0 1 .62-.35h.19l.82-.14a1.68 1.68 0 0 0-.1-.54z"/></g><path d="M10.38 100.77v-.1a.13.13 0 0 0 0 .06s-.02.03 0 .04z" class="I"/><g class="C"><path d="M17.27 100.14c-.19-.32-.44-.46-.6-.21s-.43.38-.42.43c0 .22.45.71.64.71s.39-.67.39-.89a.06.06 0 0 0-.01-.04zm-2.4.27c-.12-.3-.43-.39-.53-.16s-1.1.73-1.08.78c.09.21 1.34-.12 1.5-.15s.19-.21.12-.43z"/><path d="M13.61 101.29l.09.33a.43.43 0 0 0 .18-.15c.07-.11.14-.3.22-.33l.66-.26-.34-.72a7 7 0 0 1-.9.43h-.24zm.99.62c-.19-.25-.4-.3-.43-.15s-.35.65-.76.77a1.78 1.78 0 0 0-.46.2l.67.84a2.69 2.69 0 0 0 .21-.41c.14-.45.83-.83.87-.84s0-.23-.07-.38z"/></g><path d="M11.6 101.79c-.17-.3-.38-.42-.43-.25a.87.87 0 0 0 .15.56c.16.26.33.4.42.34s0-.32-.11-.6zm-1.23-1.27c-.06-.2-.14-.39-.16-.34a2 2 0 0 0 .12.69c.12.35.17.4.18.37a2 2 0 0 0-.12-.66zm6.69.12c-.07-.46-.57-.63-.81-.28a.52.52 0 0 0-.09.38.54.54 0 0 0 .5.5.5.5 0 0 0 .41-.55l-.01-.05zm-3.26.36c-.16-.4-.58-.53-.7-.21a.69.69 0 0 0 0 .44c.13.28.34.45.54.41s.26-.28.17-.58a.14.14 0 0 0-.01-.06zm-.35 2c-.26-.35-.55-.41-.58-.21s0 .21.17.43.41.37.54.33 0-.31-.1-.51z" class="B"/><path d="M16.84 104.18c0-.07-.39-.17-.39-.17-.22-.06-.33-.07-.37 0a7.58 7.58 0 0 1-.34 1.57.6.6 0 0 0-.19.25 4.58 4.58 0 0 0 .62.17l.44.08a.54.54 0 0 0-.08-.3 7.52 7.52 0 0 1 .31-1.6z" class="J"/><path d="M16.09 105.82c-.38-.1-.59-.07-.53 0s.94.35 1 .22-.47-.22-.47-.22z" class="B"/><path d="M16.06 102.8c-.19-.23-.36-.27-.41-.14-1.2 3.12.33.49.51.47s-.04-.26-.1-.33z" class="C"/><path d="M15.45,104.5l.14.16a.61.61,0,0,0,.13-.26,3.4,3.4,0,0,1,.09-.33c0-.18.37-.95.37-.95l-.49-.54s-.42.9-.44,1-.13.18-.16.24a1.21,1.21,0,0,1-.18.17Z" class="J"/><path d="M15.42 104.24c-.26-.31-.55-.39-.56-.2s.46.68.69.64-.05-.34-.13-.44z" class="B"/><path d="M16.34 101.58c-.11-.33-.42-.4-.51-.21a3.78 3.78 0 0 0-.41.54l-.32.39c-.1.11.34.82.55.75s.54-.9.62-1.12c.09-.05.12-.18.07-.35z" class="C"/><path d="M15.79 102.54c-.16-.4-.57-.5-.69-.24a.51.51 0 0 0 0 .38c.12.27.32.43.51.41s.24-.23.17-.5a.43.43 0 0 1 .01-.05z" class="B"/><path d="M19.27 93.3h.26a1.9 1.9 0 0 0-.71-.13h.17z" class="I"/><path d="M23.24 97.43c.06.19.12.33.14.29s.38-.14.8-.3a2 2 0 0 1 .76-.06 1 1 0 0 0 .44 0l-.31-1.06a.5.5 0 0 0-.29.12 1.29 1.29 0 0 1-.62.35h-.2l-.81.15a1.88 1.88 0 0 0 .09.51z" class="J"/><path d="M25.21 96.76v.1a.06.06 0 0 0 0-.06s.02-.03 0-.04z" class="I"/><g class="C"><path d="M18.31 97.39c.2.32.45.46.6.21s.43-.38.43-.43c0-.22-.45-.72-.64-.72s-.4.67-.39.9zm2.41-.27c.12.3.43.39.52.15s1.11-.73 1.09-.78c-.09-.21-1.35.13-1.5.15s-.19.22-.13.44z"/><path d="M22 96.24l-.1-.33a.35.35 0 0 0-.18.15c-.06.11-.14.29-.22.33l-.65.25.33.73a7.61 7.61 0 0 1 .9-.44 1.17 1.17 0 0 0 .25 0zm-1-.63c.19.26.41.3.43.16s.35-.66.76-.78a2.33 2.33 0 0 0 .47-.19L22 94a1.72 1.72 0 0 0-.21.41c-.14.45-.83.82-.88.84s0 .22.08.37z"/></g><path d="M25.21,97c.07.21.14.39.17.34a2.14,2.14,0,0,0-.13-.68c-.11-.36-.16-.4-.18-.38a2.45,2.45,0,0,0,.13.67Z" class="B"/><path d="M18.52,96.89a.46.46,0,0,0,.82.28.58.58,0,0,0,.09-.38.55.55,0,0,0-.51-.5.48.48,0,0,0-.4.54Z" class="M"/><path d="M21.78 96.52c.17.41.58.53.71.21a.65.65 0 0 0 0-.43c-.12-.29-.33-.45-.54-.42s-.25.29-.17.59zm.36-2.03c.26.34.55.41.58.21a.65.65 0 0 0-.17-.44c-.19-.23-.41-.36-.54-.32s0 .31.1.51z" class="B"/><use href="#E" class="C"/><use href="#F" class="B"/><use href="#E" class="C"/><use href="#F" class="B"/><path d="M18.75 93.34c0 .07.38.18.38.18.23.06.34.06.38 0a7.61 7.61 0 0 1 .33-1.52.6.6 0 0 0 .2-.24 5.85 5.85 0 0 0-.62-.18l-.42-.11a.57.57 0 0 0 .07.3 7.55 7.55 0 0 1-.32 1.57z" class="C"/><path d="M19.49 91.71c.39.09.59.07.54 0a1.4 1.4 0 0 0-1.03-.24c0 .09.49.24.49.24z" class="B"/><g class="C"><path d="M19.52 94.72c.19.24.37.28.42.15 1.19-3.13-.34-.5-.51-.47s.03.25.09.32z"/><path d="M20.14 93l-.14-.13a.71.71 0 0 0-.14.25c0 .15 0 .17-.08.34s-.37 1-.37 1l.49.53.43-1c.02-.11.14-.18.17-.24a.86.86 0 0 1 .18-.17z"/></g><path d="M20.16 93.29c.26.31.56.38.57.19s-.46-.67-.69-.64.05.35.12.45z" class="B"/><path d="M19.24 95.94c.12.34.43.41.52.22a4.44 4.44 0 0 0 .41-.54 4.85 4.85 0 0 1 .31-.4c.1-.11-.34-.82-.55-.75s-.53.91-.62 1.12c-.09.06-.11.18-.07.35z" class="C"/><path d="M19.8 95c.15.41.56.5.68.24a.52.52 0 0 0 0-.38.6.6 0 0 0-.51-.41c-.18 0-.25.23-.18.5 0 .05 0 .05.01.05z" class="B"/><path d="M19.27 104.22h.26a2.13 2.13 0 0 1-.71.13h.17z" class="I"/><g class="J"><path d="M22.33 101c.11-.2.21-.29.28-.28l.54.33.28.15.21.1a3.49 3.49 0 0 0 .67.12h.05l-.19.3a.13.13 0 0 1 0 .1.12.12 0 0 1-.11 0l-.17.27-.05.26a.57.57 0 0 1-.37-.27 2.91 2.91 0 0 0-.9-.58l-.35-.12c-.04.03 0-.14.11-.38z"/><path d="M23.24 100.09c.06-.19.12-.32.14-.29s.38.15.8.31a2.29 2.29 0 0 0 .76.06.87.87 0 0 1 .44 0l-.31 1.06a.54.54 0 0 1-.29-.11 1.29 1.29 0 0 0-.62-.35h-.2l-.81-.14a1.93 1.93 0 0 1 .09-.54z"/></g><path d="M25.21 100.77v-.1a.06.06 0 0 1 0 .06.05.05 0 0 1 0 .04z" class="I"/><g class="C"><path d="M18.31 100.14c.2-.32.45-.46.6-.21s.43.38.43.43c0 .22-.45.71-.64.71s-.4-.67-.39-.89zm2.41.27c.12-.3.43-.39.52-.16s1.1.73 1.09.78c-.09.21-1.35-.12-1.5-.15s-.19-.21-.13-.43z"/><path d="M22 101.29l-.1.33a.43.43 0 0 1-.18-.15c-.06-.11-.14-.3-.22-.33l-.65-.26.33-.72a7.72 7.72 0 0 0 .9.43h.25z"/></g><path d="M21,101.91c.19-.25.41-.3.43-.15s.35.65.76.77a2,2,0,0,1,.47.2l-.67.84a2,2,0,0,1-.21-.41c-.14-.45-.83-.83-.88-.84s0-.23.08-.38Z" class="J"/><path d="M24 101.79c.18-.3.39-.42.43-.25a.81.81 0 0 1-.15.56c-.16.26-.32.4-.42.34s0-.32.12-.6zm1.21-1.27c.07-.2.14-.39.17-.34a2.22 2.22 0 0 1-.13.69c-.11.35-.16.4-.18.37a2.47 2.47 0 0 1 .13-.66zm-6.69.12c.07-.46.57-.63.82-.28a.57.57 0 0 1 .09.38.56.56 0 0 1-.51.5.49.49 0 0 1-.4-.55zm3.26.36c.17-.4.58-.53.71-.21a.68.68 0 0 1 0 .44c-.12.28-.33.45-.54.41s-.25-.28-.17-.58a.14.14 0 0 0 0-.06zm.36 2c.26-.35.55-.41.58-.21a.63.63 0 0 1-.17.43c-.19.24-.41.37-.54.33s0-.31.1-.51z" class="B"/><path d="M18.75 104.18c0-.07.38-.17.38-.17.23-.06.34-.07.38 0a7.64 7.64 0 0 0 .33 1.57.67.67 0 0 1 .2.25 4.58 4.58 0 0 1-.62.17l-.44.08a.58.58 0 0 1 .07-.3 7.55 7.55 0 0 0-.3-1.6z" class="J"/><path d="M19.49 105.82c.39-.1.59-.07.54 0s-.94.35-1.05.22.51-.22.51-.22z" class="B"/><path d="M19.52 102.8c.19-.23.37-.27.42-.14 1.19 3.12-.34.49-.51.47s.03-.26.09-.33z" class="C"/><path d="M20.14 104.5l-.14.16a.7.7 0 0 1-.14-.26c0-.14 0-.16-.08-.33s-.37-.95-.37-.95l.49-.54.43 1c.02.1.14.18.17.24a.86.86 0 0 0 .18.17z" class="J"/><path d="M20.16 104.24c.26-.31.56-.39.57-.2s-.46.68-.69.64.05-.34.12-.44z" class="B"/><path d="M19.24 101.58c.12-.33.43-.4.52-.21a3.78 3.78 0 0 1 .41.54l.31.39c.1.11-.34.82-.55.75s-.53-.9-.62-1.12c-.09-.05-.11-.18-.07-.35z" class="C"/><path d="M19.8 102.54c.15-.4.56-.5.68-.24a.52.52 0 0 1 0 .38c-.12.27-.32.43-.51.41s-.25-.23-.18-.5c0-.01 0-.03.01-.05z" class="B"/><path d="M14.88 97.08c-.12.3-.36.4-.49.27a6.81 6.81 0 0 0-.87-.42 1.14 1.14 0 0 1-.24 0l.32-.66.1-.33a.35.35 0 0 1 .18.15c.07.11.14.29.22.33l.66.26c.14.01.24.18.12.4z" class="P"/><path d="M13.8 96.52c-.16.41-.58.53-.7.21a.66.66 0 0 1 0-.43c.13-.29.34-.45.54-.42s.26.29.17.59a.08.08 0 0 1-.01.05z" class="M"/><path d="M15.7 98.55c.05.32-.11.53-.29.48a5.29 5.29 0 0 0-.95.09l-.23.09-.06-.74-.08-.33a.4.4 0 0 1 .23 0c.11.06.27.18.36.17l.69-.11c.15.01.28.12.33.35z" class="P"/><path d="M14.49 98.62c.06.43-.23.75-.5.54a.73.73 0 0 1-.21-.38.58.58 0 0 1 .25-.64c.2 0 .37.12.45.42 0 .02.01.04.01.06z" class="M"/><path d="M19.83 98.55c0 .32.1.53.28.48a5.5 5.5 0 0 1 1 .09l.23.09.05-.74.09-.33a.43.43 0 0 0-.24 0c-.11.06-.26.18-.35.17l-.7-.11c-.19.01-.31.12-.36.35z" class="C"/><path d="M21 98.62c-.07.43.23.75.5.54a.63.63 0 0 0 .2-.38.58.58 0 0 0-.25-.64c-.19 0-.36.12-.44.42a.13.13 0 0 0-.01.06z" class="B"/><path d="M18.34 98.66a.57.57 0 1 1-.56-.57.57.57 0 0 1 .56.57z" class="M"/><path d="M11.13,98.51l.21-.35s.2,0,.27.08a1.76,1.76,0,0,0,.93.2,2.32,2.32,0,0,1,.51-.06s.14.14.1.45-.15.37-.25.36a1.87,1.87,0,0,0-.57-.15,2,2,0,0,0-.71.14,2,2,0,0,1-.36.09Z" class="P"/><path d="M11.58 98.85c-.07.4-.34.56-.51.31a.73.73 0 0 1-.11-.54c0-.31.2-.49.38-.46s.27.31.25.64c-.01.01-.01.04-.01.05z" class="B"/><path d="M24.49,98.51l-.21-.35s-.2,0-.26.08a1.83,1.83,0,0,1-.94.2,2.31,2.31,0,0,0-.5-.06s-.15.14-.11.45.15.37.26.36A1.79,1.79,0,0,1,23.3,99a2.15,2.15,0,0,1,.71.14,1.76,1.76,0,0,0,.35.09Z" class="J"/><path d="M24,98.85c.07.4.34.56.52.31a.8.8,0,0,0,.1-.54c-.05-.31-.2-.49-.38-.46s-.27.31-.24.64Z" class="B"/><path d="M17.9,101.89c-.31,0-.5.07-.41.19a1.73,1.73,0,0,1,0,1.09,2.41,2.41,0,0,0-.2.47l1.07.12a1.75,1.75,0,0,0-.14-.44,1.91,1.91,0,0,1,0-1.21c0-.11-.15-.18-.32-.21Z" class="C"/><path d="M17.88,103.5c-.43-.06-.68.1-.56.27s.15.14.43.18.54,0,.61-.15-.2-.24-.43-.29Z" class="B"/><path d="M17.8,95.68c.31,0,.5-.08.41-.2a1.75,1.75,0,0,1,0-1.09,2,2,0,0,0,.19-.47l-1.07-.11a2,2,0,0,0,.15.44,2,2,0,0,1,0,1.21c0,.11.15.18.32.21Z" class="C"/><path d="M17.8,94.06c.43.06.67-.1.55-.27s-.15-.14-.43-.18-.54,0-.61.16.2.24.44.29Z" class="B"/><path d="M27.91 88.88c.05 3.36 12.9 13.26 18.73 13.17s9.25-1.5 9.2-4.87S44.2 82.56 38.37 82.64s-10.5 2.87-10.46 6.24z" fill="#e1e2ef"/><path d="M57.69 47.86c3.07 1.69 7.61 4.08 10.65 5.66-.22.36-.48.74-.54.82L65.55 53l-8.3-4.84c-.03 0-.07-.3.15-.35a.35.35 0 0 1 .29.05zm3.41.04l9 2.19-.37.91c-.03.07-9.46-2.76-9.48-2.74L56 47.06c-.19-.06 0-.45.17-.42zm-4.94-1.74c.06 0 .33-.23.65-.43l14.12.57c0 .44-.1.91-.11 1-1.97-.19-8.26-.69-14.66-1.14z" class="K"/><path d="M70.91 43.36l-12.76 1.49 1-.65 11.61-1.8a1.87 1.87 0 0 1 .18.83s-.01.13-.03.13z" class="N"/><path d="M70.18 39.39v.14l-3.37 1.12-5.14 1.73.44-.36 1-.82 6.67-2.57c.05-.04.34.43.4.76z" class="Q"/><path d="M68.64 35.91c.1 0-.08-.41-.35-.66 0 0 .38-.56.9-1.52a18.63 18.63 0 0 1 2.5 11.18 12.13 12.13 0 0 1-.16 1.35c-.28 1-1.59 4.17-1.59 4.17l.13-.34c.05-.12.26-.75.33-1a13.26 13.26 0 0 0 .43-5.72h.08v-.13a1.87 1.87 0 0 0-.18-.83h-.1a14.3 14.3 0 0 0-.91-2.75l.42-.14v-.14c-.06-.33-.35-.8-.44-.76l-.41.16a19.79 19.79 0 0 0-1.42-2.39l.77-.48z" class="F"/><path d="M62.09 42l-.46.37c-2.38 1.86-4.7 3.22-5.71 3.93a5.49 5.49 0 0 0-.9.76 2.39 2.39 0 0 0-.19.44 1 1 0 0 0 .15 1c-.67-.67-.35-1-.25-2.52.15-2.57-.71-2.7.76-3.92s6.27-3.7 10.17-8.17a20 20 0 0 0 4.65-8.53 11.23 11.23 0 0 0 1-3.08v.22-.59a18.62 18.62 0 0 1 0 5.78c-.97 5.79-4.62 10.62-9.22 14.31z" class="H"/><path d="M70.64 22v-.78a.76.76 0 0 0 0-.18 13.28 13.28 0 0 0-.63-2.87h.15v-.29a2.57 2.57 0 0 0-.17-.47c-.08-.16-.11-.17-.12-.17h-.16a17.9 17.9 0 0 0-1.31-2.57l.45-.22v-.13a1.58 1.58 0 0 0-.36-.57s-.16-.16-.21-.13l-.42.23-.55-.78a22.83 22.83 0 0 0 1.44-2.29 19 19 0 0 1 2.69 10.78c0 .2 0 .73-.06.93v-.22a11.23 11.23 0 0 1-1 3.08 13.27 13.27 0 0 0 .26-3.35z" class="F"/><g class="H"><path d="M69.11 52.21l.59-1.22c.27-.58 1.54-3.7 1.83-4.73 0-.13.11-.82.12-.95a18.49 18.49 0 0 1 0 4.27 19.86 19.86 0 0 1-1.78 6 2.46 2.46 0 0 1-.53.33c-1.44.72-4.17 1.63-3.87 1.3l.93-1c.36-.39.64-.77.91-1.14.1-.12.5-.68.52-.71a23.71 23.71 0 0 0 1.28-2.15zM67.76 7.54a10.38 10.38 0 0 1 1.89-1.8 6 6 0 0 1 .87-.57s.18-.08.21 0a.05.05 0 0 1 0 0 .36.36 0 0 1 0 .07c-.34.64-2.76 2.6-3 2.41-.01-.01 0-.05.03-.11z"/><path d="M62.2 13.8l.5-.43a27 27 0 0 0 4.43-4.88l.57-.85c.22.18 2-1.2 2.77-2.07a1.55 1.55 0 0 0 .26-.37 18.63 18.63 0 0 1-1.17 3.71c0 .05-.32.73-.53 1.14a26.29 26.29 0 0 1-5.54 7.23 53.47 53.47 0 0 1-6.58 5A17.33 17.33 0 0 0 55 23.65a1.34 1.34 0 0 0-.25.28 1.23 1.23 0 0 0-.16 1.19 1.4 1.4 0 0 1-.21-.4c-.13-.46.09-1.15.05-2.41-.06-1.84-.52-2.2.1-2.92.79-.93 3.57-2.32 6.72-4.8-.01-.02.18-.15.95-.79z"/><path d="M70.48 6.28v-.16a.63.63 0 0 0 0 .16z"/></g><path d="M70.57 21a6.65 6.65 0 0 1 .07.91V22l-13.73.28.79-.53L70.57 21z" class="K"/><g class="H"><path d="M70.32 6.82l.14-.47-.14.47z"/><path d="M70.21 7.18c0-.12.07-.24.11-.36-.03.12-.07.24-.11.36z"/><path d="M70.15,7.36l.06-.18Z"/></g><path d="M67.5 24.5l2.91.4-.22.94-14.73-2.58.52-.38L67.5 24.5z" class="K"/><g class="H"><path d="M70 7.89l.19-.53c-.1.18-.19.36-.19.53z"/><path d="M69.56 8.91l.4-1-.4 1z"/></g><path d="M59.63 20.41l1.19-.88 8.94-2.34.12.17a2.57 2.57 0 0 1 .17.47s.07.26 0 .29-5.6 1.22-10.42 2.29z" class="N"/><path d="M69.49,9.07l.06-.13Z" class="H"/><path d="M69.2 28.55l.5-1.17a19.53 19.53 0 0 1-2.07 3.94s.54-.77 1.14-1.9a2.65 2.65 0 0 0-.37-.16l-11.86-5a.16.16 0 0 1-.07-.14.29.29 0 0 1 .39-.21S60 25.17 69.2 28.55z" class="K"/><path d="M64.19 16.61a29 29 0 0 0 2.44-2.77l-.87 1.07 2.42-1.3a1.53 1.53 0 0 0 .21.13c.25.25.43.66.35.7zm2.94 20.3l1.16-1.66c.27.25.45.61.35.66z" class="Q"/><path d="M58.6 3.41l-2-1.14c-.19-.11-.07-.3.15-.35A.38.38 0 0 1 57 2c.06 0 .67.43 8.37 4.47l2.29 1.2-.54.81c-.37-.28-5.45-3.31-8.52-5.07z" class="K"/><path d="M61.16 27.14l-2.35-1.8v-.1l5.23 2.19a28 28 0 0 1 3.16 3.38l.39.51-.29.42-6.14-4.6zm2.32-19.52l-.15.53L62 6.68c0-.21-.21-1-.21-1.07a.27.27 0 0 0-.11-.15 1 1 0 0 0-.43-.2h-.32a.11.11 0 0 0 0 .08v.12L59.6 3.94l7.46 4.45.07.1a25.18 25.18 0 0 1-1.59 2L64 8.92l.32-.8a.23.23 0 0 0 0-.07.35.35 0 0 0-.1-.15c-.22-.26-.7-.42-.74-.28z" class="F"/><path d="M58.35 25.62c-.12-.1-.08-.22.06-.28a.55.55 0 0 1 .4 0c.24.1.21.29 8.53 6.4-.18.26-.37.52-.57.77-.01.01-4.93-4.18-8.42-6.89z" class="K"/><path d="M66.54 32.51v.12l-.88 1.24-.4.44-.45-.77.92-1.54h.15a1.13 1.13 0 0 1 .66.51z" class="Q"/><path d="M66.54 32.63v-.12a1.13 1.13 0 0 0-.66-.53q-.12 0-.15 0l-.62 1-1.25-1.2c0-.54.1-1.09.16-1.63l2.75 2.3-1.11 1.36z" class="F"/><path d="M64.9 11.24l-6.38-7.61c.02-.02 0-.18.08-.22l1 .57 2.38 2.7 3.57 3.85-1.92 2 1.27-1.29z" class="K"/><path d="M65.41 6.44L57 2a.38.38 0 0 0-.28-.05c-.22.05-.34.24-.15.35l2 1.14c-.12 0-.17.13-.08.22s.88 1 2.74 3.17l.12.51c-3.29-2.49-6.17-3.8-7.09-4.77A8.73 8.73 0 0 0 57 .45c.06-.07.29-.33.27-.42a41.5 41.5 0 0 1 8.14 6.41z" class="F"/><path d="M65.26 34.31l-.64.69-2.13-4.27-1.73-3.19 1.32 1.07 3.18 5.7z" class="N"/><g class="Q"><path d="M64.36 8.12l-.32.8-.71-.77.15-.53c0-.09.24 0 .34 0a1.23 1.23 0 0 1 .43.28.35.35 0 0 1 .1.15.23.23 0 0 1 .01.07zM64.62 35q-.51.53-1 1v-.48c0-.16 0 .09.69-1.14.02.02.31.62.31.62zm-.93-25.25s.06-.12-.62 1.67l-.33-1.31A7.12 7.12 0 0 1 63.07 9l.62.75zm.17 22.13l-.71-1.27c-.15-.27 0-.74 0-1.11l.86.71-.15 1.67z"/><path d="M62.84 36.68l.27-4.74.64 1.28c.06.12-.06.6-.13 2.29v.48l-1.7 1.49z"/></g><path d="M63.42 12.72l-.72.65-1.44-6.57 1 1.18s0-.08.23 1l.93 3.74z" class="N"/><path d="M62.08 28.61l1.08.89v1.11c-.37-.61-.73-1.32-1.08-2z" class="F"/><path d="M62.58 12.73l-.38 1.07-1 .79 1.08-3.18c.04.03.15.53.3 1.32z" class="Q"/><path d="M54.74 23.93a3 3 0 0 1 .72-.67l4.11.7c.06.05 1.33.83 2.91 2.1l-5.62-2.12a.29.29 0 0 0-.39.21.16.16 0 0 0 .07.14c.05 0-.1 0 2.31.95v.1a.55.55 0 0 0-.4 0c-.14.06-.18.18-.06.28l2.41 1.92 1.67 3.08c-3.72-3-7-4.41-7.85-5.5a1.23 1.23 0 0 1 .12-1.19z" class="F"/><path d="M62 6.68L61 5.5a1 1 0 0 1 0-.12.13.13 0 0 1 0-.08c.06-.07.23-.06.32 0a1 1 0 0 1 .43.2.27.27 0 0 1 .11.15L62 6.68z" class="N"/><path d="M60.86 47.84l-4.72-1.2c-.22 0-.38.36-.19.42l4.27 1.2-1 .44-1.57-.86a.38.38 0 0 0-.26 0c-.22 0-.33.24-.15.35l1.37.78-1.39.47a2.63 2.63 0 0 1-.76.15A8.6 8.6 0 0 1 55 48.48a1 1 0 0 1-.15-1 2.69 2.69 0 0 1 .17-.41 6.44 6.44 0 0 1 1.16-1l2.44.17 2.24 1.6zm-3.97-25.57l1.58 1-2.49-.36z" class="F"/><g class="H"><path d="M57.29 0a8.4 8.4 0 0 1-2.37 2.22c-.1.07-.49.33-.61.3s0-.1 0-.13a5.32 5.32 0 0 1 .83-.91A11 11 0 0 1 57.06.06h.13.07a.07.07 0 0 1 .03-.06z"/><path d="M57.26,0a1.23,1.23,0,0,0-.43.18A1,1,0,0,1,57.26,0Z"/></g><path d="M57.71 45.77h-.9l.4-.27z" class="F"/><path d="M55.18 1.48l.65-.57-.65.57zm-.85.9s-.07.13 0 .16-.05-.08 0-.16z" class="H"/><path d="M65.71,51.24a18.17,18.17,0,0,1-1.93,2.44c-.53.39-1.28,1.19-1.13,1.68s1,.85,2.11.29,1.09-1,1.85-1.21a3.06,3.06,0,0,0,1.76-1.07c.26-.47-.88-2.86-.88-2.86Z" fill="#e5ffff"/><path d="M65.71,50.94a18.83,18.83,0,0,1-1.93,2.44c-.53.39-1.28,1.18-1.13,1.68s1,.84,2.11.29,1.09-1,1.85-1.21a3.06,3.06,0,0,0,1.76-1.07c.26-.48-.88-2.86-.88-2.86Z" class="G"/><path d="M69.69,52.72a8,8,0,0,1-.79,2.46c-.46.52-1.42,1.31-1.41,1.71s1,.69,2,.39,2.2-2.15,2.43-2.7,1.25-.51,1-1.21a7.88,7.88,0,0,0-.64-1.3Z" fill="#e5ffff"/><path d="M59.87 52.1a7.59 7.59 0 0 0-1.3 1.22 1.57 1.57 0 0 0 0-.25v-1.3a4.4 4.4 0 0 0 .72-.66 4.77 4.77 0 0 0 1.09-2.38 2.62 2.62 0 0 0-.06-1 1.32 1.32 0 0 0-.29-.52c-.15-.16-.06-.09-1.51-.91v-2.65l-1.08-.61c2.14-1 5-2 7.08-1a10.33 10.33 0 0 1 2.13 1.65c5.51 5 5.75 16.21.59 27.63L64 78.4l-.38.23-.63-1.1v-7.45h0l.47-.27.79-1.81c3.17-7.13 2.65-14-1.16-16.37-.99-.63-2.27-.22-3.22.47z" class="S"/><path d="M66.61 43.73l-1-.8a6.08 6.08 0 0 0-1-.71l-.14-.07a.59.59 0 0 0-.14-.06l-.28-.09a4.44 4.44 0 0 0-.6-.16 5.18 5.18 0 0 0-1.24-.08h-.31-.31c-.21 0-.41.07-.62.1l-1.21.3-1.19.41-1.17.47a17.58 17.58 0 0 1 2.32-1 9.17 9.17 0 0 1 2.48-.49 4.89 4.89 0 0 1 1.27.11 4.37 4.37 0 0 1 .62.17l.3.12.14.07.14.08a10.71 10.71 0 0 1 1.94 1.63z" fill="#fff"/><path d="M66.11,84.23V86c-2.23,4.73-8.43,9.41-16.34,12.35V96.58C57.68,93.65,63.88,89,66.11,84.23Z" class="E"/><path d="M66.11 84.23l-9.43 5.54c0-7.47.31-10.88.89-12.57l3.52-2.07a7 7 0 0 1 1.91 2.4l.61 1.07.48 1 .44.93c.18.35 1.52 3.55 1.58 3.7zm-4-5.54v-.08a1.63 1.63 0 0 0-.08-.45v-.08a.91.91 0 0 0-.31-.38h-.06l-.52-.3a1 1 0 0 0-.69-.06 1.79 1.79 0 0 0-.8.46 3.61 3.61 0 0 0-1.14 2 1.91 1.91 0 0 0 0 .92 1 1 0 0 0 .41.57l.53.29a.86.86 0 0 0 .54.1h.08a1.1 1.1 0 0 0 .29-.09h.07a2.73 2.73 0 0 0 .71-.54l.12-.13a3.75 3.75 0 0 0 .65-1.08l.06-.17v-.09-.12-.07a1.29 1.29 0 0 0 0-.19.07.07 0 0 0 0-.05v-.06-.15a.28.28 0 0 0 0-.09z" class="T"/><path d="M56.68,89.77l9.43-5.54C63.88,89,57.68,93.65,49.77,96.58L46,98a4.35,4.35,0,0,1-1.33.26,2.16,2.16,0,0,1-1-.2.68.68,0,0,1-.35-.41.69.69,0,0,1,0-.15,1.13,1.13,0,0,1,.38-.76l.09-.08.15-.13.11-.08.12-.08.13-.07.2-.11,6.5-3.25a13.22,13.22,0,0,0,2.18-1.35l.27-.2a7.35,7.35,0,0,0,2-2.31Z" class="S"/><path d="M58.81 38.84l6 3.38h-.08l-.12-.06h-.08l-.19-.16c-1.93-.81-4.3-.2-6.94 1l-.17-.1-5 2.94L50 44.63v-4.24l1.28-.65c2.88-1.39 5.49-2.06 7.53-.9z" class="O"/><path d="M63.09 51.58C66.9 54 67.42 60.82 64.25 68l-.82 1.84-6-3.4 1.09-2.48a22.13 22.13 0 0 0 .29-.73c.09-.24.07-.19.11-.28.09-.25.17-.49.25-.74 0-.1.21-.66.25-.77a23.42 23.42 0 0 0 .75-3.46.87.87 0 0 0 .18-.11h0l.11-.08.06-.06.1-.11v-.05a1 1 0 0 1 .08-.11.35.35 0 0 0 .05-.08h0v-.07a2.49 2.49 0 0 0 .29-.77v-.14-.14a.9.9 0 0 0-.06-.36.59.59 0 0 0-.16-.24h0 0l-.48-.66v-.22-.36V54v-.28a2.34 2.34 0 0 0 0-.26v-.34c-.07-.36-.16-.71-.26-1a3.57 3.57 0 0 1 2.52-.79h.06a1.91 1.91 0 0 1 .52.19z" class="T"/><path d="M63.43 69.78l-.47.28.05.02-4.17 2.43-6-3.41 4.62-2.71 5.97 3.39z" class="O"/><path d="M63 70.08v7.45a7 7 0 0 0-1.92-2.4h.07v-1.3l-2.32-1.32zm-.92 8.53v.16a.28.28 0 0 1 0 .09V79v.06a.07.07 0 0 1 0 .05 1.29 1.29 0 0 1 0 .19v.07.12.09l-.06.17a3.7 3.7 0 0 1-.65 1.08l-.12.13a2.93 2.93 0 0 1-.47.4l-.24.14h-.07l-.26.09h-.11a.91.91 0 0 1-.54-.1 1.11 1.11 0 0 1-.47-1 3.4 3.4 0 0 1 1.77-2.85 1 1 0 0 1 .86 0h.09a.46.46 0 0 1 .16.15 1.11 1.11 0 0 1 .16.24v.08a1.91 1.91 0 0 1-.05.5z" class="E"/><path d="M61.08 77.36l.48.28a1 1 0 0 0-.86 0 3.4 3.4 0 0 0-1.77 2.85 1.13 1.13 0 0 0 .44 1l-.5-.28a1 1 0 0 1-.41-.57 1.91 1.91 0 0 1 0-.92 3.61 3.61 0 0 1 1.14-2 1.79 1.79 0 0 1 .8-.46 1 1 0 0 1 .68.1z" class="G"/><path d="M60.23 57.38a.33.33 0 0 0 .27 0 .7.7 0 0 0 .22-.2 1.09 1.09 0 0 0 .19-.33.42.42 0 0 0 0-.1.5.5 0 0 0 0-.12.43.43 0 0 0 0-.21v-.07l-.06-.05-.22-.13a.39.39 0 0 0-.38.08.89.89 0 0 0-.26.29 1 1 0 0 0-.12.37.39.39 0 0 0 .13.37l.22.12zm1.08-1.3v.14.14a2.26 2.26 0 0 1-.29.77v.07l-.09.13a1 1 0 0 0-.08.11v.05l-.1.11h0l-.05.05a.18.18 0 0 1-.07 0l-.09.07-.16.1-.15.06h-.15-.23a.59.59 0 0 1-.34-.28.84.84 0 0 1-.1-.44 2.27 2.27 0 0 1 1.16-1.87.69.69 0 0 1 .56 0h.08 0 0a.59.59 0 0 1 .1.17 1 1 0 0 1 0 .62z" fill="#2e0000"/><path d="M52.83 69.1l8.33 4.73L36.4 88.35l-13-7.41 19.3-11.31-.18 1.29h.14L43 71l.37.06-.25 1.79.38 1.5c.14 0 .42.09.74.14l.76.1.61.07h.15.08l.77-1.33.25-1.8.72.07h.15a.89.89 0 0 0 .08-.31h.24.15a1.45 1.45 0 0 0 .51-.21h.05c.05 0 0 0 0-.05v-.06-.06l.55-1.06a.68.68 0 0 0 .08-.24.13.13 0 0 0 0-.06v-.39a2.06 2.06 0 0 0 .62-.45 1.15 1.15 0 0 0 .29-.69v-.24z" fill="#0b45b2"/><path d="M57.42 56.74h-.05 0a.67.67 0 0 1-.14-.19v-.1a1 1 0 0 1 0-.41 1.5 1.5 0 0 1 0-.2v-.13a2.5 2.5 0 0 1 .18-.47.47.47 0 0 1 0-.1 1.64 1.64 0 0 1 .14-.22 2.13 2.13 0 0 1 .35-.39l.06-.05.1-.08h.08.06.07l.15-.05h.09.19.07l2.21 1.24a.65.65 0 0 0-.56 0 2.27 2.27 0 0 0-1.16 1.87.84.84 0 0 0 .1.44.59.59 0 0 0 .34.28h-.1z" class="D"/><path d="M61 56.51a.69.69 0 0 1 0 .2v.1a1 1 0 0 1-.12.23l-.06.09a.9.9 0 0 1-.23.21.36.36 0 0 1-.27 0 .3.3 0 0 1-.13-.11.39.39 0 0 1 0-.26 1 1 0 0 1 .29-.59.5.5 0 0 1 .41-.19l.12.08a.34.34 0 0 1-.01.24z" fill="#76b7c6"/><path d="M60.87 56.31a.31.31 0 0 0-.11-.08.5.5 0 0 0-.41.19 1 1 0 0 0-.29.59.39.39 0 0 0 0 .26.26.26 0 0 0 .09.09l-.15-.12a.39.39 0 0 1-.13-.37 1 1 0 0 1 .13-.37.89.89 0 0 1 .26-.29.39.39 0 0 1 .38-.08l.22.13a.12.12 0 0 1 .01.05z" class="G"/><path d="M57.7 52.13h-.07A1.16 1.16 0 0 1 57 52h-.06a1.08 1.08 0 0 1-.2-.16 1.7 1.7 0 0 1-.38-1.14 4.4 4.4 0 0 1 2.28-3.66 1.3 1.3 0 0 1 1.12 0l.16.1h.06l.12.12h0v.05a1.22 1.22 0 0 1 .1.2.14.14 0 0 1 0 .06v.1a1.59 1.59 0 0 1 .06.3.34.34 0 0 1 0 .1.13.13 0 0 0 0 .06v.13a2.71 2.71 0 0 1 0 .29v.11a1.05 1.05 0 0 0 0 .13 2 2 0 0 1 0 .24v.06.14a.74.74 0 0 1 0 .14v.14a4.92 4.92 0 0 1-.88 1.52 3.67 3.67 0 0 1-.78.7l-.21.12h-.07-.11a2 2 0 0 1-.32.11zm1.87-3a.22.22 0 0 0 0-.09.78.78 0 0 0-.07-.3.59.59 0 0 0-.13-.18l-.37-.23a.63.63 0 0 0-.43 0 1.26 1.26 0 0 0-.49.28 2 2 0 0 0-.69 1.81.56.56 0 0 0 .25.35l.26.14h0 .06a.5.5 0 0 0 .21 0 1.22 1.22 0 0 0 .55-.26h.05 0l.06-.06a.34.34 0 0 0 .08-.09.13.13 0 0 0 0-.06v-.05a1.94 1.94 0 0 0 .15-.24.75.75 0 0 0 .07-.12.88.88 0 0 0 .09-.2v-.06l.06-.2v-.16a.22.22 0 0 1 0-.06.84.84 0 0 1 0-.12z" class="L"/><path d="M55.6 51.28h0-.06-.06a1.6 1.6 0 0 1-.21-.23h0a.75.75 0 0 1-.07-.12v-.06-.07-.09a1.42 1.42 0 0 1 0-.2 2.42 2.42 0 0 1 0-.66 2.89 2.89 0 0 1 0-.29 4.74 4.74 0 0 1 .91-2L56 47.3a3.9 3.9 0 0 1 .91-.83l.12-.08a2.83 2.83 0 0 1 .36-.16h.07.07.09a1.26 1.26 0 0 1 .72 0l.08.05 1.32.75a1.31 1.31 0 0 0-1.14 0 4.4 4.4 0 0 0-2.28 3.66 1.7 1.7 0 0 0 .38 1.14h-.07l-1-.59z" class="D"/><path d="M58.83 49.15h-.11a.38.38 0 0 0-.13.06h-.05a.71.71 0 0 0-.18.19h0a.91.91 0 0 0-.13.37.43.43 0 0 0 0 .24.23.23 0 0 0 .14.11.45.45 0 0 0 .37-.16.78.78 0 0 0 .23-.78.3.3 0 0 0-.14-.03zm.73-.13a.22.22 0 0 1 0 .09v.06.06.06.17l-.07.25v.06a.88.88 0 0 1-.09.2.75.75 0 0 1-.07.12 1.94 1.94 0 0 1-.15.24v.05.06a.36.36 0 0 1-.08.09l-.06.06h0-.05a1.55 1.55 0 0 1-.32.2l-.15.05a.68.68 0 0 1-.29 0h-.06a.66.66 0 0 1-.34-.66 2.11 2.11 0 0 1 1.09-1.76.66.66 0 0 1 .53 0c.18.16.21.2.24.26a.83.83 0 0 1-.13.32z" class="E"/><path d="M59.49 48.72a.85.85 0 0 0-.09-.14.55.55 0 0 1 .09.14z" fill="#76b7c6"/><path d="M59.28 48.48a.65.65 0 0 0-.56 0 2.11 2.11 0 0 0-1.09 1.76.65.65 0 0 0 .31.64l-.28-.15a.56.56 0 0 1-.25-.35 2 2 0 0 1 .69-1.81 1.26 1.26 0 0 1 .49-.28.63.63 0 0 1 .43 0zm-.28.78a.78.78 0 0 1-.23.78.45.45 0 0 1-.37.16.24.24 0 0 1-.12-.07v-.08a.43.43 0 0 0 .21-.11.93.93 0 0 0 .32-.65.35.35 0 0 0 0-.14h.11a.3.3 0 0 1 .08.11z" class="G"/><path d="M58.54 54.06v.08a.55.55 0 0 1 .26 0h-.11-.14-.14l-.15.05h-.07-.06-.07l-.89-.49h-.05a.48.48 0 0 0-.27 0l-.15.07h-.05l-.11.08h-.06l-.14.16v.07l-.08.12a3.09 3.09 0 0 0-.14.32.84.84 0 0 0 0 .1v.08a1.62 1.62 0 0 0 0 .22.49.49 0 0 0 .05.16l.09.12h.05l.88.5a1 1 0 0 0 0 .41v.1l-.14.11a2.47 2.47 0 0 1-.82.46h-.09-.49-.11l-.17.22a1.24 1.24 0 0 1-.55-1 4.08 4.08 0 0 1 1.91-3.56A1.31 1.31 0 0 1 58 52.3a.18.18 0 0 1 .08.05l.1.07h0l.07.08v.05h0l.07.13a.47.47 0 0 1 .06.15v.07a.14.14 0 0 0 0 .07.3.3 0 0 0 0 .1v.11.15.29.13z" class="E"/><path d="M58.72 49.15a.35.35 0 0 1 0 .14.93.93 0 0 1-.32.65.43.43 0 0 1-.21.11.47.47 0 0 1 0-.17.75.75 0 0 1 .09-.32.8.8 0 0 1 .08-.13l.09-.11a.61.61 0 0 1 .14-.11.38.38 0 0 1 .13-.06z" fill="#c0534b"/><path d="M58.53 51.77v1.3a.37.37 0 0 1 0-.09v-.07a.47.47 0 0 0-.06-.15v-.06-.07h0v-.05l-.07-.08h0l-.07-.05-.33-.14c-.11-.05-.21-.12-.32-.18h0a2.09 2.09 0 0 0 .44-.16h.07a1.82 1.82 0 0 0 .34-.2z" fill="#9bcfde"/><path d="M55.36 57l.1.05.19.06h.49.09.07a2.18 2.18 0 0 0 .75-.44l.14-.11a.67.67 0 0 0 .14.19l-3.84 2.26V46.6l5-2.94v2.65h-.07 0a1.18 1.18 0 0 0-.75-.07h-.08-.08a2.2 2.2 0 0 0-.43.18l-.09.06a3.61 3.61 0 0 0-.94.85l-.06.08a4.58 4.58 0 0 0-.91 2 2.88 2.88 0 0 0 0 1 .36.36 0 0 0 0 .11v.09.09.07a.72.72 0 0 0 .09.18h0a.93.93 0 0 0 .21.23h.05 0 .05l1 .59a3.49 3.49 0 0 0-2.07 2 3.09 3.09 0 0 0-.28 2.2 1.07 1.07 0 0 0 .46.58z" class="E"/><path d="M58.48 43.66l-4.99 2.94-1.28-.71 5.02-2.94 1.25.71z" class="O"/><path d="M58.05 54.33l-.1.08-.06.05a2.52 2.52 0 0 0-.35.39 1.64 1.64 0 0 0-.14.22.47.47 0 0 0 0 .1 2.5 2.5 0 0 0-.18.47v.13a1.5 1.5 0 0 0 0 .2l-.88-.5-.1-.08a.56.56 0 0 1-.08-.18 1.48 1.48 0 0 1 0-.27v-.08-.07-.08a3.09 3.09 0 0 1 .14-.32l.08-.12v-.07l.14-.16h.06l.06-.05h0 .05l.15-.07a.47.47 0 0 1 .2 0c.42.08.72.24 1.01.41z" fill="#2e0000"/><path d="M58,52.3a1.28,1.28,0,0,0-1.26.13A4.08,4.08,0,0,0,54.82,56a1.22,1.22,0,0,0,.55,1l-.64-.37a1.07,1.07,0,0,1-.46-.58,3.09,3.09,0,0,1,.28-2.2,3.49,3.49,0,0,1,2.07-2l.3.17a1.08,1.08,0,0,0,.71.11h.07l.32.18Z" class="G"/><path d="M55.44,89.06v-.73a64.81,64.81,0,0,1,.5-10.18l1.63-1c-.58,1.69-.94,5.1-.89,12.57Z" class="E"/><path d="M53.54 79.56l2.4-1.41a66.11 66.11 0 0 0-.5 10.18l-3.1 1.81v-9.86z" class="V"/><path d="M54.55 62.15a1.12 1.12 0 0 1-.09.44l-.08.14a1.82 1.82 0 0 1-.91.61 5.28 5.28 0 0 1-1.49.31c-3.55.31-8.7-1.09-11.95-2.78a10.86 10.86 0 0 1-2.79-1.93 2.54 2.54 0 0 1-.71-1.18 1.52 1.52 0 0 1 0-.29v-.15a1.23 1.23 0 0 1 .38-.58 2.43 2.43 0 0 1 .47-.28h.09.11l.13-.05h.07a4.94 4.94 0 0 1 .74-.17h.06.31a13.37 13.37 0 0 1 2.45 0v2.66c0 .34.33.66.58.87a11.45 11.45 0 0 0 6.88 1.89c.52-.06 1.28-.24 1.27-.76v-2.35l.4.19a13.61 13.61 0 0 1 2.57 1.52l.13.11.16.13.26.23.13.13.13.14.07.07L54 61l.09.12.05.06v.07l.08.13a.08.08 0 0 1 0 0 .75.75 0 0 1 .07.12 2.24 2.24 0 0 1 .12.29.24.24 0 0 0 0 .08v.07.07z" class="L"/><path d="M50.45 67.11a14.9 14.9 0 0 1-2-.08h-.07-.43l-2.36-.4-1.58-.39-1.12-.33-.45-.15q-.78-.27-1.53-.57l-.75-.32-.49-.23-.76-.38-.49-.26-.26-.14a11.27 11.27 0 0 1-1.42-1l-.11-.09-.1-.1-.1-.09a3.4 3.4 0 0 1-.32-.34l-.11-.12a.39.39 0 0 0 0-.12l-.06-.09a2.16 2.16 0 0 1-.32-.62v-.05a1.55 1.55 0 0 1 0-.21 1.34 1.34 0 0 1 0-.35l1-3.38v.15a1.52 1.52 0 0 0 0 .29 2.54 2.54 0 0 0 .71 1.18A10.86 10.86 0 0 0 40 60.87c3.28 1.69 8.43 3.13 12 2.78a5.28 5.28 0 0 0 1.49-.31 1.82 1.82 0 0 0 .91-.61l.06-.11.05-.11c-.31 1.09-.62 2.22-1 3.35a.19.19 0 0 1 0 .07 1.18 1.18 0 0 1-.34.46l-.07.06h-.08a3.45 3.45 0 0 1-.43.23h-.05-.06 0-.06-.08-.06l-.21.06h-.11-.12a10.16 10.16 0 0 1-1.39.37z" class="D"/><path d="M53.49 46.6v12.33l-3.41-2L50 44.6z" class="V"/><g class="G"><path d="M52.34,86.29v3.85l-1-.56a7.18,7.18,0,0,0,.77-3.29Z"/><path d="M52.34,80.28v6h-.19a6.86,6.86,0,0,0-1.95-4.77Z"/></g><path d="M39.48 92.32L39 91.9l.09.07.26.19a7.68 7.68 0 0 0 4.14 1.32 8.07 8.07 0 0 0 6.93-3.66 7.09 7.09 0 0 0-.3-8.24l.12-.06a6.86 6.86 0 0 1 1.95 4.77 7.24 7.24 0 0 1-.77 3.28 7.53 7.53 0 0 1-.41.73 7.94 7.94 0 0 1-11.53 2.02z" class="D"/><path d="M51.25 39.74l-1.25.75v-1.43V39z" class="O"/><path d="M50.45 67.11V68a1.15 1.15 0 0 1-.29.69 2.06 2.06 0 0 1-.62.45 4.17 4.17 0 0 1-1.46.36l.34-2.45a15.12 15.12 0 0 0 2.03.06z" class="E"/><path d="M50.08 81.58a7.09 7.09 0 0 1 .3 8.24 8.07 8.07 0 0 1-6.93 3.66 7.69 7.69 0 0 1-4.13-1.31l-.2-.15-.18-.14h0l-.13-.11a1.47 1.47 0 0 1-.17-.15l-.12-.11a.12.12 0 0 1 0 0 1.54 1.54 0 0 1-.19-.19l-.14-.14L38 91l-.15-.18-.13-.17-.26-.36-.14-.24a.1.1 0 0 1 0 0 .75.75 0 0 0-.07-.12.54.54 0 0 0-.07-.13l-.18-.26-.11-.23.42-.25.08.16a1.5 1.5 0 0 0 .09.18l.11.2c0 .05.11.19.12.21l.06.11h0l.11.16.09.12a.21.21 0 0 0 0 .06l.12.15.1.13.15.17a3.2 3.2 0 0 0 .31.32l.14.13a1.54 1.54 0 0 0 .19.17l.14.12h0l.13.1a7.16 7.16 0 0 0 4.6 1.45A7.56 7.56 0 0 0 50 89.59a6.6 6.6 0 0 0-.31-7.76z" class="L"/><path d="M50.08 57v3.78c0 .52-.75.7-1.27.76A11.45 11.45 0 0 1 42 59.61c-.25-.21-.58-.53-.58-.87v-4.32a2 2 0 0 0 .37 1 3 3 0 0 0 1.14.87 6.83 6.83 0 0 0 5.95-.15 2.18 2.18 0 0 0 1.26-1.85v.06L50.08 57z" class="D"/><path d="M50.06 54.34a2.2 2.2 0 0 1-1.26 1.79 6.82 6.82 0 0 1-4.91.53 4.66 4.66 0 0 1-.82-.28l-.22-.1a3 3 0 0 1-1.14-.87 2 2 0 0 1-.37-.94h0l-.11-17.24a1.8 1.8 0 0 0 .37 1 2.75 2.75 0 0 0 .95.78l.19.1a5.22 5.22 0 0 0 .81.31 6.82 6.82 0 0 0 5.13-.47 2.31 2.31 0 0 0 1.25-1.58.2.2 0 0 0 0-.07v-.06c.07.48.07 13.87.13 17.1z" class="O"/><path d="M43.89,56.66a4.66,4.66,0,0,1-.82-.28L42.55,39l.19.1a5.22,5.22,0,0,0,.81.31Z" fill="#fff"/><path d="M49.94 35.88v1.26a.13.13 0 0 0 0-.06.29.29 0 0 1 0 .13v.06a.2.2 0 0 1 0 .07 2.31 2.31 0 0 1-1.25 1.58 6.8 6.8 0 0 1-5.94.16 3 3 0 0 1-1.14-.88 1.88 1.88 0 0 1-.37-.94v-1.25a1.89 1.89 0 0 0 .76 1.35c1.52 1.27 4.75 1.45 6.68.31a2.3 2.3 0 0 0 1.26-1.61v-.11z" class="D"/><path d="M41.26 35.6v-.06a2 2 0 0 1 .56-.89l.06-.06.12-.09.09-.08h0 0 .07.06l.11-.07.15-.08.11-.06v1.91a1.16 1.16 0 0 0 .24.66 2.07 2.07 0 0 0 .74.57 4.46 4.46 0 0 0 3.87-.1 1.46 1.46 0 0 0 .83-1.17v-1.91l.1.05h0l.15.08h.08.06l.13.09h.07l.07.05h.06l.08.07.1.1.07.06a2 2 0 0 1 .39.59 1.66 1.66 0 0 1 .06.16.31.31 0 0 1 0 .08.56.56 0 0 1 0 .15.2.2 0 0 1 0 .07.13.13 0 0 0 0 .06v.12a.72.72 0 0 0 0 .13 2.28 2.28 0 0 1-1.26 1.61c-1.93 1.14-5.16 1-6.68-.31a1.86 1.86 0 0 1-.53-1.33v-.07a.86.86 0 0 1 0-.16.17.17 0 0 1 0-.07.41.41 0 0 1 0-.1z" class="L"/><path d="M49.66 81.83a6.6 6.6 0 0 1 .34 7.76A7.56 7.56 0 0 1 43.85 93a7.16 7.16 0 0 1-4.45-1.38l-.17-.14-.16-.13a1.54 1.54 0 0 1-.19-.17l-.14-.13a2.76 2.76 0 0 1-.29-.3l-.14-.16-.13-.16-.12-.15a.21.21 0 0 1 0-.06l-.09-.12-.15-.1-.09-.15h0l-.09-.16-.08-.14v-.06a1.19 1.19 0 0 1-.08-.16c0-.07-.06-.13-.09-.18z" fill="#effffc"/><path d="M43.65 93.31a7.42 7.42 0 0 1-4.42-1.44l-.23-.15-.16-.13-.2-.17-.14-.14-.3-.31-.54-.68-.12-.18-.34-.58a.89.89 0 0 1-.08-.17c0-.07-.06-.13-.09-.19l-.1-.23 12.76-7.48.15.19a6.92 6.92 0 0 1 .33 8.09 7.77 7.77 0 0 1-6.35 3.56z" fill="#f1f0ef"/><path d="M49.77 96.58v1.75L46 99.72a4.09 4.09 0 0 1-1.33.27 3 3 0 0 1-.77-.09l-.13-.05h-.06-.06-.05 0-.06a.84.84 0 0 1-.11-.11.66.66 0 0 1-.08-.13 2.69 2.69 0 0 1 0-.3v-1.67a.17.17 0 0 0 0 .07.71.71 0 0 0 .36.49 2.16 2.16 0 0 0 1 .2A4.35 4.35 0 0 0 46 98z" class="E"/><path d="M49.54 69.12v.39a.13.13 0 0 1 0 .06.53.53 0 0 1-.08.24.91.91 0 0 1-.11.16 2.19 2.19 0 0 1-1.4.54l.14-1a4.17 4.17 0 0 0 1.45-.39z" class="L"/><path d="M49.45 69.81l-.55 1.06v.06.06.05c0 .05 0 0-.05 0a1.45 1.45 0 0 1-.51.21h-.15-.24l.12-.84a2.19 2.19 0 0 0 1.4-.54.91.91 0 0 0-.02-.06z" class="D"/><path d="M42.68 25.66a1.15 1.15 0 0 0 .24.57 2 2 0 0 0 .73.57 4.5 4.5 0 0 0 3.87-.1 1.55 1.55 0 0 0 .82-1 1 1 0 0 0 0-.14l.07 10.36a1.46 1.46 0 0 1-.83 1.17 4.46 4.46 0 0 1-3.87.1 2.07 2.07 0 0 1-.74-.57 1.16 1.16 0 0 1-.24-.66l-.07-10.36c.01 0 .02.03.02.06z" class="T"/><path d="M48.33 24.31v-.08a.13.13 0 0 0 0-.06v1.36a.28.28 0 0 1 0 .09 1.51 1.51 0 0 1-.82 1.08 4.5 4.5 0 0 1-3.87.1 2 2 0 0 1-.73-.57 1.15 1.15 0 0 1-.24-.57v-.09-1.29a1.3 1.3 0 0 0 .58.9 4.36 4.36 0 0 0 4.26.13 1.52 1.52 0 0 0 .82-1z" class="D"/><path d="M47.31 24.16a.83.83 0 0 0-.38-.63 2.74 2.74 0 0 0-2.71-.09.93.93 0 0 0-.53.72v.06a.64.64 0 0 0 .15.36l.06.09a1.5 1.5 0 0 0 .47.32h.08.09a2.21 2.21 0 0 0 .46.11h.13.19a2.72 2.72 0 0 0 1.33-.1l.13-.07h.08a1.09 1.09 0 0 0 .31-.29.71.71 0 0 0 .14-.35zm-4.64.12v-.09a.78.78 0 0 1 0-.22.15.15 0 0 0 0-.06.84.84 0 0 1 0-.1v-.1l.05-.09.07-.11h0l.1-.11.06-.05h.06a.39.39 0 0 1 .1-.08h.05.06l.07-.05.09-.05h.07l.11-.06.22-.1h.13 0l.19-.06h.11.14.11.15.08.92.31.16.13l.32.07h.1.09.12l.24.1.12.06.13.07h.07l.16.11.11.09.08.07h0v.06.05l.1.14v.09a.36.36 0 0 1 0 .11.64.64 0 0 0 0 .1.56.56 0 0 1 0 .12v.05a.09.09 0 0 1 0 .05.25.25 0 0 1 0 .09v.08a1.49 1.49 0 0 1-.82 1 4.36 4.36 0 0 1-4.26-.13 1.3 1.3 0 0 1-.1-1.05z" class="L"/><path d="M48.42 67l-.64 4.62h-.06c-.22-.1-3.9-.64-4.9-.7h-.28c0-.42.47-3.73.64-5l.81.24 1.58.39 2.35.4z" class="O"/><path d="M47.31 24.12a.75.75 0 0 1 0 .24.76.76 0 0 1-.09.18 1 1 0 0 1-.32.31 2.82 2.82 0 0 0-2.06-.26 2.1 2.1 0 0 0-.65.28l-.08-.06a.79.79 0 0 1-.17-.14h0a.09.09 0 0 1 0-.05.66.66 0 0 1-.15-.4.93.93 0 0 1 .53-.74 2.74 2.74 0 0 1 2.71.09.83.83 0 0 1 .28.55z" class="V"/><path d="M46.86 24.85h-.08l-.13.07a2.77 2.77 0 0 1-1.33.24h-.19H45a2.21 2.21 0 0 1-.46-.11h-.08-.09l-.22-.12a2.1 2.1 0 0 1 .65-.28 2.82 2.82 0 0 1 2.06.2z" class="S"/><path d="M46.83 71.51h.05a.07.07 0 0 1 0 0l-.25 1.8h-.07-.09-.11c-.9-.17-2.91-.41-3-.41h-.07l.26-1.85c.01-.02 0 0 0 0h.07c.13 0 2.15.25 3.05.41h.11.09z" class="L"/><path d="M46.62 73.38l-.77 1.33c-.13 0-1.75-.29-2.26-.32h-.08l-.38-1.5h.07a40.92 40.92 0 0 1 3 .41h.11.09.07s.15.06.15.08zm-.46 26.29v.69a.65.65 0 0 1-.05.18.25.25 0 0 1 0 .07v.07l-.13.11-.12.07h-.11a1.13 1.13 0 0 1-.24.08h-.38a2.19 2.19 0 0 1-.53-.07h-.12a.94.94 0 0 1-.33-.21.63.63 0 0 1-.1-.15.37.37 0 0 1 0-.17v-.44a2.67 2.67 0 0 0 .77.09 4.09 4.09 0 0 0 1.18-.27z" class="D"/><path d="M42.52 65.74h.12z" fill="#97ac7c"/><path d="M40.64 65l-2.31 2.87a.48.48 0 0 1-.31.14 1.24 1.24 0 0 1-.42 0h-.09a5.42 5.42 0 0 1-1.82-1 6 6 0 0 1-1.24-1.28l-.17-.28a1.64 1.64 0 0 1-.18-.46.48.48 0 0 1 0-.3v-.06l1.92-2.38-.11-.25a.18.18 0 0 1 .09 0l.08.1.07.07.32.34.1.09.1.1.11.09a11.27 11.27 0 0 0 1.42 1l.26.14.47.26.76.38.49.23.75.32q.75.3 1.53.57c-.63-.18-1.23-.41-1.82-.69z" class="T"/><path d="M39.23 91.5l.16.13-.13-.1zm-.16-.13l.14.12z" class="R"/><path d="M38.94,91.88l.11.09L39,91.9Z" class="D"/><g class="R"><path d="M38.74,91.07l.14.13Z"/><path d="M38.45 90.77a2.76 2.76 0 0 0 .29.3 2.76 2.76 0 0 1-.29-.3zm-.14-.16l.12.14z"/></g><path d="M33 93.67h0-.08l-.13-.05h0l-.1-.06-.1-.09a.41.41 0 0 1-.08-.1l-.07-.13a.43.43 0 0 1 0-.12.13.13 0 0 1 0-.06v-1.73a.45.45 0 0 1 0 .08.7.7 0 0 0 .36.47 3.6 3.6 0 0 0 3.23-.5l1.54-1.06.26.36.13.17.12.15.16.18.14.14.11.12-2.72 1.85-.11.06-.29.14a3.71 3.71 0 0 1-2.37.18z" class="E"/><g class="R"><path d="M38.18,90.45l.1.13Z"/><path d="M38.06 90.3l.12.15zm-.13-.18l.09.12zm-.11-.12l.11.16zm-.09-.19l.06.11z"/></g><path d="M34.45 65.66a6 6 0 0 0 1.24 1.28 5.42 5.42 0 0 0 1.82 1h.09a1.88 1.88 0 0 1-.4-.13l-.68.85h0a.54.54 0 0 1-.18.06 1.13 1.13 0 0 1-.32 0A4.42 4.42 0 0 1 33.85 67a.79.79 0 0 1-.12-.3.26.26 0 0 1 0-.16.16.16 0 0 1 0-.08z" class="L"/><g class="R"><path d="M37.61 89.6l.09.16a1.29 1.29 0 0 1-.09-.16z"/><path d="M37.53 89.46a1 1 0 0 0 .08.14 1 1 0 0 1-.08-.14zm-.11-.22a1.19 1.19 0 0 0 .08.16 1.19 1.19 0 0 1-.08-.16z"/></g><path d="M37.42 90.24l-1.54 1.06a3.6 3.6 0 0 1-3.23.5.67.67 0 0 1-.35-.44v-.23a.11.11 0 0 1 0 0h0a.08.08 0 0 1 0-.05v-.06h0 0 0 0l.13-.15h0l2-1.81 1.73 1 .51-.29.11.23.08.16.14.25a.1.1 0 0 0 0 0 2.55 2.55 0 0 0 .42-.17z" class="S"/><path d="M37.33 89.06l.08.16c.03.05-.05-.11-.08-.16z" class="R"/><path d="M33.36 68l.37-1.35a.17.17 0 0 0 0 .1.76.76 0 0 0 .12.34A4.42 4.42 0 0 0 36 68.76a1.13 1.13 0 0 0 .32 0h.15l-1.27.66a.52.52 0 0 1-.4 0 3 3 0 0 1-.73-.43 2.49 2.49 0 0 1-.57-.62.7.7 0 0 1-.08-.14 1.54 1.54 0 0 0 0-.15.37.37 0 0 1-.06-.08z" class="D"/><path d="M36.4 88.35v1.25l-13.03-7.41v-1.25l13.03 7.41z" fill="#224089"/><path d="M35.22,93.41v.73a.49.49,0,0,1-.14.32.86.86,0,0,1-.4.24,1.57,1.57,0,0,1-1.55-.23.42.42,0,0,1-.15-.31v-.49a3.86,3.86,0,0,0,2.22-.25Z" class="D"/><path d="M32.72 90.42h0z" fill="#dae8bd"/><g class="E"><path d="M32.54 90.62h0zm.03 2.86l-.1-.09zm-.07-2.81h0zm-.02.02v.08zm-.05.08h0zm-.02.03v.08.05a.49.49 0 0 1 0-.13zm.03 2.56v-.07z"/><path d="M32.4 90.82v.06z"/></g><path d="M32.35 90.93h0a.12.12 0 0 1 0 0zm-.02.07h0z" fill="#dae8bd"/><path d="M32.3 91.08a.11.11 0 0 0 0 0 .11.11 0 0 1 0 0z" class="E"/><path d="M61.16 73.83v1.25L36.4 89.6v-1.25l24.76-14.52z" fill="#1e2e72"/><path d="M23.35 80.94h.06v1.25h-.06z"/><path d="M76.79 95.8a14 14 0 0 1-.31 3.2 14.72 14.72 0 0 1-2.37 5.43 11.07 11.07 0 0 1-5.41 4.18 11.18 11.18 0 0 1-2 .47c-.76.09-2.84-.08-2.17.08a30.43 30.43 0 0 1-5.44-1.92 10.78 10.78 0 0 1-3.32-3.49 14.2 14.2 0 0 1-2.41-8.27c0-.48.32-1.77.4-2.55.48-4.48 5.24-5.93 6.74-6.49 4.3-1.58 10.23-1.24 13.5 2.14.13.14.26.28.38.43a7.27 7.27 0 0 1 .8 1.1 11 11 0 0 1 1.61 5.69z" class="N"/><path d="M63.12 86.67a13.12 13.12 0 0 1 .66 2.74 2.35 2.35 0 0 0 .6 1.6s-.15.46-.92.51-1-.3-1-.3.86-.14.73-1.41a8.91 8.91 0 0 0-2-5l.51-.66a7.91 7.91 0 0 1 1.42 2.52z" class="D"/><path d="M57.43 91.34s-.51-.74-1.36 1.72c-1.47 4.28.39 9.55 2.65 10.78s3.74 0 2.65-6c-.32-1.76.57-4.13-.9-4.32s-3.04-2.18-3.04-2.18z" fill="#fbc2c2"/><path d="M76.79 95.8a14 14 0 0 1-.31 3.2 14.72 14.72 0 0 1-2.37 5.43 11.07 11.07 0 0 1-5.41 4.18 11.18 11.18 0 0 1-2 .47 12.36 12.36 0 0 1-2.17.08c4.36-.81 10.25-6 10.89-13.59.37-4.41-.84-5.84-1.45-7 .13.14.26.28.38.43a7.27 7.27 0 0 1 .8 1.1 11 11 0 0 1 1.64 5.7z" class="K"/><defs ><path id="B" d="M93.76 37.82a1.72 1.72 0 0 1 .11.49v.35c0 .46.38 2.68-.67 3.52a1.29 1.29 0 0 1-.6.28c-1.77.39-6.2-1.23-6.31-2.6-.07-1 1.55-2.35 2.42-3l.51-.37c-.12.07-.81.44-1.65.8a6.38 6.38 0 0 1-3.1.68c-1.5-.33-3.39-2.71-4.35-2.89a3.54 3.54 0 0 1-2.49-2.34c-.09-.64.68-.7 2.1-.61l3 .24c2.91.19 7.47 2 8.41 2.4l.18.07z"/><path id="C" d="M99.11 28.13c-.33.65 1.4 3.08 1 4.13-.24.55-1.46 1.05-2.56 1.39l-1.87.51.71-.09c1.25-.14 3.76-.31 4.9.31 1.56.83 1 4.3-.49 5.1a1.79 1.79 0 0 1-.67.18c-1.58.13-4-1.36-4.54-1.61l-.4-.2a3.87 3.87 0 0 1-.53-.34l-2.12-3.09v-.14c.08-.76.5-4.42 1.93-6.19l1.42-1.86c.69-.86 1.2-1.27 1.91-.86 1.07.63 1.65 2.11 1.31 2.76z"/><path id="D" d="M93.85 37.79a2.45 2.45 0 0 1 .19.71 1.54 1.54 0 0 1-.17-.19v.35c0 .46.38 2.68-.67 3.52-1.59.06-5.14-1.63-5.38-2.88s1.9-2.92 2-3a11.61 11.61 0 0 1-1.16.61 11.73 11.73 0 0 1-1.14.43 3 3 0 0 1-1.51.1c-1.3-.41-3.18-2.79-4-3a4.24 4.24 0 0 1-2.33-2.24l3 .24c2.91.19 7.47 2 8.41 2.4a.49.49 0 0 0 0-.12l.29.15z"/><path id="E" d="M20.21 94.07c-.05.06.29.3.29.3.19.14.29.19.34.17a8 8 0 0 1 .88-1.36A.58.58 0 0 0 22 93a5.08 5.08 0 0 0-.52-.38l-.38-.23a.6.6 0 0 0 0 .31 7.45 7.45 0 0 1-.89 1.37z"/><path id="F" d="M21.49 92.81c.32.23.52.28.5.18s-.75-.66-.9-.58.4.4.4.4z"/></defs></svg>