<svg xmlns="http://www.w3.org/2000/svg" viewBox="0 0 86.17 118.65">
    <defs/>
    <g id="Layer_2" data-name="Layer 2">
        <g id="Layer_1-2" data-name="Layer 1">
            <g id="Axo_Projection" data-name="Axo Projection">
                <path d="M34.4,84.1c.49-.29.49-1.2,0-2s-1.29-1.31-1.78-1l2.61-.45a.75.75,0,0,1,.88.45.88.88,0,0,1,0,1Z" style="fill:#b8c8f4"/>
                <path d="M34.4,84.1c-.49.28-1.29-.18-1.78-1s-.49-1.76,0-2,1.29.18,1.78,1S34.89,83.81,34.4,84.1Z" style="fill:#1c6df6"/>
            </g>
            <path d="M29.27,82.05a.39.39,0,0,1-.36-.23.4.4,0,0,1,.18-.54,5.43,5.43,0,0,0,2.76-4.48,1.83,1.83,0,0,0-.7-1.64,1.75,1.75,0,0,0-1.7.07.39.39,0,0,1-.54-.19.4.4,0,0,1,.18-.54,2.51,2.51,0,0,1,2.49,0,2.59,2.59,0,0,1,1.09,2.33A6.22,6.22,0,0,1,29.45,82,.39.39,0,0,1,29.27,82.05Z" style="fill:#121e51"/>
            <g id="Axo_Projection-2" data-name="Axo Projection">
                <path d="M16.55,93.63c0,3.23,4.54,5.85,10.13,5.85s10.13-2.62,10.13-5.85v.68c0,3.23-4.53,5.85-10.13,5.85s-10.13-2.62-10.13-5.85Z" style="fill:#1c6df6"/>
                <ellipse cx="26.68" cy="93.63" rx="10.13" ry="5.85" style="fill:#99c1fd"/>
                <g id="Axo_cap" data-name="Axo cap">
                    <path d="M17.53,90.52c0,2.92,4.09,5.29,9.15,5.29s9.16-2.37,9.16-5.29v3.11c0,2.92-4.1,5.29-9.16,5.29s-9.15-2.37-9.15-5.29Z" style="fill:#69a4fc"/>
                    <g id="Axo_cap-2" data-name="Axo cap">
                        <path d="M17.53,90.52c0-2.92,4.09-5.28,9.15-5.28s9.16,2.36,9.16,5.28-4.1,5.29-9.16,5.29S17.53,93.44,17.53,90.52Z" style="fill:#88beff"/>
                        <g id="Axo_Projection-3" data-name="Axo Projection">
                            <path d="M32.44,85.23c.49-.29.49-1.2,0-2s-1.28-1.31-1.77-1l1.89-.61c.49-.28,1.1.17,1.42.75s.36,1.38-.13,1.67Z" style="fill:#b8c8f4"/>
                            <path d="M32.44,85.23c-.49.28-1.28-.18-1.77-1s-.49-1.76,0-2,1.28.18,1.77,1S32.93,84.94,32.44,85.23Z" style="fill:#1c6df6"/>
                        </g>
                        <g id="Axo_Projection-4" data-name="Axo Projection">
                            <path d="M30.63,86.36c.49-.28.49-1.2,0-2s-1.28-1.31-1.77-1l1.89-.61c.49-.29,1.11.17,1.42.75s.36,1.38-.13,1.67Z" style="fill:#b8c8f4"/>
                            <path d="M30.63,86.36c-.49.29-1.28-.17-1.77-1s-.49-1.76,0-2,1.28.18,1.77,1S31.12,86.08,30.63,86.36Z" style="fill:#1c6df6"/>
                        </g>
                        <g id="Axo_Projection-5" data-name="Axo Projection">
                            <path d="M28.62,87.53c.49-.29.49-1.2,0-2s-1.29-1.31-1.78-1l1.89-.62c.49-.28,1.11.17,1.43.75S30.51,86,30,86.26Z" style="fill:#121e51"/>
                            <path d="M28.62,87.53c-.49.28-1.29-.18-1.78-1s-.49-1.76,0-2,1.29.17,1.78,1S29.11,87.24,28.62,87.53Z" style="fill:#006272"/>
                        </g>
                    </g>
                    <g id="Axo_cap-3" data-name="Axo cap">
                        <path d="M24.33,83.51c0,.75,1.05,1.36,2.35,1.36S29,84.26,29,83.51V89.2c0,.75-1.05,1.36-2.35,1.36S24.33,90,24.33,89.2Z" style="fill:#1c6df6"/>
                        <g id="Axo_cap-4" data-name="Axo cap">
                            <path d="M24.33,81.67c0,.75,1.05,1.36,2.35,1.36S29,82.42,29,81.67v1.84c0,.75-1.05,1.36-2.35,1.36s-2.35-.61-2.35-1.36Z" style="fill:#3c94a3"/>
                            <path d="M24.33,81.67c0-.75,1.05-1.35,2.35-1.35s2.35.6,2.35,1.35S28,83,26.68,83,24.33,82.42,24.33,81.67Z" style="fill:#2b6c81"/>
                        </g>
                        <g id="Axo_cap-5" data-name="Axo cap">
                            <path d="M25.24,80.19c0,.46.65.83,1.44.83s1.44-.37,1.44-.83v1.13c0,.45-.64.83-1.44.83s-1.44-.38-1.44-.83Z" style="fill:#3c94a3"/>
                            <path d="M25.24,80.19c0-.46.65-.83,1.44-.83s1.44.37,1.44.83-.64.83-1.44.83S25.24,80.65,25.24,80.19Z" style="fill:#2b6c81"/>
                        </g>
                        <g id="Axo_cap-6" data-name="Axo cap">
                            <path d="M23.72,81.43c0,.95,1.32,1.71,3,1.71s3-.76,3-1.71v2.32c0,1-1.32,1.71-3,1.71s-3-.76-3-1.71Z" style="fill:#69a4fc"/>
                            <path d="M23.72,81.43c0-.94,1.32-1.71,3-1.71s3,.77,3,1.71-1.32,1.71-3,1.71S23.72,82.38,23.72,81.43Z" style="fill:#88beff"/>
                        </g>
                        <g id="Axo_cap-7" data-name="Axo cap">
                            <path d="M25.24,80.19c0,.46.65.83,1.44.83s1.44-.37,1.44-.83v1.13c0,.45-.64.83-1.44.83s-1.44-.38-1.44-.83Z" style="fill:#1c6df6"/>
                            <path d="M25.24,80.19c0-.46.65-.83,1.44-.83s1.44.37,1.44.83-.64.83-1.44.83S25.24,80.65,25.24,80.19Z" style="fill:#2b6c81"/>
                        </g>
                        <g id="Axo_cap-8" data-name="Axo cap">
                            <path d="M24.33,78.48c0,.75,1.05,1.35,2.35,1.35S29,79.23,29,78.48v1.84c0,.75-1.05,1.35-2.35,1.35s-2.35-.6-2.35-1.35Z" style="fill:#69a4fc"/>
                            <path d="M24.33,78.48c0-.75,1.05-1.36,2.35-1.36S29,77.73,29,78.48,28,79.83,26.68,79.83,24.33,79.23,24.33,78.48Z" style="fill:#1c6df6"/>
                        </g>
                        <g id="Axo_cap-9" data-name="Axo cap">
                            <path d="M25.24,77c0,.46.65.83,1.44.83s1.44-.37,1.44-.83v1.13c0,.46-.64.83-1.44.83s-1.44-.37-1.44-.83Z" style="fill:#3c94a3"/>
                            <path d="M25.24,77c0-.46.65-.83,1.44-.83s1.44.37,1.44.83-.64.83-1.44.83S25.24,77.45,25.24,77Z" style="fill:#2b6c81"/>
                            <g id="Axo_cap-10" data-name="Axo cap">
                                <path d="M23.21,75c0,1.11,1.55,2,3.47,2s3.48-.9,3.48-2v2c0,1.11-1.56,2-3.48,2s-3.47-.9-3.47-2Z" style="fill:#69a4fc"/>
                                <path d="M23.21,75c0-1.11,1.55-2,3.47-2s3.48.89,3.48,2-1.56,2-3.48,2S23.21,76.11,23.21,75Z" style="fill:#88beff"/>
                            </g>
                        </g>
                    </g>
                </g>
            </g>
            <g id="Axo_cap-11" data-name="Axo cap">
                <path d="M28.27,75.62a3.2,3.2,0,0,1-1.59.38c-1.24,0-2.25-.58-2.25-1.29v-2c0,.72,1,1.3,2.25,1.3a3.3,3.3,0,0,0,1.59-.38,1.13,1.13,0,0,0,.66-.92v2A1.1,1.1,0,0,1,28.27,75.62Z" style="fill:#1c6df6"/>
                <path d="M28.27,73.62a3.3,3.3,0,0,1-1.59.38c-1.24,0-2.25-.58-2.25-1.3a1.13,1.13,0,0,1,.66-.92,3.3,3.3,0,0,1,1.59-.38c1.24,0,2.25.58,2.25,1.3A1.13,1.13,0,0,1,28.27,73.62Z" style="fill:#2b6c81"/>
            </g>
            <g id="Axo_Projection-6" data-name="Axo Projection">
                <path d="M23.74,66.11c0,.94,1.31,1.7,2.94,1.7s2.95-.76,2.95-1.7V72.7c0,.94-1.32,1.7-2.95,1.7s-2.94-.76-2.94-1.7Z" style="fill:#69a4fc"/>
                <path d="M23.74,66.11c0-.94,1.31-1.7,2.94-1.7s2.95.76,2.95,1.7-1.32,1.7-2.95,1.7S23.74,67.05,23.74,66.11Z" style="fill:#88beff"/>
                <path d="M26.68,67.3c-1.11,0-2-.53-2-1.19s.91-1.2,2-1.2,2,.54,2,1.2S27.8,67.3,26.68,67.3Zm0-2.25c-1,0-1.88.47-1.88,1.06s.84,1.06,1.88,1.06,1.89-.48,1.89-1.06S27.72,65.05,26.68,65.05Z" style="fill:#1c6df6"/>
            </g>
            <path d="M22.91,84.89a2.11,2.11,0,0,1-1.13-.31,2.61,2.61,0,0,1-1.09-2.33A6.24,6.24,0,0,1,23.91,77a.41.41,0,1,1,.36.74,5.43,5.43,0,0,0-2.76,4.48,1.85,1.85,0,0,0,.7,1.64,1.76,1.76,0,0,0,1.7-.08.41.41,0,1,1,.36.74A3.1,3.1,0,0,1,22.91,84.89Z" style="fill:#121e51"/>
            <g id="Axo_Projection-7" data-name="Axo Projection">
                <path d="M24.78,89.36c.45-.26.45-1.11,0-1.89s-1.18-1.21-1.63-1l1.08-.62c.45-.26,1.18.16,1.63.94s.45,1.63,0,1.89Z" style="fill:#121e51"/>
                <path d="M24.78,89.36c-.45.26-1.18-.17-1.63-1s-.46-1.63,0-1.89,1.18.17,1.63,1S25.23,89.1,24.78,89.36Z" style="fill:#202a5f"/>
            </g>
            <g id="Axo_Projection-8" data-name="Axo Projection">
                <path d="M23.41,89.08c.2-.11.2-.48,0-.82s-.51-.53-.71-.41l.79-.46c.2-.12.52.07.72.41s.19.71,0,.83Z" style="fill:#121e51"/>
                <path d="M23.41,89.08c-.19.12-.51-.07-.71-.41s-.2-.71,0-.82.52.07.71.41S23.61,89,23.41,89.08Z" style="fill:#b8c8f4"/>
            </g>
            <g id="Axo_Projection-9" data-name="Axo Projection">
                <path d="M22.73,89.83c.28-.16.28-.69,0-1.18s-.74-.75-1-.59l.48-.27c.28-.16.74.1,1,.59s.28,1,0,1.17Z" style="fill:#69a4fc"/>
                <path d="M22.73,89.83c-.28.16-.74-.1-1-.59s-.28-1,0-1.18.74.1,1,.59S23,89.67,22.73,89.83Z" style="fill:#00abac"/>
            </g>
            <g id="Axo_Projection-10" data-name="Axo Projection">
                <path d="M21.91,92.63c.84-.48.84-2,0-3.51s-2.2-2.23-3-1.75l.94-.54c.84-.48,2.2.3,3,1.76s.84,3,0,3.51Z" style="fill:#99c1fd"/>
                <path d="M21.91,92.63c-.84.49-2.2-.3-3-1.75s-.84-3,0-3.51,2.2.3,3,1.75S22.75,92.15,21.91,92.63Z" style="fill:#69a4fc"/>
            </g>
            <path d="M26.68,66.11s-3.27-.4-1.95-4.11a22,22,0,0,1,1.95-3.75,11.79,11.79,0,0,1,1.95,4.36C28.88,64.6,28.63,65.59,26.68,66.11Z" style="fill:#feb30f"/>
            <path d="M26.65,66.05a1.89,1.89,0,0,1-1.13-2.46,11,11,0,0,1,.93-2.35,4.94,4.94,0,0,1,1.25,2.41C27.77,64.77,27.64,65.85,26.65,66.05Z" style="fill:#fbc22c;opacity:0.67"/>
            <path d="M26.72,65.85a.87.87,0,0,1-.52-1.13,5.48,5.48,0,0,1,.43-1.08,2.39,2.39,0,0,1,.58,1.1C27.24,65.26,27.18,65.76,26.72,65.85Z" style="opacity:0.67;fill:#f2dbd1"/>
            <g id="Axo_Projection-11" data-name="Axo Projection">
                <g id="Axo_Surface_" data-name="Axo Surface*">
                    <polygon id="Axo_panel" data-name="Axo panel" points="46.45 47.8 39.31 51.92 39.31 68.66 46.45 64.54 46.45 47.8" style="fill:#99c1fd"/>
                    <polygon id="Axo_panel-2" data-name="Axo panel" points="39.31 51.92 38.41 51.4 38.41 68.14 39.31 68.66 39.31 51.92" style="fill:#5195fb"/>
                </g>
                <polygon id="Axo_base" data-name="Axo base" points="46.45 47.8 45.55 47.28 38.41 51.4 39.31 51.92 46.45 47.8" style="fill:#c9defe"/>
            </g>
            <g id="Axo_Compound_Projection" data-name="Axo Compound Projection">
                <g id="Axo_Compound_Extrusion" data-name="Axo Compound Extrusion">
                    <g id="Axo_Extrusion" data-name="Axo Extrusion">
                        <path id="Axo_panel-3" data-name="Axo panel" d="M43.66,66a1.13,1.13,0,0,1,.68-1,3.62,3.62,0,0,1,3.3,0,1.15,1.15,0,0,1,.69,1v.66a1.17,1.17,0,0,0-.69-1,3.69,3.69,0,0,0-3.3,0,1.16,1.16,0,0,0-.68,1Z" style="fill:#5195fb"/>
                        <polygon id="Axo_panel-4" data-name="Axo panel" points="45.97 68.93 40.89 66 40.89 66.66 45.97 69.59 45.97 68.93" style="fill:#7788bd"/>
                    </g>
                    <path id="Axo_Compound" data-name="Axo Compound" d="M46,68.93l5.14-3L46,63l-5.14,3Zm-1.63-2a1,1,0,0,1,0-1.9,3.62,3.62,0,0,1,3.3,0,1,1,0,0,1,0,1.9A3.62,3.62,0,0,1,44.34,66.93Z" style="fill:#c9defe"/>
                </g>
                <g id="Axo_Compound_Extrusion-2" data-name="Axo Compound Extrusion">
                    <g id="Axo_Extrusion-2" data-name="Axo Extrusion">
                        <path id="Axo_panel-5" data-name="Axo panel" d="M48.71,68.9a1.17,1.17,0,0,1,.69-1,3.69,3.69,0,0,1,3.3,0,1.18,1.18,0,0,1,.68,1v.66a1.18,1.18,0,0,0-.68-1,3.69,3.69,0,0,0-3.3,0,1.17,1.17,0,0,0-.69,1Z" style="fill:#5195fb"/>
                        <polygon id="Axo_panel-6" data-name="Axo panel" points="51.06 71.87 45.97 68.93 45.97 69.59 51.06 72.53 51.06 71.87" style="fill:#7788bd"/>
                    </g>
                    <path id="Axo_Compound-2" data-name="Axo Compound" d="M51.06,71.87l5.14-3L51.11,66l-5.14,3Zm-1.66-2a1,1,0,0,1,0-1.91,3.69,3.69,0,0,1,3.3,0,1,1,0,0,1,0,1.91A3.62,3.62,0,0,1,49.4,69.85Z" style="fill:#c9defe"/>
                </g>
                <g id="Axo_Compound_Extrusion-3" data-name="Axo Compound Extrusion">
                    <g id="Axo_Extrusion-3" data-name="Axo Extrusion">
                        <path id="Axo_panel-7" data-name="Axo panel" d="M53.77,71.82a1.18,1.18,0,0,1,.68-1,3.71,3.71,0,0,1,3.31,0,1.18,1.18,0,0,1,.68,1v.65a1.17,1.17,0,0,0-.68-1,3.71,3.71,0,0,0-3.31,0,1.17,1.17,0,0,0-.68,1Z" style="fill:#5195fb"/>
                        <polygon id="Axo_panel-8" data-name="Axo panel" points="56.14 74.81 51.06 71.87 51.06 72.53 56.14 75.47 56.14 74.81" style="fill:#7788bd"/>
                    </g>
                    <path id="Axo_Compound-3" data-name="Axo Compound" d="M51.06,71.87l5.08,2.94,5.14-3L56.2,68.9Zm3.39.9a1,1,0,0,1,0-1.91,3.71,3.71,0,0,1,3.31,0,1,1,0,0,1,0,1.91A3.64,3.64,0,0,1,54.45,72.77Z" style="fill:#c9defe"/>
                </g>
                <g id="Axo_Compound_Extrusion-4" data-name="Axo Compound Extrusion">
                    <g id="Axo_Extrusion-4" data-name="Axo Extrusion">
                        <path id="Axo_panel-9" data-name="Axo panel" d="M58.82,74.74a1.17,1.17,0,0,1,.69-1,3.69,3.69,0,0,1,3.3,0,1.17,1.17,0,0,1,.69,1v.65a1.16,1.16,0,0,0-.69-1,3.62,3.62,0,0,0-3.3,0,1.16,1.16,0,0,0-.69,1Z" style="fill:#5195fb"/>
                        <polygon id="Axo_panel-10" data-name="Axo panel" points="61.23 77.75 56.14 74.81 56.14 75.47 61.23 78.4 61.23 77.75" style="fill:#7788bd"/>
                    </g>
                    <path id="Axo_Compound-4" data-name="Axo Compound" d="M61.28,71.84l-5.14,3,5.09,2.93,5.14-3Zm1.53,1.94a1,1,0,0,1,0,1.91,3.62,3.62,0,0,1-3.3,0,1,1,0,0,1,0-1.91A3.69,3.69,0,0,1,62.81,73.78Z" style="fill:#c9defe"/>
                </g>
                <g id="Axo_Compound_Extrusion-5" data-name="Axo Compound Extrusion">
                    <g id="Axo_Extrusion-5" data-name="Axo Extrusion">
                        <path id="Axo_panel-11" data-name="Axo panel" d="M63.88,77.66a1.17,1.17,0,0,1,.69-1,3.69,3.69,0,0,1,3.3,0,1.18,1.18,0,0,1,.68,1v.65a1.17,1.17,0,0,0-.68-1,3.62,3.62,0,0,0-3.3,0,1.16,1.16,0,0,0-.69,1Z" style="fill:#5195fb"/>
                        <g id="Axo_Surface_2" data-name="Axo Surface*">
                            <polygon id="Axo_panel-12" data-name="Axo panel" points="71.6 77.8 66.46 80.76 66.46 81.42 71.6 78.45 71.6 77.8" style="fill:#c9defe"/>
                            <polygon id="Axo_panel-13" data-name="Axo panel" points="66.46 80.76 61.23 77.75 61.23 78.4 66.46 81.42 66.46 80.76" style="fill:#7788bd"/>
                        </g>
                    </g>
                    <path id="Axo_Compound-5" data-name="Axo Compound" d="M66.37,74.78l-5.14,3,5.23,3,5.14-3Zm1.5,1.92a1,1,0,0,1,0,1.91,3.62,3.62,0,0,1-3.3,0,1,1,0,0,1,0-1.91A3.69,3.69,0,0,1,67.87,76.7Z" style="fill:#c9defe"/>
                </g>
            </g>
            <g id="Axo_Compound_Extrusion-6" data-name="Axo Compound Extrusion">
                <path id="Axo_panel-14" data-name="Axo panel" d="M42.92,58a1.17,1.17,0,0,1,.69-1,3.69,3.69,0,0,1,3.3,0,1.16,1.16,0,0,1,.68,1v.65a1.14,1.14,0,0,0-.68-1,3.62,3.62,0,0,0-3.3,0,1.16,1.16,0,0,0-.69,1Z" style="fill:#5195fb"/>
                <path d="M46.91,57a3.69,3.69,0,0,0-3.3,0c-.63.37-.83.89-.59,1.35l-2.75-.3,5.14-3,5.23,3-3.19.32C47.75,58,47.57,57.41,46.91,57Z" style="fill:#c9defe"/>
                <path d="M43.23,65.28c0,1.07.86,1.64,1.93,1.64s1.93-.57,1.93-1.64a1.93,1.93,0,0,0-3.86,0Z" style="fill:#81b2fc"/>
                <g id="Axo_Projection-12" data-name="Axo Projection">
                    <g id="Axo_Surface_3" data-name="Axo Surface*">
                        <path d="M43.23,52.49V65.2c0,.62.86,1.12,1.93,1.12s1.8-.43,1.92-1a.66.66,0,0,0,0-.14V52.49c0,.61-.86,1.11-1.93,1.11S43.23,53.1,43.23,52.49Z" style="fill:#b1d0fe"/>
                        <path d="M43.23,52.49V65.2c0,.62.86,1.12,1.93,1.12s1.8-.43,1.92-1l-.24.18c-.6.41-1.49,0-2.05-1.89s-.56-9.17-.56-9.17l1.69-.41a2,2,0,0,0,1.17-.71v-.85c0,.61-.86,1.11-1.93,1.11S43.23,53.1,43.23,52.49Z" style="fill:#81b2fc"/>
                    </g>
                    <path d="M47.09,52.49c0-.62-.86-1.12-1.93-1.12s-1.93.5-1.93,1.12.86,1.11,1.93,1.11S47.09,53.1,47.09,52.49Z" style="fill:#81b2fc"/>
                    <path d="M42.91,52.49c0-.81,1-1.44,2.25-1.44s2.25.63,2.25,1.44-1,1.44-2.25,1.44S42.91,53.29,42.91,52.49Zm.64,0c0,.37.69.79,1.61.79s1.61-.42,1.61-.79-.69-.79-1.61-.79S43.55,52.11,43.55,52.49Z" style="fill:#e1edff"/>
                </g>
                <path d="M46.61,54.36v5.18s0,1.77-.29,1.56-.22-1.75-.22-1.75V54.6A.62.62,0,0,0,46.61,54.36Z" style="fill:#fff"/>
                <g id="Axo_Surface_4" data-name="Axo Surface*">
                    <polygon id="Axo_panel-15" data-name="Axo panel" points="50.64 58.12 45.5 61.09 45.5 61.74 50.64 58.78 50.64 58.12" style="fill:#c9defe"/>
                    <polygon id="Axo_panel-16" data-name="Axo panel" points="45.5 61.09 40.27 58.06 40.27 58.72 45.5 61.74 45.5 61.09" style="fill:#7788bd"/>
                </g>
                <path d="M43,58.37a1.53,1.53,0,0,0,.59.56,3.62,3.62,0,0,0,3.3,0,1.45,1.45,0,0,0,.54-.49l3.19-.32-5.14,3-5.23-3Z" style="fill:#c9defe"/>
            </g>
            <g id="Axo_Compound_Extrusion-7" data-name="Axo Compound Extrusion">
                <path id="Axo_panel-17" data-name="Axo panel" d="M48.16,61a1.16,1.16,0,0,1,.69-1,3.62,3.62,0,0,1,3.3,0,1.14,1.14,0,0,1,.68,1v.66a1.13,1.13,0,0,0-.68-.95,3.62,3.62,0,0,0-3.3,0,1.15,1.15,0,0,0-.69.95Z" style="fill:#5195fb"/>
                <path d="M52.15,60.05a3.62,3.62,0,0,0-3.3,0c-.63.36-.83.88-.59,1.34l-2.75-.3,5.14-3,5.23,3-3.19.32C53,61,52.81,60.43,52.15,60.05Z" style="fill:#c9defe"/>
                <path d="M48.47,68.31a2,2,0,0,0,3.86,0,1.93,1.93,0,1,0-3.86,0Z" style="fill:#81b2fc"/>
                <g id="Axo_Projection-13" data-name="Axo Projection">
                    <g id="Axo_Surface_5" data-name="Axo Surface*">
                        <path d="M48.47,55.51V68.23c0,.61.86,1.11,1.93,1.11s1.8-.43,1.92-1a.57.57,0,0,0,0-.13V55.51c0,.62-.86,1.12-1.93,1.12S48.47,56.13,48.47,55.51Z" style="fill:#b1d0fe"/>
                        <path d="M48.47,55.51V68.23c0,.61.86,1.11,1.93,1.11s1.8-.43,1.92-1a1.55,1.55,0,0,1-.24.19c-.6.4-1.49,0-2-1.89s-.56-9.18-.56-9.18l1.69-.4a2.1,2.1,0,0,0,1.17-.71v-.86c0,.62-.86,1.12-1.93,1.12S48.47,56.13,48.47,55.51Z" style="fill:#81b2fc"/>
                    </g>
                    <path d="M52.33,55.51c0-.61-.86-1.11-1.93-1.11s-1.93.5-1.93,1.11.86,1.12,1.93,1.12S52.33,56.13,52.33,55.51Z" style="fill:#81b2fc"/>
                    <path d="M48.15,55.51c0-.8,1-1.43,2.25-1.43s2.25.63,2.25,1.43S51.66,57,50.4,57,48.15,56.32,48.15,55.51Zm.64,0c0,.38.69.8,1.61.8s1.61-.42,1.61-.8-.69-.79-1.61-.79S48.79,55.14,48.79,55.51Z" style="fill:#e1edff"/>
                </g>
                <path d="M51.85,57.39v5.18s0,1.77-.29,1.55-.22-1.74-.22-1.74V57.63A.62.62,0,0,0,51.85,57.39Z" style="fill:#fff"/>
                <g id="Axo_Surface_6" data-name="Axo Surface*">
                    <polygon id="Axo_panel-18" data-name="Axo panel" points="55.88 61.14 50.74 64.11 50.74 64.77 55.88 61.8 55.88 61.14" style="fill:#c9defe"/>
                    <polygon id="Axo_panel-19" data-name="Axo panel" points="50.74 64.11 45.51 61.09 45.51 61.75 50.74 64.77 50.74 64.11" style="fill:#7788bd"/>
                </g>
                <path d="M48.26,61.39a1.48,1.48,0,0,0,.59.57,3.69,3.69,0,0,0,3.3,0,1.55,1.55,0,0,0,.54-.5l3.19-.32-5.14,3-5.23-3Z" style="fill:#c9defe"/>
            </g>
            <g id="Axo_Compound_Extrusion-8" data-name="Axo Compound Extrusion">
                <path id="Axo_panel-20" data-name="Axo panel" d="M53.4,64a1.17,1.17,0,0,1,.69-1,3.69,3.69,0,0,1,3.3,0,1.16,1.16,0,0,1,.68,1v.65a1.14,1.14,0,0,0-.68-1,3.62,3.62,0,0,0-3.3,0,1.16,1.16,0,0,0-.69,1Z" style="fill:#5195fb"/>
                <path d="M57.39,63.07a3.69,3.69,0,0,0-3.3,0c-.63.37-.83.89-.59,1.35l-2.75-.3,5.14-3,5.23,3-3.19.32C58.23,64,58.05,63.46,57.39,63.07Z" style="fill:#c9defe"/>
                <path d="M53.71,71.33c0,1.07.86,1.64,1.93,1.64s1.93-.57,1.93-1.64a1.93,1.93,0,0,0-3.86,0Z" style="fill:#81b2fc"/>
                <g id="Axo_Projection-14" data-name="Axo Projection">
                    <g id="Axo_Surface_7" data-name="Axo Surface*">
                        <path d="M53.71,58.54V71.25c0,.62.86,1.12,1.93,1.12s1.8-.43,1.92-1a.66.66,0,0,0,0-.14V58.54c0,.61-.86,1.11-1.93,1.11S53.71,59.15,53.71,58.54Z" style="fill:#b1d0fe"/>
                        <path d="M53.71,58.54V71.25c0,.62.86,1.12,1.93,1.12s1.8-.43,1.92-1l-.24.18c-.6.41-1.49,0-2-1.89s-.56-9.17-.56-9.17l1.69-.41a2,2,0,0,0,1.17-.71v-.85c0,.61-.86,1.11-1.93,1.11S53.71,59.15,53.71,58.54Z" style="fill:#81b2fc"/>
                    </g>
                    <path d="M57.57,58.54c0-.62-.86-1.12-1.93-1.12s-1.93.5-1.93,1.12.86,1.11,1.93,1.11S57.57,59.15,57.57,58.54Z" style="fill:#81b2fc"/>
                    <path d="M53.39,58.54c0-.81,1-1.44,2.25-1.44s2.25.63,2.25,1.44S56.9,60,55.64,60,53.39,59.34,53.39,58.54Zm.64,0c0,.37.69.79,1.61.79s1.61-.42,1.61-.79-.69-.79-1.61-.79S54,58.16,54,58.54Z" style="fill:#e1edff"/>
                </g>
                <path d="M57.09,60.41v5.18s0,1.77-.29,1.56-.22-1.75-.22-1.75V60.65A.62.62,0,0,0,57.09,60.41Z" style="fill:#fff"/>
                <g id="Axo_Surface_8" data-name="Axo Surface*">
                    <polygon id="Axo_panel-21" data-name="Axo panel" points="61.12 64.17 55.98 67.14 55.98 67.79 61.12 64.83 61.12 64.17" style="fill:#c9defe"/>
                    <polygon id="Axo_panel-22" data-name="Axo panel" points="55.98 67.14 50.75 64.11 50.75 64.77 55.98 67.79 55.98 67.14" style="fill:#7788bd"/>
                </g>
                <path d="M53.5,64.42a1.46,1.46,0,0,0,.59.56,3.62,3.62,0,0,0,3.3,0,1.45,1.45,0,0,0,.54-.49l3.19-.32-5.14,3-5.23-3Z" style="fill:#c9defe"/>
            </g>
            <g id="Axo_Compound_Extrusion-9" data-name="Axo Compound Extrusion">
                <path id="Axo_panel-23" data-name="Axo panel" d="M58.64,67.05a1.16,1.16,0,0,1,.69-1,3.62,3.62,0,0,1,3.3,0,1.17,1.17,0,0,1,.68,1v.66a1.15,1.15,0,0,0-.68-.95,3.62,3.62,0,0,0-3.3,0,1.15,1.15,0,0,0-.69.95Z" style="fill:#5195fb"/>
                <path d="M62.63,66.1a3.62,3.62,0,0,0-3.3,0c-.63.36-.83.88-.59,1.34L56,67.14l5.14-3,5.23,3-3.19.32C63.47,67,63.29,66.48,62.63,66.1Z" style="fill:#c9defe"/>
                <path d="M59,74.36a2,2,0,0,0,3.86,0,1.93,1.93,0,0,0-3.86,0Z" style="fill:#81b2fc"/>
                <g id="Axo_Projection-15" data-name="Axo Projection">
                    <g id="Axo_Surface_9" data-name="Axo Surface*">
                        <path d="M59,61.56V74.28c0,.61.86,1.11,1.93,1.11s1.8-.43,1.92-1a.57.57,0,0,0,0-.13V61.56c0,.62-.86,1.12-1.93,1.12S59,62.18,59,61.56Z" style="fill:#b1d0fe"/>
                        <path d="M59,61.56V74.28c0,.61.86,1.11,1.93,1.11s1.8-.43,1.92-1a1.55,1.55,0,0,1-.24.19c-.6.4-1.49,0-2.05-1.89S60,63.53,60,63.53l1.69-.4a2,2,0,0,0,1.17-.71v-.86c0,.62-.86,1.12-1.93,1.12S59,62.18,59,61.56Z" style="fill:#81b2fc"/>
                    </g>
                    <path d="M62.81,61.56c0-.61-.86-1.11-1.93-1.11S59,61,59,61.56s.86,1.12,1.93,1.12S62.81,62.18,62.81,61.56Z" style="fill:#81b2fc"/>
                    <path d="M58.63,61.56c0-.8,1-1.43,2.25-1.43s2.25.63,2.25,1.43S62.14,63,60.88,63,58.63,62.37,58.63,61.56Zm.64,0c0,.38.69.8,1.61.8s1.61-.42,1.61-.8-.69-.79-1.61-.79S59.27,61.19,59.27,61.56Z" style="fill:#e1edff"/>
                </g>
                <path d="M62.33,63.44v5.18s0,1.77-.29,1.55-.22-1.74-.22-1.74V63.68A.62.62,0,0,0,62.33,63.44Z" style="fill:#fff"/>
                <g id="Axo_Surface_10" data-name="Axo Surface*">
                    <polygon id="Axo_panel-24" data-name="Axo panel" points="66.36 67.19 61.22 70.16 61.22 70.82 66.36 67.85 66.36 67.19" style="fill:#c9defe"/>
                    <polygon id="Axo_panel-25" data-name="Axo panel" points="61.22 70.16 55.99 67.14 55.99 67.8 61.22 70.82 61.22 70.16" style="fill:#7788bd"/>
                </g>
                <path d="M58.74,67.44a1.48,1.48,0,0,0,.59.57,3.69,3.69,0,0,0,3.3,0,1.55,1.55,0,0,0,.54-.5l3.19-.32-5.14,3-5.23-3Z" style="fill:#c9defe"/>
            </g>
            <g id="Axo_Compound_Extrusion-10" data-name="Axo Compound Extrusion">
                <path id="Axo_panel-26" data-name="Axo panel" d="M63.88,70.08a1.17,1.17,0,0,1,.69-1,3.69,3.69,0,0,1,3.3,0,1.18,1.18,0,0,1,.68,1v.65a1.17,1.17,0,0,0-.68-1,3.62,3.62,0,0,0-3.3,0,1.16,1.16,0,0,0-.69,1Z" style="fill:#5195fb"/>
                <path d="M67.87,69.12a3.69,3.69,0,0,0-3.3,0c-.63.37-.83.89-.59,1.35l-2.75-.3,5.14-3,5.23,3-3.19.32C68.71,70.06,68.53,69.51,67.87,69.12Z" style="fill:#c9defe"/>
                <path d="M64.19,77.38c0,1.07.86,1.64,1.93,1.64s1.93-.57,1.93-1.64a1.93,1.93,0,0,0-3.86,0Z" style="fill:#81b2fc"/>
                <g id="Axo_Projection-16" data-name="Axo Projection">
                    <g id="Axo_Surface_11" data-name="Axo Surface*">
                        <path d="M64.19,64.59V77.3c0,.62.86,1.12,1.93,1.12s1.8-.43,1.92-1a.66.66,0,0,0,0-.14V64.59c0,.61-.86,1.11-1.93,1.11S64.19,65.2,64.19,64.59Z" style="fill:#b1d0fe"/>
                        <path d="M64.19,64.59V77.3c0,.62.86,1.12,1.93,1.12s1.8-.43,1.92-1l-.24.18c-.6.41-1.49,0-2-1.89s-.56-9.17-.56-9.17l1.69-.41a2,2,0,0,0,1.17-.71v-.85c0,.61-.86,1.11-1.93,1.11S64.19,65.2,64.19,64.59Z" style="fill:#81b2fc"/>
                    </g>
                    <path d="M68.05,64.59c0-.62-.86-1.12-1.93-1.12s-1.93.5-1.93,1.12.86,1.11,1.93,1.11S68.05,65.2,68.05,64.59Z" style="fill:#81b2fc"/>
                    <path d="M63.87,64.59c0-.81,1-1.44,2.25-1.44s2.25.63,2.25,1.44S67.38,66,66.12,66,63.87,65.39,63.87,64.59Zm.64,0c0,.37.69.79,1.61.79s1.61-.42,1.61-.79-.69-.79-1.61-.79S64.51,64.21,64.51,64.59Z" style="fill:#e1edff"/>
                </g>
                <path d="M67.57,66.46v5.18s0,1.77-.29,1.56-.22-1.75-.22-1.75V66.7A.62.62,0,0,0,67.57,66.46Z" style="fill:#fff"/>
                <g id="Axo_Surface_12" data-name="Axo Surface*">
                    <polygon id="Axo_panel-27" data-name="Axo panel" points="71.6 70.22 66.46 73.19 66.46 73.84 71.6 70.88 71.6 70.22" style="fill:#c9defe"/>
                    <polygon id="Axo_panel-28" data-name="Axo panel" points="66.46 73.19 61.23 70.17 61.23 70.82 66.46 73.84 66.46 73.19" style="fill:#7788bd"/>
                </g>
                <path d="M64,70.47a1.46,1.46,0,0,0,.59.56,3.62,3.62,0,0,0,3.3,0,1.45,1.45,0,0,0,.54-.49l3.19-.32-5.14,3-5.23-3Z" style="fill:#c9defe"/>
            </g>
            <g id="Axo_Projection-17" data-name="Axo Projection">
                <g id="Axo_Surface_13" data-name="Axo Surface*">
                    <polygon id="Axo_panel-29" data-name="Axo panel" points="72.85 63.04 65.71 67.16 65.71 83.91 72.85 79.79 72.85 63.04" style="fill:#99c1fd"/>
                    <polygon id="Axo_panel-30" data-name="Axo panel" points="65.71 67.16 64.81 66.64 64.81 83.39 65.71 83.91 65.71 67.16" style="fill:#5195fb"/>
                </g>
                <polygon id="Axo_base-2" data-name="Axo base" points="72.85 63.04 71.95 62.52 64.81 66.64 65.71 67.16 72.85 63.04" style="fill:#c9defe"/>
            </g>
            <path d="M26.43,41.75v0Z" style="fill:#1e55af"/>
            <path d="M34.87,48.4A8.45,8.45,0,1,1,26.43,40a8.32,8.32,0,0,1,3.53.77A8.45,8.45,0,0,1,34.87,48.4Z" style="fill:#99c1fd"/>
            <path d="M21,43.56a11.88,11.88,0,0,1,10.77,0A5,5,0,0,1,33.47,45a7.82,7.82,0,0,0-14.09,0A5.19,5.19,0,0,1,21,43.56Z" style="fill:#b6d4ff"/>
            <path d="M34,46.54c.06,1.17-.68,2.34-2.22,3.23a11.88,11.88,0,0,1-10.77,0c-1.54-.89-2.27-2.06-2.21-3.23a7.65,7.65,0,0,0-.24,1.86,7.84,7.84,0,0,0,15.67,0A7.64,7.64,0,0,0,34,46.54Z" style="fill:#fc7464"/>
            <path d="M18.83,46.54A7.82,7.82,0,0,1,19.38,45Z" style="fill:#195161"/>
            <path d="M21,49.77a11.88,11.88,0,0,0,10.77,0c1.54-.89,2.28-2.06,2.22-3.23A7.25,7.25,0,0,0,33.47,45a5,5,0,0,0-1.66-1.44,11.88,11.88,0,0,0-10.77,0A5.19,5.19,0,0,0,19.38,45a7.82,7.82,0,0,0-.55,1.54C18.77,47.71,19.5,48.88,21,49.77Z" style="fill:#f66"/>
            <path d="M22.31,44.61l1,.68a1.94,1.94,0,0,0,.81.33s-.22.81-.42,1.47a6.54,6.54,0,0,0-.26,1.07,6.25,6.25,0,0,1-2.13-.87c-.74-.68-.93-1.2-.8-1.14a5.71,5.71,0,0,1,1-1A4.9,4.9,0,0,1,22.31,44.61Z" style="fill:#fff"/>
            <path d="M28.59,29.81a1.61,1.61,0,0,1-.24.29l-.3.21-.33.15-.08,0c-.1,0-.2.07-.3.09l-.07,0-.38.07h-.08l-.33,0h-.29V43.34A3.46,3.46,0,0,0,28.05,43a1.15,1.15,0,0,0,.66-.83.37.37,0,0,0,0-.11V29.37A.9.9,0,0,1,28.59,29.81Z" style="fill:#b8c8f4"/>
            <path d="M25.68,30.62h-.05l-.26-.07-.19-.06-.22-.1-.16-.07a.71.71,0,0,1-.14-.1l-.08-.06-.11-.09-.12-.13-.07-.09a1,1,0,0,1-.07-.15.59.59,0,0,1,0-.08,1.55,1.55,0,0,1,0-.21V42s0,.08,0,.11a1.15,1.15,0,0,0,.52.74l.14.09a3.07,3.07,0,0,0,.88.32l.51.06V30.68A4.43,4.43,0,0,1,25.68,30.62Z" style="fill:#99c1fd"/>
            <path d="M26.43,28.36a3,3,0,0,1,1.46.35c.33.19.51.42.51.66a.85.85,0,0,1-.51.66,3,3,0,0,1-1.46.34h-.24v.32h.29l.33,0h.08l.38-.07.07,0c.1,0,.2-.06.3-.09l.08,0,.33-.15.3-.21a1.61,1.61,0,0,0,.24-.29.9.9,0,0,0,.13-.44,1.14,1.14,0,0,0-.67-.94,3.44,3.44,0,0,0-1.86-.37v.32Z" style="fill:#99c1fd"/>
            <path d="M24.13,29.4a1.55,1.55,0,0,0,0,.21.59.59,0,0,0,0,.08,1,1,0,0,0,.07.15l.07.09.12.13.11.09.22.16.16.07.22.1.19.06.26.07a3.43,3.43,0,0,0,.56.07v-.32A3.05,3.05,0,0,1,25,30a.68.68,0,0,1,0-1.32,2.9,2.9,0,0,1,1.23-.33v-.32a3.25,3.25,0,0,0-1.39.37,1.16,1.16,0,0,0-.67.94Z" style="fill:#99c1fd"/>
            <path d="M27.72,30.46l-.08,0Z" style="fill:#99c1fd"/>
            <path d="M26.89,30.67h0Z" style="fill:#99c1fd"/>
            <path d="M28.59,29.81a1.61,1.61,0,0,1-.24.29A1.61,1.61,0,0,0,28.59,29.81Z" style="fill:#99c1fd"/>
            <path d="M27.34,30.58l-.07,0Z" style="fill:#99c1fd"/>
            <path d="M25.63,30.61l-.26-.07Z" style="fill:#99c1fd"/>
            <path d="M24.58,30.15l-.11-.09Z" style="fill:#99c1fd"/>
            <path d="M24.35,29.93l-.07-.09Z" style="fill:#99c1fd"/>
            <path d="M24.21,29.69a.59.59,0,0,1,0-.08A.59.59,0,0,0,24.21,29.69Z" style="fill:#99c1fd"/>
            <path d="M26.48,30.69h0Z" style="fill:#99c1fd"/>
            <path d="M25.18,30.48l-.22-.1Z" style="fill:#99c1fd"/>
            <path d="M25,28.71A.68.68,0,0,0,25,30a3.05,3.05,0,0,0,1.23.33v-2A2.9,2.9,0,0,0,25,28.71Z" style="fill:#8aacea"/>
            <path d="M27.89,30a.85.85,0,0,0,.51-.66c0-.24-.18-.47-.51-.66a3,3,0,0,0-1.46-.35l-.24,0v2h.24A3,3,0,0,0,27.89,30Z" style="fill:#8aacea"/>
            <path d="M25.68,30.62V43.28A3.07,3.07,0,0,1,24.8,43l-.14-.09V30.21a.71.71,0,0,0,.14.1A3.06,3.06,0,0,0,25.68,30.62Z" style="fill:#fff"/>
            <path d="M29.5,28.83a1.66,1.66,0,0,1-.8,1.43,4.83,4.83,0,0,1-4.35,0,1.94,1.94,0,0,1-1-1.43,1.53,1.53,0,0,1,.9-1.26,4.81,4.81,0,0,1,4.34,0A1.53,1.53,0,0,1,29.5,28.83Z" style="fill:#88beff"/>
            <path d="M28.56,29.11a1.22,1.22,0,0,1-.49.46,3.66,3.66,0,0,1-3.29,0,1.29,1.29,0,0,1-.49-.46,1.36,1.36,0,0,1,.49-.45,3.66,3.66,0,0,1,3.29,0A1.28,1.28,0,0,1,28.56,29.11Z" style="fill:#99c1fd"/>
            <g id="Axo_Extrusion-6" data-name="Axo Extrusion">
                <path id="Axo_panel-31" data-name="Axo panel" d="M0,103.76c0,2.93,5.92,4.37,9.35,2.32a2.84,2.84,0,0,0,1.6-2.32v1.37c0,2.92-5.92,4.37-9.35,2.32A2.82,2.82,0,0,1,0,105.12Z" style="fill:#69a4fc"/>
                <path id="Axo_base-3" data-name="Axo base" d="M0,103.76c0-2.93,5.92-4.38,9.35-2.33,2.13,1.29,2.14,3.37,0,4.65C5.93,108.13,0,106.68,0,103.76Z" style="fill:#88beff"/>
            </g>
            <path d="M4.38,22.88c-1.47-1.29-1.47-5.22,0-4.75C5.86,19.43,5.86,23.35,4.38,22.88Z" style="fill:#195161"/>
            <path d="M22.13,34.43v4.68a2.35,2.35,0,0,0,1.22,1.51c2.43,1.46,6.72.59,7.08-1.51,0,0,0-4.68,0-4.68h-2a.88.88,0,0,1-.17.41c-1.07,1.32-4.08.83-4.23-.41Z" style="fill:#69a4fc"/>
            <path d="M27.37,35.46v5.81a5.49,5.49,0,0,0,1.87-.65V32.56H28.5c0,1.53,0,1.77,0,1.87C28.43,34.94,27.83,35.31,27.37,35.46Z" style="fill:#99c1fd"/>
            <path d="M22.13,34.43c0,1,1.05,1.68,1.95,2,1.9.71,4.66.42,5.9-1a1.72,1.72,0,0,0,0-2.34,3.74,3.74,0,0,0-1.48-.94c0,1.79,0,2.12,0,2.22-.15,1.23-3.16,1.72-4.23.41-.27-.35-.18-.62-.18-2.64a3.77,3.77,0,0,0-1.6,1.09A1.68,1.68,0,0,0,22.13,34.43Z" style="fill:#88beff"/>
            <path d="M8.06,50,23.35,40.4A4.33,4.33,0,0,0,24,36.09a.52.52,0,0,0-.66-.26s-15.29,9.6-15.29,9.6Z" style="fill:#1c6df6"/>
            <path d="M7.24,47.63,24.3,36.94a2.13,2.13,0,0,0-.29-.85L7.24,46.6Z" style="fill:#99c1fd"/>
            <path d="M8,50.13c1.47-1.3,1.47-5.22,0-4.75C6.54,46.67,6.54,50.6,8,50.13Z" style="fill:#195161"/>
            <path d="M7.67,16.37c0,2.16,0,2.84,0,2.94a.88.88,0,0,1-.17.41,2.87,2.87,0,0,1-2.6.74V17.59C6.09,17.79,7.64,17.28,7.67,16.37Z" style="fill:#1c6df6"/>
            <path d="M3.9,17.25v2.87a1.11,1.11,0,0,1-.65-.94V16.37A1.17,1.17,0,0,0,3.9,17.25Z" style="fill:#1c6df6"/>
            <path d="M3.25,16.37H7.67a.86.86,0,0,1-.18.48C6.4,18.2,3.3,17.65,3.25,16.37Z" style="fill:#195161"/>
            <path d="M7.67,19.18v84.37a1.29,1.29,0,0,1-.65.8c-1.3.78-3.55.32-3.75-.8,0,0,0-84.37,0-84.37,0,1.4,3.18,1.86,4.24.54A.82.82,0,0,0,7.67,19.18Z" style="fill:#1c6df6"/>
            <path d="M4.89,17.59v2.87a2.6,2.6,0,0,1-1-.34V17.25A2.83,2.83,0,0,0,4.89,17.59Z" style="fill:#99c1fd"/>
            <path d="M4.89,20.46v84.23a2.83,2.83,0,0,1-1-.34V20.12A2.6,2.6,0,0,0,4.89,20.46Z" style="fill:#99c1fd"/>
            <path d="M4.89,15.38v2.21a2.83,2.83,0,0,1-1-.34V15.38Z" style="fill:#99c1fd"/>
            <path d="M7.67,16.37c-.08,1.35-3.19,1.78-4.23.48a.87.87,0,0,1,0-1.08C4.51,14.44,7.76,14.93,7.67,16.37Z" style="fill:#88beff"/>
            <path d="M9.63,19.31V24a2.42,2.42,0,0,1-1.22,1.5C6,27,1.69,26.12,1.32,24c0,0,0-4.69,0-4.69h2a.71.71,0,0,0,.17.41c1.06,1.32,4.07.83,4.22-.41Z" style="fill:#69a4fc"/>
            <path d="M4.38,20.34v5.81a5.35,5.35,0,0,1-1.87-.65V17.44h.74c0,1.43,0,1.77,0,1.87C3.33,19.82,3.93,20.2,4.38,20.34Z" style="fill:#99c1fd"/>
            <path d="M9.63,19.31c-.05,1-1.06,1.68-2,2-1.92.72-4.66.4-5.9-.95a1.74,1.74,0,0,1,0-2.34,3.81,3.81,0,0,1,1.48-.95c0,1.78,0,2.12,0,2.22.14,1.24,3.16,1.73,4.22.41.27-.35.18-.62.18-2.64a3.77,3.77,0,0,1,1.6,1.09A1.69,1.69,0,0,1,9.63,19.31Z" style="fill:#88beff"/>
            <path d="M9.63,46V50.7a2.43,2.43,0,0,1-1.22,1.51C6,53.65,1.69,52.82,1.32,50.7c0,0,0-4.68,0-4.68h2a.74.74,0,0,0,.17.41c1.06,1.31,4.07.83,4.22-.41Z" style="fill:#69a4fc"/>
            <path d="M4.38,47v5.82a5.79,5.79,0,0,1-1.87-.65V44.15h.74a17.3,17.3,0,0,0,0,1.87C3.33,46.53,3.93,46.9,4.38,47Z" style="fill:#99c1fd"/>
            <path d="M9.63,46c-.05,1-1.06,1.68-2,2-1.92.71-4.66.4-5.9-1a1.74,1.74,0,0,1,0-2.34,4,4,0,0,1,1.48-1c0,1.8,0,2.13,0,2.23.14,1.23,3.16,1.72,4.22.41.27-.35.18-.61.18-2.64a3.69,3.69,0,0,1,1.6,1.09A1.67,1.67,0,0,1,9.63,46Z" style="fill:#88beff"/>
            <path d="M51.2,39.32a.48.48,0,0,1-.46-.32L45.69,26a.5.5,0,1,1,.93-.36l5.05,13a.5.5,0,0,1-.29.65A.57.57,0,0,1,51.2,39.32Z" style="fill:#dd6c2d"/>
            <path d="M49.15,39.86a2.38,2.38,0,1,0,1.09-2A2.37,2.37,0,0,0,49.15,39.86Z" style="fill:#feb30f"/>
            <path d="M49.79,39.25a2.37,2.37,0,0,0,2.37,2.37,2.43,2.43,0,0,0,1.28-.37,2.37,2.37,0,0,0-1.92-3.76,2.35,2.35,0,0,0-1.28.38A2.37,2.37,0,0,0,49.79,39.25Z" style="fill:#fcd561"/>
            <path d="M51.74,39.11a.45.45,0,0,0,.45.45.45.45,0,0,0,0-.9A.45.45,0,0,0,51.74,39.11Z" style="fill:#ffefca"/>
            <path d="M62.86,47.06a.57.57,0,0,1-.25-.06L52.34,41.07a.51.51,0,0,1-.18-.69.49.49,0,0,1,.68-.18l10.27,5.93a.5.5,0,0,1,.19.68A.49.49,0,0,1,62.86,47.06Z" style="fill:#dd6c2d"/>
            <path d="M61.64,47a2.36,2.36,0,0,0,4.28,1.39A2.31,2.31,0,0,0,66.37,47,2.37,2.37,0,0,0,64,44.64,2.36,2.36,0,0,0,61.64,47Z" style="fill:#feb30f"/>
            <path d="M62.28,46.4a2.37,2.37,0,0,0,2.37,2.36,2.28,2.28,0,0,0,1.27-.37A2.31,2.31,0,0,0,66.37,47,2.37,2.37,0,0,0,64,44.64a2.33,2.33,0,0,0-1.27.37A2.38,2.38,0,0,0,62.28,46.4Z" style="fill:#fcd561"/>
            <path d="M64.54,47.51a.52.52,0,0,1-.29-.09.51.51,0,0,1-.12-.7l5.14-7.31a.5.5,0,1,1,.81.58L65,47.29A.5.5,0,0,1,64.54,47.51Z" style="fill:#dd6c2d"/>
            <rect x="44.7" y="20.97" width="8.93" height="1" transform="translate(3.33 49.35) rotate(-54.9)" style="fill:#dd6c2d"/>
            <path d="M43.52,25.14a2.37,2.37,0,1,0,2.37-2.36,2.28,2.28,0,0,0-1.27.37A2.35,2.35,0,0,0,43.52,25.14Z" style="fill:#feb30f"/>
            <path d="M44.17,24.54a2.37,2.37,0,0,0,3.64,2,2.36,2.36,0,0,0-1.92-3.75,2.28,2.28,0,0,0-1.27.37A2.31,2.31,0,0,0,44.17,24.54Z" style="fill:#fcd561"/>
            <path d="M46.24,24.39a.32.32,0,0,0,.32.32.32.32,0,0,0,.32-.32.33.33,0,0,0-.32-.32A.32.32,0,0,0,46.24,24.39Z" style="fill:#ffefca"/>
            <path d="M49.48,17.34a2.37,2.37,0,1,0,1.1-2A2.37,2.37,0,0,0,49.48,17.34Z" style="fill:#feb30f"/>
            <path d="M50.13,16.74a2.37,2.37,0,0,0,2.36,2.37,2.32,2.32,0,0,0,1.28-.38,2.37,2.37,0,0,0-3.19-3.38A2.31,2.31,0,0,0,50.13,16.74Z" style="fill:#fcd561"/>
            <path d="M52.2,16.59a.32.32,0,0,0,.32.32.32.32,0,1,0,0-.63A.31.31,0,0,0,52.2,16.59Z" style="fill:#ffefca"/>
            <path d="M69.63,38.65a.51.51,0,0,1-.47-.32l-5-13a.5.5,0,0,1,.93-.36l5,13a.5.5,0,0,1-.29.64A.39.39,0,0,1,69.63,38.65Z" style="fill:#dd6c2d"/>
            <path d="M67.77,39.43a2.38,2.38,0,1,0,1.09-2A2.37,2.37,0,0,0,67.77,39.43Z" style="fill:#feb30f"/>
            <path d="M68.41,38.82a2.37,2.37,0,0,0,2.37,2.37,2.43,2.43,0,0,0,1.28-.37,2.37,2.37,0,0,0-1.92-3.76,2.35,2.35,0,0,0-1.28.38A2.37,2.37,0,0,0,68.41,38.82Z" style="fill:#fcd561"/>
            <path d="M70.6,38.68a.21.21,0,0,0,.21.21.22.22,0,0,0,.21-.21.21.21,0,0,0-.21-.21A.21.21,0,0,0,70.6,38.68Z" style="fill:#ffefca"/>
            <path d="M63.33,24.25a.45.45,0,0,1-.25-.07L52.81,18.25a.5.5,0,1,1,.5-.86l10.27,5.93a.5.5,0,0,1-.25.93Z" style="fill:#dd6c2d"/>
            <path d="M61.45,24a2.37,2.37,0,1,0,2.37-2.37,2.31,2.31,0,0,0-1.27.38A2.35,2.35,0,0,0,61.45,24Z" style="fill:#feb30f"/>
            <path d="M62.1,23.36a2.37,2.37,0,0,0,2.37,2.37,2.31,2.31,0,0,0,1.27-.37,2.37,2.37,0,0,0-1.92-3.76,2.31,2.31,0,0,0-1.27.38A2.37,2.37,0,0,0,62.1,23.36Z" style="fill:#fcd561"/>
            <path d="M64,23.22a.45.45,0,1,0,.45-.45A.45.45,0,0,0,64,23.22Z" style="fill:#ffefca"/>
            <path d="M31.26,17.86A2,2,0,0,0,34.83,19a2,2,0,0,0,.37-1.16,2,2,0,0,0-2-2,1.94,1.94,0,0,0-1.06.31A2,2,0,0,0,31.26,17.86Z" style="fill:#feb30f"/>
            <path d="M31.79,17.35a2,2,0,0,0,2,2A2,2,0,0,0,34.83,19a2,2,0,0,0,.37-1.16,2,2,0,0,0-2-2,1.94,1.94,0,0,0-1.06.31A1.91,1.91,0,0,0,31.79,17.35Z" style="fill:#fcd561"/>
            <path d="M33.41,17.23a.38.38,0,1,0,.75,0,.38.38,0,0,0-.75,0Z" style="fill:#ffefca"/>
            <path d="M44.58,25.07a.55.55,0,0,1-.25-.07L34.05,19.07a.51.51,0,0,1-.18-.69.5.5,0,0,1,.68-.18l10.28,5.93a.51.51,0,0,1,.18.69A.5.5,0,0,1,44.58,25.07Z" style="fill:#dd6c2d"/>
            <path d="M51.34,16.65a.48.48,0,0,1-.46-.32l-5.05-13A.5.5,0,0,1,46.76,3l5.05,13a.49.49,0,0,1-.29.64A.39.39,0,0,1,51.34,16.65Z" style="fill:#dd6c2d"/>
            <path d="M49.88,17.43a2,2,0,0,0,3.57,1.16,2,2,0,0,0,.37-1.16,2,2,0,0,0-2-2,1.94,1.94,0,0,0-1.06.31A2,2,0,0,0,49.88,17.43Z" style="fill:#feb30f"/>
            <path d="M50.41,16.93a2,2,0,0,0,2,2,2,2,0,0,0,1.06-.31,2,2,0,0,0,.37-1.16,2,2,0,0,0-2-2,1.94,1.94,0,0,0-1.06.31A1.92,1.92,0,0,0,50.41,16.93Z" style="fill:#fcd561"/>
            <path d="M52.23,16.8a.18.18,0,0,0,.18.18.18.18,0,0,0,.17-.18.18.18,0,0,0-.17-.17A.18.18,0,0,0,52.23,16.8Z" style="fill:#ffefca"/>
            <path d="M43.56,2a2,2,0,1,0,2-2,1.94,1.94,0,0,0-1.06.31A2,2,0,0,0,43.56,2Z" style="fill:#feb30f"/>
            <path d="M44.1,1.47a2,2,0,0,0,2,2,1.91,1.91,0,0,0,1.06-.31A2,2,0,0,0,45.53,0a1.94,1.94,0,0,0-1.06.31A2,2,0,0,0,44.1,1.47Z" style="fill:#fcd561"/>
            <path d="M45.72,1.35a.38.38,0,0,0,.75,0,.38.38,0,1,0-.75,0Z" style="fill:#ffefca"/>
            <rect x="77.03" y="35.24" width="1" height="14.79" transform="translate(3.95 91.78) rotate(-62.55)" style="fill:#dd6c2d"/>
            <path d="M82.23,45.57a2,2,0,0,0,3.57,1.16,2,2,0,0,0,.37-1.16,2,2,0,0,0-2-2,1.91,1.91,0,0,0-1.06.31A2,2,0,0,0,82.23,45.57Z" style="fill:#feb30f"/>
            <path d="M82.76,45.07a2,2,0,0,0,2,2,1.94,1.94,0,0,0,1.06-.31,2,2,0,0,0,.37-1.16,2,2,0,0,0-2-2,1.91,1.91,0,0,0-1.06.31A1.92,1.92,0,0,0,82.76,45.07Z" style="fill:#fcd561"/>
            <path d="M84.49,44.94a.27.27,0,1,0,.53,0,.27.27,0,0,0-.53,0Z" style="fill:#ffefca"/>
            <path id="Axo_base-4" data-name="Axo base" d="M42,112.74c0,3.26,4.58,5.91,10.23,5.91s10.24-2.65,10.24-5.91-4.59-5.91-10.24-5.91S42,109.47,42,112.74Z" style="fill:#81b2fc"/>
            <circle cx="51.92" cy="104.03" r="12.55" transform="translate(-23.87 15.86) rotate(-14.16)" style="fill:#e1edff"/>
            <circle cx="51.92" cy="104.03" r="12.15" style="fill:#b1d0fe"/>
            <path d="M39.45,104A12.47,12.47,0,1,1,51.92,116.5,12.49,12.49,0,0,1,39.45,104Zm.64,0A11.83,11.83,0,1,0,51.92,92.19,11.84,11.84,0,0,0,40.09,104Z" style="fill:#e1edff"/>
            <path d="M41.72,108.22a11,11,0,0,0,20.5-.25C62.69,106.74,41.18,106.92,41.72,108.22Z" style="fill:#ffda23"/>
            <path d="M41.42,108.34a.48.48,0,0,1,.17-.56c1.44-1.12,19.28-1.32,20.75-.23a.46.46,0,0,1,.18.53,11.35,11.35,0,0,1-21.1.26Zm.65-.11A10.71,10.71,0,0,0,61.86,108C60.08,107.12,43.73,107.31,42.07,108.23Z" style="fill:#e1edff"/>
            <path id="Axo_base-5" data-name="Axo base" d="M41.38,106.66c0,1.55,1,3.11,3.09,4.3a16.48,16.48,0,0,0,14.89,0c2.06-1.19,3.09-2.75,3.09-4.3s-1-3.12-3.09-4.3a16.42,16.42,0,0,0-14.89,0C42.41,103.54,41.38,105.1,41.38,106.66Z" style="fill:#ffe53e"/>
            <path d="M42,96.78h-.14a2.11,2.11,0,0,0-1.37.46,1.48,1.48,0,0,0-.29.26,2.39,2.39,0,0,0-.52.73,2.22,2.22,0,0,0,.25,2.57,1.72,1.72,0,0,0,.38.29A2.4,2.4,0,0,0,42.55,97l-.23-.11A1.86,1.86,0,0,0,42,96.78Z" style="fill:#b1d0fe"/>
            <path d="M40.27,101.08l.8.44a1.82,1.82,0,0,0,1.4,0,2.36,2.36,0,0,0,.84-.55c1.14-1.12,1.11-3-.05-3.62l-.71-.4a1.73,1.73,0,0,1,.58.59A2.45,2.45,0,0,1,43,100,2.16,2.16,0,0,1,40.27,101.08Z" style="fill:#81b2fc"/>
            <path d="M41.63,101.67h-.09a2.13,2.13,0,0,0,2.93-1.21,2,2,0,0,0-.76-2.71,2.49,2.49,0,0,1-.4,3.26A2.09,2.09,0,0,1,41.63,101.67Z" style="fill:#b1d0fe"/>
            <path d="M45.12,100.82a2.35,2.35,0,0,1-2,1.46l1.63.9,0,0a1.39,1.39,0,0,0,.44.13,2.24,2.24,0,0,0,2.13-2.55,1.52,1.52,0,0,0-.72-1.15l-1.58-.87A2.25,2.25,0,0,1,45.12,100.82Z" style="fill:#eff9ff;opacity:0.56"/>
            <path d="M44.47,100.45a2.35,2.35,0,0,1-2,1.46l1.63.89,0,0a1.41,1.41,0,0,0,.44.14,2.25,2.25,0,0,0,2.13-2.55A1.48,1.48,0,0,0,46,99.26l-1.58-.87A2.25,2.25,0,0,1,44.47,100.45Z" style="fill:#69a4fc"/>
            <path d="M82.1,81.67c-.63,0-5.5.1-6,.11L71.75,82c-4.24.32-9.37,1-13.3,2.54A13.4,13.4,0,0,0,52,89.47a22.9,22.9,0,0,0-1.91,3.61.68.68,0,0,0,.23.77,3,3,0,0,0,1.12.63,6.49,6.49,0,0,0,2.9.29,3.2,3.2,0,0,0,1.09-.33.88.88,0,0,0,.46-.54A7.79,7.79,0,0,1,58,89c3.82-3.85,13-5.26,18.4-5.86l4.91-.44a1.32,1.32,0,0,0,1.06-.77.18.18,0,0,0-.1-.22A.37.37,0,0,0,82.1,81.67Z" style="fill:#c9defe"/>
            <path d="M70.54,83.23s-8.09,1-11.09,3.23c-3.58,2.69-3.33,3.81-3.85,3.87S53.94,88,60.12,85.39A36.65,36.65,0,0,1,70.54,83.23Z" style="fill:#fff"/>
            <path d="M55.91,97.59s3.14,1.47,4.11,3.77.7,2.49,0,2.88-1.41-1.91-1.74-3.63S55.91,97.59,55.91,97.59Z" style="fill:#fff"/>
            <path d="M46.28,100.2s.52.63.09.47a16.25,16.25,0,0,1-1.48-.72s-.3-.31.1-.28A5.61,5.61,0,0,1,46.28,100.2Z" style="fill:#fff"/>
            <path d="M41.54,97.06a1.39,1.39,0,0,1,1.17.8c.39.81,0,1.68-.25,1.59s.19-1.27-.13-1.71A2.4,2.4,0,0,0,41.54,97.06Z" style="fill:#fff"/>
            <g style="isolation:isolate">
                <path d="M80.14,100a7.88,7.88,0,0,0-7.17.07c-2,1.17-1.9,3,.11,4.15a7.89,7.89,0,0,0,7.16-.07C82.19,103,82.14,101.16,80.14,100Z" style="fill:#69a4fc"/>
                <path d="M77.59,100.77l-1,1.38,1-1.38a2.22,2.22,0,0,0-2,0c-.57.34-.56.89,0,1.22a2.29,2.29,0,0,0,2.1,0C78.24,101.64,78.18,101.1,77.59,100.77Z" style="fill:#69a4fc"/>
                <path d="M78.73,93.28a1.67,1.67,0,0,0-.51-.41l3,4.22a4.82,4.82,0,0,1,1.42,1.15Z" style="fill:#69a4fc"/>
                <path d="M70.53,98.28a4.34,4.34,0,0,1,1.29-1.1,10.38,10.38,0,0,1,9.43-.09l-3-4.22a3.65,3.65,0,0,0-3.33,0,1.66,1.66,0,0,0-.46.39Z" style="fill:#69a4fc"/>
                <path d="M82.67,98.24a4.69,4.69,0,0,0-1.42-1.15c.51.71-.11,2.35-1.11,3,2,1.12,2,3,.1,4.15a7.89,7.89,0,0,1-7.16.07c-2-1.13-2.06-3-.11-4.15a7.88,7.88,0,0,1,7.17-.07c1-.6,1.62-2.24,1.11-3a10.38,10.38,0,0,0-9.43.09,4.47,4.47,0,0,0-1.29,1.1,3.72,3.72,0,0,0-.84,2.72,3.16,3.16,0,0,0,.21.88,4.34,4.34,0,0,0,.28.62,2.77,2.77,0,0,0,.31.45,4.83,4.83,0,0,0,.59.65,6,6,0,0,0,.71.55c.35.22.61.34.81.45a8.83,8.83,0,0,0,.87.34,6.87,6.87,0,0,0,.89.25,9.44,9.44,0,0,0,1.86.23,10.35,10.35,0,0,0,1.88-.1c.12,0,.49-.07.93-.18s.38-.1.9-.27l.47-.19.79-.41a7,7,0,0,0,1-.7,4.45,4.45,0,0,0,.83-1,3.91,3.91,0,0,0,.46-1.1c0-.2.08-.46.1-.65s0-.42,0-.6a3.91,3.91,0,0,0-.22-.88,4.31,4.31,0,0,0-.22-.49C83,98.66,82.8,98.42,82.67,98.24Z" style="fill:#69a4fc"/>
                <path d="M81.19,104.27A5.77,5.77,0,0,0,82.65,103a3.86,3.86,0,0,0,.79-1.6,4.14,4.14,0,0,0,.09-.6c0-.1,0-.23,0-.33a3.07,3.07,0,0,0-.07-.6,4.3,4.3,0,0,0-.3-.87A3.3,3.3,0,0,0,83,98.7c-.08-.14-.21-.32-.31-.46,1.11,1.41.69,3.13-1.28,4.31a10.4,10.4,0,0,1-9.44.1c-2.08-1.17-2.56-2.93-1.42-4.37-.13.18-.3.42-.41.61a5.32,5.32,0,0,0-.29.69,3.6,3.6,0,0,0-.13,1.47,3.8,3.8,0,0,0,.36,1.22,4.67,4.67,0,0,0,.92,1.24,6,6,0,0,0,1.18.86,8.59,8.59,0,0,0,.81.39c.53.21.93.32.93.32.27.06.63.15.91.2.51.09.94.12.94.12a9.45,9.45,0,0,0,1.41,0,8,8,0,0,0,.94-.09A8.19,8.19,0,0,0,81.19,104.27Z" style="fill:#99c1fd"/>
                <path d="M81.5,102.74a10.65,10.65,0,0,1-9.66.1,4.24,4.24,0,0,1-1.93-2c0,.06,0,.11,0,.16a3.64,3.64,0,0,0,.34,1.14,4.18,4.18,0,0,0,.88,1.17,5.47,5.47,0,0,0,1.13.83,6.8,6.8,0,0,0,.79.38,9.44,9.44,0,0,0,.9.31c.25.06.61.15.89.2.49.08.91.11.91.11a10.72,10.72,0,0,0,1.39,0s.43,0,.92-.09a8.08,8.08,0,0,0,3-1,5.38,5.38,0,0,0,1.41-1.2,3.75,3.75,0,0,0,.74-1.52,4.67,4.67,0,0,0,.08-.52A4.11,4.11,0,0,1,81.5,102.74Z" style="fill:#b1d0fe"/>
                <path d="M74.21,93.86a1.19,1.19,0,0,1,.68-1,3.65,3.65,0,0,1,3.33,0v-5.3a3.68,3.68,0,0,0-3.34,0,1.16,1.16,0,0,0-.67,1C74.22,90.15,74.21,92.27,74.21,93.86Z" style="fill:#69a4fc"/>
                <path d="M75.16,88.73q0,6.33,0,12.66a.73.73,0,0,1,.42-.6,2.22,2.22,0,0,1,2,0V88.14a2.3,2.3,0,0,0-2,0A.71.71,0,0,0,75.16,88.73Z" style="fill:#5195fb"/>
                <path d="M78.09,101.38,78,88.72a.64.64,0,0,0-.38-.58v12.63A.81.81,0,0,1,78.09,101.38Z" style="fill:#5195fb"/>
                <path d="M78,88.72a.68.68,0,0,1-.39.57,2.21,2.21,0,0,1-2,0,.72.72,0,0,1-.43-.58q0,6.33,0,12.66a.76.76,0,0,0,.45.62,2.29,2.29,0,0,0,2.1,0,.72.72,0,0,0,.42-.6C78.06,97.58,78,92.52,78,88.72Z" style="fill:#69a4fc"/>
                <path d="M72,102.65a10.4,10.4,0,0,0,9.44-.1c2-1.18,2.39-2.9,1.28-4.31l-3.94-5c.4.5.25,1.11-.45,1.52a3.68,3.68,0,0,1-3.34,0,1.23,1.23,0,0,1-.73-1c0-.1,0-.2,0-.3l-3.69,4.72C69.39,99.72,69.88,101.48,72,102.65Z" style="fill:#b1d0fe"/>
                <path d="M78.94,88.55a1.19,1.19,0,0,0-.72-1v5.3a1.19,1.19,0,0,1,.72,1C78.93,92.26,78.94,90.14,78.94,88.55Z" style="fill:#69a4fc"/>
                <path d="M78.94,93.85v-5.3a1.17,1.17,0,0,1-.68,1,3.68,3.68,0,0,1-3.34,0,1.21,1.21,0,0,1-.71-1v5.3a1.22,1.22,0,0,0,.73,1,3.68,3.68,0,0,0,3.34,0A1.16,1.16,0,0,0,78.94,93.85Z" style="fill:#99c1fd"/>
                <path d="M74.83,95A1.4,1.4,0,0,1,74,93.86v-5.3h.45a1,1,0,0,0,.59.78,3.43,3.43,0,0,0,3.12,0,1,1,0,0,0,.56-.76h.45v5.3A1.38,1.38,0,0,1,78.39,95a3.86,3.86,0,0,1-3.56,0Zm3.55-5.33a3.91,3.91,0,0,1-3.57,0,2.68,2.68,0,0,1-.37-.26v4.39c0,.28.22.56.61.78a3.41,3.41,0,0,0,3.11,0,.93.93,0,0,0,.55-.76v-4.4A2.19,2.19,0,0,1,78.38,89.7Z" style="fill:#b1d0fe"/>
                <path d="M78.58,89.68a4.38,4.38,0,0,1-4,0c-1.11-.62-1.14-1.65-.06-2.29a4.32,4.32,0,0,1,4,0C79.63,88,79.65,89,78.58,89.68Zm-3.7-2.08c-.91.55-.89,1.41,0,1.94a3.68,3.68,0,0,0,3.34,0,1,1,0,0,0,0-1.93A3.68,3.68,0,0,0,74.88,87.6Z" style="fill:#69a4fc"/>
                <path d="M80.06,88a1.61,1.61,0,0,0-.3-1,2.55,2.55,0,0,0-.9-.8.36.36,0,0,1,.15.31,1.12,1.12,0,0,1-.49.87c1.11.62,1.13,1.64.06,2.29a4.38,4.38,0,0,1-4,0c-1.11-.62-1.14-1.65-.06-2.29a4.32,4.32,0,0,1,4,0,1.12,1.12,0,0,0,.49-.87.36.36,0,0,0-.15-.31A4.62,4.62,0,0,0,77,85.68a5.33,5.33,0,0,0-1.22,0,4.55,4.55,0,0,0-1,.23,4,4,0,0,0-.86.45,2.57,2.57,0,0,0-.59.6,1.68,1.68,0,0,0-.25,1.45,2.23,2.23,0,0,0,1,1.2,4.23,4.23,0,0,0,.41.23c.22.1.43.17.43.17l.46.13a6.6,6.6,0,0,0,.72.11,5.63,5.63,0,0,0,1.23,0,6,6,0,0,0,1-.24,3.69,3.69,0,0,0,.88-.47,2.28,2.28,0,0,0,.63-.67A1.72,1.72,0,0,0,80.06,88Z" style="fill:#69a4fc"/>
                <path d="M73.82,87.48c1,0,1.29.51,1.35,1.28a.67.67,0,0,1,.39-.6,2.3,2.3,0,0,1,2,0,2.11,2.11,0,0,1,.89-1.88,4.3,4.3,0,0,0-3.89,0A1.32,1.32,0,0,0,73.82,87.48Z" style="fill:#81b2fc"/>
                <path d="M78,88.76c.06-.78.39-1.31,1.34-1.29a1.34,1.34,0,0,0-.83-1.21,2.11,2.11,0,0,0-.89,1.88A.63.63,0,0,1,78,88.76Z" style="fill:#81b2fc"/>
                <path d="M77.89,88.42a2.15,2.15,0,0,1-.57.22,2.93,2.93,0,0,1-.73.09h-.45a2.42,2.42,0,0,1-.42-.09,1.44,1.44,0,0,1-.67-.35,1.74,1.74,0,0,1,.12.49.71.71,0,0,0,.42.55,2.21,2.21,0,0,0,2,0,.7.7,0,0,0,.39-.53,1.59,1.59,0,0,1,.11-.49A.88.88,0,0,1,77.89,88.42Z" style="fill:#69a4fc"/>
                <path d="M78,88.76a1.28,1.28,0,0,1,.11-.49,2.24,2.24,0,0,1-1.49.46,2.16,2.16,0,0,1-1.54-.46,1.33,1.33,0,0,1,.12.49c-.06-.77-.4-1.3-1.35-1.28a1.4,1.4,0,0,0,.83,1.08,4.3,4.3,0,0,0,3.89,0,1.39,1.39,0,0,0,.77-1C78.36,87.45,78,88,78,88.76Z" style="fill:#81b2fc"/>
                <path d="M78.57,88.54a4.38,4.38,0,0,1-4,0,1.22,1.22,0,0,1,0-2.3,4.38,4.38,0,0,1,4,0C79.62,86.87,79.65,87.89,78.57,88.54Zm-4-2.24c-1.06.64-1,1.65.06,2.26a4.3,4.3,0,0,0,3.89,0c1.06-.64,1-1.64-.06-2.26A4.3,4.3,0,0,0,74.59,86.3Z" style="fill:#69a4fc"/>
                <path d="M78.93,89.71a2.62,2.62,0,0,0,.83-.76,1.67,1.67,0,0,0,.3-1,2.06,2.06,0,0,0-1.2-1.76.33.33,0,0,0-.34,0c1.1.63,1.13,1.65,0,2.3a4.38,4.38,0,0,1-4,0,1.22,1.22,0,0,1,0-2.3,4.38,4.38,0,0,1,4,0,.33.33,0,0,1,.34,0l-.19-.11-.24-.1a3.81,3.81,0,0,0-.69-.21,5.15,5.15,0,0,0-1.22-.13,5.59,5.59,0,0,0-1.21.15,4.2,4.2,0,0,0-1.07.42,2.22,2.22,0,0,0-1.14,1.43,1.62,1.62,0,0,0,.08.92,2,2,0,0,0,.5.74,4.07,4.07,0,0,0,2.44,1A4.85,4.85,0,0,0,78.93,89.71Z" style="fill:#b1d0fe"/>
            </g>
            <path d="M70.39,101.55a6.47,6.47,0,0,0,6.19,3.22c3.88-.28,5.57-1.57,6.11-3.33a4.1,4.1,0,0,0-1.17-3.83,1.73,1.73,0,0,1,.15.7c0,1.6-2.24,2.89-5,2.89s-5-1.29-5-2.89a1.76,1.76,0,0,1,.23-.86C71.84,97.51,69.52,99.69,70.39,101.55Z" style="opacity:0.67;fill:#e84343"/>
            <g id="Axo_Projection-18" data-name="Axo Projection" style="opacity:0.67">
                <path d="M71.67,98.31c0,1.6,2.24,2.89,5,2.89s5-1.29,5-2.89a1.73,1.73,0,0,0-.15-.7C81,96.36,79,95.43,76.67,95.43s-4.13.85-4.77,2A1.76,1.76,0,0,0,71.67,98.31Z" style="fill:#f66"/>
            </g>
            <path d="M79.61,96.52s2.66,3.51,2.55,4,.15.88-.49.39S79.61,96.52,79.61,96.52Z" style="fill:#fff"/>
        </g>
    </g>
</svg>
