<svg xmlns="http://www.w3.org/2000/svg" viewBox="0 0 86.17 118.65" xmlns:v="https://vecta.io/nano"><style><![CDATA[.B{fill:#c9defe}.C{fill:#69a4fc}.D{fill:#99c1fd}.E{fill:#81b2fc}.F{fill:#5195fb}.G{fill:#1c6df6}.H{fill:#b1d0fe}.I{fill:#feb30f}.J{fill:#88beff}.K{fill:#7788bd}.L{fill:#fcd561}.M{fill:#fff}.N{fill:#ffefca}.O{fill:#e1edff}.P{fill:#dd6c2d}.Q{fill:#b8c8f4}.R{fill:#2b6c81}.S{fill:#121e51}.T{opacity:.67}.U{fill:#195161}.V{fill:#3c94a3}]]></style><path d="M34.4,84.1c.49-.29.49-1.2,0-2s-1.29-1.31-1.78-1l2.61-.45a.75.75,0,0,1,.88.45.88.88,0,0,1,0,1Z" class="Q"/><path d="M34.4 84.1c-.49.28-1.29-.18-1.78-1s-.49-1.76 0-2 1.29.18 1.78 1 .49 1.71 0 2z" class="G"/><path d="M29.27 82.05a.39.39 0 0 1-.36-.23.4.4 0 0 1 .18-.54 5.43 5.43 0 0 0 2.76-4.48 1.83 1.83 0 0 0-.7-1.64 1.75 1.75 0 0 0-1.7.07.39.39 0 0 1-.54-.19.4.4 0 0 1 .18-.54 2.51 2.51 0 0 1 2.49 0 2.59 2.59 0 0 1 1.09 2.33A6.22 6.22 0 0 1 29.45 82a.39.39 0 0 1-.18.05z" class="S"/><path d="M16.55,93.63c0,3.23,4.54,5.85,10.13,5.85s10.13-2.62,10.13-5.85v.68c0,3.23-4.53,5.85-10.13,5.85s-10.13-2.62-10.13-5.85Z" class="G"/><ellipse cx="26.68" cy="93.63" rx="10.13" ry="5.85" class="D"/><path d="M17.53,90.52c0,2.92,4.09,5.29,9.15,5.29s9.16-2.37,9.16-5.29v3.11c0,2.92-4.1,5.29-9.16,5.29s-9.15-2.37-9.15-5.29Z" class="C"/><path d="M17.53 90.52c0-2.92 4.09-5.28 9.15-5.28s9.16 2.36 9.16 5.28-4.1 5.29-9.16 5.29-9.15-2.37-9.15-5.29z" class="J"/><path d="M32.44,85.23c.49-.29.49-1.2,0-2s-1.28-1.31-1.77-1l1.89-.61c.49-.28,1.1.17,1.42.75s.36,1.38-.13,1.67Z" class="Q"/><path d="M32.44 85.23c-.49.28-1.28-.18-1.77-1s-.49-1.76 0-2 1.28.18 1.77 1 .49 1.71 0 2z" class="G"/><path d="M30.63,86.36c.49-.28.49-1.2,0-2s-1.28-1.31-1.77-1l1.89-.61c.49-.29,1.11.17,1.42.75s.36,1.38-.13,1.67Z" class="Q"/><path d="M30.63 86.36c-.49.29-1.28-.17-1.77-1s-.49-1.76 0-2 1.28.18 1.77 1 .49 1.72 0 2z" class="G"/><path d="M28.62 87.53c.49-.29.49-1.2 0-2s-1.29-1.31-1.78-1l1.89-.62c.49-.28 1.11.17 1.43.75s.35 1.34-.16 1.6z" class="S"/><path d="M28.62 87.53c-.49.28-1.29-.18-1.78-1s-.49-1.76 0-2 1.29.17 1.78 1 .49 1.71 0 2z" fill="#006272"/><path d="M24.33,83.51c0,.75,1.05,1.36,2.35,1.36S29,84.26,29,83.51V89.2c0,.75-1.05,1.36-2.35,1.36S24.33,90,24.33,89.2Z" class="G"/><path d="M24.33,81.67c0,.75,1.05,1.36,2.35,1.36S29,82.42,29,81.67v1.84c0,.75-1.05,1.36-2.35,1.36s-2.35-.61-2.35-1.36Z" class="V"/><path d="M24.33 81.67c0-.75 1.05-1.35 2.35-1.35s2.35.6 2.35 1.35S28 83 26.68 83s-2.35-.58-2.35-1.33z" class="R"/><use href="#B" class="V"/><use href="#C" class="R"/><path d="M23.72,81.43c0,.95,1.32,1.71,3,1.71s3-.76,3-1.71v2.32c0,1-1.32,1.71-3,1.71s-3-.76-3-1.71Z" class="C"/><path d="M23.72 81.43c0-.94 1.32-1.71 3-1.71s3 .77 3 1.71-1.32 1.71-3 1.71-3-.76-3-1.71z" class="J"/><use href="#B" class="G"/><use href="#C" class="R"/><path d="M24.33,78.48c0,.75,1.05,1.35,2.35,1.35S29,79.23,29,78.48v1.84c0,.75-1.05,1.35-2.35,1.35s-2.35-.6-2.35-1.35Z" class="C"/><path d="M24.33 78.48c0-.75 1.05-1.36 2.35-1.36s2.32.61 2.32 1.36-1 1.35-2.32 1.35-2.35-.6-2.35-1.35z" class="G"/><path d="M25.24,77c0,.46.65.83,1.44.83s1.44-.37,1.44-.83v1.13c0,.46-.64.83-1.44.83s-1.44-.37-1.44-.83Z" class="V"/><path d="M25.24 77c0-.46.65-.83 1.44-.83s1.44.37 1.44.83-.64.83-1.44.83-1.44-.38-1.44-.83z" class="R"/><path d="M23.21,75c0,1.11,1.55,2,3.47,2s3.48-.9,3.48-2v2c0,1.11-1.56,2-3.48,2s-3.47-.9-3.47-2Z" class="C"/><path d="M23.21 75c0-1.11 1.55-2 3.47-2s3.48.89 3.48 2-1.56 2-3.48 2-3.47-.89-3.47-2z" class="J"/><path d="M28.27 75.62a3.2 3.2 0 0 1-1.59.38c-1.24 0-2.25-.58-2.25-1.29v-2c0 .72 1 1.3 2.25 1.3a3.3 3.3 0 0 0 1.59-.38 1.13 1.13 0 0 0 .66-.92v2a1.1 1.1 0 0 1-.66.91z" class="G"/><path d="M28.27 73.62a3.3 3.3 0 0 1-1.59.38c-1.24 0-2.25-.58-2.25-1.3a1.13 1.13 0 0 1 .66-.92 3.3 3.3 0 0 1 1.59-.38c1.24 0 2.25.58 2.25 1.3a1.13 1.13 0 0 1-.66.92z" class="R"/><path d="M23.74,66.11c0,.94,1.31,1.7,2.94,1.7s2.95-.76,2.95-1.7V72.7c0,.94-1.32,1.7-2.95,1.7s-2.94-.76-2.94-1.7Z" class="C"/><path d="M23.74 66.11c0-.94 1.31-1.7 2.94-1.7s2.95.76 2.95 1.7-1.32 1.7-2.95 1.7-2.94-.76-2.94-1.7z" class="J"/><path d="M26.68 67.3c-1.11 0-2-.53-2-1.19s.91-1.2 2-1.2 2 .54 2 1.2-.88 1.19-2 1.19zm0-2.25c-1 0-1.88.47-1.88 1.06s.84 1.06 1.88 1.06 1.89-.48 1.89-1.06-.85-1.06-1.89-1.06z" class="G"/><path d="M22.91 84.89a2.11 2.11 0 0 1-1.13-.31 2.61 2.61 0 0 1-1.09-2.33A6.24 6.24 0 0 1 23.91 77a.411.411 0 1 1 .36.74 5.43 5.43 0 0 0-2.76 4.48 1.85 1.85 0 0 0 .7 1.64 1.76 1.76 0 0 0 1.7-.08.411.411 0 1 1 .36.74 3.1 3.1 0 0 1-1.36.37zm1.87 4.47c.45-.26.45-1.11 0-1.89s-1.18-1.21-1.63-1l1.08-.62c.45-.26 1.18.16 1.63.94s.45 1.63 0 1.89z" class="S"/><path d="M24.78 89.36c-.45.26-1.18-.17-1.63-1s-.46-1.63 0-1.89 1.18.17 1.63 1 .45 1.63 0 1.89z" fill="#202a5f"/><path d="M23.41,89.08c.2-.11.2-.48,0-.82s-.51-.53-.71-.41l.79-.46c.2-.12.52.07.72.41s.19.71,0,.83Z" class="S"/><path d="M23.41 89.08c-.19.12-.51-.07-.71-.41s-.2-.71 0-.82.52.07.71.41.2.74 0 .82z" class="Q"/><path d="M22.73,89.83c.28-.16.28-.69,0-1.18s-.74-.75-1-.59l.48-.27c.28-.16.74.1,1,.59s.28,1,0,1.17Z" class="C"/><path d="M22.73 89.83c-.28.16-.74-.1-1-.59s-.28-1 0-1.18.74.1 1 .59.27 1.02 0 1.18z" fill="#00abac"/><path d="M21.91,92.63c.84-.48.84-2,0-3.51s-2.2-2.23-3-1.75l.94-.54c.84-.48,2.2.3,3,1.76s.84,3,0,3.51Z" class="D"/><path d="M21.91 92.63c-.84.49-2.2-.3-3-1.75s-.84-3 0-3.51 2.2.3 3 1.75.84 3.03 0 3.51z" class="C"/><path d="M26.68 66.11s-3.27-.4-1.95-4.11a22 22 0 0 1 1.95-3.75 11.79 11.79 0 0 1 1.95 4.36c.25 1.99 0 2.98-1.95 3.5z" class="I"/><path d="M26.65 66.05a1.89 1.89 0 0 1-1.13-2.46 11 11 0 0 1 .93-2.35 4.94 4.94 0 0 1 1.25 2.41c.07 1.12-.06 2.2-1.05 2.4z" fill="#fbc22c" class="T"/><path d="M26.72 65.85a.87.87 0 0 1-.52-1.13 5.48 5.48 0 0 1 .43-1.08 2.39 2.39 0 0 1 .58 1.1c.03.52-.03 1.02-.49 1.11z" fill="#f2dbd1" class="T"/><path d="M46.45 47.8l-7.14 4.12v16.74l7.14-4.12V47.8z" class="D"/><path d="M39.31 51.92l-.9-.52v16.74l.9.52V51.92z" class="F"/><use href="#D" class="B"/><path d="M43.66,66a1.13,1.13,0,0,1,.68-1,3.62,3.62,0,0,1,3.3,0,1.15,1.15,0,0,1,.69,1v.66a1.17,1.17,0,0,0-.69-1,3.69,3.69,0,0,0-3.3,0,1.16,1.16,0,0,0-.68,1Z" class="F"/><path d="M45.97 68.93L40.89 66v.66l5.08 2.93v-.66z" class="K"/><path d="M46 68.93l5.14-3L46 63l-5.14 3zm-1.63-2a1 1 0 0 1 0-1.9 3.62 3.62 0 0 1 3.3 0 1 1 0 0 1 0 1.9 3.62 3.62 0 0 1-3.33 0z" class="B"/><path d="M48.71,68.9a1.17,1.17,0,0,1,.69-1,3.69,3.69,0,0,1,3.3,0,1.18,1.18,0,0,1,.68,1v.66a1.18,1.18,0,0,0-.68-1,3.69,3.69,0,0,0-3.3,0,1.17,1.17,0,0,0-.69,1Z" class="F"/><path d="M51.06 71.87l-5.09-2.94v.66l5.09 2.94v-.66z" class="K"/><path d="M51.06 71.87l5.14-3L51.11 66l-5.14 3zm-1.66-2a1 1 0 0 1 0-1.91 3.69 3.69 0 0 1 3.3 0 1 1 0 0 1 0 1.91 3.62 3.62 0 0 1-3.3-.02z" class="B"/><path d="M53.77,71.82a1.18,1.18,0,0,1,.68-1,3.71,3.71,0,0,1,3.31,0,1.18,1.18,0,0,1,.68,1v.65a1.17,1.17,0,0,0-.68-1,3.71,3.71,0,0,0-3.31,0,1.17,1.17,0,0,0-.68,1Z" class="F"/><path d="M56.14 74.81l-5.08-2.94v.66l5.08 2.94v-.66z" class="K"/><path d="M51.06 71.87l5.08 2.94 5.14-3-5.08-2.91zm3.39.9a1 1 0 0 1 0-1.91 3.71 3.71 0 0 1 3.31 0 1 1 0 0 1 0 1.91 3.64 3.64 0 0 1-3.31 0z" class="B"/><path d="M58.82,74.74a1.17,1.17,0,0,1,.69-1,3.69,3.69,0,0,1,3.3,0,1.17,1.17,0,0,1,.69,1v.65a1.16,1.16,0,0,0-.69-1,3.62,3.62,0,0,0-3.3,0,1.16,1.16,0,0,0-.69,1Z" class="F"/><path d="M61.23 77.75l-5.09-2.94v.66l5.09 2.93v-.65z" class="K"/><path d="M61.28 71.84l-5.14 3 5.09 2.93 5.14-3zm1.53 1.94a1 1 0 0 1 0 1.91 3.62 3.62 0 0 1-3.3 0 1 1 0 0 1 0-1.91 3.69 3.69 0 0 1 3.3 0z" class="B"/><path d="M63.88,77.66a1.17,1.17,0,0,1,.69-1,3.69,3.69,0,0,1,3.3,0,1.18,1.18,0,0,1,.68,1v.65a1.17,1.17,0,0,0-.68-1,3.62,3.62,0,0,0-3.3,0,1.16,1.16,0,0,0-.69,1Z" class="F"/><path d="M71.6 77.8l-5.14 2.96v.66l5.14-2.97v-.65z" class="B"/><path d="M66.46 80.76l-5.23-3.01v.65l5.23 3.02v-.66z" class="K"/><path d="M66.37 74.78l-5.14 3 5.23 3 5.14-3zm1.5 1.92a1 1 0 0 1 0 1.91 3.62 3.62 0 0 1-3.3 0 1 1 0 0 1 0-1.91 3.69 3.69 0 0 1 3.3 0z" class="B"/><path d="M42.92,58a1.17,1.17,0,0,1,.69-1,3.69,3.69,0,0,1,3.3,0,1.16,1.16,0,0,1,.68,1v.65a1.14,1.14,0,0,0-.68-1,3.62,3.62,0,0,0-3.3,0,1.16,1.16,0,0,0-.69,1Z" class="F"/><path d="M46.91 57a3.69 3.69 0 0 0-3.3 0c-.63.37-.83.89-.59 1.35l-2.75-.3 5.14-3 5.23 3-3.19.32c.3-.37.12-.96-.54-1.37z" class="B"/><path d="M43.23,65.28c0,1.07.86,1.64,1.93,1.64s1.93-.57,1.93-1.64a1.93,1.93,0,0,0-3.86,0Z" class="E"/><path d="M43.23 52.49V65.2c0 .62.86 1.12 1.93 1.12s1.8-.43 1.92-1a.66.66 0 0 0 0-.14V52.49c0 .61-.86 1.11-1.93 1.11s-1.92-.5-1.92-1.11z" class="H"/><g class="E"><path d="M43.23 52.49V65.2c0 .62.86 1.12 1.93 1.12s1.8-.43 1.92-1l-.24.18c-.6.41-1.49 0-2.05-1.89s-.56-9.17-.56-9.17l1.69-.41a2 2 0 0 0 1.17-.71v-.85c0 .61-.86 1.11-1.93 1.11s-1.93-.48-1.93-1.09z"/><use href="#E"/></g><path d="M42.91 52.49c0-.81 1-1.44 2.25-1.44s2.25.63 2.25 1.44-1 1.44-2.25 1.44-2.25-.64-2.25-1.44zm.64 0c0 .37.69.79 1.61.79s1.61-.42 1.61-.79-.69-.79-1.61-.79-1.61.41-1.61.79z" class="O"/><path d="M46.61 54.36v5.18s0 1.77-.29 1.56-.22-1.75-.22-1.75V54.6a.62.62 0 0 0 .51-.24z" class="M"/><use href="#F" class="B"/><path d="M45.5 61.09l-5.23-3.03v.66l5.23 3.02v-.65z" class="K"/><path d="M43,58.37a1.53,1.53,0,0,0,.59.56,3.62,3.62,0,0,0,3.3,0,1.45,1.45,0,0,0,.54-.49l3.19-.32-5.14,3-5.23-3Z" class="B"/><path d="M48.16,61a1.16,1.16,0,0,1,.69-1,3.62,3.62,0,0,1,3.3,0,1.14,1.14,0,0,1,.68,1v.66a1.13,1.13,0,0,0-.68-.95,3.62,3.62,0,0,0-3.3,0,1.15,1.15,0,0,0-.69.95Z" class="F"/><path d="M52.15 60.05a3.62 3.62 0 0 0-3.3 0c-.63.36-.83.88-.59 1.34l-2.75-.3 5.14-3 5.23 3-3.19.32c.31-.41.12-.98-.54-1.36z" class="B"/><path d="M48.47,68.31a2,2,0,0,0,3.86,0,1.93,1.93,0,1,0-3.86,0Z" class="E"/><path d="M48.47 55.51v12.72c0 .61.86 1.11 1.93 1.11s1.8-.43 1.92-1a.57.57 0 0 0 0-.13v-12.7c0 .62-.86 1.12-1.93 1.12s-1.92-.5-1.92-1.12z" class="H"/><g class="E"><path d="M48.47 55.51v12.72c0 .61.86 1.11 1.93 1.11s1.8-.43 1.92-1a1.55 1.55 0 0 1-.24.19c-.6.4-1.49 0-2-1.89s-.56-9.18-.56-9.18l1.69-.4a2.1 2.1 0 0 0 1.17-.71v-.86c0 .62-.86 1.12-1.93 1.12s-1.98-.48-1.98-1.1z"/><path d="M52.33 55.51c0-.61-.86-1.11-1.93-1.11s-1.93.5-1.93 1.11.86 1.12 1.93 1.12 1.93-.5 1.93-1.12z"/></g><path d="M48.15 55.51c0-.8 1-1.43 2.25-1.43s2.25.63 2.25 1.43S51.66 57 50.4 57s-2.25-.68-2.25-1.49zm.64 0c0 .38.69.8 1.61.8s1.61-.42 1.61-.8-.69-.79-1.61-.79-1.61.42-1.61.79z" class="O"/><use href="#G" class="M"/><path d="M55.88 61.14l-5.14 2.97v.66l5.14-2.97v-.66z" class="B"/><path d="M50.74 64.11l-5.23-3.02v.66l5.23 3.02v-.66z" class="K"/><path d="M48.26,61.39a1.48,1.48,0,0,0,.59.57,3.69,3.69,0,0,0,3.3,0,1.55,1.55,0,0,0,.54-.5l3.19-.32-5.14,3-5.23-3Z" class="B"/><path d="M53.4,64a1.17,1.17,0,0,1,.69-1,3.69,3.69,0,0,1,3.3,0,1.16,1.16,0,0,1,.68,1v.65a1.14,1.14,0,0,0-.68-1,3.62,3.62,0,0,0-3.3,0,1.16,1.16,0,0,0-.69,1Z" class="F"/><path d="M57.39 63.07a3.69 3.69 0 0 0-3.3 0c-.63.37-.83.89-.59 1.35l-2.75-.3 5.14-3 5.23 3-3.19.32c.3-.44.12-.98-.54-1.37z" class="B"/><path d="M53.71,71.33c0,1.07.86,1.64,1.93,1.64s1.93-.57,1.93-1.64a1.93,1.93,0,0,0-3.86,0Z" class="E"/><path d="M53.71 58.54v12.71c0 .62.86 1.12 1.93 1.12s1.8-.43 1.92-1a.66.66 0 0 0 0-.14V58.54c0 .61-.86 1.11-1.93 1.11s-1.92-.5-1.92-1.11z" class="H"/><g class="E"><path d="M53.71 58.54v12.71c0 .62.86 1.12 1.93 1.12s1.8-.43 1.92-1l-.24.18c-.6.41-1.49 0-2-1.89s-.56-9.17-.56-9.17l1.69-.41a2 2 0 0 0 1.17-.71v-.85c0 .61-.86 1.11-1.93 1.11s-1.98-.48-1.98-1.09z"/><use href="#E" x="10.48" y="6.05"/></g><path d="M53.39 58.54c0-.81 1-1.44 2.25-1.44s2.25.63 2.25 1.44S56.9 60 55.64 60s-2.25-.66-2.25-1.46zm.64 0c0 .37.69.79 1.61.79s1.61-.42 1.61-.79-.69-.79-1.61-.79-1.64.41-1.64.79z" class="O"/><path d="M57.09 60.41v5.18s0 1.77-.29 1.56-.22-1.75-.22-1.75v-4.75a.62.62 0 0 0 .51-.24z" class="M"/><use href="#F" x="10.48" y="6.05" class="B"/><path d="M55.98 67.14l-5.23-3.03v.66l5.23 3.02v-.65z" class="K"/><path d="M53.5,64.42a1.46,1.46,0,0,0,.59.56,3.62,3.62,0,0,0,3.3,0,1.45,1.45,0,0,0,.54-.49l3.19-.32-5.14,3-5.23-3Z" class="B"/><path d="M58.64,67.05a1.16,1.16,0,0,1,.69-1,3.62,3.62,0,0,1,3.3,0,1.17,1.17,0,0,1,.68,1v.66a1.15,1.15,0,0,0-.68-.95,3.62,3.62,0,0,0-3.3,0,1.15,1.15,0,0,0-.69.95Z" class="F"/><path d="M62.63 66.1a3.62 3.62 0 0 0-3.3 0c-.63.36-.83.88-.59 1.34l-2.74-.3 5.14-3 5.23 3-3.19.32c.29-.46.11-.98-.55-1.36z" class="B"/><path d="M59,74.36a2,2,0,0,0,3.86,0,1.93,1.93,0,0,0-3.86,0Z" class="E"/><path d="M59,61.56V74.28c0,.61.86,1.11,1.93,1.11s1.8-.43,1.92-1a.57.57,0,0,0,0-.13V61.56c0,.62-.86,1.12-1.93,1.12S59,62.18,59,61.56Z" class="H"/><g class="E"><path d="M59,61.56V74.28c0,.61.86,1.11,1.93,1.11s1.8-.43,1.92-1a1.55,1.55,0,0,1-.24.19c-.6.4-1.49,0-2.05-1.89S60,63.53,60,63.53l1.69-.4a2,2,0,0,0,1.17-.71v-.86c0,.62-.86,1.12-1.93,1.12S59,62.18,59,61.56Z"/><path d="M62.81 61.56c0-.61-.86-1.11-1.93-1.11S59 61 59 61.56s.86 1.12 1.93 1.12 1.88-.5 1.88-1.12z"/></g><path d="M58.63 61.56c0-.8 1-1.43 2.25-1.43s2.25.63 2.25 1.43S62.14 63 60.88 63s-2.25-.63-2.25-1.44zm.64 0c0 .38.69.8 1.61.8s1.61-.42 1.61-.8-.69-.79-1.61-.79-1.61.42-1.61.79z" class="O"/><use href="#G" x="10.48" y="6.05" class="M"/><path d="M66.36 67.19l-5.14 2.97v.66l5.14-2.97v-.66z" class="B"/><path d="M61.22 70.16l-5.23-3.02v.66l5.23 3.02v-.66z" class="K"/><path d="M58.74,67.44a1.48,1.48,0,0,0,.59.57,3.69,3.69,0,0,0,3.3,0,1.55,1.55,0,0,0,.54-.5l3.19-.32-5.14,3-5.23-3Z" class="B"/><path d="M63.88,70.08a1.17,1.17,0,0,1,.69-1,3.69,3.69,0,0,1,3.3,0,1.18,1.18,0,0,1,.68,1v.65a1.17,1.17,0,0,0-.68-1,3.62,3.62,0,0,0-3.3,0,1.16,1.16,0,0,0-.69,1Z" class="F"/><path d="M67.87 69.12a3.69 3.69 0 0 0-3.3 0c-.63.37-.83.89-.59 1.35l-2.75-.3 5.14-3 5.23 3-3.19.32c.3-.43.12-.98-.54-1.37z" class="B"/><path d="M64.19,77.38c0,1.07.86,1.64,1.93,1.64s1.93-.57,1.93-1.64a1.93,1.93,0,0,0-3.86,0Z" class="E"/><path d="M64.19 64.59V77.3c0 .62.86 1.12 1.93 1.12s1.8-.43 1.92-1a.66.66 0 0 0 0-.14V64.59c0 .61-.86 1.11-1.93 1.11s-1.92-.5-1.92-1.11z" class="H"/><g class="E"><path d="M64.19 64.59V77.3c0 .62.86 1.12 1.93 1.12s1.8-.43 1.92-1l-.24.18c-.6.41-1.49 0-2-1.89s-.56-9.17-.56-9.17l1.69-.41a2 2 0 0 0 1.17-.71v-.85c0 .61-.86 1.11-1.93 1.11s-1.98-.48-1.98-1.09z"/><use href="#E" x="20.96" y="12.1"/></g><path d="M63.87 64.59c0-.81 1-1.44 2.25-1.44s2.25.63 2.25 1.44S67.38 66 66.12 66s-2.25-.61-2.25-1.41zm.64 0c0 .37.69.79 1.61.79s1.61-.42 1.61-.79-.69-.79-1.61-.79-1.61.41-1.61.79z" class="O"/><path d="M67.57 66.46v5.18s0 1.77-.29 1.56-.22-1.75-.22-1.75V66.7a.62.62 0 0 0 .51-.24z" class="M"/><use href="#F" x="20.96" y="12.1" class="B"/><path d="M66.46 73.19l-5.23-3.02v.65l5.23 3.02v-.65z" class="K"/><path d="M64,70.47a1.46,1.46,0,0,0,.59.56,3.62,3.62,0,0,0,3.3,0,1.45,1.45,0,0,0,.54-.49l3.19-.32-5.14,3-5.23-3Z" class="B"/><path d="M72.85 63.04l-7.14 4.12v16.75l7.14-4.12V63.04z" class="D"/><path d="M65.71 67.16l-.9-.52v16.75l.9.52V67.16z" class="F"/><use href="#D" x="26.4" y="15.24" class="B"/><path d="M26.43,41.75v0Z" fill="#1e55af"/><path d="M34.87 48.4a8.45 8.45 0 1 1-8.44-8.4 8.32 8.32 0 0 1 3.53.77 8.45 8.45 0 0 1 4.91 7.63z" class="D"/><path d="M21,43.56a11.88,11.88,0,0,1,10.77,0A5,5,0,0,1,33.47,45a7.82,7.82,0,0,0-14.09,0A5.19,5.19,0,0,1,21,43.56Z" fill="#b6d4ff"/><path d="M34,46.54c.06,1.17-.68,2.34-2.22,3.23a11.88,11.88,0,0,1-10.77,0c-1.54-.89-2.27-2.06-2.21-3.23a7.65,7.65,0,0,0-.24,1.86,7.84,7.84,0,0,0,15.67,0A7.64,7.64,0,0,0,34,46.54Z" fill="#fc7464"/><path d="M18.83,46.54A7.82,7.82,0,0,1,19.38,45Z" class="U"/><path d="M21 49.77a11.88 11.88 0 0 0 10.77 0c1.54-.89 2.28-2.06 2.22-3.23a7.25 7.25 0 0 0-.52-1.54 5 5 0 0 0-1.66-1.44 11.88 11.88 0 0 0-10.77 0A5.19 5.19 0 0 0 19.38 45a7.82 7.82 0 0 0-.55 1.54c-.06 1.17.67 2.34 2.17 3.23z" fill="#f66"/><path d="M22.31 44.61l1 .68a1.94 1.94 0 0 0 .81.33l-.42 1.47a6.54 6.54 0 0 0-.26 1.07 6.25 6.25 0 0 1-2.13-.87c-.74-.68-.93-1.2-.8-1.14a5.71 5.71 0 0 1 1-1 4.9 4.9 0 0 1 .8-.54z" class="M"/><path d="M28.59 29.81a1.61 1.61 0 0 1-.24.29l-.3.21-.33.15h-.08c-.1 0-.2.07-.3.09h-.07l-.38.07h-.08-.33-.29v12.72a3.46 3.46 0 0 0 1.86-.34 1.15 1.15 0 0 0 .66-.83.37.37 0 0 0 0-.11V29.37a.9.9 0 0 1-.12.44z" class="Q"/><g class="D"><path d="M25.68 30.62h-.05l-.26-.07-.19-.06-.22-.1-.16-.07a.71.71 0 0 1-.14-.1l-.08-.06-.11-.09-.12-.13-.07-.09a1 1 0 0 1-.07-.15.59.59 0 0 1 0-.08 1.55 1.55 0 0 1 0-.21V42v.11a1.15 1.15 0 0 0 .52.74l.14.09a3.07 3.07 0 0 0 .88.32l.51.06V30.68a4.43 4.43 0 0 1-.58-.06z"/><path d="M26.43 28.36a3 3 0 0 1 1.46.35c.33.19.51.42.51.66a.85.85 0 0 1-.51.66 3 3 0 0 1-1.46.34h-.24v.32h.29.33.08l.38-.07h.07c.1 0 .2-.06.3-.09h.08l.33-.15.3-.21a1.61 1.61 0 0 0 .24-.29.9.9 0 0 0 .13-.44 1.14 1.14 0 0 0-.67-.94 3.44 3.44 0 0 0-1.86-.37v.32z"/><path d="M24.13 29.4a1.55 1.55 0 0 0 0 .21.59.59 0 0 0 0 .08 1 1 0 0 0 .07.15l.07.09.12.13.11.09.22.16.16.07.22.1.19.06.26.07a3.43 3.43 0 0 0 .56.07v-.32A3.05 3.05 0 0 1 25 30a.68.68 0 0 1 0-1.32 2.9 2.9 0 0 1 1.23-.33v-.32a3.25 3.25 0 0 0-1.39.37 1.16 1.16 0 0 0-.67.94zm3.59 1.06h-.08zm-.83.21h0zm1.7-.86a1.61 1.61 0 0 1-.24.29 1.61 1.61 0 0 0 .24-.29zm-1.25.77h-.07z"/><path d="M25.63 30.61l-.26-.07zm-1.05-.46l-.11-.09zm-.23-.22l-.07-.09zm-.14-.24a.59.59 0 0 1 0-.08.59.59 0 0 0 0 .08zm2.27 1h0zm-1.3-.21l-.22-.1z"/></g><g fill="#8aacea"><path d="M25 28.71A.68.68 0 0 0 25 30a3.05 3.05 0 0 0 1.23.33v-2a2.9 2.9 0 0 0-1.23.38z"/><path d="M27.89 30a.85.85 0 0 0 .51-.66c0-.24-.18-.47-.51-.66a3 3 0 0 0-1.46-.35h-.24v2h.24a3 3 0 0 0 1.46-.33z"/></g><path d="M25.68 30.62v12.66a3.07 3.07 0 0 1-.88-.28l-.14-.09v-12.7a.71.71 0 0 0 .14.1 3.06 3.06 0 0 0 .88.31z" class="M"/><path d="M29.5 28.83a1.66 1.66 0 0 1-.8 1.43 4.83 4.83 0 0 1-4.35 0 1.94 1.94 0 0 1-1-1.43 1.53 1.53 0 0 1 .9-1.26 4.81 4.81 0 0 1 4.34 0 1.53 1.53 0 0 1 .91 1.26z" class="J"/><path d="M28.56 29.11a1.22 1.22 0 0 1-.49.46 3.66 3.66 0 0 1-3.29 0 1.29 1.29 0 0 1-.49-.46 1.36 1.36 0 0 1 .49-.45 3.66 3.66 0 0 1 3.29 0 1.28 1.28 0 0 1 .49.45z" class="D"/><path d="M0,103.76c0,2.93,5.92,4.37,9.35,2.32a2.84,2.84,0,0,0,1.6-2.32v1.37c0,2.92-5.92,4.37-9.35,2.32A2.82,2.82,0,0,1,0,105.12Z" class="C"/><path d="M0 103.76c0-2.93 5.92-4.38 9.35-2.33 2.13 1.29 2.14 3.37 0 4.65-3.42 2.05-9.35.6-9.35-2.32z" class="J"/><path d="M4.38 22.88c-1.47-1.29-1.47-5.22 0-4.75 1.48 1.3 1.48 5.22 0 4.75z" class="U"/><path d="M22.13 34.43v4.68a2.35 2.35 0 0 0 1.22 1.51c2.43 1.46 6.72.59 7.08-1.51v-4.68h-2a.88.88 0 0 1-.17.41c-1.07 1.32-4.08.83-4.23-.41z" class="C"/><path d="M27.37 35.46v5.81a5.49 5.49 0 0 0 1.87-.65v-8.06h-.74v1.87c-.07.51-.67.88-1.13 1.03z" class="D"/><path d="M22.13 34.43c0 1 1.05 1.68 1.95 2 1.9.71 4.66.42 5.9-1a1.72 1.72 0 0 0 0-2.34 3.74 3.74 0 0 0-1.48-.94v2.22c-.15 1.23-3.16 1.72-4.23.41-.27-.35-.18-.62-.18-2.64a3.77 3.77 0 0 0-1.6 1.09 1.68 1.68 0 0 0-.36 1.2z" class="J"/><path d="M8.06 50l15.29-9.6a4.33 4.33 0 0 0 .65-4.31.52.52 0 0 0-.66-.26l-15.29 9.6z" class="G"/><path d="M7.24,47.63,24.3,36.94a2.13,2.13,0,0,0-.29-.85L7.24,46.6Z" class="D"/><path d="M8 50.13c1.47-1.3 1.47-5.22 0-4.75-1.46 1.29-1.46 5.22 0 4.75z" class="U"/><path d="M7.67 16.37v2.94a.88.88 0 0 1-.17.41 2.87 2.87 0 0 1-2.6.74v-2.87c1.19.2 2.74-.31 2.77-1.22zm-3.77.88v2.87a1.11 1.11 0 0 1-.65-.94v-2.81a1.17 1.17 0 0 0 .65.88z" class="G"/><path d="M3.25 16.37h4.42a.86.86 0 0 1-.18.48c-1.09 1.35-4.19.8-4.24-.48z" class="U"/><path d="M7.67 19.18v84.37a1.29 1.29 0 0 1-.65.8c-1.3.78-3.55.32-3.75-.8V19.18c0 1.4 3.18 1.86 4.24.54a.82.82 0 0 0 .16-.54z" class="G"/><g class="D"><path d="M4.89 17.59v2.87a2.6 2.6 0 0 1-1-.34v-2.87a2.83 2.83 0 0 0 1 .34z"/><path d="M4.89 20.46v84.23a2.83 2.83 0 0 1-1-.34V20.12a2.6 2.6 0 0 0 1 .34zm0-5.08v2.21a2.83 2.83 0 0 1-1-.34v-1.87z"/></g><path d="M7.67 16.37c-.08 1.35-3.19 1.78-4.23.48a.87.87 0 0 1 0-1.08c1.07-1.33 4.32-.84 4.23.6z" class="J"/><path d="M9.63 19.31V24a2.42 2.42 0 0 1-1.22 1.5C6 27 1.69 26.12 1.32 24v-4.69h2a.71.71 0 0 0 .17.41c1.06 1.32 4.07.83 4.22-.41z" class="C"/><path d="M4.38 20.34v5.81a5.35 5.35 0 0 1-1.87-.65v-8.06h.74v1.87c.08.51.68.89 1.13 1.03z" class="D"/><path d="M9.63 19.31c-.05 1-1.06 1.68-2 2-1.92.72-4.66.4-5.9-.95a1.74 1.74 0 0 1 0-2.34 3.81 3.81 0 0 1 1.48-.95v2.22c.14 1.24 3.16 1.73 4.22.41.27-.35.18-.62.18-2.64a3.77 3.77 0 0 1 1.6 1.09 1.69 1.69 0 0 1 .42 1.16z" class="J"/><path d="M9.63 46v4.7a2.43 2.43 0 0 1-1.22 1.51c-2.41 1.44-6.72.61-7.09-1.51v-4.68h2a.74.74 0 0 0 .17.41c1.06 1.31 4.07.83 4.22-.41z" class="C"/><path d="M4.38 47v5.82a5.79 5.79 0 0 1-1.87-.65v-8.02h.74a17.3 17.3 0 0 0 0 1.87c.08.51.68.88 1.13.98z" class="D"/><path d="M9.63 46c-.05 1-1.06 1.68-2 2-1.92.71-4.66.4-5.9-1a1.74 1.74 0 0 1 0-2.34 4 4 0 0 1 1.48-1v2.23c.14 1.23 3.16 1.72 4.22.41.27-.35.18-.61.18-2.64a3.69 3.69 0 0 1 1.6 1.09A1.67 1.67 0 0 1 9.63 46z" class="J"/><path d="M51.2 39.32a.48.48 0 0 1-.46-.32l-5.05-13a.5.5 0 1 1 .93-.36l5.05 13a.5.5 0 0 1-.29.65.57.57 0 0 1-.18.03z" class="P"/><use href="#H" class="I"/><use href="#I" class="L"/><use href="#J" class="N"/><path d="M62.86 47.06a.57.57 0 0 1-.25-.06l-10.27-5.93a.51.51 0 0 1-.18-.69.49.49 0 0 1 .68-.18l10.27 5.93a.5.5 0 0 1 .19.68.49.49 0 0 1-.44.25z" class="P"/><path d="M61.64,47a2.36,2.36,0,0,0,4.28,1.39A2.31,2.31,0,0,0,66.37,47,2.37,2.37,0,0,0,64,44.64,2.36,2.36,0,0,0,61.64,47Z" class="I"/><path d="M62.28 46.4a2.37 2.37 0 0 0 2.37 2.36 2.28 2.28 0 0 0 1.27-.37 2.31 2.31 0 0 0 .45-1.39A2.37 2.37 0 0 0 64 44.64a2.33 2.33 0 0 0-1.27.37 2.38 2.38 0 0 0-.45 1.39z" class="L"/><path d="M64.54 47.51a.52.52 0 0 1-.29-.09.51.51 0 0 1-.12-.7l5.14-7.31a.5.5 0 1 1 .81.58L65 47.29a.5.5 0 0 1-.46.22zM46.189 24.837l5.135-7.306.818.575-5.135 7.306z" class="P"/><path d="M43.52 25.14a2.37 2.37 0 1 0 2.37-2.36 2.28 2.28 0 0 0-1.27.37 2.35 2.35 0 0 0-1.1 1.99z" class="I"/><path d="M44.17 24.54a2.37 2.37 0 0 0 3.64 2 2.36 2.36 0 0 0-1.92-3.75 2.28 2.28 0 0 0-1.27.37 2.31 2.31 0 0 0-.45 1.38z" class="L"/><path d="M46.24 24.39a.32.32 0 1 0 .64 0 .33.33 0 0 0-.32-.32.32.32 0 0 0-.32.32z" class="N"/><path d="M49.48 17.34a2.37 2.37 0 1 0 1.1-2 2.37 2.37 0 0 0-1.1 2z" class="I"/><path d="M50.13 16.74a2.37 2.37 0 0 0 2.36 2.37 2.32 2.32 0 0 0 1.28-.38 2.37 2.37 0 0 0-3.19-3.38 2.31 2.31 0 0 0-.45 1.39z" class="L"/><path d="M52.2 16.59a.32.32 0 0 0 .32.32.32.32 0 1 0 0-.63.31.31 0 0 0-.32.31z" class="N"/><path d="M69.63 38.65a.51.51 0 0 1-.47-.32l-5-13a.5.5 0 0 1 .93-.36l5 13a.5.5 0 0 1-.29.64.39.39 0 0 1-.17.04z" class="P"/><use href="#H" x="18.62" y="-0.43" class="I"/><use href="#I" x="18.62" y="-0.43" class="L"/><path d="M70.6 38.68a.21.21 0 0 0 .21.21.22.22 0 0 0 .21-.21.21.21 0 0 0-.42 0z" class="N"/><path d="M63.33,24.25a.45.45,0,0,1-.25-.07L52.81,18.25a.5.5,0,1,1,.5-.86l10.27,5.93a.5.5,0,0,1-.25.93Z" class="P"/><path d="M61.45,24a2.37,2.37,0,1,0,2.37-2.37,2.31,2.31,0,0,0-1.27.38A2.35,2.35,0,0,0,61.45,24Z" class="I"/><path d="M62.1 23.36a2.37 2.37 0 0 0 2.37 2.37 2.31 2.31 0 0 0 1.27-.37 2.37 2.37 0 0 0-1.92-3.76 2.31 2.31 0 0 0-1.27.38 2.37 2.37 0 0 0-.45 1.38z" class="L"/><use href="#J" x="12.26" y="-15.89" class="N"/><path d="M31.26 17.86A2 2 0 0 0 34.83 19a2 2 0 0 0-1.63-3.16 1.94 1.94 0 0 0-1.06.31 2 2 0 0 0-.88 1.71z" class="I"/><path d="M31.79 17.35a2 2 0 0 0 2 2 2 2 0 0 0 1.04-.35 2 2 0 0 0-1.63-3.16 1.94 1.94 0 0 0-1.06.31 1.91 1.91 0 0 0-.35 1.2z" class="L"/><path d="M33.41,17.23a.38.38,0,1,0,.75,0,.38.38,0,0,0-.75,0Z" class="N"/><path d="M44.58 25.07a.55.55 0 0 1-.25-.07l-10.28-5.93a.51.51 0 0 1-.18-.69.5.5 0 0 1 .68-.18l10.28 5.93a.51.51 0 0 1 .18.69.5.5 0 0 1-.43.25zm6.76-8.42a.48.48 0 0 1-.46-.32l-5.05-13a.5.5 0 0 1 .93-.33l5.05 13a.49.49 0 0 1-.29.64.39.39 0 0 1-.18.01z" class="P"/><path d="M49.88 17.43a2 2 0 0 0 3.57 1.16 2 2 0 0 0-1.63-3.16 1.94 1.94 0 0 0-1.06.31 2 2 0 0 0-.88 1.69z" class="I"/><path d="M50.41 16.93a2 2 0 0 0 3.06 1.69 2 2 0 0 0-1.63-3.16 1.94 1.94 0 0 0-1.06.31 1.92 1.92 0 0 0-.37 1.16z" class="L"/><path d="M52.23 16.8a.18.18 0 0 0 .18.18.18.18 0 0 0 .17-.18.18.18 0 0 0-.17-.17.18.18 0 0 0-.18.17z" class="N"/><path d="M43.56,2a2,2,0,1,0,2-2,1.94,1.94,0,0,0-1.06.31A2,2,0,0,0,43.56,2Z" class="I"/><path d="M44.1 1.47a2 2 0 0 0 2 2 1.91 1.91 0 0 0 1.06-.31A2 2 0 0 0 45.53 0a1.94 1.94 0 0 0-1.06.31 2 2 0 0 0-.37 1.16z" class="L"/><path d="M45.72,1.35a.38.38,0,0,0,.75,0,.38.38,0,1,0-.75,0Z" class="N"/><path d="M70.731 39.667l.461-.887 13.125 6.818-.461.887z" class="P"/><path d="M82.23 45.57a2 2 0 0 0 3.57 1.16 2 2 0 0 0-1.63-3.16 1.91 1.91 0 0 0-1.06.31 2 2 0 0 0-.88 1.69z" class="I"/><path d="M82.76 45.07a2 2 0 0 0 2 2 1.94 1.94 0 0 0 1.06-.31 2 2 0 0 0-1.63-3.16 1.91 1.91 0 0 0-1.06.31 1.92 1.92 0 0 0-.37 1.16z" class="L"/><path d="M84.49,44.94a.27.27,0,1,0,.53,0,.27.27,0,0,0-.53,0Z" class="N"/><path d="M42,112.74c0,3.26,4.58,5.91,10.23,5.91s10.24-2.65,10.24-5.91-4.59-5.91-10.24-5.91S42,109.47,42,112.74Z" class="E"/><circle cx="51.92" cy="104.03" r="12.55" transform="matrix(.969616 -.244631 .244631 .969616 -23.87 15.86)" class="O"/><circle cx="51.92" cy="104.03" r="12.15" class="H"/><path d="M39.45 104a12.47 12.47 0 1 1 12.47 12.5A12.49 12.49 0 0 1 39.45 104zm.64 0a11.83 11.83 0 1 0 11.83-11.81A11.84 11.84 0 0 0 40.09 104z" class="O"/><path d="M41.72 108.22a11 11 0 0 0 20.5-.25c.47-1.23-21.04-1.05-20.5.25z" fill="#ffda23"/><path d="M41.42 108.34a.48.48 0 0 1 .17-.56c1.44-1.12 19.28-1.32 20.75-.23a.46.46 0 0 1 .18.53 11.35 11.35 0 0 1-21.1.26zm.65-.11a10.71 10.71 0 0 0 19.79-.23c-1.78-.88-18.13-.69-19.79.23z" class="O"/><path d="M41.38 106.66c0 1.55 1 3.11 3.09 4.3a16.48 16.48 0 0 0 14.89 0c2.06-1.19 3.09-2.75 3.09-4.3s-1-3.12-3.09-4.3a16.42 16.42 0 0 0-14.89 0c-2.06 1.18-3.09 2.74-3.09 4.3z" fill="#ffe53e"/><path d="M42 96.78h-.14a2.11 2.11 0 0 0-1.37.46 1.48 1.48 0 0 0-.29.26 2.39 2.39 0 0 0-.52.73 2.22 2.22 0 0 0 .25 2.57 1.72 1.72 0 0 0 .38.29A2.4 2.4 0 0 0 42.55 97l-.23-.11a1.86 1.86 0 0 0-.32-.11z" class="H"/><path d="M40.27 101.08l.8.44a1.82 1.82 0 0 0 1.4 0 2.36 2.36 0 0 0 .84-.55c1.14-1.12 1.11-3-.05-3.62l-.71-.4a1.73 1.73 0 0 1 .58.59A2.45 2.45 0 0 1 43 100a2.16 2.16 0 0 1-2.73 1.08z" class="E"/><path d="M41.63 101.67h-.09a2.13 2.13 0 0 0 2.93-1.21 2 2 0 0 0-.76-2.71 2.49 2.49 0 0 1-.4 3.26 2.09 2.09 0 0 1-1.68.66z" class="H"/><path d="M45.12 100.82a2.35 2.35 0 0 1-2 1.46l1.63.9h0a1.39 1.39 0 0 0 .44.13 2.24 2.24 0 0 0 2.13-2.55 1.52 1.52 0 0 0-.72-1.15l-1.58-.87a2.25 2.25 0 0 1 .1 2.08z" fill="#eff9ff" opacity=".56"/><path d="M44.47 100.45a2.35 2.35 0 0 1-2 1.46l1.63.89h0a1.41 1.41 0 0 0 .44.14 2.25 2.25 0 0 0 2.13-2.55 1.48 1.48 0 0 0-.67-1.13l-1.58-.87a2.25 2.25 0 0 1 .05 2.06z" class="C"/><path d="M82.1 81.67l-6 .11-4.35.22c-4.24.32-9.37 1-13.3 2.54A13.4 13.4 0 0 0 52 89.47a22.9 22.9 0 0 0-1.91 3.61.68.68 0 0 0 .23.77 3 3 0 0 0 1.12.63 6.49 6.49 0 0 0 2.9.29 3.2 3.2 0 0 0 1.09-.33.88.88 0 0 0 .46-.54A7.79 7.79 0 0 1 58 89c3.82-3.85 13-5.26 18.4-5.86l4.91-.44a1.32 1.32 0 0 0 1.06-.77.18.18 0 0 0-.1-.22.37.37 0 0 0-.17-.04z" class="B"/><path d="M70.54 83.23s-8.09 1-11.09 3.23c-3.58 2.69-3.33 3.81-3.85 3.87s-1.66-2.33 4.52-4.94a36.65 36.65 0 0 1 10.42-2.16zM55.91 97.59s3.14 1.47 4.11 3.77.7 2.49 0 2.88-1.41-1.91-1.74-3.63-2.37-3.02-2.37-3.02zm-9.63 2.61s.52.63.09.47a16.25 16.25 0 0 1-1.48-.72s-.3-.31.1-.28a5.61 5.61 0 0 1 1.29.53zm-4.74-3.14a1.39 1.39 0 0 1 1.17.8c.39.81 0 1.68-.25 1.59s.19-1.27-.13-1.71a2.4 2.4 0 0 0-.79-.68z" class="M"/><g class="C"><path d="M80.14 100a7.88 7.88 0 0 0-7.17.07c-2 1.17-1.9 3 .11 4.15a7.89 7.89 0 0 0 7.16-.07c1.95-1.15 1.9-2.99-.1-4.15z"/><path d="M77.59 100.77l-1 1.38 1-1.38a2.22 2.22 0 0 0-2 0c-.57.34-.56.89 0 1.22a2.29 2.29 0 0 0 2.1 0c.55-.35.49-.89-.1-1.22zm1.14-7.49a1.67 1.67 0 0 0-.51-.41l3 4.22a4.82 4.82 0 0 1 1.42 1.15z"/><path d="M70.53,98.28a4.34,4.34,0,0,1,1.29-1.1,10.38,10.38,0,0,1,9.43-.09l-3-4.22a3.65,3.65,0,0,0-3.33,0,1.66,1.66,0,0,0-.46.39Z"/><path d="M82.67 98.24a4.69 4.69 0 0 0-1.42-1.15c.51.71-.11 2.35-1.11 3 2 1.12 2 3 .1 4.15a7.89 7.89 0 0 1-7.16.07c-2-1.13-2.06-3-.11-4.15a7.88 7.88 0 0 1 7.17-.07c1-.6 1.62-2.24 1.11-3a10.38 10.38 0 0 0-9.43.09 4.47 4.47 0 0 0-1.29 1.1 3.72 3.72 0 0 0-.84 2.72 3.16 3.16 0 0 0 .21.88 4.34 4.34 0 0 0 .28.62 2.77 2.77 0 0 0 .31.45 4.83 4.83 0 0 0 .59.65 6 6 0 0 0 .71.55c.35.22.61.34.81.45a8.83 8.83 0 0 0 .87.34 6.87 6.87 0 0 0 .89.25 9.44 9.44 0 0 0 1.86.23 10.35 10.35 0 0 0 1.88-.1c.12 0 .49-.07.93-.18l.9-.27.47-.19.79-.41a7 7 0 0 0 1-.7 4.45 4.45 0 0 0 .83-1 3.91 3.91 0 0 0 .46-1.1c0-.2.08-.46.1-.65s0-.42 0-.6a3.91 3.91 0 0 0-.22-.88 4.31 4.31 0 0 0-.22-.49l-.47-.61z"/></g><path d="M81.19 104.27a5.77 5.77 0 0 0 1.46-1.27 3.86 3.86 0 0 0 .79-1.6 4.14 4.14 0 0 0 .09-.6v-.33a3.07 3.07 0 0 0-.07-.6 4.3 4.3 0 0 0-.3-.87 3.3 3.3 0 0 0-.16-.3c-.08-.14-.21-.32-.31-.46 1.11 1.41.69 3.13-1.28 4.31a10.4 10.4 0 0 1-9.44.1c-2.08-1.17-2.56-2.93-1.42-4.37l-.41.61a5.32 5.32 0 0 0-.29.69 3.6 3.6 0 0 0-.13 1.47 3.8 3.8 0 0 0 .36 1.22 4.67 4.67 0 0 0 .92 1.24 6 6 0 0 0 1.18.86 8.59 8.59 0 0 0 .81.39l.93.32.91.2.94.12a9.45 9.45 0 0 0 1.41 0 8 8 0 0 0 .94-.09 8.19 8.19 0 0 0 3.07-1.04z" class="D"/><path d="M81.5 102.74a10.65 10.65 0 0 1-9.66.1 4.24 4.24 0 0 1-1.93-2v.16a3.64 3.64 0 0 0 .34 1.14 4.18 4.18 0 0 0 .88 1.17 5.47 5.47 0 0 0 1.13.83 6.8 6.8 0 0 0 .79.38 9.44 9.44 0 0 0 .9.31l.89.2.91.11a10.72 10.72 0 0 0 1.39 0s.43 0 .92-.09a8.08 8.08 0 0 0 3-1 5.38 5.38 0 0 0 1.41-1.2 3.75 3.75 0 0 0 .74-1.52 4.67 4.67 0 0 0 .08-.52 4.11 4.11 0 0 1-1.79 1.93z" class="H"/><path d="M74.21 93.86a1.19 1.19 0 0 1 .68-1 3.65 3.65 0 0 1 3.33 0v-5.3a3.68 3.68 0 0 0-3.34 0 1.16 1.16 0 0 0-.67 1v5.3z" class="C"/><path d="M75.16 88.73q0 6.33 0 12.66a.73.73 0 0 1 .42-.6 2.22 2.22 0 0 1 2 0V88.14a2.3 2.3 0 0 0-2 0 .71.71 0 0 0-.42.59zm2.93 12.65L78 88.72a.64.64 0 0 0-.38-.58v12.63a.81.81 0 0 1 .47.61z" class="F"/><path d="M78 88.72a.68.68 0 0 1-.39.57 2.21 2.21 0 0 1-2 0 .72.72 0 0 1-.43-.58q0 6.33 0 12.66a.76.76 0 0 0 .45.62 2.29 2.29 0 0 0 2.1 0 .72.72 0 0 0 .42-.6L78 88.72z" class="C"/><path d="M72 102.65a10.4 10.4 0 0 0 9.44-.1c2-1.18 2.39-2.9 1.28-4.31l-3.94-5c.4.5.25 1.11-.45 1.52a3.68 3.68 0 0 1-3.34 0 1.23 1.23 0 0 1-.73-1v-.3l-3.69 4.72c-1.18 1.54-.69 3.3 1.43 4.47z" class="H"/><path d="M78.94 88.55a1.19 1.19 0 0 0-.72-1v5.3a1.19 1.19 0 0 1 .72 1v-5.3z" class="C"/><path d="M78.94 93.85v-5.3a1.17 1.17 0 0 1-.68 1 3.68 3.68 0 0 1-3.34 0 1.21 1.21 0 0 1-.71-1v5.3a1.22 1.22 0 0 0 .73 1 3.68 3.68 0 0 0 3.34 0 1.16 1.16 0 0 0 .66-1z" class="D"/><path d="M74.83 95a1.4 1.4 0 0 1-.83-1.14v-5.3h.45a1 1 0 0 0 .59.78 3.43 3.43 0 0 0 3.12 0 1 1 0 0 0 .56-.76h.45v5.3a1.38 1.38 0 0 1-.78 1.12 3.86 3.86 0 0 1-3.56 0zm3.55-5.33a3.91 3.91 0 0 1-3.57 0 2.68 2.68 0 0 1-.37-.26v4.39c0 .28.22.56.61.78a3.41 3.41 0 0 0 3.11 0 .93.93 0 0 0 .55-.76v-4.4a2.19 2.19 0 0 1-.33.28z" class="H"/><g class="C"><path d="M78.58 89.68a4.38 4.38 0 0 1-4 0c-1.11-.62-1.14-1.65-.06-2.29a4.32 4.32 0 0 1 4 0c1.11.61 1.13 1.61.06 2.29zm-3.7-2.08c-.91.55-.89 1.41 0 1.94a3.68 3.68 0 0 0 3.34 0 1 1 0 0 0 0-1.93 3.68 3.68 0 0 0-3.34-.01z"/><path d="M80.06 88a1.61 1.61 0 0 0-.3-1 2.55 2.55 0 0 0-.9-.8.36.36 0 0 1 .15.31 1.12 1.12 0 0 1-.49.87c1.11.62 1.13 1.64.06 2.29a4.38 4.38 0 0 1-4 0c-1.11-.62-1.14-1.65-.06-2.29a4.32 4.32 0 0 1 4 0 1.12 1.12 0 0 0 .49-.87.36.36 0 0 0-.15-.31 4.62 4.62 0 0 0-1.86-.52 5.33 5.33 0 0 0-1.22 0 4.55 4.55 0 0 0-1 .23 4 4 0 0 0-.86.45 2.57 2.57 0 0 0-.59.6 1.68 1.68 0 0 0-.25 1.45 2.23 2.23 0 0 0 1 1.2 4.23 4.23 0 0 0 .41.23c.22.1.43.17.43.17l.46.13a6.6 6.6 0 0 0 .72.11 5.63 5.63 0 0 0 1.23 0 6 6 0 0 0 1-.24 3.69 3.69 0 0 0 .88-.47 2.28 2.28 0 0 0 .63-.67 1.72 1.72 0 0 0 .22-.87z"/></g><path d="M73.82 87.48c1 0 1.29.51 1.35 1.28a.67.67 0 0 1 .39-.6 2.3 2.3 0 0 1 2 0 2.11 2.11 0 0 1 .89-1.88 4.3 4.3 0 0 0-3.89 0 1.32 1.32 0 0 0-.74 1.2zM78 88.76c.06-.78.39-1.31 1.34-1.29a1.34 1.34 0 0 0-.83-1.21 2.11 2.11 0 0 0-.89 1.88.63.63 0 0 1 .38.62z" class="E"/><path d="M77.89 88.42a2.15 2.15 0 0 1-.57.22 2.93 2.93 0 0 1-.73.09h-.45a2.42 2.42 0 0 1-.42-.09 1.44 1.44 0 0 1-.67-.35 1.74 1.74 0 0 1 .12.49.71.71 0 0 0 .42.55 2.21 2.21 0 0 0 2 0 .7.7 0 0 0 .39-.53 1.59 1.59 0 0 1 .11-.49.88.88 0 0 1-.2.11z" class="C"/><path d="M78 88.76a1.28 1.28 0 0 1 .11-.49 2.24 2.24 0 0 1-1.49.46 2.16 2.16 0 0 1-1.54-.46 1.33 1.33 0 0 1 .12.49c-.06-.77-.4-1.3-1.35-1.28a1.4 1.4 0 0 0 .83 1.08 4.3 4.3 0 0 0 3.89 0 1.39 1.39 0 0 0 .77-1c-.98-.11-1.34.44-1.34 1.2z" class="E"/><path d="M78.57 88.54a4.38 4.38 0 0 1-4 0 1.22 1.22 0 0 1 0-2.3 4.38 4.38 0 0 1 4 0c1.05.63 1.08 1.65 0 2.3zm-4-2.24c-1.06.64-1 1.65.06 2.26a4.3 4.3 0 0 0 3.89 0c1.06-.64 1-1.64-.06-2.26a4.3 4.3 0 0 0-3.87 0z" class="C"/><path d="M78.93 89.71a2.62 2.62 0 0 0 .83-.76 1.67 1.67 0 0 0 .3-1 2.06 2.06 0 0 0-1.2-1.76.33.33 0 0 0-.34 0c1.1.63 1.13 1.65 0 2.3a4.38 4.38 0 0 1-4 0 1.22 1.22 0 0 1 0-2.3 4.38 4.38 0 0 1 4 0 .33.33 0 0 1 .34 0l-.19-.11-.24-.1a3.81 3.81 0 0 0-.69-.21 5.15 5.15 0 0 0-1.22-.13 5.59 5.59 0 0 0-1.21.15 4.2 4.2 0 0 0-1.07.42 2.22 2.22 0 0 0-1.14 1.43 1.62 1.62 0 0 0 .08.92 2 2 0 0 0 .5.74 4.07 4.07 0 0 0 2.44 1 4.85 4.85 0 0 0 2.81-.59z" class="H"/><path d="M70.39 101.55a6.47 6.47 0 0 0 6.19 3.22c3.88-.28 5.57-1.57 6.11-3.33a4.1 4.1 0 0 0-1.17-3.83 1.73 1.73 0 0 1 .15.7c0 1.6-2.24 2.89-5 2.89s-5-1.29-5-2.89a1.76 1.76 0 0 1 .23-.86c-.06.06-2.38 2.24-1.51 4.1z" fill="#e84343" class="T"/><g class="T"><path d="M71.67 98.31c0 1.6 2.24 2.89 5 2.89s5-1.29 5-2.89a1.73 1.73 0 0 0-.15-.7c-.52-1.25-2.52-2.18-4.85-2.18s-4.13.85-4.77 2a1.76 1.76 0 0 0-.23.88z" fill="#f66"/></g><path d="M79.61 96.52s2.66 3.51 2.55 4 .15.88-.49.39-2.06-4.39-2.06-4.39z" class="M"/><defs ><path id="B" d="M25.24,80.19c0,.46.65.83,1.44.83s1.44-.37,1.44-.83v1.13c0,.45-.64.83-1.44.83s-1.44-.38-1.44-.83Z"/><path id="C" d="M25.24 80.19c0-.46.65-.83 1.44-.83s1.44.37 1.44.83-.64.83-1.44.83-1.44-.37-1.44-.83z"/><path id="D" d="M46.45 47.8l-.9-.52-7.14 4.12.9.52 7.14-4.12z"/><path id="E" d="M47.09 52.49c0-.62-.86-1.12-1.93-1.12s-1.93.5-1.93 1.12.86 1.11 1.93 1.11 1.93-.5 1.93-1.11z"/><path id="F" d="M50.64 58.12l-5.14 2.97v.65l5.14-2.96v-.66z"/><path id="G" d="M51.85 57.39v5.18s0 1.77-.29 1.55-.22-1.74-.22-1.74v-4.75a.62.62 0 0 0 .51-.24z"/><path id="H" d="M49.15 39.86a2.38 2.38 0 1 0 1.09-2 2.37 2.37 0 0 0-1.09 2z"/><path id="I" d="M49.79 39.25a2.37 2.37 0 0 0 2.37 2.37 2.43 2.43 0 0 0 1.28-.37 2.37 2.37 0 0 0-1.92-3.76 2.35 2.35 0 0 0-1.28.38 2.37 2.37 0 0 0-.45 1.38z"/><path id="J" d="M51.74 39.11a.45.45 0 1 0 .45-.45.45.45 0 0 0-.45.45z"/></defs></svg>