<svg xmlns="http://www.w3.org/2000/svg" viewBox="0 0 115.56 107.99" xmlns:v="https://vecta.io/nano"><style><![CDATA[.B{fill:#5195fb}.C{fill:#c9defe}.D{fill:#e1edff}.E{fill:#b1d0fe}.F{fill:#99c1fd}.G{fill:#69a4fc}.H{fill:#6bb1ac}.I{fill:#1c6df6}.J{fill:#d8e7f5}]]></style><path d="M55.15 77.6a2.37 2.37 0 0 1 .72-.67 19 19 0 0 1 2-.59l10.64-6.17c.11 0 18.6-10.7 18.6-10.7l25 12.34-17 7.79s-.11 1.21-2.72 2.55a14.15 14.15 0 0 1-2.7.62 140.68 140.68 0 0 0-12.88 6.39c-.68.37-2.22 1.34-2.33 1.36L55.25 77.87c-.11 0-.16-.12-.1-.27z" fill="#fcd561"/><use href="#B" class="H"/><path d="M76.07 67.06l15.84-6.94a.41.41 0 0 0 .14-.39c0-.11-.17-.1-.29 0l-15.84 6.95a.43.43 0 0 0-.14.4c.04.1.22.1.29-.02z" fill="#9faa8f"/><use href="#B" class="H"/><path d="M76.83 83.7L57.74 71.16a13.5 13.5 0 0 0-1 3.72q0 .32-.09.66c0 .3-.07.62-.1.95v.45l18.57 12.21.8-1z" class="E"/><path d="M75.11 87.32c.3-1.87 1.07-1.61 1.72-3.62l6.23-8.29 9.52 3.82 15.17-11.15a1.58 1.58 0 0 1 .31.13l.22.15.17.13.11.09a4.28 4.28 0 0 1 .33.29l.21.19.19.2.13.14.19.22.13.16.12.16.5.77.14.25v.08.09l.09.21a1.8 1.8 0 0 1 .08.21.49.49 0 0 1 0 .11l.07.22c0 .1-15.79 7.33-15.79 7.33l-.1.2c-1.44-.38-3.34.57-4.84 2.38l-.07.09-.1-.12L75 89.15a11.23 11.23 0 0 1 .11-1.83z" class="F"/><g class="H"><use href="#C"/><use href="#D"/></g><g fill="#feb30f"><path d="M95.32 79.93l16.68-7.7a.43.43 0 0 0 .15-.42c0-.11-.18-.1-.31 0l-16.63 7.7A.45.45 0 0 0 95 80c.06.06.2.05.32-.07zm-5.65 2.84l-15.14 7.76c-.12 0-.17-.12-.11-.29s.21-.3.33-.3l15.14-7.76c.12 0 .16.13.1.29s-.2.3-.32.3z"/><path d="M89.91 82.21c1.48.43 3.56-.62 5.18-2.61l.27.31c-1.81 2.23-4.12 3.39-5.77 2.91l.32-.61z"/></g><path d="M92.58 79.23s-.74-7.38.72-8.55c2.28-1.84 14.45-2.6 14.45-2.6a1.58 1.58 0 0 1 .31.13 7.3 7.3 0 0 1 1.86 1.79c.06.09 1.06 1.73.94 1.85l-16 7.33-.1.07h-.2c-.03 0-1.99.08-1.98-.02z" class="C"/><g class="F"><use href="#C"/><use href="#D"/></g><path d="M107.86 68.11L89.64 56.84s-7 1-11.45 4.85A56.63 56.63 0 0 0 73.65 67l18.93 12.23a13 13 0 0 1 4.32-6.38c4.03-3.28 10.96-4.74 10.96-4.74z" class="D"/><path d="M92.58 79.23L73.65 67s-3.39-1.53-4.58-1.42c-6.32.55-11.33 5.58-11.33 5.58L76.83 83.7s6-5.37 10.58-5.65c1.32-.05 5.17 1.18 5.17 1.18z" class="C"/><g class="F"><path d="M13.29 100.69l38.23 7.15.13.15-38.23-7.15-.13-.15z"/><path d="M51.52 107.84l10.05-17.91.13.15-10.05 17.91-.13-.15z"/></g><path d="M13.29 100.69l10.05-17.91 38.23 7.15-10.05 17.91-38.23-7.15z" class="C"/><g class="B"><path d="M26.78 84.64l-8.9 15.87-.5-.1 8.9-15.86.5.09z"/><use href="#E"/><use href="#F"/><use href="#G"/><use href="#E" x="10.1" y="1.89"/><use href="#F" x="10.1" y="1.89"/><use href="#G" x="10.1" y="1.89"/><path d="M50.35 89.05l-8.9 15.87-.5-.1 8.9-15.86.5.09zm3.37.63l-8.91 15.87-.5-.1 8.91-15.87.5.1zm3.36.63l-8.9 15.86-.5-.09 8.91-15.86.49.09z"/></g><path d="M71.82 103.5v.56l.67.45h.79l27.02-15.87s-.24-.53 0-.73 1-.56 1.06-.71.17-.28 0-.27a14 14 0 0 0-1.57.64l-1.57.56z" style="mix-blend-mode:multiply" fill="#c6dffd"/><path d="M101.44 86.4a.23.23 0 0 1-.11.2l-.56.29-1.28 1.49-.58-1.38-.06-.25a12 12 0 0 0 1.75-.13l.58-.29a.24.24 0 0 1 .26.07z" fill="#fceab2"/><path d="M99.81 87.93l-.32.45-27.39 15.65-.64-1.65 27.39-15.64.64.37.32.82z" fill="#fcdc79"/><path d="M72.1 102.75l-.64-.37-.32.45.32.83.64.37.32-.46-.32-.82z" fill="#fceab2"/><path d="M71.88 103l-.11-.07a.19.19 0 0 0-.25.06.19.19 0 0 0 0 .18l.1.25a.24.24 0 0 0 .08.09l.12.07a.19.19 0 0 0 .25-.06.22.22 0 0 0 0-.18L72 103a.18.18 0 0 0-.12 0z" fill="#fccd4b"/><path d="M99.49 87.11l-27.4 15.64.33.82 27.39-15.64-.32-.82zm1.95-.71a.23.23 0 0 1-.11.2l-.56.29-.19.11.1-.29h-.27l.19-.13.58-.29a.24.24 0 0 1 .26.11z" fill="#fbc429"/><g fill="#fc7464"><path d="M55.57 92.44l2-1.17a.06.06 0 0 1 .07 0l-2 1.17a.06.06 0 0 0-.07 0zm4.9 2.8l2.02-1.17v1.5l-2.02 1.17v-1.5z"/><path d="M55.64 92.45l2.02-1.17 4.83 2.79-2.02 1.17-4.83-2.79z"/></g><path d="M60.47,95.24v1.5l-3.46-2a2,2,0,0,1-.73-.8l-.72-1.26c-.07-.14,0-.29.08-.23Z" fill="#fc5552"/><g fill="#e4effc"><path style="mix-blend-mode:multiply" d="M60.86 95.46l2.02-1.17v1.5l-2.02 1.17v-1.5z"/><path style="mix-blend-mode:multiply" d="M60.47 95.24l2.02-1.17.39.22-2.02 1.17-.39-.22z"/></g><path d="M60.86 95.46v1.5l-.39-.22v-1.5l.39.22z" fill="#fbbdbe"/><path d="M60.86 95.46l2.02-1.17 1.47.85-2.02 1.17-1.47-.85z" class="I"/><path d="M65.67 97.36l-2 1.18c.05 0 .06-.12 0-.22l2-1.18c.06.1.05.2 0 .22z" fill="#0b45b2"/><path d="M63.14 97.25l2.02-1.17.52 1.06-2.02 1.18-.52-1.07z" class="I"/><path d="M62.33 96.31l2-1.17a2.25 2.25 0 0 1 .81.94l-2 1.17a2.31 2.31 0 0 0-.81-.94z" fill="#3e85f4"/><path d="M62.33,96.31a2.31,2.31,0,0,1,.81.94l.52,1.07c.07.14,0,.27-.09.21L60.86,97v-1.5Z" fill="#0d47b3"/><path d="M1.87 28.25L49.33.36a1.64 1.64 0 0 1 1.6-.24l1.25.66-.74.64v27.29a3.79 3.79 0 0 1-1.87 2.9L2.11 59.5l-.3.16v.84l-1.22-.71a.92.92 0 0 1-.59-.85V31.15a3.79 3.79 0 0 1 1.87-2.9z" class="D"/><path d="M2.85 63.38v-2.1l1.58.83 46.71-27.46a4.16 4.16 0 0 1 3.72-.18L82.07 49.9l1.35-1.06v2.52a1.65 1.65 0 0 1-.89 1.1L35.06 80.35a4.13 4.13 0 0 1-3.72.19L3.42 64.7a1.23 1.23 0 0 1-.61-.7.94.94 0 0 1 .04-.62z" class="E"/><path d="M35,78,82.5,50.07c1.1-.65,1.21-1.61.25-2.16L54.83,32.08a4.13,4.13,0,0,0-3.72.19L3.64,60.16c-1.09.65-1.21,1.61-.25,2.16L31.31,78.15A4.13,4.13,0,0,0,35,78Z" class="D"/><path d="M67.07 43.82L24 69.11a2.47 2.47 0 0 1-2.22.11L7.59 61.15c-.57-.32-.5-.9.15-1.28l43-25.29a2.47 2.47 0 0 1 2.26-.11l14.23 8.07c.56.32.5.9-.16 1.28z" class="J"/><path d="M39.82 61.91l14-8.24a3 3 0 0 1 2.72-.13l6.69 3.79L46.84 67l-7.21-4.09a.94.94 0 0 1-.4-.39 1.43 1.43 0 0 1 .59-.61zm24.7-2.79l-7 4.13-1.68-1 8-4.66.93.53a1 1 0 0 1 .4.38 1.43 1.43 0 0 1-.65.62zm-8.69 3.17l-.52.31 1.68.95-6.49 3.82a3 3 0 0 1-2.72.13l-.41-.23z" fill="#bdd7fe"/><g fill="#81b2fc"><path d="M39.81 61.31l14-8.25a3 3 0 0 1 2.72-.13L63.77 57l-.52.31-6.69-3.79a3 3 0 0 0-2.72.13l-14 8.24a1.43 1.43 0 0 0-.59.58c-.25-.36-.02-.82.56-1.16z"/><path d="M65.11 58.54a1 1 0 0 0-.4-.38l-.93-.53-16.41 9.64-.53-.3L63.77 57l.94.53a.74.74 0 0 1 .4 1.01z"/></g><path d="M57.51 63.24l-.52.31-1.68-.95.52-.31 1.68.95z" class="J"/><path d="M8.22 58.82l40.74-23.95-1.2-.68L7.02 58.14l1.2.68z" fill="#d2e3f4"/><path d="M12.2 56.48l32.79-19.27-1.21-.68L10.99 55.8l1.21.68z" class="J"/><path d="M3.56 60.29L51 32.39a3.8 3.8 0 0 0 1.9-2.89V1.7c0-.95-1-1.2-2.11-.56L3.32 29a3.76 3.76 0 0 0-1.86 2.9v27.83c0 .95 1.01 1.21 2.1.56z" fill="#bdd7fe"/><path d="M2.45,59.84a1.47,1.47,0,0,0,.7-.25L50.62,31.7a3.06,3.06,0,0,0,1.47-2.2V1.71c0-.06-.12-.09-.12-.12H51.9a1.47,1.47,0,0,0-.7.25L3.73,29.74a3,3,0,0,0-1.47,2.19V59.72c0,.06.12.1.12.12Z" class="D"/><path d="M3,33.77V57.11a1.34,1.34,0,0,0,.27.7,1.84,1.84,0,0,0,1-.3L48.93,31.27a3.85,3.85,0,0,0,1.8-3V4.89a1.31,1.31,0,0,0-.27-.69,1.83,1.83,0,0,0-1,.3L4.78,30.73A3.87,3.87,0,0,0,3,33.77Z" class="I"/><path d="M3.34 58h-.2l-.05-.08a1.53 1.53 0 0 1-.31-.8V33.77a4.08 4.08 0 0 1 1.9-3.21L49.32 4.32A2 2 0 0 1 50.47 4h.1l.06.08a1.52 1.52 0 0 1 .3.8v23.35A4 4 0 0 1 49 31.44L4.39 57.68a2.1 2.1 0 0 1-1.05.32zm47-53.62a1.71 1.71 0 0 0-.82.28L4.88 30.91a3.61 3.61 0 0 0-1.7 2.86v23.34a1.3 1.3 0 0 0 .19.5 1.8 1.8 0 0 0 .81-.27L48.82 31.1a3.66 3.66 0 0 0 1.71-2.86V4.89a1.16 1.16 0 0 0-.19-.5z" fill="#7eade7"/><path d="M26.1 16.82c0 .55.45.73 1 .41a2 2 0 0 0 1-1.58c0-.55-.45-.74-1-.42a2.07 2.07 0 0 0-1 1.59z" fill="#1c2e6a"/><g class="B"><path d="M26.43 16.62a.32.32 0 0 0 .31.37.53.53 0 0 0 .36-.09 1.38 1.38 0 0 0 .65-1.06c0-.37-.3-.49-.66-.27h-.06a1.32 1.32 0 0 0-.6 1.05z"/><path d="M26.43 16.62a.32.32 0 0 0 .31.37h.06a1.3 1.3 0 0 0 .53-1 .32.32 0 0 0-.16-.32.19.19 0 0 0-.14-.05 1.32 1.32 0 0 0-.6 1z"/></g><path d="M26.64 16.62a.33.33 0 0 0 .16.32 1.3 1.3 0 0 0 .53-1 .32.32 0 0 0-.16-.32 1.31 1.31 0 0 0-.53 1z" class="G"/><path d="M78.7 53.96l2.61-1.53v-.83l-2.61 1.53v.83zM27.19 77.53l2.08 1.17V78l-2.08-1.18v.71zm-3.85-2.2l2.08 1.18v-.71l-2.08-1.18v.71z" fill="#70a5e5"/><g fill="#679fe3"><path d="M12.42 59.85L9.9 61.34l-1.34-.76v-.64l3.86-.73v.64z"/><use href="#H"/><use href="#H" x="37.61" y="-22.1"/><use href="#I"/><path d="M18.22 59.53l-2.52 1.48-2.2-1.25v-.69l4.72-.19v.65z"/><use href="#J"/><use href="#I" x="31.34" y="-18.42"/><path d="M43.3 44.79l-2.53 1.48-2.2-1.25v-.64l4.73-.23v.64z"/><use href="#K"/><path d="M37.03 48.48l-2.52 1.48-2.21-1.25v-.64l4.73-.24v.65z"/><use href="#J" x="-15.67" y="9.21"/><use href="#I" x="15.67" y="-9.21"/><path d="M27.63 54l-2.52 1.48-2.21-1.25v-.64l4.73-.23V54z"/><use href="#J" x="-25.07" y="14.73"/><use href="#K" x="-18.8" y="11.05"/><path d="M55.7 36.71l.13.71-5.65 3.33-2.21-1.25v-.64l7.73-2.15zM19.19 61.29v.64l-4.05 2.38-2.2-1.25v-.64l6.25-1.13z"/><use href="#L"/><path d="M22.45 62.98l-4.74 2.79-2.2-1.25v-.64l6.94-1.54v.64z"/><use href="#M"/><use href="#M" x="-3.34" y="1.99"/><path d="M45.81 48.67l-4.72.24v.64l2.2 1.25 2.52-1.49v-.64z"/><use href="#M" x="-10.01" y="5.98"/><use href="#M" x="-13.35" y="7.97"/><use href="#M" x="-16.69" y="9.97"/><use href="#N"/><use href="#O"/><path d="M25.79 60.64l-4.73.15v.72l2.21 1.25 2.52-1.48v-.64z"/><use href="#N" x="23.39" y="-13.94"/><path d="M60.97 39.7v.64l-4.56 2.68-2.21-1.25v-.64l6.77-1.43zM25.94 63.9l-5.66 3.32-2.2-1.25v-.64l7.86-2.07v.64z"/><use href="#I" x="13.98" y="0.69"/><use href="#M" x="4.79" y="0.15"/><use href="#O" x="25.01" y="-11.96"/><path d="M51 48.52l-4.73.24v.64l2.21 1.25L51 49.17v-.65z"/><use href="#N" x="15.4" y="-6.28"/><path d="M44.73 52.21l-4.73.23v.64l2.2 1.25 2.53-1.48v-.64zm-3.14 1.84l-4.63.29-.1.58 2.21 1.25 2.52-1.48v-.64z"/><use href="#O" x="9.32" y="-2.75"/><path d="M35.31 57.73l-4.72.24v.64l2.2 1.25 2.52-1.48v-.65zm-3.14 1.85l-4.65.19-.07.68 2.2 1.25 2.52-1.48v-.64zM63.54 41.8l-5.42 3.19-2.21-1.25v-.64l7.63-1.94v.64z"/><use href="#P"/><use href="#P" x="3.13" y="-1.84"/><path d="M26.92 63.75l2.2 1.25 2.52-1.48v-.64l-4.72.23v.64zm3.12-1.81l2.2 1.25 2.53-1.48.03-.62-4.76.21v.64zm26.67-13.8v.64L35.39 61.31l-2.21-1.25v-.64l23.53-11.28zm3.14-1.2l-2.52 1.48-1.17-.66v-.64l3.69-.82v.64z"/><use href="#J" x="13.42" y="3.99"/><path d="M66.11 43.26l-2.51 1.48-1.18-.66v-.64l3.69-.82v.64zM55.1 40.18l-4.73.24v.64l2.19 1.23 2.54-1.47zm-3.3 1.95l-4.73.23V43l2.19 1.23 2.54-1.46zm-3.3 1.94l-4.73.23v.64L46 46.18l2.54-1.47z"/><use href="#L" x="-13.2" y="7.76"/><use href="#L" x="-16.5" y="9.76"/><path d="M38.6 49.89l-4.73.11v.74L36.06 52l2.54-1.47zm-3.3 1.94l-4.73.24v.64l2.19 1.23 2.54-1.47zM32 53.78l-4.73.22v.64l2.19 1.24L32 54.42zm-3.3 1.94L24 56v.64l2.19 1.24 2.54-1.47z"/><use href="#L" x="-33" y="19.42"/><path d="M22.1 59.6l-4.73.23v.64l2.18 1.24 2.55-1.47z"/><use href="#Q"/><use href="#R"/><path d="M43.74 41.43l-2.51 1.49-1.34-.76v-.64l3.85-.73v.64zm-3.13 1.85l-2.52 1.48-1.34-.76-.05-.65 3.91-.71v.64z"/><use href="#H" x="21.92" y="-12.89"/><use href="#Q" x="-15.69" y="9.21"/><path d="M31.19 48.8l-2.52 1.48-1.33-.75v-.64l3.85-.73v.64z"/><use href="#R" x="-18.82" y="11.05"/><use href="#R" x="-21.96" y="12.89"/><use href="#H" x="6.23" y="-3.68"/><path d="M18.64 56.17l-2.52 1.48-1.33-.76-.05-.61 3.9-.75v.64z"/></g><g fill="#b7d2f3"><path d="M12.42 59.21L9.89 60.7l-1.33-.76 2.52-1.49 1.34.76z"/><use href="#S"/><use href="#T"/><use href="#U"/><path d="M18.22 58.88l-2.52 1.49-2.21-1.25 2.53-1.49 2.2 1.25z"/><use href="#V"/><use href="#U" x="31.34" y="-18.42"/><use href="#U" x="28.21" y="-16.58"/><path d="M40.16 45.99l-2.52 1.49-2.21-1.25 2.52-1.49 2.21 1.25zm-3.13 1.84l-2.53 1.49-2.2-1.25 2.52-1.48 2.21 1.24z"/><use href="#V" x="-15.67" y="9.21"/><path d="M30.76 51.52L28.23 53l-2.2-1.25 2.52-1.48 2.21 1.25z"/><use href="#U" x="12.54" y="-7.37"/><use href="#V" x="-25.07" y="14.73"/><path d="M21.36 57.04l-2.53 1.49-2.2-1.25 2.52-1.49 2.21 1.25zm32.26-21.51l2.21 1.25-5.66 3.33-2.2-1.25 5.65-3.33zM16.98 60.04l2.21 1.25-4.05 2.38-2.2-1.25 4.04-2.38zM56.2 37l-2.53 1.48 2.18 1.24 2.55-1.47zM22.45 62.34l-4.74 2.79-2.2-1.25 4.73-2.79 2.21 1.25z"/><use href="#W"/><path d="M46.95 45.43l-2.53 1.48 2.21 1.25 2.52-1.48-2.2-1.25zm-3.34 1.99l-2.52 1.49 2.2 1.25 2.52-1.49-2.2-1.25z"/><use href="#W" x="-10.01" y="5.98"/><use href="#W" x="-13.35" y="7.97"/><path d="M33.59 53.41l-2.52 1.48 2.21 1.25 2.52-1.48-2.21-1.25z"/><use href="#X"/><use href="#Y"/><use href="#W" x="-26.7" y="15.95"/><use href="#X" x="23.39" y="-13.94"/><path d="M58.77 38.45l2.2 1.25-4.56 2.68-2.21-1.25 4.57-2.68zM25.94 63.26l-5.66 3.32-2.2-1.25 5.65-3.32 2.21 1.25zm3.13-1.84l-2.52 1.48-2.21-1.25 2.52-1.48 2.21 1.25z"/><use href="#W" x="4.79" y="0.15"/><use href="#Y" x="25.01" y="-11.96"/><path d="M48.79 47.27l-2.52 1.49 2.21 1.25L51 48.52l-2.21-1.25z"/><use href="#X" x="15.4" y="-6.28"/><path d="M42.52 50.96L40 52.44l2.2 1.25 2.53-1.48-2.21-1.25z"/><use href="#W" x="-10.9" y="9.36"/><use href="#Y" x="9.32" y="-2.75"/><path d="M33.1 56.48l-2.51 1.49 2.2 1.25 2.52-1.49-2.21-1.25z"/><use href="#X" x="-0.29" y="2.93"/><path d="M63.54 41.16l-5.42 3.19-2.21-1.25 5.43-3.19 2.2 1.25zM20.65 66.79l2.2 1.25 2.53-1.48-2.21-1.25-2.52 1.48zM23.78 65L26 66.2l2.53-1.48-2.23-1.25zm3.14-1.89l2.2 1.25 2.52-1.48-2.2-1.25zM30 61.3l2.2 1.25 2.52-1.48-2.2-1.25zm24.51-14.41l2.2 1.25-21.32 12.53-2.21-1.25 21.33-12.53zm5.34-.59l-2.53 1.48-1.16-.66 2.52-1.48 1.17.66zm3.13-1.84l-2.52 1.48-2.2-1.25 2.51-1.48 2.21 1.25zm3.13-1.84l-2.52 1.48-1.17-.66 2.52-1.49 1.17.67z"/><use href="#Z"/><path d="M49.59 40.88l-2.52 1.48 2.18 1.23 2.55-1.46zm-3.3 1.94l-2.52 1.48L46 45.54l2.55-1.47zM43 44.76l-2.52 1.48 2.18 1.24L45.2 46zm-3.31 1.94l-2.52 1.48 2.18 1.24L41.9 48z"/><use href="#Z" x="-16.5" y="9.71"/><use href="#Z" x="-19.8" y="11.65"/><path d="M29.79 52.53L27.27 54l2.18 1.24L32 53.78zm-3.3 1.94L24 56l2.18 1.24 2.55-1.47zm-3.3 1.94l-2.52 1.48 2.18 1.24 2.55-1.47zm-3.3 1.94l-2.52 1.48 2.18 1.24 2.55-1.47z"/><use href="#a"/><path d="M46.88 38.95l-2.52 1.49-1.34-.76 2.53-1.48 1.33.75zm-3.14 1.84l-2.52 1.49-1.33-.76 2.52-1.48 1.33.75z"/><use href="#T" x="-12.55" y="7.37"/><use href="#T" x="-15.69" y="9.21"/><use href="#a" x="-15.69" y="9.21"/><path d="M31.19 48.16l-2.52 1.48-1.33-.75 2.52-1.49 1.33.76z"/><use href="#b"/><use href="#b" x="-3.14" y="1.84"/><use href="#T" x="-31.38" y="18.42"/><use href="#S" x="3.09" y="-1.84"/></g><path d="M15.69 48.85V28.73l8.68-5.01v20.12l-8.68 5.01z" class="B"/><path d="M24.37 43.84V23.72l8.68-5.02v20.12l-8.68 5.02z" class="D"/><path d="M33.05 38.82V18.7l8.68-5.01v20.12l-8.68 5.01z" fill="#e84343"/><path d="M101.45 35.87c1 4.64-3 9.46-8.94 10.77s-11.61-1.38-12.63-6 3-9.47 8.94-10.78 11.61 1.37 12.63 6.01z" class="C"/><path d="M74.39,23.47a23.15,23.15,0,0,1,4.5-4.18,24.94,24.94,0,0,1,11.33-4.7c5.2-.68,10.58.56,16,3.68,4.45,2.57,6.69,5.13,6.69,7.61v2.94c0-2.49-2.24-5-6.69-7.61-5.4-3.12-10.78-4.36-16-3.68a24.94,24.94,0,0,0-11.33,4.7,22.81,22.81,0,0,0-4.5,4.18Z" class="B"/><path d="M72.47 23.31h1.97v2.94h-1.97zM97.02 36.7l.82 1.03v2.94l-.82-1.04V36.7z" class="G"/><path d="M97.84,37.73A55,55,0,0,0,105.42,35c5.19-2.33,8.37-5,9.21-7.65a5.09,5.09,0,0,0,.23-1.49v2.94a5.09,5.09,0,0,1-.23,1.49c-.84,2.67-4,5.32-9.21,7.65a55,55,0,0,1-7.58,2.72Z" class="B"/><path d="M72.47,23.31c0-.1,0-.3,1.08-1.41a27.38,27.38,0,0,1,2.83-2.58A28.34,28.34,0,0,1,87.12,14a25,25,0,0,1,9.49-.44,30.78,30.78,0,0,1,11,3.94c4.83,2.79,7.26,5.61,7.26,8.4a5.09,5.09,0,0,1-.23,1.49c-.84,2.67-4,5.32-9.21,7.65a55,55,0,0,1-7.58,2.72l-.82-1c.14,0,13.86-3.72,15.67-9.54a4.33,4.33,0,0,0,.2-1.28c0-2.48-2.24-5-6.69-7.61-5.4-3.12-10.78-4.36-16-3.68a24.94,24.94,0,0,0-11.33,4.7,23.15,23.15,0,0,0-4.5,4.18.25.25,0,0,0,0-.16Z" class="G"/><path d="M78.18 22.26s-2.33-2.76-5.1-2.36-5.88 3.33-6.37 10 4.87 7.47 7.19 7.34 6.97-6.91 4.28-14.98z" class="B"/><path d="M71.65 26.92c.06-.33 1.53-8.87 5.2-8.46s4.72 2.36 5.12 9.05-5.9 11.9-7.56 11.2-4.06-4.52-2.76-11.79z" class="C"/><path d="M78.73 25.28s-1.88 5.4-1.06 6.91 2.72-2.8 2.79-4-.85-5.96-1.73-2.91z" class="E"/><ellipse cx="91.76" cy="40.15" rx="9.45" ry="7.36" transform="matrix(.976635 -.214906 .214906 .976635 -6.48 20.66)" class="B"/><path d="M100.55 40.14c.71 3.22-2.07 6.58-6.21 7.49s-8.08-1-8.79-4.19 2.07-6.58 6.22-7.49 8.07.96 8.78 4.19z" class="G"/><path d="M93.05 13.75l-1.62-1.11a4.61 4.61 0 0 1 2.21-1.77c1.33-.4 17.74 2.05 20.36 9 2.9 7.69.86 9 .86 9s.21-3-.77-3.31-1.2.38-1.2.38h-1c-.36 0-2.66-3.29-4.82-5s-8.42-4.66-9.62-4.64-4.4-2.55-4.4-2.55z" class="E"/><path d="M91.43 12.64l1.31 6.1c.19.1 13.26 2.26 15.88 5.54s3 4.87 3 4.87 3.74-2.7.32-9.29-20.51-7.22-20.51-7.22z" class="F"/><defs ><path id="B" d="M91.34,58.33C88,61.77,76.43,65.49,75.88,66.06l15.36-7.91Z"/><path id="C" d="M110.46 70.89c-3.38 3.44-14.91 7.16-15.46 7.73l15.36-7.91a1.62 1.62 0 0 1 .1.18z"/><path id="D" d="M94,78.51l14.94-9.64.21.19Z"/><path id="E" d="M30.15 85.27l-8.91 15.87-.49-.1 8.9-15.86.5.09z"/><path id="F" d="M33.51 85.9l-8.9 15.87-.5-.1 8.91-15.86.49.09z"/><path id="G" d="M36.88 86.53l-8.9 15.86-.5-.09 8.9-15.86.5.09z"/><path id="H" d="M15.55 58.01l-2.52 1.48-1.34-.76v-.64l3.86-.72v.64z"/><path id="I" d="M15.09 61.37l-2.52 1.48-2.21-1.25v-.64l4.73-.23v.64z"/><path id="J" d="M49.56 41.11l-2.52 1.48-2.2-1.25v-.64l4.72-.23v.64z"/><path id="K" d="M40.16 46.63l-2.52 1.49-2.21-1.25v-.64l4.73-.24v.64z"/><path id="L" d="M58.4 38.24l-4.73.23v.64l2.19 1.24 2.54-1.47z"/><path id="M" d="M52.49 44.69l-4.73.23v.64l2.21 1.25 2.52-1.48v-.64z"/><path id="N" d="M32.46 56.65l-4.72.23v.64l2.2 1.25 2.52-1.48v-.64z"/><path id="O" d="M29.13 58.64l-4.73.24v.64l2.21 1.25 2.52-1.49v-.64z"/><path id="P" d="M20.65 67.43l2.21 1.25 2.52-1.48v-.64l-4.73.23v.64z"/><path id="Q" d="M50.02 37.75l-2.52 1.48-1.34-.75v-.64l3.86-.73v.64z"/><path id="R" d="M46.88 39.59l-2.52 1.49-1.34-.76v-.64l3.86-.73v.64z"/><path id="S" d="M15.55 57.37l-2.52 1.48-1.34-.76 2.52-1.48 1.34.76z"/><path id="T" d="M53.16 35.27l-2.53 1.48-1.33-.76 2.52-1.48 1.34.76z"/><path id="U" d="M15.09 60.73l-2.53 1.48-2.2-1.25 2.52-1.48 2.21 1.25z"/><path id="V" d="M49.56 40.47l-2.52 1.48-2.2-1.25 2.52-1.48 2.2 1.25z"/><path id="W" d="M50.28 43.44l-2.52 1.48 2.2 1.25 2.53-1.48-2.21-1.25z"/><path id="X" d="M30.26 55.4l-2.52 1.48 2.2 1.25 2.52-1.48-2.2-1.25z"/><path id="Y" d="M26.92 57.39l-2.52 1.49 2.2 1.25 2.53-1.49-2.21-1.25z"/><path id="Z" d="M52.89 38.93l-2.52 1.49 2.18 1.23 2.55-1.47z"/><path id="a" d="M50.02 37.11l-2.52 1.48-1.34-.75 2.52-1.49 1.34.76z"/><path id="b" d="M28.06 50l-2.53 1.49-1.33-.76 2.52-1.48 1.34.75z"/></defs></svg>