<svg xmlns="http://www.w3.org/2000/svg" viewBox="0 0 115.56 107.99">
    <defs/>
    <g style="isolation:isolate">
        <g id="Layer_2" data-name="Layer 2">
            <g id="Layer_1-2" data-name="Layer 1">
                <path d="M55.15,77.6a2.37,2.37,0,0,1,.72-.67,19,19,0,0,1,2-.59l10.64-6.17c.11,0,18.6-10.7,18.6-10.7l25,12.34-17,7.79s-.11,1.21-2.72,2.55a14.15,14.15,0,0,1-2.7.62,140.68,140.68,0,0,0-12.88,6.39c-.68.37-2.22,1.34-2.33,1.36L55.25,77.87C55.14,77.87,55.09,77.75,55.15,77.6Z" style="fill:#fcd561"/>
                <path d="M91.34,58.33C88,61.77,76.43,65.49,75.88,66.06l15.36-7.91Z" style="fill:#6bb1ac"/>
                <path d="M76.07,67.06l15.84-6.94a.41.41,0,0,0,.14-.39c0-.11-.17-.1-.29,0L75.92,66.68a.43.43,0,0,0-.14.4C75.82,67.18,76,67.18,76.07,67.06Z" style="fill:#9faa8f"/>
                <path d="M91.34,58.33C88,61.77,76.43,65.49,75.88,66.06l15.36-7.91Z" style="fill:#6bb1ac"/>
                <path d="M76.83,83.7,57.74,71.16a13.5,13.5,0,0,0-1,3.72q0,.32-.09.66c0,.3-.07.62-.1.95,0,.13,0,.45,0,.45L75.12,89.15l.8-1Z" style="fill:#b1d0fe"/>
                <path d="M75.11,87.32c.3-1.87,1.07-1.61,1.72-3.62l6.23-8.29,9.52,3.82,15.17-11.15a1.58,1.58,0,0,1,.31.13l.22.15.17.13.11.09a4.28,4.28,0,0,1,.33.29l.21.19.19.2.13.14.19.22.13.16.12.16.5.77s.12.23.14.25l0,.08,0,.09.09.21a1.8,1.8,0,0,1,.08.21.49.49,0,0,1,0,.11l.07.22c0,.1-15.79,7.33-15.79,7.33l-.1.2c-1.44-.38-3.34.57-4.84,2.38l-.07.09-.1-.12s-14.84,7.39-14.84,7.39A11.23,11.23,0,0,1,75.11,87.32Z" style="fill:#99c1fd"/>
                <path d="M110.46,70.89c-3.38,3.44-14.91,7.16-15.46,7.73l15.36-7.91A1.62,1.62,0,0,1,110.46,70.89Z" style="fill:#6bb1ac"/>
                <path d="M94,78.51l14.94-9.64.21.19Z" style="fill:#6bb1ac"/>
                <path d="M95.32,79.93,112,72.23a.43.43,0,0,0,.15-.42c0-.11-.18-.1-.31,0l-16.63,7.7A.45.45,0,0,0,95,80C95.06,80.06,95.2,80.05,95.32,79.93Z" style="fill:#feb30f"/>
                <path d="M89.67,82.77,74.53,90.53c-.12,0-.17-.12-.11-.29s.21-.3.33-.3l15.14-7.76c.12,0,.16.13.1.29S89.79,82.77,89.67,82.77Z" style="fill:#feb30f"/>
                <path d="M89.91,82.21c1.48.43,3.56-.62,5.18-2.61l.27.31c-1.81,2.23-4.12,3.39-5.77,2.91C89.69,82.61,89.8,82.41,89.91,82.21Z" style="fill:#feb30f"/>
                <path d="M92.58,79.23s-.74-7.38.72-8.55c2.28-1.84,14.45-2.6,14.45-2.6a1.58,1.58,0,0,1,.31.13A7.3,7.3,0,0,1,109.92,70c.06.09,1.06,1.73.94,1.85l-16,7.33-.1.07c-.08,0-.17,0-.2,0S92.57,79.33,92.58,79.23Z" style="fill:#c9defe"/>
                <path d="M110.46,70.89c-3.38,3.44-14.91,7.16-15.46,7.73l15.36-7.91A1.62,1.62,0,0,1,110.46,70.89Z" style="fill:#99c1fd"/>
                <path d="M94,78.51l14.94-9.64.21.19Z" style="fill:#99c1fd"/>
                <path d="M107.86,68.11,89.64,56.84s-7,1-11.45,4.85A56.63,56.63,0,0,0,73.65,67L92.58,79.23a13,13,0,0,1,4.32-6.38C100.93,69.57,107.86,68.11,107.86,68.11Z" style="fill:#e1edff"/>
                <path d="M92.58,79.23,73.65,67s-3.39-1.53-4.58-1.42c-6.32.55-11.33,5.58-11.33,5.58L76.83,83.7s6-5.37,10.58-5.65C88.73,78,92.58,79.23,92.58,79.23Z" style="fill:#c9defe"/>
                <g id="Axo_Extrusion" data-name="Axo Extrusion">
                    <g id="Axo_Surface_" data-name="Axo Surface*">
                        <polygon id="Axo_panel" data-name="Axo panel" points="13.29 100.69 51.52 107.84 51.65 107.99 13.42 100.84 13.29 100.69" style="fill:#99c1fd"/>
                        <polygon id="Axo_panel-2" data-name="Axo panel" points="51.52 107.84 61.57 89.93 61.7 90.08 51.65 107.99 51.52 107.84" style="fill:#99c1fd"/>
                    </g>
                    <polygon id="Axo_base" data-name="Axo base" points="13.29 100.69 23.34 82.78 61.57 89.93 51.52 107.84 13.29 100.69" style="fill:#c9defe"/>
                </g>
                <polygon id="Axo_base-2" data-name="Axo base" points="26.78 84.64 17.88 100.51 17.38 100.41 26.28 84.55 26.78 84.64" style="fill:#5195fb"/>
                <polygon id="Axo_base-3" data-name="Axo base" points="30.15 85.27 21.24 101.14 20.75 101.04 29.65 85.18 30.15 85.27" style="fill:#5195fb"/>
                <polygon id="Axo_base-4" data-name="Axo base" points="33.51 85.9 24.61 101.77 24.11 101.67 33.02 85.81 33.51 85.9" style="fill:#5195fb"/>
                <polygon id="Axo_base-5" data-name="Axo base" points="36.88 86.53 27.98 102.39 27.48 102.3 36.38 86.44 36.88 86.53" style="fill:#5195fb"/>
                <polygon id="Axo_base-6" data-name="Axo base" points="40.25 87.16 31.34 103.03 30.85 102.93 39.75 87.07 40.25 87.16" style="fill:#5195fb"/>
                <polygon id="Axo_base-7" data-name="Axo base" points="43.61 87.79 34.71 103.66 34.21 103.56 43.12 87.7 43.61 87.79" style="fill:#5195fb"/>
                <polygon id="Axo_base-8" data-name="Axo base" points="46.98 88.42 38.08 104.28 37.58 104.19 46.48 88.33 46.98 88.42" style="fill:#5195fb"/>
                <polygon id="Axo_base-9" data-name="Axo base" points="50.35 89.05 41.45 104.92 40.95 104.82 49.85 88.96 50.35 89.05" style="fill:#5195fb"/>
                <polygon id="Axo_base-10" data-name="Axo base" points="53.72 89.68 44.81 105.55 44.31 105.45 53.22 89.58 53.72 89.68" style="fill:#5195fb"/>
                <polygon id="Axo_base-11" data-name="Axo base" points="57.08 90.31 48.18 106.17 47.68 106.08 56.59 90.22 57.08 90.31" style="fill:#5195fb"/>
                <path d="M71.82,103.5l0,.56.67.45.79,0L100.3,88.64s-.24-.53,0-.73,1-.56,1.06-.71.17-.28,0-.27a14,14,0,0,0-1.57.64l-1.57.56Z" style="fill:#c6dffd;mix-blend-mode:multiply"/>
                <path d="M101.44,86.4a.23.23,0,0,1-.11.2l-.56.29-1.28,1.49L98.91,87l-.06-.25a12,12,0,0,0,1.75-.13l.58-.29A.24.24,0,0,1,101.44,86.4Z" style="fill:#fceab2"/>
                <polygon points="99.81 87.93 99.49 88.38 72.1 104.03 71.46 102.38 98.85 86.74 99.49 87.11 99.81 87.93" style="fill:#fcdc79"/>
                <polygon points="72.1 102.75 71.46 102.38 71.14 102.83 71.46 103.66 72.1 104.03 72.42 103.57 72.1 102.75" style="fill:#fceab2"/>
                <path d="M71.88,103l-.11-.07a.19.19,0,0,0-.25.06.19.19,0,0,0,0,.18l.1.25a.24.24,0,0,0,.08.09l.12.07a.19.19,0,0,0,.25-.06.22.22,0,0,0,0-.18L72,103A.18.18,0,0,0,71.88,103Z" style="fill:#fccd4b"/>
                <polygon points="99.49 87.11 72.09 102.75 72.42 103.57 99.81 87.93 99.49 87.11" style="fill:#fbc429"/>
                <path d="M101.44,86.4a.23.23,0,0,1-.11.2l-.56.29-.19.11.1-.29-.27,0,.19-.13.58-.29A.24.24,0,0,1,101.44,86.4Z" style="fill:#fbc429"/>
                <g style="isolation:isolate">
                    <path d="M55.57,92.44l2-1.17a.06.06,0,0,1,.07,0l-2,1.17A.06.06,0,0,0,55.57,92.44Z" style="fill:#fc7464"/>
                    <polygon points="60.47 95.24 62.49 94.07 62.49 95.57 60.47 96.74 60.47 95.24" style="fill:#fc7464"/>
                    <polygon points="55.64 92.45 57.66 91.28 62.49 94.07 60.47 95.24 55.64 92.45" style="fill:#fc7464"/>
                    <path d="M60.47,95.24v1.5l-3.46-2a2,2,0,0,1-.73-.8l-.72-1.26c-.07-.14,0-.29.08-.23Z" style="fill:#fc5552"/>
                </g>
                <g style="isolation:isolate">
                    <polygon points="60.86 95.46 62.88 94.29 62.88 95.79 60.86 96.96 60.86 95.46" style="mix-blend-mode:multiply;fill:#e4effc"/>
                    <polygon points="60.47 95.24 62.49 94.07 62.88 94.29 60.86 95.46 60.47 95.24" style="mix-blend-mode:multiply;fill:#e4effc"/>
                    <polygon points="60.86 95.46 60.86 96.96 60.47 96.74 60.47 95.24 60.86 95.46" style="fill:#fbbdbe"/>
                </g>
                <g style="isolation:isolate">
                    <polygon points="60.86 95.46 62.88 94.29 64.35 95.14 62.33 96.31 60.86 95.46" style="fill:#1c6df6"/>
                    <path d="M65.67,97.36l-2,1.18c.05,0,.06-.12,0-.22l2-1.18C65.73,97.24,65.72,97.34,65.67,97.36Z" style="fill:#0b45b2"/>
                    <polygon points="63.14 97.25 65.16 96.08 65.68 97.14 63.66 98.32 63.14 97.25" style="fill:#1c6df6"/>
                    <path d="M62.33,96.31l2-1.17a2.25,2.25,0,0,1,.81.94l-2,1.17A2.31,2.31,0,0,0,62.33,96.31Z" style="fill:#3e85f4"/>
                    <path d="M62.33,96.31a2.31,2.31,0,0,1,.81.94l.52,1.07c.07.14,0,.27-.09.21L60.86,97v-1.5Z" style="fill:#0d47b3"/>
                </g>
                <path d="M1.87,28.25,49.33.36a1.64,1.64,0,0,1,1.6-.24l1.25.66-.74.64V28.71a3.79,3.79,0,0,1-1.87,2.9L2.11,59.5l-.3.16,0,.84c-.32-.17-1.22-.71-1.22-.71A.92.92,0,0,1,0,58.94V31.15A3.79,3.79,0,0,1,1.87,28.25Z" style="fill:#e1edff"/>
                <path d="M2.85,63.38v-2.1l1.58.83L51.14,34.65a4.16,4.16,0,0,1,3.72-.18L82.07,49.9l1.35-1.06v2.52a1.65,1.65,0,0,1-.89,1.1L35.06,80.35a4.13,4.13,0,0,1-3.72.19L3.42,64.7A1.23,1.23,0,0,1,2.81,64,.94.94,0,0,1,2.85,63.38Z" style="fill:#b1d0fe"/>
                <path d="M35,78,82.5,50.07c1.1-.65,1.21-1.61.25-2.16L54.83,32.08a4.13,4.13,0,0,0-3.72.19L3.64,60.16c-1.09.65-1.21,1.61-.25,2.16L31.31,78.15A4.13,4.13,0,0,0,35,78Z" style="fill:#e1edff"/>
                <path d="M67.07,43.82,24,69.11a2.47,2.47,0,0,1-2.22.11L7.59,61.15c-.57-.32-.5-.9.15-1.28l43-25.29A2.47,2.47,0,0,1,53,34.47l14.23,8.07C67.79,42.86,67.73,43.44,67.07,43.82Z" style="fill:#d8e7f5"/>
                <path d="M39.82,61.91l14-8.24a3,3,0,0,1,2.72-.13l6.69,3.79L46.84,67l-7.21-4.09a.94.94,0,0,1-.4-.39A1.43,1.43,0,0,1,39.82,61.91Z" style="fill:#bdd7fe"/>
                <path d="M64.52,59.12l-7,4.13-1.68-1,8-4.66.93.53a1,1,0,0,1,.4.38A1.43,1.43,0,0,1,64.52,59.12Z" style="fill:#bdd7fe"/>
                <path d="M55.83,62.29l-.52.31,1.68.95L50.5,67.37a3,3,0,0,1-2.72.13l-.41-.23Z" style="fill:#bdd7fe"/>
                <path d="M39.81,61.31l14-8.25a3,3,0,0,1,2.72-.13L63.77,57l-.52.31-6.69-3.79a3,3,0,0,0-2.72.13l-14,8.24a1.43,1.43,0,0,0-.59.58C39,62.11,39.23,61.65,39.81,61.31Z" style="fill:#81b2fc"/>
                <path d="M65.11,58.54a1,1,0,0,0-.4-.38l-.93-.53L47.37,67.27l-.53-.3L63.77,57l.94.53A.74.74,0,0,1,65.11,58.54Z" style="fill:#81b2fc"/>
                <polygon points="57.51 63.24 56.99 63.55 55.31 62.6 55.83 62.29 57.51 63.24" style="fill:#d8e7f5"/>
                <polygon points="8.22 58.82 48.96 34.87 47.76 34.19 7.02 58.14 8.22 58.82" style="fill:#d2e3f4"/>
                <polygon points="12.2 56.48 44.99 37.21 43.78 36.53 10.99 55.8 12.2 56.48" style="fill:#d8e7f5"/>
                <path d="M3.56,60.29,51,32.39A3.8,3.8,0,0,0,52.9,29.5V1.7c0-.95-1-1.2-2.11-.56L3.32,29a3.76,3.76,0,0,0-1.86,2.9V59.73C1.46,60.68,2.47,60.94,3.56,60.29Z" style="fill:#bdd7fe"/>
                <path d="M2.45,59.84a1.47,1.47,0,0,0,.7-.25L50.62,31.7a3.06,3.06,0,0,0,1.47-2.2V1.71c0-.06-.12-.09-.12-.12H51.9a1.47,1.47,0,0,0-.7.25L3.73,29.74a3,3,0,0,0-1.47,2.19V59.72c0,.06.12.1.12.12Z" style="fill:#e1edff"/>
                <path d="M3,33.77V57.11a1.34,1.34,0,0,0,.27.7,1.84,1.84,0,0,0,1-.3L48.93,31.27a3.85,3.85,0,0,0,1.8-3V4.89a1.31,1.31,0,0,0-.27-.69,1.83,1.83,0,0,0-1,.3L4.78,30.73A3.87,3.87,0,0,0,3,33.77Z" style="fill:#1c6df6"/>
                <path d="M3.34,58h-.2l-.05-.08a1.53,1.53,0,0,1-.31-.8V33.77a4.08,4.08,0,0,1,1.9-3.21L49.32,4.32A2,2,0,0,1,50.47,4h.1l.06.08a1.52,1.52,0,0,1,.3.8V28.23A4,4,0,0,1,49,31.44L4.39,57.68A2.1,2.1,0,0,1,3.34,58Zm47-53.62a1.71,1.71,0,0,0-.82.28L4.88,30.91a3.61,3.61,0,0,0-1.7,2.86V57.11a1.3,1.3,0,0,0,.19.5,1.8,1.8,0,0,0,.81-.27L48.82,31.1a3.66,3.66,0,0,0,1.71-2.86V4.89A1.16,1.16,0,0,0,50.34,4.39Z" style="fill:#7eade7"/>
                <path d="M26.1,16.82c0,.55.45.73,1,.41a2,2,0,0,0,1-1.58c0-.55-.45-.74-1-.42A2.07,2.07,0,0,0,26.1,16.82Z" style="fill:#1c2e6a"/>
                <path d="M26.43,16.62a.32.32,0,0,0,.31.37.53.53,0,0,0,.36-.09,1.38,1.38,0,0,0,.65-1.06c0-.37-.3-.49-.66-.27l-.06,0A1.32,1.32,0,0,0,26.43,16.62Z" style="fill:#5195fb"/>
                <path d="M26.43,16.62a.32.32,0,0,0,.31.37l.06,0a1.3,1.3,0,0,0,.53-1,.32.32,0,0,0-.16-.32.19.19,0,0,0-.14-.05A1.32,1.32,0,0,0,26.43,16.62Z" style="fill:#5195fb"/>
                <path d="M26.64,16.62a.33.33,0,0,0,.16.32,1.3,1.3,0,0,0,.53-1,.32.32,0,0,0-.16-.32A1.31,1.31,0,0,0,26.64,16.62Z" style="fill:#69a4fc"/>
                <polygon points="78.7 53.96 81.31 52.43 81.31 51.6 78.7 53.13 78.7 53.96" style="fill:#70a5e5"/>
                <polygon points="27.19 77.53 29.27 78.7 29.27 78 27.19 76.82 27.19 77.53" style="fill:#70a5e5"/>
                <polygon points="23.34 75.33 25.42 76.51 25.42 75.8 23.34 74.62 23.34 75.33" style="fill:#70a5e5"/>
                <polygon points="12.42 59.85 9.9 61.34 8.56 60.58 8.56 59.94 12.42 59.21 12.42 59.85" style="fill:#679fe3"/>
                <polygon points="15.55 58.01 13.03 59.49 11.69 58.73 11.69 58.09 15.55 57.37 15.55 58.01" style="fill:#679fe3"/>
                <polygon points="53.16 35.91 50.64 37.39 49.3 36.63 49.3 35.99 53.16 35.27 53.16 35.91" style="fill:#679fe3"/>
                <polygon points="15.09 61.37 12.57 62.85 10.36 61.6 10.36 60.96 15.09 60.73 15.09 61.37" style="fill:#679fe3"/>
                <polygon points="18.22 59.53 15.7 61.01 13.5 59.76 13.5 59.07 18.22 58.88 18.22 59.53" style="fill:#679fe3"/>
                <polygon points="49.56 41.11 47.04 42.59 44.84 41.34 44.84 40.7 49.56 40.47 49.56 41.11" style="fill:#679fe3"/>
                <polygon points="46.43 42.95 43.91 44.43 41.7 43.18 41.7 42.54 46.43 42.31 46.43 42.95" style="fill:#679fe3"/>
                <polygon points="43.3 44.79 40.77 46.27 38.57 45.02 38.57 44.38 43.3 44.15 43.3 44.79" style="fill:#679fe3"/>
                <polygon points="40.16 46.63 37.64 48.12 35.43 46.87 35.43 46.23 40.16 45.99 40.16 46.63" style="fill:#679fe3"/>
                <polygon points="37.03 48.48 34.51 49.96 32.3 48.71 32.3 48.07 37.03 47.83 37.03 48.48" style="fill:#679fe3"/>
                <polygon points="33.89 50.32 31.37 51.8 29.17 50.55 29.17 49.91 33.89 49.68 33.89 50.32" style="fill:#679fe3"/>
                <polygon points="30.76 52.16 28.24 53.64 26.03 52.39 26.03 51.75 30.76 51.52 30.76 52.16" style="fill:#679fe3"/>
                <polygon points="27.63 54 25.11 55.48 22.9 54.23 22.9 53.59 27.63 53.36 27.63 54" style="fill:#679fe3"/>
                <polygon points="24.49 55.84 21.97 57.32 19.77 56.07 19.77 55.43 24.49 55.2 24.49 55.84" style="fill:#679fe3"/>
                <polygon points="21.36 57.68 18.84 59.17 16.63 57.92 16.63 57.28 21.36 57.04 21.36 57.68" style="fill:#679fe3"/>
                <polygon points="55.7 36.71 55.83 37.42 50.18 40.75 47.97 39.5 47.97 38.86 55.7 36.71" style="fill:#679fe3"/>
                <polygon points="19.19 61.29 19.19 61.93 15.14 64.31 12.94 63.06 12.94 62.42 19.19 61.29" style="fill:#679fe3"/>
                <path d="M58.4,38.24l-4.73.23v.64l2.19,1.24s2.54-1.47,2.54-1.47Z" style="fill:#679fe3"/>
                <polygon points="22.45 62.98 17.71 65.77 15.51 64.52 15.51 63.88 22.45 62.34 22.45 62.98" style="fill:#679fe3"/>
                <polygon points="52.49 44.69 47.76 44.92 47.76 45.56 49.97 46.81 52.49 45.33 52.49 44.69" style="fill:#679fe3"/>
                <polygon points="49.15 46.68 44.42 46.91 44.42 47.55 46.63 48.8 49.15 47.32 49.15 46.68" style="fill:#679fe3"/>
                <polygon points="45.81 48.67 41.09 48.91 41.09 49.55 43.29 50.8 45.81 49.31 45.81 48.67" style="fill:#679fe3"/>
                <polygon points="42.48 50.67 37.75 50.9 37.75 51.54 39.96 52.79 42.48 51.31 42.48 50.67" style="fill:#679fe3"/>
                <polygon points="39.14 52.66 34.41 52.89 34.41 53.53 36.62 54.78 39.14 53.3 39.14 52.66" style="fill:#679fe3"/>
                <polygon points="35.8 54.66 31.07 54.89 31.07 55.53 33.28 56.78 35.8 55.3 35.8 54.66" style="fill:#679fe3"/>
                <polygon points="32.46 56.65 27.74 56.88 27.74 57.52 29.94 58.77 32.46 57.29 32.46 56.65" style="fill:#679fe3"/>
                <polygon points="29.13 58.64 24.4 58.88 24.4 59.52 26.61 60.77 29.13 59.28 29.13 58.64" style="fill:#679fe3"/>
                <polygon points="25.79 60.64 21.06 60.79 21.06 61.51 23.27 62.76 25.79 61.28 25.79 60.64" style="fill:#679fe3"/>
                <polygon points="55.85 42.71 51.13 42.94 51.13 43.58 53.33 44.83 55.85 43.35 55.85 42.71" style="fill:#679fe3"/>
                <polygon points="60.97 39.7 60.97 40.34 56.41 43.02 54.2 41.77 54.2 41.13 60.97 39.7" style="fill:#679fe3"/>
                <polygon points="25.94 63.9 20.28 67.22 18.08 65.97 18.08 65.33 25.94 63.26 25.94 63.9" style="fill:#679fe3"/>
                <polygon points="29.07 62.06 26.55 63.54 24.34 62.29 24.34 61.65 29.07 61.42 29.07 62.06" style="fill:#679fe3"/>
                <polygon points="57.28 44.84 52.55 45.07 52.55 45.71 54.76 46.96 57.28 45.48 57.28 44.84" style="fill:#679fe3"/>
                <polygon points="54.14 46.68 49.41 46.92 49.41 47.56 51.62 48.81 54.14 47.32 54.14 46.68" style="fill:#679fe3"/>
                <polygon points="51 48.52 46.27 48.76 46.27 49.4 48.48 50.65 51 49.17 51 48.52" style="fill:#679fe3"/>
                <polygon points="47.86 50.37 43.14 50.6 43.14 51.24 45.34 52.49 47.86 51.01 47.86 50.37" style="fill:#679fe3"/>
                <polygon points="44.73 52.21 40 52.44 40 53.08 42.2 54.33 44.73 52.85 44.73 52.21" style="fill:#679fe3"/>
                <polygon points="41.59 54.05 36.96 54.34 36.86 54.92 39.07 56.17 41.59 54.69 41.59 54.05" style="fill:#679fe3"/>
                <polygon points="38.45 55.89 33.72 56.13 33.72 56.77 35.93 58.02 38.45 56.53 38.45 55.89" style="fill:#679fe3"/>
                <polygon points="35.31 57.73 30.59 57.97 30.59 58.61 32.79 59.86 35.31 58.38 35.31 57.73" style="fill:#679fe3"/>
                <polygon points="32.17 59.58 27.52 59.77 27.45 60.45 29.65 61.7 32.17 60.22 32.17 59.58" style="fill:#679fe3"/>
                <polygon points="63.54 41.8 58.12 44.99 55.91 43.74 55.91 43.1 63.54 41.16 63.54 41.8" style="fill:#679fe3"/>
                <polygon points="20.65 67.43 22.86 68.68 25.38 67.2 25.38 66.56 20.65 66.79 20.65 67.43" style="fill:#679fe3"/>
                <polygon points="23.78 65.59 25.99 66.84 28.51 65.36 28.51 64.72 23.78 64.95 23.78 65.59" style="fill:#679fe3"/>
                <polygon points="26.92 63.75 29.12 65 31.64 63.52 31.64 62.88 26.92 63.11 26.92 63.75" style="fill:#679fe3"/>
                <polygon points="30.04 61.94 32.24 63.19 34.77 61.71 34.8 61.09 30.04 61.3 30.04 61.94" style="fill:#679fe3"/>
                <polygon points="56.71 48.14 56.71 48.78 35.39 61.31 33.18 60.06 33.18 59.42 56.71 48.14" style="fill:#679fe3"/>
                <polygon points="59.85 46.94 57.33 48.42 56.16 47.76 56.16 47.12 59.85 46.3 59.85 46.94" style="fill:#679fe3"/>
                <polygon points="62.98 45.1 60.46 46.58 58.26 45.33 58.26 44.69 62.98 44.46 62.98 45.1" style="fill:#679fe3"/>
                <polygon points="66.11 43.26 63.6 44.74 62.42 44.08 62.42 43.44 66.11 42.62 66.11 43.26" style="fill:#679fe3"/>
                <path d="M55.1,40.18l-4.73.24v.64l2.19,1.23s2.54-1.47,2.54-1.47Z" style="fill:#679fe3"/>
                <path d="M51.8,42.13l-4.73.23V43l2.19,1.23s2.54-1.46,2.54-1.46Z" style="fill:#679fe3"/>
                <path d="M48.5,44.07l-4.73.23v.64L46,46.18s2.54-1.47,2.54-1.47Z" style="fill:#679fe3"/>
                <path d="M45.2,46l-4.73.23v.64l2.19,1.24s2.54-1.47,2.54-1.47Z" style="fill:#679fe3"/>
                <path d="M41.9,48l-4.73.23v.64l2.19,1.24s2.54-1.47,2.54-1.47Z" style="fill:#679fe3"/>
                <path d="M38.6,49.89,33.87,50v.74L36.06,52s2.54-1.47,2.54-1.47Z" style="fill:#679fe3"/>
                <path d="M35.3,51.83l-4.73.24v.64l2.19,1.23s2.54-1.47,2.54-1.47Z" style="fill:#679fe3"/>
                <path d="M32,53.78,27.27,54v.64l2.19,1.24S32,54.42,32,54.42Z" style="fill:#679fe3"/>
                <path d="M28.7,55.72,24,56v.64l2.19,1.24s2.54-1.47,2.54-1.47Z" style="fill:#679fe3"/>
                <path d="M25.4,57.66l-4.73.23v.64l2.19,1.24S25.4,58.3,25.4,58.3Z" style="fill:#679fe3"/>
                <path d="M22.1,59.6l-4.73.23v.64l2.18,1.24s2.55-1.47,2.55-1.47Z" style="fill:#679fe3"/>
                <polygon points="50.02 37.75 47.5 39.23 46.16 38.48 46.16 37.84 50.02 37.11 50.02 37.75" style="fill:#679fe3"/>
                <polygon points="46.88 39.59 44.36 41.08 43.02 40.32 43.02 39.68 46.88 38.95 46.88 39.59" style="fill:#679fe3"/>
                <polygon points="43.74 41.43 41.23 42.92 39.89 42.16 39.89 41.52 43.74 40.79 43.74 41.43" style="fill:#679fe3"/>
                <polygon points="40.61 43.28 38.09 44.76 36.75 44 36.7 43.35 40.61 42.64 40.61 43.28" style="fill:#679fe3"/>
                <polygon points="37.47 45.12 34.95 46.6 33.61 45.84 33.61 45.2 37.47 44.48 37.47 45.12" style="fill:#679fe3"/>
                <polygon points="34.33 46.96 31.81 48.44 30.47 47.69 30.47 47.05 34.33 46.32 34.33 46.96" style="fill:#679fe3"/>
                <polygon points="31.19 48.8 28.67 50.28 27.34 49.53 27.34 48.89 31.19 48.16 31.19 48.8" style="fill:#679fe3"/>
                <polygon points="28.06 50.64 25.54 52.13 24.2 51.37 24.2 50.73 28.06 50 28.06 50.64" style="fill:#679fe3"/>
                <polygon points="24.92 52.48 22.4 53.97 21.06 53.21 21.06 52.57 24.92 51.84 24.92 52.48" style="fill:#679fe3"/>
                <polygon points="21.78 54.33 19.26 55.81 17.92 55.05 17.92 54.41 21.78 53.69 21.78 54.33" style="fill:#679fe3"/>
                <polygon points="18.64 56.17 16.12 57.65 14.79 56.89 14.74 56.28 18.64 55.53 18.64 56.17" style="fill:#679fe3"/>
                <polygon points="12.42 59.21 9.89 60.7 8.56 59.94 11.08 58.45 12.42 59.21" style="fill:#b7d2f3"/>
                <polygon points="15.55 57.37 13.03 58.85 11.69 58.09 14.21 56.61 15.55 57.37" style="fill:#b7d2f3"/>
                <polygon points="53.16 35.27 50.63 36.75 49.3 35.99 51.82 34.51 53.16 35.27" style="fill:#b7d2f3"/>
                <polygon points="15.09 60.73 12.56 62.21 10.36 60.96 12.88 59.48 15.09 60.73" style="fill:#b7d2f3"/>
                <polygon points="18.22 58.88 15.7 60.37 13.49 59.12 16.02 57.63 18.22 58.88" style="fill:#b7d2f3"/>
                <polygon points="49.56 40.47 47.04 41.95 44.84 40.7 47.36 39.22 49.56 40.47" style="fill:#b7d2f3"/>
                <polygon points="46.43 42.31 43.9 43.79 41.7 42.54 44.22 41.06 46.43 42.31" style="fill:#b7d2f3"/>
                <polygon points="43.3 44.15 40.77 45.63 38.57 44.38 41.09 42.9 43.3 44.15" style="fill:#b7d2f3"/>
                <polygon points="40.16 45.99 37.64 47.48 35.43 46.23 37.95 44.74 40.16 45.99" style="fill:#b7d2f3"/>
                <polygon points="37.03 47.83 34.5 49.32 32.3 48.07 34.82 46.59 37.03 47.83" style="fill:#b7d2f3"/>
                <polygon points="33.89 49.68 31.37 51.16 29.17 49.91 31.69 48.43 33.89 49.68" style="fill:#b7d2f3"/>
                <polygon points="30.76 51.52 28.23 53 26.03 51.75 28.55 50.27 30.76 51.52" style="fill:#b7d2f3"/>
                <polygon points="27.63 53.36 25.1 54.84 22.9 53.59 25.42 52.11 27.63 53.36" style="fill:#b7d2f3"/>
                <polygon points="24.49 55.2 21.97 56.68 19.77 55.43 22.29 53.95 24.49 55.2" style="fill:#b7d2f3"/>
                <polygon points="21.36 57.04 18.83 58.53 16.63 57.28 19.15 55.79 21.36 57.04" style="fill:#b7d2f3"/>
                <polygon points="53.62 35.53 55.83 36.78 50.17 40.11 47.97 38.86 53.62 35.53" style="fill:#b7d2f3"/>
                <polygon points="16.98 60.04 19.19 61.29 15.14 63.67 12.94 62.42 16.98 60.04" style="fill:#b7d2f3"/>
                <path d="M56.2,37l-2.53,1.48,2.18,1.24s2.55-1.47,2.55-1.47Z" style="fill:#b7d2f3"/>
                <polygon points="22.45 62.34 17.71 65.13 15.51 63.88 20.24 61.09 22.45 62.34" style="fill:#b7d2f3"/>
                <polygon points="50.28 43.44 47.76 44.92 49.96 46.17 52.49 44.69 50.28 43.44" style="fill:#b7d2f3"/>
                <polygon points="46.95 45.43 44.42 46.91 46.63 48.16 49.15 46.68 46.95 45.43" style="fill:#b7d2f3"/>
                <polygon points="43.61 47.42 41.09 48.91 43.29 50.16 45.81 48.67 43.61 47.42" style="fill:#b7d2f3"/>
                <polygon points="40.27 49.42 37.75 50.9 39.95 52.15 42.48 50.67 40.27 49.42" style="fill:#b7d2f3"/>
                <polygon points="36.93 51.41 34.41 52.89 36.61 54.14 39.14 52.66 36.93 51.41" style="fill:#b7d2f3"/>
                <polygon points="33.59 53.41 31.07 54.89 33.28 56.14 35.8 54.66 33.59 53.41" style="fill:#b7d2f3"/>
                <polygon points="30.26 55.4 27.74 56.88 29.94 58.13 32.46 56.65 30.26 55.4" style="fill:#b7d2f3"/>
                <polygon points="26.92 57.39 24.4 58.88 26.6 60.13 29.13 58.64 26.92 57.39" style="fill:#b7d2f3"/>
                <polygon points="23.58 59.39 21.06 60.87 23.26 62.12 25.79 60.64 23.58 59.39" style="fill:#b7d2f3"/>
                <polygon points="53.65 41.46 51.13 42.94 53.33 44.19 55.85 42.71 53.65 41.46" style="fill:#b7d2f3"/>
                <polygon points="58.77 38.45 60.97 39.7 56.41 42.38 54.2 41.13 58.77 38.45" style="fill:#b7d2f3"/>
                <polygon points="25.94 63.26 20.28 66.58 18.08 65.33 23.73 62.01 25.94 63.26" style="fill:#b7d2f3"/>
                <polygon points="29.07 61.42 26.55 62.9 24.34 61.65 26.86 60.17 29.07 61.42" style="fill:#b7d2f3"/>
                <polygon points="55.07 43.59 52.55 45.07 54.75 46.32 57.28 44.84 55.07 43.59" style="fill:#b7d2f3"/>
                <polygon points="51.93 45.43 49.41 46.92 51.61 48.17 54.14 46.68 51.93 45.43" style="fill:#b7d2f3"/>
                <polygon points="48.79 47.27 46.27 48.76 48.48 50.01 51 48.52 48.79 47.27" style="fill:#b7d2f3"/>
                <polygon points="45.66 49.12 43.14 50.6 45.34 51.85 47.86 50.37 45.66 49.12" style="fill:#b7d2f3"/>
                <polygon points="42.52 50.96 40 52.44 42.2 53.69 44.73 52.21 42.52 50.96" style="fill:#b7d2f3"/>
                <polygon points="39.38 52.8 36.86 54.28 39.06 55.53 41.59 54.05 39.38 52.8" style="fill:#b7d2f3"/>
                <polygon points="36.24 54.64 33.72 56.13 35.92 57.38 38.45 55.89 36.24 54.64" style="fill:#b7d2f3"/>
                <polygon points="33.1 56.48 30.59 57.97 32.79 59.22 35.31 57.73 33.1 56.48" style="fill:#b7d2f3"/>
                <polygon points="29.97 58.33 27.45 59.81 29.65 61.06 32.17 59.58 29.97 58.33" style="fill:#b7d2f3"/>
                <polygon points="63.54 41.16 58.12 44.35 55.91 43.1 61.34 39.91 63.54 41.16" style="fill:#b7d2f3"/>
                <polygon points="20.65 66.79 22.85 68.04 25.38 66.56 23.17 65.31 20.65 66.79" style="fill:#b7d2f3"/>
                <path d="M23.78,65,26,66.2l2.53-1.48L26.3,63.47Z" style="fill:#b7d2f3"/>
                <path d="M26.92,63.11l2.2,1.25,2.52-1.48-2.2-1.25Z" style="fill:#b7d2f3"/>
                <path d="M30,61.3l2.2,1.25,2.52-1.48-2.2-1.25Z" style="fill:#b7d2f3"/>
                <polygon points="54.51 46.89 56.71 48.14 35.39 60.67 33.18 59.42 54.51 46.89" style="fill:#b7d2f3"/>
                <polygon points="59.85 46.3 57.32 47.78 56.16 47.12 58.68 45.64 59.85 46.3" style="fill:#b7d2f3"/>
                <polygon points="62.98 44.46 60.46 45.94 58.26 44.69 60.77 43.21 62.98 44.46" style="fill:#b7d2f3"/>
                <polygon points="66.11 42.62 63.59 44.1 62.42 43.44 64.94 41.95 66.11 42.62" style="fill:#b7d2f3"/>
                <path d="M52.89,38.93l-2.52,1.49,2.18,1.23s2.55-1.47,2.55-1.47Z" style="fill:#b7d2f3"/>
                <path d="M49.59,40.88l-2.52,1.48,2.18,1.23s2.55-1.46,2.55-1.46Z" style="fill:#b7d2f3"/>
                <path d="M46.29,42.82,43.77,44.3,46,45.54s2.55-1.47,2.55-1.47Z" style="fill:#b7d2f3"/>
                <path d="M43,44.76l-2.52,1.48,2.18,1.24S45.2,46,45.2,46Z" style="fill:#b7d2f3"/>
                <path d="M39.69,46.7l-2.52,1.48,2.18,1.24S41.9,48,41.9,48Z" style="fill:#b7d2f3"/>
                <path d="M36.39,48.64l-2.52,1.49,2.18,1.23s2.55-1.47,2.55-1.47Z" style="fill:#b7d2f3"/>
                <path d="M33.09,50.58l-2.52,1.49,2.18,1.23s2.55-1.47,2.55-1.47Z" style="fill:#b7d2f3"/>
                <path d="M29.79,52.53,27.27,54l2.18,1.24S32,53.78,32,53.78Z" style="fill:#b7d2f3"/>
                <path d="M26.49,54.47,24,56l2.18,1.24s2.55-1.47,2.55-1.47Z" style="fill:#b7d2f3"/>
                <path d="M23.19,56.41l-2.52,1.48,2.18,1.24s2.55-1.47,2.55-1.47Z" style="fill:#b7d2f3"/>
                <path d="M19.89,58.35l-2.52,1.48,2.18,1.24S22.1,59.6,22.1,59.6Z" style="fill:#b7d2f3"/>
                <polygon points="50.02 37.11 47.5 38.59 46.16 37.84 48.68 36.35 50.02 37.11" style="fill:#b7d2f3"/>
                <polygon points="46.88 38.95 44.36 40.44 43.02 39.68 45.55 38.2 46.88 38.95" style="fill:#b7d2f3"/>
                <polygon points="43.74 40.79 41.22 42.28 39.89 41.52 42.41 40.04 43.74 40.79" style="fill:#b7d2f3"/>
                <polygon points="40.61 42.64 38.08 44.12 36.75 43.36 39.27 41.88 40.61 42.64" style="fill:#b7d2f3"/>
                <polygon points="37.47 44.48 34.94 45.96 33.61 45.2 36.13 43.72 37.47 44.48" style="fill:#b7d2f3"/>
                <polygon points="34.33 46.32 31.81 47.8 30.47 47.05 32.99 45.56 34.33 46.32" style="fill:#b7d2f3"/>
                <polygon points="31.19 48.16 28.67 49.64 27.34 48.89 29.86 47.4 31.19 48.16" style="fill:#b7d2f3"/>
                <polygon points="28.06 50 25.53 51.49 24.2 50.73 26.72 49.25 28.06 50" style="fill:#b7d2f3"/>
                <polygon points="24.92 51.84 22.39 53.33 21.06 52.57 23.58 51.09 24.92 51.84" style="fill:#b7d2f3"/>
                <polygon points="21.78 53.69 19.25 55.17 17.92 54.41 20.44 52.93 21.78 53.69" style="fill:#b7d2f3"/>
                <polygon points="18.64 55.53 16.12 57.01 14.78 56.25 17.3 54.77 18.64 55.53" style="fill:#b7d2f3"/>
                <polygon id="Axo_base-12" data-name="Axo base" points="15.86 35.05 15.86 29.37 39.36 15.8 39.36 21.48 15.86 35.05"/>
                <polygon id="Axo_base-13" data-name="Axo base" points="15.86 40.72 15.86 35.05 39.36 21.48 39.36 27.16 15.86 40.72" style="fill:#f90000"/>
                <polygon id="Axo_base-14" data-name="Axo base" points="15.86 46.4 15.86 40.72 39.36 27.16 39.36 32.83 15.86 46.4" style="fill:#ffce00"/>
                <path d="M101.45,35.87c1,4.64-3,9.46-8.94,10.77s-11.61-1.38-12.63-6,3-9.47,8.94-10.78S100.43,31.23,101.45,35.87Z" style="fill:#c9defe"/>
                <g id="Axo_Extrusion-2" data-name="Axo Extrusion">
                    <path id="Axo_panel-3" data-name="Axo panel" d="M74.39,23.47a23.15,23.15,0,0,1,4.5-4.18,24.94,24.94,0,0,1,11.33-4.7c5.2-.68,10.58.56,16,3.68,4.45,2.57,6.69,5.13,6.69,7.61v2.94c0-2.49-2.24-5-6.69-7.61-5.4-3.12-10.78-4.36-16-3.68a24.94,24.94,0,0,0-11.33,4.7,22.81,22.81,0,0,0-4.5,4.18Z" style="fill:#5195fb"/>
                    <rect id="Axo_panel-4" data-name="Axo panel" x="72.47" y="23.31" width="1.97" height="2.94" style="fill:#69a4fc"/>
                    <g id="Axo_Surface_2" data-name="Axo Surface*">
                        <polygon id="Axo_panel-5" data-name="Axo panel" points="97.02 36.7 97.84 37.73 97.84 40.67 97.02 39.63 97.02 36.7" style="fill:#69a4fc"/>
                        <path id="Axo_panel-6" data-name="Axo panel" d="M97.84,37.73A55,55,0,0,0,105.42,35c5.19-2.33,8.37-5,9.21-7.65a5.09,5.09,0,0,0,.23-1.49v2.94a5.09,5.09,0,0,1-.23,1.49c-.84,2.67-4,5.32-9.21,7.65a55,55,0,0,1-7.58,2.72Z" style="fill:#5195fb"/>
                    </g>
                    <path id="Axo_base-15" data-name="Axo base" d="M72.47,23.31c0-.1,0-.3,1.08-1.41a27.38,27.38,0,0,1,2.83-2.58A28.34,28.34,0,0,1,87.12,14a25,25,0,0,1,9.49-.44,30.78,30.78,0,0,1,11,3.94c4.83,2.79,7.26,5.61,7.26,8.4a5.09,5.09,0,0,1-.23,1.49c-.84,2.67-4,5.32-9.21,7.65a55,55,0,0,1-7.58,2.72l-.82-1c.14,0,13.86-3.72,15.67-9.54a4.33,4.33,0,0,0,.2-1.28c0-2.48-2.24-5-6.69-7.61-5.4-3.12-10.78-4.36-16-3.68a24.94,24.94,0,0,0-11.33,4.7,23.15,23.15,0,0,0-4.5,4.18.25.25,0,0,0,0-.16Z" style="fill:#69a4fc"/>
                </g>
                <path d="M78.18,22.26s-2.33-2.76-5.1-2.36-5.88,3.33-6.37,10,4.87,7.47,7.19,7.34S80.87,30.33,78.18,22.26Z" style="fill:#5195fb"/>
                <path d="M71.65,26.92c.06-.33,1.53-8.87,5.2-8.46s4.72,2.36,5.12,9.05-5.9,11.9-7.56,11.2S70.35,34.19,71.65,26.92Z" style="fill:#c9defe"/>
                <path d="M78.73,25.28s-1.88,5.4-1.06,6.91,2.72-2.8,2.79-4S79.61,22.23,78.73,25.28Z" style="fill:#b1d0fe"/>
                <ellipse cx="91.76" cy="40.15" rx="9.45" ry="7.36" transform="translate(-6.48 20.66) rotate(-12.41)" style="fill:#5195fb"/>
                <path d="M100.55,40.14c.71,3.22-2.07,6.58-6.21,7.49s-8.08-1-8.79-4.19,2.07-6.58,6.22-7.49S99.84,36.91,100.55,40.14Z" style="fill:#69a4fc"/>
                <path d="M93.05,13.75l-1.62-1.11a4.61,4.61,0,0,1,2.21-1.77c1.33-.4,17.74,2.05,20.36,9,2.9,7.69.86,9,.86,9s.21-3-.77-3.31-1.2.38-1.2.38h-1c-.36,0-2.66-3.29-4.82-5s-8.42-4.66-9.62-4.64S93.05,13.75,93.05,13.75Z" style="fill:#b1d0fe"/>
                <path d="M91.43,12.64s1.12,6,1.31,6.1S106,21,108.62,24.28s3,4.87,3,4.87,3.74-2.7.32-9.29S91.43,12.64,91.43,12.64Z" style="fill:#99c1fd"/>
            </g>
        </g>
    </g>
</svg>
