<svg xmlns="http://www.w3.org/2000/svg" xmlns:xlink="http://www.w3.org/1999/xlink" viewBox="0 0 131.88 105.59">
    <defs>
        <linearGradient id="linear-gradient" x1="709.98" y1="73.83" x2="742.8" y2="73.83" gradientTransform="matrix(-1, 0, 0, 1, 830.92, 17.9)" gradientUnits="userSpaceOnUse">
            <stop offset="0" stop-color="#f19090"/>
            <stop offset="1" stop-color="#e84343"/>
        </linearGradient>
        <linearGradient id="linear-gradient-2" x1="709.98" y1="73.78" x2="742.07" y2="73.78" gradientTransform="matrix(-1, 0, 0, 1, 830.92, 17.9)" gradientUnits="userSpaceOnUse">
            <stop offset="0" stop-color="#e84343"/>
            <stop offset="1" stop-color="#f19090"/>
        </linearGradient>
    </defs>
    <g style="isolation:isolate">
        <g id="Layer_2" data-name="Layer 2">
            <g id="Layer_1-2" data-name="Layer 1">
                <g id="Axo_Extrusion" data-name="Axo Extrusion">
                    <path id="Axo_panel" data-name="Axo panel" d="M131.62,55.78a.3.3,0,0,0-.3,0l-29.09,16.8-40-23.09L91.34,32.73a.32.32,0,0,1,.31,0Z" style="fill:#fcd561"/>
                    <path id="Axo_base" data-name="Axo base" d="M131.62,55.78a.3.3,0,0,1,.12.28.93.93,0,0,1-.42.73l-29.09,16.8v-1l29.09-16.8A.3.3,0,0,1,131.62,55.78Z" style="fill:#feb30f"/>
                </g>
                <g id="Axo_Extrusion-2" data-name="Axo Extrusion">
                    <g id="Axo_Surface_" data-name="Axo Surface*">
                        <polygon id="Axo_panel-2" data-name="Axo panel" points="131 49.39 102.36 65.92 62.38 42.84 91.02 26.31 131 49.39" style="fill:#fceab2"/>
                        <polygon id="Axo_panel-3" data-name="Axo panel" points="101.39 65.52 101.39 72.13 61.41 49.05 62.38 42.84 101.39 65.52" style="fill:#fcd561"/>
                    </g>
                    <path id="Axo_base-2" data-name="Axo base" d="M130,49a6.8,6.8,0,0,0-.75,3.38c0,2.42.75,3.23.75,3.23L101.39,72.13V65.52Z" style="fill:#fefefe"/>
                </g>
                <g id="Axo_Extrusion-3" data-name="Axo Extrusion">
                    <path id="Axo_panel-4" data-name="Axo panel" d="M131.76,48.12a.3.3,0,0,0-.31,0L102.36,64.94l-40-23.08,29.09-16.8a.29.29,0,0,1,.31,0Z" style="fill:#fcd561"/>
                    <path id="Axo_base-3" data-name="Axo base" d="M131.76,48.12a.3.3,0,0,1,.12.27,1,1,0,0,1-.43.74L102.36,65.92v-1l29.09-16.79A.3.3,0,0,1,131.76,48.12Z" style="fill:#feb30f"/>
                </g>
                <g id="Axo_Extrusion-4" data-name="Axo Extrusion">
                    <g id="Axo_Surface_2" data-name="Axo Surface*">
                        <path id="Axo_panel-5" data-name="Axo panel" d="M103.05,64.54l-.83.48-40-23.08.83-.48Z" style="fill:#feb30f"/>
                        <path id="Axo_panel-6" data-name="Axo panel" d="M102.22,65c-2,3.55-2,7.39,0,8.57l-40-23.08c-2.05-1.18-2.05-5,0-8.57Z" style="fill:#fbc22c"/>
                        <path d="M70.52,48a9,9,0,0,0-.91,3.7,3,3,0,0,0,.77,2.3l-7.61-4.39a2.75,2.75,0,0,1-1-2.48,9.16,9.16,0,0,1,.91-3.69Z" style="fill:#feb30f"/>
                        <path d="M98.25,64.2A11.12,11.12,0,0,0,97.07,69q0,.36,0,.69L73,55.55l-.13-.09a.74.74,0,0,1-.13-.12A3.12,3.12,0,0,1,72,53.07a9,9,0,0,1,.91-3.69Z" style="fill:#feb30f"/>
                    </g>
                    <path id="Axo_base-4" data-name="Axo base" d="M103.05,64.54c-2,3.55-2,7.39,0,8.57l-.83.48c-2-1.18-2-5,0-8.57Z" style="fill:#feb30f"/>
                </g>
                <g id="Axo_Extrusion-5" data-name="Axo Extrusion">
                    <path id="Axo_panel-7" data-name="Axo panel" d="M124.36,45.44a.26.26,0,0,0-.25,0L100.23,59.25l-32.82-19L91.29,23.23a.23.23,0,0,1,.25,0Z" style="fill:#5195fb"/>
                    <path id="Axo_base-5" data-name="Axo base" d="M124.36,45.44a.27.27,0,0,1,.1.23.77.77,0,0,1-.35.6L100.23,60.06v-.81l23.88-13.78A.26.26,0,0,1,124.36,45.44Z" style="fill:#1c6df6"/>
                </g>
                <g id="Axo_Extrusion-6" data-name="Axo Extrusion">
                    <g id="Axo_Surface_3" data-name="Axo Surface*">
                        <polygon id="Axo_panel-8" data-name="Axo panel" points="123.85 36.91 100.34 50.48 67.52 31.53 91.03 17.96 123.85 36.91" style="fill:#fceab2"/>
                        <polygon id="Axo_panel-9" data-name="Axo panel" points="99.54 50.15 99.54 58.86 66.72 39.91 67.52 31.53 99.54 50.15" style="fill:#fcd561"/>
                    </g>
                    <path id="Axo_base-6" data-name="Axo base" d="M123.05,36.58a5.56,5.56,0,0,0-.62,2.77,51.56,51.56,0,0,0,.62,5.94L99.54,58.86V50.15Z" style="fill:#fefefe"/>
                </g>
                <g id="Axo_Extrusion-7" data-name="Axo Extrusion">
                    <path id="Axo_panel-10" data-name="Axo panel" d="M124.47,35.87a.23.23,0,0,0-.25,0L100.34,49.67,67.52,30.73,91.4,16.94a.23.23,0,0,1,.25,0Z" style="fill:#5195fb"/>
                    <path id="Axo_base-7" data-name="Axo base" d="M124.47,35.87a.23.23,0,0,1,.1.22.77.77,0,0,1-.35.6L100.34,50.48v-.81l23.88-13.78A.23.23,0,0,1,124.47,35.87Z" style="fill:#1c6df6"/>
                </g>
                <g id="Axo_Extrusion-8" data-name="Axo Extrusion">
                    <g id="Axo_Surface_4" data-name="Axo Surface*">
                        <path id="Axo_panel-11" data-name="Axo panel" d="M100.91,49.35l-.69.39-32.82-19,.68-.39Z" style="fill:#1c6df6"/>
                        <path id="Axo_panel-12" data-name="Axo panel" d="M100.22,49.74c-1.68,2.92-1.68,9.35,0,10.32L67.4,41.12c-1.68-1-1.68-7.41,0-10.33Z" style="fill:#3e85f4"/>
                        <path d="M74.2,35.75c-.48,1-.75,5.4-.75,6.33A2.52,2.52,0,0,0,74.08,44l-6.24-3.61c-.53-.3-1.12-3.46-.83-5.32a10.88,10.88,0,0,1,.75-3Z" style="fill:#88beff"/>
                        <path d="M97,49.06c-.62,1.31-1,6-1,7.2a5.15,5.15,0,0,0,0,.56L76.24,45.25l-.12-.08-.1-.09a2.58,2.58,0,0,1-.61-1.87c0-.92.27-5.28.75-6.31Z" style="fill:#88beff"/>
                    </g>
                    <path id="Axo_base-8" data-name="Axo base" d="M100.91,49.35c-1.69,2.91-1.69,9.35,0,10.32l-.68.39c-1.69-1-1.69-7.4,0-10.32Z" style="fill:#1c6df6"/>
                </g>
                <g id="Axo_Extrusion-9" data-name="Axo Extrusion">
                    <path id="Axo_panel-13" data-name="Axo panel" d="M115.52,33.69a.22.22,0,0,0-.19,0L96.9,44.35,71.58,29.73,90,16.56a.17.17,0,0,1,.19,0Z" style="fill:#fcd561"/>
                    <path id="Axo_base-9" data-name="Axo base" d="M115.52,33.69a.19.19,0,0,1,.08.18.57.57,0,0,1-.27.46L96.9,45v-.62l18.43-10.64A.22.22,0,0,1,115.52,33.69Z" style="fill:#feb30f"/>
                </g>
                <g id="Axo_Extrusion-10" data-name="Axo Extrusion">
                    <g id="Axo_Surface_5" data-name="Axo Surface*">
                        <polygon id="Axo_panel-14" data-name="Axo panel" points="115.13 27.11 96.99 37.58 71.67 22.96 89.81 12.49 115.13 27.11" style="fill:#fceab2"/>
                        <polygon id="Axo_panel-15" data-name="Axo panel" points="96.37 37.33 96.37 44.05 71.05 29.43 71.67 22.96 96.37 37.33" style="fill:#fcd561"/>
                    </g>
                    <path id="Axo_base-10" data-name="Axo base" d="M114.51,26.85A4.32,4.32,0,0,0,114,29a41.33,41.33,0,0,0,.48,4.58L96.37,44.05V37.33Z" style="fill:#fefefe"/>
                </g>
                <g id="Axo_Extrusion-11" data-name="Axo Extrusion">
                    <path id="Axo_panel-16" data-name="Axo panel" d="M115.61,26.3a.24.24,0,0,0-.2,0L97,37,71.67,22.34,90.09,11.7a.24.24,0,0,1,.2,0Z" style="fill:#fcd561"/>
                    <path id="Axo_base-11" data-name="Axo base" d="M115.61,26.3s.07.09.07.18a.57.57,0,0,1-.27.46L97,37.58V37l18.42-10.64A.24.24,0,0,1,115.61,26.3Z" style="fill:#feb30f"/>
                </g>
                <g id="Axo_Extrusion-12" data-name="Axo Extrusion">
                    <g id="Axo_Surface_6" data-name="Axo Surface*">
                        <path id="Axo_panel-17" data-name="Axo panel" d="M97.43,36.71l-.53.3L71.58,22.39l.52-.3Z" style="fill:#feb30f"/>
                        <path id="Axo_panel-18" data-name="Axo panel" d="M96.9,37c-1.3,2.25-1.3,7.21,0,8L71.58,30.35c-1.3-.74-1.3-5.71,0-8Z" style="fill:#fbc22c"/>
                        <path d="M76.82,26.22a22.55,22.55,0,0,0-.58,4.88,1.91,1.91,0,0,0,.49,1.45l-4.82-2.78c-.4-.23-.63-3.34-.63-4.1a5.73,5.73,0,0,1,.57-2.34Z" style="fill:#fceab2"/>
                        <path d="M94.39,36.49A21.92,21.92,0,0,0,93.64,42a3,3,0,0,0,0,.43L78.39,33.54l-.08,0-.08-.07A2,2,0,0,1,77.76,32a22.5,22.5,0,0,1,.57-4.87Z" style="fill:#fceab2"/>
                    </g>
                    <path id="Axo_base-12" data-name="Axo base" d="M97.43,36.71c-1.3,2.24-1.3,7.21,0,8l-.53.3c-1.3-.75-1.3-5.71,0-8Z" style="fill:#feb30f"/>
                </g>
                <path d="M76,60.32c.11,6.69-3.63,13.62-5,15.89a8,8,0,0,1-3.58,3.69c-5.28,3-13.87,3-19.19,0a8.7,8.7,0,0,1-3.24-3l-.07-.1-.06-.1c-.9-1.45-6-10-5.26-17.78.82-8.53,8.84-17.17,8.84-17.17s18.58,1.44,18.66.14c.56.61,8,8.9,8.8,17.1,0,0,0,0,0,.06C76,59.45,76,59.88,76,60.32Z" style="fill:#fc5552"/>
                <path d="M58.42,47H58a14.45,14.45,0,0,1-6.69-1.58C48,43.68,48.51,41.7,48.51,41.7A42,42,0,0,0,46.07,36l11.58-5.74Z" style="fill:#e84343"/>
                <path d="M67.16,41.77l0,0c0,1.34-1,2.62-2.66,3.61a12.74,12.74,0,0,1-6,1.56H58V30.34l11.87,5.13Z" style="fill:#e84343"/>
                <path d="M69,37.21a8.14,8.14,0,0,1-2.57,2.2A14.14,14.14,0,0,1,63,40.78a18.88,18.88,0,0,1-5,.66h-.07a19.47,19.47,0,0,1-5.26-.7,14.51,14.51,0,0,1-3.35-1.36,8.3,8.3,0,0,1-2.64-2.29c-1.82-2.53-1-5.54,2.59-7.59a18.7,18.7,0,0,1,12-1.73c.88.15,1.78,3.84,1.78,3.84s2.55-2.53,3.34-2.08C70,31.61,70.86,34.67,69,37.21Z" style="fill:#fc9f9c"/>
                <path d="M65.17,38.68a10.55,10.55,0,0,1-1.22.59,16.71,16.71,0,0,1-12.19,0,10.66,10.66,0,0,1-1.17-.59c-4-2.33-4.06-6.1,0-8.42a15.73,15.73,0,0,1,9.23-1.62c1,.12,2.14,4.32,2.14,4.32s2.44-3.11,3.2-2.67C69.16,32.59,69.18,36.36,65.17,38.68Z" style="fill:#fc5552"/>
                <path d="M64,39.27a16.71,16.71,0,0,1-12.19,0,5,5,0,0,1,1.18-.92,10.81,10.81,0,0,1,9.8,0A5.21,5.21,0,0,1,64,39.27Z" style="fill:#b72727"/>
                <path d="M76,60.32c0-.44,0-.87-.06-1.3A6.3,6.3,0,0,1,76,60.32Z" style="fill:#fc9f9c"/>
                <path d="M55.77,41.29l3.51,5.79,1.14,3.66a21.44,21.44,0,0,0-.76,3.89c-.08,1.52,4,3.5,4.19,4.26s2.36,5.49,2.36,5.49l-2-6.48-3.81-3L61,50.51l-1-3.73-3.28-5.34.54-.91-1-.15Z" style="fill:#b72727"/>
                <path d="M48.46,53.33,43,61.1s.16,3.66.23,4.12-.3,2.74-.07,3S45,70.86,45,70.86L43.81,68,44,65.3l-.31-3.81Z" style="fill:#b72727"/>
                <path d="M38.88,75.06s17.63-.17,19.32,4.44,4.34,14.92,4.34,14.92S58.63,84,49,89.57C43.33,92.86,37.8,97,37,96.76S25.77,78.51,38.88,75.06Z" style="fill:#3e85f4"/>
                <path d="M62.54,94.43,60.8,97.49l-4.12-11a5.35,5.35,0,0,0,1.78-3.84c0-.31.13-.73,0-.78s-2.39-1.21-5,1.38-1.91,3.17-1.91,3.17l3.66,5.12-1.42,4.33-5.65-1.54-.54-6.22s-3.85-2.17-6.34.08a10.88,10.88,0,0,0-3.06,5.7s4.11.28,5.19-.33,1.94,2.86,1.94,2.86l2.57,6.19s-3.79,3.92-7.5,1.79a1.62,1.62,0,0,1-.39-.24,58.09,58.09,0,0,0-6.3-3.15L19.29,98.63s4.38-14.13,3-19S20,62.88,34.45,58.67C46.63,55.11,53.35,63.86,55.78,69a15.29,15.29,0,0,1,.89,2.4C57.64,75.29,62.54,94.43,62.54,94.43Z" style="fill:#88beff"/>
                <path d="M56.68,86.48a5.35,5.35,0,0,0,1.78-3.84c0-.31.13-.73,0-.78s-2.39-1.21-5,1.38-1.91,3.17-1.91,3.17l3.66,5.12-1.42,4.33-5.65-1.54-.54-6.22s-3.85-2.17-6.34.08a10.88,10.88,0,0,0-3.06,5.7s4.11.28,5.19-.33,1.94,2.86,1.94,2.86l2.57,6.19s-3.79,3.92-7.5,1.79c-.16-.08-5.76-2.94-5.87-3,2.84-4.46.5-8.9-.09-11-1.39-4.88-2.27-17,12.21-20.93C55.91,66.9,57.75,75.7,57.9,76.3c1,3.86,4.64,18.13,4.64,18.13L60.8,97.49Z" style="fill:#3e85f4;opacity:0.4"/>
                <path d="M60.83,97.25,57.17,86.58a5.87,5.87,0,0,0,1.68-3.14c.06-.3.09-.69.12-.92A2.52,2.52,0,0,0,59,82a.74.74,0,0,0-.15-.38.78.78,0,0,0-.31-.21l-.23-.09a4.32,4.32,0,0,0-2-.2A6.15,6.15,0,0,0,52.86,83a14.48,14.48,0,0,0-1.26,1.42,5.72,5.72,0,0,0-.54.88,2.53,2.53,0,0,0-.2.57c0,.26-.19.42.15,1l3.4,4.83-1.09,3.29L48.9,93.71l-.51-6.13-.38-.2a8.87,8.87,0,0,0-3.52-1,5.07,5.07,0,0,0-3.68,1.17,11.32,11.32,0,0,0-3.37,6.24l-.18.87.9,0a22.14,22.14,0,0,0,4.72-.14,5.11,5.11,0,0,0,.76-.23,1.55,1.55,0,0,1,.26.38,10.76,10.76,0,0,1,.76,2l2.46,5.71c-1.67,1.51-4.07,2.61-6.1,1.63l-3.49-1.81c-1.2-.58-2.39-1.13-3.73-1.67L19.3,98.62s14.37,2.8,14.27,2.77c1.18.53,2.36,1.12,3.51,1.73L40.54,105a5.49,5.49,0,0,0,4.28.22,9.84,9.84,0,0,0,3.6-2.19l.31-.3-.18-.44s-2.54-6.19-2.5-6.08a11,11,0,0,0-.83-2.3A2.35,2.35,0,0,0,44,92.77c-.43-.19-1.14.19-1.06.14a1.72,1.72,0,0,1-.39.11,17.72,17.72,0,0,1-3.37.11,9.45,9.45,0,0,1,2.67-4.38c1.22-1.12,3.28-.84,4.95-.1l.59,6.3,6.9,1.84L56,91.39l-3.87-5.27a1.74,1.74,0,0,1,.09-.28,4.28,4.28,0,0,1,.39-.67,12.21,12.21,0,0,1,1.1-1.32,5,5,0,0,1,2.71-1.68,3.1,3.1,0,0,1,1.51.1s0,.08,0,.12c0,.37,0,.59-.09.88a4.93,4.93,0,0,1-1.46,2.85l-.26.23,4.64,11.39,1.75-3.32Zm-8.67-11.1s0,0,0,0Z" style="fill:#fbc22c"/>
                <g id="Axo_Extrusion-13" data-name="Axo Extrusion">
                    <path id="Axo_panel-19" data-name="Axo panel" d="M67.91,84.23c0,1.64,1.08,3.27,3.24,4.52a17.31,17.31,0,0,0,15.64,0C89,87.5,90,85.87,90,84.23v2c0,1.63-1.09,3.26-3.25,4.51a17.24,17.24,0,0,1-15.64,0c-2.16-1.25-3.24-2.88-3.24-4.52Z" style="fill:#202a5f"/>
                    <path id="Axo_base-13" data-name="Axo base" d="M67.91,84.23c0-1.63,1.08-3.27,3.24-4.52a17.31,17.31,0,0,1,15.64,0C89,81,90,82.6,90,84.23S89,87.5,86.79,88.75a17.31,17.31,0,0,1-15.64,0C69,87.5,67.91,85.87,67.91,84.23Z" style="fill:#0b45b2"/>
                </g>
                <path d="M76.57,67.78s1.44.5,1.66,1.41.24,7.68.31,8S72.91,82,72.91,82l7.46,2.08,5.07-2.12-5.82-4.68V68.9l1.43-1.12Z" style="fill:#feb30f"/>
                <path d="M79,68.51a4.91,4.91,0,0,1-.6,0,7.24,7.24,0,0,1-.92-.15,7.41,7.41,0,0,1-2-.81,7.71,7.71,0,0,1-2.84-3,8.35,8.35,0,0,1-1-4v-3.2a7.8,7.8,0,0,0,1.05.74A12.54,12.54,0,0,0,79,59.69a12.75,12.75,0,0,0,6.12-1.44,7.25,7.25,0,0,0,1.2-.83v3.22c0,.41,0,.77-.07,1a7.72,7.72,0,0,1-.14.84,8.33,8.33,0,0,1-.8,2.09,7.86,7.86,0,0,1-2.62,2.81,7.54,7.54,0,0,1-1.56.77,6.94,6.94,0,0,1-1.94.36Z" style="fill:#121e51;opacity:0.5"/>
                <path d="M81.43,69c-.21.06-.56.18-1,.27a24,24,0,0,1,2.88,1.47,9.83,9.83,0,0,1,1,.82,8,8,0,0,1,.7.73,8.38,8.38,0,0,1,1.13,1.69,9.39,9.39,0,0,1,.69,1.77,9.11,9.11,0,0,1,.24,1.18,8.87,8.87,0,0,1,.06,1.21v5.6c0,1.24-.84,2.47-2.49,3.4a6.36,6.36,0,0,1-.58.3A12.94,12.94,0,0,1,73,87a4,4,0,0,1-2.31-3.33v-5.6c0-.32,0-.76.07-1.08A8,8,0,0,1,71,75.79a8.9,8.9,0,0,1,.9-2.2,8.79,8.79,0,0,1,3.26-3.26c.28-.14,1.52-.72,2.42-1.1a3.81,3.81,0,0,1-.38-.08,8.06,8.06,0,0,1-2.19-.9A8.61,8.61,0,0,1,71.88,65a9.17,9.17,0,0,1-1.1-4.38V54.06a4.09,4.09,0,0,0,2.34,3.33,12.93,12.93,0,0,0,9.81.88,9.21,9.21,0,0,0,1.81-.77c1.65-.92,2.48-2.16,2.48-3.4v6.54c0,.33,0,.77-.08,1.1a7.55,7.55,0,0,1-.17.95,8.73,8.73,0,0,1-3.78,5.41A8.26,8.26,0,0,1,81.43,69Z" style="fill:#88beff;opacity:0.5"/>
                <path d="M79,87.58a11,11,0,0,1-5.49-1.33,3.27,3.27,0,0,1-1.9-2.6V78.06c0-.26,0-.69.07-1a9.32,9.32,0,0,1,.2-1.07,8,8,0,0,1,3.76-4.93,30.46,30.46,0,0,1,2.81-1.24,3.06,3.06,0,0,0,1,.36h.36L80,70a21.82,21.82,0,0,1,2.86,1.46,8.63,8.63,0,0,1,.92.73,8.54,8.54,0,0,1,.63.67,8,8,0,0,1,1,1.51A8.29,8.29,0,0,1,86,75.91,9,9,0,0,1,86.24,77a7.19,7.19,0,0,1,.06,1.1v5.6a3.4,3.4,0,0,1-2.06,2.65A10.9,10.9,0,0,1,79,87.58Z" style="fill:#88beff;opacity:0.5"/>
                <g id="Axo_Projection" data-name="Axo Projection">
                    <path id="Axo_base-14" data-name="Axo base" d="M85.09,64.56a3,3,0,0,1-1.78,2.49c-2.38,1.37-4.6,2.87-8.61,0-1.12-.8-1.79-1.59-1.79-2.49a3,3,0,0,1,1.79-2.48,9.53,9.53,0,0,1,8.61,0A3,3,0,0,1,85.09,64.56Z" style="fill:#fcd561"/>
                    <path id="Axo_base-15" data-name="Axo base" d="M84.59,64.57c0,1.8-2.53,3.26-5.66,3.26s-5.65-1.46-5.65-3.26,2.53-3.27,5.65-3.27S84.59,62.76,84.59,64.57Z" style="fill:#feb30f"/>
                </g>
                <path id="Axo_base-16" data-name="Axo base" d="M86.56,83.25a3.78,3.78,0,0,1-2.22,3.1,11.88,11.88,0,0,1-10.74,0,3.28,3.28,0,0,1,0-6.21,11.88,11.88,0,0,1,10.74,0A3.78,3.78,0,0,1,86.56,83.25Z" style="fill:#fcd561"/>
                <path d="M72.91,82s-1.15,2.25.56,3,2.14.31,3-1.77,2.35-4.41,1.77-4.36S76,81.17,75,81.38,72.91,82,72.91,82Z" style="fill:#fceab2"/>
                <path d="M76.25,72.71s-2.37.63-2.65,2.68c-.13.92-.48,2,.33,2.2s.57,0,.75-1.37A6.71,6.71,0,0,1,76.25,72.71Z" style="fill:#fefefe"/>
                <path d="M81.43,69c-.21.06-.56.18-1,.27a24,24,0,0,1,2.88,1.47,9.83,9.83,0,0,1,1,.82,8,8,0,0,1,.7.73,8.38,8.38,0,0,1,1.13,1.69,9.39,9.39,0,0,1,.69,1.77,9.11,9.11,0,0,1,.24,1.18,8.87,8.87,0,0,1,.06,1.21v5.6c0,1.24-.84,2.47-2.49,3.4a6.36,6.36,0,0,1-.58.3,77,77,0,0,0-.33-9.74,10.53,10.53,0,0,0-4-7.46s-.13-1.3.91-1.51,2.88-3.21,3-6a15.43,15.43,0,0,0-.68-4.46,9.21,9.21,0,0,0,1.81-.77c1.65-.92,2.48-2.16,2.48-3.4v6.54c0,.33,0,.77-.08,1.1a7.55,7.55,0,0,1-.17.95,8.73,8.73,0,0,1-3.78,5.41A8.26,8.26,0,0,1,81.43,69Z" style="fill:#88beff;opacity:0.5;mix-blend-mode:multiply"/>
                <g id="Axo_Extrusion-14" data-name="Axo Extrusion">
                    <path id="Axo_panel-20" data-name="Axo panel" d="M68.26,53.06c0,1.64,1.08,3.28,3.25,4.52a17.24,17.24,0,0,0,15.64,0c2.16-1.24,3.24-2.88,3.24-4.51v2c0,1.63-1.08,3.27-3.24,4.52a17.31,17.31,0,0,1-15.64,0c-2.17-1.25-3.25-2.89-3.25-4.52Z" style="fill:#202a5f"/>
                    <path id="Axo_base-17" data-name="Axo base" d="M68.26,53.06c0-1.63,1.09-3.26,3.25-4.51a17.24,17.24,0,0,1,15.64,0c2.16,1.25,3.24,2.88,3.24,4.52s-1.08,3.27-3.24,4.51a17.24,17.24,0,0,1-15.64,0C69.34,56.34,68.26,54.7,68.26,53.06Z" style="fill:#0b45b2"/>
                </g>
                <path d="M23.45,53.85a4.09,4.09,0,0,1-4.58,3.53,4,4,0,0,1-2.31-1.11A5.62,5.62,0,0,1,6.17,54.6,4,4,0,1,1,1.78,48,3.58,3.58,0,0,1,4.8,42L5,42a11.08,11.08,0,0,0,10-1.9c3.51-2.92,6.94-5.77,6.59-5.49.42.37,3.32.68,5.54.94.86-1-8.43,14.27-7,14.45C22.34,50.28,23.46,53.72,23.45,53.85Z" style="fill:#d9e6f9;opacity:0.7"/>
                <path d="M26.14,39.75a11.76,11.76,0,0,1-5.75,1A11.68,11.68,0,0,1,19.76,35c.47-3.26,6-5,6-5,.2.15,1.64,1.41,1.64,1.41s1.62,1,1.82,1.18C29.23,32.59,29.14,38.39,26.14,39.75Z" style="fill:#fbc22c"/>
                <path d="M26.35,38.92a10.3,10.3,0,0,1-5.23.85,10.25,10.25,0,0,1-.63-5.23c.47-2.7,5.28-3.81,5.28-3.81.15.12,1.26,1.21,1.26,1.21s1.35.75,1.5.87C28.53,32.81,28.82,37.71,26.35,38.92Z" style="fill:#fbcc4d"/>
                <path d="M26.56,38.09a9.14,9.14,0,0,1-4.71.68,8.91,8.91,0,0,1-.63-4.64c.47-2.15,4.56-2.66,4.56-2.66s.86,1,.86,1,1.1.48,1.2.56S28.49,37,26.56,38.09Z" style="fill:#fcd66f"/>
                <path d="M26.77,37.25c-1.41.89-4.19.52-4.19.52S21.5,35.3,22,33.71s3.83-1.5,3.83-1.5.48.78.48.78.84.2.89.24S28.17,36.36,26.77,37.25Z" style="fill:#fce090"/>
                <path d="M27,36.42c-.87.72-3.66.35-3.66.35s-1.08-2.44-.62-3.48,3.1-.35,3.1-.35l.08.58.58-.08S27.84,35.69,27,36.42Z" style="fill:#fceab2"/>
                <path d="M26.66,25.57s-1-1.45-1.89-1.6a6,6,0,0,0-2.83,0L19.1,27.4a37,37,0,0,1,4-.53c.39.11,1.12,1.5,1.12,1.5Z" style="fill:#3e85f4"/>
                <path d="M24.9,25.28s-2.23-1.39-3.08-1-6,5.25-6,5.25l.48.73s4.75-2.71,5.14-2.61,1.13,1.5,1.13,1.5Z" style="fill:#0b45b2"/>
                <path d="M33.54,30.73s1.66.52,2.07,1.36a6,6,0,0,1,.76,2.73L33.9,38.5a36.14,36.14,0,0,0-.63-4c-.21-.34-1.76-.66-1.76-.66Z" style="fill:#3e85f4"/>
                <path d="M34.3,32.33s2,1.76,1.83,2.69-3.36,7.22-3.36,7.22L31.93,42s1.28-5.32,1.07-5.67-1.76-.66-1.76-.66Z" style="fill:#0b45b2"/>
                <path d="M22.17,31a7.06,7.06,0,0,1-.4-1.35c0-.2-.07-.48-.08-.68a5.17,5.17,0,0,1,0-.88,5.51,5.51,0,0,1,.38-1.62,5.24,5.24,0,0,1,.72-1.27,3.52,3.52,0,0,0-.12,3.56A11.25,11.25,0,0,0,30.77,35a3.64,3.64,0,0,0,3.55-1.08c-.17.2-.4.47-.59.66a4,4,0,0,1-.5.42,7,7,0,0,1-.73.47,5.21,5.21,0,0,1-.83.35,7.17,7.17,0,0,1-.76.21,6.66,6.66,0,0,1-2,.08,8.64,8.64,0,0,1-1-.19,8.53,8.53,0,0,1-1.69-.64,9.82,9.82,0,0,1-1.69-1.13,8.82,8.82,0,0,1-1.4-1.49A7.25,7.25,0,0,1,22.17,31Z" style="fill:#121e51"/>
                <path d="M22.51,25.62,29.23,13.1a4.9,4.9,0,0,0,.11,4.23,14.66,14.66,0,0,0,10.57,8.1,5.07,5.07,0,0,0,4.29-1L34,34.29a3.87,3.87,0,0,1-3.29.79,11.22,11.22,0,0,1-8.11-6.21A3.82,3.82,0,0,1,22.51,25.62Z" style="fill:#fbc429"/>
                <path d="M29.23,13.1c.48-.89.68-1.22.94-1.62s.71-1.05,1-1.49c.17-.24.41-.54.59-.77A26.1,26.1,0,0,1,35,5.9a24.51,24.51,0,0,1,7.74-4.61c-1.39.51-1.92,1.94-1.17,3.79a9.59,9.59,0,0,0,6.89,5.28c2.05.27,3.34-.63,3.45-2.15,0,.49-.11,1.16-.17,1.65,0,.28-.11.65-.16.93,0,0-.15.85-.39,1.75-.07.28-.17.64-.25.91-.16.5-.39,1.16-.57,1.65-.07.2-.39,1-.74,1.76a25.4,25.4,0,0,1-5.38,7.53,5.07,5.07,0,0,1-4.29,1,14.66,14.66,0,0,1-10.57-8.1A4.87,4.87,0,0,1,29.23,13.1Z" style="fill:#fcd561"/>
                <g style="isolation:isolate">
                    <path d="M42.69,1.29C43.54,1,44.2.79,44.52.7c-1.3.36-1.82,1.59-1.16,3.2a7.91,7.91,0,0,0,5.7,4.37c1.79.24,2.88-.6,2.87-2,0,.62,0,1.27-.07,1.92-.1,1.52-1.4,2.42-3.45,2.15a9.59,9.59,0,0,1-6.89-5.28C40.77,3.23,41.29,1.79,42.69,1.29Z" style="fill:#0b45b2"/>
                    <path d="M49.06,8.27a7.89,7.89,0,0,1-5.7-4.37c-.66-1.61-.14-2.85,1.17-3.2A19.78,19.78,0,0,1,48.87,0h-.1c.17,0,1.94,0,2.09,0a21.4,21.4,0,0,1,.57,2.08,18.44,18.44,0,0,1,.5,4.2C52,7.67,50.85,8.51,49.06,8.27Z" style="fill:#fcd561"/>
                </g>
                <path d="M30.89,20.89c.95-1.27,3-1.37,4.52-.2s2,3.14,1.08,4.4a3.22,3.22,0,0,1-4.48.22C30.42,24.13,29.94,22.15,30.89,20.89Zm5.2-1c-2.15-1.63-4.94-1.5-6.24.24a3.65,3.65,0,0,0-.51,3.19,5.4,5.4,0,0,0,2,2.83c2.15,1.6,4.91,1.47,6.2-.26a3.55,3.55,0,0,0,.6-2.8A5.26,5.26,0,0,0,36.09,19.87Z" style="fill:#202a5f"/>
                <path d="M30.65,21.2c1-1.27,3-1.36,4.53-.19s2,3.13,1.07,4.39a3.2,3.2,0,0,1-4.47.22C30.18,24.44,29.71,22.46,30.65,21.2Zm5.21-1c-2.16-1.63-4.94-1.5-6.24.24a3.59,3.59,0,0,0-.51,3.19,5.36,5.36,0,0,0,2,2.83c2.15,1.6,4.9,1.47,6.2-.26a3.48,3.48,0,0,0,.59-2.79A5.26,5.26,0,0,0,35.86,20.18Z" style="fill:#fff"/>
                <path d="M36.71,24.28A3.54,3.54,0,0,0,35.22,21c-1.58-1.2-3.61-1.11-4.57.16a2.68,2.68,0,0,0-.32,2.48,3.87,3.87,0,0,0,1.41,1.91c1.57,1.17,3.57,1.06,4.51-.19A2.29,2.29,0,0,0,36.71,24.28Z" style="fill:#3e85f4"/>
                <path d="M36.71,24.28a3.88,3.88,0,0,0-1.36-1.87c-1.58-1.2-3.61-1.11-4.56.16a2.42,2.42,0,0,0-.46,1.11,3.87,3.87,0,0,0,1.41,1.91c1.57,1.17,3.57,1.06,4.51-.19A2.29,2.29,0,0,0,36.71,24.28Z" style="fill:#88beff"/>
                <path d="M33.05,21.21a.42.42,0,0,0-.58,0,.42.42,0,0,0,.13.58.42.42,0,0,0,.58,0A.41.41,0,0,0,33.05,21.21Z" style="fill:#f1f0ef"/>
                <g style="isolation:isolate">
                    <path d="M14.4,33.88l-.71-1.06c-.13-.2,0-.53.26-.83l.71,1.06C14.35,33.34,14.27,33.67,14.4,33.88Z" style="fill:#3e85f4"/>
                    <polygon points="20.7 27.96 19.99 26.9 24.45 25.29 25.16 26.35 20.7 27.96" style="fill:#3e85f4"/>
                    <polygon points="14.66 33.05 13.95 31.99 17.96 28.16 18.67 29.22 14.66 33.05" style="fill:#3e85f4"/>
                    <path d="M18.67,29.22,18,28.16a6,6,0,0,1,2-1.26L20.7,28A5.87,5.87,0,0,0,18.67,29.22Z" style="fill:#3e85f4"/>
                    <path d="M25.16,26.35l-3.14,5H19l-3.35,2.43a1.27,1.27,0,0,1-.92.27c-.48-.1-.49-.59-.05-1l4-3.83C20,27.72,25.16,26.35,25.16,26.35Z" style="fill:#0b45b2"/>
                </g>
                <g style="isolation:isolate">
                    <path d="M29,44.8l1.21.39c.23.07.52-.1.72-.48l-1.21-.39C29.49,44.7,29.2,44.88,29,44.8Z" style="fill:#3e85f4"/>
                    <polygon points="32.89 37.1 34.1 37.49 34.4 32.75 33.19 32.36 32.89 37.1" style="fill:#3e85f4"/>
                    <polygon points="29.69 44.32 30.9 44.71 33.45 39.79 32.24 39.4 29.69 44.32" style="fill:#3e85f4"/>
                    <path d="M32.24,39.4l1.21.39a5.79,5.79,0,0,0,.65-2.3l-1.21-.39A5.79,5.79,0,0,1,32.24,39.4Z" style="fill:#3e85f4"/>
                    <path d="M33.18,32.36l-3.92,4.42.83,2.93L28.71,43.6a1.22,1.22,0,0,0,0,1c.22.43.7.3,1-.24l2.55-4.92a5.79,5.79,0,0,0,.65-2.3Z" style="fill:#0b45b2"/>
                </g>
                <path d="M40.75,5c-.33-1.15-3.93.95-6.54,3.82a22.48,22.48,0,0,0-4,7S33.84,11,34.89,9.94C39.52,5.52,41.06,6.09,40.75,5Z" style="fill:#f2dbd1;opacity:0.46"/>
                <path d="M88.54,101.13l-.05.64.78.52.92.07L121.5,83.93s-.27-.62.06-.85,1.2-.65,1.23-.82.2-.32,0-.31a16.32,16.32,0,0,0-1.82.73l-1.81.66Z" style="mix-blend-mode:multiply;fill:#faf7f7"/>
                <path d="M122.83,81.34a.24.24,0,0,1-.14.22l-.64.34-1.48,1.73L119.9,82l-.08-.28a13.52,13.52,0,0,0,2-.16l.68-.32A.27.27,0,0,1,122.83,81.34Z" style="fill:#fff"/>
                <polygon points="120.94 83.11 120.57 83.63 88.86 101.73 88.12 99.83 119.82 81.73 120.57 82.16 120.94 83.11" style="fill:url(#linear-gradient)"/>
                <polygon points="88.86 100.26 88.12 99.83 87.75 100.36 88.12 101.31 88.86 101.73 89.23 101.21 88.86 100.26" style="fill:#fff"/>
                <path d="M88.61,100.48l-.13-.07a.22.22,0,0,0-.29.06.26.26,0,0,0,0,.21l.12.29a.2.2,0,0,0,.09.11l.13.08a.22.22,0,0,0,.29-.07.21.21,0,0,0,0-.2l-.12-.3A.23.23,0,0,0,88.61,100.48Z" style="fill:#ec6161"/>
                <polygon points="120.57 82.16 88.85 100.25 89.23 101.21 120.94 83.11 120.57 82.16" style="fill:url(#linear-gradient-2)"/>
                <path d="M122.83,81.34a.24.24,0,0,1-.14.22l-.64.34-.22.13.11-.34-.31,0,.22-.16.68-.32A.27.27,0,0,1,122.83,81.34Z" style="fill:#f18c8c"/>
            </g>
        </g>
    </g>
</svg>
