<svg xmlns="http://www.w3.org/2000/svg" viewBox="0 0 131.88 105.59" xmlns:v="https://vecta.io/nano"><style><![CDATA[.B{fill:#fcd561}.C{fill:#feb30f}.D{fill:#3e85f4}.E{fill:#0b45b2}.F{fill:#fceab2}.G{fill:#88beff}.H{fill:#fefefe}.I{fill:#fbc22c}.J{fill:#1c6df6}.K{fill:#202a5f}]]></style><defs><linearGradient id="A" x1="120.94" y1="91.73" x2="88.12" y2="91.73" gradientUnits="userSpaceOnUse"><stop offset="0" stop-color="#f19090"/><stop offset="1" stop-color="#e84343"/></linearGradient><linearGradient id="B" x1="120.94" y1="91.68" x2="88.85" y2="91.68" gradientUnits="userSpaceOnUse"><stop offset="0" stop-color="#e84343"/><stop offset="1" stop-color="#f19090"/></linearGradient></defs><path d="M131.62,55.78a.3.3,0,0,0-.3,0l-29.09,16.8-40-23.09L91.34,32.73a.32.32,0,0,1,.31,0Z" class="B"/><path d="M131.62 55.78a.3.3 0 0 1 .12.28.93.93 0 0 1-.42.73l-29.09 16.8v-1l29.09-16.8a.3.3 0 0 1 .3-.01z" class="C"/><path d="M131 49.39l-28.64 16.53-39.98-23.08 28.64-16.53L131 49.39z" class="F"/><path d="M101.39 65.52v6.61L61.41 49.05l.97-6.21 39.01 22.68z" class="B"/><path d="M130,49a6.8,6.8,0,0,0-.75,3.38c0,2.42.75,3.23.75,3.23L101.39,72.13V65.52Z" class="H"/><path d="M131.76 48.12a.3.3 0 0 0-.31 0l-29.09 16.82-40-23.08 29.09-16.8a.29.29 0 0 1 .31 0z" class="B"/><g class="C"><path d="M131.76 48.12a.3.3 0 0 1 .12.27 1 1 0 0 1-.43.74l-29.09 16.79v-1l29.09-16.79a.3.3 0 0 1 .31-.01z"/><path d="M103.05,64.54l-.83.48-40-23.08.83-.48Z"/></g><path d="M102.22,65c-2,3.55-2,7.39,0,8.57l-40-23.08c-2.05-1.18-2.05-5,0-8.57Z" class="I"/><path d="M70.52 48a9 9 0 0 0-.91 3.7 3 3 0 0 0 .77 2.3l-7.61-4.39a2.75 2.75 0 0 1-1-2.48 9.16 9.16 0 0 1 .91-3.69zm27.73 16.2a11.12 11.12 0 0 0-1.18 4.8q0 .36 0 .69L73 55.55l-.13-.09a.74.74 0 0 1-.13-.12 3.12 3.12 0 0 1-.74-2.27 9 9 0 0 1 .91-3.69zm4.8.34c-2 3.55-2 7.39 0 8.57l-.83.48c-2-1.18-2-5 0-8.57z" class="C"/><path d="M124.36 45.44a.26.26 0 0 0-.25 0l-23.88 13.81-32.82-19 23.88-17.02a.23.23 0 0 1 .25 0z" fill="#5195fb"/><path d="M124.36 45.44a.27.27 0 0 1 .1.23.77.77 0 0 1-.35.6l-23.88 13.79v-.81l23.88-13.78a.26.26 0 0 1 .25-.03z" class="J"/><path d="M123.85 36.91l-23.51 13.57-32.82-18.95 23.51-13.57 32.82 18.95z" class="F"/><path d="M99.54 50.15v8.71L66.72 39.91l.8-8.38 32.02 18.62z" class="B"/><path d="M123.05,36.58a5.56,5.56,0,0,0-.62,2.77,51.56,51.56,0,0,0,.62,5.94L99.54,58.86V50.15Z" class="H"/><path d="M124.47 35.87a.23.23 0 0 0-.25 0l-23.88 13.8-32.82-18.94L91.4 16.94a.23.23 0 0 1 .25 0z" fill="#5195fb"/><g class="J"><path d="M124.47 35.87a.23.23 0 0 1 .1.22.77.77 0 0 1-.35.6l-23.88 13.79v-.81l23.88-13.78a.23.23 0 0 1 .25-.02z"/><path d="M100.91,49.35l-.69.39-32.82-19,.68-.39Z"/></g><path d="M100.22,49.74c-1.68,2.92-1.68,9.35,0,10.32L67.4,41.12c-1.68-1-1.68-7.41,0-10.33Z" class="D"/><path d="M74.2 35.75c-.48 1-.75 5.4-.75 6.33a2.52 2.52 0 0 0 .63 1.92l-6.24-3.61c-.53-.3-1.12-3.46-.83-5.32a10.88 10.88 0 0 1 .75-3zM97 49.06c-.62 1.31-1 6-1 7.2a5.15 5.15 0 0 0 0 .56L76.24 45.25l-.12-.08-.1-.09a2.58 2.58 0 0 1-.61-1.87c0-.92.27-5.28.75-6.31z" class="G"/><path d="M100.91,49.35c-1.69,2.91-1.69,9.35,0,10.32l-.68.39c-1.69-1-1.69-7.4,0-10.32Z" class="J"/><path d="M115.52,33.69a.22.22,0,0,0-.19,0L96.9,44.35,71.58,29.73,90,16.56a.17.17,0,0,1,.19,0Z" class="B"/><path d="M115.52 33.69a.19.19 0 0 1 .08.18.57.57 0 0 1-.27.46L96.9 45v-.62l18.43-10.64a.22.22 0 0 1 .19-.05z" class="C"/><path d="M115.13 27.11L96.99 37.58 71.67 22.96l18.14-10.47 25.32 14.62z" class="F"/><path d="M96.37 37.33v6.72L71.05 29.43l.62-6.47 24.7 14.37z" class="B"/><path d="M114.51,26.85A4.32,4.32,0,0,0,114,29a41.33,41.33,0,0,0,.48,4.58L96.37,44.05V37.33Z" class="H"/><path d="M115.61,26.3a.24.24,0,0,0-.2,0L97,37,71.67,22.34,90.09,11.7a.24.24,0,0,1,.2,0Z" class="B"/><path d="M115.61 26.3s.07.09.07.18a.57.57 0 0 1-.27.46L97 37.58V37l18.42-10.64a.24.24 0 0 1 .19-.06zM97.43 36.71l-.53.3-25.32-14.62.52-.3z" class="C"/><path d="M96.9,37c-1.3,2.25-1.3,7.21,0,8L71.58,30.35c-1.3-.74-1.3-5.71,0-8Z" class="I"/><path d="M76.82 26.22a22.55 22.55 0 0 0-.58 4.88 1.91 1.91 0 0 0 .49 1.45l-4.82-2.78c-.4-.23-.63-3.34-.63-4.1a5.73 5.73 0 0 1 .57-2.34zm17.57 10.27a21.92 21.92 0 0 0-.75 5.51 3 3 0 0 0 0 .43l-15.25-8.89h-.08l-.08-.07a2 2 0 0 1-.47-1.47 22.5 22.5 0 0 1 .57-4.87z" class="F"/><path d="M97.43,36.71c-1.3,2.24-1.3,7.21,0,8l-.53.3c-1.3-.75-1.3-5.71,0-8Z" class="C"/><path d="M76 60.32c.11 6.69-3.63 13.62-5 15.89a8 8 0 0 1-3.58 3.69c-5.28 3-13.87 3-19.19 0a8.7 8.7 0 0 1-3.24-3l-.07-.1-.06-.1c-.9-1.45-6-10-5.26-17.78.82-8.53 8.84-17.17 8.84-17.17s18.58 1.44 18.66.14c.56.61 8 8.9 8.8 17.1v.06c.1.4.1.83.1 1.27z" fill="#fc5552"/><g fill="#e84343"><path d="M58.42 47H58a14.45 14.45 0 0 1-6.69-1.58c-3.31-1.74-2.8-3.72-2.8-3.72a42 42 0 0 0-2.44-5.7l11.58-5.74z"/><path d="M67.16 41.77h0c0 1.34-1 2.62-2.66 3.61a12.74 12.74 0 0 1-6 1.56H58v-16.6l11.87 5.13z"/></g><path d="M69,37.21a8.14,8.14,0,0,1-2.57,2.2A14.14,14.14,0,0,1,63,40.78a18.88,18.88,0,0,1-5,.66h-.07a19.47,19.47,0,0,1-5.26-.7,14.51,14.51,0,0,1-3.35-1.36,8.3,8.3,0,0,1-2.64-2.29c-1.82-2.53-1-5.54,2.59-7.59a18.7,18.7,0,0,1,12-1.73c.88.15,1.78,3.84,1.78,3.84s2.55-2.53,3.34-2.08C70,31.61,70.86,34.67,69,37.21Z" fill="#fc9f9c"/><path d="M65.17 38.68a10.55 10.55 0 0 1-1.22.59 16.71 16.71 0 0 1-12.19 0 10.66 10.66 0 0 1-1.17-.59c-4-2.33-4.06-6.1 0-8.42a15.73 15.73 0 0 1 9.23-1.62c1 .12 2.14 4.32 2.14 4.32s2.44-3.11 3.2-2.67c4 2.3 4.02 6.07.01 8.39z" fill="#fc5552"/><path d="M64 39.27a16.71 16.71 0 0 1-12.19 0 5 5 0 0 1 1.18-.92 10.81 10.81 0 0 1 9.8 0 5.21 5.21 0 0 1 1.21.92z" fill="#b72727"/><path d="M76 60.32l-.06-1.3a6.3 6.3 0 0 1 .06 1.3z" fill="#fc9f9c"/><path d="M55.77 41.29l3.51 5.79 1.14 3.66a21.44 21.44 0 0 0-.76 3.89c-.08 1.52 4 3.5 4.19 4.26s2.36 5.49 2.36 5.49l-2-6.48-3.81-3 .6-4.39-1-3.73-3.28-5.34.54-.91-1-.15zm-7.31 12.04L43 61.1l.23 4.12c.07.46-.3 2.74-.07 3S45 70.86 45 70.86L43.81 68l.19-2.7-.31-3.81z" fill="#b72727"/><path d="M38.88 75.06s17.63-.17 19.32 4.44 4.34 14.92 4.34 14.92S58.63 84 49 89.57c-5.67 3.29-11.2 7.43-12 7.19s-11.23-18.25 1.88-21.7z" class="D"/><path d="M62.54 94.43l-1.74 3.06-4.12-11a5.35 5.35 0 0 0 1.78-3.84c0-.31.13-.73 0-.78s-2.39-1.21-5 1.38-1.91 3.17-1.91 3.17l3.66 5.12-1.42 4.33-5.65-1.54-.54-6.22s-3.85-2.17-6.34.08a10.88 10.88 0 0 0-3.06 5.7s4.11.28 5.19-.33 1.94 2.86 1.94 2.86l2.57 6.19s-3.79 3.92-7.5 1.79a1.62 1.62 0 0 1-.39-.24 58.09 58.09 0 0 0-6.3-3.15l-14.42-2.38s4.38-14.13 3-19S20 62.88 34.45 58.67c12.18-3.56 18.9 5.19 21.33 10.33a15.29 15.29 0 0 1 .89 2.4l5.87 23.03z" class="G"/><path d="M56.68 86.48a5.35 5.35 0 0 0 1.78-3.84c0-.31.13-.73 0-.78s-2.39-1.21-5 1.38-1.91 3.17-1.91 3.17l3.66 5.12-1.42 4.33-5.65-1.54-.54-6.22s-3.85-2.17-6.34.08a10.88 10.88 0 0 0-3.06 5.7s4.11.28 5.19-.33 1.94 2.86 1.94 2.86l2.57 6.19s-3.79 3.92-7.5 1.79l-5.87-3c2.84-4.46.5-8.9-.09-11-1.39-4.88-2.27-17 12.21-20.93 9.26-2.56 11.1 6.24 11.25 6.84l4.64 18.13-1.74 3.06z" opacity=".4" class="D"/><path d="M60.83 97.25l-3.66-10.67a5.87 5.87 0 0 0 1.68-3.14c.06-.3.09-.69.12-.92A2.52 2.52 0 0 0 59 82a.74.74 0 0 0-.15-.38.78.78 0 0 0-.31-.21l-.23-.09a4.32 4.32 0 0 0-2-.2A6.15 6.15 0 0 0 52.86 83a14.48 14.48 0 0 0-1.26 1.42 5.72 5.72 0 0 0-.54.88 2.53 2.53 0 0 0-.2.57c0 .26-.19.42.15 1l3.4 4.83-1.09 3.29-4.42-1.28-.51-6.13-.38-.2a8.87 8.87 0 0 0-3.52-1 5.07 5.07 0 0 0-3.68 1.17 11.32 11.32 0 0 0-3.37 6.24l-.18.87h.9a22.14 22.14 0 0 0 4.72-.14 5.11 5.11 0 0 0 .76-.23 1.55 1.55 0 0 1 .26.38 10.76 10.76 0 0 1 .76 2l2.46 5.71c-1.67 1.51-4.07 2.61-6.1 1.63l-3.49-1.81-3.73-1.67-14.5-1.91 14.27 2.77 3.51 1.73 3.46 1.88a5.49 5.49 0 0 0 4.28.22 9.84 9.84 0 0 0 3.6-2.19l.31-.3-.18-.44-2.5-6.08a11 11 0 0 0-.83-2.3A2.35 2.35 0 0 0 44 92.77c-.43-.19-1.14.19-1.06.14a1.72 1.72 0 0 1-.39.11 17.72 17.72 0 0 1-3.37.11 9.45 9.45 0 0 1 2.67-4.38c1.22-1.12 3.28-.84 4.95-.1l.59 6.3 6.9 1.84 1.71-5.4-3.87-5.27a1.74 1.74 0 0 1 .09-.28 4.28 4.28 0 0 1 .39-.67 12.21 12.21 0 0 1 1.1-1.32 5 5 0 0 1 2.71-1.68 3.1 3.1 0 0 1 1.51.1v.12c0 .37 0 .59-.09.88a4.93 4.93 0 0 1-1.46 2.85l-.26.23 4.64 11.39 1.75-3.32zm-8.67-11.1z" class="I"/><path d="M67.91,84.23c0,1.64,1.08,3.27,3.24,4.52a17.31,17.31,0,0,0,15.64,0C89,87.5,90,85.87,90,84.23v2c0,1.63-1.09,3.26-3.25,4.51a17.24,17.24,0,0,1-15.64,0c-2.16-1.25-3.24-2.88-3.24-4.52Z" class="K"/><path d="M67.91 84.23c0-1.63 1.08-3.27 3.24-4.52a17.31 17.31 0 0 1 15.64 0C89 81 90 82.6 90 84.23s-1 3.27-3.21 4.52a17.31 17.31 0 0 1-15.64 0c-2.15-1.25-3.24-2.88-3.24-4.52z" class="E"/><path d="M76.57,67.78s1.44.5,1.66,1.41.24,7.68.31,8S72.91,82,72.91,82l7.46,2.08,5.07-2.12-5.82-4.68V68.9l1.43-1.12Z" class="C"/><path d="M79,68.51a4.91,4.91,0,0,1-.6,0,7.24,7.24,0,0,1-.92-.15,7.41,7.41,0,0,1-2-.81,7.71,7.71,0,0,1-2.84-3,8.35,8.35,0,0,1-1-4v-3.2a7.8,7.8,0,0,0,1.05.74A12.54,12.54,0,0,0,79,59.69a12.75,12.75,0,0,0,6.12-1.44,7.25,7.25,0,0,0,1.2-.83v3.22c0,.41,0,.77-.07,1a7.72,7.72,0,0,1-.14.84,8.33,8.33,0,0,1-.8,2.09,7.86,7.86,0,0,1-2.62,2.81,7.54,7.54,0,0,1-1.56.77,6.94,6.94,0,0,1-1.94.36Z" fill="#121e51" opacity=".5"/><g class="G"><path d="M81.43 69l-1 .27a24 24 0 0 1 2.88 1.47 9.83 9.83 0 0 1 1 .82 8 8 0 0 1 .7.73 8.38 8.38 0 0 1 1.13 1.69 9.39 9.39 0 0 1 .69 1.77 9.11 9.11 0 0 1 .24 1.18 8.87 8.87 0 0 1 .06 1.21v5.6c0 1.24-.84 2.47-2.49 3.4a6.36 6.36 0 0 1-.58.3A12.94 12.94 0 0 1 73 87a4 4 0 0 1-2.31-3.33v-5.6c0-.32 0-.76.07-1.08a8 8 0 0 1 .24-1.2 8.9 8.9 0 0 1 .9-2.2 8.79 8.79 0 0 1 3.26-3.26l2.42-1.1a3.81 3.81 0 0 1-.38-.08 8.06 8.06 0 0 1-2.19-.9A8.61 8.61 0 0 1 71.88 65a9.17 9.17 0 0 1-1.1-4.38v-6.56a4.09 4.09 0 0 0 2.34 3.33 12.93 12.93 0 0 0 9.81.88 9.21 9.21 0 0 0 1.81-.77c1.65-.92 2.48-2.16 2.48-3.4v6.54c0 .33 0 .77-.08 1.1a7.55 7.55 0 0 1-.17.95 8.73 8.73 0 0 1-3.78 5.41 8.26 8.26 0 0 1-1.76.9z" opacity=".5"/><path d="M79,87.58a11,11,0,0,1-5.49-1.33,3.27,3.27,0,0,1-1.9-2.6V78.06c0-.26,0-.69.07-1a9.32,9.32,0,0,1,.2-1.07,8,8,0,0,1,3.76-4.93,30.46,30.46,0,0,1,2.81-1.24,3.06,3.06,0,0,0,1,.36h.36L80,70a21.82,21.82,0,0,1,2.86,1.46,8.63,8.63,0,0,1,.92.73,8.54,8.54,0,0,1,.63.67,8,8,0,0,1,1,1.51A8.29,8.29,0,0,1,86,75.91,9,9,0,0,1,86.24,77a7.19,7.19,0,0,1,.06,1.1v5.6a3.4,3.4,0,0,1-2.06,2.65A10.9,10.9,0,0,1,79,87.58Z" opacity=".5"/></g><path d="M85.09 64.56a3 3 0 0 1-1.78 2.49c-2.38 1.37-4.6 2.87-8.61 0-1.12-.8-1.79-1.59-1.79-2.49a3 3 0 0 1 1.79-2.48 9.53 9.53 0 0 1 8.61 0 3 3 0 0 1 1.78 2.48z" class="B"/><path d="M84.59 64.57c0 1.8-2.53 3.26-5.66 3.26s-5.65-1.46-5.65-3.26 2.53-3.27 5.65-3.27 5.66 1.46 5.66 3.27z" class="C"/><path d="M86.56 83.25a3.78 3.78 0 0 1-2.22 3.1 11.88 11.88 0 0 1-10.74 0 3.28 3.28 0 0 1 0-6.21 11.88 11.88 0 0 1 10.74 0 3.78 3.78 0 0 1 2.22 3.11z" class="B"/><path d="M72.91 82s-1.15 2.25.56 3 2.14.31 3-1.77 2.35-4.41 1.77-4.36S76 81.17 75 81.38s-2.09.62-2.09.62z" class="F"/><path d="M76.25 72.71s-2.37.63-2.65 2.68c-.13.92-.48 2 .33 2.2s.57 0 .75-1.37a6.71 6.71 0 0 1 1.57-3.51z" class="H"/><path d="M81.43 69l-1 .27a24 24 0 0 1 2.88 1.47 9.83 9.83 0 0 1 1 .82 8 8 0 0 1 .7.73 8.38 8.38 0 0 1 1.13 1.69 9.39 9.39 0 0 1 .69 1.77 9.11 9.11 0 0 1 .24 1.18 8.87 8.87 0 0 1 .06 1.21v5.6c0 1.24-.84 2.47-2.49 3.4a6.36 6.36 0 0 1-.58.3 77 77 0 0 0-.33-9.74 10.53 10.53 0 0 0-4-7.46s-.13-1.3.91-1.51 2.88-3.21 3-6a15.43 15.43 0 0 0-.68-4.46 9.21 9.21 0 0 0 1.81-.77c1.65-.92 2.48-2.16 2.48-3.4v6.54c0 .33 0 .77-.08 1.1a7.55 7.55 0 0 1-.17.95 8.73 8.73 0 0 1-3.78 5.41 8.26 8.26 0 0 1-1.79.9z" style="mix-blend-mode:multiply" opacity=".5" class="G"/><path d="M68.26,53.06c0,1.64,1.08,3.28,3.25,4.52a17.24,17.24,0,0,0,15.64,0c2.16-1.24,3.24-2.88,3.24-4.51v2c0,1.63-1.08,3.27-3.24,4.52a17.31,17.31,0,0,1-15.64,0c-2.17-1.25-3.25-2.89-3.25-4.52Z" class="K"/><path d="M68.26 53.06c0-1.63 1.09-3.26 3.25-4.51a17.24 17.24 0 0 1 15.64 0c2.16 1.25 3.24 2.88 3.24 4.52s-1.08 3.27-3.24 4.51a17.24 17.24 0 0 1-15.64 0c-2.17-1.24-3.25-2.88-3.25-4.52z" class="E"/><path d="M23.45 53.85a4.09 4.09 0 0 1-4.58 3.53 4 4 0 0 1-2.31-1.11A5.62 5.62 0 0 1 6.17 54.6 4 4 0 1 1 1.78 48a3.58 3.58 0 0 1 3.02-6H5a11.08 11.08 0 0 0 10-1.9l6.59-5.49c.42.37 3.32.68 5.54.94.86-1-8.43 14.27-7 14.45 2.21.28 3.33 3.72 3.32 3.85z" fill="#d9e6f9" opacity=".7"/><path d="M26.14 39.75a11.76 11.76 0 0 1-5.75 1 11.68 11.68 0 0 1-.63-5.75c.47-3.26 6-5 6-5 .2.15 1.64 1.41 1.64 1.41l1.82 1.18c.01 0-.08 5.8-3.08 7.16z" class="I"/><path d="M26.35 38.92a10.3 10.3 0 0 1-5.23.85 10.25 10.25 0 0 1-.63-5.23c.47-2.7 5.28-3.81 5.28-3.81.15.12 1.26 1.21 1.26 1.21l1.5.87c0 0 .29 4.9-2.18 6.11z" fill="#fbcc4d"/><path d="M26.56 38.09a9.14 9.14 0 0 1-4.71.68 8.91 8.91 0 0 1-.63-4.64c.47-2.15 4.56-2.66 4.56-2.66l.86 1 1.2.56c.1.08.65 3.97-1.28 5.06z" fill="#fcd66f"/><path d="M26.77 37.25c-1.41.89-4.19.52-4.19.52S21.5 35.3 22 33.71s3.83-1.5 3.83-1.5l.48.78.89.24c.05.04.97 3.13-.43 4.02z" fill="#fce090"/><path d="M27 36.42c-.87.72-3.66.35-3.66.35s-1.08-2.44-.62-3.48 3.1-.35 3.1-.35l.08.58.58-.08s1.36 2.25.52 2.98z" class="F"/><path d="M26.66,25.57s-1-1.45-1.89-1.6a6,6,0,0,0-2.83,0L19.1,27.4a37,37,0,0,1,4-.53c.39.11,1.12,1.5,1.12,1.5Z" class="D"/><path d="M24.9 25.28s-2.23-1.39-3.08-1-6 5.25-6 5.25l.48.73 5.14-2.61c.39.1 1.13 1.5 1.13 1.5z" class="E"/><path d="M33.54,30.73s1.66.52,2.07,1.36a6,6,0,0,1,.76,2.73L33.9,38.5a36.14,36.14,0,0,0-.63-4c-.21-.34-1.76-.66-1.76-.66Z" class="D"/><path d="M34.3 32.33s2 1.76 1.83 2.69-3.36 7.22-3.36 7.22l-.84-.24L33 36.33c-.21-.35-1.76-.66-1.76-.66z" class="E"/><path d="M22.17 31a7.06 7.06 0 0 1-.4-1.35c0-.2-.07-.48-.08-.68a5.17 5.17 0 0 1 0-.88 5.51 5.51 0 0 1 .38-1.62 5.24 5.24 0 0 1 .72-1.27 3.52 3.52 0 0 0-.12 3.56 11.25 11.25 0 0 0 8.1 6.24 3.64 3.64 0 0 0 3.55-1.08l-.59.66a4 4 0 0 1-.5.42 7 7 0 0 1-.73.47 5.21 5.21 0 0 1-.83.35 7.17 7.17 0 0 1-.76.21 6.66 6.66 0 0 1-2 .08 8.64 8.64 0 0 1-1-.19 8.53 8.53 0 0 1-1.69-.64 9.82 9.82 0 0 1-1.69-1.13 8.82 8.82 0 0 1-1.4-1.49 7.25 7.25 0 0 1-.96-1.66z" fill="#121e51"/><path d="M22.51 25.62l6.72-12.52a4.9 4.9 0 0 0 .11 4.23 14.66 14.66 0 0 0 10.57 8.1 5.07 5.07 0 0 0 4.29-1L34 34.29a3.87 3.87 0 0 1-3.29.79 11.22 11.22 0 0 1-8.11-6.21 3.82 3.82 0 0 1-.09-3.25z" fill="#fbc429"/><path d="M29.23 13.1l.94-1.62 1-1.49.59-.77A26.1 26.1 0 0 1 35 5.9a24.51 24.51 0 0 1 7.74-4.61c-1.39.51-1.92 1.94-1.17 3.79a9.59 9.59 0 0 0 6.89 5.28c2.05.27 3.34-.63 3.45-2.15 0 .49-.11 1.16-.17 1.65 0 .28-.11.65-.16.93l-.39 1.75-.25.91-.57 1.65c-.07.2-.39 1-.74 1.76a25.4 25.4 0 0 1-5.38 7.53 5.07 5.07 0 0 1-4.29 1 14.66 14.66 0 0 1-10.57-8.1 4.87 4.87 0 0 1-.16-4.19z" class="B"/><path d="M42.69 1.29L44.52.7c-1.3.36-1.82 1.59-1.16 3.2a7.91 7.91 0 0 0 5.7 4.37c1.79.24 2.88-.6 2.87-2l-.07 1.92c-.1 1.52-1.4 2.42-3.45 2.15a9.59 9.59 0 0 1-6.89-5.28c-.75-1.83-.23-3.27 1.17-3.77z" class="E"/><path d="M49.06 8.27a7.89 7.89 0 0 1-5.7-4.37c-.66-1.61-.14-2.85 1.17-3.2a19.78 19.78 0 0 1 4.34-.7h-.1 2.09a21.4 21.4 0 0 1 .57 2.08 18.44 18.44 0 0 1 .5 4.2c.07 1.39-1.08 2.23-2.87 1.99z" class="B"/><path d="M30.89 20.89c.95-1.27 3-1.37 4.52-.2s2 3.14 1.08 4.4a3.22 3.22 0 0 1-4.48.22c-1.59-1.18-2.07-3.16-1.12-4.42zm5.2-1c-2.15-1.63-4.94-1.5-6.24.24a3.65 3.65 0 0 0-.51 3.19 5.4 5.4 0 0 0 2 2.83c2.15 1.6 4.91 1.47 6.2-.26a3.55 3.55 0 0 0 .6-2.8 5.26 5.26 0 0 0-2.05-3.22z" class="K"/><path d="M30.65 21.2c1-1.27 3-1.36 4.53-.19s2 3.13 1.07 4.39a3.2 3.2 0 0 1-4.47.22c-1.6-1.18-2.07-3.16-1.13-4.42zm5.21-1c-2.16-1.63-4.94-1.5-6.24.24a3.59 3.59 0 0 0-.51 3.19 5.36 5.36 0 0 0 2 2.83c2.15 1.6 4.9 1.47 6.2-.26a3.48 3.48 0 0 0 .59-2.79 5.26 5.26 0 0 0-2.04-3.23z" fill="#fff"/><path d="M36.71 24.28A3.54 3.54 0 0 0 35.22 21c-1.58-1.2-3.61-1.11-4.57.16a2.68 2.68 0 0 0-.32 2.48 3.87 3.87 0 0 0 1.41 1.91c1.57 1.17 3.57 1.06 4.51-.19a2.29 2.29 0 0 0 .46-1.08z" class="D"/><path d="M36.71 24.28a3.88 3.88 0 0 0-1.36-1.87c-1.58-1.2-3.61-1.11-4.56.16a2.42 2.42 0 0 0-.46 1.11 3.87 3.87 0 0 0 1.41 1.91c1.57 1.17 3.57 1.06 4.51-.19a2.29 2.29 0 0 0 .46-1.12z" class="G"/><path d="M33.05 21.21a.42.42 0 0 0-.58 0 .42.42 0 0 0 .13.58.42.42 0 0 0 .58 0 .41.41 0 0 0-.13-.58z" fill="#f1f0ef"/><g class="D"><path d="M14.4 33.88l-.71-1.06c-.13-.2 0-.53.26-.83l.71 1.06c-.31.29-.39.62-.26.83zm6.3-5.92l-.71-1.06 4.46-1.61.71 1.06-4.46 1.61z"/><path d="M14.66 33.05l-.71-1.06 4.01-3.83.71 1.06-4.01 3.83z"/><path d="M18.67 29.22L18 28.16a6 6 0 0 1 2-1.26l.7 1.1a5.87 5.87 0 0 0-2.03 1.22z"/></g><path d="M25.16 26.35l-3.14 5H19l-3.35 2.43a1.27 1.27 0 0 1-.92.27c-.48-.1-.49-.59-.05-1l4-3.83c1.32-1.5 6.48-2.87 6.48-2.87z" class="E"/><g class="D"><path d="M29 44.8l1.21.39c.23.07.52-.1.72-.48l-1.21-.39c-.23.38-.52.56-.72.48zm3.89-7.7l1.21.39.3-4.74-1.21-.39-.3 4.74z"/><path d="M29.69 44.32l1.21.39 2.55-4.92-1.21-.39-2.55 4.92z"/><path d="M32.24 39.4l1.21.39a5.79 5.79 0 0 0 .65-2.3l-1.21-.39a5.79 5.79 0 0 1-.65 2.3z"/></g><path d="M33.18 32.36l-3.92 4.42.83 2.93-1.38 3.89a1.22 1.22 0 0 0 0 1c.22.43.7.3 1-.24l2.55-4.92a5.79 5.79 0 0 0 .65-2.3z" class="E"/><path d="M40.75 5c-.33-1.15-3.93.95-6.54 3.82a22.48 22.48 0 0 0-4 7l4.68-5.88c4.63-4.42 6.17-3.85 5.86-4.94z" fill="#f2dbd1" opacity=".46"/><path d="M88.54,101.13l-.05.64.78.52.92.07L121.5,83.93s-.27-.62.06-.85,1.2-.65,1.23-.82.2-.32,0-.31a16.32,16.32,0,0,0-1.82.73l-1.81.66Z" style="mix-blend-mode:multiply" fill="#faf7f7"/><path d="M122.83 81.34a.24.24 0 0 1-.14.22l-.64.34-1.48 1.73-.67-1.63-.08-.28a13.52 13.52 0 0 0 2-.16l.68-.32a.27.27 0 0 1 .33.1z" fill="#fff"/><path d="M120.94 83.11l-.37.52-31.71 18.1-.74-1.9 31.7-18.1.75.43.37.95z" fill="url(#A)"/><path d="M88.86 100.26l-.74-.43-.37.53.37.95.74.42.37-.52-.37-.95z" fill="#fff"/><path d="M88.61 100.48l-.13-.07a.22.22 0 0 0-.29.06.26.26 0 0 0 0 .21l.12.29a.2.2 0 0 0 .09.11l.13.08a.22.22 0 0 0 .29-.07.21.21 0 0 0 0-.2l-.12-.3a.23.23 0 0 0-.09-.11z" fill="#ec6161"/><path d="M120.57 82.16l-31.72 18.09.38.96 31.71-18.1-.37-.95z" fill="url(#B)"/><path d="M122.83 81.34a.24.24 0 0 1-.14.22l-.64.34-.22.13.11-.34h-.31l.22-.16.68-.32a.27.27 0 0 1 .3.13z" fill="#f18c8c"/></svg>