<svg xmlns="http://www.w3.org/2000/svg" viewBox="0 0 115.47 90.53" xmlns:v="https://vecta.io/nano"><style><![CDATA[.B{fill:#fcd561}.C{fill:#88beff}.D{fill:#e84343}.E{fill:#feb30f}.F{fill:#f66}.G{fill:#196c89}.H{fill:#3e85f4}.I{fill:#fceab2}.J{fill:#fc5552}.K{fill:#121e51}.L{fill:#c9defe}]]></style><path d="M60.76 54.76v2.77c0 1.87-1.24 3.75-3.71 5.18-5 2.88-13 2.88-18 0-2.51-1.45-3.76-3.36-3.76-5.26v-2.76c0 1.9 1.26 3.81 3.77 5.26 5 2.88 13.05 2.88 18 0 2.46-1.44 3.69-3.31 3.7-5.19z" class="K"/><path d="M57 49.51c5 2.88 5 7.55.06 10.44s-13 2.88-18 0S34 52.39 39 49.51s13-2.88 18 0z" fill="#202a5f"/><path d="M30.54,6.08l-.3.24Z" fill="#9deff1"/><path d="M64.34 9.26c.86-.7 2.65-2.16-2.46-5.6l-.91-.5A29.16 29.16 0 0 0 53.42.53L50.75.15a15.77 15.77 0 0 0-5.17 1.38 29.27 29.27 0 0 1 4.29 2.05l-3.54 3.18a26.4 26.4 0 0 0-4.32-2c-2 3.6-5.66 3-5.45 2.39s-.82-2.44-4.88-1a4.32 4.32 0 0 1-1.52.28 26.28 26.28 0 0 0-3.39 3.29 30 30 0 0 0-2.68 3.6l-.51.85a29 29 0 0 0-1.39 2.8A24.07 24.07 0 0 0 21 20.28a28.23 28.23 0 0 0-.78 12.32 25.1 25.1 0 0 0 .62 3 28.13 28.13 0 0 0 1.5 4.18 6.16 6.16 0 0 1-.63-2.08 1.26 1.26 0 0 1 .08-.43c.24-.48.84-.57 1.1-1s0-.74.11-1.09a.66.66 0 0 1 .27 0 3.31 3.31 0 0 1-.07-3.88 1.29 1.29 0 0 1 .93.44 2 2 0 0 0 .87.55c0-1-1.27-1.66-.93-2.81h.45l3.14-.12c1.66-.2 1.89-.78 2.61-2.54-.37 0-.68 0-.7-.42a5 5 0 0 1 .9-2.35l7-4.53c.77-.2 4.78 2.64 5.56 3.45s.42 1.19.23 1.32-.21.13-2.23 0a5.12 5.12 0 0 0 .64 2.66c2.23-1 3.92-2.91 6.14-4 1-.49 2.23 0 3.26-.49.08 0 .1-.16.14-.23-1.06-.08-2.11 1-3.17 0s1.54-6.6 4.18-6.56c.09.08.2.2.28.28s0 .17-3.6 3.74v.51l4.26 2.17a12.56 12.56 0 0 1 .36-3.06l.3-.1c.23.34.3.76.52 1.11.06 0 5.23-5.41 3.62-8.06v-.06c1.31.43 2.63-.56 3.94 0 .11.06.11.06.55 2 .94-1.28 2.92-1.31 3.55-2.95.43-1.15-1.35-1.13-1.66-1.99zM38.28 13.7a19.57 19.57 0 0 0-4.82 2.21c-2.14 1.28-4 2.92-6.08 4.32-1.19.8-1.43.56-1.56-.33a.43.43 0 0 1 0-.11c-.11-.72-.23-1.23-1-1.21a2.44 2.44 0 0 0-1.55.89 2.34 2.34 0 0 1-.78.51l-.06-.1a9.68 9.68 0 0 1 .87-1.36 31.57 31.57 0 0 1 2.49-2.95 15.15 15.15 0 0 1 2.42-2.11c1.29-.85 2.74-1.4 4.08-2.17S34.45 9.66 35.63 9a1.19 1.19 0 0 1 .25-.13c.38-.14 1.91.86 1.94 1 .17.65-.52.87-.69 1.35.83 1 2.35-.71 2.95.56a4.68 4.68 0 0 1-1.8 1.92z" class="C"/><path d="M45.58 1.53a29.27 29.27 0 0 1 4.29 2.05l-3.54 3.18a26.4 26.4 0 0 0-4.32-2c-2 3.6-5.66 3-5.45 2.39s-.82-2.44-4.88-1a4.32 4.32 0 0 1-1.52.28c.05 0 .22-.18.23-.2l.41-.31 1.83-1.3.51-.32.82-.49.81-.45 1-.52.64-.3.65-.28 1-.4 1-.35a23.61 23.61 0 0 1 2.57-.77l.75-.16A30.39 30.39 0 0 1 45.67.1a25.23 25.23 0 0 1 4 0c.38 0 .74.05 1.1.09a15.77 15.77 0 0 0-5.19 1.34z" class="G"/><path d="M30.48 26.7a4.82 4.82 0 0 0 .82-.2 7 7 0 0 1-.19 2.43c-.1.35-.06.5.13.62a1.52 1.52 0 0 0 1.56-.32s1.22-1.52.87-2.36c-.22-.54 2.64-2.42 2.78-2.48 1.18-.52 1.66.26 1.48.62s-1.23.87-1.71 1.07-.71.29-.78.43a2.14 2.14 0 0 0 .24 1.71c0 .09 0 .1-.13.53-.36.84-.71.87-1 .89s-.46 0-.6.4a2.89 2.89 0 0 0-.19 1.07 5.94 5.94 0 0 0-2.37-.88.9.9 0 0 1-.62-.31c-.77-1.01.23-2.19-.29-3.22z" class="C"/><g class="G"><path d="M62.39 4L62 3.71zm5.12 3.82l-2.09-1.79.66.52a28.53 28.53 0 0 1 5.27 5.8 31.21 31.21 0 0 0-3.84-4.53z"/><use href="#B"/></g><path d="M36.85 54.07l-.28-.07a27.87 27.87 0 0 1-14-13.65l2 3.46c.67 1.01 1.5 2 2.18 2.87a43.24 43.24 0 0 0 3.41 3 6 6 0 0 1 1.77 1.47 16.48 16.48 0 0 0 3.23 2.16l1.69.76z" class="C"/><path d="M38.25 54.63l1.62.55-1.62-.55z" class="G"/><path d="M25.82 36.36a13.45 13.45 0 0 0-1.19-.74l.79-.23.4.97z" class="C"/><g class="G"><use href="#C"/><use href="#D"/><use href="#E"/><path d="M31.84 39.3l-1.42-2.82a5.32 5.32 0 0 1 1.42 2.82z"/></g><path d="M44.22 56.12h.24c-1.18-.56-1.5-.71-1.27-1s.28-.24.89-.35l1.85 1.49c-.56.01-1.13-.05-1.71-.14z" class="C"/><path d="M73.14 15.38l-1.15-2 1.15 2z" class="G"/><path d="M47.32 52.8l-.16.24a4.77 4.77 0 0 1-2.83 1.73h-.25c-.61.11-.8.24-.89.35s.09.41 1.27 1h-.24a27 27 0 0 1-4.12-.88l-.23-.06-1.62-.55-.42-.15-1-.41-1.75-.82a16.48 16.48 0 0 1-3.23-2.16 6 6 0 0 0-1.77-1.47 43.24 43.24 0 0 1-3.41-3l-2.18-2.87c-.62-.87-1.41-2.37-2-3.46l-.26-.56a6.16 6.16 0 0 1-.63-2.08 1.26 1.26 0 0 1 .08-.43c.24-.48.84-.57 1.1-1s0-.74.11-1.09a.66.66 0 0 1 .27 0 1.36 1.36 0 0 0 1.35.55h.05a13.45 13.45 0 0 1 1.19.74l.22.15a8.11 8.11 0 0 1 1.49 1.38l.62 1.31a4.82 4.82 0 0 0 1.68 3.22h.05c.88.61 1.16.46 1.37.34.42-.22 1.71.19 3.11.76a54.15 54.15 0 0 1 4.59 2.19c.03.03.07.14.1.2a20.16 20.16 0 0 0 3 4.87c.17.15.62.55 3.07 1.16 1.95.46 2.1.5 2.27.8z" class="H"/><g fill="#7ac3d3"><path d="M22.56 40.3a.47.47 0 0 1 0-.1l-.21-.46c.03.19.12.38.21.56z"/><use href="#B"/><use href="#C"/></g><path d="M23.23 35.08a1.34 1.34 0 0 0 1.35.55c-.58.11-.86-.49-1.35-.55zm7.19 1.4c.44 1 .92 1.89 1.42 2.82a5.32 5.32 0 0 0-1.42-2.82zM61.8 3.61l.08.05h.1zm.68.39h-.08a27.66 27.66 0 0 1 3 2 25.2 25.2 0 0 0-2.92-2zM72 13.38l1.15 2c-.15-.38-.59-1.08-1.15-2z" class="H"/><path d="M73.87 18.42c-.2.28-.2.28-.18 1.72-1.78-6.71-1.92-7.25-4.5-10.5A27.1 27.1 0 0 1 72 13.36l-.57-.93a.22.22 0 0 1-.05-.08 31.21 31.21 0 0 0-3.84-4.53c-.68-.6-1.34-1.2-2.09-1.79A24.24 24.24 0 0 0 62.4 4l-.52-.3C67 7.1 65.2 8.56 64.34 9.26c.31.86 2.09.84 1.65 2-.63 1.64-2.61 1.67-3.55 2.95-.44-2-.44-2-.55-2-1.31-.6-2.63.39-3.94 0v.06c1.61 2.65-3.56 8-3.62 8.06-.22-.35-.29-.77-.52-1.11l-.3.1a12.56 12.56 0 0 0-.36 3.06c-.3-.07-.3-.07-4.26-2.17v-.51c3.56-3.57 3.56-3.57 3.6-3.74s-.19-.2-.28-.28c-2.64 0-5.11 5.67-4.18 6.56s2.11-.09 3.17 0c0 .07-.06.19-.14.23-1 .51-2.22 0-3.26.49-2.22 1.06-3.91 2.94-6.14 4a5.12 5.12 0 0 1-.66-2.81c2 .17 2 .17 2.23 0s.56-.5-.23-1.32-4.79-3.65-5.56-3.45l-7 4.53a5 5 0 0 0-.9 2.35c0 .37.33.39.7.42-.72 1.76-.95 2.34-2.61 2.54-.72.09-1.72.1-3.14.12H24c-.34 1.15.94 1.77.93 2.81a2 2 0 0 1-.87-.55 1.29 1.29 0 0 0-.93-.44 3.31 3.31 0 0 0 .07 3.88c.49.06.81.66 1.35.55h.05l1.72-.49c1.18-.34 1.21-.32 1.32-.27 1.5.74 1.75 2.44 2.74 3.57l.17 1.78 1.26-.71v-.2c-.5-.93-1-1.87-1.42-2.82a4.41 4.41 0 0 1-.8-1.57l.24.35c.7.9 1.78 1.47 2.34 2.52a11.25 11.25 0 0 1 .94 3.74l.29.17c.29-.19.47-.3.49-1.27 0-.58.26-1.32 2.19-1.18l.6-.58c.95.05 2.22.1 3.18.11a77.44 77.44 0 0 0 1.59 2c-2.23-.29-4.34-1.28-6.64-1.14-.51.76 1.12 4.5 4.08 4l.27-.05c0 .53-.07 1.25-.09 1.78 2.1 4.23 3.06 6.15 8.21 6.6 5-.82 3.5-1.94 3.15-2.15a2.42 2.42 0 0 0-1.43-.22c-.4 0-1.62.16-3.19-2.49 2.6 1.79 8.63 1.08 8.69 1.07 1.07-.19 1.91-.34 2.57 1.35a8.11 8.11 0 0 0 2.12 2.44.87.87 0 0 0 .45-.1c.56-.51.5-1.36 1-1.9s1.61-.7 2.22-1.36c0 0 1-1.17 2-2.74a8.34 8.34 0 0 1 1.66 1.54 6.16 6.16 0 0 1-1 2.63A4.22 4.22 0 0 0 67 49l-.18-.2a5.08 5.08 0 0 1 .56-1.4 2.21 2.21 0 0 1 .66.21 11 11 0 0 0 2.11-2.24 547.19 547.19 0 0 0 3-5.14c1-2 2-5.19 1.68-6.08h-.46a2.67 2.67 0 0 1 .83-2.86 7.06 7.06 0 0 1 .15 2.47c.84-1.88 1.13-10.7-1.48-15.34zM37.93 25c-.23.45-1.23.87-1.71 1.07s-.71.29-.78.43a2.14 2.14 0 0 0 .24 1.71c0 .09 0 .1-.13.53-.36.84-.71.87-1 .89s-.46 0-.6.4a2.89 2.89 0 0 0-.19 1.07 5.94 5.94 0 0 0-2.37-.88.9.9 0 0 1-.62-.31c-.75-1 .28-2.19-.28-3.22a4.82 4.82 0 0 0 .82-.2 7 7 0 0 1-.19 2.43c-.1.35-.06.5.13.62a1.52 1.52 0 0 0 1.56-.32s1.22-1.52.87-2.36c-.22-.54 2.64-2.42 2.78-2.48 1.17-.51 1.65.27 1.47.62z" fill="#0b45b2"/><path d="M40.08 11.71a4.68 4.68 0 0 1-1.8 2 19.57 19.57 0 0 0-4.82 2.21c-2.14 1.28-4 2.92-6.08 4.32-1.19.8-1.43.56-1.56-.33a.43.43 0 0 1 0-.11c-.11-.72-.23-1.23-1-1.21a2.44 2.44 0 0 0-1.55.89 2.34 2.34 0 0 1-.78.51l-.06-.1a9.68 9.68 0 0 1 .87-1.36 31.57 31.57 0 0 1 2.49-2.95 15.15 15.15 0 0 1 2.42-2.11c1.29-.85 2.74-1.4 4.08-2.17s2.16-1.64 3.34-2.3a1.19 1.19 0 0 1 .25-.13c.38-.14 1.91.86 1.94 1 .17.65-.52.87-.69 1.35.87.94 2.35-.78 2.95.49z" fill="#ebefff"/><path d="M50.82.14h-.07a15.77 15.77 0 0 0-5.17 1.38 8.52 8.52 0 0 0-2.85 2.16 6.16 6.16 0 0 0-.52.71c-.06.09-.11.19-.17.29h0c-2 3.6-5.66 3-5.45 2.39s-.82-2.44-4.88-1a4.32 4.32 0 0 1-1.52.28c.05 0 .22-.18.23-.2l.41-.31 1.83-1.3h0l.46-.29 1.09-.65 1.21-.6.6-.29.74-.34.31-.13.57-.24.43-.16 1-.35 1.42-.44 1.15-.29.73-.16.86-.17 1.28-.21L45.67.1h.12c.38 0 .88-.06 1.26-.07h1.26 1.34z" class="H"/><path d="M41.25 6.24s2.1-3.45 5-3 5.62.07 8.6.88 3.8 2.37 2.58 4.07.54 2.37-2.1 3.32l-6.44 2.3c-1.97.47-7-2.91-8.33-4.34s.69-3.23.69-3.23z" fill="#ebefff"/><path d="M32.84 1.63A12.62 12.62 0 0 0 31 2.89l-.62.57a13.22 13.22 0 0 0-2.3 3 16.89 16.89 0 0 0-1.35 3.18 30 30 0 0 0-2.68 3.6l-.51.85a29 29 0 0 0-1.39 2.8c.5-6.23 2.95-10.87 7-13.2z" class="K"/><use href="#E" class="C"/><use href="#C" class="H"/><g fill="#9deff1"><use href="#D"/><path d="M27.9,4.62c.17-.12.36-.23.55-.34Z"/></g><path d="M49.87 3.58l-3.54 3.18a19.69 19.69 0 0 0-10.7-3.88 15.41 15.41 0 0 0-5.21.58 10 10 0 0 0-2 .82l4.46-2.71C35.43.1 38.74-.21 42.36.58a22.91 22.91 0 0 1 3.22 1 29.27 29.27 0 0 1 4.29 2z" fill="#202a5f"/><g class="C"><path d="M75.86 23.79a28 28 0 0 0-4.46-11.36l.57.93a27.1 27.1 0 0 0-2.78-3.72c2.58 3.25 2.72 3.79 4.5 10.5 0-1.44 0-1.44.18-1.72 2.61 4.64 2.32 13.46 1.39 15.34a7.06 7.06 0 0 0-.15-2.47 2.67 2.67 0 0 0-.83 2.86h.46c.29.89-.68 4.09-1.68 6.08l-3 5.14A11 11 0 0 1 68 47.59a2.21 2.21 0 0 0-.66-.21 5.08 5.08 0 0 0-.56 1.4L67 49a4.22 4.22 0 0 1-1.39 1 6.16 6.16 0 0 0 1-2.63 8.34 8.34 0 0 0-1.66-1.54c-1.08 1.57-2 2.74-2 2.74-.61.66-1.59.73-2.22 1.36s-.47 1.39-1 1.9a.87.87 0 0 1-.45.1A8.11 8.11 0 0 1 57 49.49c-.66-1.69-1.5-1.54-2.57-1.35-.06 0-6.09.72-8.69-1.07 1.57 2.65 2.79 2.53 3.19 2.49a2.42 2.42 0 0 1 1.51.29c.35.21 1.81 1.33-3.15 2.15-5.15-.45-6.11-2.37-8.21-6.6 0-.53.06-1.25.09-1.78l-.27.05c-3 .46-4.59-3.28-4.08-4 2.3-.14 4.41.85 6.64 1.14a77.44 77.44 0 0 1-1.59-2c-1 0-2.23-.06-3.18-.11l-.6.58c-1.93-.14-2.17.6-2.19 1.18 0 1-.2 1.08-.49 1.27l-.29-.17a11.25 11.25 0 0 0-.94-3.74c-.56-1.05-1.64-1.62-2.34-2.52a45.3 45.3 0 0 0 .56 1.22 5.32 5.32 0 0 1 1.42 2.82v.2l-1.26.71-.17-1.78c-1-1.13-1.24-2.83-2.74-3.57-.11 0-.14-.07-1.32.27l-.93.26.4 1 .22.15a8.11 8.11 0 0 1 1.49 1.38 3.52 3.52 0 0 1 .62 1.31 11.17 11.17 0 0 0 1.73 3.26c.88.61 1.16.46 1.37.34.42-.22 1.71.19 3.11.76a54.15 54.15 0 0 1 4.59 2.19c.03.03.07.14.1.2a20.16 20.16 0 0 0 3 4.87c.17.15.62.55 3.07 1.16 1.89.48 2 .52 2.21.82l-.16.24a4.77 4.77 0 0 1-2.83 1.73h-.25c.61.52 1.23 1 1.85 1.49a29 29 0 0 0 8.23-.6 31.93 31.93 0 0 0 4.25-1.33A28.4 28.4 0 0 0 69 47a30.15 30.15 0 0 0 2.51-3.24 28.17 28.17 0 0 0 4.35-19.97zM72 13.38c.57.92 1 1.66 1.15 2l-1.15-2z"/><use href="#D"/></g><g class="K"><path d="M46.33,5.46v1.3a26.4,26.4,0,0,0-4.32-2,16.3,16.3,0,0,0-8-1A11.27,11.27,0,0,0,28.12,6.5a14.21,14.21,0,0,0-4,6.78l-.51.85a29,29,0,0,0-1.39,2.8c.5-6.23,2.95-10.87,7-13.2.28-.16.56-.3.85-.44s.64-.28,1-.4a13.5,13.5,0,0,1,6-.67,20.34,20.34,0,0,1,5.66,1.47A29.85,29.85,0,0,1,46.33,5.46Z"/><path d="M46.33 5.53l3.52-1.93.09 1.13-3.61 2.1v-1.3z"/><circle cx="46.67" cy="2.72" r="1.36"/></g><g class="B"><path d="M103.29 40.41c-2.23-1.24-4-.12-4 2.48a8.88 8.88 0 0 0 4.11 7c2.23 1.24 4 .13 4-2.48a8.88 8.88 0 0 0-4.11-7z"/><path d="M106.74 49.63c-.71.84-1.92 1-3.31.21a8.88 8.88 0 0 1-4.11-7c0-1.69.72-2.76 1.86-3a5.62 5.62 0 0 0-1.36.4 3.33 3.33 0 0 0-.59.32 2.75 2.75 0 0 0-.48.38 2.86 2.86 0 0 0-.36.41 3.1 3.1 0 0 0-.37.7 2.68 2.68 0 0 0-.18.63 5.51 5.51 0 0 0-.09.71v.3a8.92 8.92 0 0 0 4.11 7h.08a5.45 5.45 0 0 0 .55.25 3.83 3.83 0 0 0 .64.18 3.34 3.34 0 0 0 .62.06 2.42 2.42 0 0 0 .57-.05l.27-.07.32-.11a3.8 3.8 0 0 0 .64-.34 6.39 6.39 0 0 0 1.19-.98z"/></g><path d="M101.87 50.75l-.17-.09a2.38 2.38 0 0 0 .75.25.86.86 0 0 0 .58-.07c.6-.44 1.14-.18 1.78 0a2.66 2.66 0 0 1-2.87-.08h-.08a8.92 8.92 0 0 1-4.11-7v-.3c0 .43.06.81-.65 1.14v.26a7.49 7.49 0 0 0 3.45 5.85h.07a1 1 0 0 1 1.32 0z" class="D"/><path d="M101.94,50.79a1,1,0,0,0-1.32,0,2.23,2.23,0,0,0,2.41.07,1.45,1.45,0,0,1-1.33-.18Z" class="B"/><path d="M97.75 43.49v.1a2.07 2.07 0 0 1 .18-.69.8.8 0 0 1 .32-.37c.69-.3.74-.9.88-1.55a2.6 2.6 0 0 0-1.38 2.51z" class="D"/><g class="F"><path d="M101.18 39.94a6 6 0 0 0-1.53.48 3.39 3.39 0 0 0-.62.38 2.75 2.75 0 0 0-.26.22c-.06 0-.13.14-.19.19a3 3 0 0 0-.34.47 5.69 5.69 0 0 0-.26.56 3.75 3.75 0 0 0-.16.64 6 6 0 0 0-.07.61A2.65 2.65 0 0 1 99.14 41a2.92 2.92 0 0 1 2.58.33 2.8 2.8 0 0 1 1.57-.9 3.24 3.24 0 0 0-2.11-.49z"/><path d="M101.94 50.79a6.31 6.31 0 0 0 .66.29 3.53 3.53 0 0 0 .64.16 3 3 0 0 0 .79 0 3.29 3.29 0 0 0 .53-.1 3.07 3.07 0 0 0 .57-.22 6.49 6.49 0 0 0 .58-.35 6.17 6.17 0 0 0 1-1 3.42 3.42 0 0 0 .66-2.27 8.88 8.88 0 0 0-4.11-7 2.8 2.8 0 0 0-1.57.9 8.9 8.9 0 0 1 4.11 6.95 3.08 3.08 0 0 1-1 2.61 2.66 2.66 0 0 1-2.86.03z"/></g><g class="B"><path d="M103 50.84a2.23 2.23 0 0 1-2.41-.07h-.07a7.49 7.49 0 0 1-3.45-5.85v-.26a2.23 2.23 0 0 1 1.16-2.1 3.06 3.06 0 0 0-.9.6 2.44 2.44 0 0 0-.27.3 3.2 3.2 0 0 0-.3.47 3.31 3.31 0 0 0-.18.42 5.14 5.14 0 0 0-.14.57 4.89 4.89 0 0 0 0 1 7 7 0 0 0 2.72 4.75 3.86 3.86 0 0 0 2 .73 3.1 3.1 0 0 0 .95-.12 2.75 2.75 0 0 0 .56-.23 2.23 2.23 0 0 0 .33-.21z"/><path d="M98.26 42.53a2.23 2.23 0 0 0-1.16 2.1c.71-.33.64-.71.65-1.14v.1c.1-.84.47-1.04.51-1.06z"/></g><path d="M99.14,41c-.14.65-.19,1.25-.88,1.55a2.43,2.43,0,0,1,2.17.27,3.15,3.15,0,0,0,1.29-1.49A2.92,2.92,0,0,0,99.14,41Z" class="D"/><path d="M96.42 45.61v.33-.32c0-2 1.34-2.85 3-1.91a2.3 2.3 0 0 1 1-.91 2.4 2.4 0 0 0-2.17-.27 2.69 2.69 0 0 0-.39.2c-.19.12-.34.24-.34.24a2.57 2.57 0 0 0-.29.29 2.62 2.62 0 0 0-.34.45 2.94 2.94 0 0 0-.36.88 4.19 4.19 0 0 0-.11 1.02z" class="J"/><path d="M103 50.84c.6-.44 1.14-.18 1.78 0a3.08 3.08 0 0 0 1-2.61 8.9 8.9 0 0 0-4.11-6.95 3.15 3.15 0 0 1-1.29 1.49 7.51 7.51 0 0 1 3.46 5.85 2.56 2.56 0 0 1-.84 2.22z" class="D"/><path d="M99.59,51a3.32,3.32,0,0,0,1.85.45,2.42,2.42,0,0,0,.83-.17,3.16,3.16,0,0,0,.76-.4,2.56,2.56,0,0,0,.86-2.19,7.51,7.51,0,0,0-3.46-5.85,2.3,2.3,0,0,0-1,.91A6.82,6.82,0,0,1,102.61,49c0,2-1.33,2.85-3,1.9a4.5,4.5,0,0,1-.41-.25Z" class="J"/><g class="B"><path d="M101.73 51.1a2.11 2.11 0 0 1-2.16-.16 6.8 6.8 0 0 1-3.15-5.32 2.22 2.22 0 0 1 1-2.11L87.29 48.9a2.37 2.37 0 0 0-1 2.28 7.34 7.34 0 0 0 3.39 5.74 2.29 2.29 0 0 0 2.33.17zm-8.43 8.38a3.62 3.62 0 0 1-3.61-.3 11.6 11.6 0 0 1-5.36-9.07c0-1.75.57-3 1.56-3.55l-2.23 1.27a3.81 3.81 0 0 0-1.56 3.55 11.6 11.6 0 0 0 5.36 9.07 3.67 3.67 0 0 0 3.62.31z"/><path d="M102.79 48.91a2.25 2.25 0 0 1-.92 2.1l-10.8 6.67a3.27 3.27 0 0 0 1-2.6 4.72 4.72 0 0 0-.17-1.22 6.9 6.9 0 0 0-3-4.14 3.17 3.17 0 0 0-2.6-.33l11.23-6a2.16 2.16 0 0 1 2.13.18 6.52 6.52 0 0 1 2.51 2.83 6 6 0 0 1 .62 2.51z"/></g><path d="M89.81,49.63l9.56-5.26s.88-.3.65.51-9.45,5.49-9.45,5.49Z" class="I"/><path d="M102.79 48.91a2.25 2.25 0 0 1-.92 2.1l-10.8 6.67a3.27 3.27 0 0 0 1-2.6 4.72 4.72 0 0 0-.17-1.22c3.61-1.83 8.89-4.71 9.73-5.51a2.42 2.42 0 0 0 .54-2 6 6 0 0 1 .62 2.56z" class="E"/><path d="M94.86 55.94c0 3.39-2.26 4.84-5.17 3.24a11.6 11.6 0 0 1-5.36-9.07c0-3.4 2.26-4.85 5.17-3.24a11.6 11.6 0 0 1 5.36 9.07zm-5.32-6.82c-1.85-1-3.31-.1-3.28 2.06a7.34 7.34 0 0 0 3.39 5.74c1.85 1 3.31.1 3.28-2.05a7.35 7.35 0 0 0-3.39-5.75z" class="B"/><g class="F"><path d="M85.89 46.56l-2.23 1.27a3.67 3.67 0 0 1 3.62.31l2.22-1.27a3.65 3.65 0 0 0-3.61-.31z"/><path d="M91.08 60.76l2.22-1.28c1-.56 1.59-1.8 1.56-3.54a11.6 11.6 0 0 0-5.36-9.07l-2.22 1.27a11.6 11.6 0 0 1 5.36 9.07 3.81 3.81 0 0 1-1.56 3.55z"/></g><path d="M92.64 57.21c0 3.4-2.27 4.85-5.18 3.24a11.6 11.6 0 0 1-5.36-9.07c0-3.4 2.27-4.85 5.18-3.24a11.6 11.6 0 0 1 5.36 9.07zM87.29 49c-2.49-1.38-4.47-.13-4.42 2.77a9.91 9.91 0 0 0 4.58 7.76c2.49 1.38 4.47.14 4.43-2.77A10 10 0 0 0 87.29 49z" class="D"/><g class="B"><path d="M90.54 59.83a3.13 3.13 0 0 1-3.09-.27 9.91 9.91 0 0 1-4.58-7.76 3.22 3.22 0 0 1 1.33-3l-17.4 10a3.23 3.23 0 0 0-1.34 3 9.93 9.93 0 0 0 4.59 7.75 3.13 3.13 0 0 0 3.09.27zM74.7 72.54c-1.19.68-2.81.6-4.62-.4a14.81 14.81 0 0 1-6.84-11.59c0-2.23.73-3.81 2-4.53l-2.07 1.19c-1.26.72-2 2.3-2 4.53.07 4.35 3.13 9.54 6.85 11.59 1.81 1 3.43 1.08 4.62.4z"/><path d="M91.88 56.74a3.2 3.2 0 0 1-1.32 3l-19.19 11a3.21 3.21 0 0 0 1.32-3 7.7 7.7 0 0 0-.25-1.74 9.87 9.87 0 0 0-4.29-6 3 3 0 0 0-3.06-.26l19.19-11a3.1 3.1 0 0 1 3.06.26 9.24 9.24 0 0 1 3.59 4 8.76 8.76 0 0 1 .95 3.74z"/></g><path d="M69.51,59.91,87,50.24s1.25-.42.91.75S70.6,61,70.6,61Z" class="I"/><path d="M91.88 56.74a3.2 3.2 0 0 1-1.32 3l-19.19 11a3.21 3.21 0 0 0 1.32-3 7.7 7.7 0 0 0-.25-1.74c5.17-2.62 16.52-8.88 17.72-10a3.4 3.4 0 0 0 .77-2.82 8.76 8.76 0 0 1 .95 3.56z" class="E"/><path d="M76.7,68c.06,4.35-2.9,6.2-6.62,4.14a14.81,14.81,0,0,1-6.84-11.59c-.07-4.34,2.89-6.19,6.61-4.14A14.85,14.85,0,0,1,76.7,68Zm-6.81-9c-2.49-1.37-4.47-.13-4.43,2.78a9.93,9.93,0,0,0,4.59,7.75c2.48,1.38,4.47.14,4.42-2.77A9.91,9.91,0,0,0,69.89,59Z" class="B"/><path d="M76.7,68c0,2.24-.74,3.81-2,4.54l-2.07,1.19c1.26-.73,2-2.3,2-4.54A14.84,14.84,0,0,0,67.78,57.6c-1.81-1-3.43-1.07-4.62-.39L65.23,56c1.19-.68,2.82-.6,4.62.39A14.85,14.85,0,0,1,76.7,68Z" class="F"/><path d="M67.78 57.6v1a13.06 13.06 0 0 1 6 10.18c.06 3.81-2.54 5.44-5.81 3.64A13.06 13.06 0 0 1 62 62.2c-.06-3.82 2.54-5.44 5.81-3.64v-1c-3.72-2.05-6.68-.2-6.62 4.14s3.1 9.58 6.81 11.63 6.68.21 6.61-4.14a14.84 14.84 0 0 0-6.83-11.59z" class="D"/><g class="B"><path d="M72.05 72.72a4.11 4.11 0 0 1-4.05-.34 13.06 13.06 0 0 1-6-10.18c0-2 .65-3.35 1.75-4L43.32 69.93c-1.11.63-1.78 2-1.75 4a13 13 0 0 0 6 10.18 4.11 4.11 0 0 0 4.06.34zM53.69 88c-1.56.9-3.69.79-6.06-.52-4.88-2.7-8.9-9.51-9-15.21 0-2.94 1-5 2.62-6l-3.35 1.92c-1.65.95-2.66 3-2.62 5.95.09 5.7 4.11 12.51 9 15.21 2.37 1.31 4.51 1.42 6.07.52z"/><path d="M73.8 68.74c0 2-.64 3.35-1.75 4L51.64 84.43c1.1-.63 1.78-2 1.75-4a10 10 0 0 0-.33-2.32 13.12 13.12 0 0 0-5.69-7.86 4.09 4.09 0 0 0-4-.34l20.36-11.69a4.11 4.11 0 0 1 4.06.34 12.46 12.46 0 0 1 4.76 5.36 11.7 11.7 0 0 1 1.25 4.82z"/></g><path d="M49.18,70.11l18.14-10s1.65-.56,1.21,1S50.61,71.52,50.61,71.52Z" class="I"/><path d="M73.8 68.74c0 2-.64 3.35-1.75 4L51.64 84.43c1.1-.63 1.78-2 1.75-4a10 10 0 0 0-.33-2.32c6.86-3.47 16.87-8.94 18.46-10.46a4.59 4.59 0 0 0 1-3.75 11.7 11.7 0 0 1 1.28 4.84z" class="E"/><path d="M56.31 82.07c.09 5.7-3.8 8.13-8.68 5.43s-8.9-9.51-9-15.21 3.8-8.14 8.68-5.44 8.92 9.52 9 15.22zm-8.94-11.8c-3.26-1.8-5.86-.18-5.8 3.64a13 13 0 0 0 6 10.18c3.26 1.8 5.86.17 5.81-3.64a13 13 0 0 0-6.01-10.18z" class="B"/><path d="M41.26 66.34l-3.35 1.92c1.56-.9 3.7-.8 6.07.51l3.34-1.92c-2.32-1.31-4.5-1.41-6.06-.51z" class="F"/><ellipse cx="44.13" cy="79.1" rx="7.24" ry="12.5" transform="matrix(.867418 -.49758 .49758 .867418 -33.51 32.44)" class="D"/><path d="M49.88 82.28a5.21 5.21 0 0 1-.68 2.88c-1 1.5-2.82 1.85-5 .66a12.65 12.65 0 0 1-5.85-9.9c0-2.62 1.21-4.18 3.06-4.26a5 5 0 0 1 2.59.72 12.65 12.65 0 0 1 5.88 9.9z" class="J"/><path d="M49.88 82.28a5.21 5.21 0 0 1-.68 2.88 5 5 0 0 1-2.6-.71 11.85 11.85 0 0 1-4.44-4.85 11.56 11.56 0 0 1-1.41-5 5.33 5.33 0 0 1 .69-2.89 5 5 0 0 1 2.59.72 9.66 9.66 0 0 1 2.43 2 12.85 12.85 0 0 1 3.42 7.85z" class="H"/><path d="M50.35 89.94L53.69 88c1.66-1 2.67-3 2.62-6-.08-5.7-4.11-12.52-9-15.22L44 68.77c4.88 2.7 8.9 9.52 9 15.22 0 2.93-1 5.01-2.65 5.95z" class="F"/><path d="M49.88 82.28a5.21 5.21 0 0 1-.68 2.88 5 5 0 0 1-2.6-.71 11.85 11.85 0 0 1-4.44-4.85 7.27 7.27 0 0 1-.09-1.13c0-3.22 1.83-4.85 4.39-4.13a12.85 12.85 0 0 1 3.42 7.94z" class="C"/><path d="M47.22 80.72c.35.6.35 1.25 0 1.45s-.91-.12-1.26-.72-.34-1.25.04-1.45.88.12 1.22.72z" fill="#f1f0ef"/><path d="M74.73 80.79l-1.15 1.43a4 4 0 0 1 1.15-1.43z" fill="#747db4"/><path d="M81.46,72.9c3.75-4.64,10.27-10.42,20-11.61L115,58.47l-3.88,10.62a9.72,9.72,0,0,1-1.37,2.49c-3,4.07-9.3,7-16.84,8L74.32,81.81Z" fill="#99c1fd"/><path d="M114.47,58.9,110.79,69a9.59,9.59,0,0,1-1.33,2.41c-2.95,4-9.17,6.93-16.62,7.84L75.06,81.39l6.65-8.29c3.71-4.59,10.17-10.32,19.81-11.49Zm1-.87-14,2.94c-9.27,1.13-15.9,6.38-20.23,11.73l-7.63,9.52,19.33-2.36c7.73-.94,14-4,17.07-8.09a10.31,10.31,0,0,0,1.41-2.57Z" class="L"/><path d="M105.15 71.77l.6-2.02 7.92-10.1-3.98 8.72-4.54 3.4z" fill="#e1edff" opacity=".26"/><path d="M94.53 60.05l-6.92 12.16-2.69 8.01 9.61-20.17z" class="L"/><path d="M100.5 77.44l-6-17.39-9.58 20.16 9-1.14a39.2 39.2 0 0 0 6.58-1.63z" fill="#e1edff"/><path d="M105.15 70.07l-10.62-10 6 17.5a19.45 19.45 0 0 0 3.47-2.94c.64-1 1.15-4.56 1.15-4.56z" class="L"/><path d="M110 71.77c-1.17 3.16-11 10.4-16.4 11.07l-11.4 1.38-8.62-2 19.33-2.36c7.73-.94 14.09-4 17.09-8.09z" class="C"/><path d="M1.62 52.19S7 40.4 13.15 41.84s2.08 10.93.41 14.17-8.19 6.73-10 5.23-3.13-5.85-1.94-9.05z" class="E"/><path d="M4.8,61.16c2.86,1.65,7.49-1,10.35-6s2.86-10.3,0-12l-2-1.13c2.86,1.65,2.86,7,0,11.95S5.7,61.68,2.84,60Z" fill="#fbc429"/><path d="M15.64,42.38c-3.13-1.81-8.2,1.12-11.33,6.54S1.18,60.2,4.31,62l-2-1.13c-3.13-1.81-3.13-7.67,0-13.09s8.2-8.35,11.33-6.54Z" class="E"/><path d="M15.64 42.38c-3.13-1.81-8.2 1.12-11.33 6.54S1.18 60.2 4.31 62s8.2-1.12 11.33-6.54 3.13-11.27 0-13.08zM4.8 61.16c-2.86-1.65-2.86-7 0-11.95s7.49-7.63 10.35-6 2.86 7 0 12-7.49 7.6-10.35 5.95z" fill="#fcdc79"/><path d="M4.35,67.05c0,3.91,5.49,7.08,12.26,7.08S28.87,71,28.87,67.05v2.7c0,3.91-5.49,7.07-12.26,7.07S4.35,73.66,4.35,69.75Z" class="E"/><path d="M4.35,67.05C4.35,63.14,9.84,60,16.61,60s12.26,3.17,12.26,7.08-5.49,7.08-12.26,7.08S4.35,71,4.35,67.05Z" fill="#fbc22c"/><g class="E"><path d="M6.35,65.84c0,3.27,4.59,5.92,10.26,5.92s10.26-2.65,10.26-5.92v1.21c0,3.27-4.6,5.92-10.26,5.92S6.35,70.32,6.35,67.05Z"/><use href="#F"/></g><use href="#F" class="I"/><path d="M25.82 65.84a3.14 3.14 0 0 1-.16 1c-.82 2.45-4.56 4.31-9 4.31s-8.23-1.86-9-4.31a3.14 3.14 0 0 1-.16-1c0-2.94 4.12-5.32 9.21-5.32s9.11 2.38 9.11 5.32z" class="B"/><path d="M25.66 66.85c-.82 2.45-4.56 4.31-9 4.31s-8.23-1.86-9-4.31c.82-2.45 4.56-4.31 9.05-4.31s8.13 1.86 8.95 4.31z" fill="#f2e0de"/><path d="M8.41 67.34l8.2-.7 8.63.27-9.04 1.28-7.79-.85z" fill="#5d9efb"/><g class="E"><path d="M14.7,66.64c0,.61.85,1.11,1.91,1.11s1.91-.5,1.91-1.11v.59c0,.61-.86,1.1-1.91,1.1s-1.91-.49-1.91-1.1Z"/><path d="M14.7 66.64c0-.61.85-1.1 1.91-1.1s1.91.49 1.91 1.1-.86 1.11-1.91 1.11-1.91-.5-1.91-1.11zm93.19-51.85a3.87 3.87 0 0 0-3.38-2.22c-4.44-.48-11.34 3.43-15.07 8.54-2.3 3.14-3 6.14-2.1 8.09l.14.32c-.86-1.95-.2-4.95 2.1-8.09 3.73-5.11 10.63-9 15.07-8.54a3.88 3.88 0 0 1 3.35 2.22zM81.5 31.76c.92 2.1 3 3.53 6.15 3.87C95 36.42 105.47 31 111 23.43c3.16-4.32 4-8.38 2.76-11.21l.14.32c1.25 2.83.4 6.89-2.76 11.22-5.5 7.53-16 13-23.32 12.19-3.15-.34-5.22-1.77-6.15-3.87z"/></g><g class="B"><path d="M94 12.8a9 9 0 0 0-5.27 9.39l.72-1.08a22.85 22.85 0 0 1 11.89-8.26A9 9 0 0 0 94 12.8z"/><path d="M107.58 8.36c-7.37-.8-17.81 4.66-23.32 12.19s-4 14.28 3.39 15.08S105.46 31 111 23.43s4-14.27-3.42-15.07zm-1 13.36c-.23.38-.49.77-.77 1.16A23.91 23.91 0 0 1 97.1 30a12.5 12.5 0 0 1-6.38 1.43c-4.12-.44-4.91-4.56-2-9.23a9 9 0 0 1 12.61-9.34 9.39 9.39 0 0 1 3.18-.28c4.09.42 4.9 4.49 2.05 9.14z"/></g><path d="M97.72 11.13a23.76 23.76 0 0 1 4.56-1.61 16.37 16.37 0 0 1 4.84-.52 8 8 0 0 1 4.64 1.58 5.77 5.77 0 0 1 2 4.53 11.49 11.49 0 0 1-1.23 4.8 21.51 21.51 0 0 1-2.65 4.13 31.24 31.24 0 0 1-7.23 6.54 28.92 28.92 0 0 1-8.91 4 19.14 19.14 0 0 1-4.89.58 9 9 0 0 1-4.85-1.3A5.17 5.17 0 0 1 82.28 32a5.83 5.83 0 0 1-.68-2.43 10.28 10.28 0 0 1 1-4.81 23.1 23.1 0 0 1 5.92-7.62 24.4 24.4 0 0 0-5.52 7.8 10.27 10.27 0 0 0-.84 4.58 4.83 4.83 0 0 0 2.22 3.76 8.7 8.7 0 0 0 4.43 1.1 17.94 17.94 0 0 0 4.66-.59 28.89 28.89 0 0 0 8.62-3.94 31.51 31.51 0 0 0 7.09-6.29 20.87 20.87 0 0 0 2.58-4 11.3 11.3 0 0 0 1.24-4.43 5.1 5.1 0 0 0-1.63-4.08 7.58 7.58 0 0 0-4.31-1.58 21.19 21.19 0 0 0-9.34 1.66zM87.78 22a10.21 10.21 0 0 0-1.57 5.93 4.71 4.71 0 0 0 1.17 2.75A4.84 4.84 0 0 0 90 32.06a11.31 11.31 0 0 0 6-.86 22.35 22.35 0 0 0 5.38-3.05 23.66 23.66 0 0 0 4.49-4.28 14.81 14.81 0 0 0 2.85-5.44 6.94 6.94 0 0 0 .11-3 4.4 4.4 0 0 0-1.53-2.56 5.51 5.51 0 0 0-2.83-1.12 9.88 9.88 0 0 0-3.11.18 10.24 10.24 0 0 1 3.12-.29 5.59 5.59 0 0 1 3 1.05 4.66 4.66 0 0 1 1.68 2.68 7.42 7.42 0 0 1-.06 3.18 14.47 14.47 0 0 1-2.87 5.61 23 23 0 0 1-4.53 4.39 22.75 22.75 0 0 1-5.51 3.08 11.33 11.33 0 0 1-6.19.77 5.18 5.18 0 0 1-2.78-1.54A4.91 4.91 0 0 1 86 27.93 10.24 10.24 0 0 1 87.78 22z" class="I"/><path d="M106.56 21.72l-.77 1.16A23.91 23.91 0 0 1 97.1 30a8.88 8.88 0 0 1-4.89-1.81 8.75 8.75 0 0 1-2.81-3.52 9.12 9.12 0 0 1-.68-2.47 9 9 0 0 1 11.61-9.72 7.09 7.09 0 0 1 1 .38 8.88 8.88 0 0 1 4.5 4.55 8.73 8.73 0 0 1 .73 4.31z" class="D"/><path d="M103.3 22.87a9 9 0 0 1-11.09 5.31 8.75 8.75 0 0 1-2.81-3.52 9.12 9.12 0 0 1-.68-2.47 9 9 0 0 1 11.61-9.72h.06a9 9 0 0 1 2.91 10.4z" fill="#fc7464"/><path d="M91 19.84c-.18.68-.64 1.16-1 1.15h-.11c-.43-.12-.6-.82-.4-1.56s.72-1.26 1.15-1.14a.57.57 0 0 1 .19.1 1.51 1.51 0 0 1 .17 1.45zm3.69-4.17a1.21 1.21 0 0 1-.84.6.46.46 0 0 1-.23-.06c-.28-.16-.24-.71.06-1.19s.78-.73 1.06-.55l.07.06c.19.21.19.7-.12 1.14zM93 26.52a.66.66 0 0 1-.2 0c-.39-.05-.78-.5-1-1.13s-.06-1.44.37-1.56a.59.59 0 0 1 .5.1 1.85 1.85 0 0 1 .67 1c.23.76.06 1.46-.34 1.59zm4.46-5.64a1.41 1.41 0 1 1-1-1.91.77.77 0 0 1 .3.11 1.62 1.62 0 0 1 .7 1.8z" class="J"/><path d="M91 19.84c-.18.68-.64 1.16-1 1.15a1.52 1.52 0 0 1-.21-1.46c.19-.68.64-1.17 1-1.16a1.51 1.51 0 0 1 .21 1.47zm3.69-4.17a1.21 1.21 0 0 1-.84.6 1 1 0 0 1 .15-1.13 1.17 1.17 0 0 1 .83-.61c.17.21.17.7-.14 1.14zM93 26.52a.66.66 0 0 1-.2 0 1.87 1.87 0 0 1-.66-1c-.23-.74-.06-1.44.36-1.57a.74.74 0 0 1 .21 0 1.8 1.8 0 0 1 .67 1c.19.74.02 1.44-.38 1.57zm4.46-5.64a1.55 1.55 0 0 1-1.72 1.34 1.65 1.65 0 0 1-.7-1.8 1.55 1.55 0 0 1 1.71-1.34 1.62 1.62 0 0 1 .71 1.8z" class="F"/><defs ><path id="B" d="M24.58 35.63a1.34 1.34 0 0 1-1.35-.55c.49.06.77.66 1.35.55z"/><path id="C" d="M28.15 39.2l-.62-1.31a3.37 3.37 0 0 1 .62 1.31z"/><path id="D" d="M29.88 42.46h-.05a4.82 4.82 0 0 1-1.68-3.19l1.73 3.19z"/><path id="E" d="M30.42 36.48a4.41 4.41 0 0 1-.8-1.57l.24.35c.14.41.37.82.56 1.22z"/><path id="F" d="M6.35,65.84c0-3.27,4.59-5.92,10.26-5.92s10.26,2.65,10.26,5.92-4.6,5.92-10.26,5.92S6.35,69.11,6.35,65.84Z"/></defs></svg>