<svg xmlns="http://www.w3.org/2000/svg" viewBox="0 0 114.75 110.72">
    <defs/>
    <g id="Layer_2" data-name="Layer 2">
        <g id="Layer_1-2" data-name="Layer 1">
            <g id="Axo_Extrusion" data-name="Axo Extrusion">
                <path id="Axo_panel" data-name="Axo panel" d="M92.62,5.55c0,1.45-.93,2.91-2.83,4A15.28,15.28,0,0,1,76,9.72C74,8.64,73.05,7.2,73,5.76l.34,33c0,1.45,1,2.89,2.91,4a15.3,15.3,0,0,0,13.85-.14C92,41.41,93,40,93,38.51Z" style="fill:#5195fb"/>
                <path id="Axo_base" data-name="Axo base" d="M89.71,1.58a15.33,15.33,0,0,0-13.85.15c-3.8,2.25-3.76,5.83.09,8a15.28,15.28,0,0,0,13.84-.14C93.59,7.33,93.56,3.75,89.71,1.58Z" style="fill:#69a4fc"/>
            </g>
            <g id="Axo_Extrusion-2" data-name="Axo Extrusion">
                <g id="Axo_Surface_" data-name="Axo Surface*">
                    <polygon id="Axo_panel-2" data-name="Axo panel" points="114.6 33.79 102.76 40.79 102.91 54.9 114.75 47.9 114.6 33.79" style="fill:#99c1fd"/>
                    <polygon id="Axo_panel-3" data-name="Axo panel" points="102.76 40.79 90.78 34.03 90.92 48.15 102.91 54.9 102.76 40.79" style="fill:#81b2fc"/>
                </g>
                <polygon id="Axo_base-2" data-name="Axo base" points="114.6 33.79 102.62 27.03 90.78 34.03 102.76 40.79 114.6 33.79" style="fill:#c9defe"/>
            </g>
            <g id="Axo_Extrusion-3" data-name="Axo Extrusion">
                <polygon id="Axo_panel-4" data-name="Axo panel" points="12.31 82.59 12.31 90.08 9.69 88.57 9.69 81.08 12.31 82.59" style="fill:#ff8980"/>
                <polygon id="Axo_panel-5" data-name="Axo panel" points="12.31 79.44 5.82 83.19 3.2 81.68 9.69 77.93 12.31 79.44" style="fill:#fc9f9c"/>
                <polygon id="Axo_panel_" data-name="Axo panel°" points="21.52 74.13 15.03 77.87 12.41 76.36 18.91 72.62 21.52 74.13" style="fill:#fc9f9c"/>
                <polygon id="Axo_panel-6" data-name="Axo panel" points="15.03 70.38 12.31 71.95 9.69 70.44 12.41 68.87 15.03 70.38" style="fill:#fc9f9c"/>
                <polygon id="Axo_panel-7" data-name="Axo panel" points="12.31 71.95 12.31 79.44 9.69 77.93 9.69 70.44 12.31 71.95" style="fill:#ff8980"/>
                <polygon id="Axo_panel_2" data-name="Axo panel*" points="5.82 83.19 5.82 86.33 3.2 84.82 3.2 81.68 5.82 83.19" style="fill:#ff8980"/>
                <polygon id="Axo_base-3" data-name="Axo base" points="21.52 74.13 21.52 77.27 15.03 81.02 15.03 88.51 12.31 90.08 12.31 82.59 5.82 86.33 5.82 83.19 12.31 79.44 12.31 71.95 15.03 70.38 15.03 77.87 21.52 74.13" style="fill:#f66"/>
            </g>
            <polygon id="Axo_base-4" data-name="Axo base" points="46.68 30.86 50.29 24.6 53.64 26.53 56.1 22.27 52.75 20.34 56.36 14.08 53.9 12.66 50.29 18.92 46.94 16.98 44.48 21.24 47.83 23.18 44.22 29.44 46.68 30.86" style="fill:#f66"/>
            <g id="Axo_Extrusion-4" data-name="Axo Extrusion">
                <rect id="Axo_panel-8" data-name="Axo panel" x="47.54" y="14.16" width="7.23" height="2.17" transform="translate(12.37 51.92) rotate(-60)" style="fill:#ff8980"/>
                <rect id="Axo_panel-9" data-name="Axo panel" x="41.47" y="24.68" width="7.23" height="2.17" transform="translate(0.23 51.92) rotate(-60)" style="fill:#ff8980"/>
                <rect id="Axo_panel-10" data-name="Axo panel" x="42.31" y="17.48" width="4.92" height="2.17" transform="translate(6.3 48.05) rotate(-60)" style="fill:#ff8980"/>
            </g>
            <g id="Axo_Compound_Extrusion" data-name="Axo Compound Extrusion">
                <g id="Axo_Extrusion-5" data-name="Axo Extrusion">
                    <path id="Axo_panel-11" data-name="Axo panel" d="M76.06,33.37c-.43.24-.73.94-.73,2.27,0,2.13.74,3.39,1.7,3.94a1.1,1.1,0,0,0,1.12.14l1.37-.79a1.13,1.13,0,0,1-1.11-.14c-1-.56-1.7-1.82-1.7-3.95,0-1.32.3-2,.73-2.27Z" style="fill:#e84343"/>
                    <path id="Axo_panel_3" data-name="Axo panel*" d="M79.47,41.9c2.09-1.2,1.73-8.07-2.34-10.42a2.38,2.38,0,0,0-2.44-.25l1.37-.8a2.43,2.43,0,0,1,2.44.25,8.22,8.22,0,0,1,3.6,7c0,1.77-.46,2.92-1.25,3.38Z" style="fill:#ff8980"/>
                </g>
                <path id="Axo_Compound" data-name="Axo Compound" d="M75.33,35.64c0,2.13.74,3.39,1.7,3.94s1.8.15,1.8-2.14c0-2.11-.84-3.47-1.73-4S75.33,33.37,75.33,35.64Zm-1.92-1.11c0-6.84,7.31-2.76,7.31,4,0,3.18-1.49,4.37-3.71,3.08A8.16,8.16,0,0,1,73.41,34.53Z" style="fill:#f66"/>
            </g>
            <g id="Axo_Compound_Extrusion-2" data-name="Axo Compound Extrusion">
                <g id="Axo_Extrusion-6" data-name="Axo Extrusion">
                    <path id="Axo_panel-12" data-name="Axo panel" d="M87.32,49.38c-.43.25-.73.95-.73,2.27,0,2.13.74,3.39,1.7,4a1.12,1.12,0,0,0,1.12.14l1.37-.8a1.08,1.08,0,0,1-1.11-.14C88.71,54.25,88,53,88,50.86c0-1.33.31-2,.74-2.27Z" style="fill:#e84343"/>
                    <path id="Axo_panel_4" data-name="Axo panel*" d="M90.73,57.92c2.09-1.2,1.73-8.08-2.35-10.43a2.43,2.43,0,0,0-2.44-.25l1.38-.79a2.38,2.38,0,0,1,2.44.25,8.22,8.22,0,0,1,3.6,7c0,1.77-.46,2.92-1.25,3.37Z" style="fill:#ff8980"/>
                </g>
                <path id="Axo_Compound-2" data-name="Axo Compound" d="M86.59,51.65c0,2.13.74,3.39,1.7,4s1.8.15,1.8-2.15c0-2.1-.84-3.47-1.73-4S86.59,49.39,86.59,51.65Zm-1.92-1.1c0-6.85,7.31-2.77,7.31,4,0,3.19-1.49,4.38-3.72,3.09A8.19,8.19,0,0,1,84.67,50.55Z" style="fill:#f66"/>
            </g>
            <g id="Axo_Extrusion-7" data-name="Axo Extrusion">
                <polygon id="Axo_panel_5" data-name="Axo panel°" points="78.61 52.14 88.72 38.28 90.1 37.48 79.99 51.34 78.61 52.14" style="fill:#e84343"/>
                <polygon id="Axo_panel_6" data-name="Axo panel*" points="88.72 38.28 86.23 36.84 87.61 36.05 90.1 37.48 88.72 38.28" style="fill:#ff8980"/>
                <polygon id="Axo_base-5" data-name="Axo base" points="78.61 52.14 76.12 50.7 86.23 36.84 88.72 38.28 78.61 52.14" style="fill:#f66"/>
            </g>
            <g id="Axo_Extrusion-8" data-name="Axo Extrusion">
                <g id="Axo_Surface_2" data-name="Axo Surface*">
                    <polygon id="Axo_panel-13" data-name="Axo panel" points="37.43 30.26 36.49 30.17 34.42 28.98 35.35 29.06 37.43 30.26" style="fill:#e1edff"/>
                    <polygon id="Axo_panel-14" data-name="Axo panel" points="36.49 30.17 36.49 36.09 34.42 34.9 34.42 28.98 36.49 30.17" style="fill:#88beff"/>
                    <polygon id="Axo_panel-15" data-name="Axo panel" points="36.49 36.09 41.08 70.04 39.01 68.84 34.42 34.9 36.49 36.09" style="fill:#1c6df6"/>
                </g>
                <polygon id="Axo_base-6" data-name="Axo base" points="37.43 30.26 41.76 65.23 41.08 70.04 36.49 36.09 36.49 30.17 37.43 30.26" style="fill:#81b2fc"/>
            </g>
            <g id="Axo_Surface_3" data-name="Axo Surface*">
                <polygon id="Axo_panel-16" data-name="Axo panel" points="36.7 28.45 34.3 29.83 32.06 28.53 34.45 27.15 36.7 28.45" style="fill:#b1d0fe"/>
                <path id="Axo_panel-17" data-name="Axo panel" d="M34.3,29.83v7a.84.84,0,0,0,.35.77l-2.24-1.3a.82.82,0,0,1-.35-.77v-7Z" style="fill:#81b2fc"/>
            </g>
            <g id="Axo_Extrusion-9" data-name="Axo Extrusion">
                <g id="Axo_Surface_4" data-name="Axo Surface*">
                    <path d="M35.4,22.62c0,6.31.05,5.86-.12,6a1.46,1.46,0,0,1-1.81,0c-.16-.19-.11.21-.11-6,0,.34.44.53.77.58C34.65,23.28,35.4,23.06,35.4,22.62Z" style="fill:#81b2fc"/>
                    <path d="M33.55,28.74l-.08-.08V22.89C33.59,23,33.55,22.33,33.55,28.74Z" style="fill:#81b2fc"/>
                    <path d="M33.84,23.13v5.76l-.08,0V23.09Z" style="fill:#81b2fc"/>
                    <path d="M34.13,23.2V29l-.09,0V23.18Z" style="fill:#81b2fc"/>
                    <path d="M34.42,23.21V29h-.09V23.21Z" style="fill:#81b2fc"/>
                    <path d="M34.71,23.18v5.76l-.09,0V23.2Z" style="fill:#81b2fc"/>
                    <path d="M35,23.09v5.77l-.09,0V23.13Z" style="fill:#81b2fc"/>
                    <path d="M35.28,22.9v5.76l-.08.08C35.2,22.34,35.16,23,35.28,22.9Z" style="fill:#81b2fc"/>
                </g>
                <path id="Axo_base-7" data-name="Axo base" d="M33.36,22.62c0-.32.45-.59,1-.59s1,.27,1,.59-.46.59-1,.59S33.36,23,33.36,22.62Z" style="fill:#e1edff"/>
            </g>
            <polygon id="Axo_panel-18" data-name="Axo panel" points="34.24 31.35 33.26 32.57 31.09 31.32 32.07 30.1 34.24 31.35" style="fill:#e1edff"/>
            <polygon id="Axo_panel-19" data-name="Axo panel" points="33.26 32.57 28.72 74.45 26.55 73.2 31.09 31.32 33.26 32.57" style="fill:#88beff"/>
            <g id="Axo_cap-2" data-name="Axo cap">
                <polygon id="Axo_base-8" data-name="Axo base" points="34.24 31.35 34.24 37.55 29.43 78.67 28.72 74.45 33.26 32.57 34.24 31.35" style="fill:#81b2fc"/>
                <g id="Axo_base-9" data-name="Axo base">
                    <path d="M28.72,74.46l4.54-41.89Z" style="fill:#81b2fc"/>
                    <path d="M28.72,74.46l4.54-41.89Z" style="fill:#e1edff"/>
                </g>
                <path d="M34.37,36.77c-1.24.21-1.43-1.44-.6-2.87a4.08,4.08,0,0,1,.6-.8v-.17c-1.61,1.53-1.64,4.23,0,4Z" style="fill:#1c6df6"/>
            </g>
            <path id="Axo_base-10" data-name="Axo base" d="M36.7,28.45v7a2.65,2.65,0,0,1-1.2,2.07c-.66.38-1.2.08-1.2-.69v-7Z" style="fill:#69a4fc"/>
            <path id="Axo_base-11" data-name="Axo base" d="M35.43,31.25c-.14-.08,0-.39.14-.49s.21,0,.21.12S35.56,31.32,35.43,31.25Z" style="fill:#1c6df6"/>
            <path id="Axo_base-12" data-name="Axo base" d="M35.52,35.44c-.05,0,0-.15,0-.19s.08,0,.08,0S35.57,35.47,35.52,35.44Z" style="fill:#1c6df6"/>
            <polygon points="29.43 78.67 27.73 77.7 26.55 73.2 28.72 74.45 29.43 78.67" style="fill:#81b2fc"/>
            <path d="M28.5,77.25s-.39-.16-.51.18.13,5.59.13,5.59l.6-4.76S29,77.54,28.5,77.25Z" style="fill:#1c6df6"/>
            <path d="M40.28,68.69s-.39-.16-.51.18.13,5.59.13,5.59l.6-4.76S40.77,69,40.28,68.69Z" style="fill:#1c6df6"/>
            <g id="Axo_Extrusion-10" data-name="Axo Extrusion">
                <polygon id="Axo_panel-20" data-name="Axo panel" points="9.71 50.45 17.61 65.01 13.55 62.67 5.66 48.11 9.71 50.45" style="fill:#fcd561"/>
                <g id="Axo_Surface_5" data-name="Axo Surface*">
                    <polygon id="Axo_panel-21" data-name="Axo panel" points="28.04 22.39 20.2 26.92 16.14 24.57 23.98 20.05 28.04 22.39" style="fill:#fceab2"/>
                    <polygon id="Axo_panel-22" data-name="Axo panel" points="20.2 26.92 16.14 51.72 12.08 49.38 16.14 24.57 20.2 26.92" style="fill:#fcd561"/>
                </g>
                <g id="Axo_Surface" data-name="Axo Surface">
                    <polygon id="Axo_panel-23" data-name="Axo panel" points="12.2 44.46 4.06 49.17 0 46.82 8.14 42.12 12.2 44.46" style="fill:#fceab2"/>
                    <polygon id="Axo_panel-24" data-name="Axo panel" points="4.06 49.17 4.06 53.72 0 51.38 0 46.82 4.06 49.17" style="fill:#fcd96e"/>
                </g>
                <polygon id="Axo_base-13" data-name="Axo base" points="28.04 22.39 28.04 26.94 23.4 29.62 17.61 65.01 9.71 50.45 4.06 53.72 4.06 49.17 12.2 44.46 16.14 51.72 20.2 26.92 28.04 22.39" style="fill:#feb30f"/>
            </g>
            <g id="Axo_Extrusion-11" data-name="Axo Extrusion">
                <g id="Axo_Surface-2" data-name="Axo Surface">
                    <path id="Axo_panel-25" data-name="Axo panel" d="M69.37,44.29l-.74.43-2.14-1.23.74-.43Z" style="fill:#eaac88"/>
                    <path id="Axo_panel-26" data-name="Axo panel" d="M68.63,44.72c-.06.34-.11.65-.18,1a4.83,4.83,0,0,1-1.67,2.72c-.86.69-1.67.88-2.22.56l-2.14-1.23c.55.32,1.36.12,2.22-.56a4.89,4.89,0,0,0,1.67-2.73c.08-.32.12-.63.18-1Z" style="fill:#feb30f"/>
                </g>
                <path id="Axo_panel-27" data-name="Axo panel" d="M62.1,35.82c0,2.42-2.17,16.27.72,17.93l-2.14-1.23a2,2,0,0,1-.77-.88c-1.69-3.53.05-15.47.05-17Z" style="fill:#fcd96e"/>
                <path id="Axo_panel-28" data-name="Axo panel" d="M54.82,40c0,.69-.47,7.09-.71,9.68a18.21,18.21,0,0,1-1.89,6.48c-.58,1.18-1.69,3.8-.55,4.46L49.53,59.4c-.87-.5-.39-2.09-.06-3,.49-1.46,2.12-3.8,2.5-7.91.24-2.58.67-9,.71-9.67Z" style="fill:#fcd96e"/>
                <path id="Axo_panel-29" data-name="Axo panel" d="M69.35,28.05C52,38.09,57,35.2,54.54,36.66c-3.18,1.93-4.69,6.29-5.44,10,0,0-2.12-1.21-2.12-1.21.73-3.73,2.24-8.1,5.42-10,2.41-1.46-2.57,1.42,14.81-8.61Z" style="fill:#fceab2"/>
                <path id="Axo_base-14" data-name="Axo base" d="M69.35,28.05v3.56l-4.88,2.82c-.11.94-.67,8.68-.79,11.61A6,6,0,0,0,64,48.17c.43,1.32,1.71,1.13,2.82.24a4.83,4.83,0,0,0,1.67-2.72c.07-.32.12-.63.18-1l.74-.43a17.08,17.08,0,0,1-1.44,5.8,8.5,8.5,0,0,1-2.34,3.09c-1.06.81-2.05,1-2.77.57C59.93,52.09,62.1,38,62.1,35.82l-4.92,2.84c-.45,6.64-.66,12.33-1.88,17.8-.37,1.63-1.42,4.21-3.09,4.29-.85,0-1.12-.72-1-1.58a10,10,0,0,1,1-3,18.21,18.21,0,0,0,1.89-6.48c.24-2.59.67-9,.71-9.68-2.1,1.14-3.26,2.08-4.67,5.55-.27.66-.55,1-1,1.13.74-3.73,2.25-8.11,5.43-10C57,35.2,52,38.09,69.35,28.05Z" style="fill:#feb30f"/>
            </g>
            <g id="Axo_Compound_Extrusion-3" data-name="Axo Compound Extrusion">
                <g id="Axo_Extrusion-12" data-name="Axo Extrusion">
                    <path id="Axo_panel-30" data-name="Axo panel" d="M106.23,70.37c0-2-1.29-3.91-3.86-5.39C97.26,62,89,62,83.83,64.9V66c5.15-2.9,13.43-2.87,18.54.07,2.57,1.49,3.86,3.44,3.86,5.39Z" style="fill:#feb30f"/>
                    <path id="Axo_panel-31" data-name="Axo panel" d="M106.69,78.11c3.65-2.15,5.48-4.94,5.48-7.74v1.09c0,2.79-1.83,5.59-5.48,7.74Z" style="fill:#feb30f"/>
                    <g id="Axo_Surface_6" data-name="Axo Surface*">
                        <polygon id="Axo_panel-32" data-name="Axo panel" points="71.42 62.6 106.49 82.84 106.49 83.93 71.42 63.68 71.42 62.6" style="fill:#feb30f"/>
                        <polygon id="Axo_panel-33" data-name="Axo panel" points="106.49 82.84 110.69 80.42 110.69 81.5 106.49 83.93 106.49 82.84" style="fill:#eaac88"/>
                    </g>
                </g>
                <path id="Axo_Compound-3" data-name="Axo Compound" d="M106.69,78.11c7.34-4.32,7.3-11.28-.12-15.56s-19.47-4.31-26.95-.07l-4-2.31-4.2,2.43,35.07,20.24,4.2-2.43ZM83.83,64.9C89,62,97.26,62,102.37,65s5.14,7.72.12,10.7Z" style="fill:#fcd561"/>
            </g>
            <g style="isolation:isolate">
                <polygon points="83.69 89.89 55.34 73.43 63.43 64.82 91.79 81.28 83.69 89.89" style="fill:#478efb"/>
                <path d="M58.83,71.53l3.88-4.13a1.75,1.75,0,0,1,2.16-.32l23,13.38a1.76,1.76,0,0,1,.4,2.72l-3.88,4.13a1.76,1.76,0,0,1-2.16.31l-23-13.37A1.76,1.76,0,0,1,58.83,71.53Z" style="fill:#202a5f"/>
                <path d="M83.14,87.86c-.53,0,1.22.92-23.7-13.56a1.34,1.34,0,0,1-.31-2.08L63,68.1a1.35,1.35,0,0,1,1-.43c.53,0-1.22-.92,23.7,13.56A1.34,1.34,0,0,1,88,83.31l-3.88,4.13A1.4,1.4,0,0,1,83.14,87.86Z" style="fill:#8ec1fd"/>
                <polygon points="54.63 106.67 26.28 90.21 55.34 73.43 83.69 89.89 54.63 106.67" style="fill:#4489f4"/>
                <polygon points="54.63 110.72 26.28 94.25 26.28 90.21 54.63 106.67 54.63 110.72" style="fill:#1c6df6"/>
                <polygon points="91.79 81.28 91.79 89.26 54.63 110.72 54.63 106.67 83.69 89.89 91.79 81.28" style="fill:#0b45b2"/>
            </g>
            <g style="isolation:isolate">
                <path d="M59,77.38v1.34a.87.87,0,0,1-.52.73l-2.24,1.3a2.76,2.76,0,0,1-2.53,0l-2.25-1.3a.9.9,0,0,1-.53-.74V77.36a.9.9,0,0,0,.53.74l2.25,1.3a2.78,2.78,0,0,0,2.54,0l2.23-1.3A.87.87,0,0,0,59,77.38Z" style="fill:#5496fb"/>
                <path d="M52.73,81v1.34a.87.87,0,0,1-.52.73L50,84.38a2.78,2.78,0,0,1-2.54,0l-2.24-1.3a.89.89,0,0,1-.54-.74V81a.89.89,0,0,0,.54.74L47.45,83A2.76,2.76,0,0,0,50,83l2.23-1.3A.87.87,0,0,0,52.73,81Z" style="fill:#5496fb"/>
                <path d="M46.49,84.61V86a.89.89,0,0,1-.53.73L43.73,88a2.78,2.78,0,0,1-2.54,0L39,86.69a.88.88,0,0,1-.53-.74V84.6a.9.9,0,0,0,.53.74l2.25,1.3a2.76,2.76,0,0,0,2.53,0L46,85.34A.89.89,0,0,0,46.49,84.61Z" style="fill:#5496fb"/>
                <path d="M40.3,88.18v1.35a.89.89,0,0,1-.52.73l-2.24,1.3a2.76,2.76,0,0,1-2.53,0l-2.25-1.3a.9.9,0,0,1-.53-.74V88.17a.9.9,0,0,0,.53.74L35,90.21a2.78,2.78,0,0,0,2.54,0l2.23-1.3A.87.87,0,0,0,40.3,88.18Z" style="fill:#5496fb"/>
                <path d="M58.5,78.1l-2.23,1.3a2.78,2.78,0,0,1-2.54,0l-2.25-1.3a.77.77,0,0,1,0-1.46l2.23-1.3a2.79,2.79,0,0,1,2.53,0l2.25,1.3C59.18,77,59.22,77.69,58.5,78.1Z" style="fill:#8ec1fd"/>
                <path d="M52.21,81.73,50,83a2.76,2.76,0,0,1-2.53,0l-2.25-1.3c-.69-.39-.73-1,0-1.46L47.42,79A2.81,2.81,0,0,1,50,79l2.25,1.3A.77.77,0,0,1,52.21,81.73Z" style="fill:#8ec1fd"/>
                <path d="M46,85.34l-2.24,1.3a2.76,2.76,0,0,1-2.53,0L39,85.34c-.69-.4-.73-1,0-1.47l2.23-1.3a2.81,2.81,0,0,1,2.54,0L46,83.88A.77.77,0,0,1,46,85.34Z" style="fill:#8ec1fd"/>
                <path d="M39.78,88.91l-2.23,1.3a2.78,2.78,0,0,1-2.54,0l-2.25-1.3a.78.78,0,0,1,0-1.47L35,86.15a2.76,2.76,0,0,1,2.53,0l2.25,1.3A.77.77,0,0,1,39.78,88.91Z" style="fill:#8ec1fd"/>
            </g>
            <g style="isolation:isolate">
                <path d="M65.68,81.22v1.35a.87.87,0,0,1-.53.72L62.92,84.6a2.82,2.82,0,0,1-2.53,0l-2.25-1.31a.88.88,0,0,1-.53-.74V81.21a.91.91,0,0,0,.53.74l2.25,1.3a2.84,2.84,0,0,0,2.54,0L65.16,82A.9.9,0,0,0,65.68,81.22Z" style="fill:#5496fb"/>
                <path d="M59.39,84.85V86.2a.88.88,0,0,1-.52.72l-2.24,1.31a2.82,2.82,0,0,1-2.53,0l-2.25-1.31a.9.9,0,0,1-.53-.74V84.84a.91.91,0,0,0,.53.74l2.25,1.3a2.84,2.84,0,0,0,2.54,0l2.23-1.3A.9.9,0,0,0,59.39,84.85Z" style="fill:#5496fb"/>
                <path d="M53.14,88.46V89.8a.87.87,0,0,1-.52.73l-2.23,1.3a2.78,2.78,0,0,1-2.54,0l-2.25-1.3a.9.9,0,0,1-.53-.74V88.44a.9.9,0,0,0,.53.74l2.25,1.3a2.78,2.78,0,0,0,2.54,0l2.23-1.3A.87.87,0,0,0,53.14,88.46Z" style="fill:#5496fb"/>
                <path d="M47,92v1.35a.89.89,0,0,1-.53.72L44.2,95.41a2.84,2.84,0,0,1-2.54,0L39.42,94.1a.88.88,0,0,1-.53-.74V92a.93.93,0,0,0,.53.75l2.25,1.29a2.76,2.76,0,0,0,2.53,0l2.24-1.29A.92.92,0,0,0,47,92Z" style="fill:#fcdd7c"/>
                <path d="M65.16,82l-2.23,1.3a2.84,2.84,0,0,1-2.54,0L58.14,82c-.69-.4-.73-1,0-1.47l2.23-1.3a2.81,2.81,0,0,1,2.54,0l2.25,1.3C65.83,80.88,65.87,81.53,65.16,82Z" style="fill:#8ec1fd"/>
                <path d="M58.87,85.58l-2.23,1.3a2.84,2.84,0,0,1-2.54,0l-2.25-1.3a.78.78,0,0,1,0-1.47l2.24-1.3a2.79,2.79,0,0,1,2.53,0l2.25,1.3A.78.78,0,0,1,58.87,85.58Z" style="fill:#8ec1fd"/>
                <path d="M52.62,89.18l-2.23,1.3a2.78,2.78,0,0,1-2.54,0l-2.25-1.3a.77.77,0,0,1,0-1.46l2.23-1.3a2.79,2.79,0,0,1,2.53,0l2.25,1.3C53.3,88.11,53.34,88.77,52.62,89.18Z" style="fill:#8ec1fd"/>
                <path d="M46.44,92.76,44.2,94.05a2.76,2.76,0,0,1-2.53,0l-2.25-1.29c-.69-.4-.73-1.05,0-1.47L41.64,90a2.81,2.81,0,0,1,2.54,0l2.25,1.3A.78.78,0,0,1,46.44,92.76Z" style="fill:#fcecb8"/>
            </g>
            <g style="isolation:isolate">
                <path d="M72.44,85.12v1.35a.87.87,0,0,1-.52.73l-2.23,1.3a2.78,2.78,0,0,1-2.54,0l-2.24-1.3a.89.89,0,0,1-.54-.74V85.11a.89.89,0,0,0,.54.74l2.25,1.3a2.76,2.76,0,0,0,2.53,0l2.23-1.3A.87.87,0,0,0,72.44,85.12Z" style="fill:#5496fb"/>
                <path d="M66.16,88.75V90.1a.89.89,0,0,1-.53.73l-2.23,1.3a2.78,2.78,0,0,1-2.54,0l-2.24-1.3a.88.88,0,0,1-.53-.74V88.74a.9.9,0,0,0,.53.74l2.25,1.3a2.76,2.76,0,0,0,2.53,0l2.24-1.3A.89.89,0,0,0,66.16,88.75Z" style="fill:#5496fb"/>
                <path d="M59.91,92.36v1.35a.9.9,0,0,1-.53.73l-2.23,1.3a2.76,2.76,0,0,1-2.53,0l-2.25-1.3a.88.88,0,0,1-.53-.74V92.35a.9.9,0,0,0,.53.74l2.25,1.3a2.78,2.78,0,0,0,2.54,0l2.23-1.3A.87.87,0,0,0,59.91,92.36Z" style="fill:#5496fb"/>
                <path d="M53.72,95.93v1.35a.87.87,0,0,1-.52.73L51,99.31a2.78,2.78,0,0,1-2.54,0L46.18,98a.9.9,0,0,1-.53-.74V95.92a.9.9,0,0,0,.53.74L48.43,98A2.78,2.78,0,0,0,51,98l2.23-1.3A.87.87,0,0,0,53.72,95.93Z" style="fill:#fc5552"/>
                <path d="M71.92,85.85l-2.23,1.3a2.76,2.76,0,0,1-2.53,0l-2.25-1.3a.78.78,0,0,1,0-1.47l2.23-1.29a2.78,2.78,0,0,1,2.54,0l2.25,1.3A.77.77,0,0,1,71.92,85.85Z" style="fill:#8ec1fd"/>
                <path d="M65.64,89.48l-2.24,1.3a2.76,2.76,0,0,1-2.53,0l-2.25-1.3a.78.78,0,0,1,0-1.47l2.23-1.29a2.78,2.78,0,0,1,2.54,0L65.63,88A.77.77,0,0,1,65.64,89.48Z" style="fill:#8ec1fd"/>
                <path d="M59.39,93.09l-2.23,1.3a2.78,2.78,0,0,1-2.54,0l-2.25-1.3c-.69-.4-.73-1,0-1.47l2.24-1.3a2.79,2.79,0,0,1,2.53,0l2.25,1.3A.77.77,0,0,1,59.39,93.09Z" style="fill:#8ec1fd"/>
                <path d="M53.2,96.66,51,98a2.78,2.78,0,0,1-2.54,0l-2.25-1.3a.78.78,0,0,1,0-1.47l2.23-1.3a2.79,2.79,0,0,1,2.53,0l2.25,1.3A.77.77,0,0,1,53.2,96.66Z" style="fill:#fc7464"/>
            </g>
            <g style="isolation:isolate">
                <path d="M79.1,89v1.35a.88.88,0,0,1-.52.72l-2.24,1.31a2.82,2.82,0,0,1-2.53,0L71.56,91A.9.9,0,0,1,71,90.3V89a.93.93,0,0,0,.53.74L73.81,91a2.78,2.78,0,0,0,2.54,0l2.23-1.29A.9.9,0,0,0,79.1,89Z" style="fill:#0b45b2"/>
                <path d="M72.81,92.6V94a.86.86,0,0,1-.52.72L70.06,96a2.84,2.84,0,0,1-2.54,0l-2.25-1.31a.9.9,0,0,1-.53-.74V92.59a.93.93,0,0,0,.53.74l2.25,1.29a2.78,2.78,0,0,0,2.54,0l2.23-1.29A.9.9,0,0,0,72.81,92.6Z" style="fill:#0b45b2"/>
                <path d="M66.56,96.2v1.35a.87.87,0,0,1-.52.73l-2.23,1.3a2.78,2.78,0,0,1-2.54,0L59,98.28a.89.89,0,0,1-.54-.74V96.19a.89.89,0,0,0,.54.74l2.25,1.3a2.76,2.76,0,0,0,2.53,0L66,96.93A.87.87,0,0,0,66.56,96.2Z" style="fill:#0b45b2"/>
                <path d="M60.38,99.78v1.34a.89.89,0,0,1-.53.73l-2.23,1.31a2.82,2.82,0,0,1-2.53,0l-2.25-1.31a.88.88,0,0,1-.53-.74V99.76a.9.9,0,0,0,.53.74l2.25,1.3a2.78,2.78,0,0,0,2.54,0l2.23-1.3A.87.87,0,0,0,60.38,99.78Z" style="fill:#0b45b2"/>
                <path d="M78.58,89.7,76.35,91a2.78,2.78,0,0,1-2.54,0L71.56,89.7a.78.78,0,0,1,0-1.47l2.24-1.3a2.79,2.79,0,0,1,2.53,0l2.25,1.3A.78.78,0,0,1,78.58,89.7Z" style="fill:#8ec1fd"/>
                <path d="M72.29,93.33l-2.23,1.29a2.78,2.78,0,0,1-2.54,0l-2.25-1.29a.78.78,0,0,1,0-1.47l2.23-1.3a2.79,2.79,0,0,1,2.53,0l2.25,1.3A.78.78,0,0,1,72.29,93.33Z" style="fill:#8ec1fd"/>
                <path d="M66,96.93l-2.23,1.3a2.76,2.76,0,0,1-2.53,0L59,96.93a.78.78,0,0,1,0-1.47l2.23-1.29a2.78,2.78,0,0,1,2.54,0L66,95.47A.77.77,0,0,1,66,96.93Z" style="fill:#8ec1fd"/>
                <path d="M59.86,100.5l-2.23,1.3a2.78,2.78,0,0,1-2.54,0l-2.25-1.3a.77.77,0,0,1,0-1.46l2.24-1.3a2.79,2.79,0,0,1,2.53,0L59.85,99A.77.77,0,0,1,59.86,100.5Z" style="fill:#8ec1fd"/>
            </g>
            <path d="M26.28,90.21c31.6,18.1,28.53,16.29,28.25,16.29L83.64,89.79s8.15-8.51,8.15-8.51l-8,8.7L54.63,106.89Z" style="fill:#71aaf9"/>
        </g>
    </g>
</svg>
