<svg xmlns="http://www.w3.org/2000/svg" viewBox="0 0 114.75 110.72" xmlns:v="https://vecta.io/nano"><path d="M92.62 5.55c0 1.45-.93 2.91-2.83 4A15.28 15.28 0 0 1 76 9.72c-2-1.08-2.95-2.52-3-3.96l.34 33c0 1.45 1 2.89 2.91 4a15.3 15.3 0 0 0 13.85-.14C92 41.41 93 40 93 38.51z" fill="#5195fb"/><path d="M89.71 1.58a15.33 15.33 0 0 0-13.85.15c-3.8 2.25-3.76 5.83.09 8a15.28 15.28 0 0 0 13.84-.14c3.8-2.26 3.77-5.84-.08-8.01z" fill="#69a4fc"/><path d="M114.6 33.79l-11.84 7 .15 14.11 11.84-7-.15-14.11z" fill="#99c1fd"/><path d="M102.76 40.79l-11.98-6.76.14 14.12 11.99 6.75-.15-14.11z" fill="#81b2fc"/><path d="M114.6 33.79l-11.98-6.76-11.84 7 11.98 6.76 11.84-7z" fill="#c9defe"/><path d="M12.31 82.59v7.49l-2.62-1.51v-7.49l2.62 1.51z" fill="#ff8980"/><path d="M12.31 79.44l-6.49 3.75-2.62-1.51 6.49-3.75 2.62 1.51zm9.21-5.31l-6.49 3.74-2.62-1.51 6.5-3.74 2.61 1.51zm-6.49-3.75l-2.72 1.57-2.62-1.51 2.72-1.57 2.62 1.51z" fill="#fc9f9c"/><path d="M12.31 71.95v7.49l-2.62-1.51v-7.49l2.62 1.51zM5.82 83.19v3.14L3.2 84.82v-3.14l2.62 1.51z" fill="#ff8980"/><path d="M21.52 74.13v3.14l-6.49 3.75v7.49l-2.72 1.57v-7.49l-6.49 3.74v-3.14l6.49-3.75v-7.49l2.72-1.57v7.49l6.49-3.74zm25.16-43.27l3.61-6.26 3.35 1.93 2.46-4.26-3.35-1.93 3.61-6.26-2.46-1.42-3.61 6.26-3.35-1.94-2.46 4.26 3.35 1.94-3.61 6.26 2.46 1.42z" fill="#f66"/><path d="M48.403 17.829l3.615-6.261 1.879 1.085-3.615 6.261zm-6.064 10.517l3.615-6.261 1.879 1.085-3.615 6.261zm.254-8.198l2.46-4.261 1.879 1.085-2.46 4.261z" fill="#ff8980"/><path d="M76.06,33.37c-.43.24-.73.94-.73,2.27,0,2.13.74,3.39,1.7,3.94a1.1,1.1,0,0,0,1.12.14l1.37-.79a1.13,1.13,0,0,1-1.11-.14c-1-.56-1.7-1.82-1.7-3.95,0-1.32.3-2,.73-2.27Z" fill="#e84343"/><path d="M79.47,41.9c2.09-1.2,1.73-8.07-2.34-10.42a2.38,2.38,0,0,0-2.44-.25l1.37-.8a2.43,2.43,0,0,1,2.44.25,8.22,8.22,0,0,1,3.6,7c0,1.77-.46,2.92-1.25,3.38Z" fill="#ff8980"/><path d="M75.33 35.64c0 2.13.74 3.39 1.7 3.94s1.8.15 1.8-2.14c0-2.11-.84-3.47-1.73-4s-1.77-.07-1.77 2.2zm-1.92-1.11c0-6.84 7.31-2.76 7.31 4 0 3.18-1.49 4.37-3.71 3.08a8.16 8.16 0 0 1-3.6-7.08z" fill="#f66"/><path d="M87.32,49.38c-.43.25-.73.95-.73,2.27,0,2.13.74,3.39,1.7,4a1.12,1.12,0,0,0,1.12.14l1.37-.8a1.08,1.08,0,0,1-1.11-.14C88.71,54.25,88,53,88,50.86c0-1.33.31-2,.74-2.27Z" fill="#e84343"/><path d="M90.73,57.92c2.09-1.2,1.73-8.08-2.35-10.43a2.43,2.43,0,0,0-2.44-.25l1.38-.79a2.38,2.38,0,0,1,2.44.25,8.22,8.22,0,0,1,3.6,7c0,1.77-.46,2.92-1.25,3.37Z" fill="#ff8980"/><path d="M86.59 51.65c0 2.13.74 3.39 1.7 4s1.8.15 1.8-2.15c0-2.1-.84-3.47-1.73-4s-1.77-.11-1.77 2.15zm-1.92-1.1c0-6.85 7.31-2.77 7.31 4 0 3.19-1.49 4.38-3.72 3.09a8.19 8.19 0 0 1-3.59-7.09z" fill="#f66"/><path d="M78.61 52.14l10.11-13.86 1.38-.8-10.11 13.86-1.38.8z" fill="#e84343"/><path d="M88.72 38.28l-2.49-1.44 1.38-.79 2.49 1.43-1.38.8z" fill="#ff8980"/><path d="M78.61 52.14l-2.49-1.44 10.11-13.86 2.49 1.44-10.11 13.86z" fill="#f66"/><path d="M37.43 30.26l-.94-.09-2.07-1.19.93.08 2.08 1.2z" fill="#e1edff"/><path d="M36.49 30.17v5.92l-2.07-1.19v-5.92l2.07 1.19z" fill="#88beff"/><path d="M36.49 36.09l4.59 33.95-2.07-1.2-4.59-33.94 2.07 1.19z" fill="#1c6df6"/><path d="M37.43 30.26l4.33 34.97-.68 4.81-4.59-33.95v-5.92l.94.09z" fill="#81b2fc"/><path d="M36.7 28.45l-2.4 1.38-2.24-1.3 2.39-1.38 2.25 1.3z" fill="#b1d0fe"/><g fill="#81b2fc"><path d="M34.3 29.83v7a.84.84 0 0 0 .35.77l-2.24-1.3a.82.82 0 0 1-.35-.77v-7zm1.1-7.21l-.12 6a1.46 1.46 0 0 1-1.81 0c-.16-.19-.11.21-.11-6 0 .34.44.53.77.58.52.08 1.27-.14 1.27-.58z"/><path d="M33.55 28.74l-.08-.08v-5.77c.12.11.08-.56.08 5.85z"/><path d="M33.84 23.13v5.76h-.08v-5.8zm.29.07V29h-.09v-5.82zm.29.01V29h-.09v-5.79zm.29-.03v5.76h-.09V23.2zm.29-.09v5.77h-.09v-5.73zm.28-.19v5.76l-.08.08.08-5.84z"/></g><path d="M33.36 22.62c0-.32.45-.59 1-.59s1 .27 1 .59-.46.59-1 .59-1-.21-1-.59zm.88 8.73l-.98 1.22-2.17-1.25.98-1.22 2.17 1.25z" fill="#e1edff"/><path d="M33.26 32.57l-4.54 41.88-2.17-1.25 4.54-41.88 2.17 1.25z" fill="#88beff"/><g fill="#81b2fc"><path d="M34.24 31.35v6.2l-4.81 41.12-.71-4.22 4.54-41.88.98-1.22z"/><path d="M28.72,74.46l4.54-41.89Z"/></g><path d="M28.72,74.46l4.54-41.89Z" fill="#e1edff"/><path d="M34.37,36.77c-1.24.21-1.43-1.44-.6-2.87a4.08,4.08,0,0,1,.6-.8v-.17c-1.61,1.53-1.64,4.23,0,4Z" fill="#1c6df6"/><path d="M36.7,28.45v7a2.65,2.65,0,0,1-1.2,2.07c-.66.38-1.2.08-1.2-.69v-7Z" fill="#69a4fc"/><path d="M35.43 31.25c-.14-.08 0-.39.14-.49s.21 0 .21.12-.22.44-.35.37zm.09 4.19c-.05 0 0-.15 0-.19s.08 0 .08 0-.03.22-.08.19z" fill="#1c6df6"/><path d="M29.43 78.67l-1.7-.97-1.18-4.5 2.17 1.25.71 4.22z" fill="#81b2fc"/><path d="M28.5 77.25s-.39-.16-.51.18.13 5.59.13 5.59l.6-4.76s.28-.72-.22-1.01zm11.78-8.56s-.39-.16-.51.18.13 5.59.13 5.59l.6-4.76s.27-.7-.22-1.01z" fill="#1c6df6"/><path d="M9.71 50.45l7.9 14.56-4.06-2.34-7.89-14.56 4.05 2.34z" fill="#fcd561"/><path d="M28.04 22.39l-7.84 4.53-4.06-2.35 7.84-4.52 4.06 2.34z" fill="#fceab2"/><path d="M20.2 26.92l-4.06 24.8-4.06-2.34 4.06-24.81 4.06 2.35z" fill="#fcd561"/><path d="M12.2 44.46l-8.14 4.71L0 46.82l8.14-4.7 4.06 2.34z" fill="#fceab2"/><path d="M4.06 49.17v4.55L0 51.38v-4.56l4.06 2.35z" fill="#fcd96e"/><path d="M28.04 22.39v4.55l-4.64 2.68-5.79 35.39-7.9-14.56-5.65 3.27v-4.55l8.14-4.71 3.94 7.26 4.06-24.8 7.84-4.53z" fill="#feb30f"/><path d="M69.37,44.29l-.74.43-2.14-1.23.74-.43Z" fill="#eaac88"/><path d="M68.63 44.72l-.18 1a4.83 4.83 0 0 1-1.67 2.72c-.86.69-1.67.88-2.22.56l-2.14-1.23c.55.32 1.36.12 2.22-.56a4.89 4.89 0 0 0 1.67-2.73c.08-.32.12-.63.18-1z" fill="#feb30f"/><path d="M62.1 35.82c0 2.42-2.17 16.27.72 17.93l-2.14-1.23a2 2 0 0 1-.77-.88c-1.69-3.53.05-15.47.05-17zM54.82 40c0 .69-.47 7.09-.71 9.68a18.21 18.21 0 0 1-1.89 6.48c-.58 1.18-1.69 3.8-.55 4.46l-2.14-1.22c-.87-.5-.39-2.09-.06-3 .49-1.46 2.12-3.8 2.5-7.91l.71-9.67z" fill="#fcd96e"/><path d="M69.35 28.05l-14.81 8.61c-3.18 1.93-4.69 6.29-5.44 10l-2.12-1.21c.73-3.73 2.24-8.1 5.42-10 2.41-1.46-2.57 1.42 14.81-8.61z" fill="#fceab2"/><path d="M69.35 28.05v3.56l-4.88 2.82c-.11.94-.67 8.68-.79 11.61a6 6 0 0 0 .32 2.13c.43 1.32 1.71 1.13 2.82.24a4.83 4.83 0 0 0 1.67-2.72c.07-.32.12-.63.18-1l.74-.43a17.08 17.08 0 0 1-1.44 5.8 8.5 8.5 0 0 1-2.34 3.09c-1.06.81-2.05 1-2.77.57-2.93-1.63-.76-15.72-.76-17.9l-4.92 2.84c-.45 6.64-.66 12.33-1.88 17.8-.37 1.63-1.42 4.21-3.09 4.29-.85 0-1.12-.72-1-1.58a10 10 0 0 1 1-3 18.21 18.21 0 0 0 1.89-6.48c.24-2.59.67-9 .71-9.68-2.1 1.14-3.26 2.08-4.67 5.55-.27.66-.55 1-1 1.13.74-3.73 2.25-8.11 5.43-10C57 35.2 52 38.09 69.35 28.05zm36.88 42.32c0-2-1.29-3.91-3.86-5.39C97.26 62 89 62 83.83 64.9V66c5.15-2.9 13.43-2.87 18.54.07 2.57 1.49 3.86 3.44 3.86 5.39zm.46 7.74c3.65-2.15 5.48-4.94 5.48-7.74v1.09c0 2.79-1.83 5.59-5.48 7.74zM71.42 62.6l35.07 20.24v1.09L71.42 63.68V62.6z" fill="#feb30f"/><path d="M106.49 82.84l4.2-2.42v1.08l-4.2 2.43v-1.09z" fill="#eaac88"/><path d="M106.69,78.11c7.34-4.32,7.3-11.28-.12-15.56s-19.47-4.31-26.95-.07l-4-2.31-4.2,2.43,35.07,20.24,4.2-2.43ZM83.83,64.9C89,62,97.26,62,102.37,65s5.14,7.72.12,10.7Z" fill="#fcd561"/><path d="M83.69 89.89L55.34 73.43l8.09-8.61 28.36 16.46-8.1 8.61z" fill="#478efb"/><path d="M58.83 71.53l3.88-4.13a1.75 1.75 0 0 1 2.16-.32l23 13.38a1.76 1.76 0 0 1 .4 2.72l-3.88 4.13a1.76 1.76 0 0 1-2.16.31l-23-13.37a1.76 1.76 0 0 1-.4-2.72z" fill="#202a5f"/><path d="M83.14 87.86c-.53 0 1.22.92-23.7-13.56a1.34 1.34 0 0 1-.31-2.08L63 68.1a1.35 1.35 0 0 1 1-.43c.53 0-1.22-.92 23.7 13.56a1.34 1.34 0 0 1 .3 2.08l-3.88 4.13a1.4 1.4 0 0 1-.98.42z" fill="#8ec1fd"/><path d="M54.63 106.67L26.28 90.21l29.06-16.78 28.35 16.46-29.06 16.78z" fill="#4489f4"/><path d="M54.63 110.72L26.28 94.25v-4.04l28.35 16.46v4.05z" fill="#1c6df6"/><path d="M91.79 81.28v7.98l-37.16 21.46v-4.05l29.06-16.78 8.1-8.61z" fill="#0b45b2"/><path d="M59 77.38v1.34a.87.87 0 0 1-.52.73l-2.24 1.3a2.76 2.76 0 0 1-2.53 0l-2.25-1.3a.9.9 0 0 1-.53-.74v-1.35a.9.9 0 0 0 .53.74l2.25 1.3a2.78 2.78 0 0 0 2.54 0l2.23-1.3a.87.87 0 0 0 .52-.72zM52.73 81v1.34a.87.87 0 0 1-.52.73L50 84.38a2.78 2.78 0 0 1-2.54 0l-2.24-1.3a.89.89 0 0 1-.54-.74V81a.89.89 0 0 0 .54.74L47.45 83A2.76 2.76 0 0 0 50 83l2.23-1.3a.87.87 0 0 0 .5-.7zm-6.24 3.61V86a.89.89 0 0 1-.53.73L43.73 88a2.78 2.78 0 0 1-2.54 0L39 86.69a.88.88 0 0 1-.53-.74V84.6a.9.9 0 0 0 .53.74l2.25 1.3a2.76 2.76 0 0 0 2.53 0l2.22-1.3a.89.89 0 0 0 .49-.73zm-6.19 3.57v1.35a.89.89 0 0 1-.52.73l-2.24 1.3a2.76 2.76 0 0 1-2.53 0l-2.25-1.3a.9.9 0 0 1-.53-.74v-1.35a.9.9 0 0 0 .53.74l2.24 1.3a2.78 2.78 0 0 0 2.54 0l2.23-1.3a.87.87 0 0 0 .53-.73z" fill="#5496fb"/><path d="M58.5 78.1l-2.23 1.3a2.78 2.78 0 0 1-2.54 0l-2.25-1.3a.77.77 0 0 1 0-1.46l2.23-1.3a2.79 2.79 0 0 1 2.53 0l2.25 1.3c.69.36.73 1.05.01 1.46zm-6.29 3.63L50 83a2.76 2.76 0 0 1-2.53 0l-2.25-1.3c-.69-.39-.73-1 0-1.46l2.2-1.24A2.81 2.81 0 0 1 50 79l2.25 1.3a.77.77 0 0 1-.04 1.43zM46 85.34l-2.24 1.3a2.76 2.76 0 0 1-2.53 0L39 85.34c-.69-.4-.73-1 0-1.47l2.23-1.3a2.81 2.81 0 0 1 2.54 0L46 83.88a.77.77 0 0 1 0 1.46zm-6.22 3.57l-2.23 1.3a2.78 2.78 0 0 1-2.54 0l-2.25-1.3a.78.78 0 0 1 0-1.47L35 86.15a2.76 2.76 0 0 1 2.53 0l2.25 1.3a.77.77 0 0 1 0 1.46z" fill="#8ec1fd"/><path d="M65.68 81.22v1.35a.87.87 0 0 1-.53.72l-2.23 1.31a2.82 2.82 0 0 1-2.53 0l-2.25-1.31a.88.88 0 0 1-.53-.74v-1.34a.91.91 0 0 0 .53.74l2.25 1.3a2.84 2.84 0 0 0 2.54 0L65.16 82a.9.9 0 0 0 .52-.78zm-6.29 3.63v1.35a.88.88 0 0 1-.52.72l-2.24 1.31a2.82 2.82 0 0 1-2.53 0l-2.25-1.31a.9.9 0 0 1-.53-.74v-1.34a.91.91 0 0 0 .53.74l2.25 1.3a2.84 2.84 0 0 0 2.54 0l2.23-1.3a.9.9 0 0 0 .52-.73zm-6.25 3.61v1.34a.87.87 0 0 1-.52.73l-2.23 1.3a2.78 2.78 0 0 1-2.54 0l-2.25-1.3a.9.9 0 0 1-.53-.74v-1.35a.9.9 0 0 0 .53.74l2.25 1.3a2.78 2.78 0 0 0 2.54 0l2.23-1.3a.87.87 0 0 0 .52-.72z" fill="#5496fb"/><path d="M47,92v1.35a.89.89,0,0,1-.53.72L44.2,95.41a2.84,2.84,0,0,1-2.54,0L39.42,94.1a.88.88,0,0,1-.53-.74V92a.93.93,0,0,0,.53.75l2.25,1.29a2.76,2.76,0,0,0,2.53,0l2.24-1.29A.92.92,0,0,0,47,92Z" fill="#fcdd7c"/><path d="M65.16 82l-2.23 1.3a2.84 2.84 0 0 1-2.54 0L58.14 82c-.69-.4-.73-1 0-1.47l2.23-1.3a2.81 2.81 0 0 1 2.54 0l2.25 1.3c.67.35.71 1 0 1.47zm-6.29 3.58l-2.23 1.3a2.84 2.84 0 0 1-2.54 0l-2.25-1.3a.78.78 0 0 1 0-1.47l2.24-1.3a2.79 2.79 0 0 1 2.53 0l2.25 1.3a.78.78 0 0 1 0 1.47zm-6.25 3.6l-2.23 1.3a2.78 2.78 0 0 1-2.54 0l-2.25-1.3a.77.77 0 0 1 0-1.46l2.23-1.3a2.79 2.79 0 0 1 2.53 0l2.25 1.3c.69.39.73 1.05.01 1.46z" fill="#8ec1fd"/><path d="M46.44 92.76l-2.24 1.29a2.76 2.76 0 0 1-2.53 0l-2.25-1.29c-.69-.4-.73-1.05 0-1.47L41.64 90a2.81 2.81 0 0 1 2.54 0l2.25 1.3a.78.78 0 0 1 .01 1.46z" fill="#fcecb8"/><path d="M72.44 85.12v1.35a.87.87 0 0 1-.52.73l-2.23 1.3a2.78 2.78 0 0 1-2.54 0l-2.24-1.3a.89.89 0 0 1-.54-.74v-1.35a.89.89 0 0 0 .54.74l2.25 1.3a2.76 2.76 0 0 0 2.53 0l2.23-1.3a.87.87 0 0 0 .52-.73zm-6.28 3.63v1.35a.89.89 0 0 1-.53.73l-2.23 1.3a2.78 2.78 0 0 1-2.54 0l-2.24-1.3a.88.88 0 0 1-.53-.74v-1.35a.9.9 0 0 0 .53.74l2.25 1.3a2.76 2.76 0 0 0 2.53 0l2.24-1.3a.89.89 0 0 0 .52-.73zm-6.25 3.61v1.35a.9.9 0 0 1-.53.73l-2.23 1.3a2.76 2.76 0 0 1-2.53 0l-2.25-1.3a.88.88 0 0 1-.53-.74v-1.35a.9.9 0 0 0 .53.74l2.25 1.3a2.78 2.78 0 0 0 2.54 0l2.23-1.3a.87.87 0 0 0 .52-.73z" fill="#5496fb"/><path d="M53.72 95.93v1.35a.87.87 0 0 1-.52.73l-2.2 1.3a2.78 2.78 0 0 1-2.54 0L46.18 98a.9.9 0 0 1-.53-.74v-1.34a.9.9 0 0 0 .53.74L48.43 98A2.78 2.78 0 0 0 51 98l2.23-1.3a.87.87 0 0 0 .49-.77z" fill="#fc5552"/><path d="M71.92 85.85l-2.23 1.3a2.76 2.76 0 0 1-2.53 0l-2.25-1.3a.78.78 0 0 1 0-1.47l2.23-1.29a2.78 2.78 0 0 1 2.54 0l2.25 1.3a.77.77 0 0 1-.01 1.46zm-6.28 3.63l-2.24 1.3a2.76 2.76 0 0 1-2.53 0l-2.25-1.3a.78.78 0 0 1 0-1.47l2.23-1.29a2.78 2.78 0 0 1 2.54 0L65.63 88a.77.77 0 0 1 .01 1.48zm-6.25 3.61l-2.23 1.3a2.78 2.78 0 0 1-2.54 0l-2.25-1.3c-.69-.4-.73-1 0-1.47l2.24-1.3a2.79 2.79 0 0 1 2.53 0l2.25 1.3a.77.77 0 0 1 0 1.47z" fill="#8ec1fd"/><path d="M53.2 96.66L51 98a2.78 2.78 0 0 1-2.54 0l-2.25-1.3a.78.78 0 0 1 0-1.47l2.23-1.3a2.79 2.79 0 0 1 2.53 0l2.25 1.3a.77.77 0 0 1-.02 1.43z" fill="#fc7464"/><path d="M79.1 89v1.35a.88.88 0 0 1-.52.72l-2.24 1.31a2.82 2.82 0 0 1-2.53 0L71.56 91a.9.9 0 0 1-.56-.7V89a.93.93 0 0 0 .53.74L73.81 91a2.78 2.78 0 0 0 2.54 0l2.23-1.29a.9.9 0 0 0 .52-.71zm-6.29 3.6V94a.86.86 0 0 1-.52.72L70.06 96a2.84 2.84 0 0 1-2.54 0l-2.25-1.31a.9.9 0 0 1-.53-.74v-1.36a.93.93 0 0 0 .53.74l2.25 1.29a2.78 2.78 0 0 0 2.54 0l2.23-1.29a.9.9 0 0 0 .52-.73zm-6.25 3.6v1.35a.87.87 0 0 1-.52.73l-2.23 1.3a2.78 2.78 0 0 1-2.54 0L59 98.28a.89.89 0 0 1-.54-.74v-1.35a.89.89 0 0 0 .54.74l2.25 1.3a2.76 2.76 0 0 0 2.53 0l2.22-1.3a.87.87 0 0 0 .56-.73zm-6.18 3.58v1.34a.89.89 0 0 1-.53.73l-2.23 1.31a2.82 2.82 0 0 1-2.53 0l-2.25-1.31a.88.88 0 0 1-.53-.74v-1.35a.9.9 0 0 0 .53.74l2.25 1.3a2.78 2.78 0 0 0 2.54 0l2.23-1.3a.87.87 0 0 0 .52-.72z" fill="#0b45b2"/><path d="M78.58 89.7L76.35 91a2.78 2.78 0 0 1-2.54 0l-2.25-1.3a.78.78 0 0 1 0-1.47l2.24-1.3a2.79 2.79 0 0 1 2.53 0l2.25 1.3a.78.78 0 0 1 0 1.47zm-6.29 3.63l-2.23 1.29a2.78 2.78 0 0 1-2.54 0l-2.25-1.29a.78.78 0 0 1 0-1.47l2.23-1.3a2.79 2.79 0 0 1 2.53 0l2.25 1.3a.78.78 0 0 1 .01 1.47zM66 96.93l-2.23 1.3a2.76 2.76 0 0 1-2.53 0L59 96.93a.78.78 0 0 1 0-1.47l2.23-1.29a2.78 2.78 0 0 1 2.54 0l2.23 1.3a.77.77 0 0 1 0 1.46zm-6.14 3.57l-2.23 1.3a2.78 2.78 0 0 1-2.54 0l-2.25-1.3a.77.77 0 0 1 0-1.46l2.24-1.3a2.79 2.79 0 0 1 2.53 0L59.85 99a.77.77 0 0 1 .01 1.5z" fill="#8ec1fd"/><path d="M26.28 90.21l28.25 16.29 29.11-16.71 8.15-8.51-8 8.7-29.16 16.91z" fill="#71aaf9"/></svg>