<svg xmlns="http://www.w3.org/2000/svg" viewBox="0 0 116.2 110.57" xmlns:v="https://vecta.io/nano"><style><![CDATA[.B{fill:#99c1fd}.C{fill:#81b2fc}.D{fill:#0b45b2}.E{fill:#1c6df6}.F{fill:#69a4fc}.G{fill:#fcdc79}.H{fill:#b1d0fe}.I{fill:#fbc429}.J{fill:#121e51}.K{fill:#0e173d}]]></style><path d="M87,64.25c0,2.15,1.42,4.31,4.27,6,5.7,3.29,14.93,3.29,20.62,0,2.85-1.64,4.27-3.8,4.27-6v4.67c0,2.15-1.42,4.3-4.27,6-5.69,3.28-14.92,3.28-20.62,0-2.85-1.65-4.27-3.8-4.27-6Z" class="C"/><path d="M87 64.25c0-2.16 1.43-4.31 4.27-6 5.7-3.28 14.93-3.28 20.62 0 2.85 1.65 4.27 3.8 4.27 6s-1.42 4.31-4.27 6c-5.69 3.29-14.92 3.29-20.62 0-2.81-1.69-4.27-3.85-4.27-6z" class="B"/><path d="M99.44,32.86a1.08,1.08,0,0,0,.64.89,3.41,3.41,0,0,0,3.08,0,1.06,1.06,0,0,0,.64-.89V64.25a1.08,1.08,0,0,1-.64.89,3.41,3.41,0,0,1-3.08,0,1.11,1.11,0,0,1-.64-.89Z" class="F"/><g class="B"><path d="M99.44 32.86a1.11 1.11 0 0 1 .64-.89 3.41 3.41 0 0 1 3.08 0 1.08 1.08 0 0 1 .64.89 1.06 1.06 0 0 1-.64.89 3.41 3.41 0 0 1-3.08 0 1.08 1.08 0 0 1-.64-.89z"/><path d="M108.38,32.76a1.59,1.59,0,0,0-1.63.16,5.07,5.07,0,0,0-2.3,4,1.63,1.63,0,0,0,.67,1.49l-12-6.94A1.61,1.61,0,0,1,92.43,30a5.08,5.08,0,0,1,2.3-4,1.62,1.62,0,0,1,1.63-.16Z"/></g><path d="M108.38 32.76a1.61 1.61 0 0 1 .67 1.48 5.1 5.1 0 0 1-2.3 4 1.62 1.62 0 0 1-1.63.16 1.63 1.63 0 0 1-.67-1.49 5.07 5.07 0 0 1 2.3-4 1.59 1.59 0 0 1 1.63-.15z" class="C"/><path d="M96.55,32.11a2,2,0,0,1-1.18-.38L62.42,7.85a2,2,0,1,1,2.34-3.24l33,23.88a2,2,0,0,1-1.17,3.62Z" class="F"/><path d="M77.55 30.66c-.13 2.55-1.94 5-5.4 6.76-6.59 3.38-16.8 3-23.38-.69l-1-.56a13.6 13.6 0 0 1-2.47-2 8.31 8.31 0 0 1-1.54-2.2 6.13 6.13 0 0 1-.66-3.06c.13-2.54 5.17-14.06 8.63-15.82 6.91-3.53 11.59-3.51 18.11.71a5.94 5.94 0 0 1 1.4 1.4c3.07 3.88 6.43 13.27 6.31 15.46z" class="C"/><path d="M77.55 30.66c-.13 2.55-1.94 5-5.4 6.76-6.59 3.38-16.8 3-23.38-.69l-3.42-2.59a8.31 8.31 0 0 1-1.54-2.2c6 3 13 5.14 18.95 3.14 7.83-2.64 8.81-13 8.53-19.91 3.02 3.91 6.38 13.3 6.26 15.49zM66.17 3.14l-.68 13a2.44 2.44 0 0 1-1.56 1.95 7.64 7.64 0 0 1-4.72.52 6.46 6.46 0 0 1-2.31-.88 2.43 2.43 0 0 1-1.35-2.1l.67-13a2.47 2.47 0 0 0 1.35 2.11 7.77 7.77 0 0 0 7 .37 2.49 2.49 0 0 0 1.6-1.97z" class="F"/><path d="M66.17 3.14l-.68 13a2.44 2.44 0 0 1-1.56 1.95 7.64 7.64 0 0 1-4.72.52c.25-.11 5-2.19 5.27-6.68l.13-6.85a2.49 2.49 0 0 0 1.56-1.94z" fill="#5195fb"/><path d="M56.22 2.62A2.48 2.48 0 0 1 57.78.67a7.81 7.81 0 0 1 7 .36 2.49 2.49 0 0 1 1.35 2.11 2.47 2.47 0 0 1-1.56 2 7.78 7.78 0 0 1-7-.37 2.47 2.47 0 0 1-1.35-2.15z" class="B"/><path d="M57.77 2.71a1.71 1.71 0 0 1 1.08-1.35 5.35 5.35 0 0 1 4.83.25 1.7 1.7 0 0 1 .93 1.45 1.68 1.68 0 0 1-1.07 1.35 5.37 5.37 0 0 1-4.84-.25 1.72 1.72 0 0 1-.93-1.45z" class="D"/><g class="G"><path d="M4.79 66.94L35 49.39a6.18 6.18 0 0 0 2.8 4.84L7.58 71.78a6.13 6.13 0 0 1-2.79-4.84z"/><path d="M4.79 63.68l30.2-17.55v3.26L4.79 66.94v-3.26z"/><path d="M5.61 61.89l30.2-17.56a2 2 0 0 0-.82 1.8L4.79 63.68a2 2 0 0 1 .82-1.79zm29.94-18.98L5.35 60.46a1.86 1.86 0 0 0-.46.19L35.1 43.1a1.49 1.49 0 0 1 .45-.19zM7.58 71.78l30.21-17.55 20.92 12.08L28.5 83.86 7.58 71.78z"/></g><path d="M7.61 62.08l30.2-17.55 19.74 11.4-30.2 17.55-19.74-11.4z" fill="#f0e6de"/><path d="M28.77 73.24l28.69-16.72v9.7L28.77 82.94v-9.7z" fill="#dee6e4"/><g class="G"><path d="M7.62 60.91l30.2-17.55 20.92 12.08-30.2 17.55L7.62 60.91z"/><path d="M35.55 42.91a3 3 0 0 1 2.27.45L7.62 60.91a3.08 3.08 0 0 0-2.27-.45l29.32-17c.27-.19.6-.46.88-.55z"/></g><path d="M59.06 67.51l-30.2 17.55a.34.34 0 0 0 .15-.32 1.13 1.13 0 0 0-.5-.88l30.2-17.55a1.1 1.1 0 0 1 .5.88.33.33 0 0 1-.15.32z" class="I"/><path d="M28.77,73.24v9.7L9,71.54A6.13,6.13,0,0,1,6.22,66.7V63.45c0-1.79,1.27-2.5,2.82-1.61Z" fill="#fcf9f9"/><path d="M59.09 56.64L28.89 74.2a.37.37 0 0 0 .15-.33 1.15 1.15 0 0 0-.5-.88l30.2-17.55a1.12 1.12 0 0 1 .5.88.33.33 0 0 1-.15.32z" class="I"/><g fill="#3e85f4"><path d="M6.28 54.41l28.16-16.35a5.86 5.86 0 0 0 2.64 4.58L8.93 59a5.81 5.81 0 0 1-2.65-4.59z"/><path d="M6.28 53.9l28.16-16.35v.51L6.28 54.41v-.51z"/><path d="M7.06 52.2l28.16-16.35a1.85 1.85 0 0 0-.78 1.7L6.28 53.9a1.88 1.88 0 0 1 .78-1.7z"/></g><path d="M34.54 34.69a1.63 1.63 0 0 1 .43-.18L6.82 50.86a1.57 1.57 0 0 0-.44.18l28.16-16.35z" class="E"/><path d="M35,34.51,6.82,50.86Z" class="D"/><path d="M8.93 58.98l28.15-16.34 19.75 11.4-28.16 16.35L8.93 58.98z" fill="#3e85f4"/><path d="M8.94 52.39L37.1 36.04 55.73 46.8 27.58 63.14 8.94 52.39z" fill="#f5efeb"/><path d="M28.75 63.14l26.86-15.5v6.6l-26.86 15.5v-6.6z" fill="#dee6e4"/><path d="M8.95 51.29L37.1 34.94l19.75 11.4-28.16 16.35-19.74-11.4z" class="E"/><path d="M44.83 49.54l-15.17-8.76 2.92-1.69 15.17 8.76-2.92 1.69zm-9.84.62l-6.91-3.99 1.33-.77 6.91 3.99-1.33.77z" class="B"/><path d="M35,34.51a2.87,2.87,0,0,1,2.14.43L9,51.29a2.85,2.85,0,0,0-2.13-.43L33.54,35.34A13.62,13.62,0,0,1,35,34.51Z" fill="#478efb"/><path d="M57.17 55.17L29 71.52a.35.35 0 0 0 .14-.31 1.05 1.05 0 0 0-.48-.83L56.83 54a1.06 1.06 0 0 1 .48.82.35.35 0 0 1-.14.35z" class="D"/><path d="M28.75,63.14v6.6L10.11,59a5.81,5.81,0,0,1-2.65-4.57V53.9c0-1.68,1.2-2.36,2.66-1.51Z" fill="#fcf9f9"/><g class="D"><path d="M28.69,62.69a1,1,0,0,1,.48.82c0,.31-.22.43-.48.28L8.94,52.39c-1.46-.85-2.65-.17-2.66,1.51v.51A5.81,5.81,0,0,0,8.93,59l19.74,11.4a1.05,1.05,0,0,1,.48.83c0,.3-.22.42-.48.27L8.92,60.08a7.92,7.92,0,0,1-3.59-6.23v-.5C5.33,51.06,7,50.14,9,51.29Z"/><path d="M57.19 47.47L29 63.82a.32.32 0 0 0 .14-.31 1 1 0 0 0-.48-.82l28.19-16.35a1.05 1.05 0 0 1 .48.83.31.31 0 0 1-.14.3z"/></g><path d="M28.53,73a1.13,1.13,0,0,1,.51.88c0,.32-.23.45-.51.29L7.58,62.1c-1.56-.9-2.83-.18-2.83,1.6V67a6.17,6.17,0,0,0,2.8,4.85l21,12.1a1.11,1.11,0,0,1,.51.88c0,.32-.23.45-.51.29L7.55,73a8.38,8.38,0,0,1-3.81-6.61V63.11c0-2.43,1.73-3.4,3.84-2.18Z" fill="#fbc22c"/><path d="M10.63,66A3.3,3.3,0,0,0,9,68a16.94,16.94,0,0,0-.18,2.13l1.86,1.07s-.11-2.56.37-3.2a4.55,4.55,0,0,1,1.49-1.1Z" fill="#fc5552"/><path d="M47.61,69a3.33,3.33,0,0,1,1.69,2,17.91,17.91,0,0,1,.17,2.13L47.61,74.2s.11-2.56-.37-3.2a4.55,4.55,0,0,0-1.49-1.1Z" class="E"/><path d="M20.75,60.65a3.3,3.3,0,0,0-1.68,2.05,16.94,16.94,0,0,0-.18,2.13l1.86,1.07s-.11-2.56.37-3.2a4.72,4.72,0,0,1,1.49-1.1Z" class="G"/><path d="M67.13 58.52l4.8 2.77v9.06l-6.69-3.86 1.89-7.97z" fill="#202a5f"/><g class="J"><path d="M79.87 58.52l-4.8 2.77v9.06l6.69-3.86-1.89-7.97z"/><path d="M71.93,61.29h3.14v9.06H71.93Z"/></g><path d="M79.87 58.52l-4.8 2.77h-3.14l-4.8-2.77 4.79-2.77h3.15l4.8 2.77z" class="D"/><path d="M71.22,56a1.11,1.11,0,0,0,.67.93,3.52,3.52,0,0,0,3.22,0,1.12,1.12,0,0,0,.66-.93v2.15a1.14,1.14,0,0,1-.66.93,3.58,3.58,0,0,1-3.22,0,1.14,1.14,0,0,1-.67-.93Z" class="J"/><path d="M71.22 56a1.14 1.14 0 0 1 .67-.93 3.58 3.58 0 0 1 3.22 0 1.14 1.14 0 0 1 .66.93 1.12 1.12 0 0 1-.66.93 3.52 3.52 0 0 1-3.22 0 1.11 1.11 0 0 1-.67-.93z" fill="#202a5f"/><path d="M72,56a.74.74,0,0,1,.43-.61,2.37,2.37,0,0,1,2.11,0,.64.64,0,0,1,0,1.22,2.31,2.31,0,0,1-2.11,0A.74.74,0,0,1,72,56Z" class="J"/><path d="M88.22,37l-3.68-.37,2.64,1a25.36,25.36,0,0,0-4.9,4.3c-.75.84-2.41,4.84-3.56,7.57-.8.66-2,1.47-2.23,1.64l1.89-.95a6.85,6.85,0,0,1-1.29,2.27c-.5.41-3,3.1-3,3.1a17.33,17.33,0,0,1-.84-4.19,4.31,4.31,0,0,1,.42-1.66,66.74,66.74,0,0,1,3.08-6.91l.17,2.89.19-3.58c1.78-3.35,4.09-6.84,6.52-8.24,5.25-3,7.07-.82,7.07-.82A14.35,14.35,0,0,1,88.22,37Z" class="H"/><path d="M73.55,56.85c.51-2.2,1.46-5.23,2.21-7.35a52.82,52.82,0,0,1,2.62-6.2A29.54,29.54,0,0,1,82,37.64a13.8,13.8,0,0,1,5.22-4,13.86,13.86,0,0,0-5.13,4.08,29.21,29.21,0,0,0-3.46,5.69,51.24,51.24,0,0,0-2.49,6.21,69.84,69.84,0,0,0-2,7.05Z" fill="#c9defe"/><path d="M107.06 88.3l-21.51 22.27-51.4-16.73 21.51-22.26 51.4 16.72z" fill="#fceab2"/><g class="B"><use href="#B"/><use href="#C"/><path d="M63.01 73.94l-.11-.03-21.51 22.26.12.04 21.5-22.27zm1.77.57l-.11-.03-21.51 22.27.12.03 21.5-22.27z"/><use href="#D"/><path d="M68.33 75.66l-.11-.04-21.51 22.27.12.03 21.5-22.26z"/><use href="#C" x="8.87" y="2.86"/><use href="#B" x="12.42" y="4"/><use href="#C" x="12.42" y="4"/><use href="#E"/><use href="#B" x="17.74" y="5.71"/><use href="#C" x="17.74" y="5.71"/><path d="M80.75 79.65l-.11-.04-21.51 22.28.12.03 21.5-22.27z"/><use href="#D" x="15.97" y="5.14"/><path d="M84.3 80.8l-.11-.04-21.51 22.27.12.03L84.3 80.8zm1.78.57l-.12-.04-21.51 22.27.12.04 21.51-22.27z"/><use href="#C" x="26.61" y="8.57"/></g><path d="M88.54 107.51L36.96 90.93l-.06.07 51.58 16.58.06-.07z" fill="#fc9f9c"/><g class="B"><path d="M89.62 82.51l-.11-.04L68 104.74l.12.04 21.5-22.27zm1.78.57l-.12-.04-21.5 22.27.11.04L91.4 83.08z"/><use href="#B" x="33.71" y="10.85"/><use href="#C" x="33.71" y="10.85"/><path d="M96.72 84.79l-.12-.04-21.5 22.28.12.03 21.5-22.27zm1.78.57l-.12-.03-21.51 22.27.12.03L98.5 85.36z"/><use href="#D" x="33.71" y="10.85"/><path d="M102.04 86.5l-.11-.03-21.51 22.27.12.04 21.5-22.28z"/><use href="#C" x="42.58" y="13.71"/><use href="#E" x="30.16" y="9.71"/></g><g fill="#c9defe"><path d="M93.49 77.81a.84.84 0 0 1 0 .27.69.69 0 0 1-.29.38.41.41 0 0 0 .12-.32v-.11a1.18 1.18 0 0 0-.52-.78.37.37 0 0 0-.33 0 .69.69 0 0 1 .39-.08.72.72 0 0 1 .42.16.75.75 0 0 1 .21.48z"/><path d="M93.28 78.14a.41.41 0 0 1-.12.32l-2.11 1.23a.37.37 0 0 0 .15-.34 1 1 0 0 0 0-.23 1.15 1.15 0 0 0-.49-.66.37.37 0 0 0-.36 0l2.07-1.21a.39.39 0 0 1 .36 0 1.18 1.18 0 0 1 .52.78s-.02.08-.02.11z"/></g><path d="M91.43 79.47a.57.57 0 0 1-.17.46l-1.75 1.44-.65.5-2 1.29-4.37 2.66-5.08 3a.66.66 0 0 0 .23-.24.89.89 0 0 0 .08-.17 1.73 1.73 0 0 0 .05-.42 1 1 0 0 0 0-.17 2.8 2.8 0 0 0-1.27-2 .87.87 0 0 0-.87-.07l9.6-5.42 2.1-1.07.94-.4 1.93-.73a.53.53 0 0 1 .46.07 1.58 1.58 0 0 1 .66.8 1.65 1.65 0 0 1 .11.47z" class="E"/><path d="M77.79 88a1.73 1.73 0 0 1-.05.42.89.89 0 0 1-.08.17.66.66 0 0 1-.23.24l-.92.54a.94.94 0 0 0 .36-.83v-.16a2.78 2.78 0 0 0-1.28-2h-.07l-.14-.06h-.14a.63.63 0 0 0-.27 0h-.1a.59.59 0 0 0-.14.06l.92-.53a.87.87 0 0 1 .87.07 2.8 2.8 0 0 1 1.27 2 1 1 0 0 1 0 .08z" fill="#feb30f"/><path d="M76.87 88.53a.94.94 0 0 1-.36.83l-4.39 2.49-2 1-1.35.62a10.45 10.45 0 0 1-1.92.48c-.15 0-.53.11-1.08.2h-.28a.39.39 0 0 0 .09-.08.14.14 0 0 0 0-.07v-.06a.67.67 0 0 0-.32-.54.24.24 0 0 0-.17 0H65l1.62-1.89a5.93 5.93 0 0 1 1-.9 82.19 82.19 0 0 1 7-4.39.59.59 0 0 1 .14-.06h.07a1 1 0 0 1 .3 0h.14l.14.06h.07a2.78 2.78 0 0 1 1.28 2s.11.26.11.31z" class="E"/><path d="M65.62 94a.56.56 0 0 1 0 .07.14.14 0 0 1 0 .07h0l-.76.45a.4.4 0 0 1-.43 0h-.06a.44.44 0 0 1-.17-.33.43.43 0 0 1 .22-.39l.75-.43a.22.22 0 0 1 .19 0 .67.67 0 0 1 .26.56z" class="F"/><path d="M93.49 77.81a.84.84 0 0 1 0 .27.69.69 0 0 1-.29.38l-1.73 1a.57.57 0 0 1-.17.46l-1.75 1.44-.65.5-2 1.29-4.37 2.66-6 3.54-4.39 2.49-2 1-1.35.62a10.45 10.45 0 0 1-1.92.48c-.15 0-.53.11-1.08.2h-.28l-.7.41a.4.4 0 0 1-.43 0s.22 0 .73-.29l.52-.34A30.59 30.59 0 0 0 69 92.49L76.75 88l.94-.49 8.3-4.58c.89-.55 4.35-3.2 5.14-3.81l.16-.12a12.26 12.26 0 0 0 1.94-1 .91.91 0 0 0 .26-.19z" style="mix-blend-mode:multiply" class="H"/><g class="C"><path d="M81.99 85.1l.4.06v1.04l-.4-.07V85.1z"/><path d="M82.39,85.16A3.26,3.26,0,0,1,84,83.76l6.13-2.84v1L84,84.79a3.28,3.28,0,0,0-1.62,1.41Z"/></g><path d="M90.14 80.92l1.27-1.59v1.04l-1.27 1.59v-1.04z" class="B"/><path d="M82,85.1a3.51,3.51,0,0,1,1.76-1.53l6.06-2.8.79-1,.81-.45-1.27,1.59L84,83.76a3.26,3.26,0,0,0-1.62,1.4Z" class="H"/><path d="M4.26 89.47l-1.91 5.9.96.66 1.53-5.09-.58-1.47z" fill="#fbc22c"/><path d="M5.11 89.97l-1.82 6.1 6.09-2.84-3.61-1.59-.66-1.67z" fill="#feb30f"/><path d="M.91 81.12l19.25-11.17 7.23 22.98L8.14 104.1.91 81.12z" class="G"/><path d="M8.84 102.29L2.35 81.68l17.11-9.92 6.48 20.61-17.1 9.92z" fill="#5d9efb"/><path d="M8.84,102.29l-1.23-3.9c2-2.64,5-5.91,7.81-7.31a35.06,35.06,0,0,1,9.29-2.63l1.23,3.92Z" class="K"/><path d="M11 100c-.19-.07-2.83-1.38-2.83-1.38a7.77 7.77 0 0 1 .47-4.94 22.2 22.2 0 0 0 1.49-4.43l5.74-3.84c.07-.02 3.07.2 3.07.2a6.36 6.36 0 0 1 1.38.3 3.16 3.16 0 0 1 2.14 1.89c.66 2-3 7.81-3 7.81l-2.79-.67a12.85 12.85 0 0 0-2.18-.37l-1.27 1.84L11 100z" fill="#e1edff"/><path d="M7.61 92.68c-1.19-.4-1-2.21-.67-2.84a19.33 19.33 0 0 0 .91-5.63c.19-2.94 2-3.69 2-3.69s.13-1.36 3.43-2.18a1.85 1.85 0 0 1 .94.12 21.73 21.73 0 0 1 3.65 2.05c.27.17.13.33.36.41a8.38 8.38 0 0 0 2.31-.08 1.94 1.94 0 0 1 .79.07c1.94.66 0 5.2-.68 6s-3.68-.17-3.89-.24A24.33 24.33 0 0 1 15.8 90c-.69 2.05-1.9 4.4-2.86 4.09s-1.71-1.93-1.71-1.93-2.43.93-3.62.52z" class="K"/><path d="M12,92.27a1.55,1.55,0,0,1-.69-.53,14.94,14.94,0,0,1-2.82-7c-.08-1.88.47-2.38.47-2.38.87-1.94,2.2-2.23,3.48-1.79a7.31,7.31,0,0,1,3.8,3.56c1,3.12-1,5.2-1.65,6.24S13,92.61,12,92.27Z" fill="#fbc2c2"/><path d="M16.54 86.62c-1-.34-2-2.79-2.87-4A5.59 5.59 0 0 0 11 81.09l-.46-.16c-.33-.11-.54-.19-.54-.25 0-.22.66-.64.79-.69a6.19 6.19 0 0 1 2.5-.66 1 1 0 0 1 .27.06 20.27 20.27 0 0 1 2.93 1.82c.17.06 2.33 4.27 2.11 4.61a1.93 1.93 0 0 1-2.05.8zm-6.13 4.28a1.29 1.29 0 0 1-.42-.27c0 .06.06.09.1.1.19.07.47-.53.65-1.13a1.39 1.39 0 0 1 .82-.92s.39-.28.8-.51a1 1 0 0 1 .92-.1h.06c.34.12 1.35.34 1.35.34a4.53 4.53 0 0 1-1.31 1.08.93.93 0 0 1-.79.16 1 1 0 0 1-.52-.59 4.67 4.67 0 0 1-.84 1.53.71.71 0 0 1-.82.31z" class="K"/><path d="M0 80.74l.91.38 7.23 22.98-.75-.51L0 80.74z" class="I"/><path d="M20.16 69.95L.88 81.24l-.88-.5 19.28-11.29.88.5z" fill="#fceab2"/><path d="M91.83,66.3a.82.82,0,0,0,.49.68,2.54,2.54,0,0,0,2.34,0,.81.81,0,0,0,.48-.67v.76a.83.83,0,0,1-.48.67,2.61,2.61,0,0,1-2.34,0,.83.83,0,0,1-.49-.68Z" class="C"/><path d="M91.83 66.3a.84.84 0 0 1 .49-.67 2.61 2.61 0 0 1 2.34 0 .84.84 0 0 1 .48.68.81.81 0 0 1-.48.67 2.54 2.54 0 0 1-2.34 0 .82.82 0 0 1-.49-.68z" class="H"/><defs ><path id="B" d="M59.46 72.8l-.11-.04-21.51 22.27.12.04 21.5-22.27z"/><path id="C" d="M61.24 73.37l-.12-.04-21.5 22.27.11.04 21.51-22.27z"/><path id="D" d="M66.56 75.08l-.12-.03-21.5 22.27.11.03 21.51-22.27z"/><path id="E" d="M75.43 77.94l-.12-.04-21.5 22.27.12.04 21.5-22.27z"/></defs></svg>