<svg xmlns="http://www.w3.org/2000/svg" viewBox="0 0 116.2 110.57">
    <defs/>
    <g style="isolation:isolate">
        <g id="Layer_2" data-name="Layer 2">
            <g id="Layer_1-2" data-name="Layer 1">
                <g id="Axo_Extrusion" data-name="Axo Extrusion">
                    <path id="Axo_panel" data-name="Axo panel" d="M87,64.25c0,2.15,1.42,4.31,4.27,6,5.7,3.29,14.93,3.29,20.62,0,2.85-1.64,4.27-3.8,4.27-6v4.67c0,2.15-1.42,4.3-4.27,6-5.69,3.28-14.92,3.28-20.62,0-2.85-1.65-4.27-3.8-4.27-6Z" style="fill:#81b2fc"/>
                    <path id="Axo_base" data-name="Axo base" d="M87,64.25c0-2.16,1.43-4.31,4.27-6,5.7-3.28,14.93-3.28,20.62,0,2.85,1.65,4.27,3.8,4.27,6s-1.42,4.31-4.27,6c-5.69,3.29-14.92,3.29-20.62,0C88.46,68.56,87,66.4,87,64.25Z" style="fill:#99c1fd"/>
                    <g id="Axo_Extrusion-2" data-name="Axo Extrusion">
                        <path id="Axo_panel-2" data-name="Axo panel" d="M99.44,32.86a1.08,1.08,0,0,0,.64.89,3.41,3.41,0,0,0,3.08,0,1.06,1.06,0,0,0,.64-.89V64.25a1.08,1.08,0,0,1-.64.89,3.41,3.41,0,0,1-3.08,0,1.11,1.11,0,0,1-.64-.89Z" style="fill:#69a4fc"/>
                        <path id="Axo_base-2" data-name="Axo base" d="M99.44,32.86a1.11,1.11,0,0,1,.64-.89,3.41,3.41,0,0,1,3.08,0,1.08,1.08,0,0,1,.64.89,1.06,1.06,0,0,1-.64.89,3.41,3.41,0,0,1-3.08,0A1.08,1.08,0,0,1,99.44,32.86Z" style="fill:#99c1fd"/>
                    </g>
                </g>
                <g id="Axo_Extrusion-3" data-name="Axo Extrusion">
                    <path id="Axo_panel-3" data-name="Axo panel" d="M108.38,32.76a1.59,1.59,0,0,0-1.63.16,5.07,5.07,0,0,0-2.3,4,1.63,1.63,0,0,0,.67,1.49l-12-6.94A1.61,1.61,0,0,1,92.43,30a5.08,5.08,0,0,1,2.3-4,1.62,1.62,0,0,1,1.63-.16Z" style="fill:#99c1fd"/>
                    <path id="Axo_base-3" data-name="Axo base" d="M108.38,32.76a1.61,1.61,0,0,1,.67,1.48,5.1,5.1,0,0,1-2.3,4,1.62,1.62,0,0,1-1.63.16,1.63,1.63,0,0,1-.67-1.49,5.07,5.07,0,0,1,2.3-4A1.59,1.59,0,0,1,108.38,32.76Z" style="fill:#81b2fc"/>
                </g>
                <path d="M96.55,32.11a2,2,0,0,1-1.18-.38L62.42,7.85a2,2,0,1,1,2.34-3.24l33,23.88a2,2,0,0,1-1.17,3.62Z" style="fill:#69a4fc"/>
                <g id="Axo_Projection" data-name="Axo Projection">
                    <path d="M77.55,30.66c-.13,2.55-1.94,5-5.4,6.76-6.59,3.38-16.8,3-23.38-.69-.33-.18-.64-.37-1-.56a13.6,13.6,0,0,1-2.47-2,8.31,8.31,0,0,1-1.54-2.2,6.13,6.13,0,0,1-.66-3.06c.13-2.54,5.17-14.06,8.63-15.82,6.91-3.53,11.59-3.51,18.11.71a5.94,5.94,0,0,1,1.4,1.4C74.31,19.08,77.67,28.47,77.55,30.66Z" style="fill:#81b2fc"/>
                    <path d="M77.55,30.66c-.13,2.55-1.94,5-5.4,6.76-6.59,3.38-16.8,3-23.38-.69l-3.42-2.59a8.31,8.31,0,0,1-1.54-2.2c6,3,13,5.14,18.95,3.14,7.83-2.64,8.81-13,8.53-19.91C74.31,19.08,77.67,28.47,77.55,30.66Z" style="fill:#69a4fc"/>
                </g>
                <g id="Axo_Extrusion-4" data-name="Axo Extrusion">
                    <g id="Axo_Surface_" data-name="Axo Surface*">
                        <path d="M66.17,3.14l-.68,13a2.44,2.44,0,0,1-1.56,1.95,7.64,7.64,0,0,1-4.72.52,6.46,6.46,0,0,1-2.31-.88,2.43,2.43,0,0,1-1.35-2.1l.67-13a2.47,2.47,0,0,0,1.35,2.11,7.77,7.77,0,0,0,7,.37A2.49,2.49,0,0,0,66.17,3.14Z" style="fill:#69a4fc"/>
                        <path d="M66.17,3.14l-.68,13a2.44,2.44,0,0,1-1.56,1.95,7.64,7.64,0,0,1-4.72.52c.25-.11,5-2.19,5.27-6.68.13-1.92.15-4.5.13-6.85A2.49,2.49,0,0,0,66.17,3.14Z" style="fill:#5195fb"/>
                    </g>
                    <path id="Axo_base-4" data-name="Axo base" d="M56.22,2.62A2.48,2.48,0,0,1,57.78.67a7.81,7.81,0,0,1,7,.36,2.49,2.49,0,0,1,1.35,2.11,2.47,2.47,0,0,1-1.56,2,7.78,7.78,0,0,1-7-.37A2.47,2.47,0,0,1,56.22,2.62Z" style="fill:#99c1fd"/>
                    <path id="Axo_base-5" data-name="Axo base" d="M57.77,2.71a1.71,1.71,0,0,1,1.08-1.35,5.35,5.35,0,0,1,4.83.25,1.7,1.7,0,0,1,.93,1.45,1.68,1.68,0,0,1-1.07,1.35,5.37,5.37,0,0,1-4.84-.25A1.72,1.72,0,0,1,57.77,2.71Z" style="fill:#0b45b2"/>
                </g>
                <g style="isolation:isolate">
                    <path d="M4.79,66.94,35,49.39a6.18,6.18,0,0,0,2.8,4.84L7.58,71.78A6.13,6.13,0,0,1,4.79,66.94Z" style="fill:#fcdc79"/>
                    <polygon points="4.79 63.68 34.99 46.13 34.99 49.39 4.79 66.94 4.79 63.68" style="fill:#fcdc79"/>
                    <path d="M5.61,61.89l30.2-17.56a2,2,0,0,0-.82,1.8L4.79,63.68A2,2,0,0,1,5.61,61.89Z" style="fill:#fcdc79"/>
                    <path d="M35.55,42.91,5.35,60.46a1.86,1.86,0,0,0-.46.19L35.1,43.1A1.49,1.49,0,0,1,35.55,42.91Z" style="fill:#fcdc79"/>
                    <polygon points="7.58 71.78 37.79 54.23 58.71 66.31 28.5 83.86 7.58 71.78" style="fill:#fcdc79"/>
                    <polygon points="7.61 62.08 37.81 44.53 57.55 55.93 27.35 73.48 7.61 62.08" style="fill:#f0e6de"/>
                    <polygon points="28.77 73.24 57.46 56.52 57.46 66.22 28.77 82.94 28.77 73.24" style="fill:#dee6e4"/>
                    <polygon points="7.62 60.91 37.82 43.36 58.74 55.44 28.54 72.99 7.62 60.91" style="fill:#fcdc79"/>
                    <path d="M35.55,42.91a3,3,0,0,1,2.27.45L7.62,60.91a3.08,3.08,0,0,0-2.27-.45l29.32-17C34.94,43.27,35.27,43,35.55,42.91Z" style="fill:#fcdc79"/>
                    <path d="M59.06,67.51,28.86,85.06a.34.34,0,0,0,.15-.32,1.13,1.13,0,0,0-.5-.88l30.2-17.55a1.1,1.1,0,0,1,.5.88A.33.33,0,0,1,59.06,67.51Z" style="fill:#fbc429"/>
                    <path d="M28.77,73.24v9.7L9,71.54A6.13,6.13,0,0,1,6.22,66.7V63.45c0-1.79,1.27-2.5,2.82-1.61Z" style="fill:#fcf9f9"/>
                    <path d="M59.09,56.64,28.89,74.2a.37.37,0,0,0,.15-.33,1.15,1.15,0,0,0-.5-.88l30.2-17.55a1.12,1.12,0,0,1,.5.88A.33.33,0,0,1,59.09,56.64Z" style="fill:#fbc429"/>
                </g>
                <g style="isolation:isolate">
                    <path d="M6.28,54.41,34.44,38.06a5.86,5.86,0,0,0,2.64,4.58L8.93,59A5.81,5.81,0,0,1,6.28,54.41Z" style="fill:#3e85f4"/>
                    <polygon points="6.28 53.9 34.44 37.55 34.44 38.06 6.28 54.41 6.28 53.9" style="fill:#3e85f4"/>
                    <path d="M7.06,52.2,35.22,35.85a1.85,1.85,0,0,0-.78,1.7L6.28,53.9A1.88,1.88,0,0,1,7.06,52.2Z" style="fill:#3e85f4"/>
                    <path d="M34.54,34.69a1.63,1.63,0,0,1,.43-.18L6.82,50.86a1.57,1.57,0,0,0-.44.18C13.51,46.9,27.41,38.84,34.54,34.69Z" style="fill:#1c6df6"/>
                    <path d="M35,34.51,6.82,50.86Z" style="fill:#0b45b2"/>
                    <polygon points="8.93 58.98 37.08 42.64 56.83 54.04 28.67 70.39 8.93 58.98" style="fill:#3e85f4"/>
                    <polygon points="8.94 52.39 37.1 36.04 55.73 46.8 27.58 63.14 8.94 52.39" style="fill:#f5efeb"/>
                    <polygon points="28.75 63.14 55.61 47.64 55.61 54.24 28.75 69.74 28.75 63.14" style="fill:#dee6e4"/>
                    <polygon points="8.95 51.29 37.1 34.94 56.85 46.34 28.69 62.69 8.95 51.29" style="fill:#1c6df6"/>
                    <polygon points="44.83 49.54 29.66 40.78 32.58 39.09 47.75 47.85 44.83 49.54" style="fill:#99c1fd"/>
                    <polygon points="34.99 50.16 28.08 46.17 29.41 45.4 36.32 49.39 34.99 50.16" style="fill:#99c1fd"/>
                    <path d="M35,34.51a2.87,2.87,0,0,1,2.14.43L9,51.29a2.85,2.85,0,0,0-2.13-.43L33.54,35.34A13.62,13.62,0,0,1,35,34.51Z" style="fill:#478efb"/>
                    <path d="M57.17,55.17,29,71.52a.35.35,0,0,0,.14-.31,1.05,1.05,0,0,0-.48-.83L56.83,54a1.06,1.06,0,0,1,.48.82A.35.35,0,0,1,57.17,55.17Z" style="fill:#0b45b2"/>
                    <path d="M28.75,63.14v6.6L10.11,59a5.81,5.81,0,0,1-2.65-4.57V53.9c0-1.68,1.2-2.36,2.66-1.51Z" style="fill:#fcf9f9"/>
                    <path d="M28.69,62.69a1,1,0,0,1,.48.82c0,.31-.22.43-.48.28L8.94,52.39c-1.46-.85-2.65-.17-2.66,1.51v.51A5.81,5.81,0,0,0,8.93,59l19.74,11.4a1.05,1.05,0,0,1,.48.83c0,.3-.22.42-.48.27L8.92,60.08a7.92,7.92,0,0,1-3.59-6.23v-.5C5.33,51.06,7,50.14,9,51.29Z" style="fill:#0b45b2"/>
                    <path d="M57.19,47.47,29,63.82a.32.32,0,0,0,.14-.31,1,1,0,0,0-.48-.82L56.85,46.34a1.05,1.05,0,0,1,.48.83A.31.31,0,0,1,57.19,47.47Z" style="fill:#0b45b2"/>
                </g>
                <path d="M28.53,73a1.13,1.13,0,0,1,.51.88c0,.32-.23.45-.51.29L7.58,62.1c-1.56-.9-2.83-.18-2.83,1.6V67a6.17,6.17,0,0,0,2.8,4.85l21,12.1a1.11,1.11,0,0,1,.51.88c0,.32-.23.45-.51.29L7.55,73a8.38,8.38,0,0,1-3.81-6.61V63.11c0-2.43,1.73-3.4,3.84-2.18Z" style="fill:#fbc22c"/>
                <path d="M10.63,66A3.3,3.3,0,0,0,9,68a16.94,16.94,0,0,0-.18,2.13l1.86,1.07s-.11-2.56.37-3.2a4.55,4.55,0,0,1,1.49-1.1Z" style="fill:#fc5552"/>
                <path d="M47.61,69a3.33,3.33,0,0,1,1.69,2,17.91,17.91,0,0,1,.17,2.13L47.61,74.2s.11-2.56-.37-3.2a4.55,4.55,0,0,0-1.49-1.1Z" style="fill:#1c6df6"/>
                <path d="M20.75,60.65a3.3,3.3,0,0,0-1.68,2.05,16.94,16.94,0,0,0-.18,2.13l1.86,1.07s-.11-2.56.37-3.2a4.72,4.72,0,0,1,1.49-1.1Z" style="fill:#fcdc79"/>
                <g id="Axo_Surface_2" data-name="Axo Surface*">
                    <polygon id="Axo_panel-4" data-name="Axo panel" points="67.13 58.52 71.93 61.29 71.93 70.35 65.24 66.49 67.13 58.52" style="fill:#202a5f"/>
                    <polygon id="Axo_panel-5" data-name="Axo panel" points="79.87 58.52 75.07 61.29 75.07 70.35 81.76 66.49 79.87 58.52" style="fill:#121e51"/>
                    <path id="Axo_panel-6" data-name="Axo panel" d="M71.93,61.29h3.14v9.06H71.93Z" style="fill:#121e51"/>
                </g>
                <polygon points="79.87 58.52 75.07 61.29 71.93 61.29 67.13 58.52 71.92 55.75 75.07 55.75 79.87 58.52" style="fill:#0b45b2"/>
                <g id="Axo_Extrusion-5" data-name="Axo Extrusion">
                    <path id="Axo_panel-7" data-name="Axo panel" d="M71.22,56a1.11,1.11,0,0,0,.67.93,3.52,3.52,0,0,0,3.22,0,1.12,1.12,0,0,0,.66-.93v2.15a1.14,1.14,0,0,1-.66.93,3.58,3.58,0,0,1-3.22,0,1.14,1.14,0,0,1-.67-.93Z" style="fill:#121e51"/>
                    <path id="Axo_base-6" data-name="Axo base" d="M71.22,56a1.14,1.14,0,0,1,.67-.93,3.58,3.58,0,0,1,3.22,0,1.14,1.14,0,0,1,.66.93,1.12,1.12,0,0,1-.66.93,3.52,3.52,0,0,1-3.22,0A1.11,1.11,0,0,1,71.22,56Z" style="fill:#202a5f"/>
                    <path id="Axo_base-7" data-name="Axo base" d="M72,56a.74.74,0,0,1,.43-.61,2.37,2.37,0,0,1,2.11,0,.64.64,0,0,1,0,1.22,2.31,2.31,0,0,1-2.11,0A.74.74,0,0,1,72,56Z" style="fill:#121e51"/>
                </g>
                <path d="M88.22,37l-3.68-.37,2.64,1a25.36,25.36,0,0,0-4.9,4.3c-.75.84-2.41,4.84-3.56,7.57-.8.66-2,1.47-2.23,1.64l1.89-.95a6.85,6.85,0,0,1-1.29,2.27c-.5.41-3,3.1-3,3.1a17.33,17.33,0,0,1-.84-4.19,4.31,4.31,0,0,1,.42-1.66,66.74,66.74,0,0,1,3.08-6.91l.17,2.89.19-3.58c1.78-3.35,4.09-6.84,6.52-8.24,5.25-3,7.07-.82,7.07-.82A14.35,14.35,0,0,1,88.22,37Z" style="fill:#b1d0fe"/>
                <path d="M73.55,56.85c.51-2.2,1.46-5.23,2.21-7.35a52.82,52.82,0,0,1,2.62-6.2A29.54,29.54,0,0,1,82,37.64a13.8,13.8,0,0,1,5.22-4,13.86,13.86,0,0,0-5.13,4.08,29.21,29.21,0,0,0-3.46,5.69,51.24,51.24,0,0,0-2.49,6.21,69.84,69.84,0,0,0-2,7.05Z" style="fill:#c9defe"/>
                <polygon id="Axo_base-8" data-name="Axo base" points="107.06 88.3 85.55 110.57 34.15 93.84 55.66 71.58 107.06 88.3" style="fill:#fceab2"/>
                <polygon id="Axo_base-9" data-name="Axo base" points="59.46 72.8 59.35 72.76 37.84 95.03 37.96 95.07 59.46 72.8" style="fill:#99c1fd"/>
                <polygon id="Axo_base-10" data-name="Axo base" points="61.24 73.37 61.12 73.33 39.62 95.6 39.73 95.64 61.24 73.37" style="fill:#99c1fd"/>
                <polygon id="Axo_base-11" data-name="Axo base" points="63.01 73.94 62.9 73.91 41.39 96.17 41.51 96.21 63.01 73.94" style="fill:#99c1fd"/>
                <polygon id="Axo_base-12" data-name="Axo base" points="64.78 74.51 64.67 74.48 43.16 96.75 43.28 96.78 64.78 74.51" style="fill:#99c1fd"/>
                <polygon id="Axo_base-13" data-name="Axo base" points="66.56 75.08 66.44 75.05 44.94 97.32 45.05 97.35 66.56 75.08" style="fill:#99c1fd"/>
                <polygon id="Axo_base-14" data-name="Axo base" points="68.33 75.66 68.22 75.62 46.71 97.89 46.83 97.92 68.33 75.66" style="fill:#99c1fd"/>
                <polygon id="Axo_base-15" data-name="Axo base" points="70.11 76.23 69.99 76.19 48.49 98.46 48.6 98.5 70.11 76.23" style="fill:#99c1fd"/>
                <polygon id="Axo_base-16" data-name="Axo base" points="71.88 76.8 71.77 76.76 50.26 99.03 50.38 99.07 71.88 76.8" style="fill:#99c1fd"/>
                <polygon id="Axo_base-17" data-name="Axo base" points="73.66 77.37 73.54 77.33 52.04 99.6 52.15 99.64 73.66 77.37" style="fill:#99c1fd"/>
                <polygon id="Axo_base-18" data-name="Axo base" points="75.43 77.94 75.31 77.9 53.81 100.17 53.93 100.21 75.43 77.94" style="fill:#99c1fd"/>
                <polygon id="Axo_base-19" data-name="Axo base" points="77.2 78.51 77.09 78.47 55.58 100.74 55.7 100.78 77.2 78.51" style="fill:#99c1fd"/>
                <polygon id="Axo_base-20" data-name="Axo base" points="78.98 79.08 78.86 79.04 57.36 101.31 57.47 101.35 78.98 79.08" style="fill:#99c1fd"/>
                <polygon id="Axo_base-21" data-name="Axo base" points="80.75 79.65 80.64 79.61 59.13 101.89 59.25 101.92 80.75 79.65" style="fill:#99c1fd"/>
                <polygon id="Axo_base-22" data-name="Axo base" points="82.53 80.22 82.41 80.19 60.91 102.46 61.02 102.49 82.53 80.22" style="fill:#99c1fd"/>
                <polygon id="Axo_base-23" data-name="Axo base" points="84.3 80.8 84.19 80.76 62.68 103.03 62.8 103.06 84.3 80.8" style="fill:#99c1fd"/>
                <polygon id="Axo_base-24" data-name="Axo base" points="86.08 81.37 85.96 81.33 64.45 103.6 64.57 103.64 86.08 81.37" style="fill:#99c1fd"/>
                <polygon id="Axo_base-25" data-name="Axo base" points="87.85 81.94 87.73 81.9 66.23 104.17 66.34 104.21 87.85 81.94" style="fill:#99c1fd"/>
                <polygon id="Axo_base-26" data-name="Axo base" points="88.54 107.51 36.96 90.93 36.9 91 88.48 107.58 88.54 107.51" style="fill:#fc9f9c"/>
                <polygon id="Axo_base-27" data-name="Axo base" points="89.62 82.51 89.51 82.47 68 104.74 68.12 104.78 89.62 82.51" style="fill:#99c1fd"/>
                <polygon id="Axo_base-28" data-name="Axo base" points="91.4 83.08 91.28 83.04 69.78 105.31 69.89 105.35 91.4 83.08" style="fill:#99c1fd"/>
                <polygon id="Axo_base-29" data-name="Axo base" points="93.17 83.65 93.06 83.61 71.55 105.88 71.67 105.92 93.17 83.65" style="fill:#99c1fd"/>
                <polygon id="Axo_base-30" data-name="Axo base" points="94.95 84.22 94.83 84.18 73.33 106.45 73.44 106.49 94.95 84.22" style="fill:#99c1fd"/>
                <polygon id="Axo_base-31" data-name="Axo base" points="96.72 84.79 96.6 84.75 75.1 107.03 75.22 107.06 96.72 84.79" style="fill:#99c1fd"/>
                <polygon id="Axo_base-32" data-name="Axo base" points="98.5 85.36 98.38 85.33 76.87 107.6 76.99 107.63 98.5 85.36" style="fill:#99c1fd"/>
                <polygon id="Axo_base-33" data-name="Axo base" points="100.27 85.93 100.15 85.9 78.65 108.17 78.76 108.2 100.27 85.93" style="fill:#99c1fd"/>
                <polygon id="Axo_base-34" data-name="Axo base" points="102.04 86.5 101.93 86.47 80.42 108.74 80.54 108.78 102.04 86.5" style="fill:#99c1fd"/>
                <polygon id="Axo_base-35" data-name="Axo base" points="103.82 87.08 103.7 87.04 82.2 109.31 82.31 109.35 103.82 87.08" style="fill:#99c1fd"/>
                <polygon id="Axo_base-36" data-name="Axo base" points="105.59 87.65 105.47 87.61 83.97 109.88 84.09 109.92 105.59 87.65" style="fill:#99c1fd"/>
                <path d="M93.49,77.81a.84.84,0,0,1,0,.27.69.69,0,0,1-.29.38.41.41,0,0,0,.12-.32s0-.07,0-.11a1.18,1.18,0,0,0-.52-.78.37.37,0,0,0-.33,0,.69.69,0,0,1,.39-.08.72.72,0,0,1,.42.16A.75.75,0,0,1,93.49,77.81Z" style="fill:#c9defe"/>
                <path d="M93.28,78.14a.41.41,0,0,1-.12.32l-2.11,1.23a.37.37,0,0,0,.15-.34,1,1,0,0,0,0-.23,1.15,1.15,0,0,0-.49-.66.37.37,0,0,0-.36,0l2.07-1.21a.39.39,0,0,1,.36,0,1.18,1.18,0,0,1,.52.78S93.28,78.11,93.28,78.14Z" style="fill:#c9defe"/>
                <path d="M91.43,79.47a.57.57,0,0,1-.17.46c-.51.43-1.49,1.23-1.75,1.44l-.65.5c-.5.35-1.17.79-2,1.29s-2,1.23-4.37,2.66l-5.08,3a.66.66,0,0,0,.23-.24.89.89,0,0,0,.08-.17,1.73,1.73,0,0,0,.05-.42,1,1,0,0,0,0-.17,2.8,2.8,0,0,0-1.27-2,.87.87,0,0,0-.87-.07c3.48-2,9.58-5.41,9.6-5.42.57-.3,1.52-.81,2.1-1.07l.94-.4,1.93-.73a.53.53,0,0,1,.46.07,1.58,1.58,0,0,1,.66.8A1.65,1.65,0,0,1,91.43,79.47Z" style="fill:#1c6df6"/>
                <path d="M77.79,88a1.73,1.73,0,0,1-.05.42.89.89,0,0,1-.08.17.66.66,0,0,1-.23.24l-.92.54a.94.94,0,0,0,.36-.83s0-.11,0-.16a2.78,2.78,0,0,0-1.28-2l-.07,0-.14-.06-.14,0a.63.63,0,0,0-.27,0h-.1a.59.59,0,0,0-.14.06l.92-.53a.87.87,0,0,1,.87.07,2.8,2.8,0,0,1,1.27,2A1,1,0,0,1,77.79,88Z" style="fill:#feb30f"/>
                <path d="M76.87,88.53a.94.94,0,0,1-.36.83c-1.38.83-3.15,1.83-4.39,2.49-1.07.57-1.58.82-2,1-.69.34-1.26.59-1.35.62a10.45,10.45,0,0,1-1.92.48c-.15,0-.53.11-1.08.2l-.28,0a.39.39,0,0,0,.09-.08.14.14,0,0,0,0-.07s0,0,0-.06a.67.67,0,0,0-.32-.54.24.24,0,0,0-.17,0l-.09,0c.15-.19,1-1.24,1.62-1.89a5.93,5.93,0,0,1,1-.9,82.19,82.19,0,0,1,7-4.39.59.59,0,0,1,.14-.06h.07a1,1,0,0,1,.3,0l.14,0,.14.06.07,0a2.78,2.78,0,0,1,1.28,2S76.87,88.48,76.87,88.53Z" style="fill:#1c6df6"/>
                <path d="M65.62,94a.56.56,0,0,1,0,.07.14.14,0,0,1,0,.07l0,0s-.76.45-.76.45a.4.4,0,0,1-.43,0l-.06,0a.44.44,0,0,1-.17-.33.43.43,0,0,1,.22-.39l.75-.43a.22.22,0,0,1,.19,0A.67.67,0,0,1,65.62,94Z" style="fill:#69a4fc"/>
                <path d="M93.49,77.81a.84.84,0,0,1,0,.27.69.69,0,0,1-.29.38l-1.73,1a.57.57,0,0,1-.17.46c-.51.43-1.49,1.23-1.75,1.44l-.65.5c-.5.35-1.17.79-2,1.29s-2,1.23-4.37,2.66l-6,3.54c-1.38.82-3.15,1.83-4.39,2.49-1.07.57-1.58.82-2,1-.69.34-1.26.59-1.35.62a10.45,10.45,0,0,1-1.92.48c-.15,0-.53.11-1.08.2l-.28,0-.7.41a.4.4,0,0,1-.43,0s.22,0,.73-.29l.52-.34A30.59,30.59,0,0,0,69,92.49c.51-.3,4.07-2.32,7.75-4.49.31-.18.63-.31.94-.49,3.9-2.31,7.81-4.27,8.3-4.58.89-.55,4.35-3.2,5.14-3.81l.16-.12a12.26,12.26,0,0,0,1.94-1A.91.91,0,0,0,93.49,77.81Z" style="fill:#b1d0fe;mix-blend-mode:multiply"/>
                <g id="Axo_Extrusion-6" data-name="Axo Extrusion">
                    <g id="Axo_Surface_3" data-name="Axo Surface*">
                        <polygon id="Axo_panel-8" data-name="Axo panel" points="81.99 85.1 82.39 85.16 82.39 86.2 81.99 86.13 81.99 85.1" style="fill:#81b2fc"/>
                        <path id="Axo_panel-9" data-name="Axo panel" d="M82.39,85.16A3.26,3.26,0,0,1,84,83.76l6.13-2.84v1L84,84.79a3.28,3.28,0,0,0-1.62,1.41Z" style="fill:#81b2fc"/>
                        <polygon id="Axo_panel-10" data-name="Axo panel" points="90.14 80.92 91.41 79.33 91.41 80.37 90.14 81.96 90.14 80.92" style="fill:#99c1fd"/>
                    </g>
                    <path id="Axo_base-37" data-name="Axo base" d="M82,85.1a3.51,3.51,0,0,1,1.76-1.53l6.06-2.8.79-1,.81-.45-1.27,1.59L84,83.76a3.26,3.26,0,0,0-1.62,1.4Z" style="fill:#b1d0fe"/>
                </g>
                <polygon points="4.26 89.47 2.35 95.37 3.31 96.03 4.84 90.94 4.26 89.47" style="fill:#fbc22c"/>
                <polygon points="5.11 89.97 3.29 96.07 9.38 93.23 5.77 91.64 5.11 89.97" style="fill:#feb30f"/>
                <g id="Axo_Projection-2" data-name="Axo Projection">
                    <polygon points="0.91 81.12 20.16 69.95 27.39 92.93 8.14 104.1 0.91 81.12" style="fill:#fcdc79"/>
                    <polygon id="Axo_base-38" data-name="Axo base" points="8.84 102.29 2.35 81.68 19.46 71.76 25.94 92.37 8.84 102.29" style="fill:#5d9efb"/>
                </g>
                <path id="Axo_base-39" data-name="Axo base" d="M8.84,102.29l-1.23-3.9c2-2.64,5-5.91,7.81-7.31a35.06,35.06,0,0,1,9.29-2.63l1.23,3.92Z" style="fill:#0e173d"/>
                <path id="Axo_base-40" data-name="Axo base" d="M11,100c-.19-.07-2.83-1.38-2.83-1.38a7.77,7.77,0,0,1,.47-4.94,22.2,22.2,0,0,0,1.49-4.43s5.67-3.82,5.74-3.84,3.07.2,3.07.2a6.36,6.36,0,0,1,1.38.3,3.16,3.16,0,0,1,2.14,1.89c.66,2-3,7.81-3,7.81s-1.48-.31-2.79-.67a12.85,12.85,0,0,0-2.18-.37s-.52.7-1.27,1.84C11.76,98.55,11.07,100,11,100Z" style="fill:#e1edff"/>
                <path id="Axo_base-41" data-name="Axo base" d="M7.61,92.68c-1.19-.4-1-2.21-.67-2.84a19.33,19.33,0,0,0,.91-5.63c.19-2.94,2-3.69,2-3.69s.13-1.36,3.43-2.18a1.85,1.85,0,0,1,.94.12,21.73,21.73,0,0,1,3.65,2.05c.27.17.13.33.36.41a8.38,8.38,0,0,0,2.31-.08,1.94,1.94,0,0,1,.79.07c1.94.66,0,5.2-.68,6s-3.68-.17-3.89-.24A24.33,24.33,0,0,1,15.8,90c-.69,2.05-1.9,4.4-2.86,4.09s-1.71-1.93-1.71-1.93S8.8,93.09,7.61,92.68Z" style="fill:#0e173d"/>
                <path id="Axo_base-42" data-name="Axo base" d="M12,92.27a1.55,1.55,0,0,1-.69-.53,14.94,14.94,0,0,1-2.82-7c-.08-1.88.47-2.38.47-2.38.87-1.94,2.2-2.23,3.48-1.79a7.31,7.31,0,0,1,3.8,3.56c1,3.12-1,5.2-1.65,6.24S13,92.61,12,92.27Z" style="fill:#fbc2c2"/>
                <path id="Axo_base-43" data-name="Axo base" d="M16.54,86.62c-1-.34-2-2.79-2.87-4A5.59,5.59,0,0,0,11,81.09l-.46-.16c-.33-.11-.54-.19-.54-.25,0-.22.66-.64.79-.69a6.19,6.19,0,0,1,2.5-.66,1,1,0,0,1,.27.06,20.27,20.27,0,0,1,2.93,1.82c.17.06,2.33,4.27,2.11,4.61a1.93,1.93,0,0,1-2.05.8Z" style="fill:#0e173d"/>
                <path id="Axo_base-44" data-name="Axo base" d="M10.41,90.9a1.29,1.29,0,0,1-.42-.27c0,.06.06.09.1.1.19.07.47-.53.65-1.13a1.39,1.39,0,0,1,.82-.92s.39-.28.8-.51a1,1,0,0,1,.92-.1l.06,0c.34.12,1.35.34,1.35.34a4.53,4.53,0,0,1-1.31,1.08.93.93,0,0,1-.79.16,1,1,0,0,1-.52-.59,4.67,4.67,0,0,1-.84,1.53A.71.71,0,0,1,10.41,90.9Z" style="fill:#0e173d"/>
                <polygon points="0 80.74 0.91 81.12 8.14 104.1 7.39 103.59 0 80.74" style="fill:#fbc429"/>
                <polygon id="Axo_base-45" data-name="Axo base" points="20.16 69.95 0.88 81.24 0 80.74 19.28 69.45 20.16 69.95" style="fill:#fceab2"/>
                <g id="Axo_Extrusion-7" data-name="Axo Extrusion">
                    <path id="Axo_panel-11" data-name="Axo panel" d="M91.83,66.3a.82.82,0,0,0,.49.68,2.54,2.54,0,0,0,2.34,0,.81.81,0,0,0,.48-.67v.76a.83.83,0,0,1-.48.67,2.61,2.61,0,0,1-2.34,0,.83.83,0,0,1-.49-.68Z" style="fill:#81b2fc"/>
                    <path id="Axo_base-46" data-name="Axo base" d="M91.83,66.3a.84.84,0,0,1,.49-.67,2.61,2.61,0,0,1,2.34,0,.84.84,0,0,1,.48.68.81.81,0,0,1-.48.67,2.54,2.54,0,0,1-2.34,0A.82.82,0,0,1,91.83,66.3Z" style="fill:#b1d0fe"/>
                </g>
            </g>
        </g>
    </g>
</svg>
