<svg xmlns="http://www.w3.org/2000/svg" viewBox="0 0 115.84 106.63" xmlns:v="https://vecta.io/nano"><style><![CDATA[.B{fill:#e84343}.C{fill:#69a4fc}.D{fill:#fcd561}.E{fill:#fc5552}.F{fill:#1c6df6}.G{fill:#3e85f4}.H{fill:#5195fb}.I{fill:#0b45b2}.J{fill:#ff8980}.K{fill:#009fbd}.L{fill:#fc9f9c}.M{fill:#c6dffd}.N{fill:#71aaf9}.O{fill:#fc7464}]]></style><path d="M11.02 77.41l3.36 1.94v3.71l-3.36-1.94v-3.71z" class="G"/><path d="M14.38,79.35l10.4-6a9.28,9.28,0,0,1,8.4,0v3.72a9.28,9.28,0,0,0-8.4,0l-10.4,6Z" class="F"/><path d="M33.18 73.34l3.36-1.94v3.72l-3.36 1.94v-3.72z" fill="#e7f0f4"/><path d="M11,77.41l10.4-6a16.78,16.78,0,0,1,15.12,0l-3.36,1.94a9.28,9.28,0,0,0-8.4,0l-10.4,6Z" class="H"/><path d="M33.18,73.34a3,3,0,0,1,1.74,2.43v3.71a2.94,2.94,0,0,0-1.74-2.42Z" class="B"/><path d="M22.78 84.2l3.36 1.94v3.71l-3.36-1.94V84.2z" class="E"/><path d="M26.14,86.14l10.4-6c2.08-1.2,3.13-2.78,3.13-4.36v3.71c0,1.58-1.05,3.16-3.13,4.37l-10.4,6Z" class="B"/><path d="M22.78,84.2l10.4-6a2.56,2.56,0,0,0,0-4.85l3.36-1.94c2.08,1.21,3.13,2.79,3.13,4.37s-1.05,3.16-3.13,4.36l-10.4,6Z" fill="#f66"/><path d="M27 47.45l-.16.46 1.26-4.15-.8 2.77c2.28-1.56 5.28-4 6.49-6.5 1.58-3.25-.86-4.72-4.45-4.82v-.67c6 .14 7.35 3.83 2.87 8.63A29.11 29.11 0 0 1 27 47.45z" class="B"/><path d="M31.35 56.55a2 2 0 0 1-2.89-.25 1.47 1.47 0 0 1-.1-.13 2 2 0 0 1 .39-2.75 1.56 1.56 0 0 1 .25-.17 8.5 8.5 0 0 1 .37.81l.14.38a.41.41 0 0 0 .66-.22 11.91 11.91 0 0 0-.52-1.22 2 2 0 0 1 1.4.24 1.86 1.86 0 0 1 .65.6 2 2 0 0 1-.35 2.71z" class="I"/><path d="M30.8 56.09a2.06 2.06 0 0 1-2.34.21 1.47 1.47 0 0 1-.1-.13 2 2 0 0 1 .39-2.75L29 54a.48.48 0 0 0 .4.08l.14.38a.41.41 0 0 0 .66-.22 11.91 11.91 0 0 0-.55-1.24 2 2 0 0 1 1.4.24 1.71 1.71 0 0 1 .11.14 2 2 0 0 1-.36 2.71z" class="G"/><path d="M29.51 54.44a26.94 26.94 0 0 0-4.3-6.75 72.93 72.93 0 0 0-9.69-9.79 45.52 45.52 0 0 0-4.76-3.5c-1-.6-3.36-2-4.44-1.64-.36.13-.39.53-.35.92.21 1.89 2.54 5 2.6 5.14a.31.31 0 0 1-.06.3.37.37 0 0 1-.47.11 19 19 0 0 1-2.57-4.62 2.88 2.88 0 0 1-.09-1.83c.83-2 4.72.33 6.53 1.54a70 70 0 0 1 14 13.12 27.36 27.36 0 0 1 4.27 6.78.41.41 0 0 1-.67.22z" class="D"/><path d="M28.68 35.2v-.66c0-2.44-.36-5.46-1.63-7.55l-.22-.33a.29.29 0 0 1 .07-.46c.31-.18.43 0 .43 0a3.53 3.53 0 0 1 .21.32c2.1 3.32 2 8.71 1.45 12.59a44.09 44.09 0 0 1-2.34 9.29c-.15-.19-.3-.39-.46-.58a41.13 41.13 0 0 0 2.49-12.62z" class="C"/><path d="M29.48 57c-1.54.39-4.36-1.37-5.68-2.25l.33-.61a15 15 0 0 0 4.3 2.16 2 2 0 0 0 1.05.7z" class="D"/><path d="M16.23 37.6a35.86 35.86 0 0 1 12.45-3.06v.66a34.74 34.74 0 0 0-11.93 2.85l-1.26-1.06zm11.31-11.09l-.21-.32s-.12-.17-.43 0a.29.29 0 0 0-.07.46l.22.33a2.64 2.64 0 0 1-3.47-.26 2.28 2.28 0 0 1-.39-.52 2.63 2.63 0 0 1 2.17-3.94 2.62 2.62 0 0 1 2.18 4.24z" class="B"/><path d="M26.79,26a2.6,2.6,0,0,1-3.21.75,2.28,2.28,0,0,1-.39-.52,2.63,2.63,0,0,1,2.17-3.94,2.67,2.67,0,0,1,1.21.23A2.63,2.63,0,0,1,26.79,26Z" class="E"/><path d="M25.92 48.57l2.1 3-1.66-2.38a44 44 0 0 1-2.7 5.81c-1.9 3.43-5 7.68-8.52 9.37s-6.78.35-8.12-4.5a20.31 20.31 0 0 1-.64-5.33H7c0 2.71.44 6.27 2.21 8.34 1.41 1.65 3.56 2.18 6.47.46 3.23-1.92 6.15-6.18 7.91-9.54.48-.93.93-1.87 1.29-2.68.58-1.31 1-2.47 1.04-2.55z" class="C"/><path d="M26.44 47.1l-.25.71c-.09-.13-.19-.25-.29-.37zm-1.13.7l.37.47c-6.32 3.82-13 5.85-17.59 6.17a14.76 14.76 0 0 1-3.27-.08.47.47 0 0 1 .18-.66 12.29 12.29 0 0 0 2 .13 25.87 25.87 0 0 0 5.24-.69A46.68 46.68 0 0 0 19 51a47.64 47.64 0 0 0 6.31-3.2z" class="B"/><path d="M23.8,45l-1.18-1.28a77.3,77.3,0,0,0-5.87-5.63l.61.52A6,6,0,0,1,23.8,45Z" class="F"/><path d="M20.19 51.13c.12.12 1.9 1.56 3.42 2.62l-.33.61-2.07-1.53-1.73-1.4-1.25.51a48.76 48.76 0 0 0 6.34-3q-2.02 1.14-4.38 2.19z" class="D"/><path d="M23.66 45.86a6 6 0 0 1-8.57 3.94 5.87 5.87 0 0 1-1.95-1.63 6 6 0 0 1 3.33-9.46 78.06 78.06 0 0 1 6 5.83l1.19 1.32z" class="F"/><path d="M23,24a2.51,2.51,0,0,0-.15.68c-2.13.22-4.23,1.87-5.73,3.42a29.41,29.41,0,0,0-4.68,6.55l-.52-.35c1.8-3.29,4.48-7,7.63-9A7.76,7.76,0,0,1,23,24Z" class="C"/><path d="M19.67,50.69,19,51l-.23-.19-.38-.33a7.06,7.06,0,0,0,.88-.14Z" class="D"/><path d="M10.87 40.26a49 49 0 0 1 4.65-2.36l.52.44a48.89 48.89 0 0 0-5 2.49c.22-.11.02-.69-.17-.57z" class="B"/><path d="M12.09 35.28c.08 0-.73 1.15-2.09 4.63h-.08a1.21 1.21 0 0 1-.46-.16s-.06 0-.05-.06a45.34 45.34 0 0 1 2.17-4.78z" class="C"/><path d="M11.91 44.06l-2.1-2.47.59-.36s.17.27 1.64 2a5.77 5.77 0 0 0-.13.83z" class="D"/><path d="M1.45 51a3.87 3.87 0 0 0-.58.4c-.23-1.93 1.22-3.99 2.5-5.4a30.19 30.19 0 0 1 6.21-5l1.31-.78c.05-.01.35.44.2.57l-1.34.81-.48.31-.85.56a21.6 21.6 0 0 0-6.15 5.89A4.77 4.77 0 0 0 1.45 51z" class="B"/><path d="M10 40.76l.33-.2-.75.44.21-.57z" class="D"/><path d="M9.41 39.71l.05.06a1.14 1.14 0 0 0 .46.16H10l-.42 1.12-.84.54s0 .06.15-.46.34-.95.52-1.42z" class="C"/><path d="M8.57 38.82c0-.08-.13-.14.77 1l-.28.77-1.08-1.46h.06c.24.27.66-.06.53-.31z" class="D"/><path d="M6.39 53.82a41.45 41.45 0 0 1 2-11.32l.83-.55A43.38 43.38 0 0 0 7 53.83z" class="C"/><path d="M5.22 53.73L5 53.7a.47.47 0 0 0-.18.66h.21a2.63 2.63 0 0 1-4.77 0l-.07-.15A2.62 2.62 0 0 1 2 50.75a2.57 2.57 0 0 1 2.47.71 2.61 2.61 0 0 1 .75 2.27z" fill="#feb30f"/><path d="M4.68 53.22a2.61 2.61 0 0 1-.93 1.44 2.64 2.64 0 0 1-3.49-.22l-.07-.15A2.62 2.62 0 0 1 2 50.75a2.59 2.59 0 0 1 2.47.71 2.64 2.64 0 0 1 .21 1.76z" fill="#fbc22c"/><path d="M22 52.14h0z" class="F"/><path d="M22.48 44.54l1.18 1.32a6 6 0 0 1-8.57 3.94 5.87 5.87 0 0 1-1.95-1.63c1.73.64 4.48 1.32 6.53.22a5.67 5.67 0 0 0 2.81-3.85zm1.32.46l-1.18-1.28a7.64 7.64 0 0 0-.24-3A5.9 5.9 0 0 1 23.8 45z" class="I"/><path d="M17 42.47a1.21 1.21 0 1 1-1.2-1.2 1.2 1.2 0 0 1 1.2 1.2z" class="C"/><path d="M24.6 24.32a.47.47 0 1 1-.47-.46.47.47 0 0 1 .47.46z" class="L"/><circle cx="1.94" cy="52.61" r=".69" fill="#fceab2"/><path d="M110.26 49c0 .11-.07.22-.11.33a30.4 30.4 0 0 0 .89-2.94l-.56 2c1.61-1.1 3.73-2.83 4.59-4.59 1.11-2.3-.61-3.34-3.15-3.41v-.47c4.27.09 5.2 2.7 2 6.1a19.94 19.94 0 0 1-3.66 2.98z" class="B"/><path d="M113.35 55.4a1.44 1.44 0 0 1-2-.18l-.07-.09a1.47 1.47 0 0 1 .27-2l.18-.12a5.19 5.19 0 0 1 .26.57l.11.27a.28.28 0 0 0 .46-.15 7.42 7.42 0 0 0-.37-.86 1.41 1.41 0 0 1 1 .17 1.26 1.26 0 0 1 .46.43 1.43 1.43 0 0 1-.3 1.96z" class="I"/><path d="M113 55.07a1.45 1.45 0 0 1-1.66.15l-.07-.09a1.47 1.47 0 0 1 .27-2c.06.13.11.27.16.4a.34.34 0 0 0 .28.05l.11.27a.28.28 0 0 0 .46-.15 7.42 7.42 0 0 0-.37-.86 1.41 1.41 0 0 1 1 .17l.08.1a1.45 1.45 0 0 1-.26 1.96z" class="G"/><path d="M112.06 53.9a19.54 19.54 0 0 0-3-4.77 51.51 51.51 0 0 0-6.85-6.92 32.61 32.61 0 0 0-3.36-2.47c-.68-.43-2.38-1.43-3.14-1.17-.26.09-.28.38-.25.65.15 1.34 1.8 3.55 1.84 3.64a.21.21 0 0 1 0 .21.26.26 0 0 1-.34.08 13.41 13.41 0 0 1-1.81-3.27 2 2 0 0 1-.15-1.29c.58-1.41 3.33.24 4.61 1.09A49.52 49.52 0 0 1 109.5 49a19.3 19.3 0 0 1 3 4.8.28.28 0 0 1-.44.1z" class="D"/><path d="M111.46 40.3v-.47a10.81 10.81 0 0 0-1.16-5.33l-.15-.24a.2.2 0 0 1 0-.32c.21-.13.3 0 .3 0l.15.22c1.49 2.35 1.42 6.16 1 8.91a31.51 31.51 0 0 1-1.6 6.56l-.32-.42a29.07 29.07 0 0 0 1.78-8.91z" class="C"/><path d="M112 55.69c-1.09.27-3.08-1-4-1.6l.23-.43a10.6 10.6 0 0 0 3 1.53 1.39 1.39 0 0 0 .77.5z" class="D"/><path d="M102.66 42a25.57 25.57 0 0 1 8.81-2.17v.47a24.71 24.71 0 0 0-8.43 2l-.89-.74zm8-7.85l-.15-.22s-.09-.12-.3 0a.2.2 0 0 0 0 .32l.15.24a1.86 1.86 0 0 1-2.45-.19 2 2 0 0 1-.28-.36 1.86 1.86 0 0 1 1.54-2.79 1.71 1.71 0 0 1 .85.17 1.86 1.86 0 0 1 .64 2.83z" class="B"/><path d="M110.13 33.78a1.84 1.84 0 0 1-2.27.53 2 2 0 0 1-.28-.36 1.86 1.86 0 0 1 1.54-2.79 1.71 1.71 0 0 1 .85.17 1.83 1.83 0 0 1 .16 2.45z" class="E"/><path d="M109.51 49.75l1.49 2.1-1.17-1.68a32 32 0 0 1-1.91 4.1c-1.35 2.42-3.54 5.42-6 6.62s-4.79.25-5.74-3.18a14.47 14.47 0 0 1-.45-3.77h.45c0 1.91.32 4.43 1.57 5.9 1 1.16 2.51 1.54 4.57.32 2.28-1.36 4.35-4.37 5.59-6.75l.92-1.89.68-1.77z" class="C"/><path d="M109.88 48.71l-.17.5-.21-.21zm-.8.5l.27.33a30.09 30.09 0 0 1-12.44 4.36 10.21 10.21 0 0 1-2.31 0 .33.33 0 0 1 .13-.47 8.67 8.67 0 0 0 1.43.09 18.57 18.57 0 0 0 3.7-.48 33.86 33.86 0 0 0 4.73-1.53 34.23 34.23 0 0 0 4.49-2.3z" class="B"/><path d="M108 47.2l-.83-.9a55.37 55.37 0 0 0-4.15-4l.43.37a4.21 4.21 0 0 1 3.55 1.47 4.16 4.16 0 0 1 1 3.06z" class="F"/><path d="M105.46 51.56a36 36 0 0 0 2.42 1.85l-.23.44q-.75-.52-1.47-1.08l-1.22-1-.88.35a33.64 33.64 0 0 0 4.48-2.12 30.88 30.88 0 0 1-3.1 1.56z" class="D"/><path d="M107.92 47.83a4.23 4.23 0 0 1-3.13 3.17 4.22 4.22 0 0 1-4.6-6.26 4.23 4.23 0 0 1 2.65-1.95 56.37 56.37 0 0 1 4.24 4.12q.44.46.84.92z" class="F"/><path d="M107.44 32.39a2.57 2.57 0 0 0-.1.49 7.39 7.39 0 0 0-4.06 2.41 21.14 21.14 0 0 0-3.3 4.63l-.37-.24a17.83 17.83 0 0 1 5.4-6.39 5.45 5.45 0 0 1 2.43-.9z" class="C"/><path d="M105.09,51.25l-.5.21-.16-.14-.27-.23a5.55,5.55,0,0,0,.63-.1Z" class="D"/><path d="M98.88 43.87a36 36 0 0 1 3.28-1.66l.37.31A33.83 33.83 0 0 0 99 44.28c.15-.08 0-.48-.12-.41z" class="B"/><path d="M99.74 40.35c.05 0-.52.82-1.48 3.28h-.06a.68.68 0 0 1-.32-.11h0a32.91 32.91 0 0 1 1.54-3.38z" class="C"/><path d="M99.61 46.57l-1.49-1.75.42-.26s.12.19 1.16 1.38a4.08 4.08 0 0 0-.09.63z" class="D"/><path d="M92.22 51.44a1.34 1.34 0 0 0-.41.28c-.17-1.33.85-2.79 1.76-3.78A21.34 21.34 0 0 1 98 44.42l.93-.55c.13 0 .24.31.14.4l-1 .57a2.22 2.22 0 0 1-.34.22l-.59.4a15.32 15.32 0 0 0-4.36 4.16 3.45 3.45 0 0 0-.56 1.82z" class="B"/><path d="M98.28,44.23l.22-.14-.54.33.15-.4Z" class="D"/><path d="M97.84 43.49h0a.68.68 0 0 0 .32.11h.06l-.3.79-.59.38s0 .05.1-.32.28-.63.41-.96z" class="C"/><path d="M97.25 42.86c0-.06-.09-.1.55.75l-.21.53-.76-1c.22.13.51-.14.42-.28z" class="D"/><path d="M95.71 53.47a29 29 0 0 1 1.44-8l.58-.39a30.55 30.55 0 0 0-1.57 8.4z" class="C"/><path d="M94.88 53.4h-.15a.33.33 0 0 0-.13.47h.14a1.86 1.86 0 0 1-3.37 0v-.1a1.86 1.86 0 1 1 3.55-.4z" fill="#feb30f"/><path d="M94.5 53a1.86 1.86 0 0 1-3.13.86v-.1a1.85 1.85 0 0 1 3-2A1.81 1.81 0 0 1 94.5 53z" fill="#fbc22c"/><path d="M106.76 52.28h0z" class="F"/><path d="M107.08 46.9q.44.47.84.93a4.23 4.23 0 0 1-3.13 3.17 4.24 4.24 0 0 1-4.31-1.52c1.22.45 3.17.93 4.61.16a4 4 0 0 0 1.99-2.74zm.92.3l-.83-.9a5.28 5.28 0 0 0-.17-2.16 4.16 4.16 0 0 1 1 3.06z" class="I"/><circle cx="102.34" cy="45.44" r=".85" class="C"/><circle cx="108.25" cy="32.61" r=".33" class="L"/><path d="M93.05 52.61a.49.49 0 1 1-.49-.49.49.49 0 0 1 .49.49z" fill="#fceab2"/><path d="M46.58 14.46a.49.49 0 0 1-.47-.36L42.27 1.62A.51.51 0 0 1 42.6 1a.5.5 0 0 1 .63.34l3.83 12.48a.51.51 0 0 1-.33.63zM81.2 35.48a.49.49 0 0 1-.48-.36l-4.07-13.43a.521.521 0 0 1 1-.29l4.07 13.44a.5.5 0 0 1-.34.62z" class="M"/><path d="M49.46,52.92c0,3.55,5,6.43,11.15,6.43s11.14-2.88,11.14-6.43V54c0,3.56-5,6.44-11.14,6.44S49.46,57.55,49.46,54Z" class="G"/><path d="M49.46 52.92c0-3.55 5-6.43 11.15-6.43s11.14 2.88 11.14 6.43-5 6.43-11.14 6.43-11.15-2.88-11.15-6.43z" class="N"/><use href="#B" class="I"/><ellipse cx="43.46" cy="21.43" rx="11.1" ry="6.41" class="N"/><path d="M53.58 21.41c0 3.24-4.53 5.86-10.12 5.86-4.56 0-8.42-1.75-9.68-4.15a3.6 3.6 0 0 1-.43-1.69c0-3.23 4.52-5.84 10.11-5.84s10.11 2.6 10.12 5.82z" class="G"/><use href="#B" x="33.52" y="19.35" class="I"/><ellipse cx="76.98" cy="40.78" rx="11.1" ry="6.41" class="N"/><path d="M87.1 40.76c0 3.24-4.53 5.86-10.12 5.86-4.57 0-8.42-1.75-9.68-4.15a3.61 3.61 0 0 1-.44-1.69c0-3.23 4.53-5.84 10.12-5.84s10.11 2.6 10.12 5.82z" class="G"/><path d="M70.11 38.76l5.23 3.02v4.03l-5.23-3.02v-4.03z" fill="#fcdc79"/><path d="M75.34 41.78l5.23-3.02v4.03l-5.23 3.02v-4.03z" fill="#fcd96e"/><path d="M70.11 38.76l5.23-3.02 5.23 3.02-5.23 3.02-5.23-3.02z" fill="#ffe856"/><path d="M58.39,13.32c0,.67.94,1.21,2.09,1.21s2.09-.54,2.09-1.21L61.84,17l.73,34.77c0,.67-.93,1.21-2.09,1.21s-2.09-.54-2.09-1.21L59.16,17Z" fill="#abd0fc"/><path d="M77.47 21.76s-2.3.66-3.45-.1-5.84-5.36-8.79-7a10.68 10.68 0 0 0-2.73-1 2.24 2.24 0 0 1-2 .89c-1.16 0-2.09-.54-2.09-1.21a11.62 11.62 0 0 0-3.68-4.7c-3-1.8-7.64-2.61-8.79-3.18s-3.45-3.89-3.45-3.89c-.06-.37 0-.56.05-.61.4-.23 2.17 2.75 3 3.22 1 .57 2.38-.33 5.17 0s7.2 3.92 7.2 3.92L60 3l2 7.47a22.34 22.34 0 0 1 7.23 4.46c2.79 2.84 4.19 5.36 5.18 5.93s3.38-.86 3.06.9z" class="M"/><path d="M58.62 7.69l-.71.41s-4.43-3.51-7.23-3.89-4.19.52-5.17 0c-.82-.47-2.59-3.45-3-3.22l.7-.4c.4-.23 2.18 2.74 3 3.21 1 .57 2.39-.33 5.18 0s7.23 3.89 7.23 3.89z" fill="#e5effa"/><g fill="#ddecfd"><path d="M60.67 2.58l-.7.4-2.06 5.12.71-.41 2.05-5.11z"/><path d="M62.73 10.06l-.71.41-2.05-7.49.7-.4 2.06 7.48z"/></g><path d="M78.17 21.35l-.7.41c.32-1.81-2.06-.34-3-.9s-2.47-3.09-5.22-5.93A22.34 22.34 0 0 0 62 10.47l.7-.41a22.44 22.44 0 0 1 7.3 4.46c2.79 2.85 4.18 5.36 5.17 5.93s3.33-.9 3 .9z" fill="#e5effa"/><path d="M48.46 27.32a.5.5 0 0 1-.49-.39l-5.4-24-9.22 18.34a.51.51 0 0 1-.67.22.49.49 0 0 1-.22-.67L42.93 0l6 26.71a.5.5 0 0 1-.38.6zm33.31 19.5a.5.5 0 0 1-.49-.4L76.6 23.09l-9.8 18.34a.499.499 0 1 1-.88-.47L77 20.16l5.23 26.06a.49.49 0 0 1-.39.59z" class="M"/><path d="M41.9 85.32a2.45 2.45 0 0 1 .14-.38 5 5 0 0 1 .85-1.4 4.83 4.83 0 0 1 1.21-1 4.16 4.16 0 0 1 1.27-.47 4.26 4.26 0 0 1 1.15 0 6.9 6.9 0 0 1 2.59.93 8.57 8.57 0 0 1 1.73 1.14 5.2 5.2 0 0 1 .72.8 9.3 9.3 0 0 1 .56.94 2.94 2.94 0 0 0 .63.85 5.35 5.35 0 0 0 1.09.77 1.72 1.72 0 0 0 1.28.28 5.49 5.49 0 0 1 1.81.13 7.79 7.79 0 0 1 2 .85c.29.17.55.36.69.46a6.85 6.85 0 0 1 1.44 1.4 4.19 4.19 0 0 1 .74 1.56 3.76 3.76 0 0 1 .09.86 4.59 4.59 0 0 1-.45 1.87 5.11 5.11 0 0 1-1.43 1.85 2.79 2.79 0 0 1-.56.36 3.85 3.85 0 0 1-2.52.42 7.7 7.7 0 0 1-3.07-1.23 6 6 0 0 1-2.26-2.56 1.78 1.78 0 0 0-.92-1 3.65 3.65 0 0 0-2.17-.75 6 6 0 0 1-1.82-.15 6.45 6.45 0 0 1-1.61-.7l-1.09-.69a8.5 8.5 0 0 1-.75-.58 5.18 5.18 0 0 1-.87-.94 4 4 0 0 1-.55-1.17 4.42 4.42 0 0 1 .08-2.45zm17.94 11.42l.17-.1a4.4 4.4 0 0 0 1.81-3.33 2 2 0 0 0 0-.25 1.13 1.13 0 0 0-1.69-1 1.92 1.92 0 0 0-.29.14 4.42 4.42 0 0 0-1.92 2.8 2.68 2.68 0 0 0-.07.62c0 1.24.9 1.75 1.99 1.12z" class="E"/><path d="M53.41 90.28s1.07-.43 3.33.47A2 2 0 0 1 58 93.32a2.25 2.25 0 0 1-3 .34c-1.25-.86-2.16-2.56-1.59-3.38zm-9.31-5.99c.63-.94 2.36-.63 4.11.64 2.36 1.71 2.54 3.24 2.2 3.76s-3.57-.45-4.58-1.3c-1.43-1.21-2.2-2.39-1.73-3.1z" fill="#f66"/><g class="B"><path d="M41.82 87.8a4 4 0 0 0 .55 1.2 5.18 5.18 0 0 0 .87.94 8.5 8.5 0 0 0 .75.58l1.09.69a6.45 6.45 0 0 0 1.61.7 6 6 0 0 0 1.82.15 3.65 3.65 0 0 1 2.22.66 1.78 1.78 0 0 1 .92 1 6 6 0 0 0 2.26 2.56 7.7 7.7 0 0 0 3.09 1.2 3.85 3.85 0 0 0 2.52-.42 2.79 2.79 0 0 0 .56-.36l-1.25-1.62s-.66 1.72-1.19 1.65a11.51 11.51 0 0 1-4.25-1.86c-1.55-1.09-1.51-3.39-1.15-4.4a3.24 3.24 0 0 1 3.92-2 8 8 0 0 1 4.65 3.13 2.82 2.82 0 0 1 .19 1.95l1-.57a3.76 3.76 0 0 0-.09-.86 4.19 4.19 0 0 0-.74-1.56 6.85 6.85 0 0 0-1.44-1.4l-.69-.46a7.79 7.79 0 0 0-2-.85 5.49 5.49 0 0 0-1.81-.13 1.72 1.72 0 0 1-1.28-.28 5.35 5.35 0 0 1-1.09-.77 2.94 2.94 0 0 1-.63-.85 9.3 9.3 0 0 0-.56-.94 5.2 5.2 0 0 0-.72-.8 8.57 8.57 0 0 0-1.73-1.14 6.9 6.9 0 0 0-2.7-.94 4.26 4.26 0 0 0-1.15 0 8.37 8.37 0 0 1 3.88 1.71c2.74 2.07 3.71 4.6 2.82 6-1.67 2.62-6.08.65-6.84.23-4-2.19-3.3-4.5-3.33-4.67a4.42 4.42 0 0 0-.08 2.53z"/><path d="M57.85 95.6c0 1.26.9 1.77 2 1.14a4.34 4.34 0 0 0 2-3.43c0-1.26-.89-1.77-2-1.14a4.38 4.38 0 0 0-2 3.43z"/></g><path d="M59.55 95a.33.33 0 0 0 .17.33l13.15 7.61 3.89 2.83 2.85.86 1.22-.7-1.4-1.5-5.15-2.31-13.87-8a.43.43 0 0 0-.36 0 1.14 1.14 0 0 0-.5.88z" class="C"/><path d="M59.55 95c0 .17.06.29.17.33l13.15 7.14 3.89 2.84 2.85 1.31 1.22-.7-1.4-2-5.15-2.31-13.87-7.51a.43.43 0 0 0-.36 0 1.14 1.14 0 0 0-.5.9z" fill="#99c1fd"/><path d="M80.33 105.92s-.1.31-.68.33a11.45 11.45 0 0 1-2.58-1l-3.65-2.52 3.46 2.1c.8.52 2.25 1.53 3.45 1.09z" fill="#fff"/><path d="M97.9 84.65l.1 6.44a2.29 2.29 0 0 0 1.25-.3l13.24-7.64a.83.83 0 0 0 .42-.73V76z" class="E"/><path d="M69.09,67.81v6.37a.85.85,0,0,0,.42.73L97,90.79a2.16,2.16,0,0,0,1,.3v-7L74.57,70.53Z" class="B"/><path d="M99.26 84.35l13.24-7.64a.84.84 0 0 0 0-1.45L85 59.37a2.3 2.3 0 0 0-2.3 0L69.51 67a.83.83 0 0 0 0 1.44L97 84.35a2.29 2.29 0 0 0 2.26 0z" class="O"/><path d="M84.46 60.45l5.71 3.29-13.2 7.62-5.71-3.29 13.2-7.62z" class="B"/><path d="M76.98 71.12l12.06-6.96-4.59-2.65-12.06 6.96 4.59 2.65z" class="F"/><path d="M86.3 74.75a10.73 10.73 0 0 0 9.7 0c2.69-1.55 2.7-4.06 0-5.6a10.7 10.7 0 0 0-9.7 0c-2.66 1.55-2.67 4.06 0 5.6z" class="E"/><path d="M87.19,75a8.76,8.76,0,0,0,7.93,0c2.2-1.27,2.21-3.32,0-4.58a8.73,8.73,0,0,0-7.93,0C85,71.71,85,73.76,87.19,75Z" class="B"/><path d="M96.35 82.08a2.43 2.43 0 0 0 2.21 0c.61-.35.62-.92 0-1.27a2.43 2.43 0 0 0-2.21 0 .67.67 0 0 0 0 1.27z" fill="#202a5f"/><path d="M96.55 82.14a2 2 0 0 0 1.81 0 .56.56 0 0 0 0-1 2 2 0 0 0-1.81 0c-.49.24-.5.71 0 1z" fill="#0e173d"/><path d="M95.67 74.91s1-.54.56-.81L88 70.16a1.72 1.72 0 0 0-1.57-.06l-.39-.79c-.4.23-.08 1.49.39 1.76l7.67 4.43a12.7 12.7 0 0 0 1.57-.59z" class="E"/><path d="M95.88 74.73l.11-.07c.41-.23.35-.64-.11-.91a17.26 17.26 0 0 0-4-3A15.53 15.53 0 0 0 88 69.22a1.75 1.75 0 0 0-1.57-.07l-.12.07c-.4.23-.35.64.12.9a34.52 34.52 0 0 1 4.13 1.68 12.71 12.71 0 0 1 3.73 2.86 1.75 1.75 0 0 0 1.59.07z" class="O"/><path d="M96.26 79.45v-1.51l-2.36 3.08.23 1.27 2.13-2.84z" class="H"/><path d="M96.26 77.94l-1.13-.56-2.19 3.05.96.59 2.36-3.08z" fill="#81b2fc"/><path d="M94.13 82.29l-.82.57v-.36l.59-1.48.23 1.27z" class="F"/><g class="H"><path d="M92.94 80.43l.96.59-.59 1.48-.73-.42.36-1.65z"/><path d="M92.58 82.5v-.42l.73.42v.36l-.73-.36z"/></g><path d="M94.13 78.03v-1.52l-2.36 3.08.22 1.28 2.14-2.84z" fill="#c02106"/><g class="E"><path d="M94.13 76.51l-1.14-.55L90.81 79l.96.59 2.36-3.08z"/><path d="M91.99 80.87l-.82.57v-.37l.6-1.48.22 1.28z"/></g><path d="M90.81 79l.96.59-.6 1.48-.72-.41.36-1.66z" fill="#c02106"/><path d="M90.45 81.07v-.41l.72.41v.37l-.72-.37z" class="E"/><path d="M38 59.78l4.39 2.54v-.76l-4.21-2.43c-.16-.09-.47-.1-.47.11a.67.67 0 0 0 .29.54z" fill="#c9defe"/><g class="J"><path d="M42.8 61.42c0-.41-.27-.57-.62-.38a1.37 1.37 0 0 0-.64 1.07c0 .41.28.58.62.38a1.37 1.37 0 0 0 .64-1.07z"/><path d="M44.78 65.31a.82.82 0 0 0 1 0A2.74 2.74 0 0 0 47 63.16l-4.2-1.74a1.37 1.37 0 0 1-.64 1.07.4.4 0 0 1-.48 0z"/><path d="M42.56,61c.15,0,.24.2.24.44L47,63.16a.82.82,0,0,0-.48-.88Z"/></g><path d="M46.54 62.28l-4-1.3a.45.45 0 0 0-.38.06 1.37 1.37 0 0 0-.64 1.07.46.46 0 0 0 .14.38l3.1 2.82a1 1 0 0 1-.26-.75 2.74 2.74 0 0 1 1.27-2.15.94.94 0 0 1 .77-.13z" class="E"/><g class="J"><path d="M45.75 65.41c-.73.41-1.32 0-1.31-.81a2.92 2.92 0 0 1 1.35-2.29c.74-.41 1.33-.05 1.32.8a2.94 2.94 0 0 1-1.36 2.3zM47 63.16c0-.8-.54-1.14-1.23-.75a2.74 2.74 0 0 0-1.27 2.15c0 .8.54 1.13 1.23.75A2.74 2.74 0 0 0 47 63.16z"/><path d="M47.12 61.85a.61.61 0 0 0-.21-.09h-.24a1.32 1.32 0 0 0-.53.11 1.91 1.91 0 0 0-.54.3 3.74 3.74 0 0 0-.51.47 3.42 3.42 0 0 0-.22.28l-.1.15-.1.16-.09.15-.15.33a2.28 2.28 0 0 0-.12.33 2.57 2.57 0 0 0-.1 1.31 1.31 1.31 0 0 0 .15.38 1 1 0 0 0 .25.28l.14.08a.25.25 0 0 0 .09 0h.13.25.23a1.78 1.78 0 0 0 .4-.13 2.1 2.1 0 0 0 .42-.26l.26-.21.12-.12.23-.27a2.17 2.17 0 0 0 .21-.29 3.23 3.23 0 0 0 .26-.47 3.09 3.09 0 0 0 .14-.32l.06-.17v-.17c0-.1 0-.23.07-.33s0-.12 0-.17a.81.81 0 0 1 0-.16s0-.06-.07-.09-.38.06-.51.13a2.94 2.94 0 0 1-1.36 2.3c-.73.41-1.32 0-1.31-.81a2.92 2.92 0 0 1 1.35-2.29c.74-.41 1.33-.05 1.32.8.13-.07.4-.19.51-.13s.07.06.07.09a1.66 1.66 0 0 0 0-.34 1.22 1.22 0 0 0-.06-.26.78.78 0 0 0-.05-.14 1 1 0 0 0-.39-.43z"/><path d="M46.07 65.59c-.74.41-1.33 0-1.32-.81a3 3 0 0 1 1.35-2.29c.74-.41 1.33-.05 1.32.8a3 3 0 0 1-1.35 2.3zm1.27-2.25c0-.8-.55-1.14-1.24-.75a2.75 2.75 0 0 0-1.27 2.15c0 .8.55 1.13 1.24.75a2.77 2.77 0 0 0 1.27-2.15z"/></g><path d="M47.69 63.07v-.3a.66.66 0 0 0 0-.15.92.92 0 0 0-.08-.26.75.75 0 0 0-.06-.13l-.13-.18-.1-.1a.78.78 0 0 0-.15-.1.83.83 0 0 0-.21-.09.89.89 0 0 0-.22 0h-.14-.14-.13-.14l-.26.12-.28.18-.13.1-.26.24a4 4 0 0 0-.44.56l-.19.31c-.03.04-.08.16-.15.33a2.39 2.39 0 0 0-.12.33c0 .13 0 .14-.09.34a3.26 3.26 0 0 0-.06.5 3 3 0 0 0 0 .31c0 .1 0 .11.06.27a1.12 1.12 0 0 0 .17.35 1.25 1.25 0 0 0 .16.17l.09.06.13.07.14.06h.11.15.23.16a2 2 0 0 0 .41-.17l.27-.18.14-.11.25-.23.23-.27.21-.29.18-.3a3.31 3.31 0 0 0 .15-.33l.07-.16a4 4 0 0 0 .14-.5 2.76 2.76 0 0 0 .06-.5c0 .07-.14.15-.27.22a3 3 0 0 1-1.35 2.3c-.74.41-1.33 0-1.32-.81a3 3 0 0 1 1.35-2.29c.74-.41 1.33-.05 1.32.8.1-.02.24-.1.24-.17z" class="O"/><g class="J"><path d="M50.58,68.93a1,1,0,0,0,1-.07A3.07,3.07,0,0,0,53,66.46l-5.64-3.12a2.77,2.77,0,0,1-1.27,2.15.88.88,0,0,1-.89.06Z"/><path d="M47,62.5a.89.89,0,0,1,.39.84L53,66.46a1,1,0,0,0-.42-.94Z"/></g><path d="M52.56 65.52L47 62.5a.89.89 0 0 0-.85.09 2.75 2.75 0 0 0-1.27 2.15.9.9 0 0 0 .35.81l5.4 3.38a1 1 0 0 1-.39-.91 3.06 3.06 0 0 1 1.42-2.41 1 1 0 0 1 .9-.09z" class="E"/><g class="J"><path d="M66.24,76.7a.43.43,0,0,0,.39,0,1.3,1.3,0,0,0,.59-1L53,66.46a3.07,3.07,0,0,1-1.41,2.4,1,1,0,0,1-.94.1Z"/><path d="M52.61,65.55a1,1,0,0,1,.37.91l14.24,9.2a.44.44,0,0,0-.16-.38Z"/><path d="M67.22 75.66c0-.38-.26-.53-.58-.35a1.29 1.29 0 0 0-.59 1c0 .37.25.53.58.35a1.3 1.3 0 0 0 .59-1z"/></g><path d="M67.06 75.28l-14.45-9.73a.94.94 0 0 0-1 .06A3.06 3.06 0 0 0 50.19 68a1 1 0 0 0 .44.94l15.61 7.76a.4.4 0 0 1-.19-.39 1.29 1.29 0 0 1 .59-1 .38.38 0 0 1 .42-.03z" class="B"/><path d="M33.11 64.19l4.39 2.54V66l-4.21-2.43c-.15-.09-.46-.1-.46.11a.66.66 0 0 0 .28.51z" fill="#c9defe"/><g class="K"><path d="M37.5 65.56c0-.4-.27-.57-.62-.38a1.4 1.4 0 0 0-.63 1.08c0 .4.27.57.62.38a1.4 1.4 0 0 0 .63-1.08z"/><path d="M39.49,69.45a.8.8,0,0,0,1,0,2.73,2.73,0,0,0,1.27-2.14L37.5,65.56a1.4,1.4,0,0,1-.63,1.08.41.41,0,0,1-.49,0Z"/><path d="M37.26,65.12a.42.42,0,0,1,.24.44l4.23,1.75c0-.47-.19-.79-.48-.88Z"/></g><path d="M41.25 66.43l-4-1.31a.5.5 0 0 0-.38.06 1.4 1.4 0 0 0-.63 1.08.45.45 0 0 0 .13.38l3.11 2.81a1 1 0 0 1-.27-.75 2.77 2.77 0 0 1 1.27-2.15 1 1 0 0 1 .77-.12z" class="H"/><g class="K"><path d="M40.46 69.55c-.74.41-1.33 0-1.32-.8a3 3 0 0 1 1.35-2.3c.74-.41 1.33 0 1.32.81a3 3 0 0 1-1.35 2.29zm1.27-2.24c0-.8-.55-1.14-1.24-.76a2.77 2.77 0 0 0-1.27 2.15c0 .8.55 1.14 1.24.75a2.73 2.73 0 0 0 1.27-2.14z"/><path d="M41.82 66a2.26 2.26 0 0 0-.21-.09 1 1 0 0 0-.24 0 1.4 1.4 0 0 0-.53.1 2.43 2.43 0 0 0-.54.3 3.61 3.61 0 0 0-.51.48l-.22.28-.1.15a.75.75 0 0 0-.09.15 1.29 1.29 0 0 0-.09.16s-.08.14-.16.32-.08.22-.12.34a2.65 2.65 0 0 0-.1 1.3 1.57 1.57 0 0 0 .15.39 1 1 0 0 0 .25.27.67.67 0 0 0 .14.09h.09.14a.74.74 0 0 0 .24 0 1 1 0 0 0 .24 0 1.32 1.32 0 0 0 .4-.13 2.52 2.52 0 0 0 .44-.21l.26-.22a.68.68 0 0 0 .12-.12l.23-.26.21-.29a3.89 3.89 0 0 0 .26-.47c.05-.1.1-.23.14-.33l.06-.16a1.09 1.09 0 0 1 0-.17c0-.1.05-.24.06-.34a1 1 0 0 0 0-.17.86.86 0 0 0 0-.16s0-.06-.07-.08-.37.05-.51.13a3 3 0 0 1-1.35 2.29c-.74.41-1.33 0-1.32-.8a3 3 0 0 1 1.35-2.3c.74-.41 1.33 0 1.32.81.14-.08.4-.2.51-.13s.07.05.07.08a2.4 2.4 0 0 0 0-.33c0-.08 0-.19-.06-.26l-.06-.14a1.07 1.07 0 0 0-.4-.48z"/></g><path d="M40.77 69.73c-.74.41-1.33 0-1.32-.8a2.92 2.92 0 0 1 1.36-2.29c.73-.42 1.32-.06 1.31.8a2.91 2.91 0 0 1-1.35 2.29zM42 67.49c0-.8-.54-1.14-1.24-.76a2.76 2.76 0 0 0-1.26 2.15c0 .8.54 1.14 1.23.75A2.73 2.73 0 0 0 42 67.49z" class="H"/><path d="M42.39 67.21v-.3a.89.89 0 0 0 0-.15c0-.1 0-.1-.09-.26a.75.75 0 0 0-.06-.13l-.13-.17a.47.47 0 0 0-.1-.1.83.83 0 0 0-.15-.11l-.21-.09h-.22-.14-.14-.13-.14l-.26.12-.28.18-.13.11-.26.24a4.36 4.36 0 0 0-.44.56 2.83 2.83 0 0 0-.18.31c-.07.12-.08.16-.16.32l-.12.34a3.32 3.32 0 0 0-.09.33 3.52 3.52 0 0 0-.05.51v.3c0 .09 0 .12.06.28a1.26 1.26 0 0 0 .18.34.53.53 0 0 0 .16.18l.08.06.13.07h.15.1.15.24.15a2.35 2.35 0 0 0 .41-.18l.27-.17.14-.11a2 2 0 0 0 .25-.24c.11-.11.16-.18.23-.26l.21-.29a2 2 0 0 0 .18-.2 2.82 2.82 0 0 0 .16-.32l.06-.17a3.5 3.5 0 0 0 .14-.5 2 2 0 0 0 .06-.5c0 .08-.14.16-.27.23a2.91 2.91 0 0 1-1.35 2.29c-.74.41-1.33 0-1.32-.8a2.92 2.92 0 0 1 1.36-2.29c.73-.42 1.32-.06 1.31.8.1-.07.24-.15.24-.23z" fill="#99c1fd"/><g class="K"><path d="M45.28,73.08a1,1,0,0,0,1-.08,3.07,3.07,0,0,0,1.42-2.4L42,67.49a2.73,2.73,0,0,1-1.27,2.14.86.86,0,0,1-.89.07Z"/><path d="M41.66,66.65a.89.89,0,0,1,.38.84l5.65,3.11a1,1,0,0,0-.43-.93Z"/></g><path d="M47.26 69.67l-5.6-3a.91.91 0 0 0-.86.08 2.76 2.76 0 0 0-1.26 2.15.89.89 0 0 0 .34.82l5.4 3.38a1 1 0 0 1-.39-.92 3.06 3.06 0 0 1 1.42-2.4 1 1 0 0 1 .95-.11z" class="C"/><g class="K"><path d="M60.94,80.85a.41.41,0,0,0,.39,0,1.29,1.29,0,0,0,.59-1L47.69,70.6A3.07,3.07,0,0,1,46.27,73a1,1,0,0,1-.93.11Z"/><path d="M47.32,69.7a1,1,0,0,1,.37.9l14.23,9.2a.43.43,0,0,0-.15-.37Z"/></g><path d="M61.92 79.8c0-.37-.25-.53-.57-.35a1.29 1.29 0 0 0-.6 1c0 .37.26.53.58.35a1.29 1.29 0 0 0 .59-1z" class="F"/><path d="M61.77 79.43L47.32 69.7a1 1 0 0 0-1 .06 3.06 3.06 0 0 0-1.42 2.4 1 1 0 0 0 .45 1l15.6 7.74a.41.41 0 0 1-.19-.4 1.29 1.29 0 0 1 .6-1 .4.4 0 0 1 .41-.07z" class="H"/><path d="M98.06 103.4a8.41 8.41 0 0 1-1.82-.21h-.06a17.45 17.45 0 0 1-8.05-2.81 7.87 7.87 0 0 1-4.19-5.84 11.56 11.56 0 0 1 1-5.85c-3.74-1.94-18.42-12.41-18.46-12.43l.3-.55s14.7 10.48 18.42 12.41a30.87 30.87 0 0 1 5.47-7.82l.44.43a31.53 31.53 0 0 0-5.34 7.68l9.23 4.6c3.85 1.85 6.39 4.35 6.78 6.68a2.91 2.91 0 0 1-.8 2.66 4 4 0 0 1-2.92 1.05zm-9.62-11.35a16.18 16.18 0 0 1 9.65 4c1.92 1.58 2.77 3.5 2.2 5a2.93 2.93 0 0 1-1.62 1.66 3.15 3.15 0 0 0 1.87-.85 2.29 2.29 0 0 0 .63-2.11c-.36-2.11-2.83-4.49-6.44-6.23-3.35-1.52-6.56-3.17-9.21-4.52a10.83 10.83 0 0 0-1 5.47 7.3 7.3 0 0 0 3.88 5.38 23.47 23.47 0 0 0 4.14 2 21.42 21.42 0 0 1-5.23-3.74 8.8 8.8 0 0 1-2-2.78 2.08 2.08 0 0 1 .3-2.42 4 4 0 0 1 2.83-.86zm7.81 10.51c1.77 0 3-.58 3.46-1.67.46-1.27-.31-2.92-2-4.33-5.27-4.33-10.43-4.41-11.6-3.24a1.52 1.52 0 0 0-.17 1.75 8.21 8.21 0 0 0 1.87 2.56 19.71 19.71 0 0 0 8.44 4.93z" class="L"/><path d="M98.53 104.76h-.19c-2.21-.05-5.13-1.09-8.22-2.92A7.79 7.79 0 0 1 86 96a10.22 10.22 0 0 1 .49-4.29c-6.66-1.55-25-11.29-25.12-11.3l.06-.62c.1 0 18.53 9.75 25.26 11.32 1.74-4.82 5.95-9 6.18-9.28l.44.44c0 .06-4.25 4.28-6 9a51.45 51.45 0 0 1 9.89 3.29c3.8 1.82 6.31 4.3 6.7 6.63a3 3 0 0 1-.81 2.7 4 4 0 0 1-3.37.76 7 7 0 0 1-1.19.11zm-7.86-11.08a15.82 15.82 0 0 1 9.58 4c1.92 1.58 2.77 3.5 2.21 5a2.86 2.86 0 0 1-1.12 1.38 2.21 2.21 0 0 0 1.27-.58 2.38 2.38 0 0 0 .64-2.16c-.36-2.09-2.8-4.46-6.36-6.17a51.41 51.41 0 0 0-9.82-3.26 9.59 9.59 0 0 0-.49 4.11 7.23 7.23 0 0 0 3.86 5.36 21.31 21.31 0 0 0 6.48 2.64c-4.21-1.5-9.29-5.06-9.78-7.65a1.85 1.85 0 0 1 .69-1.9 4.71 4.71 0 0 1 2.84-.77zm0 .63a4.08 4.08 0 0 0-2.45.6 1.24 1.24 0 0 0-.47 1.29c.43 2.27 5.51 6 10 7.4a12 12 0 0 0 1.87.43 2.68 2.68 0 0 0 2.2-1.58c.47-1.26-.3-2.92-2-4.32a15.19 15.19 0 0 0-9.15-3.82z" fill="#81b2fc"/><defs ><path id="B" d="M54.56 21.43c0 5.69-5 8.61-11.1 8.61s-11.1-3-11.1-8.61c0-3.54 5-6.41 11.1-6.41s11.1 2.87 11.1 6.41z"/></defs></svg>