<svg xmlns="http://www.w3.org/2000/svg" viewBox="0 0 115.84 106.63">
    <defs/>
    <g id="Layer_2" data-name="Layer 2">
        <g id="Layer_1-2" data-name="Layer 1">
            <g id="Axo_Projection" data-name="Axo Projection">
                <g id="Axo_Extrusion" data-name="Axo Extrusion">
                    <g id="Axo_Surface_" data-name="Axo Surface*">
                        <polygon id="Axo_panel" data-name="Axo panel" points="11.02 77.41 14.38 79.35 14.38 83.06 11.02 81.12 11.02 77.41" style="fill:#3e85f4"/>
                        <path id="Axo_panel-2" data-name="Axo panel" d="M14.38,79.35l10.4-6a9.28,9.28,0,0,1,8.4,0v3.72a9.28,9.28,0,0,0-8.4,0l-10.4,6Z" style="fill:#1c6df6"/>
                        <polygon id="Axo_panel-3" data-name="Axo panel" points="33.18 73.34 36.54 71.4 36.54 75.12 33.18 77.06 33.18 73.34" style="fill:#e7f0f4"/>
                    </g>
                    <path id="Axo_base" data-name="Axo base" d="M11,77.41l10.4-6a16.78,16.78,0,0,1,15.12,0l-3.36,1.94a9.28,9.28,0,0,0-8.4,0l-10.4,6Z" style="fill:#5195fb"/>
                </g>
                <g id="Axo_Extrusion-2" data-name="Axo Extrusion">
                    <path id="Axo_panel-4" data-name="Axo panel" d="M33.18,73.34a3,3,0,0,1,1.74,2.43v3.71a2.94,2.94,0,0,0-1.74-2.42Z" style="fill:#e84343"/>
                    <g id="Axo_Surface_2" data-name="Axo Surface*">
                        <polygon id="Axo_panel-5" data-name="Axo panel" points="22.78 84.2 26.14 86.14 26.14 89.85 22.78 87.91 22.78 84.2" style="fill:#fc5552"/>
                        <path id="Axo_panel-6" data-name="Axo panel" d="M26.14,86.14l10.4-6c2.08-1.2,3.13-2.78,3.13-4.36v3.71c0,1.58-1.05,3.16-3.13,4.37l-10.4,6Z" style="fill:#e84343"/>
                    </g>
                    <path id="Axo_base-2" data-name="Axo base" d="M22.78,84.2l10.4-6a2.56,2.56,0,0,0,0-4.85l3.36-1.94c2.08,1.21,3.13,2.79,3.13,4.37s-1.05,3.16-3.13,4.36l-10.4,6Z" style="fill:#f66"/>
                </g>
            </g>
            <path d="M27,47.45c-.05.16-.11.31-.16.46.47-1.34.9-2.73,1.26-4.15-.24.94-.51,1.87-.8,2.77,2.28-1.56,5.28-4,6.49-6.5,1.58-3.25-.86-4.72-4.45-4.82,0-.08,0-.24,0-.67,6,.14,7.35,3.83,2.87,8.63A29.11,29.11,0,0,1,27,47.45Z" style="fill:#e84343"/>
            <path d="M31.35,56.55a2,2,0,0,1-2.89-.25,1.47,1.47,0,0,1-.1-.13,2,2,0,0,1,.39-2.75,1.56,1.56,0,0,1,.25-.17,8.5,8.5,0,0,1,.37.81c.05.13.1.26.14.38a.41.41,0,0,0,.66-.22A11.91,11.91,0,0,0,29.65,53a2,2,0,0,1,1.4.24,1.86,1.86,0,0,1,.65.6A2,2,0,0,1,31.35,56.55Z" style="fill:#0b45b2"/>
            <path d="M30.8,56.09a2.06,2.06,0,0,1-2.34.21,1.47,1.47,0,0,1-.1-.13,2,2,0,0,1,.39-2.75L29,54a.48.48,0,0,0,.4.08c.05.13.1.26.14.38a.41.41,0,0,0,.66-.22A11.91,11.91,0,0,0,29.65,53a2,2,0,0,1,1.4.24,1.71,1.71,0,0,1,.11.14A2,2,0,0,1,30.8,56.09Z" style="fill:#3e85f4"/>
            <path d="M29.51,54.44a26.94,26.94,0,0,0-4.3-6.75,72.93,72.93,0,0,0-9.69-9.79,45.52,45.52,0,0,0-4.76-3.5c-1-.6-3.36-2-4.44-1.64-.36.13-.39.53-.35.92.21,1.89,2.54,5,2.6,5.14a.31.31,0,0,1-.06.3.37.37,0,0,1-.47.11,19,19,0,0,1-2.57-4.62,2.88,2.88,0,0,1-.09-1.83c.83-2,4.72.33,6.53,1.54a70,70,0,0,1,14,13.12,27.36,27.36,0,0,1,4.27,6.78A.41.41,0,0,1,29.51,54.44Z" style="fill:#fcd561"/>
            <path d="M28.68,35.2v-.66c0-2.44-.36-5.46-1.63-7.55-.07-.11-.14-.22-.22-.33a.29.29,0,0,1,.07-.46c.31-.18.43,0,.43,0a3.53,3.53,0,0,1,.21.32c2.1,3.32,2,8.71,1.45,12.59a44.09,44.09,0,0,1-2.34,9.29c-.15-.19-.3-.39-.46-.58A41.13,41.13,0,0,0,28.68,35.2Z" style="fill:#69a4fc"/>
            <path d="M29.48,57c-1.54.39-4.36-1.37-5.68-2.25.13-.23.3-.57.33-.61a15,15,0,0,0,4.3,2.16A2,2,0,0,0,29.48,57Z" style="fill:#fcd561"/>
            <path d="M16.23,37.6a35.86,35.86,0,0,1,12.45-3.06v.66a34.74,34.74,0,0,0-11.93,2.85c-.42-.37-.84-.72-1.26-1.06Z" style="fill:#e84343"/>
            <path d="M27.54,26.51l-.21-.32s-.12-.17-.43,0a.29.29,0,0,0-.07.46c.08.11.15.22.22.33a2.64,2.64,0,0,1-3.47-.26,2.28,2.28,0,0,1-.39-.52,2.63,2.63,0,0,1,2.17-3.94,2.62,2.62,0,0,1,2.18,4.24Z" style="fill:#e84343"/>
            <path d="M26.79,26a2.6,2.6,0,0,1-3.21.75,2.28,2.28,0,0,1-.39-.52,2.63,2.63,0,0,1,2.17-3.94,2.67,2.67,0,0,1,1.21.23A2.63,2.63,0,0,1,26.79,26Z" style="fill:#fc5552"/>
            <path d="M25.92,48.57s1.28,1.67,2.1,3c-.53-.84-1.11-1.66-1.66-2.38A44,44,0,0,1,23.66,55c-1.9,3.43-5,7.68-8.52,9.37s-6.78.35-8.12-4.5a20.31,20.31,0,0,1-.64-5.33H7c0,2.71.44,6.27,2.21,8.34,1.41,1.65,3.56,2.18,6.47.46,3.23-1.92,6.15-6.18,7.91-9.54.48-.93.93-1.87,1.29-2.68C25.46,49.81,25.88,48.65,25.92,48.57Z" style="fill:#69a4fc"/>
            <path d="M26.44,47.1s-.21.62-.25.71c-.09-.13-.19-.25-.29-.37Z" style="fill:#e84343"/>
            <path d="M25.31,47.8l.37.47c-6.32,3.82-13,5.85-17.59,6.17a14.76,14.76,0,0,1-3.27-.08A.47.47,0,0,1,5,53.7a12.29,12.29,0,0,0,2,.13,25.87,25.87,0,0,0,5.24-.69A46.68,46.68,0,0,0,19,51,47.64,47.64,0,0,0,25.31,47.8Z" style="fill:#e84343"/>
            <path d="M23.8,45l-1.18-1.28a77.3,77.3,0,0,0-5.87-5.63l.61.52A6,6,0,0,1,23.8,45Z" style="fill:#1c6df6"/>
            <path d="M20.19,51.13c.12.12,1.9,1.56,3.42,2.62,0,0-.62,1.13-.33.61-.7-.49-1.4-1-2.07-1.53l-1.73-1.4-1.25.51a48.76,48.76,0,0,0,6.34-3Q22.55,50.08,20.19,51.13Z" style="fill:#fcd561"/>
            <path d="M23.66,45.86a6,6,0,0,1-8.57,3.94,5.87,5.87,0,0,1-1.95-1.63,6,6,0,0,1,3.33-9.46,78.06,78.06,0,0,1,6,5.83C22.88,45,23.28,45.41,23.66,45.86Z" style="fill:#1c6df6"/>
            <path d="M23,24a2.51,2.51,0,0,0-.15.68c-2.13.22-4.23,1.87-5.73,3.42a29.41,29.41,0,0,0-4.68,6.55l-.52-.35c1.8-3.29,4.48-7,7.63-9A7.76,7.76,0,0,1,23,24Z" style="fill:#69a4fc"/>
            <path d="M19.67,50.69,19,51l-.23-.19-.38-.33a7.06,7.06,0,0,0,.88-.14Z" style="fill:#fcd561"/>
            <path d="M10.87,40.26a49,49,0,0,1,4.65-2.36l.52.44a48.89,48.89,0,0,0-5,2.49C11.26,40.72,11.06,40.14,10.87,40.26Z" style="fill:#e84343"/>
            <path d="M12.09,35.28c.08,0-.73,1.15-2.09,4.63,0,0-.05,0-.08,0a1.21,1.21,0,0,1-.46-.16s-.06,0-.05-.06a45.34,45.34,0,0,1,2.17-4.78Z" style="fill:#69a4fc"/>
            <path d="M11.91,44.06c-.77-.86-1.48-1.7-2.1-2.47l.59-.36s.17.27,1.64,2A5.77,5.77,0,0,0,11.91,44.06Z" style="fill:#fcd561"/>
            <path d="M1.45,51a3.87,3.87,0,0,0-.58.4C.64,49.47,2.09,47.41,3.37,46a30.19,30.19,0,0,1,6.21-5c.25-.16,1.26-.77,1.31-.78s.35.44.2.57l-1.34.81-.48.31s-.81.52-.85.56a21.6,21.6,0,0,0-6.15,5.89A4.77,4.77,0,0,0,1.45,51Z" style="fill:#e84343"/>
            <path d="M10,40.76l.33-.2L9.58,41l.21-.57Z" style="fill:#fcd561"/>
            <path d="M9.41,39.71s0,0,.05.06a1.14,1.14,0,0,0,.46.16s.07,0,.08,0c-.15.37-.29.75-.42,1.12l-.84.54s0,.06.15-.46S9.23,40.18,9.41,39.71Z" style="fill:#69a4fc"/>
            <path d="M8.57,38.82c0-.08-.13-.14.77,1-.16.42-.27.72-.28.77-.38-.49-.73-1-1.08-1.46l.06,0C8.28,39.4,8.7,39.07,8.57,38.82Z" style="fill:#fcd561"/>
            <path d="M6.39,53.82a41.45,41.45,0,0,1,2-11.32s.79-.53.83-.55A43.38,43.38,0,0,0,7,53.83Z" style="fill:#69a4fc"/>
            <path d="M5.22,53.73,5,53.7a.47.47,0,0,0-.18.66l.21,0a2.63,2.63,0,0,1-4.77,0l-.07-.15A2.62,2.62,0,0,1,2,50.75a2.57,2.57,0,0,1,2.47.71A2.61,2.61,0,0,1,5.22,53.73Z" style="fill:#feb30f"/>
            <path d="M4.68,53.22a2.61,2.61,0,0,1-.93,1.44,2.64,2.64,0,0,1-3.49-.22l-.07-.15A2.62,2.62,0,0,1,2,50.75a2.59,2.59,0,0,1,2.47.71A2.64,2.64,0,0,1,4.68,53.22Z" style="fill:#fbc22c"/>
            <path d="M22,52.14c.09,0,0,0,0,0Z" style="fill:#1c6df6"/>
            <path d="M22.48,44.54c.4.43.8.87,1.18,1.32a6,6,0,0,1-8.57,3.94,5.87,5.87,0,0,1-1.95-1.63c1.73.64,4.48,1.32,6.53.22A5.67,5.67,0,0,0,22.48,44.54Z" style="fill:#0b45b2"/>
            <path d="M23.8,45l-1.18-1.28a7.64,7.64,0,0,0-.24-3A5.9,5.9,0,0,1,23.8,45Z" style="fill:#0b45b2"/>
            <path d="M17,42.47a1.21,1.21,0,1,1-1.2-1.2A1.2,1.2,0,0,1,17,42.47Z" style="fill:#69a4fc"/>
            <path d="M24.6,24.32a.47.47,0,1,1-.47-.46A.47.47,0,0,1,24.6,24.32Z" style="fill:#fc9f9c"/>
            <circle cx="1.94" cy="52.61" r="0.69" style="fill:#fceab2"/>
            <path d="M110.26,49c0,.11-.07.22-.11.33a30.4,30.4,0,0,0,.89-2.94c-.17.67-.36,1.33-.56,2,1.61-1.1,3.73-2.83,4.59-4.59,1.11-2.3-.61-3.34-3.15-3.41v-.47c4.27.09,5.2,2.7,2,6.1A19.94,19.94,0,0,1,110.26,49Z" style="fill:#e84343"/>
            <path d="M113.35,55.4a1.44,1.44,0,0,1-2-.18l-.07-.09a1.47,1.47,0,0,1,.27-2l.18-.12a5.19,5.19,0,0,1,.26.57l.11.27a.28.28,0,0,0,.46-.15,7.42,7.42,0,0,0-.37-.86,1.41,1.41,0,0,1,1,.17,1.26,1.26,0,0,1,.46.43A1.43,1.43,0,0,1,113.35,55.4Z" style="fill:#0b45b2"/>
            <path d="M113,55.07a1.45,1.45,0,0,1-1.66.15l-.07-.09a1.47,1.47,0,0,1,.27-2c.06.13.11.27.16.4a.34.34,0,0,0,.28.05l.11.27a.28.28,0,0,0,.46-.15,7.42,7.42,0,0,0-.37-.86,1.41,1.41,0,0,1,1,.17l.08.1A1.45,1.45,0,0,1,113,55.07Z" style="fill:#3e85f4"/>
            <path d="M112.06,53.9a19.54,19.54,0,0,0-3-4.77,51.51,51.51,0,0,0-6.85-6.92,32.61,32.61,0,0,0-3.36-2.47c-.68-.43-2.38-1.43-3.14-1.17-.26.09-.28.38-.25.65.15,1.34,1.8,3.55,1.84,3.64a.21.21,0,0,1,0,.21.26.26,0,0,1-.34.08,13.41,13.41,0,0,1-1.81-3.27A2,2,0,0,1,95,38.59c.58-1.41,3.33.24,4.61,1.09A49.52,49.52,0,0,1,109.5,49a19.3,19.3,0,0,1,3,4.8A.28.28,0,0,1,112.06,53.9Z" style="fill:#fcd561"/>
            <path d="M111.46,40.3v-.47a10.81,10.81,0,0,0-1.16-5.33l-.15-.24a.2.2,0,0,1,0-.32c.21-.13.3,0,.3,0s.11.15.15.22c1.49,2.35,1.42,6.16,1,8.91A31.51,31.51,0,0,1,110,49.63l-.32-.42A29.07,29.07,0,0,0,111.46,40.3Z" style="fill:#69a4fc"/>
            <path d="M112,55.69c-1.09.27-3.08-1-4-1.6l.23-.43a10.6,10.6,0,0,0,3,1.53A1.39,1.39,0,0,0,112,55.69Z" style="fill:#fcd561"/>
            <path d="M102.66,42a25.57,25.57,0,0,1,8.81-2.17c0,.16,0,.32,0,.47a24.71,24.71,0,0,0-8.43,2l-.89-.74Z" style="fill:#e84343"/>
            <path d="M110.66,34.15l-.15-.22s-.09-.12-.3,0a.2.2,0,0,0,0,.32l.15.24a1.86,1.86,0,0,1-2.45-.19,2,2,0,0,1-.28-.36,1.86,1.86,0,0,1,1.54-2.79,1.71,1.71,0,0,1,.85.17A1.86,1.86,0,0,1,110.66,34.15Z" style="fill:#e84343"/>
            <path d="M110.13,33.78a1.84,1.84,0,0,1-2.27.53,2,2,0,0,1-.28-.36,1.86,1.86,0,0,1,1.54-2.79,1.71,1.71,0,0,1,.85.17A1.83,1.83,0,0,1,110.13,33.78Z" style="fill:#fc5552"/>
            <path d="M109.51,49.75s.91,1.18,1.49,2.1c-.37-.59-.79-1.17-1.17-1.68a32,32,0,0,1-1.91,4.1c-1.35,2.42-3.54,5.42-6,6.62s-4.79.25-5.74-3.18a14.47,14.47,0,0,1-.45-3.77h.45c0,1.91.32,4.43,1.57,5.9,1,1.16,2.51,1.54,4.57.32,2.28-1.36,4.35-4.37,5.59-6.75.34-.65.66-1.31.92-1.89C109.19,50.63,109.49,49.81,109.51,49.75Z" style="fill:#69a4fc"/>
            <path d="M109.88,48.71s-.15.44-.17.5L109.5,49Z" style="fill:#e84343"/>
            <path d="M109.08,49.21s.26.33.27.33A30.09,30.09,0,0,1,96.91,53.9a10.21,10.21,0,0,1-2.31,0,.33.33,0,0,1,.13-.47,8.67,8.67,0,0,0,1.43.09,18.57,18.57,0,0,0,3.7-.48,33.86,33.86,0,0,0,4.73-1.53A34.23,34.23,0,0,0,109.08,49.21Z" style="fill:#e84343"/>
            <path d="M108,47.2c-.27-.3-.54-.6-.83-.9a55.37,55.37,0,0,0-4.15-4l.43.37A4.21,4.21,0,0,1,107,44.14,4.16,4.16,0,0,1,108,47.2Z" style="fill:#1c6df6"/>
            <path d="M105.46,51.56c.09.09,1.35,1.11,2.42,1.85,0,0-.43.81-.23.44q-.75-.52-1.47-1.08l-1.22-1-.88.35A33.64,33.64,0,0,0,108.56,50,30.88,30.88,0,0,1,105.46,51.56Z" style="fill:#fcd561"/>
            <path d="M107.92,47.83A4.23,4.23,0,0,1,104.79,51a4.22,4.22,0,0,1-4.6-6.26,4.23,4.23,0,0,1,2.65-1.95,56.37,56.37,0,0,1,4.24,4.12Q107.52,47.37,107.92,47.83Z" style="fill:#1c6df6"/>
            <path d="M107.44,32.39a2.57,2.57,0,0,0-.1.49,7.39,7.39,0,0,0-4.06,2.41,21.14,21.14,0,0,0-3.3,4.63l-.37-.24a17.83,17.83,0,0,1,5.4-6.39A5.45,5.45,0,0,1,107.44,32.39Z" style="fill:#69a4fc"/>
            <path d="M105.09,51.25l-.5.21-.16-.14-.27-.23a5.55,5.55,0,0,0,.63-.1Z" style="fill:#fcd561"/>
            <path d="M98.88,43.87a36,36,0,0,1,3.28-1.66l.37.31A33.83,33.83,0,0,0,99,44.28C99.15,44.2,99,43.8,98.88,43.87Z" style="fill:#e84343"/>
            <path d="M99.74,40.35c.05,0-.52.82-1.48,3.28,0,0,0,0-.06,0a.68.68,0,0,1-.32-.11l0,0a32.91,32.91,0,0,1,1.54-3.38Z" style="fill:#69a4fc"/>
            <path d="M99.61,46.57c-.55-.61-1-1.21-1.49-1.75l.42-.26s.12.19,1.16,1.38A4.08,4.08,0,0,0,99.61,46.57Z" style="fill:#fcd561"/>
            <path d="M92.22,51.44a1.34,1.34,0,0,0-.41.28c-.17-1.33.85-2.79,1.76-3.78A21.34,21.34,0,0,1,98,44.42l.93-.55c.13,0,.24.31.14.4l-1,.57a2.22,2.22,0,0,1-.34.22s-.57.37-.59.4a15.32,15.32,0,0,0-4.36,4.16A3.45,3.45,0,0,0,92.22,51.44Z" style="fill:#e84343"/>
            <path d="M98.28,44.23l.22-.14-.54.33.15-.4Z" style="fill:#fcd561"/>
            <path d="M97.84,43.49l0,0a.68.68,0,0,0,.32.11s0,0,.06,0l-.3.79-.59.38s0,.05.1-.32S97.71,43.82,97.84,43.49Z" style="fill:#69a4fc"/>
            <path d="M97.25,42.86c0-.06-.09-.1.55.75-.12.29-.19.5-.21.53-.26-.34-.51-.68-.76-1,0,0,0,0,0,0C97.05,43.27,97.34,43,97.25,42.86Z" style="fill:#fcd561"/>
            <path d="M95.71,53.47a29,29,0,0,1,1.44-8s.55-.37.58-.39a30.55,30.55,0,0,0-1.57,8.4Z" style="fill:#69a4fc"/>
            <path d="M94.88,53.4l-.15,0a.33.33,0,0,0-.13.47h.14a1.86,1.86,0,0,1-3.37,0l0-.1a1.86,1.86,0,0,1,1.29-2.51,1.86,1.86,0,0,1,2.26,2.11Z" style="fill:#feb30f"/>
            <path d="M94.5,53a1.86,1.86,0,0,1-3.13.86l0-.1a1.85,1.85,0,0,1,3-2A1.81,1.81,0,0,1,94.5,53Z" style="fill:#fbc22c"/>
            <path d="M106.76,52.28c.07,0,0,0,0,0Z" style="fill:#1c6df6"/>
            <path d="M107.08,46.9q.44.47.84.93A4.23,4.23,0,0,1,104.79,51a4.24,4.24,0,0,1-4.31-1.52c1.22.45,3.17.93,4.61.16A4,4,0,0,0,107.08,46.9Z" style="fill:#0b45b2"/>
            <path d="M108,47.2c-.27-.3-.54-.6-.83-.9a5.28,5.28,0,0,0-.17-2.16A4.16,4.16,0,0,1,108,47.2Z" style="fill:#0b45b2"/>
            <circle cx="102.34" cy="45.44" r="0.85" style="fill:#69a4fc"/>
            <circle cx="108.25" cy="32.61" r="0.33" style="fill:#fc9f9c"/>
            <path d="M93.05,52.61a.49.49,0,1,1-.49-.49A.49.49,0,0,1,93.05,52.61Z" style="fill:#fceab2"/>
            <path d="M46.58,14.46a.49.49,0,0,1-.47-.36L42.27,1.62A.51.51,0,0,1,42.6,1a.5.5,0,0,1,.63.34l3.83,12.48a.51.51,0,0,1-.33.63Z" style="fill:#c6dffd"/>
            <path d="M81.2,35.48a.49.49,0,0,1-.48-.36L76.65,21.69a.5.5,0,0,1,1-.29l4.07,13.44a.5.5,0,0,1-.34.62Z" style="fill:#c6dffd"/>
            <g id="Axo_Extrusion-3" data-name="Axo Extrusion">
                <path id="Axo_panel_" data-name="Axo panel*" d="M49.46,52.92c0,3.55,5,6.43,11.15,6.43s11.14-2.88,11.14-6.43V54c0,3.56-5,6.44-11.14,6.44S49.46,57.55,49.46,54Z" style="fill:#3e85f4"/>
                <path id="Axo_base-3" data-name="Axo base" d="M49.46,52.92c0-3.55,5-6.43,11.15-6.43s11.14,2.88,11.14,6.43-5,6.43-11.14,6.43S49.46,56.47,49.46,52.92Z" style="fill:#71aaf9"/>
            </g>
            <path d="M54.56,21.43c0,5.69-5,8.61-11.1,8.61s-11.1-3-11.1-8.61c0-3.54,5-6.41,11.1-6.41S54.56,17.89,54.56,21.43Z" style="fill:#0b45b2"/>
            <ellipse cx="43.46" cy="21.43" rx="11.1" ry="6.41" style="fill:#71aaf9"/>
            <path d="M53.58,21.41c0,3.24-4.53,5.86-10.12,5.86-4.56,0-8.42-1.75-9.68-4.15a3.6,3.6,0,0,1-.43-1.69c0-3.23,4.52-5.84,10.11-5.84S53.57,18.19,53.58,21.41Z" style="fill:#3e85f4"/>
            <path d="M88.08,40.78c0,5.69-5,8.61-11.1,8.61s-11.1-3-11.1-8.61c0-3.54,5-6.41,11.1-6.41S88.08,37.24,88.08,40.78Z" style="fill:#0b45b2"/>
            <ellipse cx="76.98" cy="40.78" rx="11.1" ry="6.41" style="fill:#71aaf9"/>
            <path d="M87.1,40.76c0,3.24-4.53,5.86-10.12,5.86-4.57,0-8.42-1.75-9.68-4.15a3.61,3.61,0,0,1-.44-1.69c0-3.23,4.53-5.84,10.12-5.84S87.09,37.54,87.1,40.76Z" style="fill:#3e85f4"/>
            <g id="Axo_Extrusion-4" data-name="Axo Extrusion">
                <g id="Axo_Surface_3" data-name="Axo Surface*">
                    <polygon id="Axo_panel-7" data-name="Axo panel" points="70.11 38.76 75.34 41.78 75.34 45.81 70.11 42.79 70.11 38.76" style="fill:#fcdc79"/>
                    <polygon id="Axo_panel-8" data-name="Axo panel" points="75.34 41.78 80.57 38.76 80.57 42.79 75.34 45.81 75.34 41.78" style="fill:#fcd96e"/>
                </g>
                <polygon id="Axo_base-4" data-name="Axo base" points="70.11 38.76 75.34 35.74 80.57 38.76 75.34 41.78 70.11 38.76" style="fill:#ffe856"/>
            </g>
            <g id="Axo_Extrusion-5" data-name="Axo Extrusion">
                <path id="Axo_panel_2" data-name="Axo panel*" d="M58.39,13.32c0,.67.94,1.21,2.09,1.21s2.09-.54,2.09-1.21L61.84,17l.73,34.77c0,.67-.93,1.21-2.09,1.21s-2.09-.54-2.09-1.21L59.16,17Z" style="fill:#abd0fc"/>
                <path d="M77.47,21.76s-2.3.66-3.45-.1-5.84-5.36-8.79-7a10.68,10.68,0,0,0-2.73-1,2.24,2.24,0,0,1-2,.89c-1.16,0-2.09-.54-2.09-1.21a11.62,11.62,0,0,0-3.68-4.7c-3-1.8-7.64-2.61-8.79-3.18s-3.45-3.89-3.45-3.89c-.06-.37,0-.56.05-.61.4-.23,2.17,2.75,3,3.22,1,.57,2.38-.33,5.17,0S57.91,8.1,57.91,8.1L60,3,62,10.47a22.34,22.34,0,0,1,7.23,4.46c2.79,2.84,4.19,5.36,5.18,5.93S77.79,20,77.47,21.76Z" style="fill:#c6dffd"/>
            </g>
            <g id="Axo_Extrusion-6" data-name="Axo Extrusion">
                <path d="M58.62,7.69l-.71.41s-4.43-3.51-7.23-3.89-4.19.52-5.17,0c-.82-.47-2.59-3.45-3-3.22l.7-.4c.4-.23,2.18,2.74,3,3.21,1,.57,2.39-.33,5.18,0S58.62,7.69,58.62,7.69Z" style="fill:#e5effa"/>
                <polygon points="60.67 2.58 59.97 2.98 57.91 8.1 58.62 7.69 60.67 2.58" style="fill:#ddecfd"/>
                <polygon points="62.73 10.06 62.02 10.47 59.97 2.98 60.67 2.58 62.73 10.06" style="fill:#ddecfd"/>
                <path d="M78.17,21.35l-.7.41c.32-1.81-2.06-.34-3-.9S72,17.77,69.25,14.93A22.34,22.34,0,0,0,62,10.47l.7-.41A22.44,22.44,0,0,1,70,14.52c2.79,2.85,4.18,5.36,5.17,5.93S78.5,19.55,78.17,21.35Z" style="fill:#e5effa"/>
            </g>
            <path d="M48.46,27.32a.5.5,0,0,1-.49-.39l-5.4-24L33.35,21.27a.51.51,0,0,1-.67.22.49.49,0,0,1-.22-.67L42.93,0l6,26.71a.5.5,0,0,1-.38.6Z" style="fill:#c6dffd"/>
            <path d="M81.77,46.82a.5.5,0,0,1-.49-.4L76.6,23.09,66.8,41.43a.49.49,0,0,1-.67.2.49.49,0,0,1-.21-.67L77,20.16l5.23,26.06a.49.49,0,0,1-.39.59Z" style="fill:#c6dffd"/>
            <path d="M41.9,85.32a2.45,2.45,0,0,1,.14-.38,5,5,0,0,1,.85-1.4,4.83,4.83,0,0,1,1.21-1,4.16,4.16,0,0,1,1.27-.47,4.26,4.26,0,0,1,1.15,0,6.9,6.9,0,0,1,2.59.93,8.57,8.57,0,0,1,1.73,1.14,5.2,5.2,0,0,1,.72.8,9.3,9.3,0,0,1,.56.94,2.94,2.94,0,0,0,.63.85,5.35,5.35,0,0,0,1.09.77,1.72,1.72,0,0,0,1.28.28,5.49,5.49,0,0,1,1.81.13,7.79,7.79,0,0,1,2,.85c.29.17.55.36.69.46a6.85,6.85,0,0,1,1.44,1.4,4.19,4.19,0,0,1,.74,1.56,3.76,3.76,0,0,1,.09.86,4.59,4.59,0,0,1-.45,1.87,5.11,5.11,0,0,1-1.43,1.85,2.79,2.79,0,0,1-.56.36,3.85,3.85,0,0,1-2.52.42,7.7,7.7,0,0,1-3.07-1.23,6,6,0,0,1-2.26-2.56,1.78,1.78,0,0,0-.92-1A3.65,3.65,0,0,0,48.51,92a6,6,0,0,1-1.82-.15,6.45,6.45,0,0,1-1.61-.7s-.53-.31-1.09-.69a8.5,8.5,0,0,1-.75-.58,5.18,5.18,0,0,1-.87-.94,4,4,0,0,1-.55-1.17A4.42,4.42,0,0,1,41.9,85.32ZM59.84,96.74l.17-.1a4.4,4.4,0,0,0,1.81-3.33,2,2,0,0,0,0-.25,1.13,1.13,0,0,0-1.69-1,1.92,1.92,0,0,0-.29.14A4.42,4.42,0,0,0,57.92,95a2.68,2.68,0,0,0-.07.62C57.85,96.86,58.75,97.37,59.84,96.74Z" style="fill:#fc5552"/>
            <path d="M53.41,90.28s1.07-.43,3.33.47A2,2,0,0,1,58,93.32a2.25,2.25,0,0,1-3,.34C53.75,92.8,52.84,91.1,53.41,90.28Z" style="fill:#f66"/>
            <path d="M44.1,84.29c.63-.94,2.36-.63,4.11.64,2.36,1.71,2.54,3.24,2.2,3.76s-3.57-.45-4.58-1.3C44.4,86.18,43.63,85,44.1,84.29Z" style="fill:#f66"/>
            <path d="M41.82,87.8A4,4,0,0,0,42.37,89a5.18,5.18,0,0,0,.87.94,8.5,8.5,0,0,0,.75.58c.56.38,1.09.69,1.09.69a6.45,6.45,0,0,0,1.61.7,6,6,0,0,0,1.82.15,3.65,3.65,0,0,1,2.22.66,1.78,1.78,0,0,1,.92,1,6,6,0,0,0,2.26,2.56A7.7,7.7,0,0,0,57,97.48a3.85,3.85,0,0,0,2.52-.42,2.79,2.79,0,0,0,.56-.36l-1.25-1.62s-.66,1.72-1.19,1.65a11.51,11.51,0,0,1-4.25-1.86c-1.55-1.09-1.51-3.39-1.15-4.4a3.24,3.24,0,0,1,3.92-2,8,8,0,0,1,4.65,3.13A2.82,2.82,0,0,1,61,93.55l1-.57a3.76,3.76,0,0,0-.09-.86,4.19,4.19,0,0,0-.74-1.56,6.85,6.85,0,0,0-1.44-1.4c-.14-.1-.4-.29-.69-.46a7.79,7.79,0,0,0-2-.85,5.49,5.49,0,0,0-1.81-.13,1.72,1.72,0,0,1-1.28-.28,5.35,5.35,0,0,1-1.09-.77,2.94,2.94,0,0,1-.63-.85,9.3,9.3,0,0,0-.56-.94,5.2,5.2,0,0,0-.72-.8,8.57,8.57,0,0,0-1.73-1.14A6.9,6.9,0,0,0,46.52,82a4.26,4.26,0,0,0-1.15,0,8.37,8.37,0,0,1,3.88,1.71c2.74,2.07,3.71,4.6,2.82,6-1.67,2.62-6.08.65-6.84.23-4-2.19-3.3-4.5-3.33-4.67A4.42,4.42,0,0,0,41.82,87.8Z" style="fill:#e84343"/>
            <path d="M57.85,95.6c0,1.26.9,1.77,2,1.14a4.34,4.34,0,0,0,2-3.43c0-1.26-.89-1.77-2-1.14A4.38,4.38,0,0,0,57.85,95.6Z" style="fill:#e84343"/>
            <path d="M59.55,95a.33.33,0,0,0,.17.33l13.15,7.61,3.89,2.83,2.85.86,1.22-.7-1.4-1.5-5.15-2.31-13.87-8a.43.43,0,0,0-.36,0A1.14,1.14,0,0,0,59.55,95Z" style="fill:#69a4fc"/>
            <path d="M59.55,95c0,.17.06.29.17.33l13.15,7.14,3.89,2.84,2.85,1.31,1.22-.7-1.4-2-5.15-2.31L60.41,94.1a.43.43,0,0,0-.36,0A1.14,1.14,0,0,0,59.55,95Z" style="fill:#99c1fd"/>
            <path d="M80.33,105.92s-.1.31-.68.33a11.45,11.45,0,0,1-2.58-1l-3.65-2.52s2.66,1.58,3.46,2.1S79.13,106.36,80.33,105.92Z" style="fill:#fff"/>
            <path d="M97.9,84.65,98,91.09a2.29,2.29,0,0,0,1.25-.3l13.24-7.64a.83.83,0,0,0,.42-.73V76Z" style="fill:#fc5552"/>
            <path d="M69.09,67.81v6.37a.85.85,0,0,0,.42.73L97,90.79a2.16,2.16,0,0,0,1,.3v-7L74.57,70.53Z" style="fill:#e84343"/>
            <path d="M99.26,84.35l13.24-7.64a.84.84,0,0,0,0-1.45L85,59.37a2.3,2.3,0,0,0-2.3,0L69.51,67a.83.83,0,0,0,0,1.44L97,84.35A2.29,2.29,0,0,0,99.26,84.35Z" style="fill:#fc7464"/>
            <polygon points="84.46 60.45 90.17 63.74 76.97 71.36 71.26 68.07 84.46 60.45" style="fill:#e84343"/>
            <polygon points="76.98 71.12 89.04 64.16 84.45 61.51 72.39 68.47 76.98 71.12" style="fill:#1c6df6"/>
            <path d="M86.3,74.75a10.73,10.73,0,0,0,9.7,0c2.69-1.55,2.7-4.06,0-5.6a10.7,10.7,0,0,0-9.7,0C83.64,70.7,83.63,73.21,86.3,74.75Z" style="fill:#fc5552"/>
            <path d="M87.19,75a8.76,8.76,0,0,0,7.93,0c2.2-1.27,2.21-3.32,0-4.58a8.73,8.73,0,0,0-7.93,0C85,71.71,85,73.76,87.19,75Z" style="fill:#e84343"/>
            <path d="M96.35,82.08a2.43,2.43,0,0,0,2.21,0c.61-.35.62-.92,0-1.27a2.43,2.43,0,0,0-2.21,0A.67.67,0,0,0,96.35,82.08Z" style="fill:#202a5f"/>
            <path d="M96.55,82.14a2,2,0,0,0,1.81,0,.56.56,0,0,0,0-1,2,2,0,0,0-1.81,0C96.06,81.38,96.05,81.85,96.55,82.14Z" style="fill:#0e173d"/>
            <path d="M95.67,74.91s1-.54.56-.81L88,70.16a1.72,1.72,0,0,0-1.57-.06l-.39-.79c-.4.23-.08,1.49.39,1.76l7.67,4.43A12.7,12.7,0,0,0,95.67,74.91Z" style="fill:#fc5552"/>
            <path d="M95.88,74.73l.11-.07c.41-.23.35-.64-.11-.91a17.26,17.26,0,0,0-4-3A15.53,15.53,0,0,0,88,69.22a1.75,1.75,0,0,0-1.57-.07l-.12.07c-.4.23-.35.64.12.9a34.52,34.52,0,0,1,4.13,1.68,12.71,12.71,0,0,1,3.73,2.86A1.75,1.75,0,0,0,95.88,74.73Z" style="fill:#fc7464"/>
            <polygon points="96.26 79.45 96.26 77.94 93.9 81.02 94.13 82.29 96.26 79.45" style="fill:#5195fb"/>
            <polygon points="96.26 77.94 95.13 77.38 92.94 80.43 93.9 81.02 96.26 77.94" style="fill:#81b2fc"/>
            <polygon points="94.13 82.29 93.31 82.86 93.31 82.5 93.9 81.02 94.13 82.29" style="fill:#1c6df6"/>
            <polygon points="92.94 80.43 93.9 81.02 93.31 82.5 92.58 82.08 92.94 80.43" style="fill:#5195fb"/>
            <polygon points="92.58 82.5 92.58 82.08 93.31 82.5 93.31 82.86 92.58 82.5" style="fill:#5195fb"/>
            <polygon points="94.13 78.03 94.13 76.51 91.77 79.59 91.99 80.87 94.13 78.03" style="fill:#c02106"/>
            <polygon points="94.13 76.51 92.99 75.96 90.81 79 91.77 79.59 94.13 76.51" style="fill:#fc5552"/>
            <polygon points="91.99 80.87 91.17 81.44 91.17 81.07 91.77 79.59 91.99 80.87" style="fill:#fc5552"/>
            <polygon points="90.81 79 91.77 79.59 91.17 81.07 90.45 80.66 90.81 79" style="fill:#c02106"/>
            <polygon points="90.45 81.07 90.45 80.66 91.17 81.07 91.17 81.44 90.45 81.07" style="fill:#fc5552"/>
            <path d="M38,59.78l4.39,2.54v-.76l-4.21-2.43c-.16-.09-.47-.1-.47.11A.67.67,0,0,0,38,59.78Z" style="fill:#c9defe"/>
            <g style="isolation:isolate">
                <path d="M42.8,61.42c0-.41-.27-.57-.62-.38a1.37,1.37,0,0,0-.64,1.07c0,.41.28.58.62.38A1.37,1.37,0,0,0,42.8,61.42Z" style="fill:#ff8980"/>
                <path d="M44.78,65.31a.82.82,0,0,0,1,0A2.74,2.74,0,0,0,47,63.16L42.8,61.42a1.37,1.37,0,0,1-.64,1.07.4.4,0,0,1-.48,0Z" style="fill:#ff8980"/>
                <path d="M42.56,61c.15,0,.24.2.24.44L47,63.16a.82.82,0,0,0-.48-.88Z" style="fill:#ff8980"/>
                <path d="M46.54,62.28l-4-1.3a.45.45,0,0,0-.38.06,1.37,1.37,0,0,0-.64,1.07.46.46,0,0,0,.14.38l3.1,2.82a1,1,0,0,1-.26-.75,2.74,2.74,0,0,1,1.27-2.15A.94.94,0,0,1,46.54,62.28Z" style="fill:#fc5552"/>
                <path d="M45.75,65.41c-.73.41-1.32,0-1.31-.81a2.92,2.92,0,0,1,1.35-2.29c.74-.41,1.33-.05,1.32.8A2.94,2.94,0,0,1,45.75,65.41ZM47,63.16c0-.8-.54-1.14-1.23-.75a2.74,2.74,0,0,0-1.27,2.15c0,.8.54,1.13,1.23.75A2.74,2.74,0,0,0,47,63.16Z" style="fill:#ff8980"/>
                <path d="M47.12,61.85a.61.61,0,0,0-.21-.09l-.24,0a1.32,1.32,0,0,0-.53.11,1.91,1.91,0,0,0-.54.3,3.74,3.74,0,0,0-.51.47,3.42,3.42,0,0,0-.22.28l-.1.15-.1.16-.09.15-.15.33a2.28,2.28,0,0,0-.12.33,2.57,2.57,0,0,0-.1,1.31,1.31,1.31,0,0,0,.15.38,1,1,0,0,0,.25.28l.14.08a.25.25,0,0,0,.09,0l.13,0,.25,0,.23,0a1.78,1.78,0,0,0,.4-.13,2.1,2.1,0,0,0,.42-.26l.26-.21.12-.12.23-.27a2.17,2.17,0,0,0,.21-.29,3.23,3.23,0,0,0,.26-.47,3.09,3.09,0,0,0,.14-.32l.06-.17,0-.17c0-.1,0-.23.07-.33s0-.12,0-.17a.81.81,0,0,1,0-.16s0-.06-.07-.09-.38.06-.51.13a2.94,2.94,0,0,1-1.36,2.3c-.73.41-1.32,0-1.31-.81a2.92,2.92,0,0,1,1.35-2.29c.74-.41,1.33-.05,1.32.8.13-.07.4-.19.51-.13s.07.06.07.09a1.66,1.66,0,0,0,0-.34,1.22,1.22,0,0,0-.06-.26.78.78,0,0,0-.05-.14A1,1,0,0,0,47.12,61.85Z" style="fill:#ff8980"/>
                <path d="M46.07,65.59c-.74.41-1.33,0-1.32-.81a3,3,0,0,1,1.35-2.29c.74-.41,1.33-.05,1.32.8A3,3,0,0,1,46.07,65.59Zm1.27-2.25c0-.8-.55-1.14-1.24-.75a2.75,2.75,0,0,0-1.27,2.15c0,.8.55,1.13,1.24.75A2.77,2.77,0,0,0,47.34,63.34Z" style="fill:#ff8980"/>
                <path d="M47.69,63.07c0-.09,0-.21,0-.3a.66.66,0,0,0,0-.15.92.92,0,0,0-.08-.26.75.75,0,0,0-.06-.13l-.13-.18-.1-.1a.78.78,0,0,0-.15-.1.83.83,0,0,0-.21-.09.89.89,0,0,0-.22,0h-.14l-.14,0-.13,0-.14,0-.26.12-.28.18-.13.1-.26.24a4,4,0,0,0-.44.56c-.1.15-.16.27-.19.31s-.08.16-.15.33a2.39,2.39,0,0,0-.12.33c0,.13,0,.14-.09.34a3.26,3.26,0,0,0-.06.5,3,3,0,0,0,0,.31c0,.1,0,.11.06.27a1.12,1.12,0,0,0,.17.35,1.25,1.25,0,0,0,.16.17l.09.06.13.07.14.06.11,0h.15l.23,0,.16,0a2,2,0,0,0,.41-.17l.27-.18.14-.11.25-.23.23-.27.21-.29.18-.3a3.31,3.31,0,0,0,.15-.33l.07-.16a4,4,0,0,0,.14-.5,2.76,2.76,0,0,0,.06-.5c0,.07-.14.15-.27.22a3,3,0,0,1-1.35,2.3c-.74.41-1.33,0-1.32-.81a3,3,0,0,1,1.35-2.29c.74-.41,1.33-.05,1.32.8C47.55,63.22,47.69,63.14,47.69,63.07Z" style="fill:#fc7464"/>
                <path d="M50.58,68.93a1,1,0,0,0,1-.07A3.07,3.07,0,0,0,53,66.46l-5.64-3.12a2.77,2.77,0,0,1-1.27,2.15.88.88,0,0,1-.89.06Z" style="fill:#ff8980"/>
                <path d="M47,62.5a.89.89,0,0,1,.39.84L53,66.46a1,1,0,0,0-.42-.94Z" style="fill:#ff8980"/>
                <path d="M52.56,65.52,47,62.5a.89.89,0,0,0-.85.09,2.75,2.75,0,0,0-1.27,2.15.9.9,0,0,0,.35.81l5.4,3.38a1,1,0,0,1-.39-.91,3.06,3.06,0,0,1,1.42-2.41A1,1,0,0,1,52.56,65.52Z" style="fill:#fc5552"/>
                <path d="M66.24,76.7a.43.43,0,0,0,.39,0,1.3,1.3,0,0,0,.59-1L53,66.46a3.07,3.07,0,0,1-1.41,2.4,1,1,0,0,1-.94.1Z" style="fill:#ff8980"/>
                <path d="M52.61,65.55a1,1,0,0,1,.37.91l14.24,9.2a.44.44,0,0,0-.16-.38Z" style="fill:#ff8980"/>
                <path d="M67.22,75.66c0-.38-.26-.53-.58-.35a1.29,1.29,0,0,0-.59,1c0,.37.25.53.58.35A1.3,1.3,0,0,0,67.22,75.66Z" style="fill:#ff8980"/>
                <path d="M67.06,75.28,52.61,65.55a.94.94,0,0,0-1,.06A3.06,3.06,0,0,0,50.19,68a1,1,0,0,0,.44.94L66.24,76.7a.4.4,0,0,1-.19-.39,1.29,1.29,0,0,1,.59-1A.38.38,0,0,1,67.06,75.28Z" style="fill:#e84343"/>
            </g>
            <path d="M33.11,64.19l4.39,2.54V66l-4.21-2.43c-.15-.09-.46-.1-.46.11A.66.66,0,0,0,33.11,64.19Z" style="fill:#c9defe"/>
            <g style="isolation:isolate">
                <path d="M37.5,65.56c0-.4-.27-.57-.62-.38a1.4,1.4,0,0,0-.63,1.08c0,.4.27.57.62.38A1.4,1.4,0,0,0,37.5,65.56Z" style="fill:#009fbd"/>
                <path d="M39.49,69.45a.8.8,0,0,0,1,0,2.73,2.73,0,0,0,1.27-2.14L37.5,65.56a1.4,1.4,0,0,1-.63,1.08.41.41,0,0,1-.49,0Z" style="fill:#009fbd"/>
                <path d="M37.26,65.12a.42.42,0,0,1,.24.44l4.23,1.75c0-.47-.19-.79-.48-.88Z" style="fill:#009fbd"/>
                <path d="M41.25,66.43l-4-1.31a.5.5,0,0,0-.38.06,1.4,1.4,0,0,0-.63,1.08.45.45,0,0,0,.13.38l3.11,2.81a1,1,0,0,1-.27-.75,2.77,2.77,0,0,1,1.27-2.15A1,1,0,0,1,41.25,66.43Z" style="fill:#5195fb"/>
                <path d="M40.46,69.55c-.74.41-1.33,0-1.32-.8a3,3,0,0,1,1.35-2.3c.74-.41,1.33,0,1.32.81A3,3,0,0,1,40.46,69.55Zm1.27-2.24c0-.8-.55-1.14-1.24-.76a2.77,2.77,0,0,0-1.27,2.15c0,.8.55,1.14,1.24.75A2.73,2.73,0,0,0,41.73,67.31Z" style="fill:#009fbd"/>
                <path d="M41.82,66a2.26,2.26,0,0,0-.21-.09,1,1,0,0,0-.24,0,1.4,1.4,0,0,0-.53.1,2.43,2.43,0,0,0-.54.3,3.61,3.61,0,0,0-.51.48l-.22.28-.1.15a.75.75,0,0,0-.09.15,1.29,1.29,0,0,0-.09.16s-.08.14-.16.32-.08.22-.12.34a2.65,2.65,0,0,0-.1,1.3,1.57,1.57,0,0,0,.15.39,1,1,0,0,0,.25.27.67.67,0,0,0,.14.09l.09,0,.14,0a.74.74,0,0,0,.24,0,1,1,0,0,0,.24,0,1.32,1.32,0,0,0,.4-.13A2.52,2.52,0,0,0,41,69.9l.26-.22a.68.68,0,0,0,.12-.12l.23-.26.21-.29a3.89,3.89,0,0,0,.26-.47c.05-.1.1-.23.14-.33l.06-.16a1.09,1.09,0,0,1,0-.17c0-.1.05-.24.06-.34a1,1,0,0,0,0-.17.86.86,0,0,0,0-.16s0-.06-.07-.08-.37.05-.51.13a3,3,0,0,1-1.35,2.29c-.74.41-1.33,0-1.32-.8a3,3,0,0,1,1.35-2.3c.74-.41,1.33,0,1.32.81.14-.08.4-.2.51-.13s.07.05.07.08a2.4,2.4,0,0,0,0-.33c0-.08,0-.19-.06-.26l-.06-.14A1.07,1.07,0,0,0,41.82,66Z" style="fill:#009fbd"/>
                <path d="M40.77,69.73c-.74.41-1.33,0-1.32-.8a2.92,2.92,0,0,1,1.36-2.29c.73-.42,1.32-.06,1.31.8A2.91,2.91,0,0,1,40.77,69.73ZM42,67.49c0-.8-.54-1.14-1.24-.76a2.76,2.76,0,0,0-1.26,2.15c0,.8.54,1.14,1.23.75A2.73,2.73,0,0,0,42,67.49Z" style="fill:#5195fb"/>
                <path d="M42.39,67.21c0-.09,0-.21,0-.3a.89.89,0,0,0,0-.15c0-.1,0-.1-.09-.26a.75.75,0,0,0-.06-.13l-.13-.17a.47.47,0,0,0-.1-.1.83.83,0,0,0-.15-.11l-.21-.09-.22,0h-.14l-.14,0-.13,0-.14,0-.26.12-.28.18-.13.11-.26.24a4.36,4.36,0,0,0-.44.56,2.83,2.83,0,0,0-.18.31c-.07.12-.08.16-.16.32,0,0-.06.16-.12.34a3.32,3.32,0,0,0-.09.33,3.52,3.52,0,0,0-.05.51c0,.09,0,.21,0,.3s0,.12.06.28a1.26,1.26,0,0,0,.18.34.53.53,0,0,0,.16.18l.08.06.13.07.15,0,.1,0,.15,0,.24,0,.15,0a2.35,2.35,0,0,0,.41-.18l.27-.17.14-.11a2,2,0,0,0,.25-.24c.11-.11.16-.18.23-.26l.21-.29A2,2,0,0,0,42,68.7a2.82,2.82,0,0,0,.16-.32l.06-.17a3.5,3.5,0,0,0,.14-.5,2,2,0,0,0,.06-.5c0,.08-.14.16-.27.23a2.91,2.91,0,0,1-1.35,2.29c-.74.41-1.33,0-1.32-.8a2.92,2.92,0,0,1,1.36-2.29c.73-.42,1.32-.06,1.31.8C42.25,67.37,42.39,67.29,42.39,67.21Z" style="fill:#99c1fd"/>
                <path d="M45.28,73.08a1,1,0,0,0,1-.08,3.07,3.07,0,0,0,1.42-2.4L42,67.49a2.73,2.73,0,0,1-1.27,2.14.86.86,0,0,1-.89.07Z" style="fill:#009fbd"/>
                <path d="M41.66,66.65a.89.89,0,0,1,.38.84l5.65,3.11a1,1,0,0,0-.43-.93Z" style="fill:#009fbd"/>
                <path d="M47.26,69.67l-5.6-3a.91.91,0,0,0-.86.08,2.76,2.76,0,0,0-1.26,2.15.89.89,0,0,0,.34.82l5.4,3.38a1,1,0,0,1-.39-.92,3.06,3.06,0,0,1,1.42-2.4A1,1,0,0,1,47.26,69.67Z" style="fill:#69a4fc"/>
                <path d="M60.94,80.85a.41.41,0,0,0,.39,0,1.29,1.29,0,0,0,.59-1L47.69,70.6A3.07,3.07,0,0,1,46.27,73a1,1,0,0,1-.93.11Z" style="fill:#009fbd"/>
                <path d="M47.32,69.7a1,1,0,0,1,.37.9l14.23,9.2a.43.43,0,0,0-.15-.37Z" style="fill:#009fbd"/>
                <path d="M61.92,79.8c0-.37-.25-.53-.57-.35a1.29,1.29,0,0,0-.6,1c0,.37.26.53.58.35A1.29,1.29,0,0,0,61.92,79.8Z" style="fill:#1c6df6"/>
                <path d="M61.77,79.43,47.32,69.7a1,1,0,0,0-1,.06,3.06,3.06,0,0,0-1.42,2.4,1,1,0,0,0,.45,1l15.6,7.74a.41.41,0,0,1-.19-.4,1.29,1.29,0,0,1,.6-1A.4.4,0,0,1,61.77,79.43Z" style="fill:#5195fb"/>
            </g>
            <path d="M98.06,103.4a8.41,8.41,0,0,1-1.82-.21h-.06a17.45,17.45,0,0,1-8.05-2.81,7.87,7.87,0,0,1-4.19-5.84,11.56,11.56,0,0,1,1-5.85C81.2,86.75,66.52,76.28,66.48,76.26l.3-.55S81.48,86.19,85.2,88.12a30.87,30.87,0,0,1,5.47-7.82l.44.43a31.53,31.53,0,0,0-5.34,7.68c2.66,1.37,5.87,3,9.23,4.6,3.85,1.85,6.39,4.35,6.78,6.68a2.91,2.91,0,0,1-.8,2.66A4,4,0,0,1,98.06,103.4ZM88.44,92.05a16.18,16.18,0,0,1,9.65,4c1.92,1.58,2.77,3.5,2.2,5a2.93,2.93,0,0,1-1.62,1.66,3.15,3.15,0,0,0,1.87-.85,2.29,2.29,0,0,0,.63-2.11c-.36-2.11-2.83-4.49-6.44-6.23C91.38,92,88.17,90.35,85.52,89a10.83,10.83,0,0,0-1,5.47,7.3,7.3,0,0,0,3.88,5.38,23.47,23.47,0,0,0,4.14,2,21.42,21.42,0,0,1-5.23-3.74,8.8,8.8,0,0,1-2-2.78,2.08,2.08,0,0,1,.3-2.42A4,4,0,0,1,88.44,92.05Zm7.81,10.51c1.77,0,3-.58,3.46-1.67.46-1.27-.31-2.92-2-4.33-5.27-4.33-10.43-4.41-11.6-3.24a1.52,1.52,0,0,0-.17,1.75,8.21,8.21,0,0,0,1.87,2.56A19.71,19.71,0,0,0,96.25,102.56Z" style="fill:#fc9f9c"/>
            <path d="M98.53,104.76h-.19c-2.21-.05-5.13-1.09-8.22-2.92A7.79,7.79,0,0,1,86,96a10.22,10.22,0,0,1,.49-4.29c-6.66-1.55-25-11.29-25.12-11.3l.06-.62c.1,0,18.53,9.75,25.26,11.32,1.74-4.82,5.95-9,6.18-9.28l.44.44c0,.06-4.25,4.28-6,9a51.45,51.45,0,0,1,9.89,3.29c3.8,1.82,6.31,4.3,6.7,6.63a3,3,0,0,1-.81,2.7,4,4,0,0,1-3.37.76A7,7,0,0,1,98.53,104.76ZM90.67,93.68a15.82,15.82,0,0,1,9.58,4c1.92,1.58,2.77,3.5,2.21,5a2.86,2.86,0,0,1-1.12,1.38,2.21,2.21,0,0,0,1.27-.58,2.38,2.38,0,0,0,.64-2.16c-.36-2.09-2.8-4.46-6.36-6.17a51.41,51.41,0,0,0-9.82-3.26A9.59,9.59,0,0,0,86.58,96a7.23,7.23,0,0,0,3.86,5.36A21.31,21.31,0,0,0,96.92,104c-4.21-1.5-9.29-5.06-9.78-7.65a1.85,1.85,0,0,1,.69-1.9A4.71,4.71,0,0,1,90.67,93.68Zm0,.63a4.08,4.08,0,0,0-2.45.6,1.24,1.24,0,0,0-.47,1.29c.43,2.27,5.51,6,10,7.4a12,12,0,0,0,1.87.43,2.68,2.68,0,0,0,2.2-1.58c.47-1.26-.3-2.92-2-4.32A15.19,15.19,0,0,0,90.67,94.31Z" style="fill:#81b2fc"/>
        </g>
    </g>
</svg>
