<svg width="341" height="141" viewBox="0 0 341 141" fill="none" xmlns="http://www.w3.org/2000/svg">
<rect width="340.843" height="141" rx="22.2047" fill="#4455D7"/>
<path fill-rule="evenodd" clip-rule="evenodd" d="M0 117.758C0.00238468 118.5 0.0411219 119.233 0.114523 119.955C1.2495 131.131 10.6724 139.857 22.1401 139.89H318.702C330.936 139.855 340.842 129.927 340.842 117.685V117.645L0 55.5117V117.758Z" fill="#424A9A"/>
<path d="M211.591 71C210.719 71 209.933 70.8141 209.235 70.4422C208.544 70.0855 207.986 69.5732 207.561 68.9053C207.463 68.7535 207.364 68.56 207.265 68.3247C207.182 68.1274 207.117 67.9111 207.072 67.6758C207.019 67.4481 206.977 67.1825 206.947 66.8789C206.924 66.6664 206.913 66.3287 206.913 65.8657V58.1016H211.831V63.6002C211.831 64.511 211.891 65.1067 212.013 65.3876C212.149 65.8733 212.696 66.1199 213.652 66.1275H222.714C223.67 66.1199 224.22 65.8733 224.365 65.3876C224.486 65.1067 224.547 64.511 224.547 63.6002V57.6349H229.465V66.1275L229.419 66.8789C229.396 67.1749 229.362 67.4405 229.317 67.6758C229.256 67.9111 229.188 68.1274 229.112 68.3247C229.006 68.56 228.903 68.7535 228.804 68.9053C228.387 69.5732 227.833 70.0855 227.142 70.4422C226.444 70.8141 225.659 71 224.786 71H211.591ZM216.908 50.9182C216.43 50.4552 215.861 50.2237 215.2 50.2237C214.54 50.2237 213.975 50.4552 213.504 50.9182C213.033 51.3963 212.798 51.9655 212.798 52.6258C212.798 53.2937 213.033 53.8591 213.504 54.3221C213.967 54.8002 214.532 55.0393 215.2 55.0393C215.868 55.0393 216.437 54.8002 216.908 54.3221C217.378 53.8591 217.614 53.2937 217.614 52.6258C217.614 51.9655 217.378 51.3963 216.908 50.9182ZM223.067 50.9182C222.589 50.4552 222.019 50.2237 221.359 50.2237C220.691 50.2237 220.126 50.4552 219.663 50.9182C219.192 51.3963 218.957 51.9655 218.957 52.6258C218.957 53.2937 219.192 53.8591 219.663 54.3221C220.126 54.8002 220.691 55.0393 221.359 55.0393C222.027 55.0393 222.596 54.8002 223.067 54.3221C223.53 53.8591 223.761 53.2937 223.761 52.6258C223.761 51.9655 223.53 51.3963 223.067 50.9182ZM233.017 71V56.4851H232.277V52.4437H237.548V71H233.017ZM238.492 73.2996C239.934 73.0112 240.743 72.2447 240.917 71L240.883 57.3617L245.79 57.3503V66.1275H248.215V71H245.665C245.551 73.922 243.854 75.8725 240.576 76.8515L238.492 73.2996ZM249.16 62.0064V57.0201L252.461 52.6713H257.948L254.715 57.0201H259.952C260.195 57.0201 260.339 57.0239 260.384 57.0315C261.53 57.0922 262.555 57.3996 263.458 57.9536C264.475 58.576 265.299 59.4905 265.929 60.6972C266.225 61.274 266.441 61.9988 266.577 62.8716V71H247.293V66.1275H261.659V65.9226C261.659 63.4864 260.923 62.1886 259.451 62.0292L259.018 62.0064H249.16ZM276.288 66.1275V64.1467C276.288 62.1658 275.408 61.1754 273.647 61.1754C272.752 61.1754 272.095 61.4107 271.678 61.8812L268.456 58.6481C268.957 58.0182 269.522 57.5059 270.152 57.1112C271.162 56.4889 272.326 56.1777 273.647 56.1777C274.975 56.1777 276.144 56.4889 277.153 57.1112C278.178 57.7335 279.001 58.6481 279.624 59.8548C279.92 60.4392 280.14 61.164 280.284 62.0292C280.39 62.7578 280.459 64.1239 280.489 66.1275H282.31V71H268.524V66.1275H276.288ZM274.307 49.5634C273.639 49.5634 273.07 49.7987 272.6 50.2693C272.129 50.7398 271.894 51.309 271.894 51.9769C271.894 52.6448 272.129 53.2102 272.6 53.6732C273.07 54.1437 273.639 54.379 274.307 54.379C274.968 54.379 275.533 54.1437 276.004 53.6732C276.474 53.2026 276.709 52.6372 276.709 51.9769C276.709 51.3166 276.474 50.7474 276.004 50.2693C275.533 49.7987 274.968 49.5634 274.307 49.5634ZM290.496 67.7099C291.194 67.7099 291.752 67.4747 292.169 67.0041C292.587 66.5488 292.795 65.9264 292.795 65.1371C292.795 64.3478 292.587 63.7179 292.169 63.2473C291.744 62.7692 291.186 62.5301 290.496 62.5301C289.813 62.5301 289.259 62.7692 288.834 63.2473C288.409 63.7255 288.196 64.3554 288.196 65.1371C288.196 65.9112 288.409 66.5336 288.834 67.0041C289.251 67.4747 289.805 67.7099 290.496 67.7099ZM294.765 71C294.325 71.3036 293.854 71.554 293.353 71.7514C292.48 72.1157 291.528 72.2978 290.496 72.2978C289.471 72.2978 288.515 72.1195 287.627 71.7627C287.111 71.5654 286.637 71.3112 286.204 71H281.377V66.1275H283.267C283.229 65.8012 283.21 65.471 283.21 65.1371C283.21 63.0728 283.897 61.3727 285.27 60.037C286.682 58.6633 288.424 57.9764 290.496 57.9764C291.558 57.9764 292.518 58.1472 293.376 58.4887C294.264 58.8378 295.053 59.3539 295.744 60.037C296.435 60.7048 296.951 61.4676 297.292 62.3252C297.634 63.1676 297.804 64.1049 297.804 65.1371C297.804 65.471 297.785 65.8012 297.748 66.1275H298.875V71H294.765ZM305.398 56.3712V65.8657C305.398 66.3287 305.383 66.6664 305.352 66.8789C305.329 67.1749 305.295 67.4405 305.25 67.6758C305.189 67.9111 305.121 68.1274 305.045 68.3247C304.939 68.56 304.836 68.7535 304.737 68.9053C304.32 69.5732 303.766 70.0855 303.075 70.4422C302.377 70.8141 301.592 71 300.719 71H297.952V66.1275H298.647C299.603 66.1199 300.153 65.8733 300.298 65.3876C300.419 65.1067 300.48 64.511 300.48 63.6002V52.4437H305.705V56.3712H305.398ZM309.246 71V56.4851H308.506V52.4437H313.777V71H309.246Z" fill="white"/>
<g clip-path="url(#clip0_202_1285)">
<path d="M168.343 60.9662C168.343 60.9662 168.413 60.8614 168.589 60.6519C169.713 59.1502 174.49 52.6894 175.965 48.6383C175.965 48.6033 176 48.6033 176 48.5684C176 48.5684 175.965 48.5335 175.86 48.4287C175.122 47.6255 171.223 43.4696 168.027 43.5394C168.027 43.5394 164.549 50.2098 160.545 55.588C160.545 55.588 165.427 57.3691 168.237 60.8963C168.272 60.8963 168.308 60.9313 168.343 60.9662Z" fill="#88B0E2"/>
<path d="M168.027 43.5044C170.626 45.949 170.239 50.5938 169.818 51.3272C169.396 52.0257 162.722 54.2259 160.545 55.5529C165.743 48.4635 168.027 43.5044 168.027 43.5044Z" fill="#B0D2F7"/>
<path d="M168.343 60.966C168.343 60.966 168.413 60.8612 168.589 60.6516C168.694 60.2326 168.834 59.8484 168.905 59.4293C169.221 58.0324 169.432 56.6355 169.537 55.2036C169.607 53.8416 169.572 52.4447 169.432 51.0827C169.959 51.0128 170.45 50.908 170.977 50.7683C172.733 50.3143 174.455 49.6159 175.965 48.6031C175.965 48.5682 176 48.5682 176 48.5332C176 48.5332 175.965 48.4983 175.86 48.3936C175.508 48.638 175.122 48.8476 174.771 49.0571C173.05 49.9651 171.188 50.5937 169.291 50.8731C169.221 50.8731 169.186 50.943 169.186 51.0128C169.291 51.7811 169.326 52.5844 169.361 53.3876C169.396 54.7845 169.291 56.1815 169.045 57.5784C168.87 58.6959 168.589 59.7786 168.272 60.8612C168.272 60.8961 168.308 60.931 168.343 60.966Z" fill="#B0D2F7"/>
<path d="M170.485 51.6763C170.591 51.1873 170.696 50.6635 170.52 50.1746C170.45 49.9999 170.345 49.8253 170.204 49.7205C169.923 49.5459 169.537 49.6158 169.291 49.8253C169.045 50.0698 168.975 50.419 169.045 50.7333C168.764 50.7333 168.518 50.8032 168.343 51.0127C168.167 51.1873 168.062 51.5016 168.167 51.7461C168.237 51.9207 168.378 52.0604 168.553 52.1303C168.87 52.3049 169.256 52.3049 169.572 52.2001C169.923 52.1303 170.204 51.9207 170.485 51.6763Z" fill="#766CFF"/>
<path d="M50.811 82.7235C50.811 82.7235 50.6003 82.6187 50.249 82.4091C47.5443 80.9424 36.0933 74.5863 31.1054 69.6272C31.0703 69.5923 31.0351 69.5574 31 69.5224C31 69.5224 31.0351 69.4177 31.1054 69.243C31.6323 67.5318 34.5828 58.766 39.3249 56.7056C39.3249 56.7056 49.0196 64.249 58.6441 69.4875C58.6441 69.4875 52.6376 75.4245 50.8813 82.5488C50.8462 82.5838 50.811 82.6536 50.811 82.7235Z" fill="#88B0E2"/>
<path d="M39.3249 56.7056C37.1471 62.0488 40.9056 68.7192 42.0296 69.4875C43.1185 70.2558 54.5345 68.9287 58.6442 69.4875C46.1042 62.4679 39.3249 56.7056 39.3249 56.7056Z" fill="#B0D2F7"/>
<path d="M50.811 82.7237C50.811 82.7237 50.6003 82.6189 50.249 82.4094C49.7924 81.8855 49.3709 81.3617 48.9142 80.8378C47.4741 79.0218 46.2095 77.0661 45.1206 75.0406C44.0669 73.0499 43.1536 70.9894 42.4511 68.8591C41.6432 69.1036 40.8001 69.2782 39.9922 69.4528C37.0768 70.0116 34.056 70.0814 31.1054 69.6624C31.0703 69.6274 31.0351 69.5925 31 69.5576C31 69.5576 31.0351 69.4528 31.1054 69.2782C31.8079 69.383 32.4753 69.4528 33.1778 69.4877C36.3391 69.6973 39.5005 69.348 42.5213 68.44C42.6267 68.4051 42.7321 68.5099 42.7321 68.5797C43.1185 69.8021 43.6102 70.9894 44.102 72.1768C45.0153 74.2722 46.1393 76.2978 47.4038 78.1837C48.4225 79.7203 49.5816 81.1521 50.811 82.5491C50.8462 82.584 50.811 82.6538 50.811 82.7237Z" fill="#B0D2F7"/>
<path d="M41.2918 70.4307C40.8001 69.7671 40.2732 69.0687 40.2029 68.2305C40.1678 67.9162 40.2029 67.6019 40.3785 67.3225C40.6596 66.8685 41.2918 66.6939 41.7836 66.9034C42.2753 67.078 42.6266 67.5669 42.7671 68.0908C43.1535 67.9162 43.6101 67.8463 43.9965 67.986C44.3829 68.1606 44.7342 68.5099 44.7342 68.9639C44.7342 69.2782 44.6288 69.5576 44.4532 69.802C44.1019 70.256 43.5399 70.5354 42.9779 70.6053C42.3807 70.71 41.8538 70.5704 41.2918 70.4307Z" fill="#4A4193"/>
<path d="M38.5169 37.2876C37.7442 39.837 40.9055 41.1641 40.9055 41.1641L43.6804 38.6147L38.5169 37.2876Z" fill="#88B0E2"/>
<path d="M38.5168 37.2878C38.5168 37.2878 46.2797 32.7827 50.7758 29.0459C55.6232 29.4999 57.9064 41.3389 63.0699 42.3866C61.6297 45.39 51.4081 52.8636 51.4081 52.8636C47.193 51.8508 44.2775 39.1387 38.5168 37.2878Z" fill="white"/>
<path d="M52.0053 31.0366C49.4763 33.586 46.5959 35.7862 43.4697 37.5324" stroke="#6A96C6" stroke-miterlimit="10" stroke-linecap="round"/>
<path d="M53.7968 33.4111C51.2326 35.8907 48.3171 38.021 45.1909 39.7672" stroke="#6A96C6" stroke-miterlimit="10" stroke-linecap="round"/>
<path d="M55.3071 35.9956C52.8131 38.4402 50.0382 40.5356 47.0173 42.2818" stroke="#6A96C6" stroke-miterlimit="10" stroke-linecap="round"/>
<path d="M57.0284 38.5449C54.4642 41.1292 51.5136 43.3294 48.3171 45.0756" stroke="#6A96C6" stroke-miterlimit="10" stroke-linecap="round"/>
<path d="M58.6441 40.9546C56.1502 43.5738 53.305 45.8439 50.2139 47.7646" stroke="#6A96C6" stroke-miterlimit="10" stroke-linecap="round"/>
<path d="M165.462 32.5035C163.952 34.3544 161.352 32.713 161.352 32.713L161.844 29.3604L165.462 32.5035Z" fill="#88B0E2"/>
<path d="M165.462 32.5033C165.462 32.5033 164.9 24.4709 165.427 19.2324C162.617 15.8798 152.606 20.2103 149.164 16.8926C147.653 19.4769 147.267 30.8619 147.267 30.8619C150.147 33.4812 161.177 29.1856 165.462 32.5033Z" fill="#D2EAFF"/>
<path d="M163.319 19.3721C162.687 22.5152 162.512 25.798 162.793 28.976" stroke="#6A96C6" stroke-miterlimit="10" stroke-linecap="round"/>
<path d="M160.579 19.2324C160.053 22.4104 159.912 25.6583 160.193 28.8363" stroke="#6A96C6" stroke-miterlimit="10" stroke-linecap="round"/>
<path d="M157.875 19.4072C157.313 22.4805 157.137 25.6236 157.383 28.7667" stroke="#6A96C6" stroke-miterlimit="10" stroke-linecap="round"/>
<path d="M155.135 19.4419C154.503 22.6548 154.327 25.9376 154.643 29.2204" stroke="#6A96C6" stroke-miterlimit="10" stroke-linecap="round"/>
<path d="M152.501 19.4771C151.798 22.6551 151.552 25.9379 151.693 29.1857" stroke="#6A96C6" stroke-miterlimit="10" stroke-linecap="round"/>
<path d="M118.92 21.9913C118.393 25.6932 114.424 26.706 114.424 26.706L109.612 21.6421C109.612 21.677 115.267 20.2452 118.92 21.9913Z" fill="#6A96C6"/>
<path d="M106.591 9.73333C99.4604 5.43776 89.9061 21.5374 81.8271 17.5562C82.8809 26.8458 92.5054 35.0178 92.5054 35.0178C100.479 37.7069 109.085 19.2325 118.92 22.0263C109.19 15.9497 106.591 9.73333 106.591 9.73333Z" fill="#B0D2F7"/>
<path d="M103.5 11.8286C105.045 15.3559 107.645 18.4291 110.911 20.5594" stroke="#6A96C6" stroke-miterlimit="10"/>
<path d="M100.128 13.2954C100.971 15.0765 102.165 16.6481 103.535 18.0799C104.905 19.5118 106.415 20.769 107.961 22.0262" stroke="#6A96C6" stroke-miterlimit="10"/>
<path d="M96.4045 15.8447C98.3365 19.3021 101.428 21.9214 104.448 24.4359" stroke="#6A96C6" stroke-miterlimit="10"/>
<path d="M92.8215 18.3247C94.8588 21.8869 97.7392 24.9951 101.182 27.2302" stroke="#6A96C6" stroke-miterlimit="10"/>
<path d="M88.3254 20.3149C90.6086 24.1565 93.7348 27.4742 97.4231 30.0236" stroke="#6A96C6" stroke-miterlimit="10"/>
<path d="M60.5058 105.668C59.7682 107.763 53.8319 111.605 47.1931 111.884C41.5378 112.163 33.7047 107.798 33.4588 106.122C33.3886 105.563 33.8803 103.782 34.618 101.617C34.7936 101.093 34.9692 100.534 35.18 100.01C35.2854 99.6957 35.4259 99.3465 35.5312 99.0322C36.9714 94.9811 38.6575 90.7554 38.6575 90.7554H55.2369C55.2369 90.7554 57.0635 94.7017 58.609 98.5782C58.7495 98.8925 58.8549 99.2417 58.9954 99.556C59.2413 100.185 59.452 100.813 59.6628 101.407C60.2951 103.363 60.7166 105.039 60.5058 105.668Z" fill="#1C313F"/>
<path d="M37.4281 89.638C34.618 93.6192 58.6793 94.0383 56.642 89.638C55.3072 86.8092 39.36 86.879 37.4281 89.638Z" fill="#766CFF"/>
<path d="M39.5004 89.2536C37.2874 91.7681 56.1501 92.0125 54.5343 89.2536C53.4805 87.4725 41.0108 87.5424 39.5004 89.2536Z" fill="black"/>
<path d="M60.5058 105.668C59.7682 107.763 53.8319 111.605 47.1931 111.884C41.5378 112.163 33.7047 107.798 33.4588 106.122C33.3886 105.563 33.8803 103.782 34.618 101.617C38.517 103.642 42.9428 104.69 47.3336 104.62C51.6189 104.55 55.8692 103.433 59.6277 101.372C60.2951 103.363 60.7166 105.039 60.5058 105.668Z" fill="#2C4B63"/>
<path d="M58.9602 99.5213C57.9767 99.8706 56.9932 100.22 55.9745 100.499C49.1952 102.35 41.8539 102.21 35.1799 99.9753C35.2853 99.661 35.4258 99.3118 35.5312 98.9975C36.866 99.4515 38.2359 99.8007 39.6058 100.08C45.9285 101.337 52.5673 100.813 58.609 98.5435C58.6792 98.8578 58.8197 99.1721 58.9602 99.5213Z" fill="#2C4B63"/>
<path d="M154.292 108.566C162.906 108.566 169.888 106.987 169.888 105.039C169.888 103.091 162.906 101.512 154.292 101.512C145.679 101.512 138.696 103.091 138.696 105.039C138.696 106.987 145.679 108.566 154.292 108.566Z" fill="#1C313F"/>
<path d="M168.237 101.407H140.382L138.802 104.724L169.748 104.55L168.237 101.407Z" fill="#1C313F"/>
<path d="M154.292 104.795C162.013 104.795 168.272 103.387 168.272 101.651C168.272 99.9155 162.013 98.5083 154.292 98.5083C146.571 98.5083 140.312 99.9155 140.312 101.651C140.312 103.387 146.571 104.795 154.292 104.795Z" fill="#2C4B63"/>
<path d="M154.468 103.537C125.98 103.118 148.883 71.373 148.883 71.373H160.755C160.755 71.373 181.69 103.957 154.468 103.537Z" fill="#B0D2F7"/>
<path d="M154.397 99.5213C160.237 99.5213 164.97 95.2215 164.97 89.9174C164.97 84.6133 160.237 80.3135 154.397 80.3135C148.558 80.3135 143.824 84.6133 143.824 89.9174C143.824 95.2215 148.558 99.5213 154.397 99.5213Z" fill="#D2EAFF"/>
<path d="M159.666 101.302C159.666 102.559 157.243 103.048 154.292 103.048C151.306 103.048 148.918 102.524 148.918 101.302C148.918 100.045 151.341 98.543 154.292 98.543C157.278 98.5779 159.666 100.08 159.666 101.302Z" fill="#4A4193"/>
<path d="M151.763 99.7306C151.763 99.7306 150.815 93.0951 151.201 92.6062C151.587 92.1173 156.119 92.0125 156.47 92.4316C156.821 92.8507 156.61 99.7306 156.61 99.7306C154.643 100.464 151.763 99.7306 151.763 99.7306Z" fill="#766CFF"/>
<path d="M152.29 93.8633C151.622 93.8633 151.622 94.911 152.29 94.911C152.957 94.911 152.957 93.8633 152.29 93.8633Z" fill="#4A4193"/>
<path d="M153.976 95.3652C153.308 95.3652 153.308 96.4129 153.976 96.4129C154.643 96.4129 154.643 95.3652 153.976 95.3652Z" fill="#4A4193"/>
<path d="M152.571 96.8667C151.903 96.8667 151.903 97.9144 152.571 97.9144C153.238 97.9144 153.238 96.8667 152.571 96.8667Z" fill="#4A4193"/>
<path d="M154.046 98.229C153.379 98.229 153.379 99.2767 154.046 99.2767C154.749 99.2767 154.749 98.229 154.046 98.229Z" fill="#4A4193"/>
<path d="M155.521 96.6924C154.854 96.6924 154.854 97.7401 155.521 97.7401C156.189 97.7401 156.189 96.6924 155.521 96.6924Z" fill="#4A4193"/>
<path d="M155.416 93.5142C154.749 93.5142 154.749 94.5619 155.416 94.5619C156.083 94.5619 156.083 93.5142 155.416 93.5142Z" fill="#4A4193"/>
<path d="M146.459 71.3731C144.914 74.4464 165.322 75.1099 163.495 71.7573C162.301 69.5571 147.408 69.5222 146.459 71.3731Z" fill="#1C313F"/>
<path d="M145.37 68.8936L146.389 71.862L163.6 72.351L164.654 69.3476L145.37 68.8936Z" fill="#1C313F"/>
<path d="M145.44 68.2998C143.684 71.7223 166.516 72.4557 164.514 68.7189C163.179 66.2393 146.494 66.2394 145.44 68.2998Z" fill="#527FA8"/>
<path d="M149.515 71.338C140.171 79.3005 136.272 92.1872 139.785 103.921C140.066 104.899 141.647 104.585 141.331 103.607C137.994 92.3618 141.576 80.1387 150.534 72.4905C151.306 71.8968 150.288 70.6744 149.515 71.338Z" fill="#1C313F"/>
<path d="M159.772 71.338C169.115 79.3005 173.014 92.1872 169.502 103.921C169.221 104.899 167.64 104.585 167.956 103.607C171.293 92.3618 167.71 80.1387 158.753 72.4905C157.98 71.8968 158.999 70.6744 159.772 71.338Z" fill="#1C313F"/>
<path d="M154.854 62.1182C152.536 62.1182 146.67 64.3882 146.81 66.9725C146.951 69.5918 151.447 70.3601 154.854 70.3601C158.261 70.3601 162.758 69.5918 162.898 66.9725C163.039 64.3533 157.172 62.1182 154.854 62.1182Z" fill="#2C4B63"/>
<path d="M157.875 62.188C157.875 63.6548 156.575 64.3184 154.995 64.3184C153.414 64.3184 152.114 63.6548 152.114 62.188C152.114 60.7213 153.414 58.9751 154.995 58.9751C156.575 58.9751 157.875 60.7213 157.875 62.188Z" fill="#527FA8"/>
<path d="M165.146 105.318C164.444 102.804 163.003 100.569 161.317 98.613C159.456 96.4827 157.208 94.7016 155.065 92.8507C153.941 91.8728 152.782 90.86 151.763 89.7774C154.784 86.9137 158.226 84.3643 160.158 80.6275C161.388 78.2178 161.844 75.2842 160.79 72.7348C160.72 72.5253 160.369 72.6301 160.439 72.8396C161.388 75.1795 161.071 77.8336 160.018 80.0687C158.964 82.3038 157.278 84.1897 155.522 85.9009C154.222 87.1582 152.817 88.3106 151.517 89.5679C150.744 88.7297 150.007 87.8566 149.339 86.9486C147.899 84.8881 146.845 82.4435 146.775 79.8941C146.705 77.6241 147.407 75.2493 149.023 73.573C149.234 73.3634 149.445 73.1888 149.656 72.9793C149.831 72.8396 149.585 72.5951 149.41 72.7348C147.618 74.2365 146.67 76.4716 146.459 78.7766C146.248 81.2561 146.986 83.7008 148.215 85.866C149.058 87.2979 150.077 88.6249 151.236 89.8123C150.744 90.2663 150.288 90.7553 149.831 91.2442C148.18 93.0253 146.845 95.0858 145.897 97.2859C144.808 99.7655 144.176 102.42 144.035 105.109C144.035 105.318 144.387 105.318 144.387 105.109C144.633 100.219 146.564 95.4699 149.796 91.768C150.323 91.1743 150.885 90.6156 151.482 90.0568C152.15 90.7553 152.852 91.4188 153.555 92.0474C155.732 94.0031 158.051 95.8192 160.088 97.9146C161.95 99.8353 163.601 102.001 164.479 104.55C164.584 104.864 164.689 105.179 164.76 105.493C164.865 105.633 165.216 105.528 165.146 105.318Z" fill="#1C313F"/>
<path d="M151.693 53.8066C152.922 52.7589 154.784 52.5144 156.259 53.2129C157.629 53.8764 158.577 55.3432 158.718 56.8449C158.858 58.2418 158.367 59.6039 157.524 60.6865C157.594 60.7913 157.629 60.9309 157.664 61.0357C157.699 61.1056 157.734 61.1754 157.734 61.2802C157.734 61.35 157.77 61.3849 157.77 61.4548C158.788 60.3023 159.456 58.8006 159.42 57.2291C159.385 55.5178 158.472 53.8415 157.032 52.8986C155.486 51.9207 153.449 51.9556 151.904 52.8986C150.358 53.8415 149.48 55.6226 149.55 57.4037C149.62 59.3943 150.92 61.1754 152.747 61.9786C153.133 62.1533 153.449 61.5945 153.063 61.4199C151.658 60.7913 150.604 59.5689 150.288 58.0672C149.936 56.4608 150.498 54.7844 151.693 53.8066Z" fill="#4A4193"/>
<path d="M55.7988 125.469L147.442 121.942L131.706 103.887H68.7603L55.7988 125.469Z" fill="#2C4B63"/>
<path d="M147.443 121.942L147.162 119.358L142.876 114.922L142.56 117.646L147.443 121.942Z" fill="#2C4B63"/>
<path d="M55.7988 125.469L55.8691 122.536L59.9788 116.145L61.419 123.409L55.7988 125.469Z" fill="#2C4B63"/>
<path d="M57.4497 109.858C59.8383 114.538 58.8899 123.513 58.8899 123.513L143.368 120.021C142.63 115.551 145.159 106.331 145.159 106.331L57.4497 109.858Z" fill="#B0D2F7"/>
<path d="M61.4189 114.224L140.136 111.849" stroke="#88B0E2" stroke-miterlimit="10" stroke-linecap="round" stroke-linejoin="round"/>
<path d="M71.5 117.053L137.01 114.224" stroke="#88B0E2" stroke-miterlimit="10" stroke-linecap="round" stroke-linejoin="round"/>
<path d="M62.2268 119.916L114.002 117.751" stroke="#88B0E2" stroke-miterlimit="10" stroke-linecap="round" stroke-linejoin="round"/>
<path d="M55.7988 110.522L147.442 106.995L131.706 88.9395H68.7603L55.7988 110.522Z" fill="#527FA8"/>
<path d="M130.196 90.2666L141.26 104.096L109.682 104.969L109.928 90.2666H130.196Z" fill="#766CFF"/>
<path d="M127.034 96.3084C127.35 95.8894 127.596 95.4004 127.702 94.9115C127.807 94.3877 127.737 93.8289 127.456 93.4098C126.964 92.6415 125.945 92.3621 124.997 92.2923C123.17 92.1875 121.344 92.6066 119.693 93.3749C118.288 94.0035 116.988 94.8417 115.759 95.7497C115.337 96.064 115.267 96.6228 115.583 97.0418C116.075 97.6705 116.637 98.2292 117.304 98.6832C118.183 99.3118 119.166 99.8008 120.185 100.255C121.871 100.988 123.627 101.617 125.489 101.512C126.332 101.477 127.175 101.233 127.912 100.814C128.439 100.534 128.966 100.115 129.177 99.5214C129.423 98.8579 129.107 98.0895 128.65 97.5657C128.123 97.0069 127.667 96.6228 127.034 96.3084Z" fill="#527FA8"/>
<path d="M55.7988 110.522L55.9393 112.652L146.775 109.509L147.442 106.995L55.7988 110.522Z" fill="#2C4B63"/>
<path d="M66.7581 125.05C60.4354 118.17 65.9853 106.785 65.9853 106.785H72.3431C72.3431 106.785 67.285 116.424 73.5374 124.771L66.7581 125.05Z" fill="#2C4B63"/>
<path d="M70.2006 108.566C70.2006 109.09 69.3927 109.544 68.4443 109.544C67.4608 109.544 66.688 109.09 66.688 108.566C66.688 108.042 67.4959 107.588 68.4443 107.588C69.4278 107.588 70.2006 108.007 70.2006 108.566Z" fill="#4A4193"/>
<path d="M133.462 111.5L134.622 116.739L131.882 116.354L128.966 117.507L129.107 111.5H133.462Z" fill="#4A4193"/>
<path d="M99.3551 98.6135L100.725 45.0411L60.1194 41.6885L59.3115 42.3869L56.4663 95.68L99.3551 98.6135Z" fill="#766CFF"/>
<path d="M99.3551 98.6135V97.8103L57.4147 94.8069L60.1194 41.6885L59.3115 42.3869L56.4663 95.68L99.3551 98.6135Z" fill="#4A4193"/>
<path d="M100.479 98.6137L101.744 44.7968L141.787 41.1299L142.349 41.3045L143.368 95.6801L100.479 98.6137Z" fill="#766CFF"/>
<path d="M100.479 97.8803L142.279 94.6674L141.787 41.1299L142.349 41.3045L143.368 95.6801L100.479 98.6137V97.8803Z" fill="#4A4193"/>
<path d="M98.0202 96.2736L58.6089 93.5146L60.8921 43.225L64.1939 39.8724C70.2005 38.8247 78.7009 38.1262 88.5713 39.9772C92.8567 40.7804 96.6503 41.9329 99.8819 43.1552C99.3199 59.4295 98.7227 75.7387 98.1607 92.0129L98.0202 96.2736Z" fill="white"/>
<path d="M58.6089 93.5145L60.6462 90.3714L63.7022 88.5205C70.0248 88.1364 77.7525 88.276 86.4287 89.7428C90.714 90.4762 94.6481 91.4541 98.1607 92.5018C98.1256 93.759 98.0554 95.0163 98.0202 96.2735L58.6089 93.5145Z" fill="#D2EAFF"/>
<path d="M64.2291 39.8726L63.7373 88.5208C62.9997 88.9049 62.0864 89.4986 61.1731 90.3368C59.9437 91.4543 59.1358 92.6417 58.644 93.5148C59.4168 76.7516 60.1545 59.9884 60.9272 43.2252C61.2785 42.7013 61.7351 42.1426 62.2971 41.5489C62.9645 40.8155 63.6319 40.2567 64.2291 39.8726Z" fill="#B0D2F7"/>
<path d="M102.411 42.8759L101.603 96.2737L141.752 93.9687L141.26 42.8759L138.205 38.4057C131.355 37.2882 121.379 36.7294 110.315 39.9773C107.399 40.7805 104.765 41.7933 102.411 42.8759Z" fill="white"/>
<path d="M138.205 38.3706C141.506 40.3263 141.26 42.8408 141.26 42.8408L141.787 93.9336L136.975 88.4856L138.205 38.3706Z" fill="#B0D2F7"/>
<path d="M101.674 92.3972L102.095 92.3623C104.027 91.6638 106.064 91.0352 108.242 90.4764C119.131 87.6127 129.072 87.6476 136.975 88.5556C138.591 90.3716 141.787 94.0036 141.787 94.0036C128.404 94.772 115.021 95.5403 101.638 96.3086" fill="#D2EAFF"/>
<path d="M104.659 45.4953C104.659 45.8096 104.273 46.0541 103.816 46.0541C103.36 46.0541 102.973 45.8096 102.973 45.4953C102.973 45.181 103.36 44.9365 103.816 44.9365C104.273 44.9365 104.659 45.2159 104.659 45.4953Z" fill="#88B0E2"/>
<path d="M99.0039 45.8444C99.0039 46.1587 98.6175 46.4032 98.1609 46.4032C97.7043 46.4032 97.3179 46.1587 97.3179 45.8444C97.3179 45.5301 97.7043 45.2856 98.1609 45.2856C98.6527 45.2856 99.0039 45.5301 99.0039 45.8444Z" fill="#88B0E2"/>
<path d="M104.168 45.2158C103.43 44.1681 102.2 43.4696 100.901 43.5395C99.6363 43.6093 98.442 44.3776 97.8448 45.4603C97.5638 45.9492 98.3366 46.4032 98.5825 45.9143C99.0391 45.0761 99.9173 44.4824 100.866 44.4126C101.849 44.3427 102.833 44.8316 103.395 45.6349C103.711 46.0889 104.484 45.6698 104.168 45.2158Z" fill="#1C313F"/>
<path d="M104.659 48.5334C104.659 48.8477 104.273 49.0922 103.816 49.0922C103.36 49.0922 102.973 48.8477 102.973 48.5334C102.973 48.2191 103.36 47.9746 103.816 47.9746C104.273 47.9746 104.659 48.2191 104.659 48.5334Z" fill="#88B0E2"/>
<path d="M99.0039 48.8478C99.0039 49.1621 98.6175 49.4066 98.1609 49.4066C97.7043 49.4066 97.3179 49.1621 97.3179 48.8478C97.3179 48.5335 97.7043 48.2891 98.1609 48.2891C98.6527 48.324 99.0039 48.5684 99.0039 48.8478Z" fill="#88B0E2"/>
<path d="M104.168 48.2192C103.43 47.1715 102.2 46.473 100.901 46.5429C99.6363 46.6127 98.442 47.381 97.8448 48.4637C97.5638 48.9526 98.3366 49.4066 98.5825 48.9177C99.0391 48.0795 99.9173 47.4858 100.866 47.416C101.849 47.3461 102.833 47.8351 103.395 48.6383C103.711 49.1272 104.484 48.7081 104.168 48.2192Z" fill="#1C313F"/>
<path d="M104.308 51.9211C104.308 52.2354 103.921 52.4799 103.465 52.4799C103.008 52.4799 102.622 52.2354 102.622 51.9211C102.622 51.6068 103.008 51.3623 103.465 51.3623C103.921 51.3623 104.308 51.6068 104.308 51.9211Z" fill="#88B0E2"/>
<path d="M98.6878 52.2355C98.6878 52.5498 98.3014 52.7943 97.8447 52.7943C97.3881 52.7943 97.0017 52.5498 97.0017 52.2355C97.0017 51.9212 97.3881 51.6768 97.8447 51.6768C98.3014 51.6768 98.6878 51.9561 98.6878 52.2355Z" fill="#88B0E2"/>
<path d="M103.816 51.6069C103.079 50.5592 101.849 49.8607 100.549 49.9306C99.2849 50.0004 98.0907 50.7687 97.4935 51.8514C97.2125 52.3403 97.9853 52.7943 98.2312 52.3054C98.6878 51.4672 99.5659 50.8735 100.514 50.8037C101.498 50.7338 102.481 51.2227 103.043 52.026C103.395 52.5149 104.132 52.0958 103.816 51.6069Z" fill="#1C313F"/>
<path d="M104.308 55.3083C104.308 55.6226 103.921 55.8671 103.465 55.8671C103.008 55.8671 102.622 55.6226 102.622 55.3083C102.622 54.994 103.008 54.7495 103.465 54.7495C103.921 54.7495 104.308 54.994 104.308 55.3083Z" fill="#88B0E2"/>
<path d="M98.6526 55.6227C98.6526 55.9371 98.2662 56.1815 97.8096 56.1815C97.3529 56.1815 96.9666 55.9371 96.9666 55.6227C96.9666 55.3084 97.3529 55.064 97.8096 55.064C98.2662 55.064 98.6526 55.3084 98.6526 55.6227Z" fill="#88B0E2"/>
<path d="M103.816 54.9941C103.079 53.9464 101.849 53.2479 100.549 53.3178C99.2849 53.3876 98.0907 54.1559 97.4935 55.2386C97.2125 55.7275 97.9853 56.1815 98.2312 55.6926C98.6878 54.8544 99.5659 54.2607 100.514 54.1909C101.498 54.121 102.481 54.61 103.043 55.4132C103.36 55.9021 104.132 55.4481 103.816 54.9941Z" fill="#1C313F"/>
<path d="M104.273 58.696C104.273 59.0103 103.886 59.2548 103.43 59.2548C102.973 59.2548 102.587 59.0103 102.587 58.696C102.587 58.3817 102.973 58.1372 103.43 58.1372C103.921 58.1372 104.273 58.3817 104.273 58.696Z" fill="#88B0E2"/>
<path d="M98.6526 59.0104C98.6526 59.3247 98.2662 59.5692 97.8096 59.5692C97.3529 59.5692 96.9666 59.3247 96.9666 59.0104C96.9666 58.6961 97.3529 58.4517 97.8096 58.4517C98.2662 58.4517 98.6526 58.6961 98.6526 59.0104Z" fill="#88B0E2"/>
<path d="M103.781 58.3818C103.043 57.3341 101.814 56.6356 100.514 56.7055C99.2498 56.7753 98.0555 57.5436 97.4584 58.6263C97.1774 59.1152 97.9501 59.5692 98.196 59.0803C98.6526 58.2421 99.5308 57.6484 100.479 57.5786C101.463 57.5087 102.446 57.9976 103.008 58.8009C103.36 59.2898 104.097 58.8358 103.781 58.3818Z" fill="#1C313F"/>
<path d="M104.027 62.0837C104.027 62.398 103.64 62.6425 103.184 62.6425C102.727 62.6425 102.341 62.398 102.341 62.0837C102.341 61.7694 102.727 61.5249 103.184 61.5249C103.64 61.5249 104.027 61.7694 104.027 62.0837Z" fill="#88B0E2"/>
<path d="M98.3716 62.3981C98.3716 62.7124 97.9852 62.9569 97.5286 62.9569C97.0719 62.9569 96.6855 62.7124 96.6855 62.3981C96.6855 62.0838 97.0719 61.8394 97.5286 61.8394C97.9852 61.8394 98.3716 62.0838 98.3716 62.3981Z" fill="#88B0E2"/>
<path d="M103.535 61.7695C102.798 60.7218 101.568 60.0233 100.268 60.0932C99.0039 60.163 97.8097 60.9313 97.2125 62.014C96.9315 62.5029 97.7043 62.9569 97.9502 62.468C98.4068 61.6298 99.2849 61.0361 100.233 60.9663C101.217 60.8964 102.2 61.3853 102.762 62.1886C103.079 62.6775 103.851 62.2235 103.535 61.7695Z" fill="#1C313F"/>
<path d="M104.062 65.4367C104.062 65.751 103.676 65.9955 103.219 65.9955C102.762 65.9955 102.376 65.751 102.376 65.4367C102.376 65.1224 102.762 64.8779 103.219 64.8779C103.676 64.9129 104.062 65.1573 104.062 65.4367Z" fill="#88B0E2"/>
<path d="M98.4067 65.7858C98.4067 66.1001 98.0204 66.3446 97.5637 66.3446C97.1071 66.3446 96.7207 66.1001 96.7207 65.7858C96.7207 65.4715 97.1071 65.2271 97.5637 65.2271C98.0204 65.2271 98.4067 65.4715 98.4067 65.7858Z" fill="#88B0E2"/>
<path d="M103.535 65.1572C102.798 64.1095 101.568 63.411 100.268 63.4809C99.0039 63.5507 97.8097 64.319 97.2125 65.4017C96.9315 65.8906 97.7043 66.3446 97.9502 65.8557C98.4068 65.0175 99.2849 64.4238 100.233 64.354C101.217 64.2841 102.2 64.773 102.762 65.5763C103.114 66.0303 103.851 65.6112 103.535 65.1572Z" fill="#1C313F"/>
<path d="M104.027 68.8239C104.027 69.1382 103.64 69.3827 103.184 69.3827C102.727 69.3827 102.341 69.1382 102.341 68.8239C102.341 68.5096 102.727 68.2651 103.184 68.2651C103.64 68.2651 104.027 68.5445 104.027 68.8239Z" fill="#88B0E2"/>
<path d="M98.3716 69.173C98.3716 69.4873 97.9852 69.7318 97.5286 69.7318C97.0719 69.7318 96.6855 69.4873 96.6855 69.173C96.6855 68.8587 97.0719 68.6143 97.5286 68.6143C97.9852 68.6143 98.3716 68.8587 98.3716 69.173Z" fill="#88B0E2"/>
<path d="M103.535 68.5444C102.798 67.4967 101.568 66.7982 100.268 66.8681C99.0039 66.9379 97.8097 67.7062 97.2125 68.7889C96.9315 69.2778 97.7043 69.7318 97.9502 69.2429C98.4068 68.4047 99.2849 67.811 100.233 67.7412C101.217 67.6713 102.2 68.1602 102.762 68.9635C103.079 69.4175 103.851 68.9984 103.535 68.5444Z" fill="#1C313F"/>
<path d="M103.746 72.2116C103.746 72.5259 103.359 72.7704 102.903 72.7704C102.446 72.7704 102.06 72.5259 102.06 72.2116C102.06 71.8973 102.446 71.6528 102.903 71.6528C103.359 71.6528 103.746 71.8973 103.746 72.2116Z" fill="#88B0E2"/>
<path d="M97.2476 73.0848C97.7132 73.0848 98.0906 72.8347 98.0906 72.5261C98.0906 72.2175 97.7132 71.9673 97.2476 71.9673C96.782 71.9673 96.4045 72.2175 96.4045 72.5261C96.4045 72.8347 96.782 73.0848 97.2476 73.0848Z" fill="#88B0E2"/>
<path d="M103.219 71.8974C102.481 70.8497 101.252 70.1513 99.9523 70.2211C98.6878 70.291 97.4935 71.0593 96.8964 72.1419C96.6153 72.6308 97.3881 73.0848 97.634 72.5959C98.0906 71.7577 98.9688 71.164 99.9172 71.0942C100.901 71.0243 101.884 71.5133 102.446 72.3165C102.798 72.8054 103.535 72.3864 103.219 71.8974Z" fill="#1C313F"/>
<path d="M103.746 75.5988C103.746 75.9131 103.359 76.1576 102.903 76.1576C102.446 76.1576 102.06 75.9131 102.06 75.5988C102.06 75.2845 102.446 75.04 102.903 75.04C103.359 75.04 103.746 75.2845 103.746 75.5988Z" fill="#88B0E2"/>
<path d="M98.0906 75.9133C98.0906 76.2276 97.7042 76.472 97.2476 76.472C96.7909 76.472 96.4045 76.2276 96.4045 75.9133C96.4045 75.599 96.7909 75.3545 97.2476 75.3545C97.7042 75.3545 98.0906 75.6339 98.0906 75.9133Z" fill="#88B0E2"/>
<path d="M103.219 75.2846C102.481 74.2369 101.252 73.5385 99.9523 73.6083C98.6878 73.6782 97.4935 74.4465 96.8964 75.5291C96.6153 76.018 97.3881 76.472 97.634 75.9831C98.0906 75.1449 98.9688 74.5512 99.9172 74.4814C100.901 74.4116 101.884 74.9005 102.446 75.7037C102.798 76.1926 103.535 75.7736 103.219 75.2846Z" fill="#1C313F"/>
<path d="M103.711 79.301C103.711 79.6153 103.324 79.8597 102.868 79.8597C102.411 79.8597 102.025 79.6153 102.025 79.301C102.025 78.9867 102.411 78.7422 102.868 78.7422C103.324 78.7422 103.711 78.9867 103.711 79.301Z" fill="#88B0E2"/>
<path d="M98.0554 79.6154C98.0554 79.9297 97.669 80.1742 97.2124 80.1742C96.7558 80.1742 96.3694 79.9297 96.3694 79.6154C96.3694 79.3011 96.7558 79.0566 97.2124 79.0566C97.7042 79.0566 98.0554 79.3011 98.0554 79.6154Z" fill="#88B0E2"/>
<path d="M103.219 78.9868C102.481 77.9391 101.252 77.2406 99.9523 77.3105C98.6878 77.3803 97.4935 78.1486 96.8964 79.2313C96.6153 79.7202 97.3881 80.1742 97.634 79.6852C98.0906 78.8471 98.9688 78.2534 99.9172 78.1835C100.901 78.1137 101.884 78.6026 102.446 79.4059C102.762 79.8948 103.535 79.4757 103.219 78.9868Z" fill="#1C313F"/>
<path d="M104.027 82.2346C104.027 82.5489 103.64 82.7933 103.184 82.7933C102.727 82.7933 102.341 82.5489 102.341 82.2346C102.341 81.9202 102.727 81.6758 103.184 81.6758C103.64 81.6758 104.027 81.9202 104.027 82.2346Z" fill="#88B0E2"/>
<path d="M98.3716 82.549C98.3716 82.8633 97.9852 83.1078 97.5286 83.1078C97.0719 83.1078 96.6855 82.8633 96.6855 82.549C96.6855 82.2347 97.0719 81.9902 97.5286 81.9902C97.9852 81.9902 98.3716 82.2347 98.3716 82.549Z" fill="#88B0E2"/>
<path d="M103.535 81.9204C102.798 80.8727 101.568 80.1742 100.268 80.2441C99.0039 80.3139 97.8097 81.0822 97.2125 82.1648C96.9315 82.6538 97.7043 83.1078 97.9502 82.6188C98.4068 81.7807 99.2849 81.187 100.233 81.1171C101.217 81.0473 102.2 81.5362 102.762 82.3395C103.079 82.8284 103.851 82.4093 103.535 81.9204Z" fill="#1C313F"/>
<path d="M103.711 85.7614C103.711 86.0757 103.324 86.3202 102.868 86.3202C102.411 86.3202 102.025 86.0757 102.025 85.7614C102.025 85.4471 102.411 85.2026 102.868 85.2026C103.324 85.2026 103.711 85.4471 103.711 85.7614Z" fill="#88B0E2"/>
<path d="M97.2124 86.6346C97.678 86.6346 98.0554 86.3845 98.0554 86.0759C98.0554 85.7673 97.678 85.5171 97.2124 85.5171C96.7468 85.5171 96.3694 85.7673 96.3694 86.0759C96.3694 86.3845 96.7468 86.6346 97.2124 86.6346Z" fill="#88B0E2"/>
<path d="M103.219 85.4472C102.481 84.3995 101.252 83.7011 99.9523 83.7709C98.6878 83.8408 97.4935 84.6091 96.8964 85.6917C96.6153 86.1806 97.3881 86.6346 97.634 86.1457C98.0906 85.3075 98.9688 84.7138 99.9172 84.644C100.901 84.5742 101.884 85.0631 102.446 85.8663C102.762 86.3552 103.535 85.9012 103.219 85.4472Z" fill="#1C313F"/>
<path d="M103.676 89.1144C103.676 89.4287 103.289 89.6732 102.833 89.6732C102.376 89.6732 101.99 89.4287 101.99 89.1144C101.99 88.8001 102.376 88.5557 102.833 88.5557C103.289 88.5557 103.676 88.835 103.676 89.1144Z" fill="#88B0E2"/>
<path d="M98.0554 89.4636C98.0554 89.7779 97.669 90.0223 97.2124 90.0223C96.7558 90.0223 96.3694 89.7779 96.3694 89.4636C96.3694 89.1492 96.7558 88.9048 97.2124 88.9048C97.669 88.9048 98.0554 89.1492 98.0554 89.4636Z" fill="#88B0E2"/>
<path d="M103.184 88.8349C102.446 87.7872 101.217 87.0888 99.9172 87.1586C98.6526 87.2285 97.4583 87.9968 96.8612 89.0794C96.5802 89.5683 97.353 90.0223 97.5988 89.5334C98.0555 88.6952 98.9336 88.1015 99.882 88.0317C100.866 87.9618 101.849 88.4508 102.411 89.254C102.762 89.708 103.5 89.2889 103.184 88.8349Z" fill="#1C313F"/>
<path d="M95.6318 46.4379C87.1313 43.8186 77.9985 43.2249 69.217 44.7616" stroke="#B0D2F7" stroke-miterlimit="10" stroke-linecap="round" stroke-linejoin="round"/>
<path d="M95.421 50.9432C86.7449 48.5335 77.4365 48.2541 68.6199 50.1051" stroke="#B0D2F7" stroke-miterlimit="10" stroke-linecap="round" stroke-linejoin="round"/>
<path d="M94.8589 57.6136C86.1477 55.588 76.9798 55.588 68.3037 57.6834" stroke="#B0D2F7" stroke-miterlimit="10" stroke-linecap="round" stroke-linejoin="round"/>
<path d="M94.3671 65.3317C86.0423 63.2013 77.2608 62.922 68.8306 64.5634" stroke="#B0D2F7" stroke-miterlimit="10" stroke-linecap="round" stroke-linejoin="round"/>
<path d="M69.1819 71.9319C77.0852 71.408 85.0939 71.8969 92.8919 73.3637" stroke="#B0D2F7" stroke-miterlimit="10" stroke-linecap="round" stroke-linejoin="round"/>
<path d="M118.709 65.0869C123.557 64.3536 128.545 64.2837 133.427 64.8774" stroke="#B0D2F7" stroke-miterlimit="10" stroke-linecap="round" stroke-linejoin="round"/>
<path d="M106.556 73.3641C115.618 72.1069 124.821 72.0719 133.884 73.2943" stroke="#B0D2F7" stroke-miterlimit="10" stroke-linecap="round" stroke-linejoin="round"/>
<path d="M68.655 79.1611C76.7691 78.4976 84.9886 78.8818 92.9973 80.3835" stroke="#B0D2F7" stroke-miterlimit="10" stroke-linecap="round" stroke-linejoin="round"/>
<path d="M119.763 43.714L118.99 42.9108L118.534 43.1203L117.796 42.352L121.028 40.9551L121.836 41.8282L120.29 44.9713L119.552 44.2029L119.763 43.714ZM120.15 43.0156L120.606 42.1774L119.728 42.5965L120.15 43.0156Z" fill="#B0D2F7"/>
<path d="M110.841 61.9441C111.263 61.8044 111.684 61.8044 112.106 61.9092C112.527 62.0139 112.913 62.2584 113.265 62.6076C113.581 62.9219 113.792 63.2362 113.932 63.6204C114.073 63.9696 114.108 64.3538 114.038 64.703C113.967 65.0523 113.827 65.4015 113.616 65.7507L112.422 64.5982C112.492 64.4236 112.492 64.249 112.457 64.1093C112.422 63.9347 112.351 63.795 112.211 63.6902C112.035 63.5156 111.789 63.4109 111.544 63.4458C111.298 63.4807 111.052 63.6204 110.806 63.8649C110.56 64.1093 110.42 64.3538 110.42 64.5982C110.384 64.8427 110.455 65.0523 110.665 65.2618C110.806 65.4015 110.946 65.4713 111.122 65.5063C111.298 65.5412 111.438 65.5063 111.614 65.4713L112.808 66.6238C112.492 66.8683 112.141 67.008 111.754 67.0778C111.403 67.1477 111.017 67.1127 110.665 66.973C110.314 66.8333 109.963 66.6238 109.647 66.3095C109.296 65.9603 109.05 65.5761 108.944 65.157C108.839 64.7379 108.839 64.3189 108.979 63.8998C109.12 63.4807 109.366 63.0965 109.717 62.7473C110.033 62.3282 110.42 62.0838 110.841 61.9441Z" fill="#B0D2F7"/>
<path d="M108.488 54.1211C108.663 53.8766 108.874 53.702 109.12 53.5972C109.366 53.4924 109.682 53.4575 109.998 53.4575C110.314 53.4924 110.595 53.5972 110.806 53.7369C111.052 53.9115 111.228 54.1211 111.333 54.4004C111.438 54.6798 111.509 54.9941 111.473 55.3085L111.333 56.6705L108.066 56.3562L108.207 54.9941C108.207 54.6449 108.312 54.3655 108.488 54.1211ZM110.384 54.7497C110.279 54.61 110.103 54.5052 109.858 54.5052C109.612 54.4703 109.436 54.5401 109.296 54.6449C109.155 54.7846 109.085 54.9592 109.05 55.1688L109.015 55.4132L110.49 55.5529L110.525 55.3085C110.56 55.0989 110.525 54.9243 110.384 54.7497Z" fill="#B0D2F7"/>
<path d="M134.2 56.6708C134.375 56.5311 134.551 56.4612 134.727 56.4263C134.938 56.3914 135.148 56.4263 135.359 56.4961C135.57 56.566 135.745 56.7057 135.886 56.8454C136.026 56.9851 136.097 57.1946 136.132 57.4042C136.167 57.6137 136.132 57.8232 136.062 58.0677L135.71 58.9757L133.532 58.1375L133.884 57.2295C133.919 56.9851 134.024 56.7755 134.2 56.6708ZM135.394 57.4391C135.359 57.2994 135.254 57.2295 135.078 57.1597C134.938 57.0898 134.797 57.0898 134.657 57.1597C134.551 57.2295 134.446 57.3343 134.375 57.474L134.305 57.6486L135.289 58.0328L135.359 57.8582C135.429 57.7185 135.429 57.5788 135.394 57.4391Z" fill="#B0D2F7"/>
<path d="M116.813 49.5111L116.532 49.7206L117.023 50.4191L116.496 50.8033L116.005 50.1048L115.689 50.3143L116.251 51.1176L115.689 51.5017L114.6 50L116.848 48.3936L117.937 49.8953L117.375 50.2794L116.813 49.5111Z" fill="#B0D2F7"/>
<path d="M126.999 55.5532L128.158 56.3914L126.824 58.2074L127.456 58.6614L128.404 57.3692L129.493 58.1725L128.545 59.4646L130.301 60.7219L129.247 62.1537L124.611 58.7662L126.999 55.5532Z" fill="#B0D2F7"/>
<path d="M108.663 45.7398C108.663 45.7048 108.663 45.6699 108.628 45.6001C108.593 45.5651 108.558 45.5302 108.523 45.4953C108.417 45.4254 108.347 45.4255 108.242 45.4604C108.136 45.4953 108.066 45.5651 107.996 45.6699C107.926 45.8096 107.891 45.9144 107.891 46.0191C107.891 46.1239 107.996 46.1938 108.101 46.2985C108.207 46.3684 108.347 46.3684 108.488 46.3335L108.101 46.089L108.312 45.7398L109.12 46.2636L108.804 46.7525C108.663 46.8224 108.488 46.8573 108.312 46.8922C108.136 46.8922 107.961 46.8573 107.75 46.7176C107.574 46.6128 107.469 46.4732 107.364 46.3335C107.293 46.1938 107.258 46.0191 107.258 45.8795C107.258 45.7048 107.329 45.5651 107.434 45.3905C107.539 45.2159 107.645 45.1111 107.785 45.0413C107.926 44.9714 108.066 44.9365 108.242 44.9365C108.417 44.9365 108.558 45.0064 108.734 45.1111C108.944 45.2508 109.085 45.3905 109.155 45.6001C109.225 45.7747 109.225 45.9842 109.12 46.1588L108.663 45.7398Z" fill="#B0D2F7"/>
<path d="M119.798 56.8801L117.374 59.3597L116.602 58.5914L117.55 57.6135L116.812 56.915L115.864 57.8929L115.091 57.1246L117.515 54.645L118.288 55.4133L117.41 56.2864L118.147 56.9849L119.025 56.1118L119.798 56.8801Z" fill="#B0D2F7"/>
<path d="M132.514 38.1612C132.514 38.72 132.584 39.2788 132.655 39.8375C132.444 39.3835 132.268 38.8946 132.057 38.4406C128.931 40.4662 126.332 42.8759 124.33 45.0062C124.295 45.8443 124.259 46.7174 124.224 47.5556C123.908 47.0667 123.662 46.5428 123.452 45.984C122.363 47.2413 121.52 48.3588 120.922 49.2319C120.887 50.2098 120.922 51.1876 121.028 52.1305C120.782 51.3622 120.641 50.559 120.571 49.7558C120.255 50.2796 120.079 50.6288 120.009 50.8384C119.623 52.5496 121.73 57.6484 121.73 57.6484C121.73 57.6484 131.952 57.2992 132.584 56.5309C132.69 56.3912 132.9 55.8324 133.252 54.9593C131.882 54.8895 130.547 54.7847 129.212 54.5053C130.652 54.6101 132.093 54.5403 133.498 54.3307C133.989 53.0735 134.692 51.3273 135.57 49.3716C134.235 48.9874 132.865 48.6033 131.531 48.1493C133.041 48.1144 134.551 48.1842 136.062 48.3239C136.167 48.1144 136.273 47.9048 136.378 47.6953C135.465 47.5556 134.551 47.3461 133.708 47.0317C134.727 46.9619 135.781 46.892 136.799 46.8222C138.275 43.8886 140.172 40.7455 142.49 38.0564C142.103 37.812 141.752 37.4977 141.436 37.1834C141.998 37.2532 142.525 37.3231 143.087 37.3929C144.422 35.9261 145.862 34.634 147.443 33.5863C141.787 33.5164 136.694 35.507 132.514 38.1612Z" fill="#4A4193"/>
<path d="M139.68 37.3929C137.045 38.7899 134.657 40.6059 132.549 42.6664C130.442 44.7268 128.58 47.0318 126.999 49.4764C126.191 50.6987 125.489 51.9909 124.822 53.318L122.819 57.2294C122.468 57.8929 122.152 58.5565 121.801 59.1851L121.309 60.1629C121.239 60.2677 121.204 60.3725 121.133 60.5122C121.028 60.7217 120.923 60.9662 120.782 61.1757C120.115 62.5028 119.447 63.8299 118.71 65.157C118.674 65.1919 118.639 65.2268 118.604 65.1919C118.569 65.157 118.569 65.1221 118.569 65.0871C118.815 63.795 119.131 62.5028 119.517 61.2456C119.588 61.071 119.623 60.8963 119.693 60.7217C119.904 59.9883 120.185 59.2899 120.431 58.5914C120.712 57.8929 120.993 57.1945 121.274 56.496C121.871 55.0991 122.573 53.772 123.346 52.4798C124.154 51.1876 124.997 49.9304 125.875 48.7081C127.667 46.2635 129.704 43.9934 132.022 42.0377C134.341 40.082 136.905 38.4057 139.68 37.2532C139.715 37.2183 139.785 37.2532 139.785 37.2882C139.75 37.3231 139.715 37.358 139.68 37.3929Z" fill="#1C313F"/>
<path d="M121.098 60.5122C120.993 60.7217 120.887 60.9662 120.747 61.1757C120.079 62.5028 119.412 63.8299 118.674 65.157C118.639 65.1919 118.604 65.2269 118.569 65.1919C118.534 65.157 118.534 65.1221 118.534 65.0872C118.78 63.795 119.096 62.5028 119.482 61.2456C119.588 61.2456 119.693 61.2805 119.798 61.3154C119.904 61.3504 120.044 61.3504 120.15 61.3154C120.255 61.2805 120.36 61.2107 120.431 61.1059C120.501 61.0011 120.606 60.8964 120.677 60.7916C120.782 60.6868 120.887 60.5821 120.993 60.5471C120.993 60.5471 121.063 60.5122 121.098 60.5122Z" fill="#6A96C6"/>
<path d="M87.4824 116.773C87.8688 113.77 87.4121 110.592 85.8666 108.008C84.2859 105.423 81.4759 103.468 78.455 103.363C77.4715 105.179 77.2959 107.449 77.9984 109.405C78.6658 111.36 80.0708 113.037 81.7569 114.224C83.4429 115.411 85.4451 116.354 87.4824 116.773Z" fill="#766CFF"/>
<path d="M87.4826 116.773C86.6747 113.84 85.0238 111.081 82.565 109.3C80.1062 107.519 76.7692 106.785 73.924 107.868C73.7484 109.928 74.4509 112.094 75.8559 113.63C77.261 115.167 79.1578 116.18 81.1951 116.634C83.1972 117.088 85.4102 117.158 87.4826 116.773Z" fill="#4A4193"/>
<path d="M87.4825 116.773C85.5154 119.078 82.881 120.929 79.8953 121.558C76.9096 122.186 73.5726 121.453 71.4299 119.323C72.1325 117.367 73.678 115.691 75.5748 114.887C77.4716 114.049 79.6494 113.944 81.6867 114.329C83.724 114.748 85.7613 115.586 87.4825 116.773Z" fill="#766CFF"/>
<path d="M83.8293 120.475C83.6537 118.659 83.8996 116.808 84.5669 115.132C85.2343 113.455 86.3584 111.919 87.7283 110.731C88.0444 111.709 88.1498 112.757 88.1147 113.77C88.0795 114.817 87.939 115.83 87.7985 116.843C87.7985 116.843 86.3232 119.183 83.8293 120.475Z" fill="#1C313F"/>
<path d="M101.779 117.332C104.132 116.285 106.24 114.573 107.434 112.303C108.628 110.033 108.769 107.17 107.539 104.935C105.783 105.039 104.062 105.912 102.938 107.274C101.814 108.636 101.217 110.348 101.111 112.094C100.936 113.84 101.182 115.691 101.779 117.332Z" fill="#766CFF"/>
<path d="M101.779 117.332C103.535 115.446 104.8 113.072 105.01 110.522C105.221 107.973 104.273 105.284 102.235 103.677C100.655 104.446 99.4253 105.912 98.8984 107.589C98.3715 109.265 98.512 111.081 99.074 112.757C99.6711 114.434 100.584 116.04 101.779 117.332Z" fill="#4A4193"/>
<path d="M101.779 117.332C99.2497 116.948 96.7206 115.865 94.9643 114.014C93.208 112.163 92.2596 109.439 92.8567 106.96C94.5779 106.576 96.4747 106.96 97.9149 107.973C99.355 108.985 100.409 110.487 101.006 112.128C101.603 113.735 101.884 115.586 101.779 117.332Z" fill="#766CFF"/>
<path d="M97.4934 116.355C98.7228 115.412 100.163 114.783 101.673 114.504C103.184 114.224 104.764 114.364 106.275 114.818C105.713 115.482 105.01 116.005 104.238 116.459C103.465 116.913 102.657 117.263 101.884 117.612C101.849 117.612 99.5307 117.577 97.4934 116.355Z" fill="#1C313F"/>
<path d="M93.77 121.069C91.5922 119.916 89.5197 118.589 87.5878 117.088C87.3419 116.913 87.096 116.704 86.8853 116.529C86.6394 116.354 86.9204 115.935 87.1312 116.145C88.9928 117.681 91.0301 119.043 93.1377 120.231C95.2453 121.418 97.4582 122.396 99.7765 123.199C102.06 124.003 104.448 124.596 106.837 125.015C109.225 125.399 111.684 125.609 114.108 125.574C116.532 125.539 118.955 125.33 121.344 124.876C121.66 124.806 121.941 124.771 122.257 124.701C122.573 124.631 122.644 125.085 122.363 125.155C119.974 125.679 117.515 125.958 115.056 126.028C112.597 126.098 110.139 125.958 107.715 125.609C105.291 125.26 102.868 124.701 100.549 123.933C98.231 123.164 95.9478 122.221 93.77 121.069Z" fill="#1C313F"/>
<path d="M105.713 125.19C103.816 123.025 102.411 120.44 101.603 117.682C101.357 116.913 101.182 116.11 101.041 115.307C101.006 114.992 101.463 114.888 101.498 115.202C101.955 117.996 103.008 120.65 104.589 122.99C105.046 123.653 105.537 124.282 106.064 124.876C106.275 125.085 105.924 125.435 105.713 125.19Z" fill="#1C313F"/>
<path d="M156.997 120.37C156.47 120.37 155.978 120.196 155.557 119.847C155.065 119.428 154.749 118.834 154.714 118.205C154.679 117.577 154.925 116.948 155.381 116.494L159.491 112.408C160.088 111.814 161.072 111.779 161.704 112.338C162.055 112.617 162.231 113.037 162.266 113.491C162.301 113.945 162.125 114.364 161.809 114.678L157.945 118.694L157.454 118.205L161.317 114.189C161.493 114.014 161.598 113.77 161.563 113.525C161.563 113.281 161.423 113.037 161.247 112.862C160.896 112.548 160.334 112.583 159.983 112.897L155.873 116.983C155.557 117.297 155.381 117.716 155.416 118.17C155.451 118.624 155.627 119.043 155.978 119.323C156.646 119.847 157.594 119.777 158.191 119.148L160.299 116.773L160.826 117.227L158.718 119.602C158.261 120.091 157.629 120.37 156.997 120.37Z" fill="#766CFF"/>
<path d="M66.8286 129.835C66.6178 129.381 66.5476 128.822 66.6881 128.298C66.8637 127.669 67.2852 127.145 67.8472 126.866C68.4093 126.587 69.1118 126.517 69.7089 126.761L75.1534 128.787C75.9613 129.066 76.3829 129.939 76.137 130.743C75.9965 131.162 75.7155 131.511 75.3291 131.72C74.9427 131.93 74.4861 131.965 74.0645 131.825L68.7956 130.009L69.0415 129.346L74.3104 131.162C74.5563 131.231 74.8022 131.231 75.0481 131.127C75.2588 131.022 75.4345 130.812 75.5047 130.568C75.6452 130.114 75.3993 129.625 74.9427 129.45L69.4982 127.425C69.0767 127.25 68.62 127.285 68.1985 127.495C67.8121 127.704 67.496 128.053 67.3906 128.507C67.1799 129.346 67.6365 130.184 68.4444 130.428L71.5003 131.371L71.2896 132.035L68.2336 131.092C67.6014 130.882 67.0745 130.393 66.8286 129.835Z" fill="#766CFF"/>
<path d="M41.2218 117.123C41.2569 116.599 41.4676 116.11 41.8189 115.691C42.2404 115.237 42.8727 114.958 43.5401 114.958C44.1723 114.958 44.8046 115.237 45.2261 115.726L49.0549 120.056C49.6169 120.685 49.5817 121.663 48.9846 122.256C48.6685 122.571 48.247 122.745 47.7903 122.745C47.3337 122.745 46.9122 122.571 46.6312 122.222L42.8376 118.136L43.3645 117.647L47.1581 121.733C47.3337 121.907 47.5796 122.012 47.8255 122.012C48.0713 122.012 48.3172 121.907 48.4928 121.733C48.8441 121.383 48.8441 120.825 48.528 120.475L44.6992 116.215C44.3831 115.866 43.9967 115.691 43.5401 115.691C43.0834 115.691 42.6619 115.866 42.3458 116.215C41.7487 116.843 41.7838 117.786 42.3809 118.415L44.629 120.65L44.1372 121.139L41.8892 118.904C41.3974 118.38 41.1866 117.751 41.2218 117.123Z" fill="#4A4193"/>
<path d="M149.621 125.819C149.621 125.295 149.761 124.806 150.112 124.352C150.499 123.863 151.096 123.549 151.763 123.479C152.396 123.444 153.028 123.653 153.52 124.107L157.7 128.089C158.297 128.682 158.367 129.625 157.805 130.289C157.524 130.638 157.102 130.848 156.646 130.883C156.189 130.918 155.768 130.778 155.452 130.464L151.342 126.692L151.834 126.168L155.943 129.94C156.119 130.114 156.365 130.184 156.646 130.184C156.892 130.184 157.138 130.044 157.278 129.87C157.594 129.486 157.559 128.962 157.208 128.613L153.028 124.631C152.712 124.317 152.255 124.177 151.834 124.177C151.377 124.212 150.991 124.422 150.71 124.771C150.183 125.435 150.288 126.412 150.92 126.936L153.344 128.997L152.887 129.521L150.464 127.46C149.902 127.076 149.621 126.447 149.621 125.819Z" fill="#1C313F"/>
<path d="M47.2634 124.736C47.7552 124.91 48.1416 125.259 48.4226 125.748C48.7387 126.307 48.809 126.971 48.5982 127.599C48.3875 128.193 47.9308 128.717 47.3337 128.961L42.0297 131.266C41.2569 131.616 40.3436 131.266 39.9221 130.533C39.7113 130.149 39.6762 129.695 39.8167 129.276C39.9572 128.857 40.2734 128.507 40.6597 128.333L45.7179 125.993L45.9989 126.621L40.9408 128.961C40.6949 129.066 40.5192 129.276 40.449 129.485C40.3787 129.73 40.3787 129.974 40.5192 130.219C40.73 130.638 41.2569 130.812 41.7135 130.638L47.0175 128.333C47.4391 128.158 47.7552 127.809 47.8957 127.39C48.0362 126.971 48.0011 126.517 47.7903 126.098C47.3688 125.364 46.4555 125.085 45.6828 125.469L42.8376 126.901L42.5214 126.272L45.3666 124.84C45.9989 124.526 46.6663 124.491 47.2634 124.736Z" fill="#2C4B63"/>
</g>
<defs>
<clipPath id="clip0_202_1285">
<rect width="145" height="123" fill="white" transform="translate(31 9)"/>
</clipPath>
</defs>
</svg>
