<svg width="341" height="142" viewBox="0 0 341 142" fill="none" xmlns="http://www.w3.org/2000/svg">
<rect width="340.843" height="141" rx="22.2047" fill="#4455D7"/>
<path fill-rule="evenodd" clip-rule="evenodd" d="M0 117.758C0.00238468 118.5 0.0411219 119.233 0.114523 119.955C1.2495 131.131 10.6724 139.857 22.1401 139.89H318.702C330.936 139.855 340.842 129.927 340.842 117.685V117.645L0 55.5117V117.758Z" fill="#424A9A"/>
<path d="M248.854 54.1275C249.81 54.1199 250.36 53.8733 250.505 53.3876C250.626 53.1067 250.687 52.511 250.687 51.6002V45.6349H255.605V54.1275H257.005V59H237.731C236.859 59 236.073 58.8141 235.375 58.4422C234.684 58.0855 234.126 57.5732 233.701 56.9053C233.603 56.7535 233.504 56.56 233.405 56.3247C233.322 56.1274 233.257 55.9111 233.212 55.6758C233.159 55.4481 233.117 55.1825 233.087 54.8789C233.064 54.6664 233.053 54.3287 233.053 53.8657V46.1016H237.971V51.6002C237.971 52.511 238.031 53.1067 238.153 53.3876C238.289 53.8733 238.836 54.1199 239.792 54.1275H248.854ZM244.517 64.6694C245.177 64.6694 245.746 64.4341 246.224 63.9635C246.687 63.493 246.919 62.9276 246.919 62.2673C246.919 61.5994 246.687 61.0302 246.224 60.5596C245.746 60.0891 245.177 59.8538 244.517 59.8538C243.849 59.8538 243.283 60.0891 242.82 60.5596C242.342 61.0302 242.103 61.5994 242.103 62.2673C242.103 62.9352 242.342 63.5006 242.82 63.9635C243.283 64.4341 243.849 64.6694 244.517 64.6694ZM261.138 40.0452C260.659 39.5747 260.09 39.3394 259.43 39.3394C258.762 39.3394 258.197 39.5747 257.734 40.0452C257.263 40.5158 257.028 41.0812 257.028 41.7415C257.028 42.4169 257.263 42.9861 257.734 43.4491C258.197 43.9197 258.762 44.1549 259.43 44.1549C260.098 44.1549 260.667 43.9197 261.138 43.4491C261.6 42.9786 261.832 42.4093 261.832 41.7415C261.832 41.0812 261.6 40.5158 261.138 40.0452ZM267.296 40.0452C266.818 39.5747 266.249 39.3394 265.589 39.3394C264.921 39.3394 264.355 39.5747 263.893 40.0452C263.414 40.5158 263.175 41.0812 263.175 41.7415C263.175 42.4169 263.414 42.9861 263.893 43.4491C264.355 43.9197 264.921 44.1549 265.589 44.1549C266.249 44.1549 266.818 43.9197 267.296 43.4491C267.759 42.9786 267.991 42.4093 267.991 41.7415C267.991 41.0812 267.759 40.5158 267.296 40.0452ZM256.083 59V54.1275H261.445C262.401 54.1199 262.948 53.8733 263.084 53.3876C263.213 53.1067 263.278 52.511 263.278 51.6002V46.1016H268.184V54.1275H269.585V59H256.083ZM270.518 50.0064V45.0201L273.82 40.6713H279.307L276.074 45.0201H281.31C281.553 45.0201 281.697 45.0239 281.743 45.0315C282.889 45.0922 283.914 45.3996 284.817 45.9536C285.834 46.576 286.657 47.4905 287.287 48.6972C287.583 49.274 287.799 49.9988 287.936 50.8716V59H268.651V54.1275H283.018V53.9226C283.018 51.4864 282.282 50.1886 280.81 50.0292L280.377 50.0064H270.518ZM216.488 90.5319C216.488 91.4427 216.743 92.1067 217.251 92.5242C217.767 92.9492 218.576 93.1693 219.676 93.1845V87.424H219.471C217.483 87.424 216.488 88.46 216.488 90.5319ZM220.94 98C219.391 98 218.2 97.9317 217.365 97.7951C216.447 97.6661 215.714 97.4498 215.168 97.1462C213.984 96.5163 213.077 95.6928 212.447 94.6758C211.817 93.6512 211.502 92.2699 211.502 90.5319C211.502 88.923 211.817 87.5986 212.447 86.5588C213.069 85.5342 213.976 84.7108 215.168 84.0884C215.775 83.7849 216.504 83.5648 217.354 83.4281C218.173 83.2915 219.247 83.2232 220.575 83.2232H224.549V93.1275H226.973V98H220.94ZM217.763 77.9182C217.293 77.4552 216.728 77.2237 216.067 77.2237C215.399 77.2237 214.83 77.4552 214.36 77.9182C213.889 78.3963 213.654 78.9655 213.654 79.6258C213.654 80.2937 213.889 80.8591 214.36 81.3221C214.823 81.8002 215.392 82.0393 216.067 82.0393C216.728 82.0393 217.293 81.8002 217.763 81.3221C218.234 80.8591 218.469 80.2937 218.469 79.6258C218.469 78.9655 218.234 78.3963 217.763 77.9182ZM223.922 77.9182C223.444 77.4552 222.875 77.2237 222.215 77.2237C221.554 77.2237 220.989 77.4552 220.518 77.9182C220.048 78.3963 219.813 78.9655 219.813 79.6258C219.813 80.2937 220.048 80.8591 220.518 81.3221C220.981 81.8002 221.547 82.0393 222.215 82.0393C222.883 82.0393 223.452 81.8002 223.922 81.3221C224.393 80.8591 224.628 80.2937 224.628 79.6258C224.628 78.9655 224.393 78.3963 223.922 77.9182ZM234.533 87.6517C233.705 87.6517 233.049 87.8946 232.563 88.3803C232.062 88.8812 232.563 90.4598 234.066 93.1162H236.377C237.872 90.4598 238.373 88.8812 237.879 88.3803C237.386 87.8946 236.73 87.6517 235.91 87.6517H234.533ZM226.04 98V93.1275H229.501C228.066 89.9703 227.516 87.9477 227.85 87.0597C228.184 86.1718 228.696 85.39 229.387 84.7146C230.055 84.0239 230.821 83.5078 231.686 83.1663C232.521 82.8248 233.47 82.654 234.533 82.654C234.897 82.654 235.124 82.654 235.216 82.654C235.307 82.654 235.538 82.654 235.91 82.654C236.973 82.654 237.921 82.8248 238.756 83.1663C239.621 83.5078 240.384 84.0239 241.044 84.7146C241.735 85.39 242.247 86.1718 242.581 87.0597C242.923 87.9477 242.372 89.9703 240.93 93.1275H244.391V98H226.04ZM258.553 93.1731L256.322 98H243.458V93.1275L253.59 93.1162C254.402 92.2434 254.808 91.3136 254.808 90.327C254.808 89.5301 254.557 88.8812 254.057 88.3803C253.571 87.8946 252.918 87.6517 252.098 87.6517C251.302 87.6517 250.664 87.8794 250.186 88.3348C249.806 88.6915 249.575 89.1696 249.491 89.7692L245.245 87.6403C245.382 87.1622 245.564 86.722 245.792 86.3198C246.49 85.0903 247.37 84.1719 248.433 83.5648C249.488 82.9576 250.71 82.654 252.098 82.654C253.153 82.654 254.102 82.8248 254.944 83.1663C255.81 83.5078 256.572 84.0239 257.233 84.7146C257.923 85.39 258.436 86.1718 258.77 87.0597C259.104 87.9477 259.271 88.9154 259.271 89.9627C259.271 91.1087 259.047 92.1788 258.599 93.1731H258.553ZM252.326 99.5027C251.848 99.0322 251.279 98.7969 250.618 98.7969C249.958 98.7969 249.393 99.0322 248.922 99.5027C248.452 99.9733 248.216 100.542 248.216 101.21C248.216 101.878 248.452 102.444 248.922 102.907C249.385 103.377 249.951 103.612 250.618 103.612C251.286 103.612 251.856 103.377 252.326 102.907C252.797 102.436 253.032 101.871 253.032 101.21C253.032 100.55 252.797 99.9809 252.326 99.5027ZM262.811 98V83.4851H262.071V79.4437H267.342V98H262.811ZM268.287 100.3C269.729 100.011 270.537 99.2447 270.712 98L270.678 84.3617L275.584 84.3503V93.1275H278.009V98H275.459C275.345 100.922 273.649 102.872 270.37 103.852L268.287 100.3ZM286.206 94.7099C286.904 94.7099 287.462 94.4747 287.879 94.0041C288.297 93.5488 288.505 92.9264 288.505 92.1371C288.505 91.3478 288.297 90.7179 287.879 90.2473C287.454 89.7692 286.896 89.5301 286.206 89.5301C285.523 89.5301 284.969 89.7692 284.544 90.2473C284.119 90.7255 283.906 91.3554 283.906 92.1371C283.906 92.9112 284.119 93.5336 284.544 94.0041C284.961 94.4747 285.515 94.7099 286.206 94.7099ZM290.475 98C290.035 98.3036 289.564 98.554 289.063 98.7514C288.19 99.1157 287.238 99.2978 286.206 99.2978C285.181 99.2978 284.225 99.1195 283.337 98.7627C282.821 98.5654 282.346 98.3112 281.914 98H277.087V93.1275H278.977C278.939 92.8012 278.92 92.471 278.92 92.1371C278.92 90.0728 279.607 88.3727 280.98 87.037C282.392 85.6633 284.134 84.9764 286.206 84.9764C287.268 84.9764 288.228 85.1472 289.086 85.4887C289.974 85.8378 290.763 86.3539 291.454 87.037C292.144 87.7048 292.661 88.4676 293.002 89.3252C293.344 90.1676 293.514 91.1049 293.514 92.1371C293.514 92.471 293.495 92.8012 293.457 93.1275H294.584V98H290.475ZM301.108 83.3712V92.8657C301.108 93.3287 301.092 93.6664 301.062 93.8789C301.039 94.1749 301.005 94.4405 300.96 94.6758C300.899 94.9111 300.831 95.1274 300.755 95.3247C300.648 95.56 300.546 95.7535 300.447 95.9053C300.03 96.5732 299.476 97.0855 298.785 97.4422C298.087 97.8141 297.302 98 296.429 98H293.662V93.1275H294.357C295.313 93.1199 295.863 92.8733 296.008 92.3876C296.129 92.1067 296.19 91.511 296.19 90.6002V79.4437H301.415V83.3712H301.108ZM304.956 98V83.4851H304.216V79.4437H309.486V98H304.956Z" fill="white"/>
<path d="M178.325 124.369H36.6885" stroke="#575FF2" stroke-width="4" stroke-miterlimit="10" stroke-linecap="round"/>
<path opacity="0.74" d="M52.3478 18.6587C52.1526 18.2695 52.3869 18.3473 52.2697 18.1138C51.9964 17.5689 50.5905 16.9461 49.1847 16.6737C47.9351 16.4402 46.6855 17.2964 46.4902 18.5419C46.4512 18.7754 46.4121 19.009 46.4121 19.3203V53.6878H76.3249V18.6587H52.3478Z" fill="#EAEAEA"/>
<path d="M48.5208 16.6348C48.5208 16.6348 50.5514 16.5569 51.059 18.3862C51.4886 19.9041 51.3324 22.434 51.3324 22.434H79.1755C79.1755 22.434 80.3471 17.1797 76.7544 16.985C74.0209 16.8294 48.5208 16.6348 48.5208 16.6348Z" fill="white"/>
<g opacity="0.43">
<path d="M72.3417 27.7661H51.0981V28.1553H72.3417V27.7661Z" fill="white"/>
</g>
<g opacity="0.43">
<path d="M72.3417 32.8647H51.0981V33.254H72.3417V32.8647Z" fill="white"/>
</g>
<g opacity="0.43">
<path d="M72.3417 37.6523H51.0981V38.0416H72.3417V37.6523Z" fill="white"/>
</g>
<path opacity="0.14" d="M56.6042 53.6487V47.7715C56.6042 47.7715 56.6042 44.58 58.4006 44.5022C59.2597 44.4632 76.3249 44.5022 76.3249 44.5022V53.7265L56.6042 53.6487Z" fill="#777DF2"/>
<path d="M139.118 20.8381C135.682 21.2273 132.909 23.9518 132.441 27.3769C132.05 30.3738 133.417 33.0983 135.682 34.6163C136.073 34.8887 136.307 35.2779 136.307 35.745V37.73V37.8856V39.3646C136.307 39.7928 136.658 40.1431 137.088 40.1431L137.478 40.2209C137.361 40.2598 137.322 40.3766 137.322 40.4934C137.322 40.649 137.439 40.8047 137.635 40.8047H142.477C142.633 40.8047 142.789 40.688 142.789 40.4934C142.789 40.3766 142.711 40.2598 142.594 40.2209L142.906 40.182C143.336 40.182 143.687 39.8317 143.687 39.4036V37.9246V37.7689V35.7839C143.687 35.3168 143.922 34.9276 144.273 34.6552C146.265 33.2929 147.593 30.9966 147.593 28.3889C147.593 23.874 143.726 20.2932 139.118 20.8381Z" fill="#A680FF"/>
<path d="M140.837 34.9667L142.36 29.0896C142.399 28.9339 142.243 28.8172 142.125 28.8561C141.696 28.9728 141.071 28.9339 140.681 28.2333C140.329 27.6106 140.407 26.8711 140.876 26.8711C141.813 26.8711 141.071 29.2842 139.743 29.1285H139.9C137.947 29.0896 137.752 26.91 138.572 26.8711C139.314 26.8711 139.197 27.9609 138.845 28.389C138.338 29.0507 137.947 28.9339 137.517 28.8172C137.361 28.7782 137.244 28.895 137.283 29.0507L138.806 34.9278" stroke="#6B61F7" stroke-width="0.9095" stroke-miterlimit="10"/>
<path d="M137.869 34.9663H141.735" stroke="#6B61F7" stroke-width="0.909" stroke-miterlimit="10" stroke-linecap="round"/>
<path d="M137.01 36.4844H142.985" stroke="#6B61F7" stroke-width="0.909" stroke-miterlimit="10" stroke-linecap="round"/>
<path d="M137.01 37.8857H142.985" stroke="#6B61F7" stroke-width="0.909" stroke-miterlimit="10" stroke-linecap="round"/>
<path d="M137.01 39.3257H142.985" stroke="#6B61F7" stroke-width="0.909" stroke-miterlimit="10" stroke-linecap="round"/>
<path d="M135.487 24.4579C134.315 25.3142 133.339 27.0267 133.807 28.5057C133.886 28.7782 134.315 28.8949 134.471 28.5836C134.745 27.9997 134.745 27.377 134.94 26.7932C135.135 26.1315 135.448 25.4699 135.916 24.9639C136.111 24.6914 135.799 24.2244 135.487 24.4579Z" fill="white"/>
<path d="M137.556 23.0957C137.322 22.979 137.01 23.0957 136.814 23.2125C136.58 23.3293 136.346 23.5239 136.19 23.7185C135.994 23.9909 136.385 24.3023 136.619 24.1466C136.814 24.0298 137.01 23.8742 137.205 23.7574C137.4 23.6406 137.595 23.5239 137.674 23.3293C137.713 23.2514 137.635 23.1346 137.556 23.0957Z" fill="white"/>
<path d="M91.5938 48.5108V37.7686H116.313V48.5108H91.5938Z" fill="#4144FC"/>
<path d="M91.5938 48.5108V37.7686H116.313V48.5108H91.5938Z" fill="#4144FC"/>
<path opacity="0.33" d="M113.228 37.7686C113.033 38.4302 112.798 39.053 112.564 39.6757L105.301 42.1277C105.105 42.2056 104.871 42.2056 104.637 42.1277L91.5938 38.1967V39.3254L105.535 43.4121L112.056 40.9212C110.846 43.5678 109.245 45.6306 107.058 46.1755C101.747 47.4989 94.9521 47.4599 91.6328 46.3701V48.4719L116.313 48.5108V37.7686H113.228Z" fill="#3658E0"/>
<path d="M103.27 30.9964L84.5256 35.5502C84.2913 35.5891 84.2913 35.9394 84.5256 36.0173L104.715 42.1279C104.91 42.2058 105.144 42.2058 105.34 42.1279L123.459 36.0173C123.693 35.9394 123.654 35.6281 123.42 35.5502L103.739 30.9575C103.582 30.9575 103.426 30.9575 103.27 30.9964Z" fill="#808BFF"/>
<path d="M124.279 40.9601C124.123 40.9601 123.967 40.8044 123.967 40.6487V36.4841C123.967 36.3674 123.928 36.2895 123.85 36.2117C123.771 36.1338 123.654 36.0949 123.576 36.0949L103.114 36.8733C102.957 36.8733 102.801 36.7566 102.801 36.562C102.801 36.4063 102.918 36.2506 103.114 36.2506L123.576 35.4722C123.85 35.4722 124.123 35.55 124.318 35.7446C124.513 35.9392 124.631 36.2117 124.631 36.4841V40.6487C124.553 40.8044 124.435 40.9601 124.279 40.9601Z" fill="#4144FC"/>
<path d="M124.279 41.1157C123.381 41.1157 122.6 43.957 122.366 46.2144C122.288 46.9928 122.873 47.6545 123.654 47.6545H124.943C125.724 47.6545 126.31 46.9928 126.232 46.2144C125.919 43.957 125.177 41.1157 124.279 41.1157Z" fill="#808BFF"/>
<path d="M123.264 40.6487C123.264 40.1038 123.693 39.6367 124.279 39.6367C124.826 39.6367 125.295 40.0649 125.295 40.6487C125.295 41.2325 124.865 41.6606 124.279 41.6606C123.693 41.6217 123.264 41.1936 123.264 40.6487Z" fill="#4144FC"/>
<g opacity="0.25">
<path d="M56.6042 120.982C56.6042 120.982 56.2528 120.904 55.667 120.788" stroke="white" stroke-width="0.75" stroke-miterlimit="10" stroke-linecap="round"/>
<path d="M53.7536 120.321C45.8263 118.219 24.2313 110.512 28.0973 90.1567C33.4472 61.822 61.6809 72.72 61.6809 72.1361C61.6809 71.5523 31.2604 62.3669 40.7106 38.2357C50.1609 14.1046 78.0822 16.7123 88.6259 23.6403C96.0064 28.4665 99.482 33.4095 100.888 35.9394" stroke="white" stroke-width="0.75" stroke-miterlimit="10" stroke-linecap="round" stroke-dasharray="4.96 4.96"/>
<path d="M101.356 36.7568C101.63 37.3407 101.747 37.652 101.747 37.652C101.747 37.652 102.059 37.4963 102.606 37.185" stroke="white" stroke-width="0.75" stroke-miterlimit="10" stroke-linecap="round"/>
<path d="M104.363 36.2898C113.189 31.9696 142.047 19.7483 157.004 36.5623C172.585 54.0768 153.919 85.642 149.115 93.1538" stroke="white" stroke-width="0.75" stroke-miterlimit="10" stroke-linecap="round" stroke-dasharray="5.06 5.06"/>
<path d="M148.569 94.0098C148.217 94.5157 148.022 94.8271 148.022 94.8271C148.022 94.8271 148.334 94.6714 148.881 94.399" stroke="white" stroke-width="0.75" stroke-miterlimit="10" stroke-linecap="round"/>
<path d="M150.638 93.5819C156.848 90.9741 172.194 86.3036 175.397 101.911C179.185 120.399 154.7 123.707 147.553 124.291" stroke="white" stroke-width="0.75" stroke-miterlimit="10" stroke-linecap="round" stroke-dasharray="4.91 4.91"/>
<path d="M146.577 124.33C145.952 124.369 145.601 124.369 145.601 124.369" stroke="white" stroke-width="0.75" stroke-miterlimit="10" stroke-linecap="round"/>
</g>
<path opacity="0.29" d="M120.335 87.0821C120.335 87.0821 122.756 53.6876 154.114 44.5801C157.511 52.5589 155.168 65.4419 149.506 77.6242C143.844 89.8455 137.322 94.4382 130.41 97.9022C123.459 101.366 120.14 94.3214 120.335 87.0821Z" fill="#EAEAEA"/>
<path opacity="0.12" d="M149.467 77.6631C151.966 72.292 153.801 66.843 154.817 61.6665C148.764 62.9509 141.266 69.334 141.266 69.334C141.266 69.334 128.028 68.0107 125.255 69.6454C125.255 69.6454 123.772 73.1093 122.366 77.1961C120.608 82.9564 120.335 87.0821 120.335 87.0821C120.14 94.3214 123.459 101.366 130.371 97.9022C137.283 94.4382 143.805 89.8455 149.467 77.6631Z" fill="#575FF2"/>
<path opacity="0.29" d="M61.6418 72.1364C61.6418 72.1364 57.6586 60.966 47.896 58.0469L44.2643 57.035C43.9518 56.9571 43.6394 57.1128 43.5223 57.4242C42.8584 59.4481 40.8278 66.8431 43.7175 72.6813C47.0759 79.5314 53.0507 92.6868 61.759 93.076C70.5063 93.4263 61.6418 72.1364 61.6418 72.1364Z" fill="#EAEAEA"/>
<path opacity="0.12" d="M65.5468 86.3426C62.8913 83.0343 58.3224 77.3907 55.5498 74.4327C51.4885 70.1124 42.624 69.334 42.624 69.334L43.5222 72.2142C43.6003 72.3698 43.6784 72.5255 43.7565 72.6812C46.3338 77.9356 50.4732 86.8875 56.1746 90.9742C57.5804 91.6359 58.9863 92.2975 60.2359 92.8813C60.7435 92.9981 61.2903 93.0759 61.7979 93.0759C65.1172 93.1927 65.8982 90.1568 65.5468 86.3426Z" fill="#575FF2"/>
<path d="M65.8203 94.8662C65.8203 94.8662 61.2124 79.2199 50.6296 74.8607C41.9213 71.2799 36.259 70.1512 34.5407 69.8788C34.2674 69.8398 34.1502 70.0734 34.1112 70.3458C30.7919 81.9833 33.9159 95.7614 40.5546 102.417C46.0997 107.983 62.501 110.474 62.501 110.474C62.501 110.474 73.5133 103.156 72.9666 102.339C72.4199 101.483 65.8203 94.8662 65.8203 94.8662Z" fill="#575FF2"/>
<path opacity="0.29" d="M64.2584 108.8L48.9505 89.4564L50.5516 83.6182C50.5516 83.6182 50.5516 83.6182 50.5516 83.5792C50.5516 83.5014 50.5125 83.3846 50.3954 83.3457C50.2782 83.3068 50.2001 83.3846 50.1611 83.5014L48.6381 89.0671L35.439 72.3699C35.3609 72.2921 35.2437 72.2532 35.1656 72.331C35.0875 72.4088 35.0485 72.5256 35.1266 72.6035L42.7414 82.1781L36.9619 82.217C36.8448 82.217 36.7667 82.2948 36.7667 82.4116C36.7667 82.5284 36.8448 82.6062 36.9619 82.6062L43.0538 82.5673L54.5738 97.1238L43.9911 98.5639C43.8739 98.5639 43.7958 98.6807 43.8349 98.7974C43.8349 98.8753 43.913 98.9531 44.0301 98.9531C44.0301 98.9531 44.0301 98.9531 44.0692 98.9531L54.7691 97.4741C54.8081 97.4741 54.8472 97.4352 54.8472 97.4352L63.985 108.956C64.0631 109.034 64.1803 109.073 64.2584 108.995C64.2974 108.956 64.3365 108.917 64.3365 108.878C64.2974 108.878 64.2974 108.839 64.2584 108.8Z" fill="#EAEAEA"/>
<path d="M129.551 90.1179L131.543 83.657C131.543 83.657 136.736 75.4836 144.468 70.6962C150.951 66.6874 161.573 64.6245 164.814 64.0407C165.282 63.9629 165.595 64.3521 165.595 64.8581C165.595 69.3729 163.994 82.8007 154.934 93.037C146.499 102.612 136.971 104.713 136.971 104.713L128.497 93.8544L129.551 90.1179Z" fill="#575FF2"/>
<path opacity="0.29" d="M164.579 64.9749C164.501 64.897 164.384 64.897 164.306 64.9749L155.988 73.9268L155.051 68.2443C155.051 68.1275 154.934 68.0497 154.817 68.0886C154.7 68.0886 154.622 68.2054 154.661 68.3221L155.637 74.316L132.675 99.031C132.597 99.1088 132.597 99.2256 132.675 99.3034C132.714 99.3423 132.753 99.3423 132.792 99.3423C132.831 99.3423 132.909 99.3034 132.948 99.2645L149.74 81.1661L155.793 81.8278C155.793 81.8278 155.793 81.8278 155.832 81.8278C155.949 81.8278 156.027 81.7499 156.027 81.6721C156.027 81.5553 155.949 81.4775 155.871 81.4386L150.131 80.8158L164.619 65.2084C164.658 65.1695 164.658 65.0527 164.579 64.9749Z" fill="#EAEAEA"/>
<path d="M71.5607 105.219C69.6472 100.51 69.6472 95.3332 71.5607 90.6237C71.5607 90.5848 71.5607 90.5848 71.5607 90.5459H71.1702C69.2567 95.2943 69.2567 100.549 71.1702 105.297H71.5607C71.5998 105.258 71.5998 105.258 71.5607 105.219Z" fill="#FFCF80"/>
<path d="M76.9889 104.869C75.1535 100.393 75.1535 95.489 76.9889 91.0131C77.067 90.8574 77.067 90.7017 77.067 90.585H74.6458C72.8104 95.3723 72.8104 100.549 74.6458 105.336H77.067C77.067 105.142 77.067 104.986 76.9889 104.869Z" fill="#FFCF80"/>
<path d="M153.138 105.297H134.784C134.472 105.959 134.237 106.582 134.003 107.205H152.513C152.864 105.998 153.138 105.297 153.138 105.297Z" fill="#FFCF80"/>
<path d="M124.826 88.8337L124.513 47.6161C124.435 46.8377 123.732 46.2539 122.951 46.2539H94.21V90.5463H123.264C124.201 90.5463 124.943 89.7679 124.826 88.8337Z" fill="#575FF2"/>
<path d="M88.6258 46.2539H61.2903C60.4312 46.2539 59.7673 46.9156 59.7283 47.7329L59.533 88.9505C59.494 89.8457 60.1969 90.5463 61.0951 90.5463H88.6258C88.6649 82.1782 88.5868 54.8555 88.6258 46.2539Z" fill="#575FF2"/>
<path d="M88.6258 46.2539C88.5867 54.8944 88.6258 82.2171 88.6648 90.5463H94.21V46.2539C92.3747 46.682 90.5002 46.682 88.6258 46.2539Z" fill="#C9C9C9"/>
<path d="M117.562 48.5894H66.406V88.5225H117.562V48.5894Z" fill="white"/>
<path d="M91.9061 50.146H91.5156V87.0044H91.9061V50.146Z" fill="#C9C9C9"/>
<path d="M112.486 53.6489H98.1152V54.0381H112.486V53.6489Z" fill="#777DF2"/>
<path d="M112.486 60.5771H98.1152V60.9664H112.486V60.5771Z" fill="#777DF2"/>
<path d="M112.486 67.5049H98.1152V67.8941H112.486V67.5049Z" fill="#777DF2"/>
<path d="M112.486 74.4331H98.1152V74.8223H112.486V74.4331Z" fill="#777DF2"/>
<path d="M112.486 81.3218H98.1152V81.711H112.486V81.3218Z" fill="#777DF2"/>
<path d="M85.5799 53.6489H71.2092V54.0381H85.5799V53.6489Z" fill="#777DF2"/>
<path d="M85.5799 60.5771H71.2092V60.9664H85.5799V60.5771Z" fill="#777DF2"/>
<path d="M85.5799 67.5049H71.2092V67.8941H85.5799V67.5049Z" fill="#777DF2"/>
<path d="M85.5799 74.4331H71.2092V74.8223H85.5799V74.4331Z" fill="#777DF2"/>
<path d="M85.5799 81.3218H71.2092V81.711H85.5799V81.3218Z" fill="#777DF2"/>
<path d="M83.6664 57.152L81.9482 55.5173L80.23 57.152V48.5894H83.6664V57.152Z" fill="#532443"/>
<path d="M62.4229 48.5894C61.9933 48.5894 61.6418 48.9396 61.6418 49.3678V87.7441C61.6418 88.1723 61.9933 88.5225 62.4229 88.5225H66.406V48.5894H62.4229Z" fill="#EAEAEA"/>
<path d="M121.975 48.5889H117.562V88.5221H121.975C122.405 88.5221 122.756 88.1718 122.756 87.7436V49.3673C122.756 48.9392 122.405 48.5889 121.975 48.5889Z" fill="#EAEAEA"/>
<path d="M144.156 48.6667L143.18 48.5889L139.938 83.5791L140.915 83.6569C141.461 83.6958 141.969 83.2677 142.008 82.7228L145.054 49.7954C145.093 49.2505 144.703 48.7056 144.156 48.6667Z" fill="#7861F7"/>
<path d="M139.04 48.1997C138.494 48.1608 137.986 48.5889 137.947 49.1338L134.901 82.0612C134.862 82.645 135.252 83.151 135.799 83.1899L139.899 83.5791L143.141 48.5889L139.04 48.1997ZM139.392 50.6128C139.157 50.5739 139.001 50.3793 139.04 50.1847C139.079 49.9512 139.275 49.7955 139.47 49.7955C139.704 49.8344 139.86 50.029 139.821 50.2236C139.821 50.4572 139.626 50.6128 139.392 50.6128Z" fill="#8880FF"/>
<path d="M137.595 52.9482L138.767 53.065" stroke="white" stroke-width="1.4888" stroke-miterlimit="10"/>
<path d="M137.439 54.6216L138.611 54.7383" stroke="white" stroke-width="1.4888" stroke-miterlimit="10"/>
<path d="M137.283 56.2954L139.86 56.5679" stroke="white" stroke-width="1.4888" stroke-miterlimit="10"/>
<path d="M137.127 58.0078L138.298 58.0857" stroke="white" stroke-width="1.4888" stroke-miterlimit="10"/>
<path d="M136.97 59.6816L138.142 59.7595" stroke="white" stroke-width="1.4888" stroke-miterlimit="10"/>
<path d="M136.814 61.355L139.392 61.5885" stroke="white" stroke-width="1.4888" stroke-miterlimit="10"/>
<path d="M136.658 63.0288L137.83 63.1456" stroke="white" stroke-width="1.4888" stroke-miterlimit="10"/>
<path d="M136.502 64.7021L137.673 64.8189" stroke="white" stroke-width="1.4888" stroke-miterlimit="10"/>
<path d="M136.346 66.376L138.923 66.6095" stroke="white" stroke-width="1.4888" stroke-miterlimit="10"/>
<path d="M136.189 68.0493L137.361 68.1661" stroke="white" stroke-width="1.4888" stroke-miterlimit="10"/>
<path d="M136.033 69.7231L137.205 69.8399" stroke="white" stroke-width="1.4888" stroke-miterlimit="10"/>
<path d="M135.877 71.397L138.455 71.6305" stroke="white" stroke-width="1.4888" stroke-miterlimit="10"/>
<path d="M135.721 73.0703L136.892 73.1871" stroke="white" stroke-width="1.4888" stroke-miterlimit="10"/>
<path d="M135.565 74.7441L136.736 74.8609" stroke="white" stroke-width="1.4888" stroke-miterlimit="10"/>
<path d="M135.408 76.4565L137.986 76.6901" stroke="white" stroke-width="1.4888" stroke-miterlimit="10"/>
<path d="M135.252 78.1304L136.424 78.2082" stroke="white" stroke-width="1.4888" stroke-miterlimit="10"/>
<path d="M136.268 79.8816L135.096 79.8037" stroke="white" stroke-width="1.4888" stroke-miterlimit="10"/>
<path d="M131.624 80.215L137.776 79.7505L135.64 51.6532L129.488 52.1178L131.624 80.215Z" fill="#4144FC"/>
<path d="M131.113 48.1996L133.417 48.0439C134.471 47.9661 135.409 48.7445 135.487 49.7954L135.643 51.6636L129.512 52.1307L129.356 50.2624C129.278 49.2116 130.059 48.2775 131.113 48.1996Z" fill="white"/>
<path d="M135.565 51.041L135.487 50.2236L129.356 50.6907L129.434 51.508L135.565 51.041Z" fill="#8880FF"/>
<path d="M134.979 83.8902L135.799 82.6836L134.003 82.8004L134.979 83.8902Z" fill="#8880FF"/>
<path d="M135.799 82.6837L137.752 79.7646L131.621 80.2317L134.003 82.8005L135.799 82.6837Z" fill="#575FF2"/>
<path d="M134.549 50.7296C134.549 50.6129 134.627 50.4961 134.745 50.4961C134.862 50.4961 134.979 50.5739 134.979 50.6907C134.979 50.8075 134.901 50.9242 134.784 50.9242C134.666 50.9242 134.549 50.8464 134.549 50.7296Z" fill="#4144FC"/>
<path d="M133.026 50.8463C133.026 50.7296 133.104 50.6128 133.222 50.6128C133.339 50.6128 133.456 50.6906 133.456 50.8074C133.456 50.9242 133.378 51.0409 133.261 51.0409C133.144 51.0409 133.026 50.9631 133.026 50.8463Z" fill="#4144FC"/>
<path d="M131.464 50.963C131.464 50.8463 131.542 50.7295 131.66 50.7295C131.777 50.7295 131.894 50.8073 131.894 50.9241C131.894 51.0409 131.816 51.1576 131.699 51.1576C131.621 51.1576 131.503 51.0798 131.464 50.963Z" fill="#4144FC"/>
<path d="M129.941 51.0797C129.941 50.963 130.02 50.8462 130.137 50.8462C130.254 50.8462 130.371 50.924 130.371 51.0408C130.371 51.1576 130.293 51.2743 130.176 51.2743C130.098 51.2743 129.98 51.1965 129.941 51.0797Z" fill="#4144FC"/>
<path d="M132.987 77.8966C132.87 77.8966 132.753 77.8188 132.753 77.702L131.035 54.8942C131.035 54.7774 131.074 54.6606 131.23 54.6606C131.347 54.6606 131.425 54.7385 131.464 54.8553L133.183 77.6631C133.183 77.7799 133.105 77.8577 132.987 77.8966Z" fill="#6936E0"/>
<path d="M134.393 77.7799C134.276 77.7799 134.159 77.7021 134.159 77.5853L132.441 54.7775C132.441 54.6607 132.519 54.5829 132.636 54.5439C132.753 54.5439 132.831 54.6218 132.87 54.7386L134.588 77.5464C134.588 77.6632 134.471 77.741 134.393 77.7799Z" fill="#6936E0"/>
<path d="M135.76 77.6242C135.643 77.6242 135.526 77.5463 135.526 77.4296L133.808 54.6217C133.808 54.5049 133.886 54.4271 134.003 54.3882C134.12 54.3882 134.198 54.466 134.237 54.5828L135.955 77.3906C135.994 77.5463 135.877 77.6242 135.76 77.6242Z" fill="#6936E0"/>
<path d="M149.035 62.3572L144.213 60.541L135.834 82.64L140.656 84.4562L149.035 62.3572Z" fill="#4144FC"/>
<path d="M138.064 86.8874L136.268 86.1868C135.448 85.8755 135.018 84.9414 135.33 84.124L135.877 82.645L140.719 84.4743L140.173 85.9533C139.821 86.7707 138.884 87.1988 138.064 86.8874Z" fill="white"/>
<path d="M135.682 83.1118L135.448 83.7346L140.29 85.5639L140.524 84.9411L135.682 83.1118Z" fill="#8880FF"/>
<path d="M147.827 58.397L146.772 59.0197L148.178 59.5646L147.827 58.397Z" fill="#8880FF"/>
<path d="M146.772 59.0195L144.234 60.5375L149.076 62.3668L148.178 59.5644L146.772 59.0195Z" fill="white"/>
<path d="M136.346 83.7349C136.307 83.8517 136.19 83.8906 136.112 83.8517C135.994 83.8128 135.955 83.696 135.994 83.6182C136.033 83.5014 136.151 83.4625 136.229 83.5014C136.346 83.5403 136.385 83.6571 136.346 83.7349Z" fill="#4144FC"/>
<path d="M137.557 84.2022C137.517 84.319 137.4 84.3579 137.322 84.319C137.205 84.2801 137.166 84.1633 137.205 84.0855C137.244 83.9687 137.361 83.9298 137.439 83.9687C137.517 84.0076 137.596 84.1244 137.557 84.2022Z" fill="#4144FC"/>
<path d="M138.767 84.6692C138.728 84.7859 138.611 84.8249 138.533 84.7859C138.416 84.747 138.376 84.6303 138.416 84.5524C138.455 84.4746 138.572 84.3967 138.65 84.4356C138.728 84.4356 138.767 84.5524 138.767 84.6692Z" fill="#4144FC"/>
<path d="M139.939 85.0974C139.9 85.2142 139.782 85.2531 139.704 85.2142C139.587 85.1752 139.548 85.0585 139.587 84.9806C139.626 84.9028 139.743 84.8249 139.821 84.8639C139.939 84.9028 139.978 85.0196 139.939 85.0974Z" fill="#4144FC"/>
<path d="M147.202 63.6514C147.28 63.6903 147.358 63.7681 147.319 63.8849L140.524 81.8276C140.485 81.9054 140.407 81.9833 140.29 81.9443C140.212 81.9054 140.173 81.8276 140.173 81.7108L146.968 63.7681C147.007 63.6903 147.124 63.6514 147.202 63.6514Z" fill="#6936E0"/>
<path d="M146.108 63.2622C146.187 63.3011 146.265 63.3789 146.226 63.4957L139.431 81.4384C139.392 81.5162 139.314 81.5551 139.197 81.5551C139.118 81.5162 139.079 81.4384 139.079 81.3216L145.874 63.3789C145.913 63.2622 145.991 63.2232 146.108 63.2622Z" fill="#6936E0"/>
<path d="M144.976 62.873C145.054 62.9119 145.132 62.9898 145.093 63.1065L138.298 81.0492C138.259 81.1271 138.181 81.166 138.064 81.166C137.986 81.1271 137.947 81.0492 137.947 80.9324L144.742 62.9898C144.781 62.873 144.898 62.8341 144.976 62.873Z" fill="#6936E0"/>
<path d="M138.65 71.7856H136.151H128.614L132.089 90.5457H136.151H138.65H142.711L146.187 71.7856H138.65Z" fill="#575FF2"/>
<path d="M137.4 87.7434C134.471 87.9769 132.519 87.1595 131.191 85.7973L132.089 90.5457H136.151H138.65H142.711L146.187 71.7856H145.64C143.336 80.0759 141.774 87.3931 137.4 87.7434Z" fill="#3D4CE0"/>
<path d="M129.512 76.612H145.288L145.601 75.0552H129.199L129.512 76.612Z" fill="#8880FF"/>
<path d="M145.289 76.612L145.562 75.0552H144.703C144.547 75.6001 144.429 76.106 144.273 76.612H145.289Z" fill="#7861F7"/>
<path d="M151.38 107.205H133.925C131.347 114.288 132.48 119.114 133.573 121.567H151.224C149.467 116.156 150.599 110.163 151.38 107.205Z" fill="white"/>
<path d="M136.346 110.552H148.022" stroke="#EAEAEA" stroke-width="2" stroke-miterlimit="10" stroke-linecap="round"/>
<path d="M136.346 114.366H148.022" stroke="#EAEAEA" stroke-width="2" stroke-miterlimit="10" stroke-linecap="round"/>
<path d="M136.346 118.219H148.022" stroke="#EAEAEA" stroke-width="2" stroke-miterlimit="10" stroke-linecap="round"/>
<path d="M134.784 105.297H57.776C57.5026 105.297 57.2683 105.492 57.1902 105.764C56.7997 107.127 55.6672 111.291 55.5891 113.665C55.472 117.013 56.0577 120.399 57.3074 123.551H134.823C134.628 122.851 134.472 122.15 134.315 121.489C133.183 116.117 133.378 110.591 134.784 105.297Z" fill="#809EFF"/>
<path d="M134.354 107.205C134.354 107.205 133.612 110.98 133.612 114.639C133.612 117.324 134.003 119.971 134.315 121.45H134.823V107.205H134.354Z" fill="#C9C9C9"/>
<path d="M152.318 121.45H134.276C134.042 120.399 133.886 119.309 133.769 118.258C120.609 118.297 86.7125 118.414 75.1535 118.219C64.8441 118.064 61.2905 109.929 60.0799 105.297H57.7369C57.4636 105.297 57.2292 105.492 57.1511 105.764C56.7606 107.127 55.6282 111.291 55.5501 113.665C55.4329 117.013 56.0187 120.399 57.2683 123.551H134.784H153.138C152.825 122.851 152.552 122.15 152.318 121.45Z" fill="#6191F7"/>
<path opacity="0.44" d="M76.4031 107.711C74.9972 107.438 73.24 107.75 71.9122 108.178C71.4827 108.295 71.5608 108.878 71.9903 108.956C73.3962 109.268 75.1925 109.423 76.5593 109.034C77.2622 108.801 77.145 107.827 76.4031 107.711Z" fill="white"/>
<path opacity="0.44" d="M94.0149 107.983C92.3357 106.893 89.2507 107.282 86.9858 107.282C84.2913 107.282 81.3625 107.127 78.8632 107.905C78.0041 108.178 78.4727 108.878 79.1366 109.034C81.5577 109.618 84.4865 109.267 87.0639 109.228C89.2507 109.19 92.1014 109.657 93.9368 108.645C94.2102 108.489 94.3273 108.217 94.0149 107.983Z" fill="white"/>
<path d="M148.959 90.5459H118.031C117.875 90.8962 117.68 91.2465 117.523 91.6357H148.959V90.5459Z" fill="#1E297E"/>
<path d="M117.484 91.6357C116.391 94.3992 115.649 98.5637 117.211 103.974H147.046V91.6357H117.484Z" fill="white"/>
<path d="M117.562 91.6357C117.562 91.6357 116 94.3992 116.352 98.6416C116.586 101.911 117.289 103.974 117.289 103.974L117.562 91.6357Z" fill="#C9C9C9"/>
<path d="M121.858 94.4771H143.57" stroke="#EAEAEA" stroke-width="1.9302" stroke-miterlimit="10" stroke-linecap="round"/>
<path d="M121.858 101.911H143.57" stroke="#EAEAEA" stroke-width="1.9302" stroke-miterlimit="10" stroke-linecap="round"/>
<path d="M121.858 98.1743H143.57" stroke="#EAEAEA" stroke-width="1.9302" stroke-miterlimit="10" stroke-linecap="round"/>
<path d="M118.07 90.5459H63.5553C63.36 90.5459 63.2038 90.6627 63.1257 90.8573C61.4856 95.0608 61.3685 99.6924 62.7743 103.974H117.328C115.376 97.8242 116.664 93.2704 118.07 90.5459Z" fill="#1E297E"/>
<path d="M117.289 103.974H62.7354C62.8916 104.441 63.0478 104.869 63.204 105.297H117.719H134.081H148.959V103.974H117.289Z" fill="#3C36E0"/>
<path d="M74.1381 90.5459H69.7644V103.974H74.1381V90.5459Z" fill="#3C36E0"/>
<path d="M77.926 90.5459H76.2859V103.974H77.926V90.5459Z" fill="#3C36E0"/>
<path opacity="0.44" d="M87.2982 93.1146C86.1658 92.8811 84.799 93.2703 83.7837 93.6984C83.4322 93.8541 83.5103 94.399 83.8618 94.4768C84.9552 94.7493 86.361 94.866 87.4544 94.4379C88.0012 94.2044 87.884 93.2313 87.2982 93.1146Z" fill="white"/>
<path opacity="0.44" d="M100.614 93.3873C99.482 92.2975 97.4513 92.6867 95.9284 92.6867C94.1711 92.6867 92.2185 92.531 90.5784 93.3484C90.0317 93.6208 90.3441 94.3214 90.7737 94.4771C92.3747 95.0609 94.3273 94.6717 96.0065 94.6328C97.4513 94.5939 99.3648 95.0609 100.536 94.049C100.771 93.8933 100.849 93.5819 100.614 93.3873Z" fill="white"/>
<path opacity="0.49" d="M132.792 94.5547L132.714 100.665L134.003 99.6923L135.565 100.743V94.5547H132.792Z" fill="#C9C9C9"/>
<path d="M135.565 100.159L134.003 99.0696L132.48 100.159V94.5547H135.565V100.159Z" fill="#1E297E"/>
</svg>
