<svg width="341" height="141" viewBox="0 0 341 141" fill="none" xmlns="http://www.w3.org/2000/svg">
<rect width="340.843" height="141" rx="22.2047" fill="#4455D7"/>
<path fill-rule="evenodd" clip-rule="evenodd" d="M0 117.758C0.00238468 118.5 0.0411219 119.233 0.114523 119.955C1.2495 131.131 10.6724 139.857 22.1401 139.89H318.702C330.936 139.855 340.842 129.927 340.842 117.685V117.645L0 55.5117V117.758Z" fill="#424A9A"/>
<path d="M37.221 118.313C42.3136 118.313 46.442 107.439 46.442 94.0241C46.442 80.6095 42.3136 69.7349 37.221 69.7349C32.1284 69.7349 28 80.6095 28 94.0241C28 107.439 32.1284 118.313 37.221 118.313Z" fill="#4A4193"/>
<path d="M37.2211 126.184C36.9351 126.184 36.7207 125.971 36.7207 125.686V81.5235C36.7207 81.2386 36.9351 81.0249 37.2211 81.0249C37.507 81.0249 37.7214 81.2386 37.7214 81.5235V125.686C37.7572 125.971 37.507 126.184 37.2211 126.184Z" fill="#231F20"/>
<path d="M37.2211 110.585C37.0782 110.585 36.9709 110.55 36.8637 110.443C36.6493 110.229 36.6493 109.908 36.8637 109.73L42.9038 103.712C43.1183 103.498 43.4399 103.498 43.6186 103.712C43.8331 103.925 43.8331 104.246 43.6186 104.424L37.6143 110.443C37.507 110.55 37.3641 110.585 37.2211 110.585Z" fill="#231F20"/>
<path d="M37.221 103.925C37.0781 103.925 36.9709 103.89 36.8636 103.783L31.7885 98.6899C31.5741 98.4763 31.5741 98.1557 31.7885 97.9776C32.003 97.764 32.3246 97.764 32.5033 97.9776L37.6142 103.071C37.8286 103.284 37.8286 103.605 37.6142 103.783C37.507 103.89 37.364 103.925 37.221 103.925Z" fill="#231F20"/>
<path d="M37.2211 94.8792C37.0782 94.8792 36.9709 94.8436 36.8637 94.7368C36.6493 94.5231 36.6493 94.2025 36.8637 94.0245L40.4377 90.463C40.6522 90.2493 40.9739 90.2493 41.1526 90.463C41.3313 90.6767 41.367 90.9972 41.1526 91.1753L37.5785 94.7368C37.507 94.8436 37.3641 94.8792 37.2211 94.8792Z" fill="#231F20"/>
<path d="M37.221 88.3616C37.078 88.3616 36.9708 88.326 36.8636 88.2192L33.8256 85.1919C33.6112 84.9782 33.6112 84.6577 33.8256 84.4796C34.0401 84.2659 34.3617 84.2659 34.5404 84.4796L37.5784 87.5069C37.7928 87.7205 37.7928 88.0411 37.5784 88.2192C37.5069 88.2904 37.3639 88.3616 37.221 88.3616Z" fill="#231F20"/>
<path d="M165.779 118.313C170.872 118.313 175 107.439 175 94.0241C175 80.6095 170.872 69.7349 165.779 69.7349C160.686 69.7349 156.558 80.6095 156.558 94.0241C156.558 107.439 160.686 118.313 165.779 118.313Z" fill="#4A4193"/>
<path d="M165.779 126.184C165.493 126.184 165.279 125.971 165.279 125.686V81.5235C165.279 81.2386 165.493 81.0249 165.779 81.0249C166.065 81.0249 166.279 81.2386 166.279 81.5235V125.686C166.279 125.971 166.065 126.184 165.779 126.184Z" fill="#231F20"/>
<path d="M165.779 110.585C165.636 110.585 165.529 110.55 165.422 110.443C165.207 110.229 165.207 109.908 165.422 109.73L171.462 103.712C171.676 103.498 171.998 103.498 172.176 103.712C172.391 103.925 172.391 104.246 172.176 104.424L166.136 110.443C166.029 110.55 165.922 110.585 165.779 110.585Z" fill="#231F20"/>
<path d="M165.779 103.925C165.636 103.925 165.529 103.89 165.422 103.783L160.311 98.6899C160.096 98.4763 160.096 98.1557 160.311 97.9776C160.525 97.764 160.847 97.764 161.026 97.9776L166.136 103.071C166.351 103.284 166.351 103.605 166.136 103.783C166.029 103.89 165.922 103.925 165.779 103.925Z" fill="#231F20"/>
<path d="M165.779 94.8792C165.636 94.8792 165.529 94.8436 165.422 94.7368C165.207 94.5231 165.207 94.2025 165.422 94.0245L168.996 90.463C169.21 90.2493 169.532 90.2493 169.71 90.463C169.925 90.6767 169.925 90.9972 169.71 91.1753L166.136 94.7368C166.029 94.8436 165.922 94.8792 165.779 94.8792Z" fill="#231F20"/>
<path d="M165.779 88.3616C165.636 88.3616 165.529 88.326 165.422 88.2192L162.384 85.1919C162.169 84.9782 162.169 84.6577 162.384 84.4796C162.598 84.2659 162.92 84.2659 163.099 84.4796L166.136 87.5069C166.351 87.7205 166.351 88.0411 166.136 88.2192C166.029 88.2904 165.922 88.3616 165.779 88.3616Z" fill="#231F20"/>
<path d="M59.9876 116.07C66.5409 116.07 71.8534 102.118 71.8534 84.907C71.8534 67.6962 66.5409 53.7441 59.9876 53.7441C53.4343 53.7441 48.1218 67.6962 48.1218 84.907C48.1218 102.118 53.4343 116.07 59.9876 116.07Z" fill="#4A4193"/>
<path d="M59.9876 126.184C59.6302 126.184 59.3442 125.899 59.3442 125.543V68.8447C59.3442 68.4885 59.6302 68.2036 59.9876 68.2036C60.345 68.2036 60.6309 68.4885 60.6309 68.8447V125.508C60.6309 125.899 60.345 126.184 59.9876 126.184Z" fill="#231F20"/>
<path d="M59.9877 106.169C59.809 106.169 59.666 106.098 59.5231 105.991C59.2729 105.741 59.2729 105.314 59.5231 105.065L67.2787 97.3364C67.5289 97.0871 67.9578 97.0871 68.208 97.3364C68.4582 97.5857 68.4582 98.0131 68.208 98.2624L60.4523 105.991C60.3094 106.098 60.1307 106.169 59.9877 106.169Z" fill="#231F20"/>
<path d="M59.9877 97.6215C59.809 97.6215 59.666 97.5503 59.523 97.4434L52.9826 90.9259C52.7324 90.6766 52.7324 90.2493 52.9826 90C53.2327 89.7507 53.6616 89.7507 53.9118 90L60.4523 96.5175C60.7025 96.7668 60.7025 97.1941 60.4523 97.4434C60.3093 97.5859 60.1306 97.6215 59.9877 97.6215Z" fill="#231F20"/>
<path d="M59.9877 86.0465C59.809 86.0465 59.666 85.9752 59.5231 85.8684C59.2729 85.6191 59.2729 85.1917 59.5231 84.9424L64.1336 80.3481C64.3838 80.0988 64.8127 80.0988 65.0628 80.3481C65.313 80.5974 65.313 81.0248 65.0628 81.2741L60.4523 85.8684C60.3094 85.9752 60.1307 86.0465 59.9877 86.0465Z" fill="#231F20"/>
<path d="M59.9877 77.6413C59.809 77.6413 59.666 77.5701 59.523 77.4632L55.6273 73.5812C55.3772 73.3319 55.3772 72.9045 55.6273 72.6552C55.8775 72.4059 56.3064 72.4059 56.5566 72.6552L60.4523 76.5372C60.7025 76.7866 60.7025 77.2139 60.4523 77.4632C60.3093 77.5701 60.1306 77.6413 59.9877 77.6413Z" fill="#231F20"/>
<path d="M30.9665 127.502H80.6813C81.2532 127.502 81.6821 127.039 81.6821 126.505C81.6821 125.935 81.2174 125.508 80.6813 125.508H30.9665C30.3947 125.508 29.9658 125.971 29.9658 126.505C29.9301 127.075 30.3947 127.502 30.9665 127.502Z" fill="#7F8FA6"/>
<path opacity="0.5" d="M77 52.4617C77 52.4617 76.7855 51.322 78.0722 51.0015C79.3588 50.681 78.8227 48.2235 81.0744 47.6537C83.326 47.1195 83.7906 49.8262 85.5777 49.1495C87.4004 48.4728 86.8286 46.0867 90.0452 46.051C93.2618 46.0154 93.2976 49.7194 95.3705 49.4344C97.4434 49.1495 98.194 51.0015 98.194 52.4617H77Z" fill="#D2EAFF"/>
<path d="M84.9702 127.502H87.2933C87.8652 127.502 88.2941 127.039 88.2941 126.505C88.2941 125.935 87.8294 125.508 87.2933 125.508H84.9702C84.3984 125.508 83.9695 125.971 83.9695 126.505C83.9695 127.075 84.4341 127.502 84.9702 127.502Z" fill="#7F8FA6"/>
<path d="M158.023 125.579H98.7302C96.7645 125.579 95.1919 124.012 95.1919 122.053V45.5527C95.1919 43.5939 96.7645 42.0269 98.7302 42.0269H158.023C159.989 42.0269 161.562 43.5939 161.562 45.5527V122.089C161.562 124.012 159.989 125.579 158.023 125.579Z" fill="#B6B6B7"/>
<path d="M158.023 124.831H98.7302C96.7645 124.831 95.1919 123.264 95.1919 121.305V44.769C95.1919 42.8102 96.7645 41.2432 98.7302 41.2432H158.023C159.989 41.2432 161.562 42.8102 161.562 44.769V121.305C161.562 123.264 159.989 124.831 158.023 124.831Z" fill="#DCDDE1"/>
<path d="M156.558 45.624H100.231V119.097H156.558V45.624Z" fill="#B6B6B7"/>
<path d="M156.558 45.4458H100.231V118.919H156.558V45.4458Z" fill="#F5F6FA"/>
<path d="M141.833 40.6022H132.362L131.79 38.5721C131.683 38.1091 131.254 37.8242 130.789 37.8242H125.929C125.464 37.8242 125.071 38.1448 124.928 38.5721L124.356 40.6022H114.885C114.349 40.6022 113.884 41.0295 113.884 41.5994V49.5415C113.884 50.0757 114.313 50.5387 114.885 50.5387H141.797C142.333 50.5387 142.798 50.1113 142.798 49.5415V41.5994C142.798 41.0652 142.369 40.6022 141.833 40.6022ZM126.894 39.3913C126.894 39.0351 127.179 38.7502 127.537 38.7502H129.217C129.574 38.7502 129.86 39.0351 129.86 39.3913V39.605C129.86 39.9611 129.574 40.246 129.217 40.246H127.537C127.179 40.246 126.894 39.9611 126.894 39.605V39.3913Z" fill="#4D5966"/>
<path d="M141.833 40.1393H132.362L131.79 38.1092C131.683 37.6462 131.254 37.3613 130.789 37.3613H125.929C125.464 37.3613 125.071 37.6819 124.928 38.1092L124.356 40.1393H114.885C114.349 40.1393 113.884 40.5667 113.884 41.1365V49.0786C113.884 49.6128 114.313 50.0758 114.885 50.0758H141.797C142.333 50.0758 142.798 49.6484 142.798 49.0786V41.1009C142.798 40.5667 142.369 40.1393 141.833 40.1393ZM126.894 38.9284C126.894 38.5722 127.179 38.2873 127.537 38.2873H129.217C129.574 38.2873 129.86 38.5722 129.86 38.9284V39.1421C129.86 39.4982 129.574 39.7831 129.217 39.7831H127.537C127.179 39.7831 126.894 39.4982 126.894 39.1421V38.9284Z" fill="#718093"/>
<path d="M134.399 60.0477H109.417C108.702 60.0477 108.13 59.4778 108.13 58.7655C108.13 58.0532 108.702 57.4834 109.417 57.4834H134.399C135.114 57.4834 135.686 58.0532 135.686 58.7655C135.686 59.4422 135.114 60.0477 134.399 60.0477Z" fill="#B6B6B7"/>
<path d="M134.399 64.6063H109.417C108.702 64.6063 108.13 64.0364 108.13 63.3241C108.13 62.6118 108.702 62.042 109.417 62.042H134.399C135.114 62.042 135.686 62.6118 135.686 63.3241C135.686 64.0364 135.114 64.6063 134.399 64.6063Z" fill="#B6B6B7"/>
<path d="M134.399 74.5784H109.417C108.702 74.5784 108.13 74.0086 108.13 73.2963C108.13 72.584 108.702 72.0142 109.417 72.0142H134.399C135.114 72.0142 135.686 72.584 135.686 73.2963C135.686 74.0086 135.114 74.5784 134.399 74.5784Z" fill="#B6B6B7"/>
<path d="M134.399 79.1727H109.417C108.702 79.1727 108.13 78.6028 108.13 77.8905C108.13 77.1782 108.702 76.6084 109.417 76.6084H134.399C135.114 76.6084 135.686 77.1782 135.686 77.8905C135.686 78.6028 135.114 79.1727 134.399 79.1727Z" fill="#B6B6B7"/>
<path d="M134.399 89.1092H109.417C108.702 89.1092 108.13 88.5393 108.13 87.8271C108.13 87.1148 108.702 86.5449 109.417 86.5449H134.399C135.114 86.5449 135.686 87.1148 135.686 87.8271C135.686 88.5393 135.114 89.1092 134.399 89.1092Z" fill="#B6B6B7"/>
<path d="M134.399 93.7034H109.417C108.702 93.7034 108.13 93.1336 108.13 92.4213C108.13 91.709 108.702 91.1392 109.417 91.1392H134.399C135.114 91.1392 135.686 91.709 135.686 92.4213C135.686 93.1336 135.114 93.7034 134.399 93.7034Z" fill="#B6B6B7"/>
<path d="M134.399 103.64H109.417C108.702 103.64 108.13 103.07 108.13 102.358C108.13 101.646 108.702 101.076 109.417 101.076H134.399C135.114 101.076 135.686 101.646 135.686 102.358C135.686 103.07 135.114 103.64 134.399 103.64Z" fill="#B6B6B7"/>
<path d="M134.399 108.234H109.417C108.702 108.234 108.13 107.664 108.13 106.952C108.13 106.24 108.702 105.67 109.417 105.67H134.399C135.114 105.67 135.686 106.24 135.686 106.952C135.686 107.664 135.114 108.234 134.399 108.234Z" fill="#B6B6B7"/>
<path d="M147.73 64.7845H142.655C141.905 64.7845 141.261 64.179 141.261 63.3955V58.3382C141.261 57.5903 141.869 56.9492 142.655 56.9492H147.73C148.481 56.9492 149.124 57.5547 149.124 58.3382V63.3955C149.124 64.1434 148.517 64.7845 147.73 64.7845ZM142.691 57.982C142.476 57.982 142.333 58.1601 142.333 58.3382V63.3955C142.333 63.6092 142.512 63.7516 142.691 63.7516H147.73C147.945 63.7516 148.088 63.5736 148.088 63.3955V58.3382C148.088 58.1245 147.909 57.982 147.73 57.982H142.691Z" fill="#B6B6B7"/>
<path d="M147.73 79.3152H142.655C141.905 79.3152 141.261 78.7098 141.261 77.9262V72.869C141.261 72.121 141.869 71.48 142.655 71.48H147.73C148.481 71.48 149.124 72.0854 149.124 72.869V77.9262C149.124 78.7098 148.517 79.3152 147.73 79.3152ZM142.691 72.5128C142.476 72.5128 142.333 72.6909 142.333 72.869V77.9262C142.333 78.1399 142.512 78.2824 142.691 78.2824H147.73C147.945 78.2824 148.088 78.1043 148.088 77.9262V72.869C148.088 72.6553 147.909 72.5128 147.73 72.5128H142.691Z" fill="#B6B6B7"/>
<path d="M147.73 93.846H142.655C141.905 93.846 141.261 93.2405 141.261 92.457V87.3997C141.261 86.6518 141.869 86.0107 142.655 86.0107H147.73C148.481 86.0107 149.124 86.6162 149.124 87.3997V92.457C149.124 93.2405 148.517 93.846 147.73 93.846ZM142.691 87.0792C142.476 87.0792 142.333 87.2573 142.333 87.4353V92.4926C142.333 92.7063 142.512 92.8488 142.691 92.8488H147.73C147.945 92.8488 148.088 92.6707 148.088 92.4926V87.4353C148.088 87.2216 147.909 87.0792 147.73 87.0792H142.691Z" fill="#B6B6B7"/>
<path d="M147.73 108.412H142.655C141.905 108.412 141.261 107.807 141.261 107.023V101.966C141.261 101.218 141.869 100.577 142.655 100.577H147.73C148.481 100.577 149.124 101.183 149.124 101.966V107.023C149.124 107.771 148.517 108.412 147.73 108.412ZM142.691 101.61C142.476 101.61 142.333 101.788 142.333 101.966V107.023C142.333 107.237 142.512 107.38 142.691 107.38H147.73C147.945 107.38 148.088 107.201 148.088 107.023V101.966C148.088 101.752 147.909 101.61 147.73 101.61H142.691Z" fill="#B6B6B7"/>
<path d="M145.228 63.0394C145.05 63.0394 144.907 62.9681 144.764 62.8613L143.12 61.5792C142.798 61.3299 142.726 60.8313 142.977 60.5107C143.227 60.1902 143.727 60.119 144.049 60.3683L145.014 61.1162L147.301 57.6259C147.551 57.2698 148.016 57.1629 148.373 57.4122C148.731 57.6615 148.838 58.1245 148.588 58.4807L145.836 62.6476C145.729 62.8257 145.514 62.9325 145.335 62.9681C145.3 63.0394 145.264 63.0394 145.228 63.0394Z" fill="#4A4193"/>
<path d="M145.228 77.4275C145.05 77.4275 144.907 77.3563 144.764 77.2495L143.12 75.9673C142.798 75.718 142.726 75.2194 142.977 74.8989C143.227 74.5784 143.727 74.5071 144.049 74.7564L145.014 75.5043L147.301 72.0141C147.551 71.658 148.016 71.5511 148.373 71.8004C148.731 72.0497 148.838 72.5127 148.588 72.8689L145.836 77.0358C145.729 77.2139 145.514 77.3207 145.335 77.3563C145.3 77.4276 145.264 77.4275 145.228 77.4275Z" fill="#4A4193"/>
<path d="M145.228 91.9583C145.05 91.9583 144.907 91.8871 144.764 91.7802L143.12 90.4981C142.798 90.2488 142.726 89.7502 142.977 89.4297C143.227 89.1091 143.727 89.0379 144.049 89.2872L145.014 90.0351L147.301 86.5449C147.551 86.1887 148.016 86.0819 148.373 86.3312C148.731 86.5805 148.838 87.0435 148.588 87.3996L145.836 91.5665C145.729 91.7446 145.514 91.8515 145.335 91.8871C145.3 91.9583 145.264 91.9583 145.228 91.9583Z" fill="#4A4193"/>
<path d="M145.228 106.49C145.05 106.49 144.907 106.418 144.764 106.311L143.12 105.029C142.798 104.78 142.726 104.281 142.977 103.961C143.227 103.64 143.727 103.569 144.049 103.818L145.014 104.566L147.301 101.076C147.551 100.72 148.016 100.613 148.373 100.862C148.731 101.112 148.838 101.575 148.588 101.931L145.836 106.098C145.729 106.276 145.514 106.383 145.335 106.418C145.3 106.49 145.264 106.49 145.228 106.49Z" fill="#4A4193"/>
<path opacity="0.5" d="M120.818 41.3858H115.278C115.135 41.3858 115.028 41.279 115.028 41.1365C115.028 40.9941 115.135 40.8872 115.278 40.8872H120.818C120.961 40.8872 121.068 40.9941 121.068 41.1365C121.104 41.2434 120.961 41.3858 120.818 41.3858Z" fill="#718093"/>
<path opacity="0.5" d="M121.747 41.3858H121.64C121.497 41.3858 121.39 41.279 121.39 41.1365C121.39 40.9941 121.497 40.8872 121.64 40.8872H121.747C121.89 40.8872 121.997 40.9941 121.997 41.1365C122.033 41.2434 121.89 41.3858 121.747 41.3858Z" fill="#718093"/>
<path d="M71.8176 70.376C71.8176 70.376 73.6761 75.184 74.1407 78.7098C74.6053 82.2357 75.3916 84.4794 70.8168 84.6219C66.2421 84.7287 67.8861 74.3292 67.8861 74.3292L71.8176 70.376Z" fill="#192A56"/>
<path d="M68.5652 50.1826C68.5652 50.1826 69.4944 51.6072 69.4229 52.8181C69.3514 54.029 69.3872 56.059 70.0663 56.8426C70.7453 57.6261 71.889 60.0835 70.245 62.4697C68.6009 64.8559 67.8504 64.7847 66.9926 64.749C66.1348 64.7134 63.5973 64.0724 63.6687 63.7518C63.7045 63.4669 63.3828 59.1219 63.3828 59.1219L68.5652 50.1826Z" fill="#192A56"/>
<path d="M56.3421 67.5981C56.3421 67.5981 55.5201 76.3594 51.5529 78.7812C47.55 81.203 53.4114 88.5396 60.0591 83.8029C66.7068 79.0661 64.3479 73.3321 64.4194 73.0828C64.4909 72.8335 60.7382 68.2036 60.7382 68.2036L56.3421 67.5981Z" fill="#192A56"/>
<path d="M62.275 61.5078L57.4858 62.8256L57.0569 68.2034L60.6309 79.244H72.5324L70.7454 61.9352L66.4923 61.7927L62.275 61.5078Z" fill="#4A4193"/>
<path d="M70.7454 61.9355L83.3974 70.5543L82.6469 75.0418L70.7454 66.7435V61.9355Z" fill="#4A4193"/>
<path d="M88.7941 61.9351L85.8276 50.3604L81.0027 62.2913L82.7182 67.3842L86.185 67.313C86.2208 67.3486 88.5439 65.1049 88.7941 61.9351Z" fill="#4455D7"/>
<path d="M76.6378 117.688L84.3337 118.291L84.751 113L77.055 112.398L76.6378 117.688Z" fill="#1C313F"/>
<path d="M77.0733 112.388L84.7693 112.991L84.8141 112.423L77.1181 111.82L77.0733 112.388Z" fill="#1C313F"/>
<path d="M78.5724 125.365L81.253 125.579C82.6468 125.686 83.8263 124.653 83.9335 123.299L84.3266 118.278L76.6425 117.672L76.2493 122.694C76.1421 124.047 77.1786 125.258 78.5724 125.365Z" fill="#4A4193"/>
<path d="M76.6888 117.216L84.3848 117.819L84.3988 117.641L76.7028 117.039L76.6888 117.216Z" fill="#1C313F"/>
<path d="M76.7466 116.627L84.4426 117.229L84.4566 117.052L76.7607 116.449L76.7466 116.627Z" fill="#1C313F"/>
<path d="M76.7718 115.999L84.4678 116.602L84.4818 116.424L76.7858 115.821L76.7718 115.999Z" fill="#1C313F"/>
<path d="M76.8297 115.409L84.5256 116.012L84.5396 115.835L76.8437 115.232L76.8297 115.409Z" fill="#1C313F"/>
<path d="M76.8878 114.82L84.5837 115.423L84.5977 115.245L76.9018 114.643L76.8878 114.82Z" fill="#1C313F"/>
<path d="M76.91 114.228L84.606 114.831L84.62 114.653L76.924 114.05L76.91 114.228Z" fill="#1C313F"/>
<path d="M76.9678 113.638L84.6638 114.241L84.6778 114.064L76.9818 113.461L76.9678 113.638Z" fill="#1C313F"/>
<path d="M77.0286 113.013L84.7246 113.616L84.7386 113.439L77.0426 112.836L77.0286 113.013Z" fill="#1C313F"/>
<path d="M84.7197 63.4308C84.0049 63.3595 83.3973 62.8965 83.1471 62.2555L79.1799 112.543L82.6467 112.828L86.6497 61.8993C86.6497 61.8637 86.6497 61.8281 86.6497 61.7925C86.5782 62.7897 85.7204 63.502 84.7197 63.4308Z" fill="#766CFF"/>
<path d="M81.8606 63.2173C81.4675 63.1817 81.1816 62.8256 81.0386 62.327L77.1072 112.401L79.2159 112.579L83.183 62.2914C83.1116 62.0421 83.0401 61.7928 83.0758 61.5435C82.9686 62.5051 82.4325 63.253 81.8606 63.2173Z" fill="#766CFF"/>
<path opacity="0.5" d="M81.8606 63.2173C81.4675 63.1817 81.1816 62.8256 81.0386 62.327L77.1072 112.401L79.2159 112.579L83.183 62.2914C83.1116 62.0421 83.0401 61.7928 83.0758 61.5435C82.9686 62.5051 82.4325 63.253 81.8606 63.2173Z" fill="#766CFF"/>
<path d="M87.5789 63.6802C87.0071 63.6445 86.6139 62.8254 86.6497 61.8994L82.6467 112.829L84.7554 113.007L88.7941 61.9706C88.7226 62.9322 88.1865 63.7158 87.5789 63.6802Z" fill="#766CFF"/>
<path opacity="0.5" d="M87.5789 63.6802C87.0071 63.6445 86.6139 62.8254 86.6497 61.8994L82.6467 112.829L84.7554 113.007L88.7941 61.9706C88.7226 62.9322 88.1865 63.7158 87.5789 63.6802Z" fill="#766CFF"/>
<path d="M85.8277 50.396L84.7197 53.1383C85.0056 53.2452 85.2916 53.3164 85.5775 53.352C85.8992 53.3876 86.2208 53.352 86.5425 53.2452L85.8277 50.396Z" fill="#192A56"/>
<path d="M61.9175 56.6644C61.9175 56.6644 62.3464 58.9793 61.9175 62.0066L67.5645 65.4968V61.8997C67.5645 61.8997 67.1713 60.4039 67.5645 58.4095L64.4908 55.8452L62.6323 56.3794L61.9175 56.6644Z" fill="#FFD9BA"/>
<path opacity="0.5" d="M67.5645 58.4095L64.4908 55.8452L62.6323 56.3794L61.9175 56.6644C61.9175 56.6644 61.9175 56.6644 61.9175 56.7C61.989 57.1986 62.0247 57.6972 62.0962 58.1958C64.598 61.0806 67.5645 61.8997 67.5645 61.8997C67.5645 61.8997 67.1356 60.4039 67.5645 58.4095Z" fill="#FFD9BA"/>
<path d="M68.8869 51.999L69.0299 56.5577C69.0299 56.5577 68.9584 59.2288 67.9577 59.6206C66.814 60.0836 65.2771 59.6206 64.2049 59.0507C63.9547 58.9083 63.776 58.7302 63.5973 58.4809C63.3114 58.0535 62.9183 57.9111 62.5966 56.5933C62.5966 56.5933 62.5251 57.3412 61.8818 57.3056C60.9883 57.2344 60.8811 55.1687 61.4172 54.8838C61.9533 54.5989 62.4894 55.3824 62.4894 55.3824L62.6681 55.9879L63.097 55.881C62.954 55.2044 62.9898 54.955 63.2042 54.3852L62.7396 53.7798L63.1685 53.9222L63.4544 52.8894C63.4544 52.8894 65.4558 53.2099 66.9927 53.0319C68.6367 52.8182 68.8869 51.999 68.8869 51.999Z" fill="#FFD9BA"/>
<path d="M68.8511 54.4918C68.8511 54.4918 68.8868 53.8151 69.4229 54.0644C69.9948 54.3137 69.7803 56.4862 68.8868 56.2013L68.8511 54.4918Z" fill="#FFD9BA"/>
<path d="M68.8868 51.9988C68.8868 51.9988 69.137 52.7824 67.493 53.2097C65.8489 53.6371 64.9911 53.2097 64.9911 53.2097C64.9911 53.2097 65.5273 56.7356 62.7395 55.9877C62.7395 55.9877 62.5608 54.8124 61.5601 54.848C61.5601 54.848 60.9167 55.2042 61.2384 56.5219C61.2384 56.5219 61.4529 57.3411 61.9175 57.3054C61.9175 57.3054 62.0247 57.3411 62.2391 57.2342C62.2391 57.2342 62.5251 59.8697 62.2391 61.508L58.0933 62.6477C58.0933 62.6477 59.3084 59.4779 59.2727 57.9465C59.237 56.4151 59.3442 53.9577 59.8803 52.3906C60.4521 50.6811 60.738 50.04 63.2041 49.1497C65.706 48.2593 69.2085 48.4018 68.8868 51.9988Z" fill="#192A56"/>
<path d="M60.7381 51.0017C60.7023 51.0017 60.6308 50.9661 60.5951 50.9305C60.5951 50.9305 60.3449 50.7168 59.8445 50.8949C59.7373 50.9305 59.6658 50.8949 59.6301 50.7881C59.5944 50.6812 59.6301 50.61 59.7373 50.5744C60.5236 50.2894 60.881 50.6812 60.881 50.7168C60.9525 50.7881 60.9525 50.8949 60.8453 50.9661C60.8453 51.0017 60.7738 51.0017 60.7381 51.0017Z" fill="#192A56"/>
<path d="M60.6308 50.9304C60.5593 50.9304 60.4878 50.8948 60.4521 50.8236C60.3806 50.5743 60.3449 50.0401 60.881 49.7195C60.9524 49.6839 61.0597 49.6839 61.1311 49.7908C61.1669 49.862 61.1669 49.9688 61.0597 50.0401C60.6665 50.2538 60.7737 50.6455 60.8095 50.7168C60.8452 50.8236 60.7737 50.8948 60.7023 50.9304C60.6665 50.9304 60.6308 50.9304 60.6308 50.9304Z" fill="#192A56"/>
<path d="M67.1355 56.6643L67.9933 56.415C67.9933 56.415 67.886 56.9849 67.1355 56.6643Z" fill="#FFD9BA"/>
<path d="M57.4858 62.8257L48.9438 73.9019C48.9438 73.9019 48.5864 74.8279 49.6229 75.7182L52.9467 74.6498L59.6302 67.5981C59.6302 67.5981 60.4165 65.3543 57.4858 62.8257Z" fill="#4A4193"/>
<path d="M87.7221 75.6113L84.7556 76.1812V76.9647L86.6499 76.8578L85.2202 77.2496C85.2202 77.2496 85.113 79.244 85.6849 79.9919L87.2932 80.4193C87.3289 80.3837 88.3654 77.6414 87.7221 75.6113Z" fill="#FFD9BA"/>
<path d="M70.8883 64.7847L73.1042 69.094C73.4616 69.5214 73.4259 70.1625 73.0328 70.5543L70.2808 73.2966L70.8883 64.7847Z" fill="#4A4193"/>
<path d="M71.2459 79.2441C71.2459 79.2441 71.1744 88.4327 71.4246 101.61H66.3495C66.3495 101.61 64.4195 95.5201 63.8477 79.2441H71.2459Z" fill="#FFD9BA"/>
<path d="M61.0241 79.6715L57.3071 101.61H62.3823C62.3823 101.61 66.3494 93.9174 67.7433 82.3783V79.2798L61.0241 79.6715Z" fill="#FFD9BA"/>
<path d="M57.9147 101.61L57.8433 122.053L59.3444 121.982C59.3444 121.982 64.7769 103.961 62.9899 101.646H57.9147V101.61Z" fill="#FFD9BA"/>
<path d="M71.4246 101.61L68.8155 120.7L66.7426 121.02C66.7426 121.02 65.2772 105.207 66.3137 101.61H71.4246Z" fill="#FFD9BA"/>
<path d="M60.8097 79.2441L58.5581 83.3398L56.8425 102.394H73.3546V82.0933L72.5325 79.2441H60.8097Z" fill="#D2EAFF"/>
<path d="M57.9146 120.7L56.0204 123.941L52.8752 126.185H58.3435L59.3085 124.226L60.0591 125.9H60.8096L59.8446 120.272L57.9146 120.7Z" fill="#FFD9BA"/>
<path d="M68.8513 120.7L70.7098 123.941L73.8907 126.185H68.4224L67.4574 124.226L66.6711 125.9H65.9563L66.8855 120.272L68.8513 120.7Z" fill="#FFD9BA"/>
<path d="M58.3436 126.184L59.3086 124.225L60.0949 125.935H60.8097L60.2736 122.801C59.3086 122.801 58.9512 123.584 58.9512 123.584L57.8432 125.507L57.4501 124.831C56.914 123.656 56.0205 123.976 56.0205 123.976L52.8396 126.22H58.3436V126.184Z" fill="#4A4193"/>
<path d="M68.4224 126.184L67.4574 124.225L66.6711 125.935H65.9563L66.4924 122.801C67.4574 122.801 67.8148 123.584 67.8148 123.584L68.9227 125.507L69.3159 124.831C69.852 123.656 70.7455 123.976 70.7455 123.976L73.9264 126.22H68.4224V126.184Z" fill="#4A4193"/>
<path opacity="0.5" d="M71.8177 71.7649C71.8177 71.7649 70.6025 72.5485 67.8862 71.5156L72.0321 74.5785C72.0678 74.5785 71.7462 72.7621 71.8177 71.7649Z" fill="#4A4193"/>
<path d="M58.7009 78.6743L57.5929 78.0332L56.1633 80.6687L57.45 81.6303L58.7009 78.6743Z" fill="#FFD9BA"/>
<path d="M57.9361 78.0786L56.8628 77.6851L55.6904 80.8604L56.7637 81.2539L57.9361 78.0786Z" fill="white"/>
<path d="M57.3428 77.7483L52.6251 73.3677L51.5529 73.5814L49.3013 75.3621L56.0205 81.5235L57.3428 77.7483Z" fill="#4A4193"/>
<path d="M60.0235 78.71L58.5581 82.7344L60.1307 83.3399L62.1321 79.8496L60.0235 78.71Z" fill="#FFD9BA"/>
<path d="M60.0233 78.7099L58.6652 78.6743L57.4143 81.6303C57.4143 81.6303 57.593 82.4851 58.5223 82.7344L60.0233 78.7099Z" fill="#FFD9BA"/>
<path d="M61.453 80.7754L61.9176 81.2028L61.6674 81.6658H61.4173L61.5602 81.9151L61.2743 82.5561L60.8812 82.5205L61.0241 82.9479L60.6667 83.4109L60.1306 83.3397L60.488 81.4521L61.453 80.7754Z" fill="#FFD9BA"/>
<path d="M62.1321 79.8496L63.5617 80.8112L63.383 81.203L61.3101 80.74L62.1321 79.8496Z" fill="#FFD9BA"/>
<path opacity="0.5" d="M57.593 69.7705L59.3086 67.9541L58.9869 74.1155L57.593 69.7705Z" fill="#4A4193"/>
<path d="M90.8672 127.502H172.534C173.106 127.502 173.535 127.039 173.535 126.505C173.535 125.935 173.07 125.508 172.534 125.508H90.8672C90.2953 125.508 89.8665 125.971 89.8665 126.505C89.8665 127.075 90.3311 127.502 90.8672 127.502Z" fill="#7F8FA6"/>
<path opacity="0.5" d="M67.2785 33.3723C67.2785 33.3723 67.6002 31.6271 65.5987 31.1285C63.5973 30.6299 64.455 26.8191 60.9882 25.9644C57.4857 25.1096 56.8066 29.3122 54.0189 28.2794C51.2311 27.2465 52.0531 23.5426 47.0852 23.4714C42.1173 23.4001 42.0458 29.1341 38.865 28.7067C35.6841 28.2794 34.5046 31.1641 34.5046 33.3723H67.2785Z" fill="#D2EAFF"/>
<path opacity="0.5" d="M91.7607 22.9016C91.7607 22.9016 91.4391 21.1564 93.4405 20.6578C95.4062 20.1592 94.5842 16.3484 98.051 15.4937C101.518 14.6389 102.233 18.8415 105.02 17.8086C107.808 16.7758 106.986 13.0719 111.954 13.0007C116.922 12.9294 116.993 18.6634 120.174 18.236C123.355 17.8086 124.535 20.6934 124.535 22.9016H91.7607Z" fill="#D2EAFF"/>
<path opacity="0.5" d="M174.607 37.361C174.607 37.361 174.929 35.6159 172.927 35.1173C170.961 34.6187 171.783 30.8079 168.317 29.9532C164.814 29.0984 164.135 33.3009 161.347 32.2681C158.559 31.2353 159.382 27.5314 154.414 27.4601C149.446 27.3889 149.374 33.1229 146.193 32.6955C143.012 32.2681 141.833 35.1529 141.833 37.361H174.607Z" fill="#D2EAFF"/>
<path d="M227.616 45.3643H232.546L232.558 51.5073C232.715 52.9598 233.991 53.686 236.387 53.686H236.893C239.296 53.686 240.576 52.9598 240.733 51.5073C240.733 51.4699 240.737 51.4474 240.745 51.4399C240.752 51.41 240.756 51.2902 240.756 51.0806V45.9595H245.551V45.9819H245.989C246.236 45.9819 246.379 45.9857 246.416 45.9932C247.547 46.0605 248.557 46.3638 249.448 46.9028C250.451 47.5168 251.264 48.4189 251.885 49.6094C252.177 50.1784 252.391 50.8934 252.525 51.7544V53.6973H254.333V58.5039H247.629V53.8433C247.449 52.2485 246.798 51.4474 245.675 51.4399V52.0015C245.675 52.2485 245.671 52.3908 245.664 52.4282C245.604 53.5588 245.3 54.5695 244.754 55.4604C244.14 56.4637 243.238 57.276 242.047 57.8975C241.478 58.1895 240.763 58.4028 239.902 58.5376H233.389C232.528 58.4028 231.813 58.1895 231.244 57.8975C230.053 57.276 229.151 56.4637 228.537 55.4604C227.991 54.5695 227.687 53.5588 227.627 52.4282C227.62 52.3908 227.616 52.2485 227.616 52.0015V45.3643ZM233.389 64.0967C234.04 64.0967 234.598 63.8646 235.062 63.4004C235.526 62.9362 235.758 62.3784 235.758 61.7271C235.758 61.0682 235.526 60.5067 235.062 60.0425C234.598 59.5783 234.04 59.3462 233.389 59.3462C232.73 59.3462 232.168 59.5783 231.704 60.0425C231.24 60.5067 231.008 61.0682 231.008 61.7271C231.008 62.3859 231.24 62.9437 231.704 63.4004C232.168 63.8646 232.73 64.0967 233.389 64.0967ZM237.78 60.0425C237.563 60.2596 237.394 60.5029 237.274 60.7725C237.147 61.0645 237.083 61.3826 237.083 61.7271C237.083 62.3859 237.316 62.9437 237.78 63.4004C238.236 63.8646 238.794 64.0967 239.453 64.0967C240.112 64.0967 240.674 63.8646 241.138 63.4004C241.602 62.9362 241.834 62.3784 241.834 61.7271C241.834 61.0682 241.602 60.5067 241.138 60.0425C240.666 59.5783 240.104 59.3462 239.453 59.3462C238.802 59.3462 238.244 59.5783 237.78 60.0425ZM260.757 44.0728V53.439C260.757 53.8957 260.742 54.2288 260.712 54.4385C260.69 54.7305 260.656 54.9925 260.611 55.2246C260.551 55.4567 260.484 55.6701 260.409 55.8647C260.304 56.0968 260.203 56.2878 260.106 56.4375C259.694 57.0964 259.148 57.6017 258.466 57.9536C257.778 58.3205 257.003 58.5039 256.142 58.5039H253.413V53.6973H254.098C255.041 53.6898 255.584 53.4465 255.726 52.9673C255.846 52.6903 255.906 52.1025 255.906 51.2041V40.1982H261.061V44.0728H260.757ZM267.754 44.0952V51.2041C267.754 52.1025 267.814 52.6903 267.934 52.9673C268.068 53.4465 268.607 53.6898 269.551 53.6973H270.247V58.5039H267.518C266.657 58.5039 265.882 58.3205 265.193 57.9536C264.512 57.6017 263.962 57.0964 263.542 56.4375C263.445 56.2878 263.348 56.0968 263.25 55.8647C263.168 55.6701 263.104 55.4567 263.06 55.2246C263.007 55 262.966 54.738 262.936 54.4385C262.914 54.2288 262.902 53.8957 262.902 53.439V40.1982H268.057V44.0952H267.754ZM272.639 64.0967C273.298 64.0967 273.86 63.8646 274.324 63.4004C274.78 62.9362 275.009 62.3784 275.009 61.7271C275.009 61.0682 274.78 60.5067 274.324 60.0425C273.852 59.5783 273.291 59.3462 272.639 59.3462C271.98 59.3462 271.423 59.5783 270.966 60.0425C270.502 60.5067 270.27 61.0682 270.27 61.7271C270.27 62.3859 270.502 62.9437 270.966 63.4004C271.423 63.8646 271.98 64.0967 272.639 64.0967ZM278.715 64.0967C279.366 64.0967 279.928 63.8646 280.399 63.4004C280.856 62.9362 281.084 62.3784 281.084 61.7271C281.084 61.0682 280.856 60.5067 280.399 60.0425C279.928 59.5783 279.366 59.3462 278.715 59.3462C278.056 59.3462 277.498 59.5783 277.042 60.0425C276.57 60.5067 276.334 61.0682 276.334 61.7271C276.334 62.3859 276.57 62.9437 277.042 63.4004C277.498 63.8646 278.056 64.0967 278.715 64.0967ZM269.337 58.5039V53.6973H274.627C275.57 53.6898 276.109 53.4465 276.244 52.9673C276.371 52.6903 276.435 52.1025 276.435 51.2041V45.7798H281.275V53.6973H282.657V58.5039H269.337ZM289.081 44.0728V53.439C289.081 53.8957 289.066 54.2288 289.036 54.4385C289.013 54.7305 288.979 54.9925 288.935 55.2246C288.875 55.4567 288.807 55.6701 288.732 55.8647C288.628 56.0968 288.527 56.2878 288.429 56.4375C288.017 57.0964 287.471 57.6017 286.79 57.9536C286.101 58.3205 285.326 58.5039 284.465 58.5039H281.736V53.6973H282.421C283.364 53.6898 283.907 53.4465 284.049 52.9673C284.169 52.6903 284.229 52.1025 284.229 51.2041V40.1982H289.384V44.0728H289.081ZM226.841 85.4424V97.8296L226.549 99.4917C225.853 100.705 224.988 101.611 223.955 102.209C222.914 102.808 221.462 103.108 219.598 103.108C218.19 103.108 217.071 102.939 216.24 102.603C215.386 102.258 214.63 101.749 213.971 101.075C213.29 100.386 212.788 99.6115 212.466 98.7505C212.129 97.897 211.961 96.9461 211.961 95.8979V90.0244H216.375V95.5386C216.375 96.3247 216.622 96.9611 217.116 97.4478C217.595 97.9344 218.422 98.1777 219.598 98.1777C220.87 98.1777 221.687 97.9531 222.046 97.5039V85.4424H226.841ZM218.441 79.8721C217.782 79.8721 217.224 80.1004 216.768 80.5571C216.296 81.0213 216.06 81.5828 216.06 82.2417C216.06 82.9006 216.296 83.4583 216.768 83.915C217.224 84.3792 217.782 84.6113 218.441 84.6113C219.092 84.6113 219.654 84.3792 220.125 83.915C220.582 83.4583 220.811 82.9006 220.811 82.2417C220.811 81.5903 220.582 81.0288 220.125 80.5571C219.654 80.1004 219.092 79.8721 218.441 79.8721ZM233.546 83.0952V90.2041C233.546 91.1025 233.606 91.6903 233.726 91.9673C233.86 92.4465 234.399 92.6898 235.343 92.6973H236.039V97.5039H233.31C232.449 97.5039 231.674 97.3205 230.985 96.9536C230.304 96.6017 229.754 96.0964 229.334 95.4375C229.237 95.2878 229.14 95.0968 229.042 94.8647C228.96 94.6701 228.896 94.4567 228.852 94.2246C228.799 94 228.758 93.738 228.728 93.4385C228.706 93.2288 228.694 92.8957 228.694 92.439V79.1982H233.849V83.0952H233.546ZM235.129 97.5039V92.6973L245.125 92.686C245.926 91.825 246.326 90.9079 246.326 89.9346C246.326 89.1484 246.079 88.5083 245.585 88.0142C245.106 87.535 244.462 87.2954 243.653 87.2954C242.867 87.2954 242.238 87.52 241.767 87.9692C241.392 88.3211 241.164 88.7928 241.082 89.3843L236.893 87.2842C237.027 86.8125 237.207 86.3783 237.432 85.9814C238.12 84.7686 238.989 83.8626 240.037 83.2637C241.078 82.6647 242.283 82.3652 243.653 82.3652C244.694 82.3652 245.63 82.5337 246.461 82.8706C247.314 83.2075 248.067 83.7166 248.718 84.3979C249.4 85.0643 249.905 85.8354 250.234 86.7114C250.564 87.5874 250.729 88.542 250.729 89.5752C250.729 90.6383 250.511 91.679 250.077 92.6973H252.144V97.5039H235.129ZM256.22 78.8052C255.749 78.341 255.187 78.1089 254.536 78.1089C253.877 78.1089 253.319 78.341 252.862 78.8052C252.398 79.2694 252.166 79.8271 252.166 80.4785C252.166 81.1449 252.398 81.7064 252.862 82.1631C253.319 82.6273 253.877 82.8594 254.536 82.8594C255.194 82.8594 255.756 82.6273 256.22 82.1631C256.677 81.6989 256.905 81.1374 256.905 80.4785C256.905 79.8271 256.677 79.2694 256.22 78.8052ZM262.296 78.8052C261.824 78.341 261.263 78.1089 260.611 78.1089C259.952 78.1089 259.395 78.341 258.938 78.8052C258.466 79.2694 258.23 79.8271 258.23 80.4785C258.23 81.1449 258.466 81.7064 258.938 82.1631C259.395 82.6273 259.952 82.8594 260.611 82.8594C261.263 82.8594 261.824 82.6273 262.296 82.1631C262.753 81.6989 262.981 81.1374 262.981 80.4785C262.981 79.8271 262.753 79.2694 262.296 78.8052ZM251.234 97.5039V92.6973H256.523C257.467 92.6898 258.006 92.4465 258.141 91.9673C258.268 91.6903 258.332 91.1025 258.332 90.2041V84.7798H263.172V92.6973H264.553V97.5039H251.234ZM272.628 94.2583C273.317 94.2583 273.867 94.0262 274.279 93.562C274.691 93.1128 274.896 92.4989 274.896 91.7202C274.896 90.9416 274.691 90.3201 274.279 89.856C273.86 89.3843 273.309 89.1484 272.628 89.1484C271.954 89.1484 271.408 89.3843 270.988 89.856C270.569 90.3276 270.359 90.9491 270.359 91.7202C270.359 92.4839 270.569 93.0978 270.988 93.562C271.4 94.0262 271.947 94.2583 272.628 94.2583ZM265.497 92.6973C265.459 92.3753 265.44 92.0496 265.44 91.7202C265.44 89.6838 266.118 88.0067 267.473 86.689C268.866 85.3338 270.584 84.6562 272.628 84.6562C273.676 84.6562 274.623 84.8247 275.469 85.1616C276.345 85.506 277.124 86.0151 277.805 86.689C278.486 87.3478 278.996 88.1003 279.333 88.9463C279.669 89.7773 279.838 90.702 279.838 91.7202C279.838 92.686 279.666 93.6032 279.321 94.4717C278.969 95.3102 278.453 96.0701 277.771 96.7515C277.113 97.3879 276.338 97.8857 275.447 98.2451C274.586 98.6045 273.646 98.7842 272.628 98.7842C271.617 98.7842 270.674 98.6082 269.798 98.2563C269.289 98.0617 268.821 97.8109 268.394 97.5039H263.632V92.6973H265.497ZM296.818 83.0952V92.6973L296.785 93.4385C296.755 93.7305 296.717 93.9925 296.672 94.2246C296.62 94.4567 296.553 94.6701 296.47 94.8647C296.373 95.0968 296.276 95.2878 296.178 95.4375C295.759 96.0964 295.209 96.6017 294.527 96.9536C293.839 97.3205 293.064 97.5039 292.203 97.5039H288.564V97.4927C287.666 97.4702 286.823 97.3092 286.037 97.0098C285.154 96.6654 284.379 96.16 283.712 95.4937C283.039 94.8348 282.529 94.0786 282.185 93.2251C281.848 92.394 281.68 91.4582 281.68 90.4175C281.68 89.0549 281.979 87.8494 282.578 86.8013C283.162 85.798 284.027 84.9557 285.172 84.2744L283.757 81.231L288.115 79.2095L291.484 86.4531C289.38 86.82 288.044 87.374 287.475 88.1152C286.898 88.8564 286.61 89.6239 286.61 90.4175C286.61 91.2261 286.853 91.8737 287.34 92.3604C287.826 92.8545 288.463 93.1016 289.249 93.1016L292.023 93.0903V79.1982H297.065V83.0952H296.818ZM300.558 97.5039V83.1851H299.828V79.1982H305.028V97.5039H300.558Z" fill="white"/>
</svg>
