<svg width="341" height="141" viewBox="0 0 341 141" fill="none" xmlns="http://www.w3.org/2000/svg">
<rect width="340.843" height="141" rx="22.2047" fill="#4455D7"/>
<path fill-rule="evenodd" clip-rule="evenodd" d="M0 117.758C0.00238468 118.5 0.0411219 119.233 0.114523 119.955C1.2495 131.131 10.6724 139.857 22.1401 139.89H318.702C330.936 139.855 340.842 129.927 340.842 117.685V117.645L0 55.5117V117.758Z" fill="#424A9A"/>
<path d="M248.704 55.3229C249.66 55.3153 250.211 55.0686 250.355 54.5829C250.476 54.3021 250.537 53.7063 250.537 52.7955V46.8302H255.455V55.3229H256.855V60.1953H237.582C236.709 60.1953 235.923 60.0094 235.225 59.6375C234.535 59.2808 233.977 58.7685 233.552 58.1006C233.453 57.9488 233.354 57.7553 233.256 57.52C233.172 57.3227 233.108 57.1064 233.062 56.8711C233.009 56.6434 232.967 56.3778 232.937 56.0742C232.914 55.8617 232.903 55.524 232.903 55.061V47.2969H237.821V52.7955C237.821 53.7063 237.882 54.3021 238.003 54.5829C238.14 55.0686 238.686 55.3153 239.642 55.3229H248.704ZM244.367 65.8647C245.027 65.8647 245.596 65.6294 246.074 65.1588C246.537 64.6883 246.769 64.1229 246.769 63.4626C246.769 62.7947 246.537 62.2255 246.074 61.755C245.596 61.2844 245.027 61.0491 244.367 61.0491C243.699 61.0491 243.133 61.2844 242.671 61.755C242.192 62.2255 241.953 62.7947 241.953 63.4626C241.953 64.1305 242.192 64.6959 242.671 65.1588C243.133 65.6294 243.699 65.8647 244.367 65.8647ZM260.988 41.2405C260.51 40.77 259.94 40.5347 259.28 40.5347C258.612 40.5347 258.047 40.77 257.584 41.2405C257.113 41.7111 256.878 42.2765 256.878 42.9368C256.878 43.6122 257.113 44.1815 257.584 44.6444C258.047 45.115 258.612 45.3502 259.28 45.3502C259.948 45.3502 260.517 45.115 260.988 44.6444C261.451 44.1739 261.682 43.6047 261.682 42.9368C261.682 42.2765 261.451 41.7111 260.988 41.2405ZM267.147 41.2405C266.669 40.77 266.099 40.5347 265.439 40.5347C264.771 40.5347 264.206 40.77 263.743 41.2405C263.265 41.7111 263.026 42.2765 263.026 42.9368C263.026 43.6122 263.265 44.1815 263.743 44.6444C264.206 45.115 264.771 45.3502 265.439 45.3502C266.099 45.3502 266.669 45.115 267.147 44.6444C267.61 44.1739 267.841 43.6047 267.841 42.9368C267.841 42.2765 267.61 41.7111 267.147 41.2405ZM255.933 60.1953V55.3229H261.295C262.251 55.3153 262.798 55.0686 262.934 54.5829C263.064 54.3021 263.128 53.7063 263.128 52.7955V47.2969H268.035V55.3229H269.435V60.1953H255.933ZM270.368 51.2017V46.2154L273.67 41.8667H279.157L275.924 46.2154H281.161C281.404 46.2154 281.548 46.2192 281.593 46.2268C282.739 46.2875 283.764 46.5949 284.667 47.149C285.684 47.7713 286.507 48.6858 287.137 49.8926C287.433 50.4694 287.65 51.1942 287.786 52.067V60.1953H268.501V55.3229H282.868V55.1179C282.868 52.6817 282.132 51.3839 280.66 51.2245L280.227 51.2017H270.368ZM223.238 99.1953V99.5255L222.942 101.21C222.236 102.44 221.359 103.358 220.312 103.965C219.257 104.572 217.785 104.876 215.895 104.876C214.468 104.876 213.333 104.705 212.491 104.364C211.626 104.015 210.859 103.499 210.191 102.816C209.501 102.117 208.992 101.332 208.666 100.459C208.324 99.5938 208.153 98.6299 208.153 97.5674V91.6134H212.627V97.2031C212.627 98 212.878 98.6451 213.379 99.1384C213.865 99.6317 214.703 99.8784 215.895 99.8784C217.185 99.8784 218.012 99.6507 218.377 99.1953V86.9686H223.238V94.3229H224.968V99.1953H223.238ZM214.722 81.322C214.054 81.322 213.489 81.5535 213.026 82.0165C212.548 82.487 212.309 83.0562 212.309 83.7241C212.309 84.392 212.548 84.9574 213.026 85.4204C213.489 85.8909 214.054 86.1262 214.722 86.1262C215.382 86.1262 215.952 85.8909 216.43 85.4204C216.893 84.9574 217.124 84.392 217.124 83.7241C217.124 83.0638 216.893 82.4946 216.43 82.0165C215.952 81.5535 215.382 81.322 214.722 81.322ZM227.381 104.865C228.049 104.865 228.619 104.629 229.089 104.159C229.552 103.688 229.784 103.123 229.784 102.463C229.784 101.795 229.552 101.226 229.089 100.755C228.611 100.284 228.042 100.049 227.381 100.049C226.714 100.049 226.148 100.284 225.685 100.755C225.215 101.226 224.979 101.795 224.979 102.463C224.979 103.13 225.215 103.696 225.685 104.159C226.148 104.629 226.714 104.865 227.381 104.865ZM233.54 104.865C234.201 104.865 234.77 104.629 235.248 104.159C235.711 103.688 235.942 103.123 235.942 102.463C235.942 101.795 235.711 101.226 235.248 100.755C234.77 100.284 234.201 100.049 233.54 100.049C232.872 100.049 232.307 100.284 231.844 100.755C231.366 101.226 231.127 101.795 231.127 102.463C231.127 103.13 231.366 103.696 231.844 104.159C232.307 104.629 232.872 104.865 233.54 104.865ZM224.034 99.1953V94.3229H229.396C230.353 94.3153 230.899 94.0686 231.036 93.5829C231.165 93.3021 231.229 92.7063 231.229 91.7955V86.2969H236.136V94.3229H237.536V99.1953H224.034ZM236.603 99.1953V94.3229H238.39V86.7409H243.262V94.3229H245.107V86.4791H249.979V94.3229H250.355C251.311 94.3153 251.861 94.0686 252.006 93.5829C252.127 93.3021 252.188 92.7063 252.188 91.7955V86.2969H257.106V94.061C257.106 94.524 257.091 94.8617 257.06 95.0742C257.037 95.3702 257.003 95.6358 256.958 95.8711C256.897 96.1064 256.829 96.3227 256.753 96.52C256.647 96.7553 256.544 96.9488 256.445 97.1006C256.028 97.7685 255.474 98.2808 254.783 98.6375C254.085 99.0094 253.296 99.1953 252.415 99.1953H236.603ZM258.039 101.495C259.481 101.207 260.29 100.44 260.464 99.1953L260.43 85.5342L265.337 85.5456V94.3229L265.211 99.1953C265.097 102.117 263.401 104.068 260.123 105.047L258.039 101.495ZM275.047 94.3229V92.342C275.047 90.3611 274.167 89.3707 272.406 89.3707C271.511 89.3707 270.854 89.606 270.437 90.0765L267.215 86.8434C267.716 86.2135 268.281 85.7012 268.911 85.3065C269.921 84.6842 271.086 84.373 272.406 84.373C273.734 84.373 274.903 84.6842 275.913 85.3065C276.937 85.9289 277.761 86.8434 278.383 88.0501C278.679 88.6345 278.899 89.3593 279.043 90.2245C279.149 90.9531 279.218 92.3192 279.248 94.3229H281.07V99.1953H267.283V94.3229H275.047ZM289.255 95.9053C289.953 95.9053 290.511 95.67 290.928 95.1994C291.346 94.7441 291.555 94.1217 291.555 93.3324C291.555 92.5431 291.346 91.9132 290.928 91.4426C290.503 90.9645 289.946 90.7254 289.255 90.7254C288.572 90.7254 288.018 90.9645 287.593 91.4426C287.168 91.9208 286.955 92.5507 286.955 93.3324C286.955 94.1065 287.168 94.7289 287.593 95.1994C288.01 95.67 288.564 95.9053 289.255 95.9053ZM293.524 99.1953C293.084 99.4989 292.613 99.7493 292.112 99.9467C291.24 100.311 290.287 100.493 289.255 100.493C288.23 100.493 287.274 100.315 286.386 99.9581C285.87 99.7607 285.396 99.5065 284.963 99.1953H280.136V94.3229H282.026C281.988 93.9965 281.969 93.6664 281.969 93.3324C281.969 91.2681 282.656 89.568 284.03 88.2323C285.441 86.8586 287.183 86.1717 289.255 86.1717C290.317 86.1717 291.277 86.3425 292.135 86.684C293.023 87.0331 293.812 87.5492 294.503 88.2323C295.194 88.9001 295.71 89.6629 296.051 90.5205C296.393 91.3629 296.564 92.3002 296.564 93.3324C296.564 93.6664 296.545 93.9965 296.507 94.3229H297.634V99.1953H293.524ZM304.157 84.5665V94.061C304.157 94.524 304.142 94.8617 304.111 95.0742C304.089 95.3702 304.054 95.6358 304.009 95.8711C303.948 96.1064 303.88 96.3227 303.804 96.52C303.698 96.7553 303.595 96.9488 303.497 97.1006C303.079 97.7685 302.525 98.2808 301.834 98.6375C301.136 99.0094 300.351 99.1953 299.478 99.1953H296.712V94.3229H297.406C298.362 94.3153 298.913 94.0686 299.057 93.5829C299.178 93.3021 299.239 92.7063 299.239 91.7955V80.639H304.464V84.5665H304.157ZM308.005 99.1953V84.6804H307.265V80.639H312.536V99.1953H308.005Z" fill="white"/>
<g clip-path="url(#clip0_202_1283)">
<path d="M108.132 35.5816C102.973 41.5054 98.2401 47.8176 94.0276 54.5182C89.8151 61.2188 86.076 68.2594 82.9048 75.5912C81.1535 79.6699 79.5916 83.8456 78.1717 88.0699C78.0297 88.5069 78.6923 88.6526 78.8343 88.2156C81.3429 80.6895 84.4194 73.4062 88.0165 66.3657C91.6137 59.3737 95.7315 52.7217 100.37 46.4095C102.973 42.8164 105.766 39.3689 108.653 36.0672C108.937 35.6787 108.416 35.2417 108.132 35.5816Z" fill="#E3E3FF"/>
<path d="M106.807 37.6702C106.05 34.9996 106.192 32.0378 107.47 29.5614C108.748 27.1337 111.209 25.2886 113.907 25.0458C116.605 24.803 119.445 26.2597 120.628 28.736C120.77 29.0273 120.912 29.3672 120.912 29.7557C120.912 30.0956 120.77 30.4354 120.628 30.7268C119.445 33.1545 116.889 34.417 114.38 35.3395C112.108 36.2135 109.126 37.2332 106.807 37.6702Z" fill="#E3E3FF"/>
<path d="M99.8494 46.4579C101.222 44.0786 103.447 42.1364 106.097 41.4567C108.7 40.7769 111.682 41.3595 113.717 43.2046C115.753 45.0497 116.557 48.2058 115.611 50.7793C115.469 51.1192 115.327 51.4105 115.09 51.6533C114.853 51.896 114.522 51.9932 114.191 52.0903C111.682 52.8672 108.984 51.7989 106.665 50.5365C104.535 49.4683 101.79 47.9145 99.8494 46.4579Z" fill="#E3E3FF"/>
<path d="M84.2771 72.1938C85.4604 70.1059 87.401 68.455 89.6728 67.8238C91.9447 67.1926 94.548 67.7267 96.2992 69.329C98.0505 70.9314 98.8078 73.6505 97.9558 75.9326C97.8611 76.2239 97.7191 76.5152 97.4825 76.7095C97.2458 76.9037 97.0092 77.0008 96.7252 77.0979C94.548 77.7777 92.1814 76.8551 90.1462 75.7383C88.3476 74.7672 85.981 73.4562 84.2771 72.1938Z" fill="#E3E3FF"/>
<path d="M100.133 46.8957C100.323 43.8367 97.104 40.5835 95.8734 39.1268C94.6428 37.6702 93.6488 35.8251 93.8382 33.9314C93.9802 32.6204 94.6428 31.4551 95.4474 30.3869C96.2521 29.2701 97.388 28.1533 98.7133 28.1533C100.275 28.1533 101.458 29.5614 102.121 30.9695C103.257 33.4944 103.399 36.3592 102.878 39.0783C102.405 41.8459 101.316 44.4194 100.133 46.8957Z" fill="#E3E3FF"/>
<path d="M91.0929 60.1042C91.2823 57.0452 88.0637 53.792 86.8331 52.3353C85.6025 50.8787 84.6086 49.0336 84.7979 47.1399C84.9399 45.8289 85.6025 44.6636 86.4071 43.5954C87.2118 42.4786 88.3477 41.3618 89.673 41.3618C91.2349 41.3618 92.4182 42.7699 93.0808 44.178C94.2168 46.7029 94.3588 49.5677 93.8381 52.2868C93.3648 55.0544 92.2762 57.6279 91.0929 60.1042Z" fill="#E3E3FF"/>
<path d="M83.8039 74.279C83.9932 71.22 80.7747 67.9668 79.5441 66.5101C78.3135 65.0535 77.3195 63.2084 77.5088 61.3147C77.6508 60.0037 78.3135 58.8384 79.1181 57.7702C79.9227 56.6534 81.0587 55.5366 82.3839 55.5366C83.9459 55.5366 85.1291 56.9447 85.7918 58.3528C86.9277 60.8777 87.0697 63.7425 86.5491 66.4616C86.0284 69.2292 84.9871 71.8027 83.8039 74.279Z" fill="#E3E3FF"/>
<path d="M106.428 58.1101C106.333 56.7991 105.197 55.828 104.156 55.1482C103.115 54.4685 102.026 53.9344 100.796 53.8858C99.0444 53.8372 97.4351 54.954 96.1572 56.265C95.0686 57.3818 92.844 60.1009 90.4301 60.8292C90.4301 61.0234 90.3828 61.1691 90.3354 61.3633C92.418 62.1402 94.5006 62.82 96.7252 63.0142C99.2337 63.257 101.884 62.9171 104.109 61.6547C105.339 60.8778 106.523 59.5668 106.428 58.1101Z" fill="#E3E3FF"/>
<path d="M77.2247 23.2467C76.8461 26.4028 76.6568 29.656 76.7514 32.8606C76.8461 36.0653 77.1774 39.2699 77.7927 42.4746C78.124 44.2226 78.55 45.9706 79.0233 47.7186C79.0706 47.9128 79.3073 47.7671 79.26 47.6215C78.408 44.5625 77.7927 41.4064 77.4141 38.2017C77.0354 35.0456 76.9407 31.841 77.0354 28.6849C77.0827 26.8883 77.2721 25.0918 77.4614 23.2952C77.5087 23.101 77.2721 23.0525 77.2247 23.2467Z" fill="#E3E3FF"/>
<path d="M77.2722 24.2687C76.4202 23.5889 75.8049 22.5207 75.6629 21.4525C75.5209 20.3842 75.9469 19.1704 76.7988 18.442C77.6508 17.7137 78.8814 17.568 79.8754 18.1021C80.0174 18.1507 80.112 18.2478 80.2067 18.3449C80.3013 18.442 80.3013 18.5877 80.3487 18.7334C80.4907 19.8016 79.9227 20.8698 79.3074 21.7438C78.6921 22.5207 77.9348 23.5889 77.2722 24.2687Z" fill="#E3E3FF"/>
<path d="M76.9406 28.8326C76.846 27.7159 77.1773 26.5505 77.8873 25.7251C78.5972 24.8997 79.7332 24.3656 80.8218 24.5112C81.9104 24.6569 82.9044 25.4823 83.141 26.5505C83.1884 26.6962 83.1884 26.8419 83.1884 26.9875C83.141 27.1332 83.0937 27.2303 82.999 27.3274C82.3364 28.1529 81.2004 28.4442 80.1592 28.5899C79.1652 28.687 77.8873 28.8326 76.9406 28.8326Z" fill="#E3E3FF"/>
<path d="M77.509 41.0195C77.4617 40.0484 77.6984 39.0287 78.3137 38.3004C78.929 37.5721 79.9229 37.1351 80.8695 37.2322C81.8162 37.3778 82.6681 38.0576 82.9048 39.0287C82.9521 39.1258 82.9521 39.2715 82.9048 39.3686C82.8575 39.4657 82.8101 39.6114 82.7155 39.6599C82.1475 40.3883 81.1535 40.6311 80.2542 40.7767C79.4496 40.9224 78.361 41.0195 77.509 41.0195Z" fill="#E3E3FF"/>
<path d="M77.0829 28.8812C76.4676 27.813 74.669 27.5217 73.959 27.3275C73.249 27.1332 72.4917 26.7448 72.1131 26.065C71.8764 25.5795 71.8291 25.0454 71.8291 24.5112C71.8291 23.9286 71.9711 23.3459 72.3971 23.006C72.9177 22.6176 73.6277 22.8118 74.1483 23.1517C75.0949 23.7344 75.7576 24.6569 76.2309 25.6766C76.7042 26.6962 76.9409 27.7645 77.0829 28.8812Z" fill="#E3E3FF"/>
<path d="M77.0829 35.3886C76.4676 34.3203 74.669 34.029 73.959 33.8348C73.249 33.6406 72.4917 33.2521 72.1131 32.5723C71.8764 32.0868 71.8291 31.5527 71.8291 31.0186C71.8291 30.4359 71.9711 29.8532 72.3971 29.5134C72.9177 29.1249 73.6277 29.3191 74.1483 29.659C75.0949 30.2417 75.7576 31.1642 76.2309 32.1839C76.7042 33.2036 76.8935 34.3203 77.0829 35.3886Z" fill="#E3E3FF"/>
<path d="M77.7928 41.7933C77.1775 40.7251 75.3789 40.4338 74.669 40.2396C73.959 40.0453 73.2017 39.6569 72.823 38.9771C72.5864 38.4916 72.5391 37.9575 72.5391 37.4234C72.5391 36.8407 72.6811 36.258 73.107 35.9181C73.6277 35.5297 74.3376 35.7239 74.8583 36.0638C75.8049 36.6465 76.4675 37.569 76.9409 38.5887C77.4142 39.6083 77.6508 40.7251 77.7928 41.7933Z" fill="#E3E3FF"/>
<path d="M81.6738 31.1165C81.3425 30.7281 80.7745 30.631 80.2539 30.6795C79.7806 30.6795 79.2599 30.7766 78.8813 31.0679C78.266 31.4564 77.982 32.2333 77.8873 32.9616C77.7927 33.5928 77.6507 35.0009 76.988 35.8264C77.0354 35.8749 77.0354 35.972 77.0827 36.0206C77.9347 35.7778 78.7866 35.535 79.5912 35.098C80.4905 34.6125 81.2952 33.8356 81.7211 32.9131C81.9578 32.2818 82.0525 31.6021 81.6738 31.1165Z" fill="#E3E3FF"/>
<path d="M47.1699 42.6196C48.3532 47.1838 49.9151 51.6509 51.761 55.9723C53.6543 60.2937 55.8789 64.4695 58.3874 68.451C59.8073 70.6846 61.3219 72.821 62.8839 74.9089C63.0259 75.1031 63.3098 74.8118 63.1678 74.6175C60.328 70.9273 57.7721 66.9943 55.5475 62.8671C53.323 58.7885 51.4297 54.5156 49.8678 50.0971C48.9685 47.6208 48.2112 45.0959 47.5486 42.5225C47.5012 42.2797 47.0753 42.3768 47.1699 42.6196Z" fill="#06005A"/>
<path d="M47.7381 44.0264C46.1761 43.5408 44.8035 42.5212 44.0462 41.0645C43.2889 39.6078 43.1943 37.7627 43.9516 36.3061C44.7089 34.8494 46.3181 33.8783 47.9274 34.0725C48.1167 34.0725 48.3534 34.1211 48.4954 34.2668C48.6373 34.3639 48.7793 34.5581 48.874 34.7038C49.6786 36.0633 49.442 37.8113 49.1107 39.3651C48.732 40.8217 48.306 42.6668 47.7381 44.0264Z" fill="#06005A"/>
<path d="M49.7731 50.3904C49.0631 48.9337 48.8738 47.1372 49.3471 45.5834C49.8677 44.0296 51.0984 42.7187 52.6603 42.2817C54.2222 41.8447 56.0208 42.4273 56.9674 43.7383C57.1094 43.884 57.2041 44.0782 57.2514 44.2724C57.2987 44.4666 57.2514 44.6609 57.2041 44.8551C56.7781 46.4089 55.3582 47.4285 54.0329 48.2054C52.7076 48.9823 51.0984 49.8563 49.7731 50.3904Z" fill="#06005A"/>
<path d="M57.2041 66.6568C56.5888 65.3944 56.3995 63.8406 56.8254 62.481C57.2514 61.1215 58.34 59.9562 59.7126 59.6163C61.0852 59.2278 62.6472 59.7619 63.4518 60.8787C63.5465 61.0244 63.6411 61.17 63.6885 61.3643C63.7358 61.5585 63.6885 61.7042 63.6411 61.8984C63.2625 63.2094 62.0319 64.1319 60.8486 64.8117C59.76 65.4429 58.34 66.2198 57.2041 66.6568Z" fill="#06005A"/>
<path d="M50.0573 50.3892C48.6373 49.2724 46.0341 49.9036 44.9455 50.0493C43.8569 50.195 42.6263 50.0979 41.7743 49.4181C41.2063 48.9325 40.8277 48.2042 40.591 47.4759C40.307 46.699 40.1177 45.7764 40.591 45.0967C41.0643 44.3198 42.153 44.1741 43.0522 44.2712C44.6142 44.514 46.0814 45.388 47.2174 46.5048C48.3533 47.6215 49.2526 48.9811 50.0573 50.3892Z" fill="#06005A"/>
<path d="M53.5597 59.2749C52.1398 58.1582 49.5365 58.7894 48.4479 58.9351C47.3593 59.0807 46.1287 58.9836 45.2767 58.3038C44.7088 57.8183 44.3301 57.0899 44.0935 56.3616C43.8095 55.5847 43.6202 54.6622 44.0935 53.9824C44.5668 53.2055 45.6554 53.0599 46.5547 53.157C48.1166 53.3997 49.5839 54.2737 50.7198 55.3905C51.8084 56.5073 52.7077 57.8668 53.5597 59.2749Z" fill="#06005A"/>
<path d="M58.056 67.6241C56.6361 66.5073 54.0329 67.1385 52.9443 67.2842C51.8557 67.4298 50.625 67.3327 49.7731 66.653C49.2051 66.1674 48.8265 65.4391 48.5898 64.7107C48.3058 63.9339 48.1165 63.0113 48.5898 62.3315C49.0631 61.5546 50.1517 61.409 51.051 61.5061C52.613 61.7489 54.0802 62.6229 55.2162 63.7396C56.3521 64.8078 57.2514 66.216 58.056 67.6241Z" fill="#06005A"/>
<path d="M57.5356 50.8235C56.873 50.4351 56.021 50.6779 55.3584 51.0178C54.6958 51.3091 54.0804 51.6975 53.6545 52.3288C53.0392 53.2028 53.0865 54.4166 53.3232 55.4363C53.5125 56.3589 54.1278 58.3496 53.6545 59.8548C53.7491 59.9034 53.7965 60.0005 53.8911 60.0491C54.9324 59.2722 55.9264 58.3982 56.7783 57.33C57.7249 56.1161 58.3876 54.6594 58.4822 53.1057C58.5296 52.2317 58.2929 51.212 57.5356 50.8235Z" fill="#06005A"/>
<path d="M60.2331 109.673C53.2281 109.819 46.1757 107.585 40.496 103.409C34.8163 99.2337 30.4618 93.1158 28.3319 86.2695C27.4326 83.3076 26.912 80.1515 27.5273 77.1411C28.1426 74.1306 29.9885 71.2173 32.7337 70.052C34.7216 69.178 37.0408 69.2751 39.1234 69.9063C41.206 70.5861 43.0519 71.8485 44.7085 73.2566C49.5836 77.481 54.7427 85.3469 56.8253 91.562C58.9078 97.8256 60.2331 104.478 60.2331 109.673Z" fill="#766CFF"/>
<path d="M33.8224 74.4235C35.337 76.8513 36.9936 79.2305 38.6975 81.5126C40.4014 83.7947 42.2 86.0282 43.9513 88.2618C45.7498 90.4953 47.5484 92.7774 49.2523 95.1081C50.9563 97.3902 52.5182 99.7694 54.1275 102.149C55.7367 104.479 57.3933 106.761 59.2865 108.898C59.5232 109.141 59.7599 109.432 59.9965 109.675C60.1385 109.82 60.3278 109.578 60.1858 109.48C58.2453 107.441 56.5413 105.159 54.8847 102.828C53.2755 100.498 51.7136 98.1185 50.0096 95.8364C48.3531 93.5058 46.5545 91.2722 44.8032 89.0387C43.052 86.8051 41.2534 84.5716 39.5021 82.2895C37.7509 80.0074 36.0943 77.6767 34.5324 75.2975C34.343 75.0062 34.1537 74.7149 33.9644 74.375C33.9644 74.1322 33.7277 74.2779 33.8224 74.4235Z" fill="#06005A"/>
<path d="M36.6624 92.0506C38.887 93.3616 41.1115 94.6726 43.3361 95.9836C45.3713 97.1489 47.4066 98.3143 49.5365 99.3339C50.9091 100.014 52.2817 100.645 53.6543 101.228C53.8436 101.325 53.8909 100.985 53.749 100.936C51.3824 99.9166 49.1105 98.8484 46.8386 97.5859C44.756 96.4691 42.7681 95.2553 40.7329 94.0414C39.455 93.2645 38.1297 92.4876 36.8517 91.7593C36.6624 91.7107 36.5204 91.9535 36.6624 92.0506Z" fill="#06005A"/>
<path d="M45.7499 90.0095C44.9453 86.8049 44.33 83.6002 43.8094 80.347C43.6674 79.5216 43.5727 78.6476 43.4307 77.7736C43.4307 77.5794 43.0994 77.5794 43.1467 77.7736C43.5254 81.0754 44.1407 84.3286 44.8506 87.5332C45.04 88.4072 45.2293 89.2327 45.4659 90.0581C45.5133 90.3009 45.7973 90.2038 45.7499 90.0095Z" fill="#06005A"/>
<path d="M57.1566 113.317C53.1808 116.619 48.1637 118.561 43.052 118.755C37.9402 118.95 32.7811 117.444 28.5686 114.434C26.77 113.172 25.0661 111.569 24.1195 109.53C23.1256 107.491 22.9362 105.014 24.0248 103.023C24.7821 101.615 26.1547 100.596 27.622 100.013C29.0893 99.4789 30.6985 99.3332 32.3078 99.3818C36.9936 99.576 43.3833 101.761 47.2644 104.383C51.2402 107.054 54.8847 110.307 57.1566 113.317Z" fill="#3423C7"/>
<path d="M26.581 105.113C28.5215 105.841 30.5094 106.424 32.4973 106.958C34.4853 107.492 36.4732 107.977 38.4611 108.414C40.4963 108.9 42.4842 109.385 44.4721 109.92C46.46 110.454 48.4006 111.133 50.3412 111.716C52.2818 112.299 54.2697 112.881 56.2576 113.221C56.4942 113.27 56.7782 113.318 57.0149 113.318C57.1569 113.318 57.1569 113.124 57.0622 113.076C55.027 112.784 53.0864 112.25 51.0985 111.668C49.1579 111.085 47.2173 110.405 45.2294 109.871C43.2415 109.288 41.2536 108.803 39.2657 108.317C37.2778 107.832 35.2425 107.395 33.2546 106.861C31.2667 106.327 29.2788 105.792 27.3383 105.064C27.1016 104.967 26.8649 104.87 26.6283 104.821C26.5336 104.87 26.439 105.064 26.581 105.113Z" fill="#B0B0B0"/>
<path d="M35.905 113.948C37.7509 113.657 39.5968 113.462 41.4427 113.171C43.1466 112.928 44.8032 112.637 46.4598 112.249C47.5484 112.006 48.5897 111.714 49.6783 111.423C49.8203 111.375 49.7256 111.18 49.5836 111.229C47.7851 111.714 45.9865 112.151 44.1406 112.491C42.484 112.783 40.7801 113.025 39.0761 113.268C37.9875 113.414 36.8989 113.56 35.8103 113.705C35.763 113.754 35.763 113.997 35.905 113.948Z" fill="#B0B0B0"/>
<path d="M40.2121 108.608C38.3661 107.151 36.5676 105.549 34.8636 103.898C34.4377 103.461 33.9643 103.024 33.5384 102.587C33.4437 102.49 33.2544 102.636 33.349 102.733C35.0056 104.432 36.7569 106.035 38.6028 107.588C39.0761 107.977 39.5494 108.414 40.0701 108.802C40.2121 108.899 40.354 108.705 40.2121 108.608Z" fill="#B0B0B0"/>
<path d="M173.118 55.1045C170.041 58.6005 167.249 62.3878 164.74 66.3208C162.231 70.3023 160.007 74.478 158.161 78.848C157.12 81.2758 156.173 83.7521 155.368 86.277C155.274 86.5198 155.7 86.6169 155.747 86.3741C157.214 81.907 159.06 77.5856 161.19 73.4098C163.32 69.2826 165.781 65.3011 168.526 61.5623C170.088 59.4259 171.698 57.3866 173.449 55.4444C173.591 55.2016 173.26 54.9103 173.118 55.1045Z" fill="#06005A"/>
<path d="M172.313 56.3683C171.84 54.766 171.934 53.018 172.692 51.5613C173.449 50.1047 174.916 49.0364 176.525 48.8908C178.135 48.7451 179.791 49.6191 180.501 51.0758C180.596 51.27 180.691 51.4642 180.643 51.6584C180.643 51.8526 180.549 52.0469 180.501 52.2411C179.791 53.6977 178.277 54.4261 176.809 54.9602C175.437 55.4943 173.686 56.1255 172.313 56.3683Z" fill="#06005A"/>
<path d="M168.195 61.562C169 60.1539 170.325 58.9886 171.887 58.6001C173.449 58.1631 175.2 58.5516 176.383 59.6198C177.567 60.7366 178.087 62.5817 177.519 64.1355C177.425 64.3297 177.377 64.5239 177.188 64.6696C177.046 64.8152 176.857 64.8638 176.667 64.9609C175.153 65.3979 173.591 64.7667 172.171 64.0383C170.988 63.3586 169.331 62.436 168.195 61.562Z" fill="#06005A"/>
<path d="M158.918 76.8577C159.628 75.6438 160.764 74.6242 162.137 74.2843C163.509 73.9444 165.024 74.2357 166.065 75.2068C167.106 76.1779 167.532 77.7803 167.059 79.1398C167.012 79.2855 166.917 79.4797 166.775 79.5768C166.633 79.6739 166.491 79.771 166.302 79.8196C164.977 80.208 163.604 79.6739 162.421 78.9941C161.332 78.4115 159.912 77.6346 158.918 76.8577Z" fill="#06005A"/>
<path d="M168.337 61.8521C168.479 60.0555 166.539 58.1133 165.829 57.2393C165.119 56.3653 164.503 55.2971 164.645 54.1318C164.74 53.3549 165.119 52.6751 165.592 52.0439C166.065 51.3641 166.728 50.7329 167.533 50.7329C168.432 50.7329 169.142 51.5584 169.52 52.4323C170.183 53.9376 170.278 55.637 169.994 57.2393C169.71 58.8417 169.047 60.3469 168.337 61.8521Z" fill="#06005A"/>
<path d="M162.989 69.6743C163.131 67.8778 161.19 65.9356 160.48 65.0616C159.77 64.1876 159.155 63.1194 159.297 61.954C159.391 61.1772 159.77 60.4974 160.243 59.8662C160.717 59.1864 161.379 58.5552 162.184 58.5552C163.083 58.5552 163.793 59.3806 164.172 60.2546C164.834 61.7598 164.929 63.4593 164.645 65.0616C164.314 66.7125 163.698 68.2177 162.989 69.6743Z" fill="#06005A"/>
<path d="M158.634 78.1211C158.776 76.3246 156.836 74.3824 156.126 73.5084C155.416 72.6344 154.8 71.5662 154.942 70.4008C155.037 69.6239 155.416 68.9442 155.889 68.3129C156.362 67.6332 157.025 67.002 157.83 67.002C158.729 67.002 159.439 67.8274 159.818 68.7014C160.48 70.2066 160.575 71.906 160.291 73.5084C160.007 75.1107 159.344 76.6159 158.634 78.1211Z" fill="#06005A"/>
<path d="M172.076 68.5061C172.029 67.7292 171.366 67.1466 170.704 66.7581C170.088 66.3697 169.426 66.0298 168.716 66.0298C167.674 65.9812 166.728 66.661 165.971 67.4379C165.308 68.1177 164.03 69.72 162.563 70.157C162.563 70.2541 162.515 70.3512 162.515 70.4483C163.746 70.9339 164.977 71.3223 166.302 71.4194C167.816 71.5651 169.378 71.3709 170.704 70.594C171.461 70.157 172.171 69.3801 172.076 68.5061Z" fill="#06005A"/>
<path d="M168.526 108.176C169.189 102.98 171.508 98.0276 175.058 94.2403C178.608 90.453 183.388 87.9281 188.453 87.1027C190.63 86.7628 192.902 86.7142 194.984 87.4911C197.067 88.268 198.866 89.9674 199.434 92.1524C199.812 93.7062 199.528 95.4056 198.818 96.8623C198.108 98.319 197.02 99.5328 195.836 100.601C192.334 103.757 186.228 106.719 181.637 107.593C177.046 108.467 172.171 108.71 168.526 108.176Z" fill="#3423C7"/>
<path d="M196.168 92.4413C194.275 93.3153 192.476 94.2379 190.678 95.3061C188.879 96.3257 187.128 97.394 185.377 98.4622C183.578 99.5304 181.827 100.599 179.981 101.618C178.182 102.638 176.337 103.512 174.491 104.483C172.692 105.406 170.893 106.425 169.19 107.591C169 107.736 168.764 107.882 168.574 108.028C168.48 108.125 168.574 108.27 168.716 108.222C170.373 107.008 172.171 105.988 173.97 105.017C175.769 104.046 177.614 103.172 179.413 102.201C181.212 101.23 183.01 100.162 184.761 99.0934C186.513 98.0252 188.311 96.957 190.063 95.8887C191.861 94.8691 193.66 93.8494 195.553 92.9754C195.79 92.8783 196.026 92.7812 196.263 92.6355C196.358 92.587 196.31 92.3928 196.168 92.4413Z" fill="#B0B0B0"/>
<path d="M183.436 92.6383C182.3 94.1435 181.117 95.6487 179.933 97.1539C178.892 98.5135 177.851 99.9216 176.904 101.378C176.289 102.301 175.721 103.272 175.153 104.243C175.058 104.389 175.295 104.437 175.342 104.34C176.289 102.689 177.33 101.135 178.419 99.5817C179.413 98.1736 180.501 96.814 181.59 95.4545C182.253 94.5805 182.963 93.7065 183.625 92.8325C183.72 92.6383 183.531 92.4926 183.436 92.6383Z" fill="#B0B0B0"/>
<path d="M183.909 99.5311C186.229 99.2883 188.595 99.1912 190.914 99.1426C191.53 99.1426 192.145 99.1426 192.76 99.1426C192.902 99.1426 192.95 98.9484 192.808 98.8998C190.441 98.8513 188.075 98.9484 185.755 99.0941C185.14 99.1426 184.525 99.1912 183.909 99.2397C183.767 99.3368 183.767 99.5796 183.909 99.5311Z" fill="#B0B0B0"/>
<path d="M23.7881 128.174C25.2081 128.174 26.6753 128.174 28.0953 128.174C31.9764 128.174 35.8576 128.174 39.7387 128.174C45.5131 128.174 51.2402 128.174 57.0146 128.174C64.0196 128.174 71.0719 128.174 78.0769 128.174C85.7446 128.174 93.4122 128.174 101.033 128.174C108.795 128.174 116.604 128.174 124.367 128.174C131.561 128.174 138.803 128.174 145.997 128.174C152.103 128.174 158.209 128.174 164.314 128.174C168.716 128.174 173.118 128.174 177.52 128.174C179.602 128.174 181.685 128.222 183.767 128.174C183.862 128.174 183.957 128.174 184.051 128.174C184.667 128.174 184.667 127.203 184.051 127.203C182.631 127.203 181.164 127.203 179.744 127.203C175.863 127.203 171.982 127.203 168.101 127.203C162.326 127.203 156.599 127.203 150.825 127.203C143.82 127.203 136.768 127.203 129.763 127.203C122.095 127.203 114.427 127.203 106.807 127.203C99.0446 127.203 91.235 127.203 83.4727 127.203C76.2784 127.203 69.0367 127.203 61.8424 127.203C55.7366 127.203 49.6309 127.203 43.5252 127.203C39.1234 127.203 34.7216 127.203 30.3198 127.203C28.2373 127.203 26.1547 127.154 24.0721 127.203C23.9775 127.203 23.8828 127.203 23.7881 127.203C23.1728 127.203 23.1728 128.174 23.7881 128.174Z" fill="#13084A"/>
<path d="M190.204 128.176C191.624 128.176 193.044 128.176 194.464 128.176C196.736 128.176 198.961 128.176 201.232 128.176C201.753 128.176 202.274 128.176 202.794 128.176C203.362 128.176 203.362 127.205 202.794 127.205C201.374 127.205 199.955 127.205 198.535 127.205C196.263 127.205 194.038 127.205 191.766 127.205C191.246 127.205 190.725 127.205 190.204 127.205C189.636 127.205 189.636 128.176 190.204 128.176Z" fill="#13084A"/>
<path d="M110.641 116.671L101.127 118.176C100.228 118.322 99.4235 117.691 99.2815 116.768L89.3893 51.9466C89.2473 51.0241 89.8626 50.1986 90.7619 50.053L100.275 48.5478C101.175 48.4021 101.979 49.0333 102.121 49.9559L111.966 114.874C112.156 115.7 111.54 116.574 110.641 116.671Z" fill="#4A4193"/>
<path d="M110.896 107.303L98.1287 109.343L98.2234 109.966L110.991 107.926L110.896 107.303Z" fill="white"/>
<path d="M109.944 101.092L97.1763 103.132L97.271 103.756L110.039 101.716L109.944 101.092Z" fill="white"/>
<path d="M104.224 63.5088L91.4568 65.5488L91.5515 66.1725L104.319 64.1325L104.224 63.5088Z" fill="white"/>
<path d="M103.273 57.2988L90.5051 59.3389L90.5998 59.9626L103.367 57.9225L103.273 57.2988Z" fill="white"/>
<path d="M70.835 115.941H56.3517C55.4524 115.941 54.7424 115.213 54.7424 114.291V48.5952C54.7424 47.6727 55.4524 46.9443 56.3517 46.9443H70.8823C71.7816 46.9443 72.4916 47.6727 72.4916 48.5952V114.291C72.4916 115.213 71.7343 115.941 70.835 115.941Z" fill="#766CFF"/>
<path d="M72.4442 106.715H54.6951V107.346H72.4442V106.715Z" fill="white"/>
<path d="M72.4442 100.453H54.6951V101.084H72.4442V100.453Z" fill="white"/>
<path d="M72.4442 62.3838H54.6951V63.015H72.4442V62.3838Z" fill="white"/>
<path d="M72.4442 56.1211H54.6951V56.7523H72.4442V56.1211Z" fill="white"/>
<path d="M64.0191 89.1412C67.3389 89.1412 70.0302 86.3803 70.0302 82.9746C70.0302 79.569 67.3389 76.8081 64.0191 76.8081C60.6993 76.8081 58.0081 79.569 58.0081 82.9746C58.0081 86.3803 60.6993 89.1412 64.0191 89.1412Z" stroke="white" stroke-width="1.11024" stroke-miterlimit="10"/>
<path opacity="0.67" d="M72.4917 48.5957L67.1433 115.553V115.942H71.2611L72.1604 115.311L72.4444 114.631L72.4917 48.5957Z" fill="#4949EA"/>
<path d="M125.692 115.941H113.622C112.723 115.941 112.013 115.213 112.013 114.291V48.5952C112.013 47.6727 112.723 46.9443 113.622 46.9443H125.692C126.591 46.9443 127.301 47.6727 127.301 48.5952V114.291C127.301 115.213 126.591 115.941 125.692 115.941Z" fill="#766CFF"/>
<path d="M127.301 106.715H111.966V107.346H127.301V106.715Z" fill="white"/>
<path d="M127.301 100.453H111.966V101.084H127.301V100.453Z" fill="white"/>
<path d="M127.301 62.3838H111.966V63.015H127.301V62.3838Z" fill="white"/>
<path d="M127.301 56.1211H111.966V56.7523H127.301V56.1211Z" fill="white"/>
<path d="M123.675 87.5755C125.708 85.4897 125.708 82.108 123.675 80.0221C121.642 77.9363 118.346 77.9363 116.312 80.0221C114.279 82.108 114.279 85.4897 116.312 87.5755C118.346 89.6613 121.642 89.6613 123.675 87.5755Z" stroke="white" stroke-width="1.11024" stroke-miterlimit="10"/>
<path opacity="0.67" d="M127.301 48.5957L121.953 115.553V115.942H126.07L126.97 115.311L127.254 114.631L127.301 48.5957Z" fill="#4949EA"/>
<path d="M88.6314 115.941H74.1007C73.2014 115.941 72.4915 115.213 72.4915 114.29V40.9233C72.4915 40.0008 73.2014 39.2725 74.1007 39.2725H88.6314C89.5307 39.2725 90.2406 40.0008 90.2406 40.9233V114.29C90.2406 115.213 89.5307 115.941 88.6314 115.941Z" fill="black"/>
<path d="M90.2406 105.648H72.4915V106.328H90.2406V105.648Z" fill="white"/>
<path d="M90.2406 98.7046H72.4915V99.3844H90.2406V98.7046Z" fill="white"/>
<path d="M90.2406 56.4116H72.4915V57.0914H90.2406V56.4116Z" fill="white"/>
<path d="M90.2406 49.4683H72.4915V50.148H90.2406V49.4683Z" fill="white"/>
<path d="M81.7684 86.1291C85.0882 86.1291 87.7794 83.0639 87.7794 79.2828C87.7794 75.5017 85.0882 72.4365 81.7684 72.4365C78.4486 72.4365 75.7573 75.5017 75.7573 79.2828C75.7573 83.0639 78.4486 86.1291 81.7684 86.1291Z" stroke="white" stroke-width="1.11024" stroke-miterlimit="10"/>
<path opacity="0.7" d="M90.4774 41.0195L81.7212 115.503V115.94H88.4895L89.9095 115.261L90.4301 114.484L90.4774 41.0195Z" fill="#0252AD"/>
<path opacity="0.58" d="M103.493 58.8389L108.747 117.008L111.729 115.94L112.013 114.775L103.493 58.8389Z" fill="#312D7F"/>
<path d="M147.89 116.575L138.85 117.935C137.951 118.081 137.146 117.449 137.004 116.527L126.591 43.9367C126.449 43.0142 127.064 42.1887 127.964 42.043L137.004 40.6835C137.903 40.5378 138.708 41.1691 138.85 42.0916L149.263 114.682C149.405 115.556 148.789 116.43 147.89 116.575Z" fill="black"/>
<path d="M148.062 106.141L135.792 107.992L135.889 108.665L148.158 106.814L148.062 106.141Z" fill="white"/>
<path d="M147.065 99.2501L134.795 101.101L134.892 101.774L147.161 99.9227L147.065 99.2501Z" fill="white"/>
<path d="M140.065 50.547L127.796 52.3979L127.892 53.0705L140.161 51.2195L140.065 50.547Z" fill="white"/>
<path opacity="0.7" d="M139.844 48.8877L143.583 115.943L149.736 116.817L139.844 48.8877Z" fill="#0252AD"/>
<path d="M161.143 116.673L151.63 118.179C150.73 118.324 149.926 117.693 149.784 116.77L139.891 51.9491C139.749 51.0265 140.365 50.2011 141.264 50.0554L150.778 48.5502C151.677 48.4045 152.482 49.0358 152.624 49.9583L162.468 114.877C162.658 115.702 162.042 116.576 161.143 116.673Z" fill="#4A4193"/>
<path d="M161.399 107.31L148.632 109.35L148.726 109.973L161.494 107.933L161.399 107.31Z" fill="white"/>
<path d="M160.447 101.095L147.68 103.135L147.774 103.758L160.542 101.718L160.447 101.095Z" fill="white"/>
<path d="M154.727 63.5156L141.96 65.5557L142.054 66.1794L154.822 64.1393L154.727 63.5156Z" fill="white"/>
<path d="M153.776 57.3013L141.008 59.3413L141.103 59.965L153.87 57.925L153.776 57.3013Z" fill="white"/>
<path opacity="0.58" d="M154.091 61.417L158.256 116.819H162.942L154.091 61.417Z" fill="#312D7F"/>
<path d="M174.348 116.667L164.835 118.173C163.935 118.318 163.131 117.687 162.989 116.765L155.037 64.7132C154.895 63.7907 155.511 62.9652 156.41 62.8196L165.923 61.3144C166.823 61.1687 167.627 61.7999 167.769 62.7225L175.674 114.822C175.816 115.696 175.2 116.57 174.348 116.667Z" fill="#766CFF"/>
<path d="M174.847 109.001L162.079 111.042L162.152 111.521L174.92 109.481L174.847 109.001Z" fill="white"/>
<path d="M174.045 104.005L161.278 106.045L161.35 106.525L174.118 104.485L174.045 104.005Z" fill="white"/>
<path d="M169.409 73.4653L156.642 75.5054L156.715 75.9851L169.482 73.9451L169.409 73.4653Z" fill="white"/>
<path d="M168.647 68.4126L155.88 70.4526L155.952 70.9324L168.72 68.8924L168.647 68.4126Z" fill="white"/>
<path opacity="0.67" d="M155.038 64.7153L169.095 116.815H162.942" fill="#4949EA"/>
<path d="M193.66 124.341H35.9523C33.6804 124.341 31.8818 122.447 31.8818 120.165C31.8818 117.834 33.7278 115.989 35.9523 115.989H193.66C195.932 115.989 197.73 117.883 197.73 120.165C197.73 122.447 195.932 124.341 193.66 124.341Z" fill="#06005A"/>
<path d="M137.43 133.229C137.43 133.229 118.829 122.207 95.5895 128.276C95.5895 128.276 90.9511 129.538 90.3358 124.246C90.3358 124.246 78.6923 100.988 65.2976 92.3935L69.4627 89.1889L112.676 76.2246C112.676 76.2246 130.236 86.664 135.016 100.114C135.016 100.114 164.456 101.036 176.668 107.251L182.016 108.805L137.43 133.229Z" fill="#4A4193"/>
<path d="M66.5281 88.3638L71.2139 84.625C71.2139 84.625 90.8089 97.2008 97.1986 117.497C97.1986 117.497 120.533 110.796 137.383 120.167L177.851 99.8714L178.04 107.689L137.477 129.247C137.477 129.247 121.574 120.896 98.1926 123.712C98.1926 123.712 94.2168 126.285 92.7495 121.576C92.7968 121.576 82.7627 99.2887 66.5281 88.3638Z" fill="#E1DAEA"/>
<path d="M71.2139 84.6265L115.705 74.3813C115.705 74.3813 132.366 91.7642 135.016 100.164C135.016 100.164 157.025 96.5711 177.851 99.8729L137.383 120.169C137.383 120.169 124.745 113.468 97.1987 117.498C97.1987 117.45 83.4726 92.6382 71.2139 84.6265Z" fill="#EFE8F7"/>
<path d="M81.2008 82.2441L77.7456 83.0696C77.7456 83.0696 93.6962 102.88 97.1514 117.495L106.949 108.076" fill="#E1DAEA"/>
<path d="M97.4829 116.72C97.4829 116.72 93.2231 90.5485 77.0359 78.8467L122.616 69.2812C122.616 69.2812 132.745 80.2062 135.064 100.162L97.4829 116.72Z" fill="#EFE8F7"/>
<path d="M170.42 99.0454L173.97 99.3367L138.424 117.739C138.424 117.739 120.817 114.049 110.025 115.7" fill="#E1DAEA"/>
<path d="M97.1987 117.449L135.064 100.163C135.064 100.163 161.569 94.1422 175.863 97.4925L137.667 116.963C137.62 116.963 121.858 112.739 97.1987 117.449Z" fill="#EFE8F7"/>
<path d="M97.1987 117.449L137.478 99.6782L135.064 100.164L97.4827 116.721L97.1987 117.449Z" fill="#E1DAEA"/>
<path d="M134.921 101.42C137.004 101.517 139.039 101.177 141.074 100.886C142.116 100.74 143.157 100.546 144.198 100.497C145.24 100.4 146.328 100.4 147.369 100.352C149.499 100.303 151.629 100.06 153.712 99.8662C155.842 99.6719 157.972 99.5263 160.102 99.4777C162.515 99.4777 164.929 99.5748 167.343 99.8662C167.58 99.9147 167.58 99.5263 167.343 99.4777C163.083 98.9922 158.776 98.9436 154.469 99.3806C152.339 99.5748 150.257 99.8662 148.127 99.9147C147.085 99.9633 146.044 99.9633 145.003 100.012C143.962 100.06 142.968 100.206 141.926 100.352C139.607 100.692 137.288 101.129 134.921 101.031C134.685 101.08 134.685 101.42 134.921 101.42Z" fill="#E1DAEA"/>
<path d="M131.75 103.122C133.596 103.122 135.442 103.073 137.241 102.976C139.039 102.879 140.838 102.879 142.684 102.831C146.328 102.782 149.973 102.588 153.57 102.588C155.605 102.588 157.688 102.636 159.723 102.685C159.96 102.685 159.96 102.345 159.723 102.296C156.078 102.151 152.434 102.151 148.789 102.248C146.944 102.296 145.145 102.394 143.299 102.394C141.5 102.394 139.702 102.442 137.903 102.491C135.868 102.588 133.785 102.685 131.75 102.685C131.514 102.782 131.514 103.122 131.75 103.122Z" fill="#E1DAEA"/>
<path d="M128.532 105.308C130.283 105.406 132.034 105.357 133.786 105.308C135.537 105.26 137.288 105.308 138.992 105.357C142.447 105.454 145.95 105.357 149.405 105.454C151.393 105.503 153.333 105.648 155.274 105.794C155.511 105.794 155.511 105.454 155.274 105.406C151.819 105.114 148.316 104.969 144.814 104.969C143.062 104.969 141.359 104.969 139.607 104.969C137.856 104.92 136.152 104.871 134.401 104.92C132.413 104.969 130.472 105.017 128.484 104.92C128.295 104.92 128.295 105.308 128.532 105.308Z" fill="#E1DAEA"/>
<path d="M122.947 108.17C124.698 108.267 126.449 108.218 128.2 108.17C129.952 108.121 131.703 108.17 133.407 108.218C136.862 108.315 140.364 108.218 143.82 108.315C145.808 108.364 147.748 108.51 149.689 108.655C149.925 108.655 149.925 108.315 149.689 108.267C146.234 107.976 142.731 107.83 139.229 107.83C137.477 107.83 135.773 107.83 134.022 107.83C132.271 107.781 130.567 107.733 128.816 107.781C126.828 107.83 124.887 107.878 122.899 107.781C122.71 107.781 122.71 108.17 122.947 108.17Z" fill="#E1DAEA"/>
<path d="M115.516 111.421C117.267 111.518 119.018 111.47 120.77 111.421C122.521 111.373 124.272 111.421 125.976 111.47C129.431 111.567 132.934 111.47 136.389 111.567C138.377 111.615 140.317 111.761 142.258 111.907C142.495 111.907 142.495 111.567 142.258 111.518C138.803 111.227 135.3 111.081 131.798 111.081C130.047 111.081 128.343 111.081 126.591 111.081C124.84 111.033 123.136 110.984 121.385 111.033C119.397 111.081 117.457 111.13 115.469 111.033C115.279 111.033 115.279 111.421 115.516 111.421Z" fill="#E1DAEA"/>
<path d="M109.552 113.849C111.303 113.946 113.054 113.898 114.806 113.849C116.557 113.8 118.308 113.849 120.012 113.898C123.467 113.995 126.97 113.898 130.425 113.995C132.413 114.043 134.353 114.189 136.294 114.335C136.531 114.335 136.531 113.995 136.294 113.946C132.839 113.655 129.336 113.509 125.834 113.509C124.083 113.509 122.379 113.509 120.627 113.509C118.876 113.461 117.172 113.412 115.421 113.461C113.433 113.509 111.492 113.558 109.505 113.461C109.315 113.461 109.363 113.849 109.552 113.849Z" fill="#E1DAEA"/>
<path d="M132.177 98.1743C131.23 96.6691 130.615 94.9696 129.952 93.2702C129.621 92.3962 129.289 91.5222 128.911 90.6967C128.532 89.8713 128.059 89.0459 127.633 88.2204C126.733 86.6181 126.024 84.8701 125.266 83.1707C124.509 81.4712 123.752 79.7718 122.805 78.1695C121.764 76.3244 120.628 74.5764 119.35 72.9255C119.208 72.7798 119.539 72.5856 119.681 72.7313C121.953 75.6932 123.846 78.9464 125.314 82.3452C126.071 84.0447 126.733 85.7441 127.633 87.395C128.059 88.2204 128.532 88.9973 128.911 89.8228C129.289 90.6482 129.668 91.4736 129.952 92.2991C130.662 94.2413 131.325 96.1835 132.413 97.9315C132.555 98.1743 132.271 98.3685 132.177 98.1743Z" fill="#E1DAEA"/>
<path d="M129.195 99.5297C128.248 98.0245 127.633 96.3251 126.97 94.6257C126.639 93.7517 126.307 92.8777 125.929 92.0522C125.55 91.2268 125.077 90.4013 124.651 89.5759C123.752 87.9736 123.042 86.2256 122.284 84.5261C121.527 82.8267 120.77 81.1273 119.823 79.5249C118.782 77.6798 117.646 75.9318 116.368 74.281C116.226 74.1353 116.557 73.9411 116.699 74.0867C118.971 77.0486 120.864 80.3018 122.332 83.7007C123.089 85.4001 123.752 87.0996 124.651 88.7505C125.077 89.5759 125.55 90.3528 125.929 91.1782C126.307 92.0037 126.686 92.8291 126.97 93.6545C127.68 95.5968 128.343 97.539 129.431 99.287C129.621 99.5297 129.289 99.724 129.195 99.5297Z" fill="#E1DAEA"/>
<path d="M125.503 100.894C124.556 99.3888 123.941 97.6893 123.278 95.9899C122.947 95.1159 122.616 94.2419 122.237 93.4165C121.858 92.591 121.385 91.7656 120.959 90.9402C120.06 89.3378 119.35 87.5898 118.593 85.8904C117.835 84.191 117.078 82.4915 116.131 80.8892C115.09 79.0441 113.954 77.2961 112.676 75.6452C112.534 75.4996 112.866 75.3053 113.008 75.451C115.279 78.4129 117.173 81.6661 118.64 85.065C119.397 86.7644 120.06 88.4638 120.959 90.1147C121.385 90.9402 121.858 91.717 122.237 92.5425C122.616 93.3679 122.994 94.1934 123.278 95.0188C123.988 96.961 124.651 98.9032 125.74 100.651C125.929 100.845 125.645 101.04 125.503 100.894Z" fill="#E1DAEA"/>
<path d="M121.953 102.444C121.006 100.939 120.391 99.2396 119.728 97.5402C119.397 96.6662 119.065 95.7922 118.687 94.9668C118.308 94.1413 117.835 93.3159 117.409 92.4904C116.51 90.8881 115.8 89.1401 115.042 87.4407C114.285 85.7413 113.528 84.0418 112.581 82.4395C111.54 80.5944 110.404 78.8464 109.126 77.1955C108.984 77.0499 109.315 76.8556 109.457 77.0013C111.729 79.9632 113.622 83.2164 115.09 86.6153C115.847 88.3147 116.51 90.0141 117.409 91.665C117.835 92.4904 118.308 93.2673 118.687 94.0928C119.065 94.9182 119.444 95.7437 119.728 96.5691C120.438 98.5113 121.101 100.454 122.189 102.202C122.379 102.444 122.095 102.639 121.953 102.444Z" fill="#E1DAEA"/>
<path d="M117.598 103.463C116.652 101.958 116.036 100.259 115.374 98.5592C115.042 97.6852 114.711 96.8113 114.332 95.9858C113.954 95.1604 113.48 94.3349 113.054 93.5095C112.155 91.9072 111.445 90.1592 110.688 88.4597C109.931 86.7603 109.173 85.0609 108.227 83.4585C107.185 81.6134 106.049 79.8654 104.771 78.2146C104.629 78.0689 104.961 77.8747 105.103 78.0203C107.375 80.9822 109.268 84.2354 110.735 87.6343C111.492 89.3337 112.155 91.0332 113.054 92.684C113.48 93.5095 113.954 94.2864 114.332 95.1118C114.711 95.9373 115.09 96.7627 115.374 97.5881C116.084 99.5303 116.746 101.473 117.835 103.221C117.977 103.463 117.693 103.658 117.598 103.463Z" fill="#E1DAEA"/>
<path d="M112.913 104.779C111.966 103.274 111.351 101.574 110.688 99.8747C110.357 99.0007 110.025 98.1267 109.647 97.3012C109.268 96.4758 108.795 95.6504 108.369 94.8249C107.47 93.2226 106.76 91.4746 106.002 89.7752C105.245 88.0757 104.488 86.3763 103.541 84.774C102.5 82.9289 101.364 81.1809 100.086 79.53C99.9439 79.3843 100.275 79.1901 100.417 79.3358C102.689 82.2976 104.582 85.5509 106.05 88.9497C106.807 90.6492 107.47 92.3486 108.369 93.9995C108.795 94.8249 109.268 95.6018 109.647 96.4272C110.025 97.2527 110.404 98.0781 110.688 98.9036C111.398 100.846 112.061 102.788 113.149 104.536C113.339 104.73 113.055 104.924 112.913 104.779Z" fill="#E1DAEA"/>
<path d="M109.174 107.79C108.132 106.139 107.422 104.294 106.76 102.449C106.381 101.527 106.05 100.604 105.624 99.6815C105.198 98.759 104.724 97.885 104.251 97.011C103.305 95.263 102.5 93.4179 101.648 91.5728C100.843 89.7277 99.944 87.9311 98.9501 86.1831C97.8141 84.1924 96.5835 82.2987 95.2109 80.4536C95.0689 80.2594 95.4002 80.1137 95.5422 80.2594C97.9561 83.5126 99.9914 87.0086 101.695 90.6988C102.5 92.5439 103.305 94.389 104.251 96.1855C104.724 97.0595 105.198 97.9335 105.671 98.8075C106.097 99.6815 106.476 100.604 106.854 101.478C107.659 103.566 108.369 105.702 109.6 107.547C109.6 107.79 109.268 107.984 109.174 107.79Z" fill="#E1DAEA"/>
<path d="M103.162 109.583C102.074 107.883 101.364 105.99 100.607 104.096C100.228 103.125 99.8493 102.154 99.4233 101.231C98.9974 100.309 98.4767 99.3861 98.0034 98.4635C97.0094 96.6184 96.1575 94.7248 95.3055 92.8311C94.4536 90.9375 93.5543 89.0438 92.513 87.2473C91.3297 85.2079 90.0518 83.2172 88.6792 81.3235C88.5372 81.1293 88.8685 80.9351 89.0105 81.1293C91.519 84.4796 93.6016 88.1212 95.3529 91.9571C96.2048 93.8508 97.0094 95.793 98.0034 97.6381C98.4767 98.5606 98.9973 99.4346 99.4707 100.357C99.944 101.28 100.323 102.202 100.701 103.125C101.553 105.261 102.311 107.446 103.541 109.388C103.588 109.583 103.304 109.777 103.162 109.583Z" fill="#E1DAEA"/>
<path d="M136.72 124.974C120.959 117.594 99.4705 120.701 99.2812 120.75L99.2339 120.264C99.4705 120.216 121.101 117.108 136.957 124.537L136.72 124.974Z" fill="#CEC6DB"/>
<path d="M135.3 99.9676C135.3 99.9676 123.467 105.26 110.451 110.99C97.4353 116.719 95.3054 121.623 90.241 129.975L93.4595 128.761L94.5954 130.509C94.5954 130.509 98.8079 121.72 103.494 118.758C108.179 115.845 141.927 98.8022 141.927 98.8022L135.3 99.9676Z" fill="#766CFF"/>
</g>
<defs>
<clipPath id="clip0_202_1283">
<rect width="179.858" height="115.465" fill="white" transform="translate(23.3149 17.7656)"/>
</clipPath>
</defs>
</svg>
