<svg xmlns="http://www.w3.org/2000/svg" fill="none" viewBox="3.929 0 166.964 214.972" width="166.964" height="214.972" xmlns:v="https://vecta.io/nano"><style><![CDATA[.B{fill:#464c97}.C{fill:#7a92df}.D{fill:#d1d5fa}.E{fill:#eae5db}.F{fill:#a8804a}.G{fill:#6c97a7}.H{fill:#fff}.I{opacity:.44}.J{opacity:.22}.K{opacity:.23}.L{fill:#b0bddb}.M{fill:#5fa694}.N{fill:#417263}.O{fill:#81cfaf}.P{fill:#569776}.Q{fill:#d8afab}.R{fill:#231e24}.S{opacity:.63}]]></style><g filter="url(#C)"><rect fill="#424a9a" rx="6" height="215" width="167" x="4"/></g><mask height="215" width="147" y="0" x="13" maskUnits="userSpaceOnUse" id="A"><path d="M160 0H13.338v215H160V0z" class="H"/></mask><g mask="url(#A)"><g style="mix-blend-mode:screen" class="B"><use href="#F"/></g><g style="mix-blend-mode:screen" class="B"><path d="M15.541 8.573c-.118 0-.23.049-.313.136s-.13.205-.13.328.047.241.13.328.196.136.313.136.23-.049.313-.136.13-.205.13-.328-.047-.241-.13-.328-.196-.136-.313-.136z"/></g><g style="mix-blend-mode:screen" class="B"><use href="#G"/></g><g style="mix-blend-mode:screen" class="B"><path d="M24.931 9.805c-.118 0-.23.049-.314.136s-.13.205-.13.328.047.241.13.329.196.136.314.136.23-.049.313-.136.13-.205.13-.328-.047-.241-.13-.328-.196-.136-.313-.136z"/></g><g style="mix-blend-mode:screen" class="B"><path d="M19.224 23.945a.41.41 0 0 0-.113-.203l-.09-.074c-.066-.044-.143-.066-.222-.064h-.066c-.059-.002-.117.011-.17.04-.056.017-.105.052-.142.099a.34.34 0 0 0-.094.148c-.025.056-.038.116-.038.178v.123a.41.41 0 0 0 .113.203l.09.074c.068.04.144.062.222.064h.066a.39.39 0 0 0 .17-.04.43.43 0 0 0 .142-.099c.041-.042.073-.093.094-.148s.038-.116.038-.178c.014-.04.005-.084 0-.123z"/></g><g style="mix-blend-mode:screen" class="B"><use href="#G" x="-12.588" y="13.53"/></g><g style="mix-blend-mode:screen" class="B"><use href="#H"/></g><g style="mix-blend-mode:screen" class="B"><use href="#I"/></g><g style="mix-blend-mode:screen" class="B"><use href="#J"/></g><g style="mix-blend-mode:screen" class="B"><use href="#H" x="3.853" y="-15.854"/></g><g style="mix-blend-mode:screen" class="B"><path d="M100.149 76.998a.41.41 0 0 0-.095-.148c-.038-.044-.087-.076-.141-.094a.29.29 0 0 0-.17-.04h-.118a.47.47 0 0 0-.193.119l-.071.094a.51.51 0 0 0-.061.237v.064a.41.41 0 0 0 .038.183c.021.056.053.107.094.148s.087.076.141.094a.29.29 0 0 0 .17.04h.118c.073-.023.139-.063.193-.119l.071-.094c.039-.072.06-.154.061-.237v-.064a.41.41 0 0 0-.037-.183z"/></g><g style="mix-blend-mode:screen" class="B"><path d="M66.426 103.553c-.109.012-.21.065-.284.151s-.114.196-.114.311a.48.48 0 0 0 .114.311.44.44 0 0 0 .284.151.44.44 0 0 0 .284-.151.48.48 0 0 0 .114-.311c0-.115-.041-.226-.114-.311s-.174-.139-.284-.151z"/></g><g style="mix-blend-mode:screen" class="B"><path d="M54.079 124.362a.43.43 0 0 0-.321-.064c-.111.023-.209.089-.275.184s-.095.214-.081.332a.47.47 0 0 0 .158.299c.095.063.21.086.321.063a.44.44 0 0 0 .275-.183c.066-.096.095-.215.081-.332a.47.47 0 0 0-.158-.299z"/></g><g style="mix-blend-mode:screen" class="B"><path d="M50.381 120.274a.43.43 0 0 0-.321-.064c-.111.023-.209.088-.275.184a.48.48 0 0 0-.081.331.47.47 0 0 0 .158.3c.095.063.21.086.321.063a.44.44 0 0 0 .275-.184.48.48 0 0 0 .081-.331.47.47 0 0 0-.158-.299z"/></g><g style="mix-blend-mode:screen" class="B"><path d="M46.655 128.335c-.095-.073-.214-.103-.33-.084s-.221.086-.29.185-.098.224-.08.346a.47.47 0 0 0 .177.304c.095.073.214.103.33.084s.221-.086.29-.185.098-.224.08-.346a.47.47 0 0 0-.177-.304z"/></g><g style="mix-blend-mode:screen" class="B"><path d="M69.152 118.768a.43.43 0 0 0-.321-.064c-.111.023-.209.089-.275.184a.48.48 0 0 0-.081.332.47.47 0 0 0 .158.299c.095.063.21.086.321.063s.209-.088.275-.183.095-.215.081-.332a.47.47 0 0 0-.158-.299z"/></g><g style="mix-blend-mode:screen" class="B"><path d="M62.318 121.096c.014-.059.014-.12 0-.178a.5.5 0 0 0-.179-.302l-.104-.059a.43.43 0 0 0-.222-.025l-.108.035c-.072.032-.134.086-.179.153l-.042.055c-.036.048-.059.106-.066.168-.017.058-.017.119 0 .177.006.06.027.116.061.163a.32.32 0 0 0 .113.139l.104.059c.074.019.152.019.226 0l.108-.034a.48.48 0 0 0 .179-.154l.038-.054a.38.38 0 0 0 .071-.143z"/></g><g style="mix-blend-mode:screen" class="B"><use href="#K"/></g><g style="mix-blend-mode:screen" class="B"><path d="M154.156 15.612c-.109.012-.21.066-.283.151s-.114.196-.114.311.04.226.114.311.174.139.283.151c.11-.012.211-.066.284-.151a.48.48 0 0 0 0-.622c-.073-.085-.174-.139-.284-.151z"/></g><g style="mix-blend-mode:screen" class="B"><use href="#H" x="54.036" y="-85.704"/></g><g style="mix-blend-mode:screen" class="B"><use href="#L"/></g><g style="mix-blend-mode:screen" class="B"><path d="M83.565 18.881c-.118 0-.23.049-.313.136s-.13.205-.13.328.047.241.13.328.196.136.313.136.23-.049.314-.136.13-.205.13-.328-.047-.241-.13-.328-.196-.136-.314-.136z"/></g><g style="mix-blend-mode:screen" class="B"><path d="M89.433 18.773c-.118 0-.23.049-.313.136s-.13.205-.13.328.047.241.13.329.196.136.313.136.23-.049.314-.136.13-.205.13-.329-.047-.241-.13-.328-.196-.136-.314-.136z"/></g><g style="mix-blend-mode:screen" class="B"><use href="#G" x="60.455" y="70.657"/></g><g style="mix-blend-mode:screen" class="B"><path d="M110.496 82.024c-.283 0-.283.924 0 .924s.307-.924 0-.924z"/></g><g style="mix-blend-mode:screen" class="B"><path d="M50.366 82.679c-.109.012-.21.066-.283.151s-.114.196-.114.311.041.226.114.311.174.139.283.151c.109-.012.21-.066.284-.151s.114-.196.114-.311-.041-.226-.114-.311-.175-.139-.284-.151z"/></g><g style="mix-blend-mode:screen" class="B"><path d="M118.444 53.71c-.092.035-.17.098-.226.181s-.085.182-.085.284.03.2.085.284.134.146.226.181c.542 0 .542-.929 0-.929z"/></g><g style="mix-blend-mode:screen" class="B"><use href="#K" x="-36.51" y="85.961"/></g><g style="mix-blend-mode:screen" class="B"><path d="M51.734 74.993c-.118 0-.23.049-.313.136s-.13.205-.13.328.047.241.13.329.196.136.313.136.23-.049.313-.136.13-.205.13-.329-.047-.241-.13-.328-.196-.136-.313-.136z"/></g><g style="mix-blend-mode:screen" class="B"><use href="#K" x="-44.679" y="91.667"/></g><g style="mix-blend-mode:screen" class="B"><path d="M115.92 68.877c-.091.035-.169.098-.225.181s-.085.182-.085.284.029.201.085.284.134.146.225.181c.529 0 .529-.929 0-.929z"/></g><g style="mix-blend-mode:screen" class="B"><path d="M81.509 24.21c-.109.012-.21.066-.284.151s-.114.196-.114.311a.48.48 0 0 0 .114.311c.074.085.175.139.284.151.109-.012.21-.066.284-.151a.48.48 0 0 0 .114-.311c0-.115-.041-.226-.114-.311s-.174-.139-.284-.151z"/></g><g style="mix-blend-mode:screen" class="B"><path d="M85.325 13.448c-.109.012-.21.066-.284.151s-.114.196-.114.311a.48.48 0 0 0 .114.311c.073.085.174.139.284.151.109-.012.21-.066.284-.151s.114-.196.114-.311-.041-.226-.114-.311-.175-.139-.284-.151z"/></g><g style="mix-blend-mode:screen" class="B"><use href="#M"/></g><g style="mix-blend-mode:screen" class="B"><path d="M120.835 125.599a.44.44 0 0 0-.284.151.48.48 0 0 0 0 .622c.074.086.175.139.284.151.109-.012.21-.065.283-.151s.114-.196.114-.311-.04-.226-.114-.311-.174-.139-.283-.151z"/></g><g style="mix-blend-mode:screen" class="B"><use href="#K" x="-22.922" y="90.33"/></g><g style="mix-blend-mode:screen" class="B"><path d="M123.179 139.341c-.118 0-.23.049-.314.136s-.129.205-.129.329.046.241.129.328.196.136.314.136a.43.43 0 0 0 .313-.136.47.47 0 0 0 .13-.328.47.47 0 0 0-.13-.329.43.43 0 0 0-.313-.136z"/></g><g style="mix-blend-mode:screen" class="B"><path d="M112.911 131.028c-.117 0-.23.049-.313.136s-.13.206-.13.329a.47.47 0 0 0 .13.328c.083.087.196.136.313.136s.23-.049.314-.136.129-.205.129-.328-.046-.242-.129-.329-.196-.136-.314-.136z"/></g><g style="mix-blend-mode:screen" class="B"><path d="M116.722 120.27c-.117 0-.23.049-.313.136a.48.48 0 0 0-.13.329c0 .123.047.241.13.328s.196.136.313.136.231-.049.314-.136.13-.205.13-.328a.48.48 0 0 0-.13-.329c-.083-.087-.196-.136-.314-.136z"/></g><g style="mix-blend-mode:screen" class="B"><use href="#M" x="-21.172" y="-85.6"/></g><g style="mix-blend-mode:screen" class="B"><use href="#N"/></g><g style="mix-blend-mode:screen" class="B"><use href="#L" x="-42.429" y="-6.891"/></g><g style="mix-blend-mode:screen" class="B"><use href="#N" x="-1.113" y="15.513"/></g><g style="mix-blend-mode:screen" class="B"><use href="#F" x="-1.513" y="32.76"/></g><g style="mix-blend-mode:screen" class="B"><use href="#O"/></g><g style="mix-blend-mode:screen" class="B"><use href="#G" x="-4.608" y="35.319"/></g><g style="mix-blend-mode:screen" class="B"><path d="M24.884 34.844c-.109.012-.21.066-.284.151s-.114.196-.114.311a.48.48 0 0 0 .114.311c.073.085.174.139.284.151.109-.012.21-.066.284-.151a.48.48 0 0 0 .114-.311c0-.115-.041-.226-.114-.311s-.175-.139-.284-.151z"/></g><g style="mix-blend-mode:screen" class="B"><use href="#I" x="-64.653" y="-39.515"/></g><g style="mix-blend-mode:screen" class="B"><use href="#F" x="2.793" y="45.165"/></g><g style="mix-blend-mode:screen" class="B"><use href="#P"/></g><g style="mix-blend-mode:screen" class="B"><path d="M59.96 136.156a.43.43 0 0 0-.313.137c-.083.087-.13.205-.13.328s.047.241.13.328a.43.43 0 0 0 .627 0c.083-.087.13-.205.13-.328s-.047-.241-.13-.328a.43.43 0 0 0-.314-.137z"/></g><g style="mix-blend-mode:screen" class="B"><path d="M126.773 105.283c-.118 0-.23.049-.314.136a.48.48 0 0 0-.129.329c0 .123.046.241.129.328s.196.136.314.136a.43.43 0 0 0 .313-.136.47.47 0 0 0 .13-.328c0-.123-.046-.241-.13-.329a.43.43 0 0 0-.313-.136z"/></g><g style="mix-blend-mode:screen" class="B"><path d="M64.068 137.899a.44.44 0 0 0-.284.151.48.48 0 0 0-.114.311c0 .115.041.226.114.311a.43.43 0 0 0 .284.151.43.43 0 0 0 .284-.151c.073-.085.114-.196.114-.311a.48.48 0 0 0-.114-.311.44.44 0 0 0-.284-.151z"/></g><g style="mix-blend-mode:screen" class="B"><use href="#K" x="-34.345" y="133.716"/></g><g style="mix-blend-mode:screen" class="B"><path d="M61.62 150.706a.43.43 0 0 0-.283.151c-.074.085-.114.196-.114.311a.48.48 0 0 0 .114.311.44.44 0 0 0 .283.151.44.44 0 0 0 .284-.151.48.48 0 0 0 .114-.311c0-.115-.041-.226-.114-.311a.43.43 0 0 0-.284-.151z"/></g><g style="mix-blend-mode:screen" class="B"><path d="M156.501 86.779a.45.45 0 0 0-.258-.204c-.107-.032-.222-.02-.321.033a.46.46 0 0 0-.215.252.49.49 0 0 0 .006.338c.058.099.15.172.258.204s.221.02.321-.033.176-.143.214-.252.037-.23-.005-.338z"/></g><g style="mix-blend-mode:screen" class="B"><path d="M159.548 88.277a.45.45 0 0 0-.258-.204c-.107-.032-.222-.02-.321.033a.46.46 0 0 0-.215.253c-.039.109-.036.23.006.338.058.099.15.172.257.204s.222.02.322-.033a.46.46 0 0 0 .214-.253c.039-.109.037-.23-.005-.338z"/></g><g style="mix-blend-mode:screen" class="B"><path d="M159.911 92.895a.45.45 0 0 0-.258-.204c-.107-.032-.222-.02-.321.033a.46.46 0 0 0-.215.252.49.49 0 0 0 .006.338c.058.099.15.172.257.204s.222.02.322-.033a.46.46 0 0 0 .214-.252c.039-.109.037-.23-.005-.338z"/></g><g style="mix-blend-mode:screen" class="B"><path d="M147.902 96.421c-.058-.099-.15-.172-.257-.204s-.222-.02-.321.033a.46.46 0 0 0-.215.252.48.48 0 0 0 .006.338c.058.099.15.172.257.204s.222.02.322-.033a.46.46 0 0 0 .214-.252.48.48 0 0 0-.006-.338z"/></g><g style="mix-blend-mode:screen" class="B"><use href="#J" x="21.003" y="22.035"/></g><g style="mix-blend-mode:screen" class="B"><path d="M88.442 99.232c-.109.012-.21.066-.284.151s-.114.196-.114.311a.48.48 0 0 0 .114.311.44.44 0 0 0 .284.151.44.44 0 0 0 .283-.151.48.48 0 0 0 .114-.311c0-.115-.041-.226-.114-.311s-.174-.139-.283-.151z"/></g><g style="mix-blend-mode:screen" class="B"><use href="#O" x="68.643" y="56.485"/></g><g style="mix-blend-mode:screen" class="B"><path d="M124.801 193.2c-.109.012-.21.066-.283.151s-.114.196-.114.311.04.226.114.311.174.139.283.151c.11-.012.211-.065.284-.151s.114-.196.114-.311-.04-.226-.114-.311-.174-.139-.284-.151z"/></g><g style="mix-blend-mode:screen" class="B"><path d="M114.317 190.124c-.118 0-.23.049-.314.136s-.129.205-.129.328.046.242.129.329.196.136.314.136.23-.049.313-.136a.47.47 0 0 0 .13-.329.47.47 0 0 0-.13-.328c-.083-.087-.196-.136-.313-.136z"/></g><g style="mix-blend-mode:screen" class="B"><use href="#Q"/></g><g style="mix-blend-mode:screen" class="B"><path d="M124.434 183.435a.36.36 0 0 0-.09-.148c-.038-.044-.087-.076-.142-.094-.051-.03-.11-.044-.169-.039h-.118c-.075.022-.143.062-.198.118l-.066.094a.46.46 0 0 0-.062.232v.07c-.002.061.011.123.038.177a.39.39 0 0 0 .09.154c.041.043.091.075.146.094a.29.29 0 0 0 .17.039h.118a.49.49 0 0 0 .193-.119l.071-.093a.61.61 0 0 0 .061-.238v-.069c0-.062-.015-.123-.042-.178z"/></g><g style="mix-blend-mode:screen" class="B"><path d="M112.086 180.812a.43.43 0 0 0-.314.136c-.083.087-.129.205-.129.328s.046.241.129.328a.43.43 0 0 0 .314.136c.118 0 .23-.048.313-.136a.47.47 0 0 0 .13-.328.47.47 0 0 0-.13-.328c-.083-.088-.195-.136-.313-.136z"/></g><g style="mix-blend-mode:screen" class="B"><path d="M134.805 188.433c-.283 0-.283.929 0 .929s.288-.929 0-.929z"/></g><g style="mix-blend-mode:screen" class="B"><use href="#K" x="-12.206" y="192.394"/></g><g style="mix-blend-mode:screen" class="B"><use href="#Q" x="-1.349" y="25.817"/></g><g style="mix-blend-mode:screen" class="B"><path d="M140.21 175.31c-.091.035-.17.098-.225.181a.51.51 0 0 0-.086.284c0 .101.03.2.086.283s.134.146.225.181c.528 0 .528-.929 0-.929z"/></g><g style="mix-blend-mode:screen" class="B"><path d="M145.549 194.614c-.109.012-.21.065-.284.151a.48.48 0 0 0 0 .622.44.44 0 0 0 .284.151.44.44 0 0 0 .284-.151.48.48 0 0 0 0-.622c-.074-.086-.175-.139-.284-.151z"/></g><g style="mix-blend-mode:screen" class="B"><path d="M149.063 201.822c-.109.012-.21.065-.284.151a.48.48 0 0 0 0 .622.44.44 0 0 0 .284.151c.109-.012.21-.066.283-.151s.114-.196.114-.311-.04-.226-.114-.311-.174-.139-.283-.151z"/></g><g style="mix-blend-mode:screen" class="B"><path d="M151.058 211.725c-.118 0-.231.049-.314.136s-.13.205-.13.328a.48.48 0 0 0 .13.329c.083.087.196.136.314.136s.23-.049.313-.136a.48.48 0 0 0 .13-.329c0-.123-.047-.241-.13-.328s-.196-.136-.313-.136z"/></g><g style="mix-blend-mode:screen" class="B"><path d="M43.429 179.856a.45.45 0 0 0-.258-.204c-.107-.031-.222-.019-.321.034s-.176.143-.215.252-.037.23.006.338a.45.45 0 0 0 .258.204c.107.031.222.02.321-.033s.176-.143.215-.253.037-.23-.006-.338z"/></g><g style="mix-blend-mode:screen" class="B"><path d="M46.457 181.342a.45.45 0 0 0-.258-.204c-.107-.031-.222-.02-.321.033s-.176.143-.215.253-.037.23.006.338a.45.45 0 0 0 .258.204c.107.031.222.019.321-.034s.176-.143.215-.252.037-.23-.006-.338z"/></g><g style="mix-blend-mode:screen" class="B"><path d="M46.825 185.986c-.053-.11-.146-.193-.258-.232s-.234-.029-.339.027a.46.46 0 0 0-.221.27c-.037.117-.028.245.026.355a.45.45 0 0 0 .258.232c.112.039.234.029.339-.027a.46.46 0 0 0 .221-.27c.037-.117.027-.245-.026-.355z"/></g><g style="mix-blend-mode:screen" class="B"><path d="M34.831 189.51a.45.45 0 0 0-.258-.204c-.107-.031-.222-.02-.321.033s-.176.143-.215.253-.037.23.006.338a.45.45 0 0 0 .258.204.43.43 0 0 0 .321-.034c.099-.052.176-.143.215-.252s.037-.23-.006-.338z"/></g><g style="mix-blend-mode:screen" class="B"><path d="M118.015 200.537c-.118 0-.231.049-.314.136s-.13.205-.13.328.047.242.13.329.196.136.314.136.23-.049.313-.136.13-.205.13-.329-.047-.241-.13-.328-.196-.136-.313-.136z"/></g><g style="mix-blend-mode:screen" class="B"><path d="M112.732 205.661c-.118 0-.23.049-.314.136s-.129.205-.129.328.046.242.129.329.196.136.314.136a.43.43 0 0 0 .313-.136.47.47 0 0 0 .13-.329.47.47 0 0 0-.13-.328.43.43 0 0 0-.313-.136z"/></g><g style="mix-blend-mode:screen" class="B"><path d="M113.708 196.031c-.109.012-.21.066-.283.151s-.114.196-.114.311.04.226.114.311.174.139.283.151c.109-.012.21-.065.284-.151a.48.48 0 0 0 0-.622.44.44 0 0 0-.284-.151z"/></g><g style="mix-blend-mode:screen" class="B"><path d="M19.719 203.179c-.118 0-.23.049-.314.136s-.13.205-.13.329.047.241.13.328.196.136.314.136.23-.049.313-.136.13-.205.13-.328-.047-.242-.13-.329-.196-.136-.313-.136z"/></g><g style="mix-blend-mode:screen" class="B"><use href="#P" x="-33.742" y="49.024"/></g><g style="mix-blend-mode:screen" class="B"><path d="M19.351 193.419c-.017-.057-.048-.109-.09-.149a.33.33 0 0 0-.142-.098c-.054-.028-.114-.042-.175-.04h-.113a.47.47 0 0 0-.198.123l-.071.094a.48.48 0 0 0-.057.233v.108c-.004.062.009.124.038.178.018.057.049.108.09.148s.087.076.142.094a.3.3 0 0 0 .17.04h.118a.42.42 0 0 0 .198-.119l.066-.094c.041-.069.062-.15.061-.232v-.069c.013-.075-.001-.152-.038-.217z"/></g><g style="mix-blend-mode:screen" class="B"><path d="M29.723 198.417c-.288 0-.288.923 0 .923s.283-.923 0-.923z"/></g><g style="mix-blend-mode:screen" class="B"><path d="M30.393 207.436c-.118 0-.23.049-.314.136s-.13.205-.13.328.047.242.13.329.196.136.314.136.23-.049.313-.136.13-.206.13-.329-.047-.241-.13-.328-.196-.136-.313-.136z"/></g><g style="mix-blend-mode:screen" class="B"><path d="M35.123 185.293a.44.44 0 0 0-.284.151c-.074.085-.114.196-.114.311s.041.226.114.311.175.139.284.151c.109-.012.21-.065.283-.151s.114-.196.114-.311-.041-.226-.114-.311a.44.44 0 0 0-.283-.151z"/></g><path d="M91.777 4.484l-.25 1.418-1.009-.988c-.206-.202-.463-.338-.74-.39l-1.354-.262.943-1.052a1.57 1.57 0 0 0 .377-.776l.25-1.418 1.005.988c.206.202.463.337.74.39l1.358.262-.943 1.057a1.55 1.55 0 0 0-.377.771zm-9.579 1.941l-.165.944-.665-.652a.93.93 0 0 0-.495-.262l-.896-.173.623-.702a1.04 1.04 0 0 0 .25-.494l.165-.939.665.652a1.01 1.01 0 0 0 .495.262l.896.173-.623.697a1.04 1.04 0 0 0-.25.494zm-6.443-1.24l-.099.583-.415-.405a.56.56 0 0 0-.306-.158l-.557-.109.387-.435a.66.66 0 0 0 .156-.316l.104-.583.41.405c.086.081.192.136.307.158l.556.109-.387.435a.66.66 0 0 0-.156.316zm8.103-4.083l-.104.583-.41-.405c-.086-.083-.192-.139-.307-.163l-.556-.104.387-.435a.66.66 0 0 0 .156-.321l.118-.583.415.405a.58.58 0 0 0 .302.163l.556.109-.387.43c-.085.088-.143.199-.17.321zM37.802 46.941l1.118-.657-.075 1.344c-.02.277.04.554.17.795l.627 1.176-1.278-.084a1.36 1.36 0 0 0-.755.183l-1.118.657.075-1.339a1.48 1.48 0 0 0-.17-.79l-.627-1.171 1.278.079a1.31 1.31 0 0 0 .755-.193zm-4.707 7.81l.741-.435-.052.889a1.02 1.02 0 0 0 .118.524l.415.776-.849-.049a.91.91 0 0 0-.5.119l-.74.435.047-.889a.97.97 0 0 0-.113-.524l-.429-.776.849.054a.85.85 0 0 0 .514-.123zm2.986 5.53l.472-.267-.033.548c-.005.113.019.226.071.326l.259.494-.528-.035c-.107-.005-.213.02-.306.074l-.472.272.028-.549c.005-.113-.019-.226-.071-.326l-.259-.494.528.03a.53.53 0 0 0 .311-.074zm-7.608-3.642l.472-.272-.042.553c-.007.112.018.224.071.321l.255.494-.523-.035a.57.57 0 0 0-.311.074l-.472.272.033-.553c.006-.112-.019-.223-.071-.321l-.259-.494.524.035a.57.57 0 0 0 .325-.074zm128.924 141.007l.839.143-.575.672a1.01 1.01 0 0 0-.222.494l-.137.88-.632-.593a.92.92 0 0 0-.471-.233l-.84-.148.571-.662c.119-.138.197-.31.221-.494l.137-.875.632.593a.87.87 0 0 0 .477.223zm-.967 6.292l.519.089-.349.41a.59.59 0 0 0-.142.296l-.085.549-.391-.371c-.079-.075-.178-.125-.283-.143l-.519-.089.349-.41a.55.55 0 0 0 .137-.301l.089-.544.392.371c.08.073.178.123.283.143zm-3.769-7.827l.519.093-.354.411a.63.63 0 0 0-.136.296l-.085.543-.392-.365c-.079-.079-.179-.129-.287-.143l-.519-.094.353-.41c.071-.084.118-.187.137-.297l.085-.543.392.365c.079.079.179.129.287.144zm-11.8-152.775l-.778.776 1.047.267a1.14 1.14 0 0 1 .561.341l.745.82.255-1.097c.051-.225.164-.43.325-.588l.778-.781-1.047-.267a1.14 1.14 0 0 1-.561-.341l-.745-.82-.255 1.097c-.052.226-.165.432-.325.593zm2.91 7.404l-.519.494.694.178c.143.039.273.117.377.227l.471.543.17-.726a.77.77 0 0 1 .217-.39l.514-.494-.674-.173a.75.75 0 0 1-.373-.227l-.471-.539-.194.717a.85.85 0 0 1-.212.39zm3.514 3.882l-.321.316.429.114a.43.43 0 0 1 .231.138l.307.336.103-.45a.5.5 0 0 1 .133-.242l.32-.321-.429-.109a.51.51 0 0 1-.231-.138l-.307-.336-.103.45c-.021.092-.067.176-.132.242zm-.92-7.305l-.321.321.429.109c.089.023.169.073.231.143l.307.336.104-.455c.021-.092.067-.176.132-.242l.321-.316-.43-.114a.44.44 0 0 1-.231-.138l-.306-.336-.104.45c-.021.092-.067.176-.132.242zM37.651 179.606l-.066 1.126.943-.548c.192-.115.412-.168.632-.153l1.075.064-.528-.988a1.28 1.28 0 0 1-.146-.663l.066-1.126-.943.548a1.11 1.11 0 0 1-.637.154l-1.075-.065.528.989c.11.2.163.43.151.662zm6.947 3.349l-.042.746.627-.366a.75.75 0 0 1 .42-.103l.712.044-.349-.652c-.07-.135-.104-.287-.099-.44l.042-.746-.623.366a.74.74 0 0 1-.42.098l-.712-.064.349.657c.075.14.108.3.094.46zm5.094.329v.465l.387-.228c.079-.047.169-.069.259-.064l.439.03-.212-.405c-.045-.083-.066-.177-.061-.272v-.465l-.382.228a.49.49 0 0 1-.264.064l-.439-.03.217.406a.54.54 0 0 1 .057.271zm-5.424-4.694v.464l.382-.227c.08-.048.172-.07.264-.064l.439.03-.217-.406a.54.54 0 0 1-.057-.271v-.465l-.387.227a.45.45 0 0 1-.259.065l-.439-.03.212.405c.045.083.066.177.061.272zm10.103-85.307l.943-.553-.943-.494c-.197-.103-.361-.265-.472-.465l-.528-.988-.495.988c-.099.207-.253.378-.443.494l-.943.548.943.519a1.2 1.2 0 0 1 .472.469l.528.988.472-.988a1.21 1.21 0 0 1 .467-.519zm-1.104-7.83l.613-.371-.627-.341a.79.79 0 0 1-.307-.311l-.349-.642-.325.657a.83.83 0 0 1-.297.321l-.613.366.651.351c.127.072.231.18.302.311l.354.642.325-.652a.74.74 0 0 1 .274-.331zm-2.485-4.597l.382-.227-.387-.212a.53.53 0 0 1-.193-.193l-.217-.4-.203.405a.48.48 0 0 1-.184.203l-.377.227.387.213a.44.44 0 0 1 .189.188l.217.4.203-.42a.48.48 0 0 1 .184-.183zm-.779 7.228l.377-.227-.387-.212a.44.44 0 0 1-.189-.188l-.217-.4-.203.405a.46.46 0 0 1-.184.198l-.382.227.391.212c.077.047.142.113.189.193l.217.4.203-.405a.48.48 0 0 1 .184-.203zm90.797 4.52l.665 1.033-1.189.03c-.242.005-.478.084-.679.227l-.986.697-.028-1.245a1.4 1.4 0 0 0-.222-.712l-.665-1.033 1.189-.03a1.27 1.27 0 0 0 .684-.232l.985-.697.029 1.245a1.36 1.36 0 0 0 .217.716zm-4.802 7.264l.439.687h-.788c-.168 0-.333.054-.472.153l-.65.46v-.825c-.002-.176-.053-.348-.147-.494l-.443-.687h.792a.8.8 0 0 0 .472-.148l.651-.464v.825c.001.176.052.348.146.494zm-4.655 3.323l.274.42h-.472a.45.45 0 0 0-.278.094l-.406.286v-.494a.56.56 0 0 0-.085-.291l-.273-.425h.471a.6.6 0 0 0 .283-.094l.401-.287v.494a.56.56 0 0 0 .085.297zm2.632-7.651l.273.425h-.471a.55.55 0 0 0-.278.094l-.406.287v-.494a.66.66 0 0 0-.09-.297l-.273-.42h.471a.49.49 0 0 0 .283-.094l.401-.287v.494a.51.51 0 0 0 .09.291z" class="H"/><path d="M34.788 120.347l-3.5 4.284 16.654 14.907 1.028-1.265 2.471-3.024-.67-.598-.533-.474-13.885-12.432-.425-.38-.321-.287-.821-.731z" class="F"/><g style="mix-blend-mode:screen" class="I F"><path d="M35.604 121.061c-.272.079-.515.241-.698.465l-1.443 1.769c-.238.297-.355.681-.326 1.068a1.51 1.51 0 0 0 .482 1.002l13.404 12.002a1.37 1.37 0 0 0 1.022.344c.371-.03.715-.213.959-.507l.047-.064 1.415-1.7a1.47 1.47 0 0 0 .33-.795l-.533-.495-13.909-12.397-.425-.38-.325-.312z"/></g><g style="mix-blend-mode:screen" class="I F"><path d="M36.354 121.748a.47.47 0 0 0-.066.074l-1.292 1.581a1.34 1.34 0 0 0-.239.448c-.051.164-.07.337-.057.51a1.36 1.36 0 0 0 .133.493 1.3 1.3 0 0 0 .304.402l11.984 10.728c.254.224.582.335.913.307a1.24 1.24 0 0 0 .855-.456l.047-.054 1.24-1.522c.024-.024.045-.053.061-.084l-13.885-12.427z"/></g><path d="M51.437 135.257l-2.387 2.925-.67.825-.439.534 2.033 1.823a1.19 1.19 0 0 0 .89.305c.324-.026.624-.185.836-.443l1.887-2.337c.109-.136.19-.294.238-.464s.062-.348.04-.524a1.26 1.26 0 0 0-.316-.717.67.67 0 0 0-.099-.099l-2.014-1.828z" class="L"/><g style="mix-blend-mode:screen" class="K L"><path d="M51.437 135.257l-2.386 2.925-.67.825 1.745 1.562c.247.22.567.328.89.302a1.21 1.21 0 0 0 .836-.441l1.886-2.342c.051-.057.094-.122.127-.192a1.26 1.26 0 0 0-.316-.717c-.029-.036-.063-.07-.099-.099l-2.014-1.823z"/></g><g style="mix-blend-mode:screen" class="K L"><path d="M51.437 135.257l-2.386 2.925 1.212 1.082c.247.221.568.329.891.302s.624-.187.835-.445l1.585-1.942a.67.67 0 0 0-.099-.099l-2.038-1.823z"/></g><path d="M34.788 120.338l-3.5 4.294-1.17-3.029-1.066-2.762.618.158.58.153 1.538.405 1.929.504.632.163.439.114z" class="E"/><g style="mix-blend-mode:screen" class="J E"><path d="M34.35 120.227l-2.853 3.498-1.17-3.029-.656-1.695.58.153 1.538.406 1.929.504.632.163z"/></g><g style="mix-blend-mode:screen" class="J E"><path d="M31.789 119.559l1.929.504-2.113 2.589-1.17-3.029-.184-.469 1.537.405z"/></g><path d="M29.053 118.841l.566 1.462.887-1.087-1.453-.375z" class="B"/><path d="M146.968 8.613l-4.244 4.58 17.092 17.294c.094.096.206.172.329.222a.95.95 0 0 0 .384.072c.132-.003.262-.033.382-.088s.229-.136.32-.236l.552-.603 2.292-2.471c.091-.099.163-.216.212-.344s.072-.265.07-.403-.031-.273-.083-.4-.128-.241-.223-.336l-.57-.573-14.838-15.026-.472-.46-.344-.346-.859-.884z" class="F"/><g style="mix-blend-mode:screen" class="I F"><path d="M147.846 9.496c-.317.07-.604.243-.821.494l-1.74 1.868c-.292.316-.452.742-.445 1.182a1.7 1.7 0 0 0 .483 1.165l14.333 14.487c.149.154.326.275.52.357a1.52 1.52 0 0 0 1.22-.019c.192-.088.365-.214.51-.373l.061-.069 1.679-1.813a1.7 1.7 0 0 0 .425-.88l-.571-.573-14.857-15.021-.472-.46-.325-.346z"/></g><g style="mix-blend-mode:screen" class="I F"><path d="M148.643 10.299l-.08.079-1.557 1.695c-.26.283-.402.663-.395 1.056s.163.767.433 1.039l12.814 12.956c.134.136.293.242.466.314s.358.106.544.103a1.36 1.36 0 0 0 .541-.124c.171-.078.325-.191.454-.332l.057-.059 1.499-1.626a.56.56 0 0 0 .071-.089l-14.847-15.011z"/></g><path d="M146.969 8.605l-4.226 4.585-1.123-3.498-1.018-3.192.688.227.642.212 1.707.568 2.141.702.703.232.486.163z" class="E"/><g style="mix-blend-mode:screen" class="J E"><path d="M146.483 8.444l-3.448 3.74-1.122-3.498-.623-1.957.641.212 1.708.568 2.141.702.703.232z"/></g><g style="mix-blend-mode:screen" class="J E"><path d="M143.639 7.51l2.141.702-2.551 2.772-1.123-3.498-.174-.544 1.707.568z"/></g><path d="M140.602 6.5l.542 1.695 1.071-1.161-1.613-.534z" class="F"/><path d="M127.749 93.445l2.929 2.1-7.825 11.982a.58.58 0 0 1-.372.252c-.151.03-.307-.004-.434-.093l-.387-.277-1.585-1.132c-.063-.044-.117-.102-.159-.168s-.071-.142-.086-.22-.014-.16.002-.238.045-.153.088-.219l.264-.4 6.82-10.411.207-.316.161-.242.377-.618z" class="G"/><g style="mix-blend-mode:screen" class="I G"><path d="M127.348 94.064a.83.83 0 0 1 .519.168l1.208.865a.94.94 0 0 1 .254.269c.067.106.113.226.135.351a1 1 0 0 1-.005.378c-.025.124-.074.242-.144.347l-6.556 10.051a.94.94 0 0 1-.595.398c-.24.047-.488-.005-.692-.146l-.043-.03-1.165-.835a.98.98 0 0 1-.339-.445l.264-.4 6.815-10.411.208-.316.136-.242z"/></g><g style="mix-blend-mode:screen" class="I G"><path d="M127.004 94.622l.057.035 1.08.776c.18.131.303.331.343.557a.9.9 0 0 1-.131.649l-5.867 8.983a.84.84 0 0 1-.232.236.81.81 0 0 1-.3.126.8.8 0 0 1-.323-.005c-.106-.024-.207-.07-.296-.135l-.038-.024-1.038-.742c-.019-.012-.036-.027-.051-.044l6.796-10.411z"/></g><path d="M127.749 93.448l2.929 2.1.25-2.14.222-1.947-.364.213-.344.203-.915.534-1.141.667-.378.217-.259.153z" class="E"/><g style="mix-blend-mode:screen" class="J E"><path d="M128.009 93.295l2.391 1.715.25-2.14.137-1.196-.345.203-.915.534-1.141.667-.377.217z"/></g><g style="mix-blend-mode:screen" class="J E"><path d="M129.527 92.413l-1.141.667 1.768 1.265.25-2.135.038-.331-.915.534z"/></g><path d="M131.15 91.461l-.118 1.033-.74-.534.858-.499zM22.077 176.608l2.58-2.555 9.518 10.549a.63.63 0 0 1 .168.43c0 .161-.06.316-.168.43l-.34.336-1.415 1.384c-.055.055-.12.099-.191.127a.57.57 0 0 1-.224.041.57.57 0 0 1-.405-.193l-.316-.351-8.277-9.166-.25-.281-.193-.213-.486-.538z" class="G"/><g style="mix-blend-mode:screen" class="I G"><path d="M22.563 177.149c.041-.189.135-.361.269-.494l1.061-1.053c.18-.171.417-.263.661-.255s.475.113.646.295l7.985 8.849a1.02 1.02 0 0 1 .244.693 1.01 1.01 0 0 1-.282.676l-.038.04-1.023 1.013a.86.86 0 0 1-.472.252l-.316-.351-8.291-9.171-.25-.282-.193-.212z"/></g><g style="mix-blend-mode:screen" class="I G"><path d="M23.006 177.64l.047-.05.943-.938a.81.81 0 0 1 .272-.181c.101-.04.209-.06.317-.056s.215.029.314.075.188.113.262.196l7.141 7.906a.88.88 0 0 1 .171.287c.038.107.056.22.053.334a.9.9 0 0 1-.073.33c-.045.103-.109.197-.189.274l-.033.035-.901.924a.21.21 0 0 1-.052.045l-8.273-9.181z"/></g><path d="M22.078 176.599l2.58-2.554-1.943-.707-1.773-.642.123.42.118.395.302 1.048.382 1.314.123.43.09.296z" class="E"/><g style="mix-blend-mode:screen" class="J E"><path d="M21.988 176.304l2.104-2.085-1.938-.706-1.089-.396.118.396.302 1.047.382 1.315.123.429z"/></g><g style="mix-blend-mode:screen" class="J E"><path d="M21.483 174.559l.382 1.314 1.557-1.547-1.939-.706-.302-.109.302 1.048z"/></g><path d="M20.941 172.696l.939.341-.651.647-.288-.988z" class="G"/><g style="mix-blend-mode:multiply" class="C"><use href="#R"/></g><use href="#R" class="C"/><g style="mix-blend-mode:screen" class="J C"><path d="M151.369 113.733l-24.61 18.238 19.714 4.629 4.896-22.867zm-4.462 6.463l-2.485 11.631-10.027-2.372 12.512-9.259z"/></g><g style="mix-blend-mode:screen" class="J C"><path d="M149.643 116.23l-19.809 14.671 15.852 3.72 3.957-18.391zm-15.248 13.228l12.512-9.275-2.485 11.632-10.027-2.357z"/></g><g opacity=".3" style="mix-blend-mode:multiply" class="C"><path d="M128.461 131.096l-.57 2.668-.472-.109.571-2.663c.013-.066.05-.123.104-.16s.118-.049.181-.035a.24.24 0 0 1 .152.109c.035.056.047.124.034.19zm2.443.577l-.57 2.663-.472-.109.571-2.663c.014-.065.052-.123.106-.159s.119-.048.181-.034.118.055.152.111a.26.26 0 0 1 .032.191zm2.439.577l-.571 2.643-.471-.109.566-2.663a.25.25 0 0 1 .113-.157c.056-.035.123-.045.186-.028s.117.06.15.118.043.129.027.196zm2.443.57l-.571 2.663-.471-.109.566-2.663c.013-.066.052-.124.106-.16s.121-.05.184-.035.118.054.153.111.047.127.033.193zm2.443.586l-.571 2.663-.471-.108.566-2.664c.013-.066.052-.124.106-.16a.24.24 0 0 1 .184-.035.24.24 0 0 1 .153.112c.035.057.047.126.033.192zm2.452.562l-.57 2.663-.472-.103.566-2.669c.014-.066.052-.123.107-.16s.12-.049.183-.035.118.055.153.112.047.126.033.192zm2.434.57l-.571 2.669-.471-.109.566-2.668c.007-.033.019-.064.038-.092s.041-.051.068-.069.057-.03.089-.036.064-.006.095.002.061.02.087.039.049.044.066.072.029.06.035.093.005.067-.002.099zm2.443.575l-.57 2.668-.472-.109.566-2.668c.007-.033.02-.064.038-.091a.27.27 0 0 1 .069-.07c.027-.019.057-.03.088-.036s.064-.005.095.002.061.02.087.04.049.043.066.071.029.06.035.093a.26.26 0 0 1-.002.1z"/></g><path fill="#e3ba2d" d="M28.317 102.048c-.196-.222-.349-.483-.449-.767a2.4 2.4 0 0 1-.134-.888c.011-.302.08-.599.201-.874a2.3 2.3 0 0 1 .505-.727l8.49-8.222a1.73 1.73 0 0 1 .58-.371 1.67 1.67 0 0 1 .671-.11c.228.01.453.067.66.167s.394.243.549.419a1.84 1.84 0 0 1 .354.607 1.9 1.9 0 0 1 .105.703c-.009.239-.064.474-.16.691a1.82 1.82 0 0 1-.4.575L34.675 97.7c-.024.025-.053.046-.084.059s-.065.021-.1.021-.068-.007-.1-.021-.06-.034-.084-.059-.043-.054-.056-.087-.02-.068-.02-.103.007-.071.02-.103.032-.062.056-.087l4.613-4.447a1.28 1.28 0 0 0 .306-.405c.075-.155.119-.325.129-.498a1.34 1.34 0 0 0-.069-.511 1.3 1.3 0 0 0-.256-.442 1.23 1.23 0 0 0-.401-.3 1.18 1.18 0 0 0-.966-.014c-.154.066-.293.165-.409.289l-8.49 8.222c-.326.32-.517.763-.531 1.231s.15.923.456 1.264a1.65 1.65 0 0 0 1.175.556 1.64 1.64 0 0 0 1.206-.477l10.645-10.292a2.33 2.33 0 0 0 .511-.734 2.42 2.42 0 0 0 .203-.883 2.43 2.43 0 0 0-.135-.898 2.35 2.35 0 0 0-.452-.775 2.23 2.23 0 0 0-.701-.535 2.14 2.14 0 0 0-.843-.213c-.292-.012-.583.036-.857.141a2.21 2.21 0 0 0-.74.474l-4.844 4.684c-.049.05-.114.078-.182.078s-.133-.028-.181-.078c-.025-.025-.045-.055-.058-.088s-.021-.069-.021-.105.007-.072.021-.105.033-.063.058-.088l4.839-4.699c.265-.257.577-.457.916-.588a2.64 2.64 0 0 1 1.06-.176 2.65 2.65 0 0 1 1.044.263c.328.159.623.383.869.661a2.91 2.91 0 0 1 .561.959 3.01 3.01 0 0 1 .168 1.111 3 3 0 0 1-.251 1.094 2.88 2.88 0 0 1-.631.91l-10.65 10.277c-.429.414-.996.631-1.578.606s-1.131-.291-1.525-.739z"/><path fill="#d4898e" d="M151.204 226.168a2.12 2.12 0 0 1-1.64-.394c-.474-.354-.796-.891-.893-1.493l-1.924-11.958c-.049-.241-.051-.49-.006-.733s.137-.472.269-.676a1.78 1.78 0 0 1 .501-.511c.198-.134.42-.224.652-.265s.47-.032.699.026a1.69 1.69 0 0 1 .634.311 1.82 1.82 0 0 1 .466.546 1.89 1.89 0 0 1 .223.694l1.043 6.483c.01.071-.006.143-.045.202s-.1.097-.168.109-.135-.004-.191-.045-.093-.102-.106-.172l-1.042-6.488c-.054-.336-.233-.636-.498-.834s-.594-.277-.915-.221-.607.244-.796.522-.264.622-.211.958l1.915 11.963c.015.247.079.487.189.706a1.74 1.74 0 0 0 .446.566 1.66 1.66 0 0 0 .628.325c.229.062.467.072.7.031a1.65 1.65 0 0 0 .651-.271 1.73 1.73 0 0 0 .489-.525c.127-.209.209-.443.244-.688s.019-.494-.045-.732l-2.359-14.962c-.048-.302-.152-.591-.307-.85a2.3 2.3 0 0 0-.595-.662c-.238-.177-.507-.304-.791-.373s-.58-.078-.868-.027-.563.16-.811.322-.462.374-.632.623a2.4 2.4 0 0 0-.356.829 2.46 2.46 0 0 0-.026.909l1.085 6.809c.004.067-.015.134-.055.187s-.098.088-.161.099-.129-.003-.183-.039a.27.27 0 0 1-.11-.158l-1.109-6.804c-.069-.725.126-1.449.547-2.028s1.036-.969 1.721-1.091 1.389.034 1.968.435a2.87 2.87 0 0 1 1.155 1.725l2.406 14.967a2.39 2.39 0 0 1-.372 1.713 2.19 2.19 0 0 1-1.416.94z"/><path d="M138.46 81.104l.524.889 8.414 14.354c.353.66.775 1.277 1.259 1.838a4.56 4.56 0 0 0 .472.44 2.92 2.92 0 0 0 1.391.627 2.42 2.42 0 0 0 1.003-.127 2.5 2.5 0 0 0 .875-.529c.255-.236.461-.524.607-.846a2.73 2.73 0 0 0 .241-1.028 5.27 5.27 0 0 0-.891-2.5c-1.925-3.409-6.603-11.261-8.886-15.046l-1.245-2.08v-.04l-.132.133c-.684.697-3.684 3.775-3.632 3.913z" class="D"/><path d="M142.097 77.21l-2.024 2.095-.745.791c-.315.296-.598.627-.844.988l.523.889 8.41 14.374a10.39 10.39 0 0 0 1.264 1.838c.147.158.305.305.471.44.405.331.884.547 1.392.627a2.42 2.42 0 0 0 1.002-.129 2.5 2.5 0 0 0 .874-.529c.255-.236.461-.524.607-.846s.229-.671.243-1.027c0-.288-.043-.575-.127-.85-.184-.565-.432-1.104-.741-1.606-.006-.016-.014-.031-.023-.044-1.925-3.404-6.604-11.261-8.886-15.046l-1.245-2.08v-.04l-.151.153z" class="D"/><use href="#S" class="C"/><g style="mix-blend-mode:multiply" class="G"><use href="#S"/></g><g style="mix-blend-mode:screen" class="G"><path d="M146.134 87.956a.59.59 0 0 0 .353.048c.12-.021.23-.078.319-.165a.65.65 0 0 0 .177-.323c.028-.124.019-.253-.023-.372a.63.63 0 0 0-.217-.295.6.6 0 0 0-.338-.12.59.59 0 0 0-.343.097c-.103.067-.185.165-.235.281a.68.68 0 0 0-.013.491c.058.159.172.288.32.359zm1.622 6.134a.59.59 0 0 0 .353.046.6.6 0 0 0 .318-.167.65.65 0 0 0 .176-.324c.026-.124.018-.253-.026-.372s-.119-.221-.218-.294a.6.6 0 0 0-.338-.118.59.59 0 0 0-.343.098.64.64 0 0 0-.233.281.66.66 0 0 0-.053.245c-.002.085.011.169.04.248a.66.66 0 0 0 .128.212.63.63 0 0 0 .196.145zm1.703 2.913a.59.59 0 0 0 .353.048.61.61 0 0 0 .319-.165.65.65 0 0 0 .177-.323c.028-.124.019-.253-.023-.372a.64.64 0 0 0-.217-.296.59.59 0 0 0-.681-.022c-.103.067-.185.165-.235.281a.68.68 0 0 0-.054.244.69.69 0 0 0 .039.247.66.66 0 0 0 .127.213.61.61 0 0 0 .195.146zm-3.419-6.233c.078.037.165.049.249.034a.43.43 0 0 0 .226-.117.46.46 0 0 0 .125-.228.47.47 0 0 0-.016-.263c-.031-.084-.084-.157-.154-.209s-.152-.082-.238-.085a.42.42 0 0 0-.243.068.44.44 0 0 0-.166.198.47.47 0 0 0-.039.173.45.45 0 0 0 .028.175.49.49 0 0 0 .089.151.44.44 0 0 0 .139.103zm3.603 3.791a.46.46 0 0 0 .065.164.47.47 0 0 0 .121.125.43.43 0 0 0 .158.067c.056.011.114.011.17-.001a.42.42 0 0 0 .156-.069c.048-.034.088-.077.12-.127a.46.46 0 0 0 .064-.165c.011-.059.011-.119-.001-.178-.023-.119-.09-.223-.186-.289a.42.42 0 0 0-.328-.066c-.113.024-.212.095-.276.196a.47.47 0 0 0-.063.343zm-1.943-3.212a.46.46 0 0 0 .121.231c.061.063.139.105.224.122s.171.006.25-.029a.44.44 0 0 0 .193-.17.47.47 0 0 0 .07-.253c-.001-.09-.027-.178-.076-.252a.44.44 0 0 0-.196-.165c-.079-.033-.167-.041-.251-.023-.056.012-.11.035-.157.069a.45.45 0 0 0-.119.127.48.48 0 0 0-.063.165c-.011.059-.009.119.004.178z"/></g><g style="mix-blend-mode:screen" class="K D"><path d="M142.097 77.215l-2.024 2.095-.745.791 8.301 14.191c.356.659.78 1.276 1.264 1.838a4.05 4.05 0 0 0 .472.435 2.89 2.89 0 0 0 1.386.632c.475.042.952-.058 1.375-.287s.776-.581 1.017-1.012a7.47 7.47 0 0 0-.741-1.606c-.006-.016-.014-.031-.024-.044-1.924-3.404-6.603-11.261-8.885-15.046l-1.245-2.08v-.039l-.151.133z"/></g><g style="mix-blend-mode:screen" class="K D"><path d="M142.097 77.215l-2.024 2.095 7.41 12.664a10.33 10.33 0 0 0 1.259 1.833c.147.158.305.305.472.44a2.84 2.84 0 0 0 1.372.623 2.3 2.3 0 0 0 .955-.1c.309-.1.595-.264.842-.483-.006-.016-.014-.031-.023-.044-1.925-3.405-6.603-11.261-8.886-15.046l-1.245-2.08v-.04l-.132.138z"/></g><use href="#T" class="D"/><use href="#T" class="D"/><path d="M124.334 77.728c-1.159.293-2.367.305-3.531.037s-2.256-.81-3.192-1.585-1.69-1.763-2.207-2.888a8.56 8.56 0 0 1-.779-3.609c.004-1.249.28-2.481.806-3.602a8.18 8.18 0 0 1 2.23-2.87c.941-.767 2.037-1.3 3.203-1.559a7.52 7.52 0 0 1 3.532.067l1.443-2.471h-.033c-.067-.042-.125-.098-.172-.164a.65.65 0 0 1-.098-.221c-.018-.08-.022-.162-.01-.243s.039-.159.079-.229a.62.62 0 0 1 .157-.18c.063-.049.135-.084.211-.103a.57.57 0 0 1 .232-.011.58.58 0 0 1 .219.083l1.231.786 1.334.855 2.26 1.448c.067.042.125.099.172.165s.079.142.098.222a.67.67 0 0 1 .009.244.64.64 0 0 1-.081.229c-.084.14-.217.24-.37.279a.58.58 0 0 1-.451-.072h-.033l-1.613 2.767c.721 1.102 1.176 2.371 1.325 3.697a8.61 8.61 0 0 1-.469 3.919 8.26 8.26 0 0 1-2.155 3.24c-.958.881-2.107 1.505-3.347 1.818v-.049z" class="D"/><path d="M121.981 67.154c.085.598-.165 1.082-.156 1.67.029 1.858 1.156 2.54 2.453 3.459a3.18 3.18 0 0 1 1.131 1.293c.257.532.368 1.127.322 1.721-.003.364.02.727.07 1.087-.551.315-1.139.552-1.749.707a6.79 6.79 0 0 1-5.03-.636c-1.543-.855-2.731-2.278-3.333-3.996a7.74 7.74 0 0 1 .07-5.307c.648-1.699 1.873-3.087 3.439-3.897 1.939.43 2.797 1.789 2.783 3.899z" class="F"/><g opacity=".36" style="mix-blend-mode:multiply" class="F"><path d="M123.386 74.118a.49.49 0 0 1 .227.084c.069.044.128.103.174.173a.61.61 0 0 1 .109.237v.173a.69.69 0 0 1-.094.321l-.1.133c-.08.081-.179.139-.287.168h-.038a.41.41 0 0 1-.245 0 .57.57 0 0 1-.227-.084.59.59 0 0 1-.174-.173.5.5 0 0 1-.113-.232v-.178a.69.69 0 0 1 .089-.321l.104-.129c.079-.083.179-.141.288-.168h.033c.083-.025.171-.026.254-.005zm-3.782-.741a.69.69 0 0 1-.074.498c-.087.149-.227.256-.389.297s-.333.013-.475-.077-.245-.237-.284-.407c-.019-.084-.023-.171-.01-.257a.68.68 0 0 1 .084-.241.64.64 0 0 1 .166-.189.61.61 0 0 1 .222-.108.6.6 0 0 1 .245-.011.61.61 0 0 1 .231.088.62.62 0 0 1 .18.174.68.68 0 0 1 .104.233zm-2.033-5.815c.039.17.013.349-.074.498a.63.63 0 0 1-.388.297.61.61 0 0 1-.476-.077.66.66 0 0 1-.284-.407c-.019-.084-.023-.171-.01-.257a.68.68 0 0 1 .084-.241.64.64 0 0 1 .166-.189.61.61 0 0 1 .223-.108.6.6 0 0 1 .245-.011.61.61 0 0 1 .23.088.64.64 0 0 1 .181.174.68.68 0 0 1 .103.233zm3.999 4.273c.04.17.013.349-.073.498a.63.63 0 0 1-.389.297c-.162.041-.333.013-.475-.077s-.245-.237-.284-.407a.67.67 0 0 1-.01-.257c.012-.086.041-.168.084-.241s.099-.138.166-.189a.61.61 0 0 1 .222-.108.6.6 0 0 1 .475.077.64.64 0 0 1 .181.174.66.66 0 0 1 .103.233zm-3.527-1.087a.69.69 0 0 1-.076.497.63.63 0 0 1-.389.296c-.162.041-.333.012-.475-.079s-.243-.238-.282-.408-.012-.349.075-.497.228-.255.39-.296a.6.6 0 0 1 .474.079.66.66 0 0 1 .283.408zm3.546 4.454c.039.17.012.349-.075.497a.63.63 0 0 1-.389.296c-.162.041-.333.012-.475-.079s-.243-.238-.282-.408-.012-.349.075-.497a.63.63 0 0 1 .389-.296c.162-.041.333-.012.475.079s.244.238.282.408zm-3.146-9.323c.02.084.023.171.011.257a.66.66 0 0 1-.25.43c-.067.051-.143.088-.223.108a.6.6 0 0 1-.245.011.61.61 0 0 1-.23-.088.64.64 0 0 1-.181-.174.68.68 0 0 1-.103-.233c-.039-.17-.013-.349.074-.498a.63.63 0 0 1 .388-.297.61.61 0 0 1 .476.077.65.65 0 0 1 .283.407zm2.085 1.909a.69.69 0 0 1-.092.479.64.64 0 0 1-.381.282.61.61 0 0 1-.462-.068c-.14-.084-.244-.22-.291-.381-.029-.166.004-.337.092-.479a.63.63 0 0 1 .381-.282.61.61 0 0 1 .462.068c.14.084.244.22.291.381z"/></g><g style="mix-blend-mode:screen" class="K D"><path d="M124.335 77.728c-1.632.416-3.348.272-4.896-.41-1.5-1.11-2.582-2.735-3.058-4.592a8.6 8.6 0 0 1 .449-5.58c.766-1.748 2.092-3.16 3.748-3.992s3.537-1.03 5.318-.561l1.443-2.471h-.033c-.116-.072-.204-.182-.252-.313s-.052-.276-.012-.41a.62.62 0 0 1 .235-.328.57.57 0 0 1 .378-.105c.095.006.187.037.269.089l1.118.712c-.019.017-.036.035-.052.054l2.259 1.448c.067.043.125.099.172.165s.079.142.098.222a.67.67 0 0 1 .009.244.64.64 0 0 1-.081.229.61.61 0 0 1-.37.279.58.58 0 0 1-.451-.072h-.033l-1.613 2.767c.721 1.102 1.176 2.371 1.325 3.697s-.011 2.672-.469 3.919a8.25 8.25 0 0 1-2.155 3.24c-.958.881-2.107 1.505-3.346 1.818v-.049z"/></g><g style="mix-blend-mode:screen" class="K D"><path d="M124.334 77.727h-.033c-1.034.252-2.119.144-3.09-.307s-1.775-1.221-2.291-2.193c-.739-1.405-1.071-3.006-.955-4.606s.676-3.13 1.61-4.401 2.201-2.231 3.647-2.759a7.53 7.53 0 0 1 4.494-.216l1.439-2.471h-.024a.63.63 0 0 1-.274-.388.66.66 0 0 1 .066-.477.69.69 0 0 1 .067-.094l2.259 1.453a.61.61 0 0 1 .193.2c.049.081.079.174.089.269a.66.66 0 0 1-.036.282c-.033.09-.085.171-.152.236-.101.093-.227.148-.361.159s-.267-.024-.379-.1l-1.613 2.767c.721 1.102 1.175 2.371 1.325 3.697a8.61 8.61 0 0 1-.469 3.919 8.26 8.26 0 0 1-2.155 3.24c-.959.881-2.107 1.505-3.347 1.818l-.01-.03z"/></g><path d="M7.173 215.376c.382 1.081.977 2.066 1.745 2.891a7.92 7.92 0 0 0 1.321 1.136c1.387.949 3.024 1.416 4.678 1.334s3.242-.709 4.537-1.791 2.231-2.565 2.675-4.237a8.62 8.62 0 0 0-.202-5.075c-.44-1.248-1.164-2.366-2.108-3.256l1.151-2.633h.033a.58.58 0 0 0 .227.059c.079.004.157-.009.231-.038a.58.58 0 0 0 .199-.128.62.62 0 0 0 .136-.2c.066-.151.072-.323.017-.478s-.166-.282-.31-.352l-1.306-.627-1.415-.682-2.405-1.157a.57.57 0 0 0-.437.009c-.139.06-.252.174-.315.317s-.072.307-.025.457a.62.62 0 0 0 .278.354h.038l-1.292 2.965c-1.275-.013-2.535.3-3.669.912s-2.109 1.502-2.842 2.597-1.199 2.358-1.361 3.684-.013 2.672.433 3.924l-.009.015z" class="D"/><path d="M16.861 211.509c-.524.262-.764.751-1.236 1.072-1.486.988-2.655.41-4.103-.202-.518-.245-1.091-.335-1.655-.261s-1.098.309-1.543.681a6.85 6.85 0 0 1-.896.548c.055.654.193 1.297.41 1.912.582 1.736 1.761 3.184 3.305 4.06a6.79 6.79 0 0 0 5.052.682c1.706-.438 3.196-1.525 4.18-3.05a7.69 7.69 0 0 0 1.141-5.2c-1.434-1.443-2.99-1.433-4.655-.242z" class="F"/><g opacity=".36" style="mix-blend-mode:multiply" class="F"><path d="M13.39 214.482a.64.64 0 0 0-.353.343.69.69 0 0 0-.018.504.65.65 0 0 0 .328.37.6.6 0 0 0 .481.018.64.64 0 0 0 .353-.343.69.69 0 0 0 .018-.504.65.65 0 0 0-.328-.37c-.152-.072-.325-.079-.481-.018zm6.461-.61a.62.62 0 0 0-.209.135c-.06.059-.109.129-.144.208s-.054.164-.057.25.01.173.039.254a.66.66 0 0 0 .129.219c.056.063.124.115.199.151a.6.6 0 0 0 .239.059.61.61 0 0 0 .242-.041.64.64 0 0 0 .353-.343.69.69 0 0 0 .018-.504.65.65 0 0 0-.328-.37.6.6 0 0 0-.481-.018zm-2.674-.743a.64.64 0 0 0-.353.343c-.07.159-.076.34-.018.504a.65.65 0 0 0 .328.37c.152.072.325.079.481.018a.64.64 0 0 0 .353-.343.69.69 0 0 0 .018-.504.65.65 0 0 0-.328-.37.6.6 0 0 0-.481-.018z"/></g><g style="mix-blend-mode:screen" class="K D"><path d="M7.173 215.376c.382 1.081.977 2.066 1.745 2.891a7.92 7.92 0 0 0 1.321 1.136c1.78.702 3.743.702 5.523 0 1.955-.759 3.543-2.3 4.415-4.284a8.61 8.61 0 0 0 .236-6.3c-.446-1.252-1.176-2.373-2.127-3.266l1.151-2.633h.038a.58.58 0 0 0 .227.059.57.57 0 0 0 .231-.037.6.6 0 0 0 .199-.129.61.61 0 0 0 .136-.2c.044-.104.061-.218.048-.331s-.053-.22-.119-.311a.6.6 0 0 0-.222-.188l-1.193-.573c.004.026.004.053 0 .079l-2.405-1.156c-.142-.055-.297-.052-.437.008s-.252.174-.315.318-.072.306-.025.457a.62.62 0 0 0 .278.353h.038l-1.292 2.965a7.58 7.58 0 0 0-3.669.912c-1.134.611-2.109 1.503-2.842 2.597a8.47 8.47 0 0 0-1.361 3.684c-.162 1.326-.013 2.673.433 3.925l-.009.024z"/></g><g style="mix-blend-mode:screen" class="K D"><path d="M7.174 215.377v.035a5.09 5.09 0 0 0 1.972 2.514 4.73 4.73 0 0 0 3.018.767c.703-.069 1.395-.235 2.056-.494.969-.377 1.857-.95 2.615-1.687s1.369-1.622 1.799-2.606a8.57 8.57 0 0 0 .71-3.13 8.6 8.6 0 0 0-.488-3.176c-.439-1.249-1.163-2.367-2.108-3.256l1.151-2.634h.028c.145.068.309.074.458.017s.27-.174.339-.323c.017-.035.029-.071.038-.109l-2.405-1.156a.56.56 0 0 0-.273-.057.58.58 0 0 0-.268.079c-.082.048-.152.116-.204.198a.64.64 0 0 0-.095.274c-.019.139.006.28.072.403a.62.62 0 0 0 .291.274l-1.292 2.964a7.57 7.57 0 0 0-3.669.913c-1.134.611-2.109 1.502-2.842 2.596s-1.199 2.359-1.361 3.685-.013 2.672.433 3.924l.024-.015z"/></g><path d="M50.744 58.072c-.141-.247.434-.88 1.283-1.413s1.656-.756 1.792-.494-.434.88-1.283 1.408-1.651.731-1.792.499z" class="C"/><path d="M58.337 64.098l7.952 13.974a1.17 1.17 0 0 1 .117.849 1.12 1.12 0 0 1-.49.688l-1.236.771a1.04 1.04 0 0 1-1.151-.03 1.16 1.16 0 0 1-.321-.361l-.264-.46-7.697-13.539c.142.247.943 0 1.792-.494l.099-.064a5.02 5.02 0 0 0 .708-.539c.349-.336.542-.632.49-.796z" class="L"/><g opacity=".21" style="mix-blend-mode:screen" class="L"><path d="M57.847 64.873l7.442 13.094a1.17 1.17 0 0 1 .117.849c-.07.288-.246.535-.49.688l-1.236.771c-.049.029-.099.056-.151.079a1.16 1.16 0 0 1-.321-.361l-.264-.459-7.697-13.549c.142.247.943 0 1.792-.494l.099-.064c.251-.162.488-.348.708-.553z"/></g><g opacity=".21" style="mix-blend-mode:screen" class="L"><path d="M57.139 65.415l6.896 12.16a1.17 1.17 0 0 1 .117.849 1.12 1.12 0 0 1-.49.688l-.717.45-7.697-13.573c.142.247.943 0 1.792-.494l.099-.079z"/></g><use href="#U" class="C"/><g opacity=".39" style="mix-blend-mode:screen" class="C"><use href="#U"/></g><path d="M53.833 56.175l4.49 7.906c.142.247-.434.88-1.283 1.408s-1.608.746-1.778.529l-.359-.632-4.132-7.264c.179.212.943 0 1.769-.524a5.61 5.61 0 0 0 .641-.46c.448-.41.717-.771.651-.964z" class="C"/><g opacity=".37" style="mix-blend-mode:screen" class="C"><path d="M53.178 57.103l4.051 7.135c.142.247-.429.88-1.278 1.408-.222.136-.452.258-.689.366l-.359-.633-4.132-7.264c.179.213.943 0 1.769-.524a5.64 5.64 0 0 0 .637-.489z"/></g><g opacity=".37" style="mix-blend-mode:screen" class="C"><path d="M52.527 57.569l3.632 6.384c.142.247-.429.875-1.269 1.403l-4.146-7.283c.141.232.939.02 1.783-.504z"/></g><path d="M51.796 59.733l-.627.39c-.214.135-.369.353-.43.606a1.03 1.03 0 0 0 .105.747l3.839 6.76c.081.14.212.241.364.281a.57.57 0 0 0 .447-.069l.316-.198-4.146-7.288.627-.39-.495-.84z" class="C"/><use href="#V" class="C"/><g style="mix-blend-mode:screen" class="I G"><use href="#V"/></g><use href="#W" class="C"/><use href="#X" class="C"/><use href="#W" x="1.043" y="-1.409" class="C"/><use href="#W" x="1.553" y="-2.104" class="C"/><use href="#W" x="2.065" y="-2.787" class="C"/><use href="#W" x="2.577" y="-3.485" class="C"/><use href="#X" x="2.576" y="-3.485" class="C"/><use href="#W" x="3.615" y="-4.895" class="C"/><use href="#W" x="4.124" y="-5.59" class="C"/><use href="#W" x="4.638" y="-6.28" class="C"/><use href="#W" x="5.153" y="-6.975" class="C"/><use href="#X" x="5.147" y="-6.975" class="C"/><use href="#W" x="6.187" y="-8.373" class="C"/><use href="#W" x="6.698" y="-9.075" class="C"/><use href="#W" x="7.212" y="-9.774" class="C"/><use href="#W" x="7.724" y="-10.461" class="C"/><path d="M20.942 21.509l-.277.375 1.504 1.218.277-.375-1.504-1.217z" class="C"/><use href="#W" x="8.759" y="-11.866" class="C"/><use href="#W" x="9.274" y="-12.569" class="C"/><use href="#W" x="9.785" y="-13.26" class="C"/><use href="#W" x="10.299" y="-13.95" class="C"/><use href="#X" x="10.293" y="-13.958" class="C"/><use href="#W" x="11.337" y="-15.36" class="C"/><use href="#W" x="11.848" y="-16.047" class="C"/><use href="#W" x="12.357" y="-16.75" class="C"/><use href="#W" x="12.873" y="-17.44" class="C"/><use href="#X" x="12.868" y="-17.44" class="C"/><use href="#W" x="13.905" y="-18.846" class="C"/><use href="#W" x="14.423" y="-19.536" class="C"/><use href="#W" x="14.934" y="-20.243" class="C"/><use href="#W" x="15.445" y="-20.93" class="C"/><path d="M28.662 11.048l-.277.375 1.504 1.217.277-.375-1.504-1.218z" class="C"/><use href="#X" x="17.97" y="-24.351" class="C"/><use href="#W" x="16.481" y="-22.335" class="C"/><use href="#W" x="16.996" y="-23.03" class="C"/><use href="#W" x="17.504" y="-23.725" class="C"/><use href="#W" x="18.019" y="-24.42" class="C"/><use href="#Y" class="C"/><g style="mix-blend-mode:screen" class="I G"><use href="#Y"/></g><path d="M141.753 177.045l-.436-.129-.517 1.917.436.129.517-1.917z" class="C"/><use href="#Z" class="C"/><use href="#a" class="C"/><path d="M144.191 177.748l-.435-.129-.344 1.275.436.128.343-1.274zm.787-.427l-.435-.128-.341 1.272.434.128.342-1.272z" class="C"/><use href="#b" class="C"/><use href="#c" class="C"/><use href="#c" x="0.802" y="0.241" class="C"/><use href="#c" x="1.613" y="0.474" class="C"/><use href="#d" class="C"/><path d="M149.858 179.438l-.436-.128-.516 1.916.436.129.516-1.917zm.817.229l-.435-.128-.344 1.274.436.129.343-1.275z" class="C"/><use href="#e" class="C"/><use href="#a" x="8.924" y="2.63" class="C"/><use href="#Z" x="10.503" y="3.116" class="C"/><path d="M153.895 180.635l-.436-.129-.516 1.917.435.129.517-1.917z" class="C"/><use href="#e" x="3.221" y="0.964" class="C"/><use href="#e" x="4.042" y="1.193" class="C"/><use href="#f" class="C"/><use href="#d" x="8.108" y="2.393" class="C"/><use href="#b" x="12.149" y="3.598" class="C"/><use href="#d" x="9.749" y="2.867" class="C"/><use href="#f" x="3.22" y="0.972" class="C"/><use href="#d" x="11.336" y="3.361" class="C"/></g><path d="M78.656 145.215a9.49 9.49 0 0 1-1.858 1.028c-1.899.751-3.94 1.02-5.957.785-2.052-.192-4.16-.8-5.66-2.273-1.99-1.946-2.622-5.069-4.627-7.011-2.089-2.026-5.48-2.57-6.806-5.213-1.363-2.728.198-6.463-1.509-8.968-.528-.776-1.306-1.315-1.957-1.977-2.358-2.367-2.924-6.048-2.986-9.457s.245-6.789-.722-9.976l-.052-.173c2.731 1.912 6.084 2.535 9.348 2.925 1.462.173 3.037.361 4.132 1.393.943.909 1.354 2.303 2.193 3.336 2.061 2.529 6.287 2.361 7.985 5.178.764 1.27.825 2.895 1.575 4.18 1.16 1.977 3.669 2.678 5.009 4.536 1.123 1.562 1.231 3.647 1.802 5.505s1.674 3.631 2.118 5.583c.514 2.283.156 4.976 0 7.308-.076 1.423-.939 2.5-2.028 3.291z" class="M"/><g class="N"><path d="M79.033 146.517a18.76 18.76 0 0 0-1.806-3.716c-2.311-3.686-5.66-6.423-8.211-9.882-2.481-3.335-4.033-7.372-6.886-10.411-1.415-1.522-3.113-2.723-4.716-4.057-1.446-1.246-2.716-2.7-3.773-4.319-2.415-3.547-3.91-7.639-6.315-11.176.873 1.037 1.698 2.119 2.476 3.231 1.547 2.209 2.915 4.561 4.594 6.661 3.203 4.002 7.461 6.987 10.494 11.132 2.023 2.767 3.443 5.979 5.481 8.731 1.915 2.594 4.334 4.724 6.372 7.214s3.731 5.51 3.745 8.791"/><path d="M55.932 105.461c.454 5.238 1.786 10.352 3.934 15.106a18.01 18.01 0 0 1-1.887-2.792 18.74 18.74 0 0 1-1.038-3.503c-.684-2.926-.745-5.821-1.009-8.811z"/><path d="M48.31 114.549c4.119 1.301 8.052 3.177 11.692 5.579-1.523-1.127-2.721-2.471-4.41-3.35a20.83 20.83 0 0 0-3.542-1.483c-1.222-.351-2.547-.37-3.74-.746zm13.489-4.04c.891 5.47 2.33 10.727 3.867 16.024-2.354-3.455-3.776-7.51-4.117-11.74a14.51 14.51 0 0 1 .25-4.284z"/><path d="M64.638 124.931a13.87 13.87 0 0 0-5.858-2.886c-2.129-.469-4.292-.753-6.466-.85 4.882.841 9.496 2.915 13.442 6.043l-1.887-3.503m5.047-7.435c-.858 5.598-1.047 11.478.84 16.8-.311-.88-1.09-1.483-1.415-2.421a19.63 19.63 0 0 1-.821-3.415c-.349-2.35-.288-4.748.179-7.075a19.38 19.38 0 0 1 1.217-3.889z"/><path d="M68.648 131.367c-.873-1.152-2.358-1.547-3.773-1.769a27.56 27.56 0 0 0-9.678.197 49.2 49.2 0 0 1 7.358.653c2.877.548 5.735 1.65 7.914 3.7l-2.66-3.952m5.569-7.162c.123 6.063.293 12.353 2.802 17.788a13 13 0 0 0-1.83-2.762c-.707-.879-1.019-2.154-1.311-3.241-.657-2.471-.852-5.051-.575-7.6a19.63 19.63 0 0 1 .915-4.185z"/><path d="M75.213 139.51c-1.851-1.124-3.945-1.737-6.084-1.779-2.133-.04-4.259.25-6.311.86a40.65 40.65 0 0 1 5.66-.034c1.576.061 3.138.328 4.65.795 1.517.475 2.885 1.367 3.962 2.584a30.69 30.69 0 0 0-3.075-4.111"/></g><path d="M79.717 144.324a9.28 9.28 0 0 1-2.08.316 12.39 12.39 0 0 1-5.867-1.349c-1.887-.904-3.66-2.218-4.608-4.135-1.255-2.53-.854-5.697-2.118-8.227-1.321-2.644-4.344-4.349-4.745-7.303-.41-3.064 2.25-6.029 1.448-8.993-.25-.914-.811-1.695-1.217-2.545-1.448-3.054-.816-6.725.217-9.961s2.405-6.31 2.514-9.65v-.183c1.957 2.772 4.924 4.551 7.872 6.033 1.325.677 2.75 1.403 3.448 2.762.613 1.196.542 2.648 1.005 3.913 1.127 3.113 5.188 4.447 5.862 7.684.316 1.482-.146 3.019.151 4.491.472 2.278 2.594 3.815 3.264 6.034.557 1.862 0 3.869-.066 5.82s.42 4.008.212 5.999c-.245 2.332-1.448 4.748-2.32 6.917-.533 1.305-1.693 2.016-2.971 2.377z" class="O"/><g class="P"><path d="M79.656 145.679c-.018-1.393-.19-2.78-.514-4.131-.995-4.284-3.264-8.039-4.58-12.185-1.269-4.012-1.415-8.36-3.155-12.224-.854-1.932-2.066-3.657-3.122-5.465-.962-1.682-1.691-3.499-2.165-5.396-1.141-4.185-1.24-8.568-2.358-12.743.49 1.285.924 2.589 1.302 3.913.75 2.624 1.283 5.322 2.198 7.906 1.736 4.897 4.792 9.205 6.325 14.176 1.019 3.316 1.335 6.839 2.358 10.149.972 3.113 2.57 5.974 3.693 9.033s1.75 6.502.717 9.595"/><path d="M71.024 98.892a46.84 46.84 0 0 0-1.132 15.629 18.53 18.53 0 0 1-.901-3.296 18.64 18.64 0 0 1 .141-3.662c.33-3.014 1.184-5.776 1.891-8.671z"/><path d="M60.936 104.779c3.463 2.674 6.568 5.823 9.23 9.363-1.075-1.596-1.773-3.281-3.08-4.704a21.66 21.66 0 0 0-2.872-2.624c-1.028-.775-2.273-1.26-3.278-2.035zm14.003.931c-.91 5.465-1.236 10.92-1.486 16.455a24.77 24.77 0 0 1-.123-12.512 14.16 14.16 0 0 1 1.608-3.943z"/><path d="M72.996 120.294a14.5 14.5 0 0 0-4.589-4.773 39.06 39.06 0 0 0-5.825-3.068c4.331 2.505 8.014 6.079 10.73 10.411l-.67-3.953m7.146-5.265c-2.599 4.97-4.655 10.445-4.58 16.113 0-.939-.547-1.799-.542-2.777.001-1.176.108-2.349.321-3.504a20.2 20.2 0 0 1 2.429-6.601c.678-1.163 1.474-2.246 2.372-3.231z"/><path d="M74.717 127.764c-.472-1.394-1.731-2.288-2.967-2.965a27.89 27.89 0 0 0-9.183-3.247 51.09 51.09 0 0 1 6.697 3.202c2.538 1.527 4.877 3.573 6.273 6.266l-1.245-4.635m7.547-4.804c-1.825 5.756-3.674 11.73-3.061 17.763a13.54 13.54 0 0 0-.835-3.246c-.387-1.077-.274-2.387-.198-3.518a20.57 20.57 0 0 1 1.887-7.363 19.3 19.3 0 0 1 2.207-3.636z"/><path d="M78.297 137.745c-1.385-1.708-3.162-3.019-5.165-3.809a20.85 20.85 0 0 0-6.216-1.409c1.816.527 3.596 1.179 5.33 1.952 1.465.608 2.85 1.408 4.122 2.382 1.279.979 2.284 2.3 2.91 3.824a31.71 31.71 0 0 0-1.585-4.941"/></g><path d="M137.239 110.96c-4.981 1.364-8.169 6.661-9.221 11.943-.556 2.807-.839 6.048-3.042 7.748-1.627 1.26-3.849 1.26-5.66 2.214-2.83 1.482-4.07 4.901-6.004 7.515-3.481 4.704-10.555 7.273-15.998 5.06-1.575-.64-2.882-1.845-3.688-3.4-1.523-2.871-1.481-6.759-.24-9.828 1.707-4.224 5.617-3.715 8.886-5.712 4.245-2.604 5.018-9.61 9.65-11.364 2.283-.865 4.905-.149 7.178-1.033 2.769-1.077 4.344-4.24 6.999-5.589a7.99 7.99 0 0 1 5.825-.321c1.749.573 3.409 1.412 4.924 2.491l.392.276z" class="O"/><g class="P"><path d="M125.943 112.976c-1.594 1.389-2.623 3.34-3.915 5.035-1.67 2.187-3.791 3.95-6.202 5.159-2.66 1.329-5.754 2.041-7.73 4.328-.991 1.147-1.599 2.585-2.359 3.899-1.288 2.19-3.031 4.047-5.098 5.435-1.825 1.226-3.886 2.07-5.608 3.459-2.773 2.228-4.415 5.628-5.962 8.894a.99.99 0 0 0 .684.237c1.656-4.12 4.503-7.594 8.141-9.932 1.58-1.012 3.302-1.798 4.811-2.925 1.572-1.175 2.883-2.692 3.844-4.447.943-1.729 1.584-3.725 3.042-5 1.613-1.413 3.867-1.621 5.806-2.471 5.626-2.446 7.989-9.818 13.404-12.738 2.033-1.097 4.141-1.285 6.376-1.117-.528-1.013-3.773-.207-4.641 0a10.07 10.07 0 0 0-4.593 2.184z"/><path d="M99.115 128.961c-.745 1.216-1.033 3.123-1.273 4.522a23.06 23.06 0 0 0-.325 4.768c0 .44.292 1.734-.542 1.324-.415-.203-.443-.939-.472-1.344a15.8 15.8 0 0 1 .599-4.482c.442-1.691 1.121-3.304 2.014-4.788zm6.509-4.031c-1.079 2.925-1.651 6.029-1.688 9.166 0 .464-.052 1.596-.703.953-.382-.38-.269-1.369-.264-1.863.016-1.398.229-2.787.632-4.121a14.81 14.81 0 0 1 .872-2.213c.316-.638.906-1.27 1.151-1.922zm1.962 3.964c-.075-2.277.293-4.547 1.081-6.67a16.9 16.9 0 0 1 3.504-5.683c-2.189 3.376-3.457 7.314-3.67 11.389a2.79 2.79 0 0 0-.92.821c-.245.342-.414.737-.495 1.156m9.542-13.294c-1.131 2.526-1.898 5.214-2.278 7.975-1.67.385-.302-2.846-.047-3.543.287-.79.628-1.558 1.018-2.297.364-.717.991-1.394 1.307-2.135zm5.244-2.891a24.55 24.55 0 0 0-1.684 6.349c-.018.234-.074.463-.165.677-.353.702-1.132.87-1.415 1.68 1.264-2.91 1.396-6.053 3.264-8.706zm3.755-2.303c.345-.973.927-1.835 1.688-2.5-.666 1.15-1.192 2.384-1.566 3.671-.236.811-.471 2.209-1.301 2.589.062-.454.206-.891.424-1.289.302-.811.448-1.665.755-2.471z"/><path d="M131.833 112.923c-2.018.854-4.103 1.66-6.277 1.788-.197-.019-.396.007-.582.078a1.34 1.34 0 0 0-.494.332c.854-.988 1.349-1.037 2.561-1.156a22.59 22.59 0 0 0 4.792-1.042zm-9.715 7.726c2.134-.442 4.186-1.239 6.079-2.361-.866 1.177-2.054 2.05-3.405 2.505a13.35 13.35 0 0 1-4.16.701c-.816.03-1.764.089-2.236.791.368-.539 1.01-1.309 1.642-1.482s1.405-.01 2.08-.154zm-6.245 4.635a18.67 18.67 0 0 0 6.924-.38 13.28 13.28 0 0 1-4.245 1.215c-1.468.162-2.951-.094-4.292-.741-.146-.087-.306-.148-.472-.178-.471-.059-.976.455-1.414.257.471-.331 1.141-.805 1.74-.701s1.137.449 1.759.528zm4.32 2.774c-3.451 2.259-7.613 3.001-11.583 2.065a2.95 2.95 0 0 0-.991-.128.92.92 0 0 0-.465.165.97.97 0 0 0-.322.388c.141-.405.216-1.136.707-1.289.368-.114 1.047.252 1.415.331 1.241.265 2.508.373 3.773.321 2.578-.118 5.112-.747 7.466-1.853zm-5.112 5.851c-2.788 1.408-5.75 2.673-8.844 2.668-1.134.024-2.252-.282-3.231-.884-.143.161-.323.282-.523.351.179-.374.482-.666.852-.822a1.57 1.57 0 0 1 1.157-.028c1.08.275 2.19.4 3.302.37 2.511-.025 4.991-.588 7.287-1.655zm-11.66 7.021c1.701-.06 3.394-.282 5.056-.662-3.249 1.373-7.027 1.872-10.225.355-.67-.316-1.495-.766-2.221-.36.396-.376.868-.989 1.448-.919s1.118.647 1.623.849c1.384.525 2.849.775 4.32.737z"/></g><path d="M123.4 97.534c-4.353 2.886-5.848 8.944-5.32 14.33.283 2.846.944 6.028-.651 8.35-1.183 1.72-3.301 2.422-4.749 3.909-2.25 2.312-2.453 5.964-3.537 9.067-1.953 5.593-7.948 10.287-13.772 9.912-1.687-.104-3.284-.835-4.504-2.061-2.278-2.253-3.368-5.969-3.075-9.284.401-4.571 4.273-5.332 6.806-8.272 3.302-3.839 1.995-10.757 5.896-13.914 1.919-1.551 4.626-1.705 6.537-3.271 2.325-1.907 2.91-5.435 5.051-7.55 1.508-1.386 3.445-2.154 5.452-2.159a17.95 17.95 0 0 1 5.415.825l.452.119z" class="M"/><g class="N"><path d="M113.222 103.053c-1.113 1.828-1.528 4.017-2.268 6.043-.955 2.617-2.464 4.972-4.415 6.888-2.146 2.115-4.886 3.78-6.103 6.587-.613 1.408-.778 2.964-1.132 4.471a17.44 17.44 0 0 1-3.302 6.804c-1.387 1.754-3.103 3.212-4.344 5.08-1.995 3.009-2.57 6.769-3.094 10.376a.98.98 0 0 0 .722 0c.381-4.453 2.085-8.67 4.872-12.056 1.217-1.483 2.622-2.762 3.735-4.319 1.151-1.623 1.955-3.487 2.358-5.465.396-1.947.425-4.051 1.443-5.731 1.128-1.858 3.212-2.772 4.821-4.195 4.65-4.116 4.763-11.894 9.074-16.4 1.623-1.69 3.57-2.54 5.754-3.093-.797-.8-3.636.988-4.429 1.482-1.489.84-2.757 2.052-3.693 3.528z"/><path d="M92.31 126.849c-.358 1.394-.08 3.296.099 4.709a22.6 22.6 0 0 0 1.071 4.645c.141.42.783 1.561-.132 1.438-.472-.06-.693-.756-.83-1.137a15.8 15.8 0 0 1-.731-4.447c-.073-1.753.104-3.509.523-5.208zm5.023-5.935a27.57 27.57 0 0 0 1.052 9.269c.127.445.41 1.537-.392 1.132-.472-.242-.651-1.216-.792-1.69a14.82 14.82 0 0 1-.406-6.512c.113-.712.495-1.498.538-2.199zm3.018 3.156c-.731-2.146-1.039-4.425-.904-6.699s.711-4.495 1.692-6.528a23.48 23.48 0 0 0-.194 12.016 2.91 2.91 0 0 0-.645 1.073c-.136.404-.185.834-.142 1.26m5.24-15.699c-.343 2.766-.294 5.57.146 8.321-1.481.899-1.113-2.614-1.075-3.36.048-.845.15-1.685.306-2.515.151-.8.533-1.645.623-2.446zm4.155-4.429c-.212 2.194-.132 4.409.236 6.581.051.228.066.464.042.697-.132.781-.825 1.191-.853 2.051.358-3.173-.425-6.182.575-9.329zm2.919-3.393c.047-1.038.352-2.045.887-2.92-.307 1.309-.451 2.654-.429 4.002 0 .845.184 2.253-.472 2.881a3.96 3.96 0 0 1 .033-1.369l-.019-2.594z"/><path d="M118.821 101.136c-1.679 1.483-3.424 2.886-5.462 3.701-.358.144-.778.312-.905.732.523-1.211.985-1.423 2.103-1.917 1.499-.684 2.928-1.527 4.264-2.516zm-7.013 10.446c1.902-1.102 3.624-2.515 5.103-4.185-.487 1.393-1.365 2.599-2.519 3.459-1.157.852-2.428 1.518-3.773 1.976-.769.287-1.655.648-1.887 1.483.189-.628.581-1.567 1.132-1.937s1.34-.45 1.944-.796zm-4.613 6.408a19.18 19.18 0 0 0 6.49-2.57c-1.093 1.032-2.335 1.875-3.679 2.501a7.8 7.8 0 0 1-4.302.662c-.154-.036-.314-.044-.471-.025-.472.099-.797.741-1.293.702.364-.494.854-1.132 1.453-1.226s1.189.06 1.802-.044zm4.929 1.261c-2.635 3.249-6.385 5.281-10.438 5.658a2.94 2.94 0 0 0-.976.188.95.95 0 0 0-.396.307 1.02 1.02 0 0 0-.194.474c0-.43-.122-1.152.297-1.453.321-.227 1.071-.099 1.444-.138 1.265-.144 2.51-.446 3.707-.9 2.414-.933 4.638-2.337 6.556-4.136zm-3.184 7.188c-2.245 2.229-4.717 4.373-7.65 5.357a5.86 5.86 0 0 1-3.335.182 1.31 1.31 0 0 1-.396.495c.062-.413.265-.787.572-1.054a1.59 1.59 0 0 1 1.093-.394c1.112-.085 2.209-.321 3.264-.702 2.381-.82 4.577-2.141 6.452-3.884zm-9.075 10.431c1.604-.597 3.153-1.346 4.627-2.238-2.698 2.342-6.155 4.022-9.636 3.597-.731-.094-1.651-.262-2.226.356.273-.495.538-1.231 1.118-1.33s1.25.257 1.792.292a11.34 11.34 0 0 0 4.325-.677z"/></g><path d="M67.695 172.255c-.212-.628-.361-1.277-.443-1.937-.201-1.916.034-3.854.684-5.657.623-1.844 1.608-3.642 3.179-4.695 2.08-1.393 4.839-1.274 6.914-2.678 2.165-1.482 3.386-4.447 5.9-5.084 2.594-.638 5.367 1.635 7.853.632.735-.386 1.435-.839 2.094-1.354 2.509-1.625 5.721-1.329 8.593-.617s5.631 1.759 8.518 1.581h.155c-2.212 2.08-3.49 5.02-4.551 7.931-.472 1.304-.986 2.712-2.099 3.483-.976.677-2.235.731-3.301 1.27-2.585 1.324-3.391 5.247-6.132 6.171-1.236.42-2.608.109-3.853.495-1.924.622-3.07 2.767-4.929 3.582-1.556.682-3.33.316-5.014.42s-3.419.721-5.155.687c-2.028-.04-4.202-.989-6.131-1.626-1.16-.385-1.868-1.423-2.283-2.604z" class="M"/><path fill="#508c7d" d="M67.695 172.255c-.212-.628-.361-1.277-.443-1.937-.201-1.916.034-3.854.684-5.657.623-1.844 1.608-3.642 3.179-4.695 2.08-1.393 4.839-1.274 6.914-2.678 2.165-1.482 3.386-4.447 5.9-5.084 2.594-.638 5.367 1.635 7.853.632.735-.386 1.435-.839 2.094-1.354 2.509-1.625 5.721-1.329 8.593-.617s5.631 1.759 8.518 1.581c-1.453 1.556-3.542 2.332-5.575 2.866-2.217.583-4.537.988-6.504 2.204s-3.537 3.276-5.66 4.298c-2 .964-4.349.929-6.301 1.977-1.174.642-2.137 1.635-3.264 2.362-1.608 1.042-3.495 1.482-5.292 2.115-2.589.899-5.042 2.189-7.622 3.113-1.002.374-2.03.666-3.075.874z"/><g class="N"><path d="M66.525 172.308c1.198-.131 2.377-.408 3.514-.825 3.608-1.29 6.655-3.746 10.117-5.327 3.349-1.532 7.075-2.045 10.272-3.982 1.594-.989 2.976-2.253 4.448-3.405a17.57 17.57 0 0 1 4.466-2.47c3.514-1.428 7.277-1.878 10.782-3.291-1.066.563-2.156 1.082-3.264 1.546-2.198.924-4.476 1.651-6.603 2.723-4.07 2.046-7.546 5.287-11.687 7.145-2.773 1.235-5.778 1.818-8.546 3.073-2.603 1.176-4.933 2.921-7.476 4.23s-5.457 2.189-8.202 1.482"/><path d="M106.11 160.312a37.08 37.08 0 0 0-13.555.212c.886-.459 1.811-.828 2.764-1.102 1.047-.169 2.107-.226 3.165-.168 2.622.035 5.06.628 7.626 1.058z"/><path d="M100.21 151.261a45.12 45.12 0 0 1-7.301 9.492c1.283-1.147 2.679-1.947 3.773-3.296a20.18 20.18 0 0 0 2.023-2.93c.608-1.038.943-2.248 1.505-3.266zm.349 13.309c-4.758-.333-9.531-.349-14.291-.049a19.58 19.58 0 0 1 10.758-1.147c1.229.206 2.421.609 3.533 1.196zm-12.702-.639a13.29 13.29 0 0 0 3.731-4.733c.873-1.853 1.597-3.778 2.165-5.757-1.8 4.301-4.575 8.077-8.084 10.999l3.363-.958m5.075 6.327c-4.495-2.045-9.376-3.543-14.253-3.004.806-.094 1.5-.667 2.358-.746 1.012-.097 2.03-.097 3.042 0 2.049.208 4.045.804 5.891 1.759a16.15 16.15 0 0 1 2.962 1.991zm-12.555-3.641c1.16-.543 1.825-1.823 2.32-3.048a28.43 28.43 0 0 0 2.014-8.944 51.18 51.18 0 0 1-2.207 6.592c-1.108 2.525-2.674 4.906-4.882 6.423l3.891-1.556m4.773 6.762c-5.108-1.255-10.404-2.51-15.564-1.438a10.76 10.76 0 0 0 2.726-1.057c.891-.45 2.033-.455 3.009-.494a16.53 16.53 0 0 1 6.495 1.181c1.174.467 2.293 1.074 3.335 1.808z"/><path d="M73.237 170.379c1.358-1.449 2.341-3.237 2.858-5.193a21.53 21.53 0 0 0 .703-5.994 43.5 43.5 0 0 1-1.203 5.198 18.21 18.21 0 0 1-1.717 4.091 8.19 8.19 0 0 1-3.056 3.064 25.87 25.87 0 0 0 4.136-1.903"/></g><path fill="url(#D)" d="M64.336 173.175a8.81 8.81 0 0 0 3.82.093c.405.75 1.057 1.317 1.835 1.596 1.924.653 4.099 1.587 6.131 1.626 1.736.035 3.419-.578 5.155-.687s3.457.262 5.013-.42c1.858-.815 3.004-2.964 4.929-3.582 1.245-.4 2.618-.089 3.853-.494 2.745-.924 3.551-4.848 6.132-6.172 1.052-.538 2.311-.593 3.301-1.27 1.113-.77 1.623-2.179 2.099-3.483 1.061-2.91 2.358-5.85 4.551-7.931h-.188c-2.887.178-5.698-.879-8.518-1.581s-6.084-.988-8.593.618a13.89 13.89 0 0 1-2.094 1.354c-2.486.988-5.259-1.27-7.853-.633-2.514.623-3.735 3.622-5.9 5.085-2.075 1.403-4.834 1.284-6.914 2.678-1.571 1.052-2.556 2.851-3.179 4.694-.65 1.803-.885 3.741-.684 5.657.08.619.215 1.228.406 1.819l-1.132.173-2.17.86z" style="mix-blend-mode:soft-light"/><path d="M68.199 173.437c.002-.665.071-1.328.207-1.977a12.41 12.41 0 0 1 2.448-5.089c1.179-1.517 2.679-2.866 4.499-3.311 2.405-.583 4.966.494 7.367-.094 2.514-.617 4.622-3.009 7.188-2.717 2.646.311 4.532 3.429 7.197 3.35.816-.102 1.621-.282 2.405-.539 2.881-.647 5.82.761 8.296 2.441s4.716 3.627 7.518 4.482l.151.044c-2.755 1.181-4.901 3.503-6.83 5.875-.863 1.063-1.797 2.209-3.089 2.545-1.137.296-2.358-.094-3.504.044-2.858.336-4.877 3.751-7.754 3.662-1.302-.04-2.495-.815-3.773-.875-2.009-.094-3.773 1.527-5.787 1.641-1.689.099-3.24-.87-4.863-1.364s-3.452-.519-5.07-1.161c-1.886-.751-3.65-2.397-5.254-3.686-1.005-.801-1.339-2.021-1.354-3.271z" class="O"/><path fill="#6cba98" d="M68.199 173.437c.002-.665.071-1.328.207-1.977a12.41 12.41 0 0 1 2.448-5.089c1.179-1.517 2.679-2.866 4.499-3.311 2.405-.583 4.966.494 7.367-.094 2.514-.617 4.622-3.009 7.188-2.717 2.646.311 4.532 3.429 7.197 3.35.816-.102 1.621-.282 2.405-.539 2.881-.647 5.82.761 8.296 2.441s4.716 3.627 7.518 4.482c-1.887.948-4.085.948-6.169.736-2.278-.227-4.589-.667-6.834-.208s-4.377 1.848-6.707 2.066c-2.188.202-4.396-.647-6.575-.336-1.311.188-2.533.79-3.83 1.077-1.849.415-3.773.178-5.66.138-2.726-.064-5.452.287-8.178.252a20.11 20.11 0 0 1-3.174-.271z"/><g class="P"><path d="M67.105 173.072c1.171.296 2.371.45 3.575.46 3.816.049 7.466-1.196 11.234-1.483 3.646-.267 7.329.554 10.952-.148 1.811-.356 3.528-1.077 5.282-1.645 1.618-.5 3.294-.759 4.98-.771 3.773-.104 7.457.79 11.211.687-1.188.158-2.378.261-3.57.311-2.358.104-4.75 0-7.103.247-4.49.494-8.787 2.337-13.296 2.624-3.009.192-6.028-.312-9.037-.104-2.83.198-5.579 1.018-8.395 1.364s-5.844.143-8.197-1.483"/><path d="M108.214 175.668c-3.99-2.301-8.336-3.845-12.838-4.561.981-.122 1.972-.145 2.957-.069 1.041.208 2.058.528 3.037.953 2.457.949 4.566 2.367 6.844 3.677z"/><path d="M105.553 165.067c-3.013 2.581-6.344 4.725-9.904 6.374 1.575-.628 3.146-.894 4.631-1.769 1.001-.594 1.949-1.282 2.83-2.055.882-.766 1.571-1.799 2.443-2.55zm-3.933 12.663a109.59 109.59 0 0 0-13.447-5.065c3.669-.106 7.297.826 10.504 2.698a12 12 0 0 1 2.943 2.367zm-11.777-5.068a12.71 12.71 0 0 0 5.032-3.147 37.23 37.23 0 0 0 3.882-4.665c-3.073 3.418-6.895 5.999-11.135 7.521l3.471.281m2.773 7.745c-3.58-3.508-7.702-6.631-12.465-7.837.788.203 1.627-.099 2.448.124a16.1 16.1 0 0 1 2.863 1.082c1.861.917 3.55 2.177 4.985 3.721a17.09 17.09 0 0 1 2.169 2.91zm-10.668-7.829c1.269-.109 2.306-1.078 3.165-2.061 1.989-2.273 3.599-4.881 4.764-7.713a49.09 49.09 0 0 1-4.193 5.435c-1.849 1.977-4.089 3.681-6.66 4.358l4.165-.103m2.338 8.022c-4.41-2.965-8.999-6.019-14.187-6.814a10.83 10.83 0 0 0 2.905-.04c.99-.113 2.061.287 2.99.608a17.13 17.13 0 0 1 5.745 3.395c.95.845 1.804 1.802 2.547 2.851z"/><path d="M74.038 173.609c1.743-.888 3.241-2.226 4.353-3.888s1.977-3.478 2.58-5.401c-.848 1.547-1.794 3.032-2.83 4.447a17.59 17.59 0 0 1-2.924 3.256c-1.109.954-2.441 1.58-3.858 1.814 1.508.02 3.015-.094 4.504-.341"/></g><path fill="url(#E)" d="M64.747 173.122a8.97 8.97 0 0 0 3.57 1.433c.137.849.571 1.613 1.217 2.145 1.604 1.289 3.353 2.935 5.254 3.686 1.618.642 3.405.652 5.07 1.161s3.174 1.482 4.863 1.364c2.009-.114 3.773-1.735 5.787-1.641 1.302.059 2.495.835 3.773.875 2.877.089 4.896-3.326 7.754-3.662 1.165-.138 2.358.252 3.504-.044 1.293-.336 2.226-1.482 3.09-2.545 1.929-2.372 4.075-4.694 6.829-5.875l-.151-.044c-2.778-.855-5.089-2.837-7.518-4.482s-5.414-3.088-8.296-2.441c-.784.257-1.589.437-2.405.539-2.665.079-4.551-3.039-7.197-3.35-2.566-.292-4.674 2.1-7.188 2.717-2.401.598-4.962-.494-7.367.094-1.82.445-3.302 1.794-4.499 3.311-1.189 1.469-2.028 3.214-2.448 5.089-.128.611-.196 1.233-.203 1.858l-1.123-.237-2.316.049z" style="mix-blend-mode:soft-light"/><path d="M74.038 169.385c-.435.668-.94 1.283-1.505 1.833-1.654 1.57-3.638 2.708-5.792 3.321-2.169.667-4.561.934-6.669.064-2.787-1.151-4.632-4.081-7.424-5.218-2.915-1.191-6.603-.321-8.961-2.47-2.443-2.214-2.283-6.691-4.995-8.534-.835-.568-1.835-.79-2.759-1.191-3.302-1.432-5.315-4.941-6.683-8.399s-2.358-7.047-4.575-9.883c-.038-.054-.08-.104-.118-.153 3.528.8 7.197.025 10.683-.954 1.561-.439 3.245-.909 4.759-.316 1.33.524 2.273 1.784 3.528 2.471 3.08 1.719 7.334-.233 10.154 1.932 1.273.988 1.957 2.614 3.217 3.607 1.953 1.541 4.782 1.196 6.867 2.53 1.745 1.121 2.665 3.206 3.957 4.872s3.108 3.004 4.311 4.812c1.415 2.12 2.075 5.025 2.83 7.466.457 1.478-.014 2.945-.825 4.21z" class="M"/><g class="N"><path d="M74.925 170.561a19.49 19.49 0 0 0-3.301-3.039c-3.773-2.796-8.244-4.19-12.187-6.631-3.82-2.362-6.957-5.835-11.041-7.743-2.042-.953-4.245-1.482-6.362-2.164a21.38 21.38 0 0 1-5.509-2.836c-3.83-2.604-6.928-6.162-10.749-8.766 1.286.699 2.544 1.453 3.773 2.263 2.429 1.606 4.716 3.434 7.259 4.877 4.811 2.743 10.315 3.998 15.008 6.957 3.132 1.977 5.82 4.66 8.961 6.617 2.957 1.843 6.249 3.004 9.287 4.694s5.933 4.061 7.207 7.412"/><path d="M35.505 138.314c2.478 5.173 5.807 9.848 9.834 13.811-1-.648-2.137-1.226-3.004-2.066-.903-.958-1.709-2.011-2.405-3.142-1.816-2.718-3.009-5.653-4.424-8.603z"/><path d="M31.223 150.825a50.41 50.41 0 0 1 14.097.776c-1.986-.494-3.731-1.374-5.792-1.571-1.393-.131-2.795-.131-4.188 0-1.391.138-2.754.677-4.117.795zm12.243-9.82c3.014 5.222 6.504 9.991 10.112 14.759-3.736-2.541-6.75-6.09-8.725-10.273a15.62 15.62 0 0 1-1.387-4.486z"/><path d="M51.909 154.554c-2.291-.732-4.712-.901-7.075-.494a41.64 41.64 0 0 0-6.971 1.878c5.315-1.207 10.831-1.037 16.069.494l-3.302-2.782m2.326-9.722c1.273 6.083 3.344 12.18 7.31 16.8-.655-.766-1.688-1.072-2.358-1.887-.799-.972-1.509-2.019-2.122-3.128-1.26-2.258-2.122-4.735-2.542-7.313a22.24 22.24 0 0 1-.288-4.472z"/><path d="M58.484 159.444c-1.34-.805-3.009-.583-4.514-.222-3.481.837-6.803 2.284-9.824 4.279a55.91 55.91 0 0 1 7.754-2.416c3.155-.653 6.504-.727 9.518.449l-4.245-2.9m2.947-9.706c2.453 6.151 5.042 12.501 9.706 17.037a13.47 13.47 0 0 0-2.934-2.056c-1.056-.598-1.887-1.769-2.585-2.762-1.62-2.251-2.813-4.808-3.514-7.53a21.77 21.77 0 0 1-.675-4.689z"/><path d="M68.327 165.007a13.28 13.28 0 0 0-6.91.746c-2.198.86-4.263 2.052-6.131 3.538a46.32 46.32 0 0 1 5.764-2.416 19.71 19.71 0 0 1 5.061-1.147c1.735-.151 3.476.191 5.042.988-1.492-1.106-3.069-2.08-4.716-2.91"/></g><path d="M74.783 168.034a10.68 10.68 0 0 1-2.019 1.201c-2.061.896-4.294 1.268-6.518 1.087-2.259-.128-4.598-.716-6.306-2.278-2.254-2.06-3.061-5.47-5.325-7.525-2.358-2.145-6.131-2.614-7.66-5.465-1.594-2.965 0-7.106-1.971-9.799-.608-.825-1.481-1.393-2.221-2.09-2.655-2.51-3.419-6.532-3.608-10.277s.038-7.471-1.137-10.935c0-.059-.043-.124-.066-.188 3.066 1.977 6.773 2.555 10.376 2.861 1.608.133 3.349.277 4.584 1.369 1.085.963 1.57 2.47 2.528 3.582 2.358 2.703 6.985 2.352 8.961 5.381.887 1.369 1.009 3.153 1.887 4.531 1.344 2.135 4.122 2.807 5.66 4.793 1.288 1.67 1.481 3.953 2.17 5.979s1.967 3.923 2.518 6.053c.646 2.47.349 5.435.278 8.029-.052 1.567-.962 2.782-2.132 3.691z" class="O"/><g class="P"><path d="M75.241 169.445c-.556-1.416-1.265-2.76-2.113-4.007-2.665-3.953-6.428-6.843-9.367-10.53-2.83-3.567-4.683-7.94-7.924-11.172-1.618-1.615-3.518-2.87-5.297-4.274-1.628-1.315-3.07-2.865-4.283-4.605-2.778-3.8-4.561-8.237-7.329-12.032a50.06 50.06 0 0 1 2.83 3.459c1.773 2.372 3.358 4.902 5.278 7.145 3.655 4.269 8.438 7.412 11.914 11.824 2.321 2.965 3.995 6.424 6.329 9.389 2.193 2.772 4.924 5.025 7.245 7.678s4.292 5.93 4.424 9.512"/><path d="M48.433 125.227a51.04 51.04 0 0 0 4.849 16.464c-.731-.959-1.618-1.903-2.17-2.995a20.51 20.51 0 0 1-1.259-3.804c-.858-3.212-1.023-6.389-1.42-9.665z"/><path d="M40.382 135.507c4.573 1.271 8.961 3.182 13.046 5.682-1.712-1.176-3.08-2.604-4.962-3.513-1.268-.619-2.588-1.115-3.943-1.482-1.363-.351-2.816-.311-4.141-.687zm14.677-4.951c1.17 5.974 2.929 11.69 4.806 17.452-2.707-3.705-4.413-8.105-4.938-12.738a15.95 15.95 0 0 1 .132-4.714z"/><path d="M58.677 146.287c-1.928-1.507-4.165-2.522-6.532-2.965a41.1 41.1 0 0 0-7.136-.687c5.394.743 10.534 2.851 14.975 6.142l-2.207-3.775m5.3-8.358c-.75 6.181-.75 12.649 1.505 18.41-.373-.953-1.25-1.606-1.623-2.609a21.8 21.8 0 0 1-1.019-3.715c-.463-2.57-.481-5.206-.052-7.783a21.47 21.47 0 0 1 1.189-4.303z"/><path d="M63.332 153.204c-1.005-1.23-2.651-1.611-4.183-1.798-3.548-.43-7.14-.233-10.626.583a55.12 55.12 0 0 1 8.079.454c3.184.494 6.362 1.596 8.824 3.761l-3.056-4.215m5.844-8.125c.344 6.66.75 13.548 3.693 19.458a14.15 14.15 0 0 0-2.103-2.965c-.807-.938-1.193-2.327-1.552-3.513-.807-2.689-1.113-5.516-.901-8.326.12-1.58.409-3.142.863-4.654z"/><path d="M70.803 161.9c-2.072-1.166-4.393-1.759-6.745-1.724-2.345.038-4.671.437-6.905 1.185 2.06-.226 4.132-.312 6.202-.256 1.733.007 3.459.243 5.136.701 1.683.464 3.217 1.39 4.443 2.683a33.38 33.38 0 0 0-3.523-4.397"/></g><path d="M94.663 167.304c.291.719.657 1.401 1.09 2.036 1.28 1.813 2.953 3.281 4.881 4.284 1.929 1.067 4.141 1.794 6.297 1.389 2.83-.539 5.117-2.94 7.966-3.459 2.971-.549 6.296.988 8.923-.549 2.712-1.61 3.372-5.88 6.268-7.085.892-.371 1.887-.386 2.83-.578 3.387-.702 5.924-3.632 7.848-6.636s3.5-6.202 6.132-8.46l.141-.118c-3.48.059-6.815-1.404-9.933-3.019-1.415-.727-2.905-1.507-4.447-1.245-1.354.232-2.472 1.235-3.773 1.65-3.226 1.018-6.9-1.675-9.957-.188-1.377.667-2.325 2.08-3.697 2.772-2.123 1.072-4.717.183-6.952 1.033-1.854.711-3.099 2.505-4.623 3.819s-3.537 2.204-4.98 3.686c-1.712 1.725-2.868 4.339-4.028 6.503-.708 1.324-.524 2.807.014 4.165z" class="O"/><g class="P"><path d="M93.616 168.232a18.25 18.25 0 0 1 3.646-2.219c4.08-1.897 8.556-2.327 12.734-3.854 4.038-1.482 7.636-4.14 11.843-5.134 2.104-.494 4.269-.553 6.405-.79 1.969-.239 3.895-.77 5.721-1.576 4.099-1.705 7.669-4.447 11.754-6.157-1.346.405-2.671.87-3.976 1.393-2.59 1.038-5.099 2.308-7.749 3.168-5.047 1.64-10.48 1.739-15.456 3.607-3.302 1.245-6.349 3.251-9.674 4.481-3.127 1.157-6.452 1.601-9.631 2.594s-6.348 2.664-8.159 5.579"/><path d="M136.715 145.551c-3.276 4.401-7.268 8.163-11.791 11.112a18.33 18.33 0 0 0 3.212-1.354c1.021-.731 1.969-1.569 2.83-2.5 2.23-2.209 3.872-4.753 5.749-7.258z"/><path d="M138.522 158.243c-4.385-1.318-8.919-2.013-13.48-2.066 1.976-.084 3.773-.558 5.768-.336a21.72 21.72 0 0 1 3.957.836c1.293.4 2.486 1.18 3.755 1.566zm-9.806-11.721c-3.773 4.339-7.957 8.158-12.235 11.953 3.993-1.663 7.484-4.421 10.108-7.985a14.83 14.83 0 0 0 2.127-3.968z"/><path d="M118.279 157.664a14.39 14.39 0 0 1 6.796.949 40.92 40.92 0 0 1 6.23 3.138c-4.811-2.19-10.06-3.118-15.29-2.703l3.612-1.976m-.429-9.674c-2.302 5.504-5.362 10.87-9.956 14.458.759-.598 1.792-.682 2.58-1.32a19.63 19.63 0 0 0 2.598-2.544 21.16 21.16 0 0 0 3.722-6.424c.496-1.346.85-2.744 1.056-4.17z"/><path d="M111.176 160.985c1.415-.494 2.952.044 4.31.682 3.141 1.485 6.02 3.512 8.518 5.998-2.213-1.441-4.52-2.717-6.905-3.819-2.867-1.241-6.018-1.977-9.083-1.483l4.527-1.902m-1.014-9.754c-3.433 5.331-7.027 10.826-12.262 14.191a12.55 12.55 0 0 1 3.145-1.364c1.109-.356 2.09-1.304 2.948-2.1 1.939-1.807 3.527-3.988 4.679-6.423a21.2 21.2 0 0 0 1.49-4.304z"/><path d="M100.861 164.291c2.264.115 4.465.829 6.395 2.075 1.921 1.25 3.656 2.788 5.15 4.566a45.54 45.54 0 0 0-5.008-3.425c-1.437-.894-2.976-1.595-4.58-2.085a8.96 8.96 0 0 0-4.948-.084c1.612-.752 3.284-1.359 4.995-1.813"/></g><path d="M94.206 165.876c.505.573 1.068 1.087 1.679 1.532 1.786 1.256 3.831 2.054 5.966 2.327 2.16.321 4.48.227 6.376-.909 2.505-1.483 3.882-4.566 6.396-6.058 2.627-1.562 6.254-1.265 8.235-3.652 2.042-2.47 1.292-6.72 3.636-8.894.727-.667 1.651-1.023 2.476-1.541 2.967-1.848 4.42-5.5 5.273-9.003s1.316-7.071 3.057-10.115c.028-.059.061-.108.094-.168-3.264 1.28-6.867 1.072-10.329.648-1.547-.193-3.217-.401-4.584.385-1.198.697-1.934 2.031-3.038 2.886-2.716 2.09-7.037.84-9.433 3.315-1.089 1.117-1.528 2.782-2.598 3.914-1.661 1.754-4.406 1.838-6.217 3.414-1.523 1.324-2.122 3.459-3.136 5.223s-2.57 3.32-3.476 5.223c-1.061 2.223-1.316 5.099-1.717 7.54-.25 1.507.396 2.841 1.339 3.933z" class="M"/><g class="N"><path d="M93.517 167.118a18.83 18.83 0 0 1 2.726-3.375c3.235-3.221 7.32-5.198 10.763-8.103 3.335-2.807 5.867-6.582 9.513-8.993 1.825-1.211 3.849-2.021 5.787-2.994 1.778-.919 3.422-2.099 4.882-3.504 3.301-3.044 5.806-6.888 9.107-9.927-1.138.85-2.239 1.751-3.301 2.703-2.109 1.888-4.066 3.953-6.287 5.712-4.245 3.316-9.32 5.312-13.409 8.82-2.731 2.342-4.938 5.292-7.679 7.619-2.579 2.189-5.57 3.776-8.244 5.826s-5.127 4.744-5.9 8.118"/><path d="M126.867 130.616c-1.678 5.296-4.233 10.242-7.546 14.611a18.61 18.61 0 0 0 2.594-2.406 19.15 19.15 0 0 0 1.886-3.35c1.368-2.861 2.099-5.836 3.066-8.855z"/><path d="M132.626 141.933a48.83 48.83 0 0 0-13.357 2.787c1.83-.776 3.382-1.853 5.325-2.342a21.52 21.52 0 0 1 3.995-.603c1.344-.074 2.716.237 4.037.158zm-12.989-7.594c-2.184 5.435-4.886 10.48-7.702 15.554 3.227-2.959 5.635-6.773 6.971-11.043.468-1.454.715-2.977.731-4.511z"/><path d="M113.373 148.495c2.097-1.029 4.392-1.537 6.707-1.483 2.309.057 4.609.315 6.877.771-5.235-.375-10.479.592-15.277 2.816l2.773-3.132m-3.485-8.96c-.41 5.993-1.58 12.111-4.754 17.116.523-.83 1.471-1.27 2.009-2.144.64-1.051 1.187-2.16 1.632-3.316.901-2.343 1.39-4.837 1.443-7.362.038-1.44-.073-2.88-.33-4.294z"/><path d="M107.742 154.119c1.17-.988 2.797-.988 4.278-.87a29.44 29.44 0 0 1 9.947 2.664 52.46 52.46 0 0 0-7.726-1.176c-3.099-.168-6.301.247-9.027 1.808l3.655-3.385m-4.084-8.838c-1.528 6.226-3.155 12.664-7.013 17.669.74-.906 1.59-1.709 2.528-2.386.944-.727 1.552-1.977 2.104-3.014 1.25-2.384 2.051-4.998 2.358-7.699a21.16 21.16 0 0 0 .024-4.57z"/><path d="M99.078 160.864c2.175-.687 4.482-.78 6.702-.272a22.45 22.45 0 0 1 6.315 2.471 43.79 43.79 0 0 0-5.843-1.483c-1.641-.337-3.316-.457-4.986-.356a9.18 9.18 0 0 0-4.688 1.656c1.282-1.271 2.662-2.428 4.127-3.459"/></g><mask height="148" width="136" y="39" x="19" maskUnits="userSpaceOnUse" id="B"><path d="M95.706 40.664c-23.035-7.422-79.401 33.659-75.765 36.273 2.278 1.64 2.901 3.459 3.132 5.554-.382 6.013.854 11.977 4.717 16.676 3.231 3.953 7.678 4.802 11.494 7.698 5.136 3.903 2.5 8.014 1.971 13.341-.472 4.847.057 9.304 4.57 11.552 4.245 2.125 7.848 2.965 10.376 7.536 5.009 9.062-.472 20.214 6.872 28.792 1.684 1.976 3.594 3.459 5.495 5.198 2.004 1.828 8.018 7.105 9.857 9.052 3.886 4.077 7.49 4.64 12.574 2.866 7.636-2.668 7.598-15.1 14.715-18.91 5.768-3.088 12.437-.622 14.876-8.153 1.853-5.722 4.381-7.599 8.513-11.493 7.098-6.69 2.259-15.278 5.381-23.085 2.126-5.565 5.555-10.479 9.971-14.29 5.617-5.035 9.904-8.894 9.56-17.294-.307-7.046-.707-14.013-.556-21.094.183-9.65-47.184-26.816-57.753-30.22z" class="H"/></mask><g mask="url(#B)"><path fill="#252d6e" d="M90.829 163.88l3.929 29.38h14.07c-1.014-18.984-2.854-49.184-4.906-62.031l-10.145 18.588-2.948 14.063z"/><path fill="#252d6e" d="M78.057 131.669c-3.476 16.384-6.768 43.719-8.711 61.591h15.748l6.16-29.38 2.523-14.063 10.145-18.588-25.865.44z"/><path d="M91.286 165.047l-.467-.079 2.472-16.074 3.915-2.703.259.411-3.74 2.584-2.438 15.861z" class="B"/><path d="M83.226 98.075c-.939-1.23-2.287-2.042-3.773-2.276s-3.002.129-4.245 1.016l-25.082 15.91c-1.375.982-2.333 2.485-2.672 4.192s-.032 3.485.856 4.959c2.005 3.321 4.523 4.003 7.523 1.646 2.66-2.09 26.068-14.913 27.987-16.435 2.698-2.114 1.509-6.285-.594-9.012z" class="H"/><path d="M74.369 137.86l-17.871-23.114a5.38 5.38 0 0 0-1.733-1.329c-.658-.315-1.369-.487-2.093-.506a5.14 5.14 0 0 0-2.114.396 5.34 5.34 0 0 0-1.795 1.236c-2.188 2.283-1.627 6.71.684 8.855l20.488 18.524 4.433-4.062z" class="H"/><path d="M85.028 139.493l-5.301-3.088.571-1.221c.106-.219.138-.469.091-.71a1.11 1.11 0 0 0-.347-.617c-.178-.16-.402-.252-.637-.262a1.01 1.01 0 0 0-.655.206l-5.259 3.908-3.585 4.21c2.83 2.733 4.716 2.777 5.853 2.313l.382.148 4.443 1.522a.82.82 0 0 0 .63.045c.208-.07.382-.22.487-.421.156-.301.226-.79-.623-1.285l.849.495a.86.86 0 0 0 .666.043c.219-.077.401-.239.508-.454.203-.39 0-.929-.509-1.294l.656.296a.88.88 0 0 0 .358.096.86.86 0 0 0 .365-.062.91.91 0 0 0 .311-.207c.089-.091.159-.2.207-.321.076-.227.069-.476-.017-.699s-.248-.404-.454-.511l-.943-.544 1.123.331a.94.94 0 0 0 .391.073.95.95 0 0 0 .387-.093c.122-.058.231-.141.321-.245s.159-.225.203-.357a1.13 1.13 0 0 0-.012-.737 1.07 1.07 0 0 0-.46-.558z" class="Q"/><path d="M99.469 98.039c1.684-2.545 4.717-3.083 6.915-1.245l21.606 15.965c2.462 2.046 3.146 6.092 1.547 9.156-1.736 3.315-3.915 3.987-6.495 1.63-2.292-2.095-22.464-14.971-24.12-16.493-2.311-2.125-1.274-6.251.547-9.013z" class="H"/><path d="M107.021 137.858l15.479-23.065c.377-.55.87-1.002 1.441-1.319a4.03 4.03 0 0 1 3.725-.108c.586.284 1.102.707 1.508 1.234 1.886 2.288 1.415 6.72-.609 8.855L110.86 141.94l-3.839-4.082z" class="H"/><path d="M97.814 139.456l4.584-3.078-.495-1.221c-.088-.217-.114-.456-.076-.688a1.26 1.26 0 0 1 .293-.621c.142-.164.339-.263.549-.277a.79.79 0 0 1 .578.203l4.523 3.923 3.09 4.22c-2.448 2.727-4.094 2.762-5.061 2.297l-.326.149-3.839 1.512c-.085.044-.177.069-.272.074s-.189-.011-.278-.047a.68.68 0 0 1-.236-.158c-.068-.07-.121-.153-.157-.245-.137-.301-.198-.791.538-1.285l-.736.494c-.091.05-.192.078-.294.084a.69.69 0 0 1-.3-.052c-.096-.039-.182-.099-.254-.176s-.127-.169-.162-.271c-.07-.236-.065-.49.014-.723s.228-.434.425-.571l-.561.296a.72.72 0 0 1-.326.086c-.113.002-.226-.022-.329-.072a.76.76 0 0 1-.266-.216.81.81 0 0 1-.149-.316 1.1 1.1 0 0 1 .002-.672c.071-.218.208-.406.39-.534l.811-.544-.972.331c-.112.048-.234.069-.355.062a.8.8 0 0 1-.346-.101.84.84 0 0 1-.273-.245c-.073-.102-.123-.219-.148-.343-.067-.231-.063-.479.011-.708s.216-.427.404-.567z" class="Q"/><path d="M76.788 96.021s6.254-2.629 15.677-2.629 15.031 4.333 15.031 4.333l-3.575 33.486-25.865.44-4.273-24.083 3.004-11.548z" class="H"/><path d="M105.988 112.169h-.029a.25.25 0 0 1-.167-.096.27.27 0 0 1-.054-.191l.58-5.435c.012-.065.047-.123.097-.162s.114-.056.177-.049a.25.25 0 0 1 .161.09.27.27 0 0 1 .06.18l-.58 5.435c-.008.063-.037.12-.082.162s-.103.065-.163.066z" class="R"/><path fill="#835e34" d="M81.67 76.23s-5.914-9.462 1.207-10.554c4.245-.652 5.481-2.051 10.687-3.953 6.018-2.209 14.301 4.847 5.372 11.859l-13.951-3.177-3.316 5.826z"/><path fill="#63619b" d="M94.196 78.298c-.001.673.189 1.33.545 1.89s.862.996 1.455 1.254a3.11 3.11 0 0 0 1.875.195c.63-.131 1.208-.454 1.663-.929a3.45 3.45 0 0 0 .889-1.74 3.55 3.55 0 0 0-.183-1.965c-.246-.621-.662-1.153-1.195-1.526a3.14 3.14 0 0 0-1.803-.573c-.86 0-1.684.358-2.293.994s-.951 1.5-.952 2.401z"/><path d="M94.3 82.518l.16 11.676c.024 3.281-2.127 3.528-5.212 3.528-2.632 0-3.971-.988-4.297-3.731l.434-12.417 8.914.944z" class="Q"/><path fill="#ba6c59" d="M94.446 92.963l-7.32-5.504 7.221-2.174.099 7.679z"/><path d="M90.947 88.449h.632a7.29 7.29 0 0 0 2.967-.627c.939-.416 1.788-1.025 2.497-1.792s1.264-1.675 1.63-2.672a8.29 8.29 0 0 0 .504-3.127l-.255-8.163c-.067-2.151-.93-4.19-2.406-5.686s-3.449-2.333-5.503-2.333c-4.372 0-8.683 3.711-8.683 8.291l.377 7.876c.103 2.218 1.016 4.309 2.549 5.841s3.571 2.388 5.69 2.391z" class="Q"/><path d="M95.21 80.963h-1.042a.29.29 0 0 1-.183-.102c-.047-.056-.073-.128-.073-.202s.026-.147.073-.202a.29.29 0 0 1 .183-.102h.698l-.472-2.742c-.013-.079.004-.161.049-.227s.112-.111.187-.124a.28.28 0 0 1 .216.051c.063.046.105.117.119.196l.519 3.098a.33.33 0 0 1-.006.13.32.32 0 0 1-.055.117c-.026.033-.059.059-.095.078a.28.28 0 0 1-.117.031zm-4.603-7.028s1.75-.212 1.788.549c0 0 0 .519-1.514.672s-1.929.049-2.085-.43.986-.756 1.811-.791zm6.683-.045s-1.453-.109-1.552.613c0 0-.052.494 1.221.553s1.679-.124 1.788-.519-.75-.662-1.457-.647z" class="R"/><path d="M95.404 82.084h-4.91s0 1.799 2.83 1.799a1.91 1.91 0 0 0 1.381-.467 2.09 2.09 0 0 0 .699-1.332z" class="H"/><path d="M90.103 77.863a.28.28 0 0 1-.148-.043.3.3 0 0 1-.107-.115.31.31 0 0 1-.033-.113c-.004-.04 0-.08.011-.118a.3.3 0 0 1 .053-.104.29.29 0 0 1 .087-.075 2.13 2.13 0 0 1 1.166-.334c.411.004.812.129 1.159.359a.3.3 0 0 1 .113.197c.011.079-.007.159-.052.223a.3.3 0 0 1-.081.082c-.032.022-.068.035-.105.042a.27.27 0 0 1-.112-.004c-.037-.009-.072-.026-.102-.05a1.59 1.59 0 0 0-1.712 0c-.04.031-.087.049-.137.054zm6.159.001c-.052.001-.104-.014-.149-.041a.29.29 0 0 1-.106-.117.32.32 0 0 1-.023-.229c.021-.076.07-.141.136-.181 1.339-.756 2.056.03 2.085.064.027.028.049.061.063.097a.31.31 0 0 1 0 .231.29.29 0 0 1-.063.097.28.28 0 0 1-.406 0c-.024-.03-.472-.465-1.387.054a.3.3 0 0 1-.151.025z" class="R"/><path fill="#835e34" d="M83.731 78.331s4.985-3.32 3.202-7.995c0 0 8.075-4.081 11.791.173l.99-5.435-6.377-2.703-9.985 4.131-2.57 4.032.868 5.203 2.08 2.594z"/><path d="M78.425 78.298c-.001.673.189 1.33.544 1.89s.862.996 1.455 1.254a3.11 3.11 0 0 0 1.875.195 3.2 3.2 0 0 0 1.663-.929c.454-.475.764-1.081.889-1.74a3.55 3.55 0 0 0-.184-1.965 3.37 3.37 0 0 0-1.195-1.526 3.14 3.14 0 0 0-1.803-.573c-.86 0-1.684.358-2.293.994s-.951 1.5-.952 2.401z" class="Q"/><path d="M82.806 79.613c-.038 0-.075-.008-.11-.023s-.067-.037-.093-.065-.048-.061-.062-.098-.022-.076-.022-.115a2.29 2.29 0 0 0-.59-1.482 1.55 1.55 0 0 0-.633-.294c-.229-.048-.466-.042-.692.017a.27.27 0 0 1-.112-.002c-.037-.009-.072-.025-.102-.048s-.057-.052-.077-.086-.033-.071-.039-.11-.006-.08.002-.119a.31.31 0 0 1 .046-.109c.022-.033.05-.06.082-.082a.28.28 0 0 1 .106-.042 2.04 2.04 0 0 1 .944-.006 2.09 2.09 0 0 1 .853.421c.501.524.784 1.235.788 1.976 0 .04-.007.079-.022.115s-.036.07-.062.098-.058.05-.093.065-.072.023-.11.023v-.035z" class="R"/><path d="M86.971 97.934l2.599 2.515 2.886-3.454-2.886-.474-2.599 1.413z" class="B"/><path d="M89.051 99.937l-2.844 24.81 3.438 4.086 3.113-4.136-2.754-24.864-.953.104z" class="B"/><path fill="#e9e3ec" d="M84.995 92.822l4.575 3.701-3.056 3.928-4.499-5.949 2.981-1.68z"/><path fill="#e9e3ec" d="M94.446 92.963L89.57 96.52l3.052 3.929 4.641-5.95-2.816-1.537z"/></g><path fill="#d4898e" d="M150.553 158.772c.001.336-.092.665-.266.947s-.422.506-.715.644l-53.338 25.051c0 2.921-19.465 2.921-19.465 0v-.158l-53.008-24.893a1.71 1.71 0 0 1-.717-.644c-.175-.282-.27-.611-.273-.947 0-1.265 3.651.395 3.651.395l50.886 23.382c-.02.058-.031.12-.033.182 0 1.196 4.245 2.17 9.433 2.17s9.433-.989 9.433-2.17l51.296-23.564s3.118-1.403 3.118-.395z"/><path d="M147.454 159.167l-51.296 23.565c0 1.196-4.245 2.169-9.433 2.169s-9.433-.988-9.433-2.169c.001-.063.013-.124.033-.183L26.43 159.167l.858-.988.392-.44 1.608-1.833h1.67l2.146-3.221h2.401l3.457-5.93c22.049 3.904 38.882 13.786 47.202 33.412.049.116.129.214.23.284s.219.106.34.107h.443c.122.001.242-.035.344-.104a.64.64 0 0 0 .231-.287c8.32-19.626 25.158-29.508 47.202-33.412l2.608 4.447.849 1.453h2.382l.943 1.403 1.217 1.843h1.669l1.661 1.878.183.217.986 1.171z" class="D"/><g opacity=".64" style="mix-blend-mode:screen" class="D"><path d="M146.252 158.774l-49.995 22.981c0 1.191-4.245 2.164-9.433 2.164s-9.433-.988-9.433-2.164c.001-.065.013-.128.038-.188L27.68 158.724l1.608-1.828h1.67l2.146-3.227h2.401l3.457-5.929c22.049 3.909 38.882 13.786 47.202 33.417a.65.65 0 0 0 .231.282.61.61 0 0 0 .34.104h.443c.122.001.241-.036.344-.105a.65.65 0 0 0 .232-.286c8.32-19.631 25.157-29.508 47.202-33.417l2.608 4.447.849 1.453h2.382l.943 1.398 1.217 1.848h1.669l1.628 1.893z"/></g><g style="mix-blend-mode:multiply" class="S D"><path d="M138.828 152.681c-16.648 6.566-31.986 16.318-45.231 28.758 0 0 17.522-21.529 43.948-30.21l.849 1.452h.434z"/></g><g style="mix-blend-mode:multiply" class="S D"><path d="M143.073 155.915c-13.352 5.035-30.445 13.114-41.953 22.097 0 0 19.338-16.01 40.585-23.94l1.217 1.843h.151z"/></g><g style="mix-blend-mode:multiply" class="S D"><path d="M35.099 152.683c16.649 6.566 31.989 16.317 45.235 28.758 0 0-17.526-21.539-43.948-30.24l-.849 1.482h-.439z"/></g><g style="mix-blend-mode:multiply" class="S D"><path d="M30.859 155.915c13.352 5.035 30.445 13.114 41.953 22.097 0 0-19.337-16.01-40.561-23.94l-1.217 1.843h-.174z"/></g><g class="H"><path d="M89.947 32.646h-.675c-1.108 0-1.943-.618-2.514-1.848-1.629 1.647-4.058 2.471-7.287 2.471-1.773 0-3.094-.372-3.962-1.117-.943-.82-1.415-2.138-1.415-3.953.002-.75.1-1.496.292-2.218.236-.919.547-1.384.943-1.384s.651.351.689 1.043c-.024.7.186 1.387.594 1.942.648.698 1.918 1.046 3.811 1.043 1.686.059 3.366-.226 4.948-.84.818-.365 1.551-.909 2.151-1.596.5-.558.816-.84.943-.84.358 0 .538.237.538.707-.022.257-.078.51-.165.751-.074.255-.175.5-.302.731.1.103.221.182.354.23a.9.9 0 0 0 .414.047h.642v4.833zm-7.749 3.093c.094.089.09.188 0 .291l-1.368 1.423a.19.19 0 0 1-.065.054c-.025.013-.053.019-.081.019a.18.18 0 0 1-.081-.019.19.19 0 0 1-.065-.054l-1.391-1.384c-.118-.119-.109-.242.024-.39l1.283-1.329c.02-.027.045-.048.074-.063s.061-.023.093-.023.064.008.093.023.054.036.074.063l1.41 1.389z"/><path d="M95.805 32.645h-.783c-.466.007-.924-.123-1.323-.374s-.723-.615-.936-1.049c-.232.45-.58.822-1.005 1.073a2.5 2.5 0 0 1-1.396.349h-.995v-4.818h.641a1.6 1.6 0 0 0 .841-.132 1.68 1.68 0 0 0 .669-.55 8.31 8.31 0 0 0 .406-1.25c.127-.455.358-.682.698-.682s.533.227.627.682a7 7 0 0 0 .335 1.25c.158.24.376.43.629.55a1.47 1.47 0 0 0 .809.132h.783v4.818zm-.632-11.656c.085.079.08.163 0 .257l-1.184 1.25c-.015.021-.035.039-.058.051s-.048.018-.074.018-.051-.006-.074-.018-.043-.029-.058-.051l-1.151-1.161-1.113 1.161c-.015.021-.034.039-.057.051s-.047.018-.073.018-.05-.006-.073-.018-.042-.029-.057-.051l-1.222-1.25c-.094-.099-.085-.208.028-.326l1.113-1.156c.017-.026.04-.046.066-.061s.056-.022.085-.022.059.008.085.022.049.035.066.061L92.56 20.9l1.075-1.137c.017-.026.04-.046.066-.061s.055-.022.085-.022.059.008.085.022.049.035.066.061l1.236 1.225z"/><path d="M104.638 17.258l-.358 3.459c.001.086-.012.171-.038.252a.35.35 0 0 1-.203.129l-4.174 1.364c.57.684 1.056 1.439 1.448 2.248a6.87 6.87 0 0 1 .59 2.891c0 2.125-.712 3.607-2.137 4.447-.839.453-1.773.675-2.717.647h-1.844v-4.862h.943c.947.038 1.896-.03 2.83-.203.207-.059.316-.178.316-.361-.006-.124-.049-.243-.123-.341-.444-.645-.959-1.234-1.533-1.754l-1.792-1.69.571-3.419a.35.35 0 0 1 .064-.183.34.34 0 0 1 .148-.118l7.853-2.718c.042-.017.087-.029.132-.035.028 0 .038.084.023.247zM73.35 49.446h-.585a.91.91 0 0 1-.479-.129.97.97 0 0 1-.351-.365c0 3.894-2.044 5.84-6.131 5.84-1.679 0-3.003-.329-3.971-.988-1.154-.8-1.731-2.039-1.731-3.716a10.42 10.42 0 0 1 .472-2.876c.377-1.318.799-1.976 1.264-1.976a.5.5 0 0 1 .342.094.54.54 0 0 1 .205.301 3.03 3.03 0 0 1 .061.766 4.36 4.36 0 0 1-.123.855 4.64 4.64 0 0 0-.118.865c0 1.384 1.34 2.077 4.018 2.08a8.87 8.87 0 0 0 2.297-.291c1.056-.287 1.589-.731 1.589-1.339 0-.511-.679-1.334-2.037-2.471l1.58-3.227c.061-.118.118-.178.165-.178s.123.059.231.178c1.066 1.173 1.89 1.757 2.471 1.754h.854l-.024 4.822zm-6.377-8.143a.18.18 0 0 1 .053.065.19.19 0 0 1 0 .166c-.013.026-.031.048-.053.065l-1.354 1.438c-.018.023-.041.041-.066.054a.18.18 0 0 1-.082.019c-.028 0-.056-.007-.082-.019s-.048-.031-.067-.054l-1.377-1.408c-.108-.109-.099-.227.028-.361l1.278-1.359c.02-.027.045-.048.074-.063s.061-.023.093-.023.064.008.093.023.054.037.074.063l1.387 1.393z"/><path d="M79.193 49.444h-.769c-.466.007-.924-.123-1.323-.374s-.723-.615-.936-1.049c-.232.449-.581.821-1.005 1.073s-.908.373-1.395.35h-1v-4.818h.637c.287.033.577-.013.843-.132a1.69 1.69 0 0 0 .671-.55c.167-.404.302-.822.401-1.25.132-.455.363-.682.703-.682s.533.227.627.682c.071.428.183.846.335 1.25a1.55 1.55 0 0 0 .618.544c.249.12.524.168.797.138h.778l.019 4.818zm-.646 3.108c.094.079.094.168 0 .267l-1.207 1.245a.17.17 0 0 1-.059.049c-.023.011-.048.017-.073.017s-.05-.006-.073-.017a.17.17 0 0 1-.059-.049l-1.132-1.161-1.118 1.161a.17.17 0 0 1-.059.049c-.023.011-.048.017-.073.017s-.05-.006-.073-.017-.043-.028-.059-.049l-1.203-1.235c-.104-.099-.094-.212.028-.336l1.113-1.186c.018-.025.041-.044.068-.058s.056-.021.085-.021.059.007.085.021.05.034.068.058l1.137 1.146 1.071-1.151c.019-.026.043-.046.071-.061s.058-.022.089-.022.062.007.089.022.052.035.071.061l1.212 1.25z"/><path d="M89.551 43.833c.015 1.177-.167 2.348-.538 3.459-.5 1.446-1.229 2.171-2.188 2.174-.811 0-1.483-.459-2.014-1.379-.396.919-.943 1.379-1.641 1.379a1.87 1.87 0 0 1-1.226-.356c-.359-.26-.623-.64-.75-1.077-.415.954-1.014 1.433-1.806 1.433H78.6v-4.773h.769c.204.014.407-.035.583-.143s.318-.268.407-.46l.297-1.048c.174-.45.391-.677.656-.677s.528.203.632.603l.292 1.122c.101.202.257.367.449.475a1.04 1.04 0 0 0 .626.128.76.76 0 0 0 .488-.163c.141-.11.241-.267.286-.445l.236-1.112c.018-.17.096-.327.219-.44s.282-.172.446-.168c.311 0 .514.212.608.633l.264 1.166a1.1 1.1 0 0 0 .438.493 1.03 1.03 0 0 0 .628.14c.627 0 .943-.237.943-.712a2.38 2.38 0 0 0-.174-.87l-.316-.766 1.311-1.482c.141-.163.245-.153.311.035a7.97 7.97 0 0 1 .552 2.831zm9.06 4.723c0 2.635-.662 4.691-1.986 6.166a.82.82 0 0 1-.284.194.79.79 0 0 1-.334.058h-4.754c-.561 0-.84-.237-.84-.721-.003-.122.029-.242.092-.344a.58.58 0 0 1 .262-.229 25.25 25.25 0 0 0 3.302-2.08c1.703-1.215 2.556-2.085 2.556-2.599 0-.425-.761-1.38-2.283-2.866l1.622-3.503c.094-.198.217-.222.373-.074a6.86 6.86 0 0 1 1.726 2.377 9.98 9.98 0 0 1 .547 3.622zm12.282.888h-.868c-1.293 0-2.351-.881-3.174-2.644a7.87 7.87 0 0 1-1.599 2.238 3.39 3.39 0 0 1-2.269.756c-2.069 0-3.103-1.27-3.103-3.81.007-.589.081-1.174.221-1.744.203-.855.472-1.285.845-1.285.168-.008.333.046.466.154a.75.75 0 0 1 .26.434 8.71 8.71 0 0 0 .368 1.082c.183.214.413.379.67.48a1.64 1.64 0 0 0 .806.103 4.74 4.74 0 0 0 1.415-.222c.585-.183.872-.405.872-.657 0-.048-.01-.095-.028-.138l-1.684-4.215 2.25-2.382c.109-.109.189-.168.245-.168s.099.084.161.257l1.886 5.495c.315.962.808 1.444 1.481 1.448h.76l.019 4.818z"/><path d="M118.542 46.103a3.52 3.52 0 0 1-.853 2.382c-.269.331-.605.594-.984.772a2.69 2.69 0 0 1-1.205.256 3.01 3.01 0 0 1-1.567-.455 3.2 3.2 0 0 1-1.135-1.22c-.469 1.071-1.097 1.607-1.887 1.611h-.646v-4.818h.335c.849 0 1.292-.282 1.325-.84.025-.704.232-1.387.599-1.976.26-.415.62-.752 1.043-.975s.894-.327 1.367-.3c1.283 0 2.245.707 2.887 2.12.486 1.076.733 2.254.721 3.444zm-1.603-.86a3.59 3.59 0 0 0-.354-1.482c-.283-.633-.613-.944-.99-.944a.61.61 0 0 0-.282.062c-.089.043-.166.106-.228.185-.133.16-.205.366-.202.578a3.9 3.9 0 0 0 .334 1.571c.283.652.67.988 1.156.988.377.01.566-.311.566-.959z"/></g><defs><filter color-interpolation-filters="sRGB" filterUnits="userSpaceOnUse" height="223" width="175" y="0" x="0" id="C"><feFlood result="A" flood-opacity="0"/><feColorMatrix result="B" values="0 0 0 0 0 0 0 0 0 0 0 0 0 0 0 0 0 0 127 0" in="SourceAlpha"/><feOffset dy="4"/><feGaussianBlur stdDeviation="2"/><feComposite operator="out" in2="B"/><feColorMatrix values="0 0 0 0 0 0 0 0 0 0 0 0 0 0 0 0 0 0 0.25 0"/><feBlend in2="A"/><feBlend in="SourceGraphic"/></filter><linearGradient gradientUnits="userSpaceOnUse" y2="167.985" x2="70.183" y1="153.401" x1="112.718" id="D"><stop stop-color="#d36ffa"/><stop stop-color="#4e007c" offset="1"/></linearGradient><linearGradient gradientUnits="userSpaceOnUse" y2="182.438" x2="77.537" y1="155.324" x1="101.832" id="E"><stop stop-color="#e6ff81"/><stop stop-color="#0000e7" offset="1"/></linearGradient><path id="F" d="M19.648 2.493c-.109.012-.21.066-.284.151s-.114.196-.114.311.041.226.114.311.175.139.284.151c.109-.012.21-.066.284-.151s.114-.196.114-.311-.041-.226-.114-.311-.174-.139-.284-.151z"/><path id="G" d="M27.341 3.721c-.118 0-.23.049-.314.136s-.13.205-.13.328.047.241.13.328.196.136.314.136.23-.049.313-.136.13-.205.13-.328-.047-.241-.13-.328-.196-.136-.313-.136z"/><path id="H" d="M100.512 86.763a.44.44 0 0 0-.284.151.48.48 0 0 0 0 .622.44.44 0 0 0 .284.151.44.44 0 0 0 .284-.151.48.48 0 0 0 0-.622.44.44 0 0 0-.284-.151z"/><path id="I" d="M90.027 83.683c-.118 0-.23.049-.314.136s-.13.205-.13.328.047.241.13.329.196.136.314.136.23-.049.313-.136.13-.205.13-.329-.047-.241-.13-.328-.196-.136-.313-.136z"/><path id="J" d="M72.722 72.069c-.109.012-.21.066-.284.151s-.114.196-.114.311.041.226.114.311.174.139.284.151c.109-.012.21-.066.284-.151s.114-.196.114-.311-.041-.226-.114-.311-.174-.139-.284-.151z"/><path id="K" d="M147.7 5.059a.44.44 0 0 0-.284.151.48.48 0 0 0 0 .622.44.44 0 0 0 .284.151c.109-.012.21-.066.283-.151s.114-.196.114-.311-.04-.226-.114-.311-.174-.139-.283-.151z"/><path id="L" d="M145.45 13.46c-.118 0-.23.049-.314.136s-.129.205-.129.328.046.241.129.328.196.136.314.136a.43.43 0 0 0 .313-.136c.084-.087.13-.205.13-.328s-.046-.241-.13-.328a.43.43 0 0 0-.313-.136z"/><path id="M" d="M121.259 88.177c-.117 0-.23.049-.313.136s-.13.205-.13.328.047.241.13.328.196.136.313.136.231-.049.314-.136.13-.205.13-.328-.047-.241-.13-.328-.196-.136-.314-.136z"/><path id="N" d="M103.705 1.039c-.118 0-.231.049-.314.136s-.13.205-.13.328.047.241.13.328.196.136.314.136.23-.049.313-.136.13-.205.13-.328-.047-.241-.13-.328-.196-.136-.313-.136z"/><path id="O" d="M20.776 33.105c-.118 0-.23.049-.314.136s-.13.205-.13.328.047.241.13.328.196.136.314.136.23-.049.314-.136.13-.205.13-.328-.047-.241-.13-.328-.196-.136-.314-.136z"/><path id="P" d="M57.319 138.309a.44.44 0 0 0-.284.151c-.073.085-.114.196-.114.311s.041.226.114.311a.44.44 0 0 0 .284.151.44.44 0 0 0 .284-.151c.073-.085.114-.196.114-.311s-.041-.226-.114-.311a.44.44 0 0 0-.284-.151z"/><path id="Q" d="M128.66 177.342c-.118 0-.231.049-.314.136s-.13.205-.13.329.047.241.13.328.196.136.314.136.23-.049.313-.136.13-.205.13-.328-.047-.242-.13-.329-.196-.136-.313-.136z"/><path id="R" d="M152.869 111.303l-29.025 21.519 23.252 5.46 5.773-26.979zm-5.962 8.894l-2.485 11.632-10.028-2.367 12.513-9.265z"/><path id="S" d="M148.416 96.795l-.943-1.611-1.919-3.271-1.887-3.192.665-.86c.305-.436.555-.911.745-1.413a6.76 6.76 0 0 0 .472-2.372c.002-.018.009-.036.02-.049s.027-.024.044-.028.035-.003.052.004.03.019.039.034l.831 1.453 1.886 3.296 1.887 3.301.943 1.665.873 1.542c.247.424.397.903.438 1.398a1.98 1.98 0 0 1-.115.74 1.91 1.91 0 0 1-.378.636 1.83 1.83 0 0 1-.582.435c-.22.103-.457.159-.698.166a1.98 1.98 0 0 1-1.363-.524c-.401-.392-.742-.847-1.01-1.349z"/><path id="T" d="M138.92 82.036l4.676-2.909c.315-.197.419-.624.232-.955l-.518-.913c-.187-.331-.595-.44-.911-.243l-4.676 2.909c-.316.197-.42.624-.232.955l.517.913c.188.331.596.44.912.243z"/><path id="U" d="M53.819 56.147c.142.247-.434.88-1.283 1.408s-1.651.761-1.792.494.434-.88 1.283-1.413 1.656-.736 1.792-.489z"/><path id="V" d="M31.281 6.767L7.021 39.65l5.37 4.348 24.259-32.883-5.37-4.348z"/><path id="W" d="M12.692 32.689l-.277.375 1 .81.277-.375-1-.81z"/><path id="X" d="M13.219 31.978l-.277.375 1.504 1.218.277-.375-1.504-1.218z"/><path id="Y" d="M140.757 176.27l-1.844 6.843 38.176 11.295 1.845-6.843-38.177-11.295z"/><path id="Z" d="M142.57 177.274l-.436-.129-.343 1.275.435.129.344-1.275z"/><path id="a" d="M143.363 177.515l-.435-.129-.344 1.275.436.129.343-1.275z"/><path id="b" d="M145.799 178.238l-.436-.129-.516 1.916.435.129.517-1.916z"/><path id="c" d="M146.629 178.467l-.436-.129-.343 1.274.436.129.343-1.274z"/><path id="d" d="M149.024 179.194l-.436-.129-.343 1.274.435.129.344-1.274z"/><path id="e" d="M151.49 179.904l-.436-.129-.343 1.275.436.129.343-1.275z"/><path id="f" d="M156.336 181.338l-.436-.129-.344 1.274.436.129.344-1.274z"/></defs></svg>