<svg xmlns="http://www.w3.org/2000/svg" fill="none" viewBox="3.928566964285714 0 166.96428571428572 214.97199999999998" style="max-height: 500px" width="166.96428571428572" height="214.97199999999998">
<g filter="url(#filter0_d_168_474)">
<rect fill="#007DC4" rx="6" height="215" width="167" x="4"/>
</g>
<path fill="white" d="M38.6792 30.085V39.2407L38.4634 40.4692C37.9487 41.3657 37.3096 42.0353 36.5459 42.478C35.7767 42.9207 34.7031 43.1421 33.3252 43.1421C32.2848 43.1421 31.4575 43.0176 30.8433 42.7686C30.2124 42.514 29.6535 42.1377 29.1665 41.6396C28.6629 41.1305 28.2922 40.5578 28.0542 39.9214C27.8052 39.2905 27.6807 38.5877 27.6807 37.813V33.4717H30.9429V37.5474C30.9429 38.1284 31.1255 38.5988 31.4907 38.9585C31.8449 39.3182 32.4564 39.498 33.3252 39.498C34.266 39.498 34.8691 39.332 35.1348 39V30.085H38.6792ZM32.4702 25.9678C31.9832 25.9678 31.571 26.1366 31.2334 26.4741C30.8848 26.8172 30.7104 27.2323 30.7104 27.7192C30.7104 28.2062 30.8848 28.6185 31.2334 28.9561C31.571 29.2992 31.9832 29.4707 32.4702 29.4707C32.9517 29.4707 33.3667 29.2992 33.7153 28.9561C34.0529 28.6185 34.2217 28.2062 34.2217 27.7192C34.2217 27.2378 34.0529 26.8228 33.7153 26.4741C33.3667 26.1366 32.9517 25.9678 32.4702 25.9678ZM43.6348 28.3501V33.6045C43.6348 34.2686 43.679 34.703 43.7676 34.9077C43.8672 35.2619 44.2656 35.4417 44.9629 35.4473H45.4775V39H43.4604C42.8241 39 42.2513 38.8644 41.7422 38.5933C41.2386 38.3332 40.8319 37.9596 40.522 37.4727C40.45 37.362 40.3781 37.2209 40.3062 37.0493C40.2453 36.9054 40.1982 36.7477 40.165 36.5762C40.1263 36.4102 40.0959 36.2165 40.0737 35.9951C40.0571 35.8402 40.0488 35.5939 40.0488 35.2563V25.4697H43.8589V28.3501H43.6348ZM44.8052 39V35.4473L52.1929 35.439C52.785 34.8026 53.0811 34.1247 53.0811 33.4053C53.0811 32.8242 52.8984 32.3511 52.5332 31.9858C52.179 31.6317 51.7031 31.4546 51.1055 31.4546C50.5244 31.4546 50.0596 31.6206 49.7109 31.9526C49.4342 32.2127 49.2655 32.5614 49.2046 32.9985L46.1084 31.4463C46.208 31.0977 46.3408 30.7767 46.5068 30.4834C47.016 29.5869 47.6579 28.9173 48.4326 28.4746C49.2018 28.0319 50.0928 27.8105 51.1055 27.8105C51.8747 27.8105 52.5664 27.9351 53.1807 28.1841C53.8115 28.4331 54.3677 28.8094 54.8491 29.313C55.3527 29.8055 55.7262 30.3755 55.9697 31.0229C56.2132 31.6704 56.335 32.376 56.335 33.1396C56.335 33.9255 56.1745 34.6947 55.8535 35.4473H57.3809V39H44.8052ZM60.394 25.1792C60.0454 24.8361 59.6304 24.6646 59.1489 24.6646C58.6619 24.6646 58.2497 24.8361 57.9121 25.1792C57.569 25.5223 57.3975 25.9346 57.3975 26.416C57.3975 26.9085 57.569 27.3236 57.9121 27.6611C58.2497 28.0042 58.6619 28.1758 59.1489 28.1758C59.6359 28.1758 60.0509 28.0042 60.394 27.6611C60.7316 27.318 60.9004 26.903 60.9004 26.416C60.9004 25.9346 60.7316 25.5223 60.394 25.1792ZM64.8848 25.1792C64.5361 24.8361 64.1211 24.6646 63.6396 24.6646C63.1527 24.6646 62.7404 24.8361 62.4028 25.1792C62.0542 25.5223 61.8799 25.9346 61.8799 26.416C61.8799 26.9085 62.0542 27.3236 62.4028 27.6611C62.7404 28.0042 63.1527 28.1758 63.6396 28.1758C64.1211 28.1758 64.5361 28.0042 64.8848 27.6611C65.2223 27.318 65.3911 26.903 65.3911 26.416C65.3911 25.9346 65.2223 25.5223 64.8848 25.1792ZM56.7085 39V35.4473H60.6182C61.3154 35.4417 61.7139 35.2619 61.8135 34.9077C61.9076 34.703 61.9546 34.2686 61.9546 33.6045V29.5952H65.5322V35.4473H66.5532V39H56.7085ZM72.5215 36.6011C73.0306 36.6011 73.4373 36.4295 73.7417 36.0864C74.0461 35.7544 74.1982 35.3006 74.1982 34.7251C74.1982 34.1496 74.0461 33.6903 73.7417 33.3472C73.4318 32.9985 73.0251 32.8242 72.5215 32.8242C72.0234 32.8242 71.6195 32.9985 71.3096 33.3472C70.9997 33.6958 70.8447 34.1551 70.8447 34.7251C70.8447 35.2896 70.9997 35.7433 71.3096 36.0864C71.6139 36.4295 72.0179 36.6011 72.5215 36.6011ZM67.2505 35.4473C67.2228 35.2093 67.209 34.9686 67.209 34.7251C67.209 33.2199 67.7098 31.9803 68.7114 31.0063C69.7407 30.0047 71.0107 29.5039 72.5215 29.5039C73.2962 29.5039 73.9963 29.6284 74.6216 29.8774C75.269 30.132 75.8446 30.5083 76.3481 31.0063C76.8517 31.4933 77.228 32.0495 77.4771 32.6748C77.7261 33.2891 77.8506 33.9725 77.8506 34.7251C77.8506 35.439 77.7233 36.1169 77.4688 36.7588C77.2087 37.3786 76.8268 37.9403 76.3232 38.4438C75.8363 38.9142 75.2635 39.2822 74.605 39.5479C73.9686 39.8135 73.2741 39.9463 72.5215 39.9463C71.7744 39.9463 71.0771 39.8162 70.4297 39.5562C70.0534 39.4123 69.7075 39.2269 69.3921 39H65.8726V35.4473H67.2505ZM90.4014 28.3501V35.4473L90.3765 35.9951C90.3543 36.2109 90.3267 36.4046 90.2935 36.5762C90.2547 36.7477 90.2049 36.9054 90.144 37.0493C90.0721 37.2209 90.0002 37.362 89.9282 37.4727C89.6183 37.9596 89.2116 38.3332 88.708 38.5933C88.1989 38.8644 87.6261 39 86.9897 39H84.3003V38.9917C83.6362 38.9751 83.0137 38.8561 82.4326 38.6348C81.7796 38.3802 81.2069 38.0067 80.7144 37.5142C80.2163 37.0272 79.84 36.4683 79.5854 35.8374C79.3364 35.2231 79.2119 34.5314 79.2119 33.7622C79.2119 32.755 79.4333 31.8641 79.876 31.0894C80.3076 30.3478 80.9468 29.7253 81.7935 29.2217L80.7476 26.9722L83.9683 25.478L86.4585 30.832C84.9035 31.1032 83.9157 31.5127 83.4951 32.0605C83.069 32.6084 82.856 33.1756 82.856 33.7622C82.856 34.3599 83.0358 34.8385 83.3955 35.1982C83.7552 35.5635 84.2256 35.7461 84.8066 35.7461L86.8569 35.7378V25.4697H90.584V28.3501H90.4014ZM93.1655 39V28.4165H92.626V25.4697H96.4692V39H93.1655ZM101.259 29.2881H104.903L104.911 33.8286C105.027 34.9022 105.971 35.439 107.742 35.439H108.115C109.892 35.439 110.838 34.9022 110.954 33.8286C110.954 33.8009 110.957 33.7843 110.962 33.7788C110.968 33.7567 110.971 33.6681 110.971 33.5132V29.728H114.515V29.7446H114.839C115.021 29.7446 115.127 29.7474 115.154 29.7529C115.99 29.8027 116.737 30.0269 117.396 30.4253C118.137 30.8791 118.737 31.5459 119.197 32.4258C119.413 32.8464 119.57 33.3748 119.67 34.0112V35.4473H121.006V39H116.051V35.5552C115.918 34.3765 115.437 33.7843 114.606 33.7788V34.1938C114.606 34.3765 114.604 34.4816 114.598 34.5093C114.554 35.3449 114.33 36.092 113.926 36.7505C113.472 37.492 112.805 38.0924 111.925 38.5518C111.505 38.7676 110.976 38.9253 110.34 39.0249H105.525C104.889 38.9253 104.361 38.7676 103.94 38.5518C103.06 38.0924 102.393 37.492 101.939 36.7505C101.535 36.092 101.311 35.3449 101.267 34.5093C101.262 34.4816 101.259 34.3765 101.259 34.1938V29.2881ZM105.525 43.1338C106.007 43.1338 106.419 42.9622 106.762 42.6191C107.105 42.276 107.277 41.8638 107.277 41.3823C107.277 40.8953 107.105 40.4803 106.762 40.1372C106.419 39.7941 106.007 39.6226 105.525 39.6226C105.038 39.6226 104.623 39.7941 104.28 40.1372C103.937 40.4803 103.766 40.8953 103.766 41.3823C103.766 41.8693 103.937 42.2816 104.28 42.6191C104.623 42.9622 105.038 43.1338 105.525 43.1338ZM108.771 40.1372C108.611 40.2977 108.486 40.4775 108.397 40.6768C108.303 40.8926 108.256 41.1278 108.256 41.3823C108.256 41.8693 108.428 42.2816 108.771 42.6191C109.109 42.9622 109.521 43.1338 110.008 43.1338C110.495 43.1338 110.91 42.9622 111.253 42.6191C111.596 42.276 111.768 41.8638 111.768 41.3823C111.768 40.8953 111.596 40.4803 111.253 40.1372C110.904 39.7941 110.489 39.6226 110.008 39.6226C109.526 39.6226 109.114 39.7941 108.771 40.1372ZM125.754 28.3335V35.2563C125.754 35.5939 125.743 35.8402 125.721 35.9951C125.705 36.2109 125.68 36.4046 125.646 36.5762C125.602 36.7477 125.552 36.9054 125.497 37.0493C125.42 37.2209 125.345 37.362 125.273 37.4727C124.969 37.9596 124.565 38.3332 124.061 38.5933C123.552 38.8644 122.979 39 122.343 39H120.326V35.4473H120.832C121.529 35.4417 121.931 35.2619 122.036 34.9077C122.124 34.703 122.168 34.2686 122.168 33.6045V25.4697H125.979V28.3335H125.754ZM130.926 28.3501V33.6045C130.926 34.2686 130.97 34.703 131.059 34.9077C131.158 35.2619 131.557 35.4417 132.254 35.4473H132.769V39H130.751C130.115 39 129.542 38.8644 129.033 38.5933C128.53 38.3332 128.123 37.9596 127.813 37.4727C127.741 37.362 127.669 37.2209 127.597 37.0493C127.536 36.9054 127.489 36.7477 127.456 36.5762C127.417 36.4102 127.387 36.2165 127.365 35.9951C127.348 35.8402 127.34 35.5939 127.34 35.2563V25.4697H131.15V28.3501H130.926ZM134.537 43.1338C135.024 43.1338 135.439 42.9622 135.782 42.6191C136.119 42.276 136.288 41.8638 136.288 41.3823C136.288 40.8953 136.119 40.4803 135.782 40.1372C135.433 39.7941 135.018 39.6226 134.537 39.6226C134.05 39.6226 133.637 39.7941 133.3 40.1372C132.957 40.4803 132.785 40.8953 132.785 41.3823C132.785 41.8693 132.957 42.2816 133.3 42.6191C133.637 42.9622 134.05 43.1338 134.537 43.1338ZM139.027 43.1338C139.509 43.1338 139.924 42.9622 140.272 42.6191C140.61 42.276 140.779 41.8638 140.779 41.3823C140.779 40.8953 140.61 40.4803 140.272 40.1372C139.924 39.7941 139.509 39.6226 139.027 39.6226C138.54 39.6226 138.128 39.7941 137.791 40.1372C137.442 40.4803 137.268 40.8953 137.268 41.3823C137.268 41.8693 137.442 42.2816 137.791 42.6191C138.128 42.9622 138.54 43.1338 139.027 43.1338ZM132.096 39V35.4473H136.006C136.703 35.4417 137.102 35.2619 137.201 34.9077C137.295 34.703 137.342 34.2686 137.342 33.6045V29.5952H140.92V35.4473H141.941V39H132.096ZM146.689 28.3335V35.2563C146.689 35.5939 146.678 35.8402 146.656 35.9951C146.639 36.2109 146.614 36.4046 146.581 36.5762C146.537 36.7477 146.487 36.9054 146.432 37.0493C146.354 37.2209 146.279 37.362 146.208 37.4727C145.903 37.9596 145.499 38.3332 144.996 38.5933C144.486 38.8644 143.914 39 143.277 39H141.26V35.4473H141.767C142.464 35.4417 142.865 35.2619 142.97 34.9077C143.059 34.703 143.103 34.2686 143.103 33.6045V25.4697H146.913V28.3335H146.689Z"/>
<g clip-path="url(#clip0_168_474)">
<path fill="#3E3D3F" d="M118.659 168.685C137.445 149.88 137.445 119.39 118.659 100.584C99.8727 81.7788 69.4145 81.7788 50.6285 100.584C31.8424 119.39 31.8424 149.88 50.6285 168.685C69.4145 187.491 99.8727 187.491 118.659 168.685Z" opacity="0.13"/>
<path fill="#2C80C9" d="M116.837 168.319C135.623 149.513 135.623 119.024 116.837 100.218C98.0505 81.4126 67.5922 81.4126 48.8062 100.218C30.0201 119.024 30.0201 149.513 48.8062 168.319C67.5922 187.125 98.0505 187.125 116.837 168.319Z"/>
<path stroke-dasharray="2 2" stroke-miterlimit="10" stroke-width="0.97" stroke="white" d="M65.4667 177.381C8.75185 170.413 -0.506131 98.0741 45.4488 80.5302C49.5496 78.9641 54.0074 78.5367 58.4026 78.5035C76.9775 78.345 94.9303 84.9521 113.428 86.4261C119.075 86.872 125.248 86.684 129.687 83.2018C130.897 82.286 131.88 81.1048 132.562 79.749C133.112 78.543 133.421 77.2412 133.471 75.9167C133.821 69.6523 129.352 63.41 123.245 61.6781C117.138 59.9462 110.019 62.8757 106.953 68.3699"/>
<path stroke-dasharray="2.2 2.2" stroke-miterlimit="10" stroke-width="1.1" stroke="white" d="M117.146 178.465C130.939 175.148 143.51 166.227 151.03 154.144C158.551 142.061 160.833 126.96 156.898 113.673C152.963 100.385 142.796 89.1825 129.809 84.1931"/>
<path fill="#FFD4CA" d="M77.5225 118.227C77.5225 118.227 77.7985 126.559 85.816 126.559C92.4162 126.559 91.8788 117.733 91.8788 117.733L77.5225 118.227Z"/>
<path fill="#FFD4CA" d="M84.8957 94.9235C75.3248 95.023 73.5247 101.556 73.6462 109.295C73.8634 123.297 87.7817 124.845 91.9487 120.316C99.0495 112.589 101.199 94.7577 84.8957 94.9235Z"/>
<path fill="#F1C1BA" d="M75.4353 106.844C74.8667 107.136 74.2713 107.372 73.6573 107.548C73.6573 108.119 73.6352 108.694 73.6573 109.28C73.7235 113.525 75.0561 116.62 76.9887 118.754C76.0537 117.221 75.5862 115.235 75.4353 106.844Z"/>
<path fill="#F1C1BA" d="M73.6536 107.548C73.6536 107.548 73.4401 104.766 72.0928 104.464C70.2522 104.059 69.4424 110.684 73.8487 111.812L73.6536 107.548Z"/>
<path fill="#F1C1BA" d="M97.533 108.314C97.6481 108.123 97.8036 107.96 97.9884 107.835C98.1733 107.71 98.3831 107.628 98.6033 107.593C98.8234 107.557 99.0486 107.571 99.263 107.632C99.4774 107.693 99.6759 107.8 99.8447 107.946C100.993 108.801 99.5208 114.391 96.0679 113.263L97.533 108.314Z"/>
<path fill="#3E3D3F" d="M88.7827 94.4518C74.9602 91.4265 72.6963 103.156 73.6534 107.548C74.2674 107.372 74.8629 107.136 75.4314 106.844C77.2351 105.93 79.7456 104.01 79.6426 100.41C79.6426 100.41 82.6353 105.392 94.9928 106.933C94.9928 109.074 95.6664 110.478 96.6603 111.273C97.0355 110.318 97.3261 109.332 97.5291 108.326C98.4125 104.066 98.4567 96.5743 88.7827 94.4518Z"/>
<path stroke-miterlimit="10" stroke-width="0.46" stroke="#19181B" d="M79.6463 100.41L78.9727 97.7388"/>
<path fill="#FFD4CA" d="M46.9212 166.441C45.9717 165.94 45.2595 165.082 44.9413 164.056C44.6231 163.03 44.7249 161.919 45.2242 160.968L58.6713 135.384C58.919 134.913 59.257 134.495 59.666 134.155C60.0749 133.814 60.5469 133.558 61.0549 133.4C61.5628 133.243 62.0969 133.186 62.6265 133.235C63.1561 133.284 63.6709 133.437 64.1414 133.685C65.091 134.186 65.8031 135.044 66.1213 136.07C66.4395 137.096 66.3378 138.206 65.8384 139.157L52.3987 164.742C52.151 165.214 51.8127 165.632 51.4032 165.973C50.9937 166.314 50.5209 166.571 50.0121 166.729C49.5033 166.887 48.9684 166.943 48.438 166.893C47.9076 166.844 47.3922 166.69 46.9212 166.441Z"/>
<path fill="#FFD4CA" d="M118.88 168.091C119.883 167.708 120.692 166.941 121.131 165.96C121.569 164.978 121.6 163.863 121.217 162.859L110.91 135.852C110.527 134.848 109.761 134.037 108.78 133.598C107.8 133.16 106.686 133.129 105.683 133.512C104.68 133.896 103.87 134.663 103.432 135.644C102.993 136.625 102.962 137.741 103.345 138.745L113.652 165.752C114.036 166.756 114.802 167.566 115.782 168.005C116.762 168.444 117.876 168.475 118.88 168.091Z"/>
<path fill="#FFA82F" d="M84.9251 121.315C82.7863 121.075 64.1194 124.185 60.3021 129.488C57.9757 132.716 55.086 156.679 64.4507 173.961C64.4507 173.961 73.0645 183.255 88.9411 182.533C102.771 181.906 108.352 174.813 108.727 170.391C109.463 161.643 114.098 132.834 104.597 126.805C97.6911 122.428 89.7436 121.849 84.9251 121.315Z"/>
<path fill="#FFA82F" d="M61.2923 128.088L50.0171 144.014L62.5476 149.656L70.1896 133.228L61.2923 128.088Z"/>
<path fill="#FFA82F" d="M104.597 126.809L116.921 139.5L106.022 147.776L100.132 134.231L104.597 126.809Z"/>
<path fill="#FFD4CA" d="M68.9418 185.875L75.7923 184.191L77.8095 192.04L70.8743 193.746C68.7135 194.277 64.1489 192.545 63.2949 191.104C62.1575 189.188 66.7994 186.406 68.9418 185.875Z"/>
<path fill="#002A39" d="M74.813 184.832C74.813 184.832 116.818 162.372 124.648 160.563C132.478 158.754 137.399 161.967 136.843 166.459C136.475 169.333 133.53 174.197 124.799 179.323C116.067 184.449 91.5252 192.666 86.1029 193.289C80.6807 193.912 74.813 192.987 74.813 192.987V184.832Z"/>
<path fill="#FFD4CA" d="M107.417 186.03L100.57 184.349L98.5525 192.184L105.488 193.89C107.649 194.42 112.209 192.688 113.067 191.248C114.205 189.346 109.581 186.564 107.417 186.03Z"/>
<path fill="#002A39" d="M101.612 182.267C101.612 183.023 99.3551 193.422 99.3551 193.422C99.3551 193.422 65.176 188.447 53.2824 183.023C41.3887 177.599 37.3873 172.337 35.8155 168.401C34.2731 164.536 37.0192 157.398 49.0675 162.373C61.1158 167.347 101.612 182.267 101.612 182.267Z"/>
<path fill="#003C50" d="M60.8027 109.457L81.7409 112.63L81.358 149.457L60.8984 145.897L60.8027 109.457Z"/>
<path fill="#003C50" d="M89.1362 112.821L109.692 109.457L109.787 145.993L89.3276 149.457L89.1362 112.821Z"/>
<path fill="#F7F4F4" d="M84.719 111.668L102.105 105.131L107.292 108.783L88.367 113.109L84.719 111.668Z"/>
<path fill="#F7F4F4" d="M75.6892 102.341V105.997L84.719 111.668L75.6892 102.341Z"/>
<path fill="#F7F4F4" d="M94.4187 101.859L84.719 111.668L94.5144 105.418L94.4187 101.859Z"/>
<path fill="white" d="M97.5882 103.207L84.719 111.668L97.6949 106.785L97.5882 103.207Z"/>
<path fill="white" d="M72.3284 103.303V107.246L84.719 111.668L72.3284 103.303Z"/>
<path fill="#F7F4F4" d="M63.0115 108.591L82.4625 112.755L84.719 111.668C84.719 111.668 68.8681 105.219 68.581 105.322C68.2939 105.425 63.0115 108.591 63.0115 108.591Z"/>
<path fill="white" d="M63.0115 108.591L61.5869 109.553L81.741 112.63L82.341 112.722L63.0115 108.591Z"/>
<path fill="white" d="M88.3669 113.109L107.292 108.782L108.492 109.556L88.3669 113.109Z"/>
<path fill="#D7D4D4" d="M81.741 112.629C81.741 112.629 84.7484 115.504 89.4455 112.887L84.719 111.668L81.741 112.629Z"/>
<path stroke-miterlimit="10" stroke-width="0.18" stroke="#D7D4D4" d="M63.7991 108.178L82.5727 112.464"/>
<path stroke-miterlimit="10" stroke-width="0.18" stroke="#D7D4D4" d="M65.1575 107.32L83.3053 112.265"/>
<path stroke-miterlimit="10" stroke-width="0.18" stroke="#D7D4D4" d="M66.7256 106.369L83.9016 112.099"/>
<path stroke-miterlimit="10" stroke-width="0.18" stroke="#D7D4D4" d="M68.0251 105.647L84.4576 111.878"/>
<path stroke-miterlimit="10" stroke-width="0.18" stroke="#D7D4D4" d="M106.574 108.307L87.2441 112.637"/>
<path stroke-miterlimit="10" stroke-width="0.18" stroke="#D7D4D4" d="M105.12 107.298L86.1619 112.608"/>
<path stroke-miterlimit="10" stroke-width="0.18" stroke="#D7D4D4" d="M103.956 106.457L85.4109 112.176"/>
<path stroke-miterlimit="10" stroke-width="0.18" stroke="#D7D4D4" d="M102.786 105.65L85.0466 111.907"/>
<path fill="#002A39" d="M81.741 112.63C81.741 112.63 84.5276 115.515 89.1363 112.821L89.3278 149.457C89.3278 149.457 85.3926 152.243 81.3582 149.457L81.741 112.63Z"/>
<g opacity="0.09">
<path fill="#35393A" d="M120.098 161.171L100.868 142.459C101.262 141.158 100.305 139.437 100.172 139.209L99.6936 135.568C99.6809 135.456 99.6459 135.348 99.5905 135.249C99.5352 135.151 99.4606 135.065 99.3713 134.996C99.282 134.928 99.1797 134.878 99.0707 134.849C98.9616 134.821 98.8479 134.815 98.7365 134.831C98.5119 134.865 98.3093 134.985 98.1718 135.166C98.0344 135.347 97.9728 135.575 98.0002 135.8L98.4199 138.995L98.096 139.249L96.6235 137.529L93.0933 132.429C93.0334 132.342 92.957 132.269 92.8686 132.212C92.7802 132.155 92.6815 132.116 92.5781 132.097C92.4747 132.079 92.3687 132.081 92.266 132.103C92.1633 132.125 92.0661 132.168 91.9798 132.228C91.8935 132.288 91.8199 132.364 91.7631 132.453C91.7063 132.541 91.6675 132.64 91.6489 132.744C91.6302 132.847 91.6322 132.953 91.6545 133.056C91.6769 133.159 91.7192 133.256 91.7792 133.343L94.9744 138.015L94.7609 138.144L90.8626 133.84C90.792 133.762 90.7068 133.699 90.6118 133.654C90.5168 133.609 90.4139 133.583 90.309 133.578C90.204 133.573 90.0991 133.589 90.0002 133.624C89.9013 133.659 89.8103 133.714 89.7325 133.785C89.6547 133.855 89.5915 133.941 89.5466 134.036C89.5017 134.131 89.476 134.234 89.4708 134.339C89.4657 134.444 89.4813 134.549 89.5167 134.648C89.5521 134.747 89.6067 134.838 89.6773 134.916L93.5019 139.139C93.421 139.209 93.351 139.275 93.2884 139.338L89.4049 135.981C89.3253 135.912 89.2331 135.86 89.1333 135.827C89.0336 135.794 88.9284 135.781 88.8236 135.788C88.7188 135.796 88.6166 135.824 88.5227 135.872C88.4289 135.919 88.3452 135.984 88.2766 136.064C88.208 136.143 88.1556 136.236 88.1227 136.336C88.0897 136.436 88.0767 136.541 88.0843 136.646C88.092 136.751 88.1203 136.853 88.1675 136.947C88.2147 137.041 88.2799 137.125 88.3594 137.193L92.486 140.757C92.4639 140.843 92.4455 140.931 92.4307 141.022L89.2539 138.649C89.0846 138.521 88.8713 138.465 88.6611 138.495C88.4509 138.524 88.2609 138.636 88.133 138.805C88.0051 138.975 87.9498 139.188 87.9791 139.399C88.0085 139.609 88.1201 139.799 88.2895 139.928L93.2295 143.657L93.2811 143.716C93.9466 144.458 94.85 144.946 95.8358 145.094L114.241 166.78C114.607 167.176 115.047 167.495 115.537 167.719C116.027 167.943 116.557 168.067 117.096 168.083C117.634 168.099 118.17 168.008 118.673 167.814C119.176 167.62 119.635 167.328 120.023 166.954C120.412 166.581 120.722 166.133 120.935 165.638C121.149 165.143 121.262 164.61 121.267 164.071C121.272 163.532 121.17 162.997 120.966 162.497C120.762 161.998 120.461 161.545 120.08 161.164L120.098 161.171Z"/>
<path fill="#35393A" d="M81.3691 139.806C81.5392 139.684 81.655 139.5 81.6922 139.293C81.7293 139.087 81.6847 138.874 81.5679 138.7C81.4445 138.531 81.2608 138.417 81.0549 138.38C80.8491 138.344 80.6372 138.389 80.4635 138.505L76.2634 141.453L76.072 141.236L80.2979 137.414C80.3757 137.344 80.4389 137.258 80.4838 137.163C80.5287 137.068 80.5544 136.965 80.5596 136.86C80.5647 136.755 80.5491 136.65 80.5137 136.551C80.4782 136.452 80.4237 136.361 80.3531 136.283C80.2825 136.205 80.1973 136.142 80.1023 136.097C80.0073 136.052 79.9044 136.026 79.7995 136.021C79.6946 136.016 79.5896 136.032 79.4907 136.067C79.3918 136.102 79.3008 136.157 79.223 136.228L74.8977 140.112L74.6916 139.961L78.3727 135.642C78.4408 135.562 78.4926 135.47 78.5251 135.37C78.5575 135.27 78.57 135.164 78.5618 135.06C78.5536 134.955 78.5249 134.853 78.4773 134.759C78.4296 134.666 78.3641 134.583 78.2843 134.514C78.2046 134.446 78.1122 134.394 78.0124 134.362C77.9126 134.329 77.8074 134.317 77.7028 134.325C77.5982 134.333 77.4963 134.362 77.4028 134.41C77.3093 134.457 77.2261 134.523 77.1579 134.603L73.1381 139.323H73.1197L71.4669 140.886L71.1724 140.605L71.9087 137.466C71.9588 137.244 71.9203 137.011 71.8013 136.817C71.6824 136.623 71.4924 136.483 71.2718 136.427C71.1635 136.399 71.0508 136.394 70.9403 136.41C70.8298 136.427 70.7237 136.465 70.6281 136.523C70.5326 136.581 70.4495 136.657 70.3837 136.748C70.3179 136.838 70.2706 136.941 70.2448 137.05L69.4055 140.624C69.2767 140.804 68.4595 141.98 68.3601 143.141L46.2734 159.247C45.4395 159.915 44.9025 160.884 44.7791 161.945C44.6557 163.007 44.9559 164.074 45.6145 164.915C45.9418 165.335 46.3486 165.686 46.8117 165.949C47.2747 166.212 47.785 166.38 48.3132 166.445C48.8414 166.51 49.3772 166.47 49.89 166.328C50.4028 166.185 50.8826 165.943 51.3018 165.615L73.1234 146.91C74.1178 146.864 75.0652 146.474 75.8033 145.805L75.8622 145.75L81.1556 142.518C81.3242 142.402 81.4419 142.225 81.4847 142.025C81.5275 141.824 81.4921 141.615 81.3858 141.44C81.2795 141.264 81.1102 141.136 80.9128 141.082C80.7153 141.028 80.5046 141.051 80.3237 141.147L76.937 143.211C76.9343 143.119 76.9257 143.028 76.9113 142.938L81.3691 139.806Z"/>
</g>
<path fill="#FFD4CA" d="M119.98 167.369C120.754 166.624 121.201 165.602 121.223 164.528C121.244 163.453 120.838 162.414 120.094 161.639L99.3477 141.449C97.8053 139.843 95.9685 139.135 94.3635 140.679C92.7549 142.223 93.9218 143.506 95.4678 145.101L114.26 167.24C115.002 168.016 116.021 168.465 117.093 168.489C118.166 168.513 119.204 168.111 119.98 167.369Z"/>
<path fill="#FFD4CA" d="M96.9843 139.975C97.1552 139.854 97.2716 139.67 97.3088 139.463C97.3459 139.257 97.3008 139.044 97.1831 138.87L93.0713 132.926C92.9502 132.755 92.7669 132.637 92.5604 132.599C92.354 132.561 92.1409 132.606 91.967 132.724C91.7963 132.845 91.6797 133.029 91.6419 133.235C91.6041 133.442 91.6481 133.655 91.7645 133.829L95.8763 139.769C95.9968 139.942 96.1807 140.061 96.388 140.1C96.5954 140.138 96.8096 140.094 96.9843 139.975Z"/>
<path fill="#FFD4CA" d="M95.6518 140.812C95.7298 140.741 95.793 140.656 95.838 140.561C95.883 140.466 95.9088 140.363 95.914 140.258C95.9191 140.153 95.9034 140.048 95.8679 139.949C95.8324 139.85 95.7777 139.759 95.707 139.681L90.859 134.33C90.7156 134.174 90.5167 134.081 90.3052 134.071C90.0938 134.06 89.8868 134.134 89.7289 134.275C89.5731 134.418 89.48 134.618 89.4697 134.829C89.4594 135.041 89.5326 135.248 89.6737 135.406L94.5254 140.764C94.6686 140.92 94.8676 141.012 95.0787 141.021C95.2898 141.03 95.4959 140.955 95.6518 140.812Z"/>
<path fill="#FFD4CA" d="M94.9488 142.315C95.0865 142.155 95.1552 141.946 95.14 141.735C95.1249 141.524 95.027 141.327 94.8679 141.188L89.4014 136.464C89.2402 136.325 89.0307 136.256 88.8189 136.272C88.607 136.288 88.4101 136.387 88.2713 136.548C88.1332 136.709 88.0645 136.918 88.0804 137.13C88.0963 137.341 88.1954 137.538 88.356 137.676L93.8224 142.4C93.983 142.538 94.1919 142.607 94.4032 142.591C94.6144 142.575 94.8107 142.476 94.9488 142.315Z"/>
<path fill="#FFD4CA" d="M95.188 144.593C95.3109 144.424 95.3631 144.214 95.3336 144.008C95.304 143.801 95.1949 143.614 95.0297 143.487L89.254 139.121C89.0857 138.998 88.876 138.945 88.6696 138.975C88.4633 139.004 88.2767 139.114 88.1497 139.279C88.0273 139.447 87.975 139.657 88.0038 139.863C88.0327 140.069 88.1404 140.256 88.3043 140.385L94.0726 144.74C94.2407 144.867 94.4518 144.922 94.6604 144.895C94.869 144.867 95.0585 144.759 95.188 144.593Z"/>
<path fill="#FFD4CA" d="M98.7882 142.341L97.9931 136.287C97.9666 136.061 98.0285 135.834 98.1658 135.654C98.3031 135.473 98.5051 135.352 98.7293 135.318C98.8394 135.301 98.9517 135.307 99.0596 135.334C99.1676 135.361 99.2691 135.41 99.3582 135.476C99.4472 135.543 99.5221 135.627 99.5785 135.723C99.6348 135.819 99.6715 135.926 99.6864 136.036L100.338 141L98.7882 142.341Z"/>
<path fill="#FFD4CA" d="M100.154 139.651C100.154 139.651 101.31 141.567 100.853 142.968C100.684 143.498 100.058 144.073 99.4324 144.582C98.5593 145.324 97.4336 145.7 96.2902 145.631C95.1468 145.563 94.0741 145.055 93.2959 144.213L93.2444 144.154C92.7547 143.622 92.4589 142.94 92.4048 142.218C92.3506 141.496 92.5414 140.778 92.9462 140.178C92.9462 140.178 94.5402 138.505 95.5709 138.273L96.6163 138.015L98.0888 139.736L98.4201 139.478L100.154 139.651Z"/>
<path fill="#FFD4CA" d="M72.5676 141.7C72.4878 141.632 72.4222 141.548 72.3746 141.455C72.327 141.361 72.2982 141.259 72.29 141.155C72.2818 141.05 72.2943 140.945 72.3268 140.845C72.3592 140.745 72.411 140.652 72.4792 140.572L77.1653 135.067C77.2334 134.987 77.3166 134.922 77.4101 134.874C77.5036 134.826 77.6056 134.798 77.7102 134.789C77.8148 134.781 77.92 134.794 78.0198 134.826C78.1195 134.859 78.2119 134.91 78.2917 134.979C78.3715 135.047 78.437 135.13 78.4847 135.224C78.5323 135.317 78.561 135.419 78.5692 135.524C78.5774 135.629 78.5649 135.734 78.5325 135.834C78.5 135.934 78.4482 136.026 78.38 136.106L73.694 141.608C73.6261 141.688 73.5431 141.754 73.4497 141.802C73.3564 141.85 73.2545 141.879 73.1498 141.888C73.0452 141.896 72.94 141.884 72.8401 141.852C72.7401 141.82 72.6475 141.768 72.5676 141.7Z"/>
<path fill="#FFD4CA" d="M73.7933 142.665C73.6523 142.507 73.579 142.3 73.5893 142.089C73.5997 141.877 73.6928 141.678 73.8485 141.534L79.2119 136.689C79.3692 136.547 79.5761 136.474 79.7873 136.485C79.9984 136.496 80.1966 136.59 80.3383 136.747C80.4793 136.906 80.5526 137.113 80.5423 137.324C80.5319 137.536 80.4388 137.735 80.2831 137.879L74.9234 142.721C74.7659 142.863 74.5587 142.937 74.347 142.926C74.1352 142.916 73.9362 142.822 73.7933 142.665Z"/>
<path fill="#FFD4CA" d="M74.342 144.232C74.2239 144.058 74.1782 143.846 74.2146 143.639C74.2511 143.433 74.3668 143.248 74.5371 143.126L80.449 138.977C80.6221 138.859 80.8345 138.813 81.0409 138.849C81.2472 138.886 81.4311 139.002 81.5533 139.172C81.6714 139.345 81.7171 139.558 81.6807 139.765C81.6442 139.971 81.5285 140.155 81.3582 140.278L75.4574 144.427C75.2834 144.549 75.0684 144.596 74.8594 144.56C74.6504 144.523 74.4643 144.405 74.342 144.232Z"/>
<path fill="#FFD4CA" d="M73.8781 146.49C73.8231 146.4 73.7864 146.3 73.7701 146.196C73.7538 146.091 73.7583 145.984 73.7833 145.882C73.8082 145.779 73.8532 145.682 73.9156 145.597C73.9779 145.512 74.0565 145.44 74.1468 145.385L80.3163 141.63C80.4062 141.575 80.5061 141.538 80.6103 141.521C80.7145 141.505 80.8209 141.509 80.9235 141.533C81.026 141.558 81.1227 141.603 81.208 141.665C81.2934 141.727 81.3656 141.805 81.4207 141.895C81.4757 141.985 81.5124 142.086 81.5287 142.19C81.5449 142.295 81.5405 142.401 81.5155 142.504C81.4905 142.607 81.4456 142.703 81.3832 142.789C81.3208 142.874 81.2422 142.946 81.152 143.001L74.9824 146.756C74.8925 146.811 74.7926 146.848 74.6885 146.864C74.5843 146.881 74.4779 146.877 74.3753 146.852C74.2727 146.828 74.176 146.783 74.0907 146.721C74.0054 146.659 73.9331 146.58 73.8781 146.49Z"/>
<path fill="#FFD4CA" d="M70.5209 143.874L71.9161 137.927C71.9653 137.704 71.9264 137.472 71.8075 137.278C71.6887 137.084 71.4993 136.944 71.2793 136.887C71.1709 136.86 71.0583 136.854 70.9478 136.871C70.8373 136.887 70.7311 136.926 70.6356 136.984C70.54 137.042 70.4569 137.118 70.3911 137.208C70.3253 137.299 70.2781 137.401 70.2522 137.51L69.1111 142.382L70.5209 143.874Z"/>
<path fill="#FFD4CA" d="M69.4313 141.059C69.4313 141.059 68.0877 142.85 68.4042 144.283C68.522 144.825 69.0853 145.451 69.6595 146.03C70.456 146.853 71.5391 147.336 72.683 147.379C73.8269 147.423 74.9433 147.022 75.7996 146.262L75.8585 146.207C76.3987 145.726 76.761 145.077 76.8867 144.365C77.0123 143.652 76.8938 142.919 76.5505 142.282C76.5505 142.282 75.1333 140.462 74.1284 140.123L73.1271 139.784L71.4743 141.35L71.1724 141.059H69.4313Z"/>
<path fill="#FFD4CA" d="M45.6145 165.398C44.9515 164.553 44.6508 163.479 44.7785 162.412C44.9062 161.345 45.4519 160.373 46.2955 159.708L69.689 142.64C71.4412 141.261 73.3148 140.779 74.6879 142.533C76.0646 144.287 75.2622 145.669 73.5099 147.047L51.2981 166.083C50.4535 166.746 49.3804 167.047 48.3146 166.918C47.2488 166.79 46.2776 166.243 45.6145 165.398Z"/>
<path fill="#91F3E2" d="M95.4788 106.019L99.274 103.723C99.3805 103.661 99.5011 103.626 99.6245 103.623C99.7479 103.619 99.8702 103.647 99.9801 103.703C100.09 103.759 100.184 103.842 100.254 103.944C100.323 104.046 100.366 104.164 100.378 104.287C100.393 104.477 100.351 104.667 100.258 104.834C100.165 105 100.025 105.136 99.8556 105.223L95.7732 107.301L95.4788 106.019Z"/>
<path fill="#FFD4CA" d="M138.614 121.86H126.54C125.21 121.859 123.934 121.33 122.993 120.388C122.053 119.447 121.524 118.17 121.523 116.838V110.662C121.525 109.331 122.054 108.055 122.995 107.114C123.935 106.173 125.21 105.644 126.54 105.643H138.614C139.943 105.645 141.217 106.174 142.157 107.115C143.097 108.056 143.626 109.331 143.628 110.662V116.838C143.627 118.169 143.098 119.445 142.158 120.387C141.219 121.329 139.944 121.858 138.614 121.86ZM126.54 106.015C125.309 106.016 124.129 106.506 123.259 107.377C122.389 108.249 121.899 109.43 121.898 110.662V116.838C121.899 118.07 122.389 119.251 123.259 120.122C124.129 120.994 125.309 121.484 126.54 121.485H138.614C139.845 121.484 141.025 120.994 141.895 120.122C142.766 119.251 143.255 118.07 143.256 116.838V110.662C143.254 109.43 142.764 108.249 141.894 107.378C141.024 106.507 139.845 106.017 138.614 106.015H126.54Z"/>
<path fill="#FFD4CA" d="M132.702 117.077L122.329 108.602L122.564 108.311L132.695 116.584L142.579 107.906L142.829 108.186L132.702 117.077Z"/>
<path fill="#FFD4CA" d="M129.569 114.463L122.267 118.974L122.465 119.294L129.767 114.783L129.569 114.463Z"/>
<path fill="#FFD4CA" d="M135.675 114.298L135.472 114.615L142.772 119.295L142.975 118.979L135.675 114.298Z"/>
<path fill="white" d="M21.7241 128.15L27.9305 108.506L28.0225 108.536L49.2441 115.091L21.7241 128.15ZM28.0593 108.753L22.0517 127.778L48.6993 115.128L28.0593 108.753Z"/>
<path fill="white" d="M27.7795 121.293L30.3563 113.083L38.9701 115.802L27.7795 121.293ZM30.4888 113.326L28.1108 120.91L38.4548 115.843L30.4888 113.326Z"/>
<path fill="white" d="M31.0367 109.607L30.6064 110.877L30.7947 110.941L31.225 109.671L31.0367 109.607Z"/>
<path fill="white" d="M31.7519 109.821L31.501 110.65L31.6912 110.707L31.9421 109.879L31.7519 109.821Z"/>
<path fill="white" d="M32.4173 110.054L31.9871 111.325L32.1753 111.389L32.6056 110.118L32.4173 110.054Z"/>
<path fill="white" d="M33.1304 110.264L32.8796 111.093L33.0699 111.15L33.3206 110.321L33.1304 110.264Z"/>
<path fill="white" d="M33.8143 110.502L33.384 111.773L33.5723 111.837L34.0025 110.566L33.8143 110.502Z"/>
<path fill="white" d="M34.5282 110.72L34.2773 111.549L34.4676 111.606L34.7185 110.778L34.5282 110.72Z"/>
<path fill="white" d="M28.2684 108.813L27.8381 110.083L28.0264 110.147L28.4567 108.877L28.2684 108.813Z"/>
<path fill="white" d="M29.1234 108.993L28.8726 109.825L29.0634 109.882L29.3143 109.051L29.1234 108.993Z"/>
<path fill="white" d="M29.6641 109.262L29.2339 110.532L29.4221 110.596L29.8524 109.326L29.6641 109.262Z"/>
<path fill="white" d="M30.3744 109.477L30.1235 110.306L30.3138 110.364L30.5647 109.535L30.3744 109.477Z"/>
<path fill="white" d="M35.3253 111L34.895 112.271L35.0833 112.334L35.5135 111.064L35.3253 111Z"/>
<path fill="white" d="M36.0343 111.215L35.7834 112.044L35.9737 112.102L36.2246 111.273L36.0343 111.215Z"/>
<path fill="white" d="M36.7032 111.445L36.2727 112.715L36.4609 112.779L36.8914 111.509L36.7032 111.445Z"/>
<path fill="white" d="M37.4169 111.657L37.166 112.486L37.3562 112.544L37.6071 111.715L37.4169 111.657Z"/>
<path fill="white" d="M38.1009 111.897L37.6709 113.167L37.8592 113.231L38.2892 111.961L38.1009 111.897Z"/>
<path fill="white" d="M38.8106 112.108L38.5598 112.937L38.7501 112.994L39.0008 112.166L38.8106 112.108Z"/>
<path fill="white" d="M39.6182 112.318L39.2097 113.595L39.399 113.656L39.8075 112.379L39.6182 112.318Z"/>
<path fill="white" d="M40.3361 112.522L40.0991 113.355L40.2903 113.409L40.5273 112.577L40.3361 112.522Z"/>
<path fill="white" d="M41.0064 112.733L40.5981 114.011L40.7875 114.071L41.1957 112.794L41.0064 112.733Z"/>
<path fill="white" d="M41.722 112.935L41.4849 113.768L41.676 113.823L41.9132 112.99L41.722 112.935Z"/>
<path fill="white" d="M42.4085 113.163L42.0002 114.44L42.1896 114.501L42.5978 113.223L42.4085 113.163Z"/>
<path fill="white" d="M43.128 113.365L42.8909 114.198L43.082 114.253L43.3192 113.42L43.128 113.365Z"/>
<path fill="white" d="M43.9288 113.635L43.5203 114.912L43.7096 114.973L44.1181 113.695L43.9288 113.635Z"/>
<path fill="white" d="M44.6461 113.836L44.4089 114.668L44.6001 114.723L44.8372 113.89L44.6461 113.836Z"/>
<path fill="white" d="M45.315 114.049L44.9065 115.326L45.0958 115.387L45.5043 114.109L45.315 114.049Z"/>
<path fill="white" d="M46.0314 114.249L45.7944 115.082L45.9856 115.137L46.2226 114.304L46.0314 114.249Z"/>
<path fill="white" d="M46.7244 114.476L46.3159 115.753L46.5052 115.814L46.9137 114.536L46.7244 114.476Z"/>
<path fill="white" d="M47.2182 114.517L46.9846 115.349L47.1754 115.402L47.409 114.571L47.2182 114.517Z"/>
<path fill="#3E3D3F" d="M86.3093 78.2639L85.4479 75.7766C85.7047 75.5148 85.8811 75.1847 85.956 74.8255C86.0309 74.4663 86.0011 74.0931 85.8704 73.7503C85.7396 73.4075 85.5132 73.1095 85.2182 72.8918C84.9232 72.674 84.5719 72.5456 84.2061 72.5218C83.8403 72.4981 83.4754 72.58 83.1547 72.7577C82.8341 72.9355 82.5712 73.2017 82.3972 73.5247C82.2233 73.8477 82.1456 74.2139 82.1735 74.5798C82.2014 74.9456 82.3337 75.2958 82.5546 75.5886L81.476 78.2639H79.1753V83.526H88.9229V78.2639H86.3093ZM82.4441 74.45C82.4463 74.1252 82.5444 73.8082 82.726 73.5391C82.9077 73.2699 83.1648 73.0605 83.465 72.9372C83.7652 72.8139 84.0951 72.7822 84.4133 72.8461C84.7314 72.91 85.0236 73.0667 85.253 73.2964C85.4825 73.5261 85.639 73.8185 85.7028 74.137C85.7667 74.4555 85.735 74.7858 85.6119 75.0863C85.4887 75.3868 85.2795 75.6442 85.0106 75.826C84.7417 76.0078 84.4251 76.106 84.1006 76.1082C83.8827 76.1097 83.6666 76.0678 83.465 75.985C83.2633 75.9022 83.0801 75.7801 82.926 75.6258C82.7719 75.4715 82.65 75.2882 82.5672 75.0863C82.4845 74.8845 82.4427 74.6682 82.4441 74.45ZM82.757 75.8171C83.1159 76.1686 83.5986 76.3645 84.1006 76.3625C84.5185 76.3602 84.9239 76.2189 85.2528 75.9608L86.0516 78.2639H81.7815L82.757 75.8171Z" opacity="0.13"/>
<path fill="#EEEE00" d="M88.6171 78.4741H78.8806V83.7362H88.6171V78.4741Z"/>
<path fill="#EEEE00" d="M86.0293 78.5183L85.1532 75.9868C85.4081 75.725 85.5827 75.3955 85.6563 75.0373C85.7299 74.6792 85.6994 74.3075 85.5685 73.9662C85.4375 73.6248 85.2115 73.3283 84.9173 73.1116C84.6231 72.8949 84.2731 72.7671 83.9086 72.7435C83.5441 72.7199 83.1805 72.8013 82.8608 72.9782C82.5412 73.155 82.2788 73.4199 82.1049 73.7415C81.9311 74.063 81.8529 74.4277 81.8797 74.7923C81.9065 75.157 82.0372 75.5063 82.2562 75.7989L81.1519 78.5626L81.3948 78.6621L82.4586 76.0273C82.7842 76.3502 83.2164 76.5429 83.6739 76.5694C84.1314 76.5958 84.5828 76.4542 84.9434 76.171L85.7864 78.6068L86.0293 78.5183ZM82.1384 74.6602C82.1384 74.3343 82.235 74.0157 82.416 73.7447C82.5969 73.4738 82.8541 73.2627 83.155 73.1381C83.4559 73.0135 83.7869 72.9811 84.1062 73.045C84.4255 73.1088 84.7187 73.2661 84.9487 73.4968C85.1786 73.7275 85.3351 74.0214 85.3981 74.3411C85.4612 74.6609 85.4281 74.9922 85.303 75.2931C85.1779 75.594 84.9664 75.851 84.6953 76.0316C84.4243 76.2121 84.1058 76.3081 83.7802 76.3074C83.5643 76.3074 83.3505 76.2648 83.151 76.1819C82.9516 76.0991 82.7705 75.9777 82.618 75.8247C82.4655 75.6717 82.3446 75.4901 82.2623 75.2903C82.18 75.0905 82.1379 74.8764 82.1384 74.6602Z"/>
<path fill="#3E3D3F" d="M121.121 90.4206L121.291 90.2879L121.361 90.2327L120.624 89.3004L120.363 89.503L105.223 69.7703L105.256 69.7445L105.175 69.7076L105.134 69.6523L105.105 69.6745L101 67.7915L100.872 67.7436L100.831 67.7214L98.0444 66.616L98.5598 69.5344L99.1929 74.3027L99.1635 74.3248L99.2003 74.3764V74.4722L99.2371 74.4427L114.536 94.0613L114.425 94.1497L114.355 94.205L115.092 95.1373L115.39 94.9015C116.016 95.5589 116.863 95.9599 117.768 96.0265C118.673 96.0931 119.57 95.8205 120.285 95.2618C121 94.703 121.482 93.898 121.638 93.0033C121.793 92.1085 121.61 91.188 121.125 90.4206H121.121Z" opacity="0.13"/>
<path fill="#FF3A29" d="M100.353 68.4399L97.9342 70.3303L97.3931 67.2644L100.353 68.4399Z"/>
<path fill="#FFE2DF" d="M104.6 70.4003L98.5487 75.128L97.9045 70.1534L100.183 68.3699L104.6 70.4003Z"/>
<path fill="#F7BA43" d="M120.113 90.671L114.286 95.2256L114.23 95.1556L98.4973 74.9806L104.479 70.3081L120.113 90.671Z"/>
<path fill="white" d="M100.406 73.6801L100.264 73.7915L115.898 93.765L116.04 93.6536L100.406 73.6801Z"/>
<path fill="white" d="M103.05 71.6577L102.908 71.769L118.545 91.7398L118.687 91.6284L103.05 71.6577Z"/>
<path fill="#FFE2DF" d="M120.705 90.8886L120.635 90.9439L114.429 95.7932L113.693 94.8609L113.763 94.8057L119.969 89.9563L120.705 90.8886Z"/>
<path fill="white" d="M114.69 95.5168C115.311 96.1966 116.165 96.6171 117.082 96.6942C117.999 96.7713 118.911 96.4994 119.637 95.9327C120.362 95.3661 120.848 94.5464 120.996 93.6374C121.144 92.7283 120.944 91.7967 120.437 91.0286L114.69 95.5168Z"/>
<path fill="#3E3D3F" d="M148.789 131.92L143.815 130.601H143.734L143.668 130.583L131.178 130.008L127.46 153.374L139.851 154.903L142.059 155.401L143.569 155.74C143.937 155.824 144.139 155.869 144.231 155.88C144.301 155.88 144.309 155.88 144.316 155.843V155.78C144.397 154.859 147.235 139.909 148.752 131.99L148.789 131.92Z" opacity="0.13"/>
<path fill="#FF2B00" d="M138.691 155.53H138.629L126.231 154L129.949 130.645L142.575 131.227L138.691 155.53Z"/>
<path fill="white" d="M142.998 156.506C142.906 156.506 142.719 156.454 142.339 156.37L140.826 156.027L138.618 155.529H138.555V155.467L142.428 131.209L147.533 132.561V132.624C146.017 140.543 143.179 155.496 143.098 156.418V156.48C143.098 156.51 143.098 156.528 143.013 156.521L142.998 156.506Z"/>
<path fill="white" d="M139.475 139.57H139.409L130.114 138.903L131.255 134.371H140.09L139.475 139.57Z"/>
<path stroke-miterlimit="10" stroke-width="0.27" stroke="#003C50" d="M143.028 131.253L138.942 155.533"/>
<path stroke-miterlimit="10" stroke-width="0.27" stroke="#003C50" d="M144.246 131.618L140.16 155.898"/>
<path stroke-miterlimit="10" stroke-width="0.27" stroke="#003C50" d="M145.464 131.983L141.378 156.263"/>
<path stroke-miterlimit="10" stroke-width="0.27" stroke="#003C50" d="M146.683 132.348L142.597 156.628"/>
<path fill="#3E3D3F" d="M48.0808 134.89C47.7288 134.44 47.2126 134.149 46.6459 134.08C46.0792 134.011 45.5083 134.17 45.0586 134.522L27.7795 147.924C23.8628 149.114 21.4296 152.268 20.5572 153.591C20.5401 153.614 20.5317 153.643 20.5334 153.671C20.5352 153.7 20.5471 153.727 20.5669 153.748C20.5868 153.769 20.6133 153.782 20.6419 153.785C20.6704 153.788 20.6991 153.781 20.7228 153.765C21.4149 153.333 22.7879 152.803 24.9266 153.396C28.1734 154.317 30.4189 151.318 30.4189 151.318L47.7201 137.901C48.1641 137.548 48.451 137.034 48.5186 136.47C48.5861 135.906 48.4288 135.339 48.0808 134.89Z" opacity="0.13"/>
<path fill="#003C50" d="M47.5802 134.26C47.931 134.711 48.0892 135.282 48.0202 135.849C47.9513 136.416 47.6606 136.932 47.212 137.285L29.9108 150.702L27.2715 147.294L44.5727 133.877C45.0232 133.531 45.592 133.377 46.1552 133.449C46.7184 133.521 47.2306 133.812 47.5802 134.26Z"/>
<path fill="#D6B700" d="M34.675 141.545L27.2607 147.296L29.8987 150.704L37.3129 144.953L34.675 141.545Z"/>
<path fill="white" d="M29.9 150.702C29.9 150.702 27.6508 153.702 24.4041 152.78C22.269 152.172 20.8923 152.699 20.2039 153.149C20.1799 153.163 20.152 153.168 20.1246 153.164C20.0972 153.16 20.0719 153.147 20.0526 153.128C20.0332 153.108 20.021 153.082 20.0177 153.055C20.0145 153.027 20.0204 153 20.0346 152.976C20.9107 151.653 23.3476 148.499 27.2606 147.308L29.9 150.702Z"/>
<path fill="#3E3D3F" d="M60.3057 71.7896C52.4833 70.7284 37.8215 71.7896 35.1674 73.9121C32.5133 76.0347 32.2225 91.5998 34.3281 94.0724C36.4337 96.545 41.5909 100.44 57.0921 97.6099L61.4211 102.032L60.4456 97.433C60.4456 97.433 63.9353 97.9637 65.8899 90.0042C67.8446 82.0448 68.1244 72.8509 60.3057 71.7896Z" opacity="0.13"/>
<path fill="#72D7D9" d="M60.6887 101.87L59.7132 97.2709C59.7132 97.2709 63.2029 97.8015 65.1575 89.8421C67.1122 81.8827 67.392 72.6888 59.5733 71.6275C51.7546 70.5663 37.0891 71.6275 34.435 73.75C31.7809 75.8726 31.4901 91.4377 33.5957 93.9103C35.7013 96.3828 40.8585 100.278 56.3597 97.4478L60.6887 101.87Z"/>
</g>
<defs>
<filter color-interpolation-filters="sRGB" filterUnits="userSpaceOnUse" height="223" width="175" y="0" x="0" id="filter0_d_168_474">
<feFlood result="BackgroundImageFix" flood-opacity="0"/>
<feColorMatrix result="hardAlpha" values="0 0 0 0 0 0 0 0 0 0 0 0 0 0 0 0 0 0 127 0" type="matrix" in="SourceAlpha"/>
<feOffset dy="4"/>
<feGaussianBlur stdDeviation="2"/>
<feComposite operator="out" in2="hardAlpha"/>
<feColorMatrix values="0 0 0 0 0 0 0 0 0 0 0 0 0 0 0 0 0 0 0.25 0" type="matrix"/>
<feBlend result="effect1_dropShadow_168_474" in2="BackgroundImageFix" mode="normal"/>
<feBlend result="shape" in2="effect1_dropShadow_168_474" in="SourceGraphic" mode="normal"/>
</filter>
<clipPath id="clip0_168_474">
<rect transform="translate(16 61)" fill="white" height="133" width="143"/>
</clipPath>
</defs>
</svg>