<svg xmlns="http://www.w3.org/2000/svg" fill="none" viewBox="3.929 0 166.964 214.972" width="166.964" height="214.972" xmlns:v="https://vecta.io/nano"><style><![CDATA[.B{fill:#fff}.C{fill:#3e3d3f}.D{opacity:.13}.E{fill:#ffd4ca}.F{stroke-miterlimit:10}.G{fill:#002a39}]]></style><g filter="url(#A)"><rect fill="#007dc4" rx="6" height="215" width="167" x="4"/></g><path d="M38.679 30.085v9.156l-.216 1.229c-.515.896-1.154 1.566-1.917 2.009-.769.443-1.843.664-3.221.664-1.04 0-1.868-.124-2.482-.373-.631-.255-1.19-.631-1.677-1.129-.504-.509-.874-1.082-1.112-1.718-.249-.631-.373-1.334-.373-2.108v-4.341h3.262v4.076c0 .581.183 1.051.548 1.411.354.36.966.539 1.835.539.941 0 1.544-.166 1.81-.498v-8.915h3.544zm-6.209-4.117a1.68 1.68 0 0 0-1.237.506 1.68 1.68 0 0 0-.523 1.245c0 .487.174.899.523 1.237.338.343.75.515 1.237.515.482 0 .897-.172 1.245-.515a1.68 1.68 0 0 0 .506-1.237c0-.481-.169-.896-.506-1.245-.349-.337-.764-.506-1.245-.506zm11.165 2.382v5.254c0 .664.044 1.099.133 1.303.1.354.498.534 1.195.54h.515V39H43.46c-.636 0-1.209-.136-1.718-.407-.504-.26-.91-.634-1.22-1.121a2.7 2.7 0 0 1-.216-.423c-.061-.144-.108-.302-.141-.473-.039-.166-.069-.36-.091-.581a7.74 7.74 0 0 1-.025-.739V25.47h3.81v2.88h-.224zM44.805 39v-3.553l7.388-.008c.592-.636.888-1.314.888-2.034 0-.581-.183-1.054-.548-1.419-.354-.354-.83-.531-1.428-.531-.581 0-1.046.166-1.395.498-.277.26-.445.609-.506 1.046l-3.096-1.552a4.4 4.4 0 0 1 .398-.963c.509-.896 1.151-1.566 1.926-2.009.769-.443 1.66-.664 2.673-.664.769 0 1.461.125 2.075.374.631.249 1.187.625 1.668 1.129.504.492.877 1.063 1.121 1.71s.365 1.353.365 2.117a5.83 5.83 0 0 1-.482 2.308h1.527V39H44.805zm15.589-13.821c-.349-.343-.764-.515-1.245-.515-.487 0-.899.171-1.237.515-.343.343-.515.755-.515 1.237 0 .492.172.908.515 1.245.338.343.75.515 1.237.515s.902-.172 1.245-.515a1.71 1.71 0 0 0 .506-1.245 1.7 1.7 0 0 0-.506-1.237zm4.491 0c-.349-.343-.764-.515-1.245-.515-.487 0-.899.171-1.237.515-.349.343-.523.755-.523 1.237 0 .492.174.908.523 1.245a1.67 1.67 0 0 0 1.237.515c.481 0 .897-.172 1.245-.515a1.71 1.71 0 0 0 .506-1.245 1.7 1.7 0 0 0-.506-1.237zM56.709 39v-3.553h3.91c.697-.006 1.096-.185 1.195-.54.094-.205.141-.639.141-1.303v-4.009h3.578v5.852h1.021V39h-9.845zm15.813-2.399c.509 0 .916-.172 1.22-.515.304-.332.457-.786.457-1.361s-.152-1.035-.457-1.378c-.31-.349-.717-.523-1.22-.523-.498 0-.902.174-1.212.523s-.465.808-.465 1.378c0 .565.155 1.018.465 1.361.304.343.708.515 1.212.515zm-5.271-1.154a6.24 6.24 0 0 1-.041-.722c0-1.505.501-2.745 1.502-3.719 1.029-1.002 2.299-1.502 3.81-1.502.775 0 1.475.124 2.1.373.647.255 1.223.631 1.727 1.129.504.487.88 1.043 1.129 1.668.249.614.374 1.298.374 2.05 0 .714-.127 1.392-.382 2.034-.26.62-.642 1.181-1.146 1.685-.487.47-1.06.838-1.718 1.104-.636.266-1.331.398-2.084.398a5.56 5.56 0 0 1-2.092-.39A4.55 4.55 0 0 1 69.392 39h-3.519v-3.553h1.378zm23.151-7.097v7.097l-.025.548-.083.581c-.039.172-.089.329-.149.473a2.7 2.7 0 0 1-.216.423c-.31.487-.717.86-1.22 1.121-.509.271-1.082.407-1.718.407H84.3v-.008c-.664-.017-1.287-.136-1.868-.357a4.94 4.94 0 0 1-1.718-1.121c-.498-.487-.874-1.046-1.129-1.677-.249-.614-.374-1.306-.374-2.075 0-1.007.221-1.898.664-2.673.432-.742 1.071-1.364 1.917-1.868l-1.046-2.249 3.221-1.494 2.49 5.354c-1.555.271-2.543.681-2.963 1.228-.426.548-.639 1.115-.639 1.702 0 .598.18 1.076.54 1.436.36.365.83.548 1.411.548l2.05-.008V25.47h3.727v2.88h-.183zM93.166 39V28.417h-.539V25.47h3.843V39h-3.304zm8.094-9.712h3.644l.008 4.541c.116 1.074 1.06 1.61 2.831 1.61h.373c1.777 0 2.723-.537 2.839-1.61 0-.028.003-.044.008-.05.006-.022.009-.111.009-.266v-3.785h3.544v.017h.324l.315.008c.836.05 1.583.274 2.242.672.741.454 1.341 1.121 1.801 2.001.216.421.373.949.473 1.585v1.436h1.336V39h-4.955v-3.445c-.133-1.179-.614-1.771-1.445-1.776v.415l-.008.316c-.044.836-.268 1.583-.672 2.241-.454.741-1.121 1.342-2.001 1.801-.42.216-.949.373-1.585.473h-4.815c-.636-.1-1.164-.257-1.585-.473-.88-.459-1.547-1.06-2.001-1.801-.404-.659-.628-1.406-.672-2.241-.005-.028-.008-.133-.008-.316v-4.906zm4.266 13.846c.482 0 .894-.172 1.237-.515s.515-.755.515-1.237c0-.487-.172-.902-.515-1.245s-.755-.515-1.237-.515c-.487 0-.902.172-1.245.515s-.514.758-.514 1.245.171.899.514 1.237c.343.343.758.515 1.245.515zm3.246-2.997a1.8 1.8 0 0 0-.374.54c-.094.216-.141.451-.141.706a1.67 1.67 0 0 0 .515 1.237 1.67 1.67 0 0 0 1.237.515c.487 0 .902-.172 1.245-.515s.515-.755.515-1.237c0-.487-.172-.902-.515-1.245-.349-.343-.764-.515-1.245-.515s-.894.172-1.237.515zm16.983-11.804v6.923l-.033.739a4.86 4.86 0 0 1-.075.581c-.044.172-.094.329-.149.473a3.16 3.16 0 0 1-.224.423 3.06 3.06 0 0 1-1.212 1.121c-.509.271-1.082.407-1.718.407h-2.017v-3.553h.506c.697-.006 1.099-.185 1.204-.54.088-.205.132-.639.132-1.303V25.47h3.811v2.864h-.225zm5.172.017v5.254c0 .664.044 1.099.133 1.303.099.354.498.534 1.195.54h.515V39h-2.018c-.636 0-1.209-.136-1.718-.407a3.13 3.13 0 0 1-1.22-1.121c-.072-.111-.144-.252-.216-.423-.061-.144-.108-.302-.141-.473a4.53 4.53 0 0 1-.091-.581c-.017-.155-.025-.401-.025-.739V25.47h3.81v2.88h-.224zm3.611 14.784c.487 0 .902-.172 1.245-.515a1.7 1.7 0 0 0 .506-1.237 1.71 1.71 0 0 0-.506-1.245c-.349-.343-.764-.515-1.245-.515-.487 0-.9.172-1.237.515-.343.343-.515.758-.515 1.245a1.67 1.67 0 0 0 .515 1.237c.337.343.75.515 1.237.515zm4.49 0a1.71 1.71 0 0 0 1.245-.515 1.7 1.7 0 0 0 .507-1.237 1.71 1.71 0 0 0-1.752-1.76c-.487 0-.899.172-1.236.515a1.68 1.68 0 0 0-.523 1.245c0 .487.174.899.523 1.237.337.343.749.515 1.236.515zM132.096 39v-3.553h3.91c.697-.006 1.096-.185 1.195-.54.094-.205.141-.639.141-1.303v-4.009h3.578v5.852h1.021V39h-9.845zm14.593-10.666v6.923l-.033.739c-.017.216-.042.41-.075.581-.044.172-.094.329-.149.473-.078.172-.153.313-.224.423-.305.487-.709.86-1.212 1.121-.51.271-1.082.407-1.719.407h-2.017v-3.553h.507c.697-.006 1.098-.185 1.203-.54.089-.205.133-.639.133-1.303V25.47h3.81v2.864h-.224z" class="B"/><g clip-path="url(#B)"><path d="M118.659 168.685c18.786-18.805 18.786-49.295 0-68.101s-49.244-18.805-68.03 0-18.786 49.296 0 68.101 49.244 18.806 68.031 0z" class="C D"/><path fill="#2c80c9" d="M116.837 168.319c18.786-18.806 18.786-49.295 0-68.101s-49.245-18.805-68.031 0-18.786 49.295 0 68.101 49.244 18.806 68.031 0z"/><g stroke="#fff" class="F"><path stroke-dasharray="2 2" stroke-width=".97" d="M65.467 177.381C8.752 170.413-.506 98.074 45.449 80.53c4.101-1.566 8.559-1.993 12.954-2.027 18.575-.159 36.528 6.449 55.025 7.923 5.647.446 11.82.258 16.259-3.224a9.92 9.92 0 0 0 2.875-3.453 10.16 10.16 0 0 0 .909-3.832c.35-6.264-4.119-12.507-10.226-14.239s-13.226 1.198-16.292 6.692"/><path stroke-dasharray="2.2 2.2" stroke-width="1.1" d="M117.146 178.465c13.793-3.317 26.364-12.238 33.884-24.321s9.803-27.184 5.868-40.471-14.102-24.49-27.089-29.48"/></g><g class="E"><path d="M77.523 118.227s.276 8.332 8.294 8.332c6.6 0 6.063-8.826 6.063-8.826l-14.356.494z"/><path d="M84.896 94.924c-9.571.099-11.371 6.632-11.25 14.371.217 14.002 14.136 15.55 18.303 11.021 7.101-7.727 9.25-25.558-7.053-25.392z"/></g><g fill="#f1c1ba"><path d="M75.435 106.844a9.81 9.81 0 0 1-1.778.704v1.732c.066 4.245 1.399 7.34 3.331 9.474-.935-1.533-1.402-3.519-1.553-11.91z"/><path d="M73.654 107.548s-.213-2.782-1.561-3.084c-1.841-.405-2.65 6.22 1.756 7.348l-.195-4.264zm23.879.766a1.54 1.54 0 0 1 .455-.479 1.52 1.52 0 0 1 .615-.242c.22-.035.445-.022.66.039a1.53 1.53 0 0 1 .582.314c1.148.855-.324 6.445-3.777 5.317l1.465-4.949z"/></g><path d="M88.783 94.452c-13.823-3.025-16.086 8.704-15.129 13.096.614-.176 1.209-.412 1.778-.704 1.804-.914 4.314-2.834 4.211-6.434 0 0 2.993 4.982 15.35 6.523 0 2.141.674 3.545 1.668 4.34.375-.955.666-1.941.869-2.947.883-4.26.928-11.752-8.746-13.874z" class="C"/><path stroke-width=".46" stroke="#19181b" d="M79.646 100.41l-.674-2.671" class="F"/><g class="E"><path d="M46.921 166.441a4.05 4.05 0 0 1-1.98-2.385 4.06 4.06 0 0 1 .283-3.088l13.447-25.584a4.05 4.05 0 0 1 .995-1.229 4.04 4.04 0 0 1 1.389-.755 4.06 4.06 0 0 1 1.572-.165 4.05 4.05 0 0 1 3.495 2.835 4.06 4.06 0 0 1-.283 3.087l-13.44 25.585a4.05 4.05 0 0 1-2.387 1.987 4.03 4.03 0 0 1-1.574.164 4.04 4.04 0 0 1-1.517-.452zm71.959 1.65a4.05 4.05 0 0 0 2.251-2.131 4.06 4.06 0 0 0 .086-3.101l-10.307-27.007a4.05 4.05 0 0 0-7.478-.208c-.439.981-.47 2.097-.087 3.101l10.307 27.007c.384 1.004 1.15 1.814 2.13 2.253s2.094.47 3.098.086z"/></g><g fill="#ffa82f"><path d="M84.925 121.315c-2.139-.24-20.806 2.87-24.623 8.173-2.326 3.228-5.216 27.191 4.149 44.473 0 0 8.614 9.294 24.49 8.572 13.83-.627 19.411-7.72 19.786-12.142.736-8.748 5.371-37.557-4.13-43.586-6.906-4.377-14.853-4.956-19.672-5.49z"/><path d="M61.292 128.088l-11.275 15.926 12.531 5.642 7.642-16.428-8.897-5.14zm43.305-1.279l12.324 12.691-10.899 8.276-5.89-13.545 4.465-7.422z"/></g><path d="M68.942 185.875l6.85-1.684 2.017 7.849-6.935 1.706c-2.161.531-6.725-1.201-7.579-2.642-1.137-1.916 3.505-4.698 5.647-5.229z" class="E"/><path d="M74.813 184.832s42.005-22.46 49.835-24.269 12.751 1.404 12.195 5.896c-.368 2.874-3.313 7.738-12.044 12.864s-33.274 13.343-38.696 13.966-11.29-.302-11.29-.302v-8.155z" class="G"/><path d="M107.417 186.03l-6.847-1.681-2.017 7.835 6.936 1.706c2.161.53 6.721-1.202 7.579-2.642 1.138-1.902-3.486-4.684-5.65-5.218z" class="E"/><path d="M101.612 182.267c0 .756-2.257 11.155-2.257 11.155s-34.179-4.975-46.073-10.399-15.895-10.686-17.467-14.622c-1.542-3.865 1.204-11.003 13.252-6.028s52.544 19.894 52.544 19.894z" class="G"/><g fill="#003c50"><path d="M60.803 109.457l20.938 3.173-.383 36.827-20.46-3.56-.096-36.44zm28.333 3.364l20.556-3.364.095 36.536-20.459 3.464-.191-36.636z"/></g><g fill="#f7f4f4"><path d="M84.719 111.668l17.386-6.537 5.187 3.652-18.925 4.326-3.648-1.441z"/><path d="M75.689 102.341v3.656l9.03 5.671-9.03-9.327z"/><path d="M94.419 101.859l-9.7 9.809 9.795-6.25-.096-3.559z"/></g><g class="B"><path d="M97.588 103.207l-12.869 8.461 12.976-4.883-.107-3.578z"/><path d="M72.328 103.303v3.943l12.391 4.422-12.391-8.365z"/></g><path fill="#f7f4f4" d="M63.012 108.591l19.451 4.164 2.256-1.087-16.138-6.346c-.287.103-5.57 3.269-5.57 3.269z"/><g class="B"><path d="M63.012 108.591l-1.425.962 20.154 3.077.6.092-19.329-4.131zm25.355 4.518l18.925-4.327 1.2.774-20.125 3.553z"/></g><path fill="#d7d4d4" d="M81.741 112.629s3.007 2.875 7.704.258l-4.727-1.219-2.978.961z"/><g stroke-width=".18" stroke="#d7d4d4" class="F"><path d="M63.799 108.178l18.774 4.286m-17.415-5.144l18.148 4.945m-16.58-5.896l17.176 5.73m-15.877-6.452l16.433 6.231m22.116-3.571l-19.33 4.33m17.876-5.339l-18.958 5.31m17.794-6.151l-18.545 5.719m17.375-6.526l-17.739 6.257"/></g><path d="M81.741 112.63s2.787 2.885 7.395.191l.191 36.636s-3.935 2.786-7.97 0l.383-36.827z" class="G"/><g opacity=".09" fill="#35393a"><path d="M120.098 161.171l-19.23-18.712c.394-1.301-.563-3.022-.696-3.25l-.478-3.641a.85.85 0 0 0-.103-.319c-.055-.098-.13-.184-.219-.253a.86.86 0 0 0-.301-.147c-.109-.028-.223-.034-.334-.018-.225.034-.427.154-.565.335s-.199.409-.172.634l.42 3.195-.324.254-1.472-1.72-3.53-5.1a.79.79 0 0 0-.225-.217.81.81 0 0 0-.29-.115.82.82 0 0 0-.312.006.79.79 0 0 0-.286.125.8.8 0 0 0-.217.225c-.057.089-.096.187-.114.291a.8.8 0 0 0 .131.599l3.195 4.672-.213.129-3.898-4.304a.8.8 0 0 0-.251-.186c-.095-.045-.198-.071-.303-.076a.81.81 0 0 0-.309.046.79.79 0 0 0-.268.161c-.078.071-.141.156-.186.251a.8.8 0 0 0 .131.88l3.825 4.223-.214.199-3.883-3.357a.8.8 0 0 0-.272-.154c-.1-.033-.205-.046-.31-.039s-.207.036-.301.084a.79.79 0 0 0-.4.464c-.033.1-.046.205-.038.31a.8.8 0 0 0 .083.301.79.79 0 0 0 .192.246l4.127 3.564-.055.265-3.177-2.373c-.169-.128-.383-.184-.593-.154a.8.8 0 0 0-.528.31c-.128.17-.183.383-.154.594s.141.4.31.529l4.94 3.729.052.059a4.29 4.29 0 0 0 2.555 1.378l18.405 21.686c.366.396.806.715 1.296.939a4.04 4.04 0 0 0 1.559.364c.538.016 1.074-.075 1.577-.269a4.04 4.04 0 0 0 1.35-.86 4.03 4.03 0 0 0 .912-1.316c.214-.495.327-1.028.332-1.567s-.097-1.074-.301-1.574-.505-.952-.886-1.333l.018.007zm-38.729-21.365c.17-.122.286-.306.323-.513a.81.81 0 0 0-.637-.913.81.81 0 0 0-.591.125l-4.2 2.948-.191-.217 4.226-3.822c.078-.07.141-.156.186-.251a.8.8 0 0 0 .03-.612.79.79 0 0 0-.161-.268.8.8 0 0 0-.251-.186c-.095-.045-.198-.071-.303-.076a.81.81 0 0 0-.309.046.79.79 0 0 0-.268.161l-4.325 3.884-.206-.151 3.681-4.319a.8.8 0 0 0 .152-.272c.032-.1.045-.206.037-.31a.8.8 0 0 0-.085-.301c-.048-.094-.113-.176-.193-.245a.79.79 0 0 0-.272-.152c-.1-.033-.205-.045-.31-.037a.79.79 0 0 0-.3.085.78.78 0 0 0-.245.193l-4.02 4.72h-.018l-1.653 1.563-.294-.281.736-3.139c.05-.222.012-.455-.107-.649s-.309-.334-.529-.39a.84.84 0 0 0-.332-.017.85.85 0 0 0-.312.113.82.82 0 0 0-.244.225.84.84 0 0 0-.139.302l-.839 3.574c-.129.18-.946 1.356-1.045 2.517l-22.087 16.106c-.834.668-1.371 1.637-1.494 2.698a4.06 4.06 0 0 0 .835 2.97c.327.42.734.771 1.197 1.034s.973.431 1.502.496 1.064.025 1.577-.117a4.06 4.06 0 0 0 1.412-.713l21.822-18.705c.994-.046 1.942-.436 2.68-1.105l.059-.055 5.293-3.232a.8.8 0 0 0 .329-.493c.043-.2.007-.41-.099-.585a.8.8 0 0 0-.473-.358c-.198-.054-.408-.031-.589.065l-3.387 2.064a2.12 2.12 0 0 0-.026-.273l4.458-3.132z"/></g><g class="E"><path d="M119.98 167.369a4.06 4.06 0 0 0 1.243-2.841c.021-1.075-.385-2.114-1.129-2.889l-20.746-20.19c-1.542-1.606-3.379-2.314-4.984-.77s-.442 2.827 1.104 4.422l18.792 22.139c.742.776 1.761 1.225 2.833 1.249s2.111-.378 2.887-1.12z"/><path d="M96.984 139.975a.8.8 0 0 0 .325-.512c.037-.206-.008-.419-.126-.593l-4.112-5.944c-.121-.171-.304-.289-.511-.327a.8.8 0 0 0-.593.125c-.171.121-.287.305-.325.511s.006.42.123.594l4.112 5.94c.12.173.304.292.512.331a.8.8 0 0 0 .596-.125zm-1.332.837c.078-.071.141-.156.186-.251a.8.8 0 0 0-.131-.88l-4.848-5.351a.8.8 0 0 0-.554-.259c-.212-.01-.418.063-.576.204s-.249.343-.259.554a.81.81 0 0 0 .204.577l4.852 5.358c.143.156.342.248.553.257s.417-.066.573-.209zm-.703 1.503a.8.8 0 0 0 .191-.58c-.015-.211-.113-.408-.272-.547l-5.467-4.724a.8.8 0 1 0-1.045 1.212l5.466 4.724a.8.8 0 0 0 1.126-.085zm.239 2.278a.8.8 0 0 0-.158-1.106l-5.776-4.366c-.168-.123-.378-.176-.584-.146s-.393.139-.52.304a.78.78 0 0 0-.146.584.81.81 0 0 0 .3.522l5.768 4.355c.168.127.379.182.588.155a.8.8 0 0 0 .528-.302zm3.6-2.252l-.795-6.054c-.026-.226.035-.453.173-.633a.87.87 0 0 1 .563-.336c.11-.017.222-.011.33.016a.85.85 0 0 1 .299.142.84.84 0 0 1 .22.247.85.85 0 0 1 .108.313l.652 4.964-1.55 1.341z"/><path d="M100.154 139.651s1.156 1.916.699 3.317c-.169.53-.795 1.105-1.421 1.614a4.44 4.44 0 0 1-3.142 1.049c-1.143-.068-2.216-.576-2.994-1.418l-.052-.059c-.49-.532-.785-1.214-.84-1.936s.137-1.44.541-2.04c0 0 1.594-1.673 2.625-1.905l1.045-.258 1.473 1.721.331-.258 1.734.173zM72.568 141.7c-.08-.068-.145-.152-.193-.245s-.076-.196-.085-.3a.8.8 0 0 1 .189-.583l4.686-5.505a.8.8 0 0 1 .245-.193c.094-.048.195-.076.3-.085a.81.81 0 0 1 .31.037c.1.033.192.084.272.153s.145.151.193.245a.79.79 0 0 1 .084.3.8.8 0 0 1-.189.582l-4.686 5.502a.8.8 0 0 1-.244.194c-.093.048-.195.077-.3.086a.81.81 0 0 1-.31-.036.8.8 0 0 1-.273-.152z"/><path d="M73.793 142.665a.81.81 0 0 1 .055-1.131l5.363-4.845c.157-.142.364-.215.575-.204a.8.8 0 0 1 .551.262.81.81 0 0 1-.055 1.132l-5.36 4.842a.8.8 0 0 1-1.13-.056zm.549 1.567c-.118-.174-.164-.386-.127-.593s.152-.391.322-.513l5.912-4.149c.173-.118.386-.164.592-.128a.8.8 0 0 1 .512.323.78.78 0 0 1 .127.593c-.037.207-.152.39-.323.513l-5.901 4.149c-.174.122-.389.169-.598.133a.8.8 0 0 1-.517-.328zm-.464 2.258a.8.8 0 0 1-.108-.294.81.81 0 0 1 .013-.314.8.8 0 0 1 .132-.285c.062-.085.141-.157.231-.212l6.169-3.755c.09-.055.19-.092.294-.109s.211-.012.313.012a.81.81 0 0 1 .284.132.8.8 0 0 1 .321.525.81.81 0 0 1-.377.811l-6.17 3.755c-.09.055-.19.092-.294.108s-.211.013-.313-.012a.79.79 0 0 1-.285-.131.81.81 0 0 1-.213-.231zm-3.357-2.616l1.395-5.947a.88.88 0 0 0-.109-.649c-.119-.194-.308-.334-.528-.391a.84.84 0 0 0-.332-.016.83.83 0 0 0-.312.113c-.096.058-.179.134-.245.224a.85.85 0 0 0-.139.302l-1.141 4.872 1.41 1.492z"/><path d="M69.431 141.059s-1.344 1.791-1.027 3.224c.118.542.681 1.168 1.255 1.747a4.44 4.44 0 0 0 6.14.232l.059-.055c.54-.481.902-1.13 1.028-1.842s.007-1.446-.336-2.083c0 0-1.417-1.82-2.422-2.159l-1.001-.339-1.653 1.566-.302-.291h-1.741z"/><path d="M45.615 165.398c-.663-.845-.964-1.919-.836-2.986s.673-2.039 1.517-2.704l23.393-17.068c1.752-1.379 3.626-1.861 4.999-.107s.574 3.136-1.178 4.514l-22.212 19.036c-.845.663-1.918.964-2.983.835s-2.037-.675-2.7-1.52z"/></g><path fill="#91f3e2" d="M95.479 106.019l3.795-2.296c.106-.062.227-.097.35-.1a.73.73 0 0 1 .356.08.74.74 0 0 1 .398.584c.015.19-.027.38-.12.547a.97.97 0 0 1-.402.389l-4.082 2.078-.294-1.282z"/><g class="E"><path d="M138.614 121.86H126.54a5.02 5.02 0 0 1-3.547-1.472 5.03 5.03 0 0 1-1.47-3.55v-6.176a5.03 5.03 0 0 1 1.472-3.548c.94-.941 2.215-1.47 3.545-1.471h12.074a5.02 5.02 0 0 1 3.543 1.472 5.03 5.03 0 0 1 1.471 3.547v6.176a5.03 5.03 0 0 1-1.47 3.549c-.939.942-2.214 1.471-3.544 1.473zm-12.074-15.845c-1.231.001-2.411.491-3.281 1.362s-1.36 2.053-1.361 3.285v6.176c.001 1.232.491 2.413 1.361 3.284a4.64 4.64 0 0 0 3.281 1.363h12.074a4.64 4.64 0 0 0 3.281-1.363 4.65 4.65 0 0 0 1.361-3.284v-6.176a4.66 4.66 0 0 0-1.362-3.284c-.87-.871-2.049-1.361-3.28-1.363H126.54z"/><path d="M132.702 117.077l-10.373-8.475.235-.291 10.131 8.273 9.884-8.678.25.28-10.127 8.891z"/><path d="M129.569 114.463l-7.302 4.511.198.32 7.302-4.511-.198-.32zm6.106-.165l-.203.317 7.3 4.68.203-.316-7.3-4.681z"/></g><g class="B"><path d="M21.724 128.15l6.206-19.644.092.03 21.222 6.555-27.52 13.059zm6.335-19.397l-6.008 19.025 26.648-12.65-20.64-6.375zm-.279 12.54l2.577-8.21 8.614 2.719-11.191 5.491zm2.709-7.967l-2.378 7.584 10.344-5.067-7.966-2.517z"/><use href="#C"/><use href="#D"/><use href="#E"/><path d="M33.13 110.264l-.251.829.19.057.251-.829-.19-.057zm.684.238l-.43 1.271.188.064.43-1.271-.188-.064zm.714.218l-.251.829.19.057.251-.828-.19-.058zm-6.26-1.907l-.43 1.27.188.064.43-1.27-.188-.064zm.855.18l-.251.832.191.057.251-.831-.191-.058zm.541.269l-.43 1.27.188.064.43-1.27-.188-.064z"/><use href="#F"/><path d="M35.325 111l-.43 1.271.188.063.43-1.27-.188-.064zm.709.215l-.251.829.19.058.251-.829-.19-.058zm.669.23l-.431 1.27.188.064.43-1.27-.188-.064zm.714.212l-.251.829.19.058.251-.829-.19-.058zm.684.24l-.43 1.27.188.064.43-1.27-.188-.064zm.71.211l-.251.829.19.057.251-.828-.19-.058zm.807.21l-.409 1.277.189.061.408-1.277-.189-.061zm.718.204l-.237.833.191.054.237-.832-.191-.055zm.67.211l-.408 1.278.189.06.408-1.277-.189-.061z"/><use href="#G"/><path d="M42.409 113.163L42 114.44l.189.061.408-1.278-.189-.06zm.719.202l-.237.833.191.055.237-.833-.191-.055z"/><use href="#H"/><path d="M44.646 113.836l-.237.832.191.055.237-.833-.191-.054zm.669.213l-.408 1.277.189.061.409-1.278-.189-.06zm.716.2l-.237.833.191.055.237-.833-.191-.055zm.693.227l-.409 1.277.189.061.408-1.278-.189-.06zm.494.041l-.234.832.191.053.234-.831-.191-.054z"/></g><path d="M86.309 78.264l-.861-2.487c.257-.262.433-.592.508-.951a1.92 1.92 0 0 0-.086-1.075c-.131-.343-.357-.641-.652-.858s-.646-.346-1.012-.37-.731.058-1.051.236-.584.444-.758.767a1.92 1.92 0 0 0-.224 1.055c.028.366.16.716.381 1.009l-1.079 2.675h-2.301v5.262h9.748v-5.262h-2.614zm-3.865-3.814a1.65 1.65 0 0 1 .282-.911c.182-.269.439-.479.739-.602s.63-.155.948-.091.61.221.84.45.386.522.45.841a1.65 1.65 0 0 1-.091.949c-.123.3-.332.558-.601.74s-.585.28-.91.282c-.218.002-.434-.04-.636-.123s-.385-.205-.539-.359a1.65 1.65 0 0 1-.482-1.176zm.313 1.367a1.91 1.91 0 0 0 1.344.545c.418-.002.823-.144 1.152-.402l.799 2.303h-4.27l.976-2.447z" class="C D"/><g fill="#ee0"><path d="M88.617 78.474h-9.736v5.262h9.736v-5.262z"/><path d="M86.029 78.518l-.876-2.531c.255-.262.43-.591.503-.95s.043-.73-.088-1.071a1.91 1.91 0 0 0-1.66-1.223 1.91 1.91 0 0 0-1.804.998c-.174.322-.252.686-.225 1.051s.157.714.377 1.007l-1.104 2.764.243.099 1.064-2.635a1.88 1.88 0 0 0 2.485.144l.843 2.436.243-.089zm-3.891-3.858a1.65 1.65 0 0 1 .278-.916c.181-.271.438-.482.739-.607s.632-.157.951-.093.612.221.843.452a1.65 1.65 0 0 1 .354 1.796c-.125.301-.337.558-.608.739s-.59.276-.915.276a1.64 1.64 0 0 1-1.162-.483c-.152-.153-.273-.335-.356-.534s-.124-.414-.124-.63z"/></g><path d="M121.121 90.421l.17-.133.07-.055-.737-.932-.261.203-15.14-19.733.033-.026-.081-.037-.041-.055-.029.022L101 67.792l-.128-.048-.041-.022-2.787-1.105.515 2.918.633 4.768-.029.022.037.052v.096l.037-.029 15.299 19.619-.111.088-.07.055.737.932.298-.236c.626.657 1.473 1.058 2.378 1.125a3.65 3.65 0 0 0 2.517-.765c.715-.559 1.197-1.364 1.353-2.258s-.028-1.815-.513-2.583h-.004z" class="C D"/><path fill="#ff3a29" d="M100.353 68.44l-2.419 1.89-.541-3.066 2.96 1.175z"/><path fill="#ffe2df" d="M104.6 70.4l-6.051 4.728-.644-4.975 2.279-1.784 4.417 2.03z"/><path fill="#f7ba43" d="M120.113 90.671l-5.827 4.555-.056-.07-15.733-20.175 5.982-4.672 15.634 20.363z"/><g class="B"><path d="M100.406 73.68l-.142.111 15.634 19.974.142-.111-15.634-19.973zm2.644-2.022l-.142.111 15.637 19.971.142-.111-15.637-19.971z"/></g><path fill="#ffe2df" d="M120.705 90.889l-.07.055-6.206 4.849-.736-.932.07-.055 6.206-4.849.736.932z"/><path d="M114.69 95.517c.621.68 1.475 1.1 2.392 1.177s1.829-.195 2.555-.761a3.66 3.66 0 0 0 1.359-2.295c.148-.909-.052-1.841-.559-2.609l-5.747 4.488z" class="B"/><path d="M148.789 131.92l-4.974-1.319h-.081l-.066-.018-12.49-.575-3.718 23.366 12.391 1.529 2.208.498 1.51.339.662.14c.07 0 .078 0 .085-.037v-.063c.081-.921 2.919-15.871 4.436-23.79l.037-.07z" class="C D"/><path fill="#ff2b00" d="M138.691 155.53h-.062L126.231 154l3.718-23.355 12.626.582-3.884 24.303z"/><g class="B"><path d="M142.998 156.506c-.092 0-.279-.052-.659-.136l-1.513-.343-2.208-.498h-.063v-.062l3.873-24.258 5.105 1.352v.063l-4.435 23.794v.062c0 .03 0 .048-.085.041l-.015-.015zm-3.523-16.936h-.066l-9.295-.667 1.141-4.532h8.835l-.615 5.199z"/></g><g stroke-width=".27" stroke="#003c50" class="F"><path d="M143.028 131.253l-4.086 24.28m5.304-23.915l-4.086 24.28m5.304-23.915l-4.086 24.28m5.305-23.915l-4.086 24.28"/></g><path d="M48.081 134.89a2.15 2.15 0 0 0-1.435-.81c-.567-.069-1.138.09-1.587.442L27.78 147.924c-3.917 1.19-6.35 4.344-7.222 5.667-.017.023-.026.052-.024.08s.014.056.034.077a.12.12 0 0 0 .075.037c.029.003.057-.004.081-.02.692-.432 2.065-.962 4.204-.369 3.247.921 5.492-2.078 5.492-2.078l17.301-13.417c.444-.353.731-.867.798-1.431a2.16 2.16 0 0 0-.438-1.58z" class="C D"/><path fill="#003c50" d="M47.58 134.26a2.16 2.16 0 0 1-.368 3.025l-17.301 13.417-2.639-3.408 17.301-13.417a2.15 2.15 0 0 1 1.583-.428c.563.072 1.075.363 1.425.811z"/><path fill="#d6b700" d="M34.675 141.545l-7.414 5.751 2.638 3.408 7.414-5.751-2.638-3.408z"/><path d="M29.9 150.702s-2.249 3-5.496 2.078c-2.135-.608-3.512-.081-4.2.369-.024.014-.052.019-.079.015a.13.13 0 0 1-.072-.036c-.019-.02-.032-.046-.035-.073s.003-.055.017-.079c.876-1.323 3.313-4.477 7.226-5.668l2.639 3.394z" class="B"/><path d="M60.306 71.79c-7.822-1.061-22.484 0-25.138 2.123s-2.945 17.688-.839 20.16 7.263 6.368 22.764 3.537l4.329 4.422-.976-4.599s3.49.531 5.444-7.429 2.234-17.153-5.584-18.215z" class="C D"/><path fill="#72d7d9" d="M60.689 101.87l-.975-4.599s3.49.531 5.444-7.429 2.234-17.153-5.584-18.215-22.484 0-25.138 2.123-2.945 17.688-.839 20.16 7.263 6.368 22.764 3.537l4.329 4.422z"/></g><defs><filter color-interpolation-filters="sRGB" filterUnits="userSpaceOnUse" height="223" width="175" y="0" x="0" id="A"><feFlood result="A" flood-opacity="0"/><feColorMatrix result="B" values="0 0 0 0 0 0 0 0 0 0 0 0 0 0 0 0 0 0 127 0" in="SourceAlpha"/><feOffset dy="4"/><feGaussianBlur stdDeviation="2"/><feComposite operator="out" in2="B"/><feColorMatrix values="0 0 0 0 0 0 0 0 0 0 0 0 0 0 0 0 0 0 0.25 0"/><feBlend in2="A"/><feBlend in="SourceGraphic"/></filter><clipPath id="B"><path transform="translate(16 61)" d="M0 0h143v133H0z" class="B"/></clipPath><path id="C" d="M31.037 109.607l-.43 1.27.188.064.43-1.27-.188-.064z"/><path id="D" d="M31.752 109.821l-.251.829.19.057.251-.828-.19-.058z"/><path id="E" d="M32.417 110.054l-.43 1.271.188.064.43-1.271-.188-.064z"/><path id="F" d="M30.374 109.477l-.251.829.19.058.251-.829-.19-.058z"/><path id="G" d="M41.722 112.935l-.237.833.191.055.237-.833-.191-.055z"/><path id="H" d="M43.929 113.635l-.409 1.277.189.061.408-1.278-.189-.06z"/></defs></svg>